<svg width="138" height="182" viewBox="0 0 138 182" fill="none" xmlns="http://www.w3.org/2000/svg">
<path d="M68.793 1.34082V45.8953" stroke="#1A1A1A" stroke-linecap="round" stroke-linejoin="round"/>
<path d="M69.0106 181.864C106.821 181.864 137.472 151.213 137.472 113.402C137.472 75.5918 106.821 44.9404 69.0106 44.9404C31.2002 44.9404 0.548828 75.5918 0.548828 113.402C0.548828 151.213 31.2002 181.864 69.0106 181.864Z" fill="#1A1A1A"/>
<path d="M110.241 80.8608L100.461 85.6422L98.0703 81.2955L108.068 76.2966L110.241 80.8608Z" fill="white"/>
<path d="M108.068 120.417L98.0703 115.636L100.461 111.072L110.241 116.07L108.068 120.417Z" fill="white"/>
<path d="M101.762 95.8572H111.759V100.856H101.762V95.8572Z" fill="white"/>
<path d="M30.9122 76.2966L40.6925 81.2955L38.5191 85.6422L28.5215 80.8608L30.9122 76.2966Z" fill="white"/>
<path d="M30.9122 120.417L28.5215 116.07L38.5191 111.072L40.6925 115.636L30.9122 120.417Z" fill="white"/>
<path d="M27 95.8572H37.2149V100.856H27V95.8572Z" fill="white"/>
<path d="M61.9883 150.844H76.9847V155.843H61.9883V150.844Z" fill="white"/>
<path d="M96.7634 98.4651C96.7777 93.5918 95.4913 88.8029 93.0369 84.5928C90.5826 80.3827 87.0492 76.9038 82.8014 74.5151C78.5536 72.1265 73.7454 70.9146 68.8729 71.0047C64.0004 71.0947 59.2402 72.4834 55.0836 75.0273C50.927 77.5713 47.5245 81.1783 45.2274 85.4763C42.9302 89.7742 41.8216 94.6073 42.0159 99.4768C42.2103 104.346 43.7005 109.076 46.3328 113.177C48.9652 117.278 52.6443 120.602 56.9904 122.807V130.631H51.9916V135.63H56.9904V145.845H81.767V135.63H86.7659V130.631H81.767V122.807C86.2509 120.505 90.0189 117.02 92.6625 112.729C95.3061 108.438 96.7244 103.505 96.7634 98.4651ZM76.9856 141.064H61.9892V135.63H76.9856V141.064ZM66.988 103.464C66.9577 103.132 66.9971 102.798 67.1036 102.482C67.2101 102.166 67.3814 101.877 67.6065 101.631C67.8316 101.385 68.1055 101.19 68.4107 101.056C68.7159 100.923 69.0456 100.854 69.3787 100.856C70.0704 100.856 70.7338 101.131 71.2229 101.62C71.712 102.109 71.9868 102.772 71.9868 103.464C71.9882 103.797 71.9199 104.127 71.7864 104.432C71.6529 104.737 71.4571 105.011 71.2116 105.236C70.966 105.461 70.6761 105.632 70.3605 105.739C70.0449 105.845 69.7105 105.885 69.3787 105.855C68.7447 105.855 68.1366 105.603 67.6882 105.154C67.2399 104.706 66.988 104.098 66.988 103.464ZM71.9868 130.631V110.419C73.422 109.895 74.6665 108.952 75.558 107.712C76.4496 106.471 76.9471 104.991 76.9856 103.464C76.9856 101.446 76.1842 99.5116 74.7576 98.085C73.331 96.6585 71.3962 95.857 69.3787 95.857C67.5002 95.6539 65.6153 96.1782 64.1114 97.3219C62.6075 98.4657 61.5988 100.142 61.2927 102.007C60.9866 103.871 61.4063 105.782 62.4656 107.347C63.5248 108.911 65.1432 110.01 66.988 110.419V130.631H61.9892V119.547L60.4678 118.895C55.8092 116.809 52.0034 113.193 49.6813 108.648C47.3592 104.102 46.6602 98.8998 47.7002 93.9025C48.7402 88.9053 51.4568 84.4135 55.3997 81.1719C59.3425 77.9302 64.2747 76.1334 69.3787 76.0792C74.4828 76.1334 79.415 77.9302 83.3578 81.1719C87.3006 84.4135 90.0172 88.9053 91.0572 93.9025C92.0973 98.8998 91.3983 104.102 89.0762 108.648C86.754 113.193 82.9482 116.809 78.2896 118.895L76.9856 119.547V130.631H71.9868Z" fill="white"/>
</svg>
