<svg width="138" height="183" viewBox="0 0 138 183" fill="none" xmlns="http://www.w3.org/2000/svg">
<path d="M70.2852 137.757V182.311" stroke="#1A1A1A" stroke-linecap="round" stroke-linejoin="round"/>
<path d="M69.2 137.887C107.01 137.887 137.662 107.236 137.662 69.4256C137.662 31.6152 107.01 0.963867 69.2 0.963867C31.3897 0.963867 0.738281 31.6152 0.738281 69.4256C0.738281 107.236 31.3897 137.887 69.2 137.887Z" fill="#1A1A1A"/>
<path d="M90.9854 84.8988C91.2019 79.8906 90.9838 74.873 90.3334 69.9025C88.197 56.9997 82.8952 44.8279 74.9023 34.4762L68.5995 26L62.2967 34.4762C54.3038 44.8279 49.0019 56.9997 46.8656 69.9025C46.2152 74.873 45.9971 79.8906 46.2136 84.8988C43.3407 87.0445 40.9678 89.7882 39.2587 92.9404C37.0975 96.4713 35.9682 100.537 35.9986 104.677V111.414L41.2148 107.719C43.8223 105.936 46.7904 104.749 49.9084 104.242C50.7777 107.285 51.6471 108.806 52.5164 111.414C54.2551 110.327 58.1672 105.546 66.2088 104.459V111.414H71.2075V104.459C76.33 105.269 81.0552 107.708 84.6826 111.414C85.717 109.087 86.5884 106.69 87.2906 104.242C90.4086 104.749 93.3768 105.936 95.9842 107.719L101.2 111.414V104.677C101.176 100.809 100.237 97.0009 98.4623 93.564C96.6872 90.1271 94.1253 87.1581 90.9854 84.8988ZM41.2148 101.851C41.8405 97.7023 43.8285 93.8793 46.8656 90.9843C47.2358 93.8487 47.8169 96.6818 48.6043 99.4605C46.0461 99.9265 43.5612 100.73 41.2148 101.851ZM82.2918 103.373C78.9569 101.213 75.1589 99.873 71.2075 99.4605V86.4202H66.2088V99.4605C62.1961 99.9017 58.3338 101.239 54.9071 103.373C47.3003 80.552 51.4297 57.2968 66.2088 37.5189L68.5995 34.2589L70.9902 37.5189C85.7693 57.2968 89.8987 80.552 82.2918 103.373ZM88.812 99.4605C89.5292 96.6769 90.0377 93.8436 90.3334 90.9843C93.3705 93.8793 95.3585 97.7023 95.9842 101.851C93.7005 100.763 91.2917 99.9605 88.812 99.4605Z" fill="white"/>
<path d="M26 46.2123H40.9964V51.2111H26V46.2123Z" fill="white"/>
<path d="M96.1992 46.2123H111.413V51.2111H96.1992V46.2123Z" fill="white"/>
<path d="M31.2183 28.3903L44.6933 34.9104L42.5199 39.2572L29.0449 32.9544L31.2183 28.3903Z" fill="white"/>
<path d="M106.198 69.0328L92.5059 62.73L94.6792 58.1659L108.154 64.4687L106.198 69.0328Z" fill="white"/>
<path d="M29.0449 64.4687L42.5199 58.1659L44.6933 62.73L31.2183 69.0328L29.0449 64.4687Z" fill="white"/>
<path d="M106.198 28.3903L108.154 32.9544L94.6792 39.2572L92.5059 34.9104L106.198 28.3903Z" fill="white"/>
<path d="M68.5986 56.21C65.5678 56.6105 62.7858 58.0989 60.7707 60.3979C58.7556 62.6968 57.6445 65.6498 57.6445 68.707C57.6445 71.7641 58.7556 74.7171 60.7707 77.0161C62.7858 79.3151 65.5678 80.8034 68.5986 81.204C70.378 81.4391 72.1871 81.2916 73.9049 80.7712C75.6227 80.2508 77.2096 79.3696 78.5593 78.1865C79.9091 77.0034 80.9906 75.5457 81.7316 73.9109C82.4726 72.2761 82.8559 70.5019 82.8559 68.707C82.8559 66.9121 82.4726 65.1379 81.7316 63.5031C80.9906 61.8683 79.9091 60.4106 78.5593 59.2275C77.2096 58.0443 75.6227 57.1631 73.9049 56.6427C72.1871 56.1224 70.378 55.9748 68.5986 56.21ZM68.5986 76.2052C66.6387 76.2052 64.7592 75.4266 63.3734 74.0408C61.9876 72.655 61.2091 70.7755 61.2091 68.8157C61.2082 66.8353 61.9798 64.9327 63.3597 63.5122C64.7396 62.0917 66.619 61.2654 68.5986 61.2088C70.616 61.2088 72.5509 62.0102 73.9774 63.4368C75.404 64.8633 76.2054 66.7982 76.2054 68.8157C76.1488 70.7952 75.3225 72.6747 73.902 74.0546C72.4816 75.4345 70.5789 76.206 68.5986 76.2052Z" fill="white"/>
<path d="M68.6005 72.293L65.123 68.8156L68.6005 65.1208L72.0779 68.8156L68.6005 72.293Z" fill="white"/>
</svg>
