<svg width="138" height="182" viewBox="0 0 138 182" fill="none" xmlns="http://www.w3.org/2000/svg">
<path d="M69.957 0.693848V45.031" stroke="#1A1A1A" stroke-linecap="round" stroke-linejoin="round"/>
<path d="M68.7196 181.768C106.53 181.768 137.181 151.117 137.181 113.306C137.181 75.4961 106.53 44.8447 68.7196 44.8447C30.9092 44.8447 0.257812 75.4961 0.257812 113.306C0.257812 151.117 30.9092 181.768 68.7196 181.768Z" fill="#1A1A1A"/>
<path d="M111.545 150.329H106.546V114.25L111.545 119.032V90.9951H83.2908L91.9843 99.6887L83.5081 108.382L64.3823 94.0379L31.9988 117.076V71H27V155.327H111.545V150.329ZM61.7742 114.033V150.329H46.9952V124.683L61.7742 114.033ZM66.7731 114.468L81.7694 125.552V150.329H66.7731V114.468ZM86.7682 126.204L101.547 111.208V150.329H86.7682V126.204ZM64.3823 100.123L83.9428 114.902L99.1565 99.6887L95.2444 95.7766H106.546V107.078L102.634 103.166L84.3775 121.423L64.165 106.426L31.9988 129.247V123.161L64.3823 100.123ZM31.9988 135.332L41.9964 128.16V150.329H31.9988V135.332Z" fill="white"/>
</svg>
