<svg width="138" height="182" viewBox="0 0 138 182" fill="none" xmlns="http://www.w3.org/2000/svg">
<path d="M68.8008 136.757V181.311" stroke="#1A1A1A" stroke-linecap="round" stroke-linejoin="round"/>
<path d="M69.2118 137.339C107.022 137.339 137.674 106.687 137.674 68.8771C137.674 31.0667 107.022 0.415283 69.2118 0.415283C31.4014 0.415283 0.75 31.0667 0.75 68.8771C0.75 106.687 31.4014 137.339 69.2118 137.339Z" fill="#1A1A1A"/>
<path d="M97.3091 42.6033L101.656 38.2565L105.568 42.1686L109.48 38.2565L97.7438 26.5202L93.8318 30.4323L97.7438 34.3444L92.9623 39.1258C88.2086 35.6947 82.8129 33.2555 77.0966 31.9536V25.4335H82.5301V20H54.928V25.4335H60.3615V31.9536C54.6452 33.2555 49.2495 35.6947 44.4958 39.1258L39.7143 34.3444L43.6264 30.4323L39.7143 26.5202L27.978 38.2565L31.8901 42.1686L35.8022 38.2565L40.149 42.6033C36.0209 46.4762 32.7332 51.1564 30.4899 56.3534C28.2466 61.5503 27.0957 67.1529 27.1087 72.8134C26.6952 78.5319 27.4645 84.2744 29.3688 89.6824C31.273 95.0904 34.2713 100.048 38.1766 104.246C42.0819 108.444 46.8104 111.792 52.067 114.081C57.3236 116.37 62.9956 117.552 68.7291 117.552C74.4626 117.552 80.1346 116.37 85.3912 114.081C90.6478 111.792 95.3763 108.444 99.2815 104.246C103.187 100.048 106.185 95.0904 108.089 89.6824C109.994 84.2744 110.763 78.5319 110.349 72.8134C110.375 67.151 109.231 61.5443 106.986 56.3455C104.742 51.1467 101.448 46.4681 97.3091 42.6033ZM66.0123 25.4335H71.4458V31.3016H66.0123V25.4335ZM68.6204 109.109C61.4327 109.152 54.3941 107.06 48.3968 103.098C42.3995 99.136 37.7136 93.4826 34.9331 86.8543C32.1526 80.2261 31.4027 72.9215 32.7785 65.8666C34.1544 58.8117 37.5939 52.3241 42.6612 47.2263C47.7285 42.1285 54.1953 38.6501 61.2418 37.2319C68.2883 35.8137 75.5973 36.5197 82.2421 39.2603C88.8869 42.0009 94.5684 46.6528 98.5663 52.6262C102.564 58.5996 104.699 65.6255 104.699 72.8134C104.699 82.402 100.905 91.6012 94.1448 98.4017C87.385 105.202 78.2088 109.052 68.6204 109.109Z" fill="white"/>
<path d="M71.445 64.9892V42.386H66.0115V64.9892C64.1081 65.6333 62.4954 66.9325 61.4611 68.6553C60.4268 70.378 60.0382 72.4122 60.3645 74.3949C60.6909 76.3776 61.711 78.1799 63.2429 79.4803C64.7748 80.7806 66.7188 81.4945 68.7282 81.4945C70.7376 81.4945 72.6816 80.7806 74.2135 79.4803C75.7454 78.1799 76.7656 76.3776 77.0919 74.3949C77.4183 72.4122 77.0296 70.378 75.9953 68.6553C74.961 66.9325 73.3483 65.6333 71.445 64.9892ZM68.6195 75.6389C67.8702 75.6389 67.1516 75.3412 66.6217 74.8113C66.0918 74.2814 65.7941 73.5628 65.7941 72.8134C65.7941 72.0641 66.0918 71.3454 66.6217 70.8156C67.1516 70.2857 67.8702 69.988 68.6195 69.988C68.9906 69.988 69.358 70.0611 69.7008 70.2031C70.0436 70.3451 70.355 70.5532 70.6174 70.8156C70.8798 71.0779 71.0879 71.3894 71.2299 71.7322C71.3719 72.075 71.445 72.4424 71.445 72.8134C71.445 73.1845 71.3719 73.5519 71.2299 73.8947C71.0879 74.2375 70.8798 74.5489 70.6174 74.8113C70.355 75.0737 70.0436 75.2818 69.7008 75.4238C69.358 75.5658 68.9906 75.6389 68.6195 75.6389Z" fill="white"/>
<path d="M66.0137 97.8077H71.4471V103.459H66.0137V97.8077Z" fill="white"/>
<path d="M38.1934 69.988H43.6268V75.6389H38.1934V69.988Z" fill="white"/>
<path d="M93.6172 69.988H99.2681V75.6389H93.6172V69.988Z" fill="white"/>
<path d="M49.0586 96.2859L45.1465 92.3738L49.0586 88.4617L52.9707 92.3738L49.0586 96.2859Z" fill="white"/>
<path d="M88.3966 57.165L84.4844 53.2529L88.3966 49.3408L92.3087 53.2529L88.3966 57.165Z" fill="white"/>
<path d="M88.3966 96.2859L84.4844 92.3738L88.3966 88.4617L92.3087 92.3738L88.3966 96.2859Z" fill="white"/>
<path d="M49.0586 57.165L45.1465 53.2529L49.0586 49.3408L52.9707 53.2529L49.0586 57.165Z" fill="white"/>
</svg>
