<svg width="138" height="182" viewBox="0 0 138 182" fill="none" xmlns="http://www.w3.org/2000/svg">
<path d="M72.5117 0.822266V45.1594" stroke="#1A1A1A" stroke-linecap="round" stroke-linejoin="round"/>
<path d="M68.7801 181.468C106.59 181.468 137.242 150.817 137.242 113.006C137.242 75.1961 106.59 44.5447 68.7801 44.5447C30.9697 44.5447 0.318359 75.1961 0.318359 113.006C0.318359 150.817 30.9697 181.468 68.7801 181.468Z" fill="#1A1A1A"/>
<path d="M63.469 92.9073C64.2277 92.1751 64.8306 91.297 65.2414 90.326C65.6522 89.3549 65.8625 88.3108 65.8597 87.2565C65.8999 85.8805 65.5549 84.5207 64.8637 83.3303C64.1725 82.1398 63.1625 81.1661 61.9476 80.5189L67.3811 69H38.9097L44.3432 80.5189C43.1283 81.1661 42.1183 82.1398 41.4271 83.3303C40.7359 84.5207 40.3908 85.8805 40.431 87.2565C40.4282 88.3108 40.6386 89.3549 41.0494 90.326C41.4603 91.297 42.0631 92.1751 42.8218 92.9073C28.9121 103.34 25 120.075 25 137.462V151.154H71.0759V156.153H112.153V105.078H74.1185C71.4103 100.356 67.7903 96.2185 63.469 92.9073ZM48.0379 89.8645C47.3462 89.8645 46.6828 89.5897 46.1937 89.1006C45.7046 88.6115 45.4299 87.9482 45.4299 87.2565C45.4299 86.5648 45.7046 85.9014 46.1937 85.4122C46.6828 84.9231 47.3462 84.6484 48.0379 84.6484H58.2528C58.9445 84.6484 59.6079 84.9231 60.097 85.4122C60.5861 85.9014 60.8609 86.5648 60.8609 87.2565C60.8107 87.9315 60.5198 88.5661 60.0411 89.0448C59.5625 89.5234 58.9279 89.8143 58.2528 89.8645H48.0379ZM59.3395 74.2161L56.7314 79.6496H49.5593L46.9512 74.2161H59.3395ZM30.2162 145.938V137.462C30.2162 116.597 36.3017 102.688 48.69 94.8633H57.6008C63.434 98.5662 68.1045 103.839 71.0759 110.077V145.938H30.2162ZM107.154 151.154H76.0746V140.939H107.154V151.154ZM76.0746 135.723V125.508H107.154V135.723H76.0746ZM107.154 110.294V120.509H76.0746V110.294H107.154Z" fill="white"/>
<path d="M51.2104 115.1C51.9021 115.1 52.5654 115.375 53.0545 115.864C53.5436 116.353 53.8183 117.016 53.8183 117.708H59.0345C59.0372 116.088 58.5367 114.507 57.6024 113.183C56.6681 111.859 55.3459 110.858 53.8183 110.318V107.493H48.8196V110.318C47.2921 110.858 45.9699 111.859 45.0355 113.183C44.1012 114.507 43.6009 116.088 43.6035 117.708C43.6035 119.725 44.4049 121.66 45.8314 123.087C47.258 124.513 49.1929 125.315 51.2104 125.315C51.9021 125.315 52.5654 125.589 53.0545 126.079C53.5436 126.568 53.8183 127.231 53.8183 127.923C53.8197 128.256 53.7515 128.586 53.618 128.891C53.4845 129.196 53.2887 129.47 53.0431 129.695C52.7976 129.92 52.5078 130.091 52.1922 130.198C51.8765 130.304 51.5421 130.344 51.2104 130.314C50.8964 130.314 50.5855 130.252 50.2955 130.132C50.0054 130.011 49.7419 129.835 49.5199 129.613C49.2979 129.391 49.1217 129.128 49.0016 128.838C48.8814 128.548 48.8196 128.237 48.8196 127.923H43.6035C43.6138 129.514 44.1225 131.061 45.0582 132.348C45.9939 133.634 47.3094 134.595 48.8196 135.095V138.138H53.8183V135.095C55.3286 134.595 56.6441 133.634 57.5797 132.348C58.5154 131.061 59.0242 129.514 59.0345 127.923C59.0345 125.848 58.2101 123.858 56.7428 122.39C55.2755 120.923 53.2855 120.099 51.2104 120.099C50.5763 120.099 49.9682 119.847 49.5199 119.398C49.0715 118.95 48.8196 118.342 48.8196 117.708C48.7893 117.376 48.8287 117.042 48.9353 116.726C49.0418 116.41 49.213 116.121 49.4381 115.875C49.6632 115.629 49.9371 115.434 50.2423 115.3C50.5475 115.167 50.8773 115.098 51.2104 115.1Z" fill="white"/>
</svg>
