<svg width="255" height="161" viewBox="0 0 276 161" fill="none" xmlns="http://www.w3.org/2000/svg">
<rect x="15" width="255" height="161" fill="#D1EACB"/>
<path d="M-1.37215e-06 79.8025L47.0867 52.617L47.0867 106.988L-1.37215e-06 79.8025Z" fill="#D1EACB"/>
<path d="M37.9581 29.748C37.7021 30.012 37.3861 30.144 37.0101 30.144C36.6341 30.144 36.3141 30.012 36.0501 29.748C35.7861 29.484 35.6541 29.164 35.6541 28.788C35.6541 28.412 35.7861 28.096 36.0501 27.84C36.3141 27.576 36.6341 27.444 37.0101 27.444C37.3861 27.444 37.7021 27.576 37.9581 27.84C38.2221 28.096 38.3541 28.412 38.3541 28.788C38.3541 29.164 38.2221 29.484 37.9581 29.748ZM51.7 28.644C52.084 28.828 52.388 29.092 52.612 29.436C52.844 29.78 52.96 30.176 52.96 30.624C52.96 31.296 52.724 31.86 52.252 32.316C51.78 32.772 51.204 33 50.524 33H46.9V24.6H50.26C50.916 24.6 51.472 24.82 51.928 25.26C52.384 25.7 52.612 26.244 52.612 26.892C52.612 27.636 52.308 28.22 51.7 28.644ZM50.26 25.644H48.016V28.212H50.26C50.612 28.212 50.908 28.088 51.148 27.84C51.388 27.592 51.508 27.288 51.508 26.928C51.508 26.576 51.384 26.276 51.136 26.028C50.896 25.772 50.604 25.644 50.26 25.644ZM50.524 31.956C50.9 31.956 51.216 31.824 51.472 31.56C51.728 31.296 51.856 30.972 51.856 30.588C51.856 30.212 51.724 29.892 51.46 29.628C51.204 29.364 50.892 29.232 50.524 29.232H48.016V31.956H50.524ZM54.942 30.48C55.046 31.016 55.29 31.432 55.674 31.728C56.066 32.024 56.546 32.172 57.114 32.172C57.906 32.172 58.482 31.88 58.842 31.296L59.73 31.8C59.146 32.704 58.266 33.156 57.09 33.156C56.138 33.156 55.362 32.86 54.762 32.268C54.17 31.668 53.874 30.912 53.874 30C53.874 29.096 54.166 28.344 54.75 27.744C55.334 27.144 56.09 26.844 57.018 26.844C57.898 26.844 58.614 27.156 59.166 27.78C59.726 28.396 60.006 29.14 60.006 30.012C60.006 30.164 59.994 30.32 59.97 30.48H54.942ZM57.018 27.828C56.458 27.828 55.994 27.988 55.626 28.308C55.258 28.62 55.03 29.04 54.942 29.568H58.95C58.862 29 58.638 28.568 58.278 28.272C57.918 27.976 57.498 27.828 57.018 27.828ZM66.1743 27H67.2063V32.748C67.2063 33.636 66.9063 34.324 66.3063 34.812C65.7063 35.308 64.9863 35.556 64.1463 35.556C63.4743 35.556 62.8943 35.428 62.4063 35.172C61.9183 34.924 61.5503 34.564 61.3023 34.092L62.2143 33.576C62.5423 34.248 63.1943 34.584 64.1703 34.584C64.7943 34.584 65.2823 34.42 65.6343 34.092C65.9943 33.764 66.1743 33.316 66.1743 32.748V31.896C65.6463 32.696 64.8943 33.096 63.9183 33.096C63.0623 33.096 62.3383 32.792 61.7463 32.184C61.1543 31.576 60.8583 30.836 60.8583 29.964C60.8583 29.092 61.1543 28.356 61.7463 27.756C62.3383 27.148 63.0623 26.844 63.9183 26.844C64.9023 26.844 65.6543 27.24 66.1743 28.032V27ZM62.5143 31.488C62.9223 31.896 63.4303 32.1 64.0383 32.1C64.6463 32.1 65.1543 31.896 65.5623 31.488C65.9703 31.08 66.1743 30.572 66.1743 29.964C66.1743 29.364 65.9703 28.86 65.5623 28.452C65.1543 28.044 64.6463 27.84 64.0383 27.84C63.4303 27.84 62.9223 28.044 62.5143 28.452C62.1063 28.86 61.9023 29.364 61.9023 29.964C61.9023 30.572 62.1063 31.08 62.5143 31.488ZM69.3161 25.908C69.1161 25.908 68.9481 25.84 68.8121 25.704C68.6761 25.568 68.6081 25.404 68.6081 25.212C68.6081 25.02 68.6761 24.856 68.8121 24.72C68.9481 24.576 69.1161 24.504 69.3161 24.504C69.5081 24.504 69.6721 24.576 69.8081 24.72C69.9441 24.856 70.0121 25.02 70.0121 25.212C70.0121 25.404 69.9441 25.568 69.8081 25.704C69.6721 25.84 69.5081 25.908 69.3161 25.908ZM68.7881 33V27H69.8321V33H68.7881ZM74.4128 26.844C75.1168 26.844 75.6808 27.068 76.1048 27.516C76.5288 27.956 76.7408 28.556 76.7408 29.316V33H75.6968V29.376C75.6968 28.888 75.5648 28.512 75.3008 28.248C75.0368 27.976 74.6728 27.84 74.2088 27.84C73.6888 27.84 73.2688 28.004 72.9488 28.332C72.6288 28.652 72.4688 29.148 72.4688 29.82V33H71.4248V27H72.4688V27.864C72.8928 27.184 73.5408 26.844 74.4128 26.844ZM86.1663 24.6H87.2103V33H86.1663V31.968C85.6463 32.76 84.8903 33.156 83.8983 33.156C83.0583 33.156 82.3423 32.852 81.7503 32.244C81.1583 31.628 80.8623 30.88 80.8623 30C80.8623 29.12 81.1583 28.376 81.7503 27.768C82.3423 27.152 83.0583 26.844 83.8983 26.844C84.8903 26.844 85.6463 27.24 86.1663 28.032V24.6ZM84.0303 32.148C84.6383 32.148 85.1463 31.944 85.5543 31.536C85.9623 31.12 86.1663 30.608 86.1663 30C86.1663 29.392 85.9623 28.884 85.5543 28.476C85.1463 28.06 84.6383 27.852 84.0303 27.852C83.4303 27.852 82.9263 28.06 82.5183 28.476C82.1103 28.884 81.9062 29.392 81.9062 30C81.9062 30.608 82.1103 31.12 82.5183 31.536C82.9263 31.944 83.4303 32.148 84.0303 32.148ZM89.524 30.48C89.628 31.016 89.872 31.432 90.256 31.728C90.648 32.024 91.128 32.172 91.696 32.172C92.488 32.172 93.064 31.88 93.424 31.296L94.312 31.8C93.728 32.704 92.848 33.156 91.672 33.156C90.72 33.156 89.944 32.86 89.344 32.268C88.752 31.668 88.456 30.912 88.456 30C88.456 29.096 88.748 28.344 89.332 27.744C89.916 27.144 90.672 26.844 91.6 26.844C92.48 26.844 93.196 27.156 93.748 27.78C94.308 28.396 94.588 29.14 94.588 30.012C94.588 30.164 94.576 30.32 94.552 30.48H89.524ZM91.6 27.828C91.04 27.828 90.576 27.988 90.208 28.308C89.84 28.62 89.612 29.04 89.524 29.568H93.532C93.444 29 93.22 28.568 92.86 28.272C92.5 27.976 92.08 27.828 91.6 27.828ZM99.7537 27H100.882L98.4817 33H97.2577L94.8577 27H95.9857L97.8697 31.884L99.7537 27ZM102.262 30.48C102.366 31.016 102.61 31.432 102.994 31.728C103.386 32.024 103.866 32.172 104.434 32.172C105.226 32.172 105.802 31.88 106.162 31.296L107.05 31.8C106.466 32.704 105.586 33.156 104.41 33.156C103.458 33.156 102.682 32.86 102.082 32.268C101.49 31.668 101.194 30.912 101.194 30C101.194 29.096 101.486 28.344 102.07 27.744C102.654 27.144 103.41 26.844 104.338 26.844C105.218 26.844 105.934 27.156 106.486 27.78C107.046 28.396 107.326 29.14 107.326 30.012C107.326 30.164 107.314 30.32 107.29 30.48H102.262ZM104.338 27.828C103.778 27.828 103.314 27.988 102.946 28.308C102.578 28.62 102.35 29.04 102.262 29.568H106.27C106.182 29 105.958 28.568 105.598 28.272C105.238 27.976 104.818 27.828 104.338 27.828ZM108.526 33V24.24H109.57V33H108.526ZM116.227 32.244C115.611 32.852 114.863 33.156 113.983 33.156C113.103 33.156 112.355 32.852 111.739 32.244C111.131 31.636 110.827 30.888 110.827 30C110.827 29.112 111.131 28.364 111.739 27.756C112.355 27.148 113.103 26.844 113.983 26.844C114.863 26.844 115.611 27.148 116.227 27.756C116.843 28.364 117.151 29.112 117.151 30C117.151 30.888 116.843 31.636 116.227 32.244ZM113.983 32.136C114.583 32.136 115.087 31.932 115.495 31.524C115.903 31.116 116.107 30.608 116.107 30C116.107 29.392 115.903 28.884 115.495 28.476C115.087 28.068 114.583 27.864 113.983 27.864C113.391 27.864 112.891 28.068 112.483 28.476C112.075 28.884 111.871 29.392 111.871 30C111.871 30.608 112.075 31.116 112.483 31.524C112.891 31.932 113.391 32.136 113.983 32.136ZM121.694 26.844C122.534 26.844 123.25 27.152 123.842 27.768C124.434 28.376 124.73 29.12 124.73 30C124.73 30.88 124.434 31.628 123.842 32.244C123.25 32.852 122.534 33.156 121.694 33.156C120.702 33.156 119.946 32.76 119.426 31.968V35.4H118.382V27H119.426V28.032C119.946 27.24 120.702 26.844 121.694 26.844ZM121.562 32.148C122.162 32.148 122.666 31.944 123.074 31.536C123.482 31.12 123.686 30.608 123.686 30C123.686 29.392 123.482 28.884 123.074 28.476C122.666 28.06 122.162 27.852 121.562 27.852C120.954 27.852 120.446 28.06 120.038 28.476C119.63 28.884 119.426 29.392 119.426 30C119.426 30.608 119.63 31.12 120.038 31.536C120.446 31.944 120.954 32.148 121.562 32.148ZM132.456 26.844C133.128 26.844 133.672 27.064 134.088 27.504C134.504 27.936 134.712 28.524 134.712 29.268V33H133.668V29.304C133.668 28.84 133.548 28.48 133.308 28.224C133.068 27.968 132.748 27.84 132.348 27.84C131.9 27.84 131.54 27.992 131.268 28.296C131.004 28.592 130.872 29.048 130.872 29.664V33H129.828V29.304C129.828 28.84 129.712 28.48 129.48 28.224C129.256 27.968 128.948 27.84 128.556 27.84C128.116 27.84 127.748 27.992 127.452 28.296C127.164 28.6 127.02 29.056 127.02 29.664V33H125.976V27H127.02V27.804C127.428 27.164 128.024 26.844 128.808 26.844C129.616 26.844 130.204 27.184 130.572 27.864C130.988 27.184 131.616 26.844 132.456 26.844ZM136.891 30.48C136.995 31.016 137.239 31.432 137.623 31.728C138.015 32.024 138.495 32.172 139.063 32.172C139.855 32.172 140.431 31.88 140.791 31.296L141.679 31.8C141.095 32.704 140.215 33.156 139.039 33.156C138.087 33.156 137.311 32.86 136.711 32.268C136.119 31.668 135.823 30.912 135.823 30C135.823 29.096 136.115 28.344 136.699 27.744C137.283 27.144 138.039 26.844 138.967 26.844C139.847 26.844 140.563 27.156 141.115 27.78C141.675 28.396 141.955 29.14 141.955 30.012C141.955 30.164 141.943 30.32 141.919 30.48H136.891ZM138.967 27.828C138.407 27.828 137.943 27.988 137.575 28.308C137.207 28.62 136.979 29.04 136.891 29.568H140.899C140.811 29 140.587 28.568 140.227 28.272C139.867 27.976 139.447 27.828 138.967 27.828ZM146.143 26.844C146.847 26.844 147.411 27.068 147.835 27.516C148.259 27.956 148.471 28.556 148.471 29.316V33H147.427V29.376C147.427 28.888 147.295 28.512 147.031 28.248C146.767 27.976 146.403 27.84 145.939 27.84C145.419 27.84 144.999 28.004 144.679 28.332C144.359 28.652 144.199 29.148 144.199 29.82V33H143.155V27H144.199V27.864C144.623 27.184 145.271 26.844 146.143 26.844ZM153.193 28.008H151.597V31.26C151.597 31.556 151.653 31.768 151.765 31.896C151.885 32.016 152.065 32.08 152.305 32.088C152.545 32.088 152.841 32.08 153.193 32.064V33C152.281 33.12 151.613 33.048 151.189 32.784C150.765 32.512 150.553 32.004 150.553 31.26V28.008H149.365V27H150.553V25.632L151.597 25.32V27H153.193V28.008ZM162.528 32.244C161.912 32.852 161.164 33.156 160.284 33.156C159.404 33.156 158.656 32.852 158.04 32.244C157.432 31.636 157.128 30.888 157.128 30C157.128 29.112 157.432 28.364 158.04 27.756C158.656 27.148 159.404 26.844 160.284 26.844C161.164 26.844 161.912 27.148 162.528 27.756C163.144 28.364 163.452 29.112 163.452 30C163.452 30.888 163.144 31.636 162.528 32.244ZM160.284 32.136C160.884 32.136 161.388 31.932 161.796 31.524C162.204 31.116 162.408 30.608 162.408 30C162.408 29.392 162.204 28.884 161.796 28.476C161.388 28.068 160.884 27.864 160.284 27.864C159.692 27.864 159.192 28.068 158.784 28.476C158.376 28.884 158.172 29.392 158.172 30C158.172 30.608 158.376 31.116 158.784 31.524C159.192 31.932 159.692 32.136 160.284 32.136ZM167.544 25.452C166.488 25.364 165.96 25.82 165.96 26.82V27H167.544V28.008H165.96V33H164.916V28.008H163.956V27H164.916V26.82C164.916 26.012 165.14 25.4 165.588 24.984C166.044 24.568 166.696 24.388 167.544 24.444V25.452ZM174.603 28.008H173.007V31.26C173.007 31.556 173.063 31.768 173.175 31.896C173.295 32.016 173.475 32.08 173.715 32.088C173.955 32.088 174.251 32.08 174.603 32.064V33C173.691 33.12 173.023 33.048 172.599 32.784C172.175 32.512 171.963 32.004 171.963 31.26V28.008H170.775V27H171.963V25.632L173.007 25.32V27H174.603V28.008ZM178.827 26.844C179.531 26.844 180.095 27.068 180.519 27.516C180.943 27.956 181.155 28.556 181.155 29.316V33H180.111V29.376C180.111 28.888 179.979 28.512 179.715 28.248C179.451 27.976 179.087 27.84 178.623 27.84C178.103 27.84 177.683 28.004 177.363 28.332C177.043 28.652 176.883 29.148 176.883 29.82V33H175.839V24.6H176.883V27.864C177.307 27.184 177.955 26.844 178.827 26.844ZM183.344 30.48C183.448 31.016 183.692 31.432 184.076 31.728C184.468 32.024 184.948 32.172 185.516 32.172C186.308 32.172 186.884 31.88 187.244 31.296L188.132 31.8C187.548 32.704 186.668 33.156 185.492 33.156C184.54 33.156 183.764 32.86 183.164 32.268C182.572 31.668 182.276 30.912 182.276 30C182.276 29.096 182.568 28.344 183.152 27.744C183.736 27.144 184.492 26.844 185.42 26.844C186.3 26.844 187.016 27.156 187.568 27.78C188.128 28.396 188.408 29.14 188.408 30.012C188.408 30.164 188.396 30.32 188.372 30.48H183.344ZM185.42 27.828C184.86 27.828 184.396 27.988 184.028 28.308C183.66 28.62 183.432 29.04 183.344 29.568H187.352C187.264 29 187.04 28.568 186.68 28.272C186.32 27.976 185.9 27.828 185.42 27.828ZM193.832 31.944H197.732V33H192.716V24.6H197.672V25.656H193.832V28.236H197.372V29.28H193.832V31.944ZM201.663 33.156C200.759 33.156 200.007 32.856 199.407 32.256C198.807 31.648 198.507 30.896 198.507 30C198.507 29.104 198.807 28.356 199.407 27.756C200.007 27.148 200.759 26.844 201.663 26.844C202.255 26.844 202.787 26.988 203.259 27.276C203.731 27.556 204.083 27.936 204.315 28.416L203.439 28.92C203.287 28.6 203.051 28.344 202.731 28.152C202.419 27.96 202.063 27.864 201.663 27.864C201.063 27.864 200.559 28.068 200.151 28.476C199.751 28.884 199.551 29.392 199.551 30C199.551 30.6 199.751 31.104 200.151 31.512C200.559 31.92 201.063 32.124 201.663 32.124C202.063 32.124 202.423 32.032 202.743 31.848C203.063 31.656 203.307 31.4 203.475 31.08L204.363 31.596C204.107 32.068 203.739 32.448 203.259 32.736C202.779 33.016 202.247 33.156 201.663 33.156ZM208.382 26.844C209.086 26.844 209.65 27.068 210.074 27.516C210.498 27.956 210.71 28.556 210.71 29.316V33H209.666V29.376C209.666 28.888 209.534 28.512 209.27 28.248C209.006 27.976 208.642 27.84 208.178 27.84C207.658 27.84 207.238 28.004 206.918 28.332C206.598 28.652 206.438 29.148 206.438 29.82V33H205.394V24.6H206.438V27.864C206.862 27.184 207.51 26.844 208.382 26.844ZM217.231 32.244C216.615 32.852 215.867 33.156 214.987 33.156C214.107 33.156 213.359 32.852 212.743 32.244C212.135 31.636 211.831 30.888 211.831 30C211.831 29.112 212.135 28.364 212.743 27.756C213.359 27.148 214.107 26.844 214.987 26.844C215.867 26.844 216.615 27.148 217.231 27.756C217.847 28.364 218.155 29.112 218.155 30C218.155 30.888 217.847 31.636 217.231 32.244ZM214.987 32.136C215.587 32.136 216.091 31.932 216.499 31.524C216.907 31.116 217.111 30.608 217.111 30C217.111 29.392 216.907 28.884 216.499 28.476C216.091 28.068 215.587 27.864 214.987 27.864C214.395 27.864 213.895 28.068 213.487 28.476C213.079 28.884 212.875 29.392 212.875 30C212.875 30.608 213.079 31.116 213.487 31.524C213.895 31.932 214.395 32.136 214.987 32.136ZM228.026 33L227.342 31.116H223.562L222.878 33H221.69L224.822 24.6H226.082L229.214 33H228.026ZM223.946 30.072H226.958L225.446 25.932L223.946 30.072ZM233.409 26.844C234.249 26.844 234.965 27.152 235.557 27.768C236.149 28.376 236.445 29.12 236.445 30C236.445 30.88 236.149 31.628 235.557 32.244C234.965 32.852 234.249 33.156 233.409 33.156C232.417 33.156 231.661 32.76 231.141 31.968V35.4H230.097V27H231.141V28.032C231.661 27.24 232.417 26.844 233.409 26.844ZM233.277 32.148C233.877 32.148 234.381 31.944 234.789 31.536C235.197 31.12 235.401 30.608 235.401 30C235.401 29.392 235.197 28.884 234.789 28.476C234.381 28.06 233.877 27.852 233.277 27.852C232.669 27.852 232.161 28.06 231.753 28.476C231.345 28.884 231.141 29.392 231.141 30C231.141 30.608 231.345 31.12 231.753 31.536C232.161 31.944 232.669 32.148 233.277 32.148ZM241.002 26.844C241.842 26.844 242.558 27.152 243.15 27.768C243.742 28.376 244.038 29.12 244.038 30C244.038 30.88 243.742 31.628 243.15 32.244C242.558 32.852 241.842 33.156 241.002 33.156C240.01 33.156 239.254 32.76 238.734 31.968V35.4H237.69V27H238.734V28.032C239.254 27.24 240.01 26.844 241.002 26.844ZM240.87 32.148C241.47 32.148 241.974 31.944 242.382 31.536C242.79 31.12 242.994 30.608 242.994 30C242.994 29.392 242.79 28.884 242.382 28.476C241.974 28.06 241.47 27.852 240.87 27.852C240.262 27.852 239.754 28.06 239.346 28.476C238.938 28.884 238.734 29.392 238.734 30C238.734 30.608 238.938 31.12 239.346 31.536C239.754 31.944 240.262 32.148 240.87 32.148ZM248.392 29.82V28.812H252.772V29.82H248.392ZM50.104 44.844C50.944 44.844 51.66 45.152 52.252 45.768C52.844 46.376 53.14 47.12 53.14 48C53.14 48.88 52.844 49.628 52.252 50.244C51.66 50.852 50.944 51.156 50.104 51.156C49.112 51.156 48.356 50.76 47.836 49.968V53.4H46.792V45H47.836V46.032C48.356 45.24 49.112 44.844 50.104 44.844ZM49.972 50.148C50.572 50.148 51.076 49.944 51.484 49.536C51.892 49.12 52.096 48.608 52.096 48C52.096 47.392 51.892 46.884 51.484 46.476C51.076 46.06 50.572 45.852 49.972 45.852C49.364 45.852 48.856 46.06 48.448 46.476C48.04 46.884 47.836 47.392 47.836 48C47.836 48.608 48.04 49.12 48.448 49.536C48.856 49.944 49.364 50.148 49.972 50.148ZM54.3857 51V42.24H55.4298V51H54.3857ZM61.9905 45H63.0345V51H61.9905V49.968C61.4705 50.76 60.7145 51.156 59.7225 51.156C58.8825 51.156 58.1665 50.852 57.5745 50.244C56.9825 49.628 56.6865 48.88 56.6865 48C56.6865 47.12 56.9825 46.376 57.5745 45.768C58.1665 45.152 58.8825 44.844 59.7225 44.844C60.7145 44.844 61.4705 45.24 61.9905 46.032V45ZM59.8545 50.148C60.4625 50.148 60.9705 49.944 61.3785 49.536C61.7865 49.12 61.9905 48.608 61.9905 48C61.9905 47.392 61.7865 46.884 61.3785 46.476C60.9705 46.06 60.4625 45.852 59.8545 45.852C59.2545 45.852 58.7505 46.06 58.3425 46.476C57.9345 46.884 57.7305 47.392 57.7305 48C57.7305 48.608 57.9345 49.12 58.3425 49.536C58.7505 49.944 59.2545 50.148 59.8545 50.148ZM68.8042 45H69.9202L67.4722 51.372C67.2162 52.052 66.8562 52.568 66.3922 52.92C65.9362 53.28 65.4082 53.44 64.8082 53.4V52.428C65.5442 52.484 66.0842 52.076 66.4282 51.204L66.5362 50.976L63.9202 45H65.0362L67.0762 49.704L68.8042 45ZM70.432 51V50.088L73.396 47.064C74.188 46.272 74.584 45.592 74.584 45.024C74.584 44.552 74.44 44.184 74.152 43.92C73.864 43.656 73.512 43.524 73.096 43.524C72.304 43.524 71.728 43.9 71.368 44.652L70.432 44.1C70.696 43.556 71.06 43.144 71.524 42.864C71.996 42.584 72.516 42.444 73.084 42.444C73.788 42.444 74.4 42.676 74.92 43.14C75.44 43.604 75.7 44.228 75.7 45.012C75.7 45.86 75.2 46.784 74.2 47.784L72.052 49.92H75.856V51H70.432ZM77.6178 48.48C77.7218 49.016 77.9658 49.432 78.3498 49.728C78.7418 50.024 79.2218 50.172 79.7898 50.172C80.5818 50.172 81.1578 49.88 81.5178 49.296L82.4058 49.8C81.8218 50.704 80.9418 51.156 79.7658 51.156C78.8138 51.156 78.0378 50.86 77.4378 50.268C76.8458 49.668 76.5498 48.912 76.5498 48C76.5498 47.096 76.8418 46.344 77.4258 45.744C78.0098 45.144 78.7658 44.844 79.6938 44.844C80.5738 44.844 81.2898 45.156 81.8418 45.78C82.4018 46.396 82.6818 47.14 82.6818 48.012C82.6818 48.164 82.6698 48.32 82.6458 48.48H77.6178ZM79.6938 45.828C79.1338 45.828 78.6698 45.988 78.3018 46.308C77.9338 46.62 77.7058 47.04 77.6178 47.568H81.6258C81.5378 47 81.3138 46.568 80.9538 46.272C80.5938 45.976 80.1738 45.828 79.6938 45.828ZM88.8381 45H89.8821V51H88.8381V49.968C88.3181 50.76 87.5621 51.156 86.5701 51.156C85.7301 51.156 85.0141 50.852 84.4221 50.244C83.8301 49.628 83.5341 48.88 83.5341 48C83.5341 47.12 83.8301 46.376 84.4221 45.768C85.0141 45.152 85.7301 44.844 86.5701 44.844C87.5621 44.844 88.3181 45.24 88.8381 46.032V45ZM86.7021 50.148C87.3101 50.148 87.8181 49.944 88.2261 49.536C88.6341 49.12 88.8381 48.608 88.8381 48C88.8381 47.392 88.6341 46.884 88.2261 46.476C87.8181 46.06 87.3101 45.852 86.7021 45.852C86.1021 45.852 85.5981 46.06 85.1901 46.476C84.7821 46.884 84.5781 47.392 84.5781 48C84.5781 48.608 84.7821 49.12 85.1901 49.536C85.5981 49.944 86.1021 50.148 86.7021 50.148ZM92.5079 46.008C92.8519 45.264 93.4759 44.892 94.3799 44.892V45.984C93.8679 45.96 93.4279 46.096 93.0599 46.392C92.6919 46.688 92.5079 47.164 92.5079 47.82V51H91.4639V45H92.5079V46.008ZM98.3894 44.844C99.0934 44.844 99.6574 45.068 100.081 45.516C100.505 45.956 100.717 46.556 100.717 47.316V51H99.6734V47.376C99.6734 46.888 99.5414 46.512 99.2774 46.248C99.0134 45.976 98.6494 45.84 98.1854 45.84C97.6654 45.84 97.2454 46.004 96.9254 46.332C96.6054 46.652 96.4454 47.148 96.4454 47.82V51H95.4014V45H96.4454V45.864C96.8694 45.184 97.5174 44.844 98.3894 44.844ZM110.155 45H111.187V50.748C111.187 51.636 110.887 52.324 110.287 52.812C109.687 53.308 108.967 53.556 108.127 53.556C107.455 53.556 106.875 53.428 106.387 53.172C105.899 52.924 105.531 52.564 105.283 52.092L106.195 51.576C106.523 52.248 107.175 52.584 108.151 52.584C108.775 52.584 109.263 52.42 109.615 52.092C109.975 51.764 110.155 51.316 110.155 50.748V49.896C109.627 50.696 108.875 51.096 107.899 51.096C107.043 51.096 106.319 50.792 105.727 50.184C105.135 49.576 104.839 48.836 104.839 47.964C104.839 47.092 105.135 46.356 105.727 45.756C106.319 45.148 107.043 44.844 107.899 44.844C108.883 44.844 109.635 45.24 110.155 46.032V45ZM106.495 49.488C106.903 49.896 107.411 50.1 108.019 50.1C108.627 50.1 109.135 49.896 109.543 49.488C109.951 49.08 110.155 48.572 110.155 47.964C110.155 47.364 109.951 46.86 109.543 46.452C109.135 46.044 108.627 45.84 108.019 45.84C107.411 45.84 106.903 46.044 106.495 46.452C106.087 46.86 105.883 47.364 105.883 47.964C105.883 48.572 106.087 49.08 106.495 49.488ZM117.737 45H118.781V51H117.737V49.968C117.217 50.76 116.461 51.156 115.469 51.156C114.629 51.156 113.913 50.852 113.321 50.244C112.729 49.628 112.433 48.88 112.433 48C112.433 47.12 112.729 46.376 113.321 45.768C113.913 45.152 114.629 44.844 115.469 44.844C116.461 44.844 117.217 45.24 117.737 46.032V45ZM115.601 50.148C116.209 50.148 116.717 49.944 117.125 49.536C117.533 49.12 117.737 48.608 117.737 48C117.737 47.392 117.533 46.884 117.125 46.476C116.717 46.06 116.209 45.852 115.601 45.852C115.001 45.852 114.497 46.06 114.089 46.476C113.681 46.884 113.477 47.392 113.477 48C113.477 48.608 113.681 49.12 114.089 49.536C114.497 49.944 115.001 50.148 115.601 50.148ZM126.842 44.844C127.514 44.844 128.058 45.064 128.474 45.504C128.89 45.936 129.098 46.524 129.098 47.268V51H128.054V47.304C128.054 46.84 127.934 46.48 127.694 46.224C127.454 45.968 127.134 45.84 126.734 45.84C126.286 45.84 125.926 45.992 125.654 46.296C125.39 46.592 125.258 47.048 125.258 47.664V51H124.214V47.304C124.214 46.84 124.098 46.48 123.866 46.224C123.642 45.968 123.334 45.84 122.942 45.84C122.502 45.84 122.134 45.992 121.838 46.296C121.55 46.6 121.406 47.056 121.406 47.664V51H120.362V45H121.406V45.804C121.814 45.164 122.41 44.844 123.194 44.844C124.002 44.844 124.59 45.184 124.958 45.864C125.374 45.184 126.002 44.844 126.842 44.844ZM131.074 43.908C130.874 43.908 130.706 43.84 130.57 43.704C130.434 43.568 130.366 43.404 130.366 43.212C130.366 43.02 130.434 42.856 130.57 42.72C130.706 42.576 130.874 42.504 131.074 42.504C131.266 42.504 131.43 42.576 131.566 42.72C131.702 42.856 131.77 43.02 131.77 43.212C131.77 43.404 131.702 43.568 131.566 43.704C131.43 43.84 131.266 43.908 131.074 43.908ZM130.546 51V45H131.59V51H130.546ZM136.171 44.844C136.875 44.844 137.439 45.068 137.863 45.516C138.287 45.956 138.499 46.556 138.499 47.316V51H137.455V47.376C137.455 46.888 137.323 46.512 137.059 46.248C136.795 45.976 136.431 45.84 135.967 45.84C135.447 45.84 135.027 46.004 134.707 46.332C134.387 46.652 134.227 47.148 134.227 47.82V51H133.183V45H134.227V45.864C134.651 45.184 135.299 44.844 136.171 44.844ZM144.936 45H145.968V50.748C145.968 51.636 145.668 52.324 145.068 52.812C144.468 53.308 143.748 53.556 142.908 53.556C142.236 53.556 141.656 53.428 141.168 53.172C140.68 52.924 140.312 52.564 140.064 52.092L140.976 51.576C141.304 52.248 141.956 52.584 142.932 52.584C143.556 52.584 144.044 52.42 144.396 52.092C144.756 51.764 144.936 51.316 144.936 50.748V49.896C144.408 50.696 143.656 51.096 142.68 51.096C141.824 51.096 141.1 50.792 140.508 50.184C139.916 49.576 139.62 48.836 139.62 47.964C139.62 47.092 139.916 46.356 140.508 45.756C141.1 45.148 141.824 44.844 142.68 44.844C143.664 44.844 144.416 45.24 144.936 46.032V45ZM141.276 49.488C141.684 49.896 142.192 50.1 142.8 50.1C143.408 50.1 143.916 49.896 144.324 49.488C144.732 49.08 144.936 48.572 144.936 47.964C144.936 47.364 144.732 46.86 144.324 46.452C143.916 46.044 143.408 45.84 142.8 45.84C142.192 45.84 141.684 46.044 141.276 46.452C140.868 46.86 140.664 47.364 140.664 47.964C140.664 48.572 140.868 49.08 141.276 49.488ZM153.862 44.844C154.702 44.844 155.418 45.152 156.01 45.768C156.602 46.376 156.898 47.12 156.898 48C156.898 48.88 156.602 49.628 156.01 50.244C155.418 50.852 154.702 51.156 153.862 51.156C152.87 51.156 152.114 50.76 151.594 49.968V53.4H150.55V45H151.594V46.032C152.114 45.24 152.87 44.844 153.862 44.844ZM153.73 50.148C154.33 50.148 154.834 49.944 155.242 49.536C155.65 49.12 155.854 48.608 155.854 48C155.854 47.392 155.65 46.884 155.242 46.476C154.834 46.06 154.33 45.852 153.73 45.852C153.122 45.852 152.614 46.06 152.206 46.476C151.798 46.884 151.594 47.392 151.594 48C151.594 48.608 151.798 49.12 152.206 49.536C152.614 49.944 153.122 50.148 153.73 50.148ZM158.144 51V42.24H159.188V51H158.144ZM165.748 45H166.792V51H165.748V49.968C165.228 50.76 164.472 51.156 163.48 51.156C162.64 51.156 161.924 50.852 161.332 50.244C160.74 49.628 160.444 48.88 160.444 48C160.444 47.12 160.74 46.376 161.332 45.768C161.924 45.152 162.64 44.844 163.48 44.844C164.472 44.844 165.228 45.24 165.748 46.032V45ZM163.612 50.148C164.22 50.148 164.728 49.944 165.136 49.536C165.544 49.12 165.748 48.608 165.748 48C165.748 47.392 165.544 46.884 165.136 46.476C164.728 46.06 164.22 45.852 163.612 45.852C163.012 45.852 162.508 46.06 162.1 46.476C161.692 46.884 161.488 47.392 161.488 48C161.488 48.608 161.692 49.12 162.1 49.536C162.508 49.944 163.012 50.148 163.612 50.148ZM171.638 46.008H170.042V49.26C170.042 49.556 170.098 49.768 170.21 49.896C170.33 50.016 170.51 50.08 170.75 50.088C170.99 50.088 171.286 50.08 171.638 50.064V51C170.726 51.12 170.058 51.048 169.634 50.784C169.21 50.512 168.998 50.004 168.998 49.26V46.008H167.81V45H168.998V43.632L170.042 43.32V45H171.638V46.008ZM175.653 43.452C174.597 43.364 174.069 43.82 174.069 44.82V45H175.653V46.008H174.069V51H173.025V46.008H172.065V45H173.025V44.82C173.025 44.012 173.249 43.4 173.697 42.984C174.153 42.568 174.805 42.388 175.653 42.444V43.452ZM181.184 50.244C180.568 50.852 179.82 51.156 178.94 51.156C178.06 51.156 177.312 50.852 176.696 50.244C176.088 49.636 175.784 48.888 175.784 48C175.784 47.112 176.088 46.364 176.696 45.756C177.312 45.148 178.06 44.844 178.94 44.844C179.82 44.844 180.568 45.148 181.184 45.756C181.8 46.364 182.108 47.112 182.108 48C182.108 48.888 181.8 49.636 181.184 50.244ZM178.94 50.136C179.54 50.136 180.044 49.932 180.452 49.524C180.86 49.116 181.064 48.608 181.064 48C181.064 47.392 180.86 46.884 180.452 46.476C180.044 46.068 179.54 45.864 178.94 45.864C178.348 45.864 177.848 46.068 177.44 46.476C177.032 46.884 176.828 47.392 176.828 48C176.828 48.608 177.032 49.116 177.44 49.524C177.848 49.932 178.348 50.136 178.94 50.136ZM184.383 46.008C184.727 45.264 185.351 44.892 186.255 44.892V45.984C185.743 45.96 185.303 46.096 184.935 46.392C184.567 46.688 184.383 47.164 184.383 47.82V51H183.339V45H184.383V46.008ZM193.756 44.844C194.428 44.844 194.972 45.064 195.388 45.504C195.804 45.936 196.012 46.524 196.012 47.268V51H194.968V47.304C194.968 46.84 194.848 46.48 194.608 46.224C194.368 45.968 194.048 45.84 193.648 45.84C193.2 45.84 192.84 45.992 192.568 46.296C192.304 46.592 192.172 47.048 192.172 47.664V51H191.128V47.304C191.128 46.84 191.012 46.48 190.78 46.224C190.556 45.968 190.248 45.84 189.856 45.84C189.416 45.84 189.048 45.992 188.752 46.296C188.464 46.6 188.32 47.056 188.32 47.664V51H187.276V45H188.32V45.804C188.728 45.164 189.324 44.844 190.108 44.844C190.916 44.844 191.504 45.184 191.872 45.864C192.288 45.184 192.916 44.844 193.756 44.844ZM198.12 51.132C197.904 51.132 197.72 51.056 197.568 50.904C197.416 50.752 197.34 50.568 197.34 50.352C197.34 50.136 197.416 49.952 197.568 49.8C197.72 49.648 197.904 49.572 198.12 49.572C198.344 49.572 198.528 49.648 198.672 49.8C198.824 49.952 198.9 50.136 198.9 50.352C198.9 50.568 198.824 50.752 198.672 50.904C198.528 51.056 198.344 51.132 198.12 51.132Z" fill="#1A1A1A"/>
<path d="M37.9581 74.748C37.7021 75.012 37.3861 75.144 37.0101 75.144C36.6341 75.144 36.3141 75.012 36.0501 74.748C35.7861 74.484 35.6541 74.164 35.6541 73.788C35.6541 73.412 35.7861 73.096 36.0501 72.84C36.3141 72.576 36.6341 72.444 37.0101 72.444C37.3861 72.444 37.7021 72.576 37.9581 72.84C38.2221 73.096 38.3541 73.412 38.3541 73.788C38.3541 74.164 38.2221 74.484 37.9581 74.748ZM48.016 76.944H51.64V78H46.9V69.6H48.016V76.944ZM57.385 72H58.429V78H57.385V76.968C56.865 77.76 56.109 78.156 55.117 78.156C54.277 78.156 53.561 77.852 52.969 77.244C52.377 76.628 52.081 75.88 52.081 75C52.081 74.12 52.377 73.376 52.969 72.768C53.561 72.152 54.277 71.844 55.117 71.844C56.109 71.844 56.865 72.24 57.385 73.032V72ZM55.249 77.148C55.857 77.148 56.365 76.944 56.773 76.536C57.181 76.12 57.385 75.608 57.385 75C57.385 74.392 57.181 73.884 56.773 73.476C56.365 73.06 55.857 72.852 55.249 72.852C54.649 72.852 54.145 73.06 53.737 73.476C53.329 73.884 53.125 74.392 53.125 75C53.125 75.608 53.329 76.12 53.737 76.536C54.145 76.944 54.649 77.148 55.249 77.148ZM64.1508 72H65.1948V78H64.1508V77.136C63.7268 77.816 63.0788 78.156 62.2068 78.156C61.5028 78.156 60.9388 77.936 60.5148 77.496C60.0908 77.048 59.8788 76.444 59.8788 75.684V72H60.9228V75.624C60.9228 76.112 61.0548 76.492 61.3188 76.764C61.5828 77.028 61.9468 77.16 62.4108 77.16C62.9308 77.16 63.3508 77 63.6708 76.68C63.9908 76.352 64.1508 75.852 64.1508 75.18V72ZM69.7722 71.844C70.4762 71.844 71.0402 72.068 71.4642 72.516C71.8882 72.956 72.1002 73.556 72.1002 74.316V78H71.0562V74.376C71.0562 73.888 70.9242 73.512 70.6602 73.248C70.3962 72.976 70.0322 72.84 69.5682 72.84C69.0482 72.84 68.6282 73.004 68.3082 73.332C67.9882 73.652 67.8282 74.148 67.8282 74.82V78H66.7842V72H67.8282V72.864C68.2522 72.184 68.9002 71.844 69.7722 71.844ZM76.3776 78.156C75.4736 78.156 74.7216 77.856 74.1216 77.256C73.5216 76.648 73.2216 75.896 73.2216 75C73.2216 74.104 73.5216 73.356 74.1216 72.756C74.7216 72.148 75.4736 71.844 76.3776 71.844C76.9696 71.844 77.5016 71.988 77.9736 72.276C78.4456 72.556 78.7976 72.936 79.0296 73.416L78.1536 73.92C78.0016 73.6 77.7656 73.344 77.4456 73.152C77.1336 72.96 76.7776 72.864 76.3776 72.864C75.7776 72.864 75.2736 73.068 74.8656 73.476C74.4656 73.884 74.2656 74.392 74.2656 75C74.2656 75.6 74.4656 76.104 74.8656 76.512C75.2736 76.92 75.7776 77.124 76.3776 77.124C76.7776 77.124 77.1376 77.032 77.4576 76.848C77.7776 76.656 78.0216 76.4 78.1896 76.08L79.0776 76.596C78.8216 77.068 78.4536 77.448 77.9736 77.736C77.4936 78.016 76.9616 78.156 76.3776 78.156ZM83.0964 71.844C83.8004 71.844 84.3644 72.068 84.7884 72.516C85.2124 72.956 85.4244 73.556 85.4244 74.316V78H84.3804V74.376C84.3804 73.888 84.2484 73.512 83.9844 73.248C83.7204 72.976 83.3564 72.84 82.8924 72.84C82.3724 72.84 81.9524 73.004 81.6324 73.332C81.3124 73.652 81.1524 74.148 81.1524 74.82V78H80.1084V69.6H81.1524V72.864C81.5764 72.184 82.2244 71.844 83.0964 71.844ZM93.1458 73.008H91.5498V76.26C91.5498 76.556 91.6058 76.768 91.7178 76.896C91.8378 77.016 92.0178 77.08 92.2578 77.088C92.4978 77.088 92.7938 77.08 93.1458 77.064V78C92.2338 78.12 91.5658 78.048 91.1418 77.784C90.7178 77.512 90.5058 77.004 90.5058 76.26V73.008H89.3178V72H90.5058V70.632L91.5498 70.32V72H93.1458V73.008ZM97.3698 71.844C98.0738 71.844 98.6378 72.068 99.0618 72.516C99.4858 72.956 99.6978 73.556 99.6978 74.316V78H98.6538V74.376C98.6538 73.888 98.5218 73.512 98.2578 73.248C97.9938 72.976 97.6298 72.84 97.1658 72.84C96.6458 72.84 96.2258 73.004 95.9058 73.332C95.5858 73.652 95.4258 74.148 95.4258 74.82V78H94.3818V69.6H95.4258V72.864C95.8498 72.184 96.4978 71.844 97.3698 71.844ZM101.887 75.48C101.991 76.016 102.235 76.432 102.619 76.728C103.011 77.024 103.491 77.172 104.059 77.172C104.851 77.172 105.427 76.88 105.787 76.296L106.675 76.8C106.091 77.704 105.211 78.156 104.035 78.156C103.083 78.156 102.307 77.86 101.707 77.268C101.115 76.668 100.819 75.912 100.819 75C100.819 74.096 101.111 73.344 101.695 72.744C102.279 72.144 103.035 71.844 103.963 71.844C104.843 71.844 105.559 72.156 106.111 72.78C106.671 73.396 106.951 74.14 106.951 75.012C106.951 75.164 106.939 75.32 106.915 75.48H101.887ZM103.963 72.828C103.403 72.828 102.939 72.988 102.571 73.308C102.203 73.62 101.975 74.04 101.887 74.568H105.895C105.807 74 105.583 73.568 105.223 73.272C104.863 72.976 104.443 72.828 103.963 72.828ZM112.375 76.944H116.275V78H111.259V69.6H116.215V70.656H112.375V73.236H115.915V74.28H112.375V76.944ZM120.206 78.156C119.302 78.156 118.55 77.856 117.95 77.256C117.35 76.648 117.05 75.896 117.05 75C117.05 74.104 117.35 73.356 117.95 72.756C118.55 72.148 119.302 71.844 120.206 71.844C120.798 71.844 121.33 71.988 121.802 72.276C122.274 72.556 122.626 72.936 122.858 73.416L121.982 73.92C121.83 73.6 121.594 73.344 121.274 73.152C120.962 72.96 120.606 72.864 120.206 72.864C119.606 72.864 119.102 73.068 118.694 73.476C118.294 73.884 118.094 74.392 118.094 75C118.094 75.6 118.294 76.104 118.694 76.512C119.102 76.92 119.606 77.124 120.206 77.124C120.606 77.124 120.966 77.032 121.286 76.848C121.606 76.656 121.85 76.4 122.018 76.08L122.906 76.596C122.65 77.068 122.282 77.448 121.802 77.736C121.322 78.016 120.79 78.156 120.206 78.156ZM126.925 71.844C127.629 71.844 128.193 72.068 128.617 72.516C129.041 72.956 129.253 73.556 129.253 74.316V78H128.209V74.376C128.209 73.888 128.077 73.512 127.813 73.248C127.549 72.976 127.185 72.84 126.721 72.84C126.201 72.84 125.781 73.004 125.461 73.332C125.141 73.652 124.981 74.148 124.981 74.82V78H123.937V69.6H124.981V72.864C125.405 72.184 126.053 71.844 126.925 71.844ZM135.774 77.244C135.158 77.852 134.41 78.156 133.53 78.156C132.65 78.156 131.902 77.852 131.286 77.244C130.678 76.636 130.374 75.888 130.374 75C130.374 74.112 130.678 73.364 131.286 72.756C131.902 72.148 132.65 71.844 133.53 71.844C134.41 71.844 135.158 72.148 135.774 72.756C136.39 73.364 136.698 74.112 136.698 75C136.698 75.888 136.39 76.636 135.774 77.244ZM133.53 77.136C134.13 77.136 134.634 76.932 135.042 76.524C135.45 76.116 135.654 75.608 135.654 75C135.654 74.392 135.45 73.884 135.042 73.476C134.634 73.068 134.13 72.864 133.53 72.864C132.938 72.864 132.438 73.068 132.03 73.476C131.622 73.884 131.418 74.392 131.418 75C131.418 75.608 131.622 76.116 132.03 76.524C132.438 76.932 132.938 77.136 133.53 77.136ZM144.313 69.6C145.457 69.6 146.405 70.008 147.157 70.824C147.917 71.632 148.297 72.624 148.297 73.8C148.297 74.976 147.917 75.972 147.157 76.788C146.405 77.596 145.457 78 144.313 78H141.037V69.6H144.313ZM144.313 76.944C145.169 76.944 145.869 76.644 146.413 76.044C146.957 75.444 147.229 74.696 147.229 73.8C147.229 72.904 146.957 72.156 146.413 71.556C145.869 70.956 145.169 70.656 144.313 70.656H142.153V76.944H144.313ZM154.877 78L154.193 76.116H150.413L149.729 78H148.541L151.673 69.6H152.933L156.065 78H154.877ZM150.797 75.072H153.809L152.297 70.932L150.797 75.072ZM163.736 76.884C162.896 77.732 161.868 78.156 160.652 78.156C159.436 78.156 158.408 77.732 157.568 76.884C156.728 76.036 156.308 75.008 156.308 73.8C156.308 72.584 156.728 71.556 157.568 70.716C158.408 69.868 159.436 69.444 160.652 69.444C161.868 69.444 162.896 69.868 163.736 70.716C164.584 71.556 165.008 72.584 165.008 73.8C165.008 75.008 164.584 76.036 163.736 76.884ZM158.336 76.128C158.96 76.752 159.732 77.064 160.652 77.064C161.572 77.064 162.34 76.752 162.956 76.128C163.58 75.496 163.892 74.72 163.892 73.8C163.892 72.872 163.58 72.096 162.956 71.472C162.34 70.84 161.572 70.524 160.652 70.524C159.732 70.524 158.96 70.84 158.336 71.472C157.72 72.096 157.412 72.872 157.412 73.8C157.412 74.72 157.72 75.496 158.336 76.128ZM166.292 78.132C166.076 78.132 165.892 78.056 165.74 77.904C165.588 77.752 165.512 77.568 165.512 77.352C165.512 77.136 165.588 76.952 165.74 76.8C165.892 76.648 166.076 76.572 166.292 76.572C166.516 76.572 166.7 76.648 166.844 76.8C166.996 76.952 167.072 77.136 167.072 77.352C167.072 77.568 166.996 77.752 166.844 77.904C166.7 78.056 166.516 78.132 166.292 78.132Z" fill="#1A1A1A"/>
<path d="M37.9581 101.748C37.7021 102.012 37.3861 102.144 37.0101 102.144C36.6341 102.144 36.3141 102.012 36.0501 101.748C35.7861 101.484 35.6541 101.164 35.6541 100.788C35.6541 100.412 35.7861 100.096 36.0501 99.84C36.3141 99.576 36.6341 99.444 37.0101 99.444C37.3861 99.444 37.7021 99.576 37.9581 99.84C38.2221 100.096 38.3541 100.412 38.3541 100.788C38.3541 101.164 38.2221 101.484 37.9581 101.748ZM54.76 96.6V105H53.656V98.436L50.908 103.008H50.764L48.016 98.448V105H46.9V96.6H48.16L50.836 101.04L53.5 96.6H54.76ZM61.4163 99H62.4603V105H61.4163V103.968C60.8963 104.76 60.1403 105.156 59.1483 105.156C58.3083 105.156 57.5923 104.852 57.0003 104.244C56.4083 103.628 56.1123 102.88 56.1123 102C56.1123 101.12 56.4083 100.376 57.0003 99.768C57.5923 99.152 58.3083 98.844 59.1483 98.844C60.1403 98.844 60.8963 99.24 61.4163 100.032V99ZM59.2803 104.148C59.8883 104.148 60.3963 103.944 60.8043 103.536C61.2123 103.12 61.4163 102.608 61.4163 102C61.4163 101.392 61.2123 100.884 60.8043 100.476C60.3963 100.06 59.8883 99.852 59.2803 99.852C58.6803 99.852 58.1763 100.06 57.7683 100.476C57.3603 100.884 57.1562 101.392 57.1562 102C57.1562 102.608 57.3603 103.12 57.7683 103.536C58.1763 103.944 58.6803 104.148 59.2803 104.148ZM69.118 105H67.822L65.086 102.156V105H64.042V96.6H65.086V101.652L67.678 99H69.022L66.154 101.904L69.118 105ZM70.2701 102.48C70.3741 103.016 70.6181 103.432 71.0021 103.728C71.3941 104.024 71.8741 104.172 72.4421 104.172C73.2341 104.172 73.8101 103.88 74.1701 103.296L75.0581 103.8C74.4741 104.704 73.5941 105.156 72.4181 105.156C71.4661 105.156 70.6901 104.86 70.0901 104.268C69.4981 103.668 69.2021 102.912 69.2021 102C69.2021 101.096 69.4941 100.344 70.0781 99.744C70.6621 99.144 71.4181 98.844 72.3461 98.844C73.2261 98.844 73.9421 99.156 74.4941 99.78C75.0541 100.396 75.3341 101.14 75.3341 102.012C75.3341 102.164 75.3221 102.32 75.2981 102.48H70.2701ZM72.3461 99.828C71.7861 99.828 71.3221 99.988 70.9541 100.308C70.5861 100.62 70.3581 101.04 70.2701 101.568H74.2781C74.1901 101 73.9661 100.568 73.6061 100.272C73.2461 99.976 72.8261 99.828 72.3461 99.828ZM84.2982 99V105H83.2542V100.008H81.0342V105H79.9902V100.008H79.0302V99H79.9902V98.82C79.9902 97.236 80.8662 96.444 82.6182 96.444C82.9462 96.444 83.3582 96.496 83.8542 96.6V97.548C83.3662 97.484 82.9542 97.452 82.6182 97.452C82.0742 97.452 81.6742 97.556 81.4182 97.764C81.1622 97.964 81.0342 98.316 81.0342 98.82V99H84.2982ZM86.9415 100.008C87.2855 99.264 87.9095 98.892 88.8135 98.892V99.984C88.3015 99.96 87.8615 100.096 87.4935 100.392C87.1255 100.688 86.9415 101.164 86.9415 101.82V105H85.8975V99H86.9415V100.008ZM90.5123 100.62C90.5123 100.852 90.6283 101.04 90.8603 101.184C91.0923 101.32 91.3723 101.432 91.7003 101.52C92.0283 101.6 92.3563 101.696 92.6843 101.808C93.0123 101.912 93.2923 102.096 93.5243 102.36C93.7563 102.616 93.8723 102.948 93.8723 103.356C93.8723 103.9 93.6603 104.336 93.2363 104.664C92.8203 104.992 92.2843 105.156 91.6283 105.156C91.0443 105.156 90.5443 105.028 90.1283 104.772C89.7123 104.516 89.4163 104.176 89.2403 103.752L90.1403 103.236C90.2363 103.524 90.4163 103.752 90.6803 103.92C90.9443 104.088 91.2603 104.172 91.6283 104.172C91.9723 104.172 92.2563 104.108 92.4803 103.98C92.7043 103.844 92.8163 103.636 92.8163 103.356C92.8163 103.124 92.7003 102.94 92.4683 102.804C92.2363 102.66 91.9563 102.548 91.6283 102.468C91.3003 102.38 90.9723 102.28 90.6443 102.168C90.3163 102.056 90.0363 101.872 89.8043 101.616C89.5723 101.36 89.4563 101.032 89.4563 100.632C89.4563 100.112 89.6563 99.684 90.0563 99.348C90.4643 99.012 90.9723 98.844 91.5803 98.844C92.0683 98.844 92.5003 98.956 92.8763 99.18C93.2603 99.396 93.5483 99.7 93.7403 100.092L92.8643 100.584C92.6483 100.072 92.2203 99.816 91.5803 99.816C91.2843 99.816 91.0323 99.888 90.8243 100.032C90.6163 100.168 90.5123 100.364 90.5123 100.62ZM98.138 100.008H96.542V103.26C96.542 103.556 96.598 103.768 96.71 103.896C96.83 104.016 97.01 104.08 97.25 104.088C97.49 104.088 97.786 104.08 98.138 104.064V105C97.226 105.12 96.558 105.048 96.134 104.784C95.71 104.512 95.498 104.004 95.498 103.26V100.008H94.31V99H95.498V97.632L96.542 97.32V99H98.138V100.008ZM107.173 99V105H106.129V100.008H103.909V105H102.865V100.008H101.905V99H102.865V98.82C102.865 97.236 103.741 96.444 105.493 96.444C105.821 96.444 106.233 96.496 106.729 96.6V97.548C106.241 97.484 105.829 97.452 105.493 97.452C104.949 97.452 104.549 97.556 104.293 97.764C104.037 97.964 103.909 98.316 103.909 98.82V99H107.173ZM111.76 98.844C112.464 98.844 113.028 99.068 113.452 99.516C113.876 99.956 114.088 100.556 114.088 101.316V105H113.044V101.376C113.044 100.888 112.912 100.512 112.648 100.248C112.384 99.976 112.02 99.84 111.556 99.84C111.036 99.84 110.616 100.004 110.296 100.332C109.976 100.652 109.816 101.148 109.816 101.82V105H108.772V99H109.816V99.864C110.24 99.184 110.888 98.844 111.76 98.844ZM120.514 99H121.558V105H120.514V103.968C119.994 104.76 119.238 105.156 118.246 105.156C117.406 105.156 116.69 104.852 116.098 104.244C115.506 103.628 115.21 102.88 115.21 102C115.21 101.12 115.506 100.376 116.098 99.768C116.69 99.152 117.406 98.844 118.246 98.844C119.238 98.844 119.994 99.24 120.514 100.032V99ZM118.378 104.148C118.986 104.148 119.494 103.944 119.902 103.536C120.31 103.12 120.514 102.608 120.514 102C120.514 101.392 120.31 100.884 119.902 100.476C119.494 100.06 118.986 99.852 118.378 99.852C117.778 99.852 117.274 100.06 116.866 100.476C116.458 100.884 116.254 101.392 116.254 102C116.254 102.608 116.458 103.12 116.866 103.536C117.274 103.944 117.778 104.148 118.378 104.148ZM126.128 98.844C126.832 98.844 127.396 99.068 127.82 99.516C128.244 99.956 128.456 100.556 128.456 101.316V105H127.412V101.376C127.412 100.888 127.28 100.512 127.016 100.248C126.752 99.976 126.388 99.84 125.924 99.84C125.404 99.84 124.984 100.004 124.664 100.332C124.344 100.652 124.184 101.148 124.184 101.82V105H123.14V99H124.184V99.864C124.608 99.184 125.256 98.844 126.128 98.844ZM132.733 105.156C131.829 105.156 131.077 104.856 130.477 104.256C129.877 103.648 129.577 102.896 129.577 102C129.577 101.104 129.877 100.356 130.477 99.756C131.077 99.148 131.829 98.844 132.733 98.844C133.325 98.844 133.857 98.988 134.329 99.276C134.801 99.556 135.153 99.936 135.385 100.416L134.509 100.92C134.357 100.6 134.121 100.344 133.801 100.152C133.489 99.96 133.133 99.864 132.733 99.864C132.133 99.864 131.629 100.068 131.221 100.476C130.821 100.884 130.621 101.392 130.621 102C130.621 102.6 130.821 103.104 131.221 103.512C131.629 103.92 132.133 104.124 132.733 104.124C133.133 104.124 133.493 104.032 133.813 103.848C134.133 103.656 134.377 103.4 134.545 103.08L135.433 103.596C135.177 104.068 134.809 104.448 134.329 104.736C133.849 105.016 133.317 105.156 132.733 105.156ZM136.992 97.908C136.792 97.908 136.624 97.84 136.488 97.704C136.352 97.568 136.284 97.404 136.284 97.212C136.284 97.02 136.352 96.856 136.488 96.72C136.624 96.576 136.792 96.504 136.992 96.504C137.184 96.504 137.348 96.576 137.484 96.72C137.62 96.856 137.688 97.02 137.688 97.212C137.688 97.404 137.62 97.568 137.484 97.704C137.348 97.84 137.184 97.908 136.992 97.908ZM136.464 105V99H137.508V105H136.464ZM144.069 99H145.113V105H144.069V103.968C143.549 104.76 142.793 105.156 141.801 105.156C140.961 105.156 140.245 104.852 139.653 104.244C139.061 103.628 138.765 102.88 138.765 102C138.765 101.12 139.061 100.376 139.653 99.768C140.245 99.152 140.961 98.844 141.801 98.844C142.793 98.844 143.549 99.24 144.069 100.032V99ZM141.933 104.148C142.541 104.148 143.049 103.944 143.457 103.536C143.865 103.12 144.069 102.608 144.069 102C144.069 101.392 143.865 100.884 143.457 100.476C143.049 100.06 142.541 99.852 141.933 99.852C141.333 99.852 140.829 100.06 140.421 100.476C140.013 100.884 139.809 101.392 139.809 102C139.809 102.608 140.013 103.12 140.421 103.536C140.829 103.944 141.333 104.148 141.933 104.148ZM146.694 105V96.24H147.738V105H146.694ZM157.299 99H158.343V105H157.299V103.968C156.779 104.76 156.023 105.156 155.031 105.156C154.191 105.156 153.475 104.852 152.883 104.244C152.291 103.628 151.995 102.88 151.995 102C151.995 101.12 152.291 100.376 152.883 99.768C153.475 99.152 154.191 98.844 155.031 98.844C156.023 98.844 156.779 99.24 157.299 100.032V99ZM155.163 104.148C155.771 104.148 156.279 103.944 156.687 103.536C157.095 103.12 157.299 102.608 157.299 102C157.299 101.392 157.095 100.884 156.687 100.476C156.279 100.06 155.771 99.852 155.163 99.852C154.563 99.852 154.059 100.06 153.651 100.476C153.243 100.884 153.039 101.392 153.039 102C153.039 102.608 153.243 103.12 153.651 103.536C154.059 103.944 154.563 104.148 155.163 104.148ZM159.925 105V96.24H160.969V105H159.925ZM162.562 105V96.24H163.606V105H162.562ZM170.262 104.244C169.646 104.852 168.898 105.156 168.018 105.156C167.138 105.156 166.39 104.852 165.774 104.244C165.166 103.636 164.862 102.888 164.862 102C164.862 101.112 165.166 100.364 165.774 99.756C166.39 99.148 167.138 98.844 168.018 98.844C168.898 98.844 169.646 99.148 170.262 99.756C170.878 100.364 171.186 101.112 171.186 102C171.186 102.888 170.878 103.636 170.262 104.244ZM168.018 104.136C168.618 104.136 169.122 103.932 169.53 103.524C169.938 103.116 170.142 102.608 170.142 102C170.142 101.392 169.938 100.884 169.53 100.476C169.122 100.068 168.618 99.864 168.018 99.864C167.426 99.864 166.926 100.068 166.518 100.476C166.11 100.884 165.906 101.392 165.906 102C165.906 102.608 166.11 103.116 166.518 103.524C166.926 103.932 167.426 104.136 168.018 104.136ZM175.237 105.156C174.333 105.156 173.581 104.856 172.981 104.256C172.381 103.648 172.081 102.896 172.081 102C172.081 101.104 172.381 100.356 172.981 99.756C173.581 99.148 174.333 98.844 175.237 98.844C175.829 98.844 176.361 98.988 176.833 99.276C177.305 99.556 177.657 99.936 177.889 100.416L177.013 100.92C176.861 100.6 176.625 100.344 176.305 100.152C175.993 99.96 175.637 99.864 175.237 99.864C174.637 99.864 174.133 100.068 173.725 100.476C173.325 100.884 173.125 101.392 173.125 102C173.125 102.6 173.325 103.104 173.725 103.512C174.133 103.92 174.637 104.124 175.237 104.124C175.637 104.124 175.997 104.032 176.317 103.848C176.637 103.656 176.881 103.4 177.049 103.08L177.937 103.596C177.681 104.068 177.313 104.448 176.833 104.736C176.353 105.016 175.821 105.156 175.237 105.156ZM183.854 99H184.898V105H183.854V103.968C183.334 104.76 182.578 105.156 181.586 105.156C180.746 105.156 180.03 104.852 179.438 104.244C178.846 103.628 178.55 102.88 178.55 102C178.55 101.12 178.846 100.376 179.438 99.768C180.03 99.152 180.746 98.844 181.586 98.844C182.578 98.844 183.334 99.24 183.854 100.032V99ZM181.718 104.148C182.326 104.148 182.834 103.944 183.242 103.536C183.65 103.12 183.854 102.608 183.854 102C183.854 101.392 183.65 100.884 183.242 100.476C182.834 100.06 182.326 99.852 181.718 99.852C181.118 99.852 180.614 100.06 180.206 100.476C179.798 100.884 179.594 101.392 179.594 102C179.594 102.608 179.798 103.12 180.206 103.536C180.614 103.944 181.118 104.148 181.718 104.148ZM189.744 100.008H188.148V103.26C188.148 103.556 188.204 103.768 188.316 103.896C188.436 104.016 188.616 104.08 188.855 104.088C189.095 104.088 189.392 104.08 189.744 104.064V105C188.832 105.12 188.164 105.048 187.74 104.784C187.316 104.512 187.104 104.004 187.104 103.26V100.008H185.916V99H187.104V97.632L188.148 97.32V99H189.744V100.008ZM191.508 97.908C191.308 97.908 191.14 97.84 191.004 97.704C190.868 97.568 190.8 97.404 190.8 97.212C190.8 97.02 190.868 96.856 191.004 96.72C191.14 96.576 191.308 96.504 191.508 96.504C191.7 96.504 191.864 96.576 192 96.72C192.136 96.856 192.204 97.02 192.204 97.212C192.204 97.404 192.136 97.568 192 97.704C191.864 97.84 191.7 97.908 191.508 97.908ZM190.979 105V99H192.024V105H190.979ZM198.68 104.244C198.064 104.852 197.316 105.156 196.436 105.156C195.556 105.156 194.808 104.852 194.192 104.244C193.584 103.636 193.28 102.888 193.28 102C193.28 101.112 193.584 100.364 194.192 99.756C194.808 99.148 195.556 98.844 196.436 98.844C197.316 98.844 198.064 99.148 198.68 99.756C199.296 100.364 199.604 101.112 199.604 102C199.604 102.888 199.296 103.636 198.68 104.244ZM196.436 104.136C197.036 104.136 197.54 103.932 197.948 103.524C198.356 103.116 198.56 102.608 198.56 102C198.56 101.392 198.356 100.884 197.948 100.476C197.54 100.068 197.036 99.864 196.436 99.864C195.844 99.864 195.344 100.068 194.936 100.476C194.528 100.884 194.324 101.392 194.324 102C194.324 102.608 194.528 103.116 194.936 103.524C195.344 103.932 195.844 104.136 196.436 104.136ZM203.823 98.844C204.527 98.844 205.091 99.068 205.515 99.516C205.939 99.956 206.151 100.556 206.151 101.316V105H205.107V101.376C205.107 100.888 204.975 100.512 204.711 100.248C204.447 99.976 204.083 99.84 203.619 99.84C203.099 99.84 202.679 100.004 202.359 100.332C202.039 100.652 201.879 101.148 201.879 101.82V105H200.835V99H201.879V99.864C202.303 99.184 202.951 98.844 203.823 98.844ZM215.672 104.244C215.056 104.852 214.308 105.156 213.428 105.156C212.548 105.156 211.8 104.852 211.184 104.244C210.576 103.636 210.272 102.888 210.272 102C210.272 101.112 210.576 100.364 211.184 99.756C211.8 99.148 212.548 98.844 213.428 98.844C214.308 98.844 215.056 99.148 215.672 99.756C216.288 100.364 216.596 101.112 216.596 102C216.596 102.888 216.288 103.636 215.672 104.244ZM213.428 104.136C214.028 104.136 214.532 103.932 214.94 103.524C215.348 103.116 215.552 102.608 215.552 102C215.552 101.392 215.348 100.884 214.94 100.476C214.532 100.068 214.028 99.864 213.428 99.864C212.836 99.864 212.336 100.068 211.928 100.476C211.52 100.884 211.316 101.392 211.316 102C211.316 102.608 211.52 103.116 211.928 103.524C212.336 103.932 212.836 104.136 213.428 104.136ZM220.689 97.452C219.633 97.364 219.105 97.82 219.105 98.82V99H220.689V100.008H219.105V105H218.061V100.008H217.101V99H218.061V98.82C218.061 98.012 218.285 97.4 218.733 96.984C219.189 96.568 219.841 96.388 220.689 96.444V97.452ZM227.567 97.452C226.511 97.364 225.983 97.82 225.983 98.82V99H227.567V100.008H225.983V105H224.939V100.008H223.979V99H224.939V98.82C224.939 98.012 225.163 97.4 225.611 96.984C226.067 96.568 226.719 96.388 227.567 96.444V97.452ZM232.502 99H233.546V105H232.502V104.136C232.078 104.816 231.43 105.156 230.558 105.156C229.854 105.156 229.29 104.936 228.866 104.496C228.442 104.048 228.23 103.444 228.23 102.684V99H229.274V102.624C229.274 103.112 229.406 103.492 229.67 103.764C229.934 104.028 230.298 104.16 230.762 104.16C231.282 104.16 231.702 104 232.022 103.68C232.342 103.352 232.502 102.852 232.502 102.18V99ZM238.124 98.844C238.828 98.844 239.392 99.068 239.816 99.516C240.24 99.956 240.452 100.556 240.452 101.316V105H239.408V101.376C239.408 100.888 239.276 100.512 239.012 100.248C238.748 99.976 238.384 99.84 237.92 99.84C237.4 99.84 236.98 100.004 236.66 100.332C236.34 100.652 236.18 101.148 236.18 101.82V105H235.136V99H236.18V99.864C236.604 99.184 237.252 98.844 238.124 98.844ZM246.877 96.6H247.921V105H246.877V103.968C246.357 104.76 245.601 105.156 244.609 105.156C243.769 105.156 243.053 104.852 242.461 104.244C241.869 103.628 241.573 102.88 241.573 102C241.573 101.12 241.869 100.376 242.461 99.768C243.053 99.152 243.769 98.844 244.609 98.844C245.601 98.844 246.357 99.24 246.877 100.032V96.6ZM244.741 104.148C245.349 104.148 245.857 103.944 246.265 103.536C246.673 103.12 246.877 102.608 246.877 102C246.877 101.392 246.673 100.884 246.265 100.476C245.857 100.06 245.349 99.852 244.741 99.852C244.141 99.852 243.637 100.06 243.229 100.476C242.821 100.884 242.617 101.392 242.617 102C242.617 102.608 242.821 103.12 243.229 103.536C243.637 103.944 244.141 104.148 244.741 104.148ZM250.391 100.62C250.391 100.852 250.507 101.04 250.739 101.184C250.971 101.32 251.251 101.432 251.579 101.52C251.907 101.6 252.235 101.696 252.563 101.808C252.891 101.912 253.171 102.096 253.403 102.36C253.635 102.616 253.751 102.948 253.751 103.356C253.751 103.9 253.539 104.336 253.115 104.664C252.699 104.992 252.163 105.156 251.507 105.156C250.923 105.156 250.423 105.028 250.007 104.772C249.591 104.516 249.295 104.176 249.119 103.752L250.019 103.236C250.115 103.524 250.295 103.752 250.559 103.92C250.823 104.088 251.139 104.172 251.507 104.172C251.851 104.172 252.135 104.108 252.359 103.98C252.583 103.844 252.695 103.636 252.695 103.356C252.695 103.124 252.579 102.94 252.347 102.804C252.115 102.66 251.835 102.548 251.507 102.468C251.179 102.38 250.851 102.28 250.523 102.168C250.195 102.056 249.915 101.872 249.683 101.616C249.451 101.36 249.335 101.032 249.335 100.632C249.335 100.112 249.535 99.684 249.935 99.348C250.343 99.012 250.851 98.844 251.459 98.844C251.947 98.844 252.379 98.956 252.755 99.18C253.139 99.396 253.427 99.7 253.619 100.092L252.743 100.584C252.527 100.072 252.099 99.816 251.459 99.816C251.163 99.816 250.911 99.888 250.703 100.032C250.495 100.168 250.391 100.364 250.391 100.62ZM51.76 114.6H52.804V123H51.76V121.968C51.24 122.76 50.484 123.156 49.492 123.156C48.652 123.156 47.936 122.852 47.344 122.244C46.752 121.628 46.456 120.88 46.456 120C46.456 119.12 46.752 118.376 47.344 117.768C47.936 117.152 48.652 116.844 49.492 116.844C50.484 116.844 51.24 117.24 51.76 118.032V114.6ZM49.624 122.148C50.232 122.148 50.74 121.944 51.148 121.536C51.556 121.12 51.76 120.608 51.76 120C51.76 119.392 51.556 118.884 51.148 118.476C50.74 118.06 50.232 117.852 49.624 117.852C49.024 117.852 48.52 118.06 48.112 118.476C47.704 118.884 47.5 119.392 47.5 120C47.5 120.608 47.704 121.12 48.112 121.536C48.52 121.944 49.024 122.148 49.624 122.148ZM54.9138 115.908C54.7138 115.908 54.5458 115.84 54.4098 115.704C54.2738 115.568 54.2058 115.404 54.2058 115.212C54.2058 115.02 54.2738 114.856 54.4098 114.72C54.5458 114.576 54.7138 114.504 54.9138 114.504C55.1058 114.504 55.2698 114.576 55.4058 114.72C55.5418 114.856 55.6098 115.02 55.6098 115.212C55.6098 115.404 55.5418 115.568 55.4058 115.704C55.2698 115.84 55.1058 115.908 54.9138 115.908ZM54.3857 123V117H55.4298V123H54.3857ZM58.0665 118.008C58.4105 117.264 59.0345 116.892 59.9385 116.892V117.984C59.4265 117.96 58.9865 118.096 58.6185 118.392C58.2505 118.688 58.0665 119.164 58.0665 119.82V123H57.0225V117H58.0665V118.008ZM61.3638 120.48C61.4678 121.016 61.7118 121.432 62.0958 121.728C62.4878 122.024 62.9678 122.172 63.5358 122.172C64.3278 122.172 64.9038 121.88 65.2638 121.296L66.1518 121.8C65.5678 122.704 64.6878 123.156 63.5118 123.156C62.5598 123.156 61.7838 122.86 61.1838 122.268C60.5918 121.668 60.2958 120.912 60.2958 120C60.2958 119.096 60.5878 118.344 61.1718 117.744C61.7558 117.144 62.5118 116.844 63.4398 116.844C64.3198 116.844 65.0358 117.156 65.5878 117.78C66.1478 118.396 66.4278 119.14 66.4278 120.012C66.4278 120.164 66.4158 120.32 66.3918 120.48H61.3638ZM63.4398 117.828C62.8798 117.828 62.4158 117.988 62.0478 118.308C61.6798 118.62 61.4518 119.04 61.3638 119.568H65.3718C65.2838 119 65.0598 118.568 64.6998 118.272C64.3398 117.976 63.9198 117.828 63.4398 117.828ZM70.4362 123.156C69.5322 123.156 68.7802 122.856 68.1802 122.256C67.5802 121.648 67.2802 120.896 67.2802 120C67.2802 119.104 67.5802 118.356 68.1802 117.756C68.7802 117.148 69.5322 116.844 70.4362 116.844C71.0282 116.844 71.5602 116.988 72.0322 117.276C72.5042 117.556 72.8562 117.936 73.0882 118.416L72.2122 118.92C72.0602 118.6 71.8242 118.344 71.5042 118.152C71.1922 117.96 70.8362 117.864 70.4362 117.864C69.8362 117.864 69.3322 118.068 68.9242 118.476C68.5242 118.884 68.3242 119.392 68.3242 120C68.3242 120.6 68.5242 121.104 68.9242 121.512C69.3322 121.92 69.8362 122.124 70.4362 122.124C70.8362 122.124 71.1962 122.032 71.5162 121.848C71.8362 121.656 72.0802 121.4 72.2482 121.08L73.1362 121.596C72.8802 122.068 72.5122 122.448 72.0322 122.736C71.5522 123.016 71.0202 123.156 70.4362 123.156ZM77.431 118.008H75.835V121.26C75.835 121.556 75.891 121.768 76.003 121.896C76.123 122.016 76.303 122.08 76.543 122.088C76.783 122.088 77.079 122.08 77.431 122.064V123C76.519 123.12 75.851 123.048 75.427 122.784C75.003 122.512 74.791 122.004 74.791 121.26V118.008H73.603V117H74.791V115.632L75.835 115.32V117H77.431V118.008ZM79.0943 120.48C79.1983 121.016 79.4423 121.432 79.8263 121.728C80.2183 122.024 80.6983 122.172 81.2663 122.172C82.0583 122.172 82.6343 121.88 82.9943 121.296L83.8823 121.8C83.2983 122.704 82.4183 123.156 81.2423 123.156C80.2903 123.156 79.5143 122.86 78.9143 122.268C78.3223 121.668 78.0263 120.912 78.0263 120C78.0263 119.096 78.3183 118.344 78.9023 117.744C79.4863 117.144 80.2423 116.844 81.1703 116.844C82.0503 116.844 82.7663 117.156 83.3183 117.78C83.8783 118.396 84.1583 119.14 84.1583 120.012C84.1583 120.164 84.1463 120.32 84.1223 120.48H79.0943ZM81.1703 117.828C80.6103 117.828 80.1463 117.988 79.7783 118.308C79.4103 118.62 79.1823 119.04 79.0943 119.568H83.1023C83.0143 119 82.7903 118.568 82.4303 118.272C82.0703 117.976 81.6503 117.828 81.1703 117.828ZM90.3147 114.6H91.3587V123H90.3147V121.968C89.7947 122.76 89.0387 123.156 88.0467 123.156C87.2067 123.156 86.4907 122.852 85.8987 122.244C85.3067 121.628 85.0107 120.88 85.0107 120C85.0107 119.12 85.3067 118.376 85.8987 117.768C86.4907 117.152 87.2067 116.844 88.0467 116.844C89.0387 116.844 89.7947 117.24 90.3147 118.032V114.6ZM88.1787 122.148C88.7867 122.148 89.2947 121.944 89.7027 121.536C90.1107 121.12 90.3147 120.608 90.3147 120C90.3147 119.392 90.1107 118.884 89.7027 118.476C89.2947 118.06 88.7867 117.852 88.1787 117.852C87.5787 117.852 87.0747 118.06 86.6667 118.476C86.2587 118.884 86.0547 119.392 86.0547 120C86.0547 120.608 86.2587 121.12 86.6667 121.536C87.0747 121.944 87.5787 122.148 88.1787 122.148ZM99.2044 118.008H97.6084V121.26C97.6084 121.556 97.6644 121.768 97.7764 121.896C97.8964 122.016 98.0764 122.08 98.3164 122.088C98.5564 122.088 98.8524 122.08 99.2044 122.064V123C98.2924 123.12 97.6244 123.048 97.2004 122.784C96.7764 122.512 96.5644 122.004 96.5644 121.26V118.008H95.3764V117H96.5644V115.632L97.6084 115.32V117H99.2044V118.008ZM105.2 122.244C104.584 122.852 103.836 123.156 102.956 123.156C102.076 123.156 101.328 122.852 100.712 122.244C100.104 121.636 99.7998 120.888 99.7998 120C99.7998 119.112 100.104 118.364 100.712 117.756C101.328 117.148 102.076 116.844 102.956 116.844C103.836 116.844 104.584 117.148 105.2 117.756C105.816 118.364 106.124 119.112 106.124 120C106.124 120.888 105.816 121.636 105.2 122.244ZM102.956 122.136C103.556 122.136 104.06 121.932 104.468 121.524C104.876 121.116 105.08 120.608 105.08 120C105.08 119.392 104.876 118.884 104.468 118.476C104.06 118.068 103.556 117.864 102.956 117.864C102.364 117.864 101.864 118.068 101.456 118.476C101.048 118.884 100.844 119.392 100.844 120C100.844 120.608 101.048 121.116 101.456 121.524C101.864 121.932 102.364 122.136 102.956 122.136ZM114.188 117H115.28L113.42 123H112.352L110.948 118.56L109.544 123H108.476L106.616 117H107.708L109.028 121.56L110.444 117H111.452L112.868 121.572L114.188 117ZM121.088 117H122.132V123H121.088V121.968C120.568 122.76 119.812 123.156 118.82 123.156C117.98 123.156 117.264 122.852 116.672 122.244C116.08 121.628 115.784 120.88 115.784 120C115.784 119.12 116.08 118.376 116.672 117.768C117.264 117.152 117.98 116.844 118.82 116.844C119.812 116.844 120.568 117.24 121.088 118.032V117ZM118.952 122.148C119.56 122.148 120.068 121.944 120.476 121.536C120.884 121.12 121.088 120.608 121.088 120C121.088 119.392 120.884 118.884 120.476 118.476C120.068 118.06 119.56 117.852 118.952 117.852C118.352 117.852 117.848 118.06 117.44 118.476C117.032 118.884 116.828 119.392 116.828 120C116.828 120.608 117.032 121.12 117.44 121.536C117.848 121.944 118.352 122.148 118.952 122.148ZM124.758 118.008C125.102 117.264 125.726 116.892 126.63 116.892V117.984C126.118 117.96 125.678 118.096 125.31 118.392C124.942 118.688 124.758 119.164 124.758 119.82V123H123.714V117H124.758V118.008ZM132.291 114.6H133.335V123H132.291V121.968C131.771 122.76 131.015 123.156 130.023 123.156C129.183 123.156 128.467 122.852 127.875 122.244C127.283 121.628 126.987 120.88 126.987 120C126.987 119.12 127.283 118.376 127.875 117.768C128.467 117.152 129.183 116.844 130.023 116.844C131.015 116.844 131.771 117.24 132.291 118.032V114.6ZM130.155 122.148C130.763 122.148 131.271 121.944 131.679 121.536C132.087 121.12 132.291 120.608 132.291 120C132.291 119.392 132.087 118.884 131.679 118.476C131.271 118.06 130.763 117.852 130.155 117.852C129.555 117.852 129.051 118.06 128.643 118.476C128.235 118.884 128.031 119.392 128.031 120C128.031 120.608 128.235 121.12 128.643 121.536C129.051 121.944 129.555 122.148 130.155 122.148ZM135.805 118.62C135.805 118.852 135.921 119.04 136.153 119.184C136.385 119.32 136.665 119.432 136.993 119.52C137.321 119.6 137.649 119.696 137.977 119.808C138.305 119.912 138.585 120.096 138.817 120.36C139.049 120.616 139.165 120.948 139.165 121.356C139.165 121.9 138.953 122.336 138.529 122.664C138.113 122.992 137.577 123.156 136.921 123.156C136.337 123.156 135.837 123.028 135.421 122.772C135.005 122.516 134.709 122.176 134.533 121.752L135.433 121.236C135.529 121.524 135.709 121.752 135.973 121.92C136.237 122.088 136.553 122.172 136.921 122.172C137.265 122.172 137.549 122.108 137.773 121.98C137.997 121.844 138.109 121.636 138.109 121.356C138.109 121.124 137.993 120.94 137.761 120.804C137.529 120.66 137.249 120.548 136.921 120.468C136.593 120.38 136.265 120.28 135.937 120.168C135.609 120.056 135.329 119.872 135.097 119.616C134.865 119.36 134.749 119.032 134.749 118.632C134.749 118.112 134.949 117.684 135.349 117.348C135.757 117.012 136.265 116.844 136.873 116.844C137.361 116.844 137.793 116.956 138.169 117.18C138.553 117.396 138.841 117.7 139.033 118.092L138.157 118.584C137.941 118.072 137.513 117.816 136.873 117.816C136.577 117.816 136.325 117.888 136.117 118.032C135.909 118.168 135.805 118.364 135.805 118.62ZM146.485 115.452C145.429 115.364 144.901 115.82 144.901 116.82V117H146.485V118.008H144.901V123H143.857V118.008H142.897V117H143.857V116.82C143.857 116.012 144.081 115.4 144.529 114.984C144.985 114.568 145.637 114.388 146.485 114.444V115.452ZM152.016 122.244C151.4 122.852 150.652 123.156 149.772 123.156C148.892 123.156 148.144 122.852 147.528 122.244C146.92 121.636 146.616 120.888 146.616 120C146.616 119.112 146.92 118.364 147.528 117.756C148.144 117.148 148.892 116.844 149.772 116.844C150.652 116.844 151.4 117.148 152.016 117.756C152.632 118.364 152.94 119.112 152.94 120C152.94 120.888 152.632 121.636 152.016 122.244ZM149.772 122.136C150.372 122.136 150.876 121.932 151.284 121.524C151.692 121.116 151.896 120.608 151.896 120C151.896 119.392 151.692 118.884 151.284 118.476C150.876 118.068 150.372 117.864 149.772 117.864C149.18 117.864 148.68 118.068 148.272 118.476C147.864 118.884 147.66 119.392 147.66 120C147.66 120.608 147.864 121.116 148.272 121.524C148.68 121.932 149.18 122.136 149.772 122.136ZM155.215 118.008C155.559 117.264 156.183 116.892 157.087 116.892V117.984C156.575 117.96 156.135 118.096 155.767 118.392C155.399 118.688 155.215 119.164 155.215 119.82V123H154.171V117H155.215V118.008ZM158.512 120.48C158.616 121.016 158.86 121.432 159.244 121.728C159.636 122.024 160.116 122.172 160.684 122.172C161.476 122.172 162.052 121.88 162.412 121.296L163.3 121.8C162.716 122.704 161.836 123.156 160.66 123.156C159.708 123.156 158.932 122.86 158.332 122.268C157.74 121.668 157.444 120.912 157.444 120C157.444 119.096 157.736 118.344 158.32 117.744C158.904 117.144 159.66 116.844 160.588 116.844C161.468 116.844 162.184 117.156 162.736 117.78C163.296 118.396 163.576 119.14 163.576 120.012C163.576 120.164 163.564 120.32 163.54 120.48H158.512ZM160.588 117.828C160.028 117.828 159.564 117.988 159.196 118.308C158.828 118.62 158.6 119.04 158.512 119.568H162.52C162.432 119 162.208 118.568 161.848 118.272C161.488 117.976 161.068 117.828 160.588 117.828ZM165.442 118.62C165.442 118.852 165.558 119.04 165.79 119.184C166.022 119.32 166.302 119.432 166.63 119.52C166.958 119.6 167.286 119.696 167.614 119.808C167.942 119.912 168.222 120.096 168.454 120.36C168.686 120.616 168.802 120.948 168.802 121.356C168.802 121.9 168.59 122.336 168.166 122.664C167.75 122.992 167.214 123.156 166.558 123.156C165.974 123.156 165.474 123.028 165.058 122.772C164.642 122.516 164.346 122.176 164.17 121.752L165.07 121.236C165.166 121.524 165.346 121.752 165.61 121.92C165.874 122.088 166.19 122.172 166.558 122.172C166.902 122.172 167.186 122.108 167.41 121.98C167.634 121.844 167.746 121.636 167.746 121.356C167.746 121.124 167.63 120.94 167.398 120.804C167.166 120.66 166.886 120.548 166.558 120.468C166.23 120.38 165.902 120.28 165.574 120.168C165.246 120.056 164.966 119.872 164.734 119.616C164.502 119.36 164.386 119.032 164.386 118.632C164.386 118.112 164.586 117.684 164.986 117.348C165.394 117.012 165.902 116.844 166.51 116.844C166.998 116.844 167.43 116.956 167.806 117.18C168.19 117.396 168.478 117.7 168.67 118.092L167.794 118.584C167.578 118.072 167.15 117.816 166.51 117.816C166.214 117.816 165.962 117.888 165.754 118.032C165.546 118.168 165.442 118.364 165.442 118.62ZM173.068 118.008H171.472V121.26C171.472 121.556 171.528 121.768 171.64 121.896C171.76 122.016 171.94 122.08 172.18 122.088C172.42 122.088 172.716 122.08 173.068 122.064V123C172.156 123.12 171.488 123.048 171.064 122.784C170.64 122.512 170.428 122.004 170.428 121.26V118.008H169.24V117H170.428V115.632L171.472 115.32V117H173.068V118.008ZM180.159 123.156C179.255 123.156 178.503 122.856 177.903 122.256C177.303 121.648 177.003 120.896 177.003 120C177.003 119.104 177.303 118.356 177.903 117.756C178.503 117.148 179.255 116.844 180.159 116.844C180.751 116.844 181.283 116.988 181.755 117.276C182.227 117.556 182.579 117.936 182.811 118.416L181.935 118.92C181.783 118.6 181.547 118.344 181.227 118.152C180.915 117.96 180.559 117.864 180.159 117.864C179.559 117.864 179.055 118.068 178.647 118.476C178.247 118.884 178.047 119.392 178.047 120C178.047 120.6 178.247 121.104 178.647 121.512C179.055 121.92 179.559 122.124 180.159 122.124C180.559 122.124 180.919 122.032 181.239 121.848C181.559 121.656 181.803 121.4 181.971 121.08L182.859 121.596C182.603 122.068 182.235 122.448 181.755 122.736C181.275 123.016 180.743 123.156 180.159 123.156ZM188.872 122.244C188.256 122.852 187.508 123.156 186.628 123.156C185.748 123.156 185 122.852 184.384 122.244C183.776 121.636 183.472 120.888 183.472 120C183.472 119.112 183.776 118.364 184.384 117.756C185 117.148 185.748 116.844 186.628 116.844C187.508 116.844 188.256 117.148 188.872 117.756C189.488 118.364 189.796 119.112 189.796 120C189.796 120.888 189.488 121.636 188.872 122.244ZM186.628 122.136C187.228 122.136 187.732 121.932 188.14 121.524C188.548 121.116 188.752 120.608 188.752 120C188.752 119.392 188.548 118.884 188.14 118.476C187.732 118.068 187.228 117.864 186.628 117.864C186.036 117.864 185.536 118.068 185.128 118.476C184.72 118.884 184.516 119.392 184.516 120C184.516 120.608 184.72 121.116 185.128 121.524C185.536 121.932 186.036 122.136 186.628 122.136ZM194.014 116.844C194.718 116.844 195.282 117.068 195.706 117.516C196.13 117.956 196.342 118.556 196.342 119.316V123H195.298V119.376C195.298 118.888 195.166 118.512 194.902 118.248C194.638 117.976 194.274 117.84 193.81 117.84C193.29 117.84 192.87 118.004 192.55 118.332C192.23 118.652 192.07 119.148 192.07 119.82V123H191.026V117H192.07V117.864C192.494 117.184 193.142 116.844 194.014 116.844ZM198.7 118.62C198.7 118.852 198.816 119.04 199.048 119.184C199.28 119.32 199.56 119.432 199.888 119.52C200.216 119.6 200.544 119.696 200.872 119.808C201.2 119.912 201.48 120.096 201.712 120.36C201.944 120.616 202.06 120.948 202.06 121.356C202.06 121.9 201.848 122.336 201.424 122.664C201.008 122.992 200.472 123.156 199.816 123.156C199.232 123.156 198.732 123.028 198.316 122.772C197.9 122.516 197.604 122.176 197.428 121.752L198.328 121.236C198.424 121.524 198.604 121.752 198.868 121.92C199.132 122.088 199.448 122.172 199.816 122.172C200.16 122.172 200.444 122.108 200.668 121.98C200.892 121.844 201.004 121.636 201.004 121.356C201.004 121.124 200.888 120.94 200.656 120.804C200.424 120.66 200.144 120.548 199.816 120.468C199.488 120.38 199.16 120.28 198.832 120.168C198.504 120.056 198.224 119.872 197.992 119.616C197.76 119.36 197.644 119.032 197.644 118.632C197.644 118.112 197.844 117.684 198.244 117.348C198.652 117.012 199.16 116.844 199.768 116.844C200.256 116.844 200.688 116.956 201.064 117.18C201.448 117.396 201.736 117.7 201.928 118.092L201.052 118.584C200.836 118.072 200.408 117.816 199.768 117.816C199.472 117.816 199.22 117.888 199.012 118.032C198.804 118.168 198.7 118.364 198.7 118.62ZM203.864 120.48C203.968 121.016 204.212 121.432 204.596 121.728C204.988 122.024 205.468 122.172 206.036 122.172C206.828 122.172 207.404 121.88 207.764 121.296L208.652 121.8C208.068 122.704 207.188 123.156 206.012 123.156C205.06 123.156 204.284 122.86 203.684 122.268C203.092 121.668 202.796 120.912 202.796 120C202.796 119.096 203.088 118.344 203.672 117.744C204.256 117.144 205.012 116.844 205.94 116.844C206.82 116.844 207.536 117.156 208.088 117.78C208.648 118.396 208.928 119.14 208.928 120.012C208.928 120.164 208.916 120.32 208.892 120.48H203.864ZM205.94 117.828C205.38 117.828 204.916 117.988 204.548 118.308C204.18 118.62 203.952 119.04 203.864 119.568H207.872C207.784 119 207.56 118.568 207.2 118.272C206.84 117.976 206.42 117.828 205.94 117.828ZM211.172 118.008C211.516 117.264 212.14 116.892 213.044 116.892V117.984C212.532 117.96 212.092 118.096 211.724 118.392C211.356 118.688 211.172 119.164 211.172 119.82V123H210.128V117H211.172V118.008ZM218.265 117H219.393L216.993 123H215.769L213.369 117H214.497L216.381 121.884L218.265 117ZM225.01 117H226.054V123H225.01V121.968C224.49 122.76 223.734 123.156 222.742 123.156C221.902 123.156 221.186 122.852 220.594 122.244C220.002 121.628 219.706 120.88 219.706 120C219.706 119.12 220.002 118.376 220.594 117.768C221.186 117.152 221.902 116.844 222.742 116.844C223.734 116.844 224.49 117.24 225.01 118.032V117ZM222.874 122.148C223.482 122.148 223.99 121.944 224.398 121.536C224.806 121.12 225.01 120.608 225.01 120C225.01 119.392 224.806 118.884 224.398 118.476C223.99 118.06 223.482 117.852 222.874 117.852C222.274 117.852 221.77 118.06 221.362 118.476C220.954 118.884 220.75 119.392 220.75 120C220.75 120.608 220.954 121.12 221.362 121.536C221.77 121.944 222.274 122.148 222.874 122.148ZM230.9 118.008H229.304V121.26C229.304 121.556 229.36 121.768 229.472 121.896C229.592 122.016 229.772 122.08 230.012 122.088C230.252 122.088 230.548 122.08 230.9 122.064V123C229.988 123.12 229.32 123.048 228.896 122.784C228.472 122.512 228.26 122.004 228.26 121.26V118.008H227.072V117H228.26V115.632L229.304 115.32V117H230.9V118.008ZM232.664 115.908C232.464 115.908 232.296 115.84 232.16 115.704C232.024 115.568 231.956 115.404 231.956 115.212C231.956 115.02 232.024 114.856 232.16 114.72C232.296 114.576 232.464 114.504 232.664 114.504C232.856 114.504 233.02 114.576 233.156 114.72C233.292 114.856 233.36 115.02 233.36 115.212C233.36 115.404 233.292 115.568 233.156 115.704C233.02 115.84 232.856 115.908 232.664 115.908ZM232.136 123V117H233.18V123H232.136ZM239.836 122.244C239.22 122.852 238.472 123.156 237.592 123.156C236.712 123.156 235.964 122.852 235.348 122.244C234.74 121.636 234.436 120.888 234.436 120C234.436 119.112 234.74 118.364 235.348 117.756C235.964 117.148 236.712 116.844 237.592 116.844C238.472 116.844 239.22 117.148 239.836 117.756C240.452 118.364 240.76 119.112 240.76 120C240.76 120.888 240.452 121.636 239.836 122.244ZM237.592 122.136C238.192 122.136 238.696 121.932 239.104 121.524C239.512 121.116 239.716 120.608 239.716 120C239.716 119.392 239.512 118.884 239.104 118.476C238.696 118.068 238.192 117.864 237.592 117.864C237 117.864 236.5 118.068 236.092 118.476C235.684 118.884 235.48 119.392 235.48 120C235.48 120.608 235.684 121.116 236.092 121.524C236.5 121.932 237 122.136 237.592 122.136ZM244.979 116.844C245.683 116.844 246.247 117.068 246.671 117.516C247.095 117.956 247.307 118.556 247.307 119.316V123H246.263V119.376C246.263 118.888 246.131 118.512 245.867 118.248C245.603 117.976 245.239 117.84 244.775 117.84C244.255 117.84 243.835 118.004 243.515 118.332C243.195 118.652 243.035 119.148 243.035 119.82V123H241.991V117H243.035V117.864C243.459 117.184 244.107 116.844 244.979 116.844ZM249.425 123.132C249.209 123.132 249.025 123.056 248.873 122.904C248.721 122.752 248.645 122.568 248.645 122.352C248.645 122.136 248.721 121.952 248.873 121.8C249.025 121.648 249.209 121.572 249.425 121.572C249.649 121.572 249.833 121.648 249.977 121.8C250.129 121.952 250.205 122.136 250.205 122.352C250.205 122.568 250.129 122.752 249.977 122.904C249.833 123.056 249.649 123.132 249.425 123.132Z" fill="#1A1A1A"/>
</svg>
