<svg width="198" height="179" viewBox="0 0 239 218" fill="none" xmlns="http://www.w3.org/2000/svg">
<g style="mix-blend-mode:multiply">
<path d="M0 34.2271H99.912L119.631 0L139.088 34.2271H239V218H0V34.2271Z" fill="#D1EACB"/>
</g>
<path d="M13.9581 69.748C13.7021 70.012 13.3861 70.144 13.0101 70.144C12.6341 70.144 12.3141 70.012 12.0501 69.748C11.7861 69.484 11.6541 69.164 11.6541 68.788C11.6541 68.412 11.7861 68.096 12.0501 67.84C12.3141 67.576 12.6341 67.444 13.0101 67.444C13.3861 67.444 13.7021 67.576 13.9581 67.84C14.2221 68.096 14.3541 68.412 14.3541 68.788C14.3541 69.164 14.2221 69.484 13.9581 69.748ZM27.7 68.644C28.084 68.828 28.388 69.092 28.612 69.436C28.844 69.78 28.96 70.176 28.96 70.624C28.96 71.296 28.724 71.86 28.252 72.316C27.78 72.772 27.204 73 26.524 73H22.9V64.6H26.26C26.916 64.6 27.472 64.82 27.928 65.26C28.384 65.7 28.612 66.244 28.612 66.892C28.612 67.636 28.308 68.22 27.7 68.644ZM26.26 65.644H24.016V68.212H26.26C26.612 68.212 26.908 68.088 27.148 67.84C27.388 67.592 27.508 67.288 27.508 66.928C27.508 66.576 27.384 66.276 27.136 66.028C26.896 65.772 26.604 65.644 26.26 65.644ZM26.524 71.956C26.9 71.956 27.216 71.824 27.472 71.56C27.728 71.296 27.856 70.972 27.856 70.588C27.856 70.212 27.724 69.892 27.46 69.628C27.204 69.364 26.892 69.232 26.524 69.232H24.016V71.956H26.524ZM30.942 70.48C31.046 71.016 31.29 71.432 31.674 71.728C32.066 72.024 32.546 72.172 33.114 72.172C33.906 72.172 34.482 71.88 34.842 71.296L35.73 71.8C35.146 72.704 34.266 73.156 33.09 73.156C32.138 73.156 31.362 72.86 30.762 72.268C30.17 71.668 29.874 70.912 29.874 70C29.874 69.096 30.166 68.344 30.75 67.744C31.334 67.144 32.09 66.844 33.018 66.844C33.898 66.844 34.614 67.156 35.166 67.78C35.726 68.396 36.006 69.14 36.006 70.012C36.006 70.164 35.994 70.32 35.97 70.48H30.942ZM33.018 67.828C32.458 67.828 31.994 67.988 31.626 68.308C31.258 68.62 31.03 69.04 30.942 69.568H34.95C34.862 69 34.638 68.568 34.278 68.272C33.918 67.976 33.498 67.828 33.018 67.828ZM42.1743 67H43.2063V72.748C43.2063 73.636 42.9063 74.324 42.3063 74.812C41.7063 75.308 40.9863 75.556 40.1463 75.556C39.4743 75.556 38.8943 75.428 38.4063 75.172C37.9183 74.924 37.5503 74.564 37.3023 74.092L38.2143 73.576C38.5423 74.248 39.1943 74.584 40.1703 74.584C40.7943 74.584 41.2823 74.42 41.6343 74.092C41.9943 73.764 42.1743 73.316 42.1743 72.748V71.896C41.6463 72.696 40.8943 73.096 39.9183 73.096C39.0623 73.096 38.3383 72.792 37.7463 72.184C37.1543 71.576 36.8583 70.836 36.8583 69.964C36.8583 69.092 37.1543 68.356 37.7463 67.756C38.3383 67.148 39.0623 66.844 39.9183 66.844C40.9023 66.844 41.6543 67.24 42.1743 68.032V67ZM38.5143 71.488C38.9223 71.896 39.4303 72.1 40.0383 72.1C40.6463 72.1 41.1543 71.896 41.5623 71.488C41.9703 71.08 42.1743 70.572 42.1743 69.964C42.1743 69.364 41.9703 68.86 41.5623 68.452C41.1543 68.044 40.6463 67.84 40.0383 67.84C39.4303 67.84 38.9223 68.044 38.5143 68.452C38.1063 68.86 37.9023 69.364 37.9023 69.964C37.9023 70.572 38.1063 71.08 38.5143 71.488ZM45.3161 65.908C45.1161 65.908 44.9481 65.84 44.8121 65.704C44.6761 65.568 44.6081 65.404 44.6081 65.212C44.6081 65.02 44.6761 64.856 44.8121 64.72C44.9481 64.576 45.1161 64.504 45.3161 64.504C45.5081 64.504 45.6721 64.576 45.8081 64.72C45.9441 64.856 46.0121 65.02 46.0121 65.212C46.0121 65.404 45.9441 65.568 45.8081 65.704C45.6721 65.84 45.5081 65.908 45.3161 65.908ZM44.7881 73V67H45.8321V73H44.7881ZM50.4128 66.844C51.1168 66.844 51.6808 67.068 52.1048 67.516C52.5288 67.956 52.7408 68.556 52.7408 69.316V73H51.6968V69.376C51.6968 68.888 51.5648 68.512 51.3008 68.248C51.0368 67.976 50.6728 67.84 50.2088 67.84C49.6888 67.84 49.2688 68.004 48.9488 68.332C48.6288 68.652 48.4688 69.148 48.4688 69.82V73H47.4248V67H48.4688V67.864C48.8928 67.184 49.5408 66.844 50.4128 66.844ZM62.1663 64.6H63.2103V73H62.1663V71.968C61.6463 72.76 60.8903 73.156 59.8983 73.156C59.0583 73.156 58.3423 72.852 57.7503 72.244C57.1583 71.628 56.8623 70.88 56.8623 70C56.8623 69.12 57.1583 68.376 57.7503 67.768C58.3423 67.152 59.0583 66.844 59.8983 66.844C60.8903 66.844 61.6463 67.24 62.1663 68.032V64.6ZM60.0303 72.148C60.6383 72.148 61.1463 71.944 61.5543 71.536C61.9623 71.12 62.1663 70.608 62.1663 70C62.1663 69.392 61.9623 68.884 61.5543 68.476C61.1463 68.06 60.6383 67.852 60.0303 67.852C59.4303 67.852 58.9263 68.06 58.5183 68.476C58.1103 68.884 57.9062 69.392 57.9062 70C57.9062 70.608 58.1103 71.12 58.5183 71.536C58.9263 71.944 59.4303 72.148 60.0303 72.148ZM65.524 70.48C65.628 71.016 65.872 71.432 66.256 71.728C66.648 72.024 67.128 72.172 67.696 72.172C68.488 72.172 69.064 71.88 69.424 71.296L70.312 71.8C69.728 72.704 68.848 73.156 67.672 73.156C66.72 73.156 65.944 72.86 65.344 72.268C64.752 71.668 64.456 70.912 64.456 70C64.456 69.096 64.748 68.344 65.332 67.744C65.916 67.144 66.672 66.844 67.6 66.844C68.48 66.844 69.196 67.156 69.748 67.78C70.308 68.396 70.588 69.14 70.588 70.012C70.588 70.164 70.576 70.32 70.552 70.48H65.524ZM67.6 67.828C67.04 67.828 66.576 67.988 66.208 68.308C65.84 68.62 65.612 69.04 65.524 69.568H69.532C69.444 69 69.22 68.568 68.86 68.272C68.5 67.976 68.08 67.828 67.6 67.828ZM75.7537 67H76.8817L74.4817 73H73.2577L70.8577 67H71.9857L73.8697 71.884L75.7537 67ZM78.2623 70.48C78.3663 71.016 78.6103 71.432 78.9943 71.728C79.3863 72.024 79.8663 72.172 80.4343 72.172C81.2263 72.172 81.8023 71.88 82.1623 71.296L83.0503 71.8C82.4663 72.704 81.5863 73.156 80.4103 73.156C79.4583 73.156 78.6823 72.86 78.0823 72.268C77.4903 71.668 77.1943 70.912 77.1943 70C77.1943 69.096 77.4863 68.344 78.0703 67.744C78.6543 67.144 79.4103 66.844 80.3383 66.844C81.2183 66.844 81.9343 67.156 82.4863 67.78C83.0463 68.396 83.3263 69.14 83.3263 70.012C83.3263 70.164 83.3143 70.32 83.2903 70.48H78.2623ZM80.3383 67.828C79.7783 67.828 79.3143 67.988 78.9463 68.308C78.5783 68.62 78.3503 69.04 78.2623 69.568H82.2703C82.1823 69 81.9583 68.568 81.5983 68.272C81.2383 67.976 80.8183 67.828 80.3383 67.828ZM84.5264 73V64.24H85.5704V73H84.5264ZM92.2271 72.244C91.6111 72.852 90.8631 73.156 89.9831 73.156C89.1031 73.156 88.3551 72.852 87.7391 72.244C87.1311 71.636 86.8271 70.888 86.8271 70C86.8271 69.112 87.1311 68.364 87.7391 67.756C88.3551 67.148 89.1031 66.844 89.9831 66.844C90.8631 66.844 91.6111 67.148 92.2271 67.756C92.8431 68.364 93.1511 69.112 93.1511 70C93.1511 70.888 92.8431 71.636 92.2271 72.244ZM89.9831 72.136C90.5831 72.136 91.0871 71.932 91.4951 71.524C91.9031 71.116 92.1071 70.608 92.1071 70C92.1071 69.392 91.9031 68.884 91.4951 68.476C91.0871 68.068 90.5831 67.864 89.9831 67.864C89.3911 67.864 88.8911 68.068 88.4831 68.476C88.0751 68.884 87.8711 69.392 87.8711 70C87.8711 70.608 88.0751 71.116 88.4831 71.524C88.8911 71.932 89.3911 72.136 89.9831 72.136ZM97.6938 66.844C98.5338 66.844 99.2498 67.152 99.8418 67.768C100.434 68.376 100.73 69.12 100.73 70C100.73 70.88 100.434 71.628 99.8418 72.244C99.2498 72.852 98.5338 73.156 97.6938 73.156C96.7018 73.156 95.9458 72.76 95.4258 71.968V75.4H94.3818V67H95.4258V68.032C95.9458 67.24 96.7018 66.844 97.6938 66.844ZM97.5618 72.148C98.1618 72.148 98.6658 71.944 99.0738 71.536C99.4818 71.12 99.6858 70.608 99.6858 70C99.6858 69.392 99.4818 68.884 99.0738 68.476C98.6658 68.06 98.1618 67.852 97.5618 67.852C96.9538 67.852 96.4458 68.06 96.0378 68.476C95.6298 68.884 95.4258 69.392 95.4258 70C95.4258 70.608 95.6298 71.12 96.0378 71.536C96.4458 71.944 96.9538 72.148 97.5618 72.148ZM108.456 66.844C109.128 66.844 109.672 67.064 110.088 67.504C110.504 67.936 110.712 68.524 110.712 69.268V73H109.668V69.304C109.668 68.84 109.548 68.48 109.308 68.224C109.068 67.968 108.748 67.84 108.348 67.84C107.9 67.84 107.54 67.992 107.268 68.296C107.004 68.592 106.872 69.048 106.872 69.664V73H105.828V69.304C105.828 68.84 105.712 68.48 105.48 68.224C105.256 67.968 104.948 67.84 104.556 67.84C104.116 67.84 103.748 67.992 103.452 68.296C103.164 68.6 103.02 69.056 103.02 69.664V73H101.976V67H103.02V67.804C103.428 67.164 104.024 66.844 104.808 66.844C105.616 66.844 106.204 67.184 106.572 67.864C106.988 67.184 107.616 66.844 108.456 66.844ZM112.891 70.48C112.995 71.016 113.239 71.432 113.623 71.728C114.015 72.024 114.495 72.172 115.063 72.172C115.855 72.172 116.431 71.88 116.791 71.296L117.679 71.8C117.095 72.704 116.215 73.156 115.039 73.156C114.087 73.156 113.311 72.86 112.711 72.268C112.119 71.668 111.823 70.912 111.823 70C111.823 69.096 112.115 68.344 112.699 67.744C113.283 67.144 114.039 66.844 114.967 66.844C115.847 66.844 116.563 67.156 117.115 67.78C117.675 68.396 117.955 69.14 117.955 70.012C117.955 70.164 117.943 70.32 117.919 70.48H112.891ZM114.967 67.828C114.407 67.828 113.943 67.988 113.575 68.308C113.207 68.62 112.979 69.04 112.891 69.568H116.899C116.811 69 116.587 68.568 116.227 68.272C115.867 67.976 115.447 67.828 114.967 67.828ZM122.143 66.844C122.847 66.844 123.411 67.068 123.835 67.516C124.259 67.956 124.471 68.556 124.471 69.316V73H123.427V69.376C123.427 68.888 123.295 68.512 123.031 68.248C122.767 67.976 122.403 67.84 121.939 67.84C121.419 67.84 120.999 68.004 120.679 68.332C120.359 68.652 120.199 69.148 120.199 69.82V73H119.155V67H120.199V67.864C120.623 67.184 121.271 66.844 122.143 66.844ZM129.193 68.008H127.597V71.26C127.597 71.556 127.653 71.768 127.765 71.896C127.885 72.016 128.065 72.08 128.305 72.088C128.545 72.088 128.841 72.08 129.193 72.064V73C128.281 73.12 127.613 73.048 127.189 72.784C126.765 72.512 126.553 72.004 126.553 71.26V68.008H125.365V67H126.553V65.632L127.597 65.32V67H129.193V68.008ZM138.528 72.244C137.912 72.852 137.164 73.156 136.284 73.156C135.404 73.156 134.656 72.852 134.04 72.244C133.432 71.636 133.128 70.888 133.128 70C133.128 69.112 133.432 68.364 134.04 67.756C134.656 67.148 135.404 66.844 136.284 66.844C137.164 66.844 137.912 67.148 138.528 67.756C139.144 68.364 139.452 69.112 139.452 70C139.452 70.888 139.144 71.636 138.528 72.244ZM136.284 72.136C136.884 72.136 137.388 71.932 137.796 71.524C138.204 71.116 138.408 70.608 138.408 70C138.408 69.392 138.204 68.884 137.796 68.476C137.388 68.068 136.884 67.864 136.284 67.864C135.692 67.864 135.192 68.068 134.784 68.476C134.376 68.884 134.172 69.392 134.172 70C134.172 70.608 134.376 71.116 134.784 71.524C135.192 71.932 135.692 72.136 136.284 72.136ZM143.544 65.452C142.488 65.364 141.96 65.82 141.96 66.82V67H143.544V68.008H141.96V73H140.916V68.008H139.956V67H140.916V66.82C140.916 66.012 141.14 65.4 141.588 64.984C142.044 64.568 142.696 64.388 143.544 64.444V65.452ZM150.603 68.008H149.007V71.26C149.007 71.556 149.063 71.768 149.175 71.896C149.295 72.016 149.475 72.08 149.715 72.088C149.955 72.088 150.251 72.08 150.603 72.064V73C149.691 73.12 149.023 73.048 148.599 72.784C148.175 72.512 147.963 72.004 147.963 71.26V68.008H146.775V67H147.963V65.632L149.007 65.32V67H150.603V68.008ZM154.827 66.844C155.531 66.844 156.095 67.068 156.519 67.516C156.943 67.956 157.155 68.556 157.155 69.316V73H156.111V69.376C156.111 68.888 155.979 68.512 155.715 68.248C155.451 67.976 155.087 67.84 154.623 67.84C154.103 67.84 153.683 68.004 153.363 68.332C153.043 68.652 152.883 69.148 152.883 69.82V73H151.839V64.6H152.883V67.864C153.307 67.184 153.955 66.844 154.827 66.844ZM159.344 70.48C159.448 71.016 159.692 71.432 160.076 71.728C160.468 72.024 160.948 72.172 161.516 72.172C162.308 72.172 162.884 71.88 163.244 71.296L164.132 71.8C163.548 72.704 162.668 73.156 161.492 73.156C160.54 73.156 159.764 72.86 159.164 72.268C158.572 71.668 158.276 70.912 158.276 70C158.276 69.096 158.568 68.344 159.152 67.744C159.736 67.144 160.492 66.844 161.42 66.844C162.3 66.844 163.016 67.156 163.568 67.78C164.128 68.396 164.408 69.14 164.408 70.012C164.408 70.164 164.396 70.32 164.372 70.48H159.344ZM161.42 67.828C160.86 67.828 160.396 67.988 160.028 68.308C159.66 68.62 159.432 69.04 159.344 69.568H163.352C163.264 69 163.04 68.568 162.68 68.272C162.32 67.976 161.9 67.828 161.42 67.828ZM169.832 71.944H173.732V73H168.716V64.6H173.672V65.656H169.832V68.236H173.372V69.28H169.832V71.944ZM177.663 73.156C176.759 73.156 176.007 72.856 175.407 72.256C174.807 71.648 174.507 70.896 174.507 70C174.507 69.104 174.807 68.356 175.407 67.756C176.007 67.148 176.759 66.844 177.663 66.844C178.255 66.844 178.787 66.988 179.259 67.276C179.731 67.556 180.083 67.936 180.315 68.416L179.439 68.92C179.287 68.6 179.051 68.344 178.731 68.152C178.419 67.96 178.063 67.864 177.663 67.864C177.063 67.864 176.559 68.068 176.151 68.476C175.751 68.884 175.551 69.392 175.551 70C175.551 70.6 175.751 71.104 176.151 71.512C176.559 71.92 177.063 72.124 177.663 72.124C178.063 72.124 178.423 72.032 178.743 71.848C179.063 71.656 179.307 71.4 179.475 71.08L180.363 71.596C180.107 72.068 179.739 72.448 179.259 72.736C178.779 73.016 178.247 73.156 177.663 73.156ZM184.382 66.844C185.086 66.844 185.65 67.068 186.074 67.516C186.498 67.956 186.71 68.556 186.71 69.316V73H185.666V69.376C185.666 68.888 185.534 68.512 185.27 68.248C185.006 67.976 184.642 67.84 184.178 67.84C183.658 67.84 183.238 68.004 182.918 68.332C182.598 68.652 182.438 69.148 182.438 69.82V73H181.394V64.6H182.438V67.864C182.862 67.184 183.51 66.844 184.382 66.844ZM193.231 72.244C192.615 72.852 191.867 73.156 190.987 73.156C190.107 73.156 189.359 72.852 188.743 72.244C188.135 71.636 187.831 70.888 187.831 70C187.831 69.112 188.135 68.364 188.743 67.756C189.359 67.148 190.107 66.844 190.987 66.844C191.867 66.844 192.615 67.148 193.231 67.756C193.847 68.364 194.155 69.112 194.155 70C194.155 70.888 193.847 71.636 193.231 72.244ZM190.987 72.136C191.587 72.136 192.091 71.932 192.499 71.524C192.907 71.116 193.111 70.608 193.111 70C193.111 69.392 192.907 68.884 192.499 68.476C192.091 68.068 191.587 67.864 190.987 67.864C190.395 67.864 189.895 68.068 189.487 68.476C189.079 68.884 188.875 69.392 188.875 70C188.875 70.608 189.079 71.116 189.487 71.524C189.895 71.932 190.395 72.136 190.987 72.136ZM204.026 73L203.342 71.116H199.562L198.878 73H197.69L200.822 64.6H202.082L205.214 73H204.026ZM199.946 70.072H202.958L201.446 65.932L199.946 70.072ZM209.409 66.844C210.249 66.844 210.965 67.152 211.557 67.768C212.149 68.376 212.445 69.12 212.445 70C212.445 70.88 212.149 71.628 211.557 72.244C210.965 72.852 210.249 73.156 209.409 73.156C208.417 73.156 207.661 72.76 207.141 71.968V75.4H206.097V67H207.141V68.032C207.661 67.24 208.417 66.844 209.409 66.844ZM209.277 72.148C209.877 72.148 210.381 71.944 210.789 71.536C211.197 71.12 211.401 70.608 211.401 70C211.401 69.392 211.197 68.884 210.789 68.476C210.381 68.06 209.877 67.852 209.277 67.852C208.669 67.852 208.161 68.06 207.753 68.476C207.345 68.884 207.141 69.392 207.141 70C207.141 70.608 207.345 71.12 207.753 71.536C208.161 71.944 208.669 72.148 209.277 72.148ZM217.002 66.844C217.842 66.844 218.558 67.152 219.15 67.768C219.742 68.376 220.038 69.12 220.038 70C220.038 70.88 219.742 71.628 219.15 72.244C218.558 72.852 217.842 73.156 217.002 73.156C216.01 73.156 215.254 72.76 214.734 71.968V75.4H213.69V67H214.734V68.032C215.254 67.24 216.01 66.844 217.002 66.844ZM216.87 72.148C217.47 72.148 217.974 71.944 218.382 71.536C218.79 71.12 218.994 70.608 218.994 70C218.994 69.392 218.79 68.884 218.382 68.476C217.974 68.06 217.47 67.852 216.87 67.852C216.262 67.852 215.754 68.06 215.346 68.476C214.938 68.884 214.734 69.392 214.734 70C214.734 70.608 214.938 71.12 215.346 71.536C215.754 71.944 216.262 72.148 216.87 72.148ZM224.392 69.82V68.812H228.772V69.82H224.392ZM26.104 84.844C26.944 84.844 27.66 85.152 28.252 85.768C28.844 86.376 29.14 87.12 29.14 88C29.14 88.88 28.844 89.628 28.252 90.244C27.66 90.852 26.944 91.156 26.104 91.156C25.112 91.156 24.356 90.76 23.836 89.968V93.4H22.792V85H23.836V86.032C24.356 85.24 25.112 84.844 26.104 84.844ZM25.972 90.148C26.572 90.148 27.076 89.944 27.484 89.536C27.892 89.12 28.096 88.608 28.096 88C28.096 87.392 27.892 86.884 27.484 86.476C27.076 86.06 26.572 85.852 25.972 85.852C25.364 85.852 24.856 86.06 24.448 86.476C24.04 86.884 23.836 87.392 23.836 88C23.836 88.608 24.04 89.12 24.448 89.536C24.856 89.944 25.364 90.148 25.972 90.148ZM30.3857 91V82.24H31.4298V91H30.3857ZM37.9905 85H39.0345V91H37.9905V89.968C37.4705 90.76 36.7145 91.156 35.7225 91.156C34.8825 91.156 34.1665 90.852 33.5745 90.244C32.9825 89.628 32.6865 88.88 32.6865 88C32.6865 87.12 32.9825 86.376 33.5745 85.768C34.1665 85.152 34.8825 84.844 35.7225 84.844C36.7145 84.844 37.4705 85.24 37.9905 86.032V85ZM35.8545 90.148C36.4625 90.148 36.9705 89.944 37.3785 89.536C37.7865 89.12 37.9905 88.608 37.9905 88C37.9905 87.392 37.7865 86.884 37.3785 86.476C36.9705 86.06 36.4625 85.852 35.8545 85.852C35.2545 85.852 34.7505 86.06 34.3425 86.476C33.9345 86.884 33.7305 87.392 33.7305 88C33.7305 88.608 33.9345 89.12 34.3425 89.536C34.7505 89.944 35.2545 90.148 35.8545 90.148ZM44.8042 85H45.9202L43.4722 91.372C43.2162 92.052 42.8562 92.568 42.3922 92.92C41.9362 93.28 41.4082 93.44 40.8082 93.4V92.428C41.5442 92.484 42.0842 92.076 42.4282 91.204L42.5362 90.976L39.9202 85H41.0362L43.0762 89.704L44.8042 85ZM46.432 91V90.088L49.396 87.064C50.188 86.272 50.584 85.592 50.584 85.024C50.584 84.552 50.44 84.184 50.152 83.92C49.864 83.656 49.512 83.524 49.096 83.524C48.304 83.524 47.728 83.9 47.368 84.652L46.432 84.1C46.696 83.556 47.06 83.144 47.524 82.864C47.996 82.584 48.516 82.444 49.084 82.444C49.788 82.444 50.4 82.676 50.92 83.14C51.44 83.604 51.7 84.228 51.7 85.012C51.7 85.86 51.2 86.784 50.2 87.784L48.052 89.92H51.856V91H46.432ZM53.6178 88.48C53.7218 89.016 53.9658 89.432 54.3498 89.728C54.7418 90.024 55.2218 90.172 55.7898 90.172C56.5818 90.172 57.1578 89.88 57.5178 89.296L58.4058 89.8C57.8218 90.704 56.9418 91.156 55.7658 91.156C54.8138 91.156 54.0378 90.86 53.4378 90.268C52.8458 89.668 52.5498 88.912 52.5498 88C52.5498 87.096 52.8418 86.344 53.4258 85.744C54.0098 85.144 54.7658 84.844 55.6938 84.844C56.5738 84.844 57.2898 85.156 57.8418 85.78C58.4018 86.396 58.6818 87.14 58.6818 88.012C58.6818 88.164 58.6698 88.32 58.6458 88.48H53.6178ZM55.6938 85.828C55.1338 85.828 54.6698 85.988 54.3018 86.308C53.9338 86.62 53.7058 87.04 53.6178 87.568H57.6258C57.5378 87 57.3138 86.568 56.9538 86.272C56.5938 85.976 56.1738 85.828 55.6938 85.828ZM64.8381 85H65.8821V91H64.8381V89.968C64.3181 90.76 63.5621 91.156 62.5701 91.156C61.7301 91.156 61.0141 90.852 60.4221 90.244C59.8301 89.628 59.5341 88.88 59.5341 88C59.5341 87.12 59.8301 86.376 60.4221 85.768C61.0141 85.152 61.7301 84.844 62.5701 84.844C63.5621 84.844 64.3181 85.24 64.8381 86.032V85ZM62.7021 90.148C63.3101 90.148 63.8181 89.944 64.2261 89.536C64.6341 89.12 64.8381 88.608 64.8381 88C64.8381 87.392 64.6341 86.884 64.2261 86.476C63.8181 86.06 63.3101 85.852 62.7021 85.852C62.1021 85.852 61.5981 86.06 61.1901 86.476C60.7821 86.884 60.5781 87.392 60.5781 88C60.5781 88.608 60.7821 89.12 61.1901 89.536C61.5981 89.944 62.1021 90.148 62.7021 90.148ZM68.5079 86.008C68.8519 85.264 69.4759 84.892 70.3799 84.892V85.984C69.8679 85.96 69.4279 86.096 69.0599 86.392C68.6919 86.688 68.5079 87.164 68.5079 87.82V91H67.4639V85H68.5079V86.008ZM74.3894 84.844C75.0934 84.844 75.6574 85.068 76.0814 85.516C76.5054 85.956 76.7174 86.556 76.7174 87.316V91H75.6734V87.376C75.6734 86.888 75.5414 86.512 75.2774 86.248C75.0134 85.976 74.6494 85.84 74.1854 85.84C73.6654 85.84 73.2454 86.004 72.9254 86.332C72.6054 86.652 72.4454 87.148 72.4454 87.82V91H71.4014V85H72.4454V85.864C72.8694 85.184 73.5174 84.844 74.3894 84.844ZM86.1548 85H87.1868V90.748C87.1868 91.636 86.8868 92.324 86.2868 92.812C85.6868 93.308 84.9668 93.556 84.1268 93.556C83.4548 93.556 82.8748 93.428 82.3868 93.172C81.8988 92.924 81.5308 92.564 81.2828 92.092L82.1948 91.576C82.5228 92.248 83.1748 92.584 84.1508 92.584C84.7748 92.584 85.2628 92.42 85.6148 92.092C85.9748 91.764 86.1548 91.316 86.1548 90.748V89.896C85.6268 90.696 84.8748 91.096 83.8988 91.096C83.0428 91.096 82.3188 90.792 81.7268 90.184C81.1348 89.576 80.8388 88.836 80.8388 87.964C80.8388 87.092 81.1348 86.356 81.7268 85.756C82.3188 85.148 83.0428 84.844 83.8988 84.844C84.8828 84.844 85.6348 85.24 86.1548 86.032V85ZM82.4948 89.488C82.9028 89.896 83.4108 90.1 84.0188 90.1C84.6268 90.1 85.1348 89.896 85.5428 89.488C85.9508 89.08 86.1548 88.572 86.1548 87.964C86.1548 87.364 85.9508 86.86 85.5428 86.452C85.1348 86.044 84.6268 85.84 84.0188 85.84C83.4108 85.84 82.9028 86.044 82.4948 86.452C82.0868 86.86 81.8828 87.364 81.8828 87.964C81.8828 88.572 82.0868 89.08 82.4948 89.488ZM93.7366 85H94.7806V91H93.7366V89.968C93.2166 90.76 92.4606 91.156 91.4686 91.156C90.6286 91.156 89.9126 90.852 89.3206 90.244C88.7286 89.628 88.4326 88.88 88.4326 88C88.4326 87.12 88.7286 86.376 89.3206 85.768C89.9126 85.152 90.6286 84.844 91.4686 84.844C92.4606 84.844 93.2166 85.24 93.7366 86.032V85ZM91.6006 90.148C92.2086 90.148 92.7166 89.944 93.1246 89.536C93.5326 89.12 93.7366 88.608 93.7366 88C93.7366 87.392 93.5326 86.884 93.1246 86.476C92.7166 86.06 92.2086 85.852 91.6006 85.852C91.0006 85.852 90.4966 86.06 90.0886 86.476C89.6806 86.884 89.4766 87.392 89.4766 88C89.4766 88.608 89.6806 89.12 90.0886 89.536C90.4966 89.944 91.0006 90.148 91.6006 90.148ZM102.842 84.844C103.514 84.844 104.058 85.064 104.474 85.504C104.89 85.936 105.098 86.524 105.098 87.268V91H104.054V87.304C104.054 86.84 103.934 86.48 103.694 86.224C103.454 85.968 103.134 85.84 102.734 85.84C102.286 85.84 101.926 85.992 101.654 86.296C101.39 86.592 101.258 87.048 101.258 87.664V91H100.214V87.304C100.214 86.84 100.098 86.48 99.8663 86.224C99.6423 85.968 99.3343 85.84 98.9423 85.84C98.5023 85.84 98.1343 85.992 97.8383 86.296C97.5503 86.6 97.4063 87.056 97.4063 87.664V91H96.3623V85H97.4063V85.804C97.8143 85.164 98.4103 84.844 99.1943 84.844C100.002 84.844 100.59 85.184 100.958 85.864C101.374 85.184 102.002 84.844 102.842 84.844ZM107.074 83.908C106.874 83.908 106.706 83.84 106.57 83.704C106.434 83.568 106.366 83.404 106.366 83.212C106.366 83.02 106.434 82.856 106.57 82.72C106.706 82.576 106.874 82.504 107.074 82.504C107.266 82.504 107.43 82.576 107.566 82.72C107.702 82.856 107.77 83.02 107.77 83.212C107.77 83.404 107.702 83.568 107.566 83.704C107.43 83.84 107.266 83.908 107.074 83.908ZM106.546 91V85H107.59V91H106.546ZM112.171 84.844C112.875 84.844 113.439 85.068 113.863 85.516C114.287 85.956 114.499 86.556 114.499 87.316V91H113.455V87.376C113.455 86.888 113.323 86.512 113.059 86.248C112.795 85.976 112.431 85.84 111.967 85.84C111.447 85.84 111.027 86.004 110.707 86.332C110.387 86.652 110.227 87.148 110.227 87.82V91H109.183V85H110.227V85.864C110.651 85.184 111.299 84.844 112.171 84.844ZM120.936 85H121.968V90.748C121.968 91.636 121.668 92.324 121.068 92.812C120.468 93.308 119.748 93.556 118.908 93.556C118.236 93.556 117.656 93.428 117.168 93.172C116.68 92.924 116.312 92.564 116.064 92.092L116.976 91.576C117.304 92.248 117.956 92.584 118.932 92.584C119.556 92.584 120.044 92.42 120.396 92.092C120.756 91.764 120.936 91.316 120.936 90.748V89.896C120.408 90.696 119.656 91.096 118.68 91.096C117.824 91.096 117.1 90.792 116.508 90.184C115.916 89.576 115.62 88.836 115.62 87.964C115.62 87.092 115.916 86.356 116.508 85.756C117.1 85.148 117.824 84.844 118.68 84.844C119.664 84.844 120.416 85.24 120.936 86.032V85ZM117.276 89.488C117.684 89.896 118.192 90.1 118.8 90.1C119.408 90.1 119.916 89.896 120.324 89.488C120.732 89.08 120.936 88.572 120.936 87.964C120.936 87.364 120.732 86.86 120.324 86.452C119.916 86.044 119.408 85.84 118.8 85.84C118.192 85.84 117.684 86.044 117.276 86.452C116.868 86.86 116.664 87.364 116.664 87.964C116.664 88.572 116.868 89.08 117.276 89.488ZM129.862 84.844C130.702 84.844 131.418 85.152 132.01 85.768C132.602 86.376 132.898 87.12 132.898 88C132.898 88.88 132.602 89.628 132.01 90.244C131.418 90.852 130.702 91.156 129.862 91.156C128.87 91.156 128.114 90.76 127.594 89.968V93.4H126.55V85H127.594V86.032C128.114 85.24 128.87 84.844 129.862 84.844ZM129.73 90.148C130.33 90.148 130.834 89.944 131.242 89.536C131.65 89.12 131.854 88.608 131.854 88C131.854 87.392 131.65 86.884 131.242 86.476C130.834 86.06 130.33 85.852 129.73 85.852C129.122 85.852 128.614 86.06 128.206 86.476C127.798 86.884 127.594 87.392 127.594 88C127.594 88.608 127.798 89.12 128.206 89.536C128.614 89.944 129.122 90.148 129.73 90.148ZM134.144 91V82.24H135.188V91H134.144ZM141.748 85H142.792V91H141.748V89.968C141.228 90.76 140.472 91.156 139.48 91.156C138.64 91.156 137.924 90.852 137.332 90.244C136.74 89.628 136.444 88.88 136.444 88C136.444 87.12 136.74 86.376 137.332 85.768C137.924 85.152 138.64 84.844 139.48 84.844C140.472 84.844 141.228 85.24 141.748 86.032V85ZM139.612 90.148C140.22 90.148 140.728 89.944 141.136 89.536C141.544 89.12 141.748 88.608 141.748 88C141.748 87.392 141.544 86.884 141.136 86.476C140.728 86.06 140.22 85.852 139.612 85.852C139.012 85.852 138.508 86.06 138.1 86.476C137.692 86.884 137.488 87.392 137.488 88C137.488 88.608 137.692 89.12 138.1 89.536C138.508 89.944 139.012 90.148 139.612 90.148ZM147.638 86.008H146.042V89.26C146.042 89.556 146.098 89.768 146.21 89.896C146.33 90.016 146.51 90.08 146.75 90.088C146.99 90.088 147.286 90.08 147.638 90.064V91C146.726 91.12 146.058 91.048 145.634 90.784C145.21 90.512 144.998 90.004 144.998 89.26V86.008H143.81V85H144.998V83.632L146.042 83.32V85H147.638V86.008ZM151.653 83.452C150.597 83.364 150.069 83.82 150.069 84.82V85H151.653V86.008H150.069V91H149.025V86.008H148.065V85H149.025V84.82C149.025 84.012 149.249 83.4 149.697 82.984C150.153 82.568 150.805 82.388 151.653 82.444V83.452ZM157.184 90.244C156.568 90.852 155.82 91.156 154.94 91.156C154.06 91.156 153.312 90.852 152.696 90.244C152.088 89.636 151.784 88.888 151.784 88C151.784 87.112 152.088 86.364 152.696 85.756C153.312 85.148 154.06 84.844 154.94 84.844C155.82 84.844 156.568 85.148 157.184 85.756C157.8 86.364 158.108 87.112 158.108 88C158.108 88.888 157.8 89.636 157.184 90.244ZM154.94 90.136C155.54 90.136 156.044 89.932 156.452 89.524C156.86 89.116 157.064 88.608 157.064 88C157.064 87.392 156.86 86.884 156.452 86.476C156.044 86.068 155.54 85.864 154.94 85.864C154.348 85.864 153.848 86.068 153.44 86.476C153.032 86.884 152.828 87.392 152.828 88C152.828 88.608 153.032 89.116 153.44 89.524C153.848 89.932 154.348 90.136 154.94 90.136ZM160.383 86.008C160.727 85.264 161.351 84.892 162.255 84.892V85.984C161.743 85.96 161.303 86.096 160.935 86.392C160.567 86.688 160.383 87.164 160.383 87.82V91H159.339V85H160.383V86.008ZM169.756 84.844C170.428 84.844 170.972 85.064 171.388 85.504C171.804 85.936 172.012 86.524 172.012 87.268V91H170.968V87.304C170.968 86.84 170.848 86.48 170.608 86.224C170.368 85.968 170.048 85.84 169.648 85.84C169.2 85.84 168.84 85.992 168.568 86.296C168.304 86.592 168.172 87.048 168.172 87.664V91H167.128V87.304C167.128 86.84 167.012 86.48 166.78 86.224C166.556 85.968 166.248 85.84 165.856 85.84C165.416 85.84 165.048 85.992 164.752 86.296C164.464 86.6 164.32 87.056 164.32 87.664V91H163.276V85H164.32V85.804C164.728 85.164 165.324 84.844 166.108 84.844C166.916 84.844 167.504 85.184 167.872 85.864C168.288 85.184 168.916 84.844 169.756 84.844ZM174.12 91.132C173.904 91.132 173.72 91.056 173.568 90.904C173.416 90.752 173.34 90.568 173.34 90.352C173.34 90.136 173.416 89.952 173.568 89.8C173.72 89.648 173.904 89.572 174.12 89.572C174.344 89.572 174.528 89.648 174.672 89.8C174.824 89.952 174.9 90.136 174.9 90.352C174.9 90.568 174.824 90.752 174.672 90.904C174.528 91.056 174.344 91.132 174.12 91.132Z" fill="#1A1A1A"/>
<path d="M13.9581 114.748C13.7021 115.012 13.3861 115.144 13.0101 115.144C12.6341 115.144 12.3141 115.012 12.0501 114.748C11.7861 114.484 11.6541 114.164 11.6541 113.788C11.6541 113.412 11.7861 113.096 12.0501 112.84C12.3141 112.576 12.6341 112.444 13.0101 112.444C13.3861 112.444 13.7021 112.576 13.9581 112.84C14.2221 113.096 14.3541 113.412 14.3541 113.788C14.3541 114.164 14.2221 114.484 13.9581 114.748ZM24.016 116.944H27.64V118H22.9V109.6H24.016V116.944ZM33.385 112H34.429V118H33.385V116.968C32.865 117.76 32.109 118.156 31.117 118.156C30.277 118.156 29.561 117.852 28.969 117.244C28.377 116.628 28.081 115.88 28.081 115C28.081 114.12 28.377 113.376 28.969 112.768C29.561 112.152 30.277 111.844 31.117 111.844C32.109 111.844 32.865 112.24 33.385 113.032V112ZM31.249 117.148C31.857 117.148 32.365 116.944 32.773 116.536C33.181 116.12 33.385 115.608 33.385 115C33.385 114.392 33.181 113.884 32.773 113.476C32.365 113.06 31.857 112.852 31.249 112.852C30.649 112.852 30.145 113.06 29.737 113.476C29.329 113.884 29.125 114.392 29.125 115C29.125 115.608 29.329 116.12 29.737 116.536C30.145 116.944 30.649 117.148 31.249 117.148ZM40.1508 112H41.1948V118H40.1508V117.136C39.7268 117.816 39.0788 118.156 38.2068 118.156C37.5028 118.156 36.9388 117.936 36.5148 117.496C36.0908 117.048 35.8788 116.444 35.8788 115.684V112H36.9228V115.624C36.9228 116.112 37.0548 116.492 37.3188 116.764C37.5828 117.028 37.9468 117.16 38.4108 117.16C38.9308 117.16 39.3508 117 39.6708 116.68C39.9908 116.352 40.1508 115.852 40.1508 115.18V112ZM45.7722 111.844C46.4762 111.844 47.0402 112.068 47.4642 112.516C47.8882 112.956 48.1002 113.556 48.1002 114.316V118H47.0562V114.376C47.0562 113.888 46.9242 113.512 46.6602 113.248C46.3962 112.976 46.0322 112.84 45.5682 112.84C45.0482 112.84 44.6282 113.004 44.3082 113.332C43.9882 113.652 43.8282 114.148 43.8282 114.82V118H42.7842V112H43.8282V112.864C44.2522 112.184 44.9002 111.844 45.7722 111.844ZM52.3776 118.156C51.4736 118.156 50.7216 117.856 50.1216 117.256C49.5216 116.648 49.2216 115.896 49.2216 115C49.2216 114.104 49.5216 113.356 50.1216 112.756C50.7216 112.148 51.4736 111.844 52.3776 111.844C52.9696 111.844 53.5016 111.988 53.9736 112.276C54.4456 112.556 54.7976 112.936 55.0296 113.416L54.1536 113.92C54.0016 113.6 53.7656 113.344 53.4456 113.152C53.1336 112.96 52.7776 112.864 52.3776 112.864C51.7776 112.864 51.2736 113.068 50.8656 113.476C50.4656 113.884 50.2656 114.392 50.2656 115C50.2656 115.6 50.4656 116.104 50.8656 116.512C51.2736 116.92 51.7776 117.124 52.3776 117.124C52.7776 117.124 53.1376 117.032 53.4576 116.848C53.7776 116.656 54.0216 116.4 54.1896 116.08L55.0776 116.596C54.8216 117.068 54.4536 117.448 53.9736 117.736C53.4936 118.016 52.9616 118.156 52.3776 118.156ZM59.0964 111.844C59.8004 111.844 60.3644 112.068 60.7884 112.516C61.2124 112.956 61.4244 113.556 61.4244 114.316V118H60.3804V114.376C60.3804 113.888 60.2484 113.512 59.9844 113.248C59.7204 112.976 59.3564 112.84 58.8924 112.84C58.3724 112.84 57.9524 113.004 57.6324 113.332C57.3124 113.652 57.1524 114.148 57.1524 114.82V118H56.1084V109.6H57.1524V112.864C57.5764 112.184 58.2244 111.844 59.0964 111.844ZM69.1458 113.008H67.5498V116.26C67.5498 116.556 67.6058 116.768 67.7178 116.896C67.8378 117.016 68.0178 117.08 68.2578 117.088C68.4978 117.088 68.7938 117.08 69.1458 117.064V118C68.2338 118.12 67.5658 118.048 67.1418 117.784C66.7178 117.512 66.5058 117.004 66.5058 116.26V113.008H65.3178V112H66.5058V110.632L67.5498 110.32V112H69.1458V113.008ZM73.3698 111.844C74.0738 111.844 74.6378 112.068 75.0618 112.516C75.4858 112.956 75.6978 113.556 75.6978 114.316V118H74.6538V114.376C74.6538 113.888 74.5218 113.512 74.2578 113.248C73.9938 112.976 73.6298 112.84 73.1658 112.84C72.6458 112.84 72.2258 113.004 71.9058 113.332C71.5858 113.652 71.4258 114.148 71.4258 114.82V118H70.3818V109.6H71.4258V112.864C71.8498 112.184 72.4978 111.844 73.3698 111.844ZM77.8873 115.48C77.9913 116.016 78.2353 116.432 78.6193 116.728C79.0113 117.024 79.4913 117.172 80.0593 117.172C80.8513 117.172 81.4273 116.88 81.7873 116.296L82.6753 116.8C82.0913 117.704 81.2113 118.156 80.0353 118.156C79.0833 118.156 78.3073 117.86 77.7073 117.268C77.1153 116.668 76.8193 115.912 76.8193 115C76.8193 114.096 77.1113 113.344 77.6953 112.744C78.2793 112.144 79.0353 111.844 79.9633 111.844C80.8433 111.844 81.5593 112.156 82.1113 112.78C82.6713 113.396 82.9513 114.14 82.9513 115.012C82.9513 115.164 82.9393 115.32 82.9153 115.48H77.8873ZM79.9633 112.828C79.4033 112.828 78.9393 112.988 78.5713 113.308C78.2033 113.62 77.9753 114.04 77.8873 114.568H81.8953C81.8073 114 81.5833 113.568 81.2233 113.272C80.8633 112.976 80.4433 112.828 79.9633 112.828ZM88.3754 116.944H92.2754V118H87.2594V109.6H92.2154V110.656H88.3754V113.236H91.9154V114.28H88.3754V116.944ZM96.2058 118.156C95.3018 118.156 94.5498 117.856 93.9498 117.256C93.3498 116.648 93.0498 115.896 93.0498 115C93.0498 114.104 93.3498 113.356 93.9498 112.756C94.5498 112.148 95.3018 111.844 96.2058 111.844C96.7978 111.844 97.3298 111.988 97.8018 112.276C98.2738 112.556 98.6258 112.936 98.8578 113.416L97.9818 113.92C97.8298 113.6 97.5938 113.344 97.2738 113.152C96.9618 112.96 96.6058 112.864 96.2058 112.864C95.6058 112.864 95.1018 113.068 94.6938 113.476C94.2938 113.884 94.0938 114.392 94.0938 115C94.0938 115.6 94.2938 116.104 94.6938 116.512C95.1018 116.92 95.6058 117.124 96.2058 117.124C96.6058 117.124 96.9658 117.032 97.2858 116.848C97.6058 116.656 97.8498 116.4 98.0178 116.08L98.9058 116.596C98.6498 117.068 98.2818 117.448 97.8018 117.736C97.3218 118.016 96.7898 118.156 96.2058 118.156ZM102.925 111.844C103.629 111.844 104.193 112.068 104.617 112.516C105.041 112.956 105.253 113.556 105.253 114.316V118H104.209V114.376C104.209 113.888 104.077 113.512 103.813 113.248C103.549 112.976 103.185 112.84 102.721 112.84C102.201 112.84 101.781 113.004 101.461 113.332C101.141 113.652 100.981 114.148 100.981 114.82V118H99.9365V109.6H100.981V112.864C101.405 112.184 102.053 111.844 102.925 111.844ZM111.774 117.244C111.158 117.852 110.41 118.156 109.53 118.156C108.65 118.156 107.902 117.852 107.286 117.244C106.678 116.636 106.374 115.888 106.374 115C106.374 114.112 106.678 113.364 107.286 112.756C107.902 112.148 108.65 111.844 109.53 111.844C110.41 111.844 111.158 112.148 111.774 112.756C112.39 113.364 112.698 114.112 112.698 115C112.698 115.888 112.39 116.636 111.774 117.244ZM109.53 117.136C110.13 117.136 110.634 116.932 111.042 116.524C111.45 116.116 111.654 115.608 111.654 115C111.654 114.392 111.45 113.884 111.042 113.476C110.634 113.068 110.13 112.864 109.53 112.864C108.938 112.864 108.438 113.068 108.03 113.476C107.622 113.884 107.418 114.392 107.418 115C107.418 115.608 107.622 116.116 108.03 116.524C108.438 116.932 108.938 117.136 109.53 117.136ZM120.313 109.6C121.457 109.6 122.405 110.008 123.157 110.824C123.917 111.632 124.297 112.624 124.297 113.8C124.297 114.976 123.917 115.972 123.157 116.788C122.405 117.596 121.457 118 120.313 118H117.037V109.6H120.313ZM120.313 116.944C121.169 116.944 121.869 116.644 122.413 116.044C122.957 115.444 123.229 114.696 123.229 113.8C123.229 112.904 122.957 112.156 122.413 111.556C121.869 110.956 121.169 110.656 120.313 110.656H118.153V116.944H120.313ZM130.877 118L130.193 116.116H126.413L125.729 118H124.541L127.673 109.6H128.933L132.065 118H130.877ZM126.797 115.072H129.809L128.297 110.932L126.797 115.072ZM139.736 116.884C138.896 117.732 137.868 118.156 136.652 118.156C135.436 118.156 134.408 117.732 133.568 116.884C132.728 116.036 132.308 115.008 132.308 113.8C132.308 112.584 132.728 111.556 133.568 110.716C134.408 109.868 135.436 109.444 136.652 109.444C137.868 109.444 138.896 109.868 139.736 110.716C140.584 111.556 141.008 112.584 141.008 113.8C141.008 115.008 140.584 116.036 139.736 116.884ZM134.336 116.128C134.96 116.752 135.732 117.064 136.652 117.064C137.572 117.064 138.34 116.752 138.956 116.128C139.58 115.496 139.892 114.72 139.892 113.8C139.892 112.872 139.58 112.096 138.956 111.472C138.34 110.84 137.572 110.524 136.652 110.524C135.732 110.524 134.96 110.84 134.336 111.472C133.72 112.096 133.412 112.872 133.412 113.8C133.412 114.72 133.72 115.496 134.336 116.128ZM142.292 118.132C142.076 118.132 141.892 118.056 141.74 117.904C141.588 117.752 141.512 117.568 141.512 117.352C141.512 117.136 141.588 116.952 141.74 116.8C141.892 116.648 142.076 116.572 142.292 116.572C142.516 116.572 142.7 116.648 142.844 116.8C142.996 116.952 143.072 117.136 143.072 117.352C143.072 117.568 142.996 117.752 142.844 117.904C142.7 118.056 142.516 118.132 142.292 118.132Z" fill="#1A1A1A"/>
<path d="M13.9581 141.748C13.7021 142.012 13.3861 142.144 13.0101 142.144C12.6341 142.144 12.3141 142.012 12.0501 141.748C11.7861 141.484 11.6541 141.164 11.6541 140.788C11.6541 140.412 11.7861 140.096 12.0501 139.84C12.3141 139.576 12.6341 139.444 13.0101 139.444C13.3861 139.444 13.7021 139.576 13.9581 139.84C14.2221 140.096 14.3541 140.412 14.3541 140.788C14.3541 141.164 14.2221 141.484 13.9581 141.748ZM30.76 136.6V145H29.656V138.436L26.908 143.008H26.764L24.016 138.448V145H22.9V136.6H24.16L26.836 141.04L29.5 136.6H30.76ZM37.4163 139H38.4603V145H37.4163V143.968C36.8963 144.76 36.1403 145.156 35.1483 145.156C34.3083 145.156 33.5923 144.852 33.0003 144.244C32.4083 143.628 32.1123 142.88 32.1123 142C32.1123 141.12 32.4083 140.376 33.0003 139.768C33.5923 139.152 34.3083 138.844 35.1483 138.844C36.1403 138.844 36.8963 139.24 37.4163 140.032V139ZM35.2803 144.148C35.8883 144.148 36.3963 143.944 36.8043 143.536C37.2123 143.12 37.4163 142.608 37.4163 142C37.4163 141.392 37.2123 140.884 36.8043 140.476C36.3963 140.06 35.8883 139.852 35.2803 139.852C34.6803 139.852 34.1763 140.06 33.7683 140.476C33.3603 140.884 33.1562 141.392 33.1562 142C33.1562 142.608 33.3603 143.12 33.7683 143.536C34.1763 143.944 34.6803 144.148 35.2803 144.148ZM45.118 145H43.822L41.086 142.156V145H40.042V136.6H41.086V141.652L43.678 139H45.022L42.154 141.904L45.118 145ZM46.2701 142.48C46.3741 143.016 46.6181 143.432 47.0021 143.728C47.3941 144.024 47.8741 144.172 48.4421 144.172C49.2341 144.172 49.8101 143.88 50.1701 143.296L51.0581 143.8C50.4741 144.704 49.5941 145.156 48.4181 145.156C47.4661 145.156 46.6901 144.86 46.0901 144.268C45.4981 143.668 45.2021 142.912 45.2021 142C45.2021 141.096 45.4941 140.344 46.0781 139.744C46.6621 139.144 47.4181 138.844 48.3461 138.844C49.2261 138.844 49.9421 139.156 50.4941 139.78C51.0541 140.396 51.3341 141.14 51.3341 142.012C51.3341 142.164 51.3221 142.32 51.2981 142.48H46.2701ZM48.3461 139.828C47.7861 139.828 47.3221 139.988 46.9541 140.308C46.5861 140.62 46.3581 141.04 46.2701 141.568H50.2781C50.1901 141 49.9661 140.568 49.6061 140.272C49.2461 139.976 48.8261 139.828 48.3461 139.828ZM60.2982 139V145H59.2542V140.008H57.0342V145H55.9902V140.008H55.0302V139H55.9902V138.82C55.9902 137.236 56.8662 136.444 58.6182 136.444C58.9462 136.444 59.3582 136.496 59.8542 136.6V137.548C59.3662 137.484 58.9542 137.452 58.6182 137.452C58.0742 137.452 57.6742 137.556 57.4182 137.764C57.1622 137.964 57.0342 138.316 57.0342 138.82V139H60.2982ZM62.9415 140.008C63.2855 139.264 63.9095 138.892 64.8135 138.892V139.984C64.3015 139.96 63.8615 140.096 63.4935 140.392C63.1255 140.688 62.9415 141.164 62.9415 141.82V145H61.8975V139H62.9415V140.008ZM66.5123 140.62C66.5123 140.852 66.6283 141.04 66.8603 141.184C67.0923 141.32 67.3723 141.432 67.7003 141.52C68.0283 141.6 68.3563 141.696 68.6843 141.808C69.0123 141.912 69.2923 142.096 69.5243 142.36C69.7563 142.616 69.8723 142.948 69.8723 143.356C69.8723 143.9 69.6603 144.336 69.2363 144.664C68.8203 144.992 68.2843 145.156 67.6283 145.156C67.0443 145.156 66.5443 145.028 66.1283 144.772C65.7123 144.516 65.4163 144.176 65.2403 143.752L66.1403 143.236C66.2363 143.524 66.4163 143.752 66.6803 143.92C66.9443 144.088 67.2603 144.172 67.6283 144.172C67.9723 144.172 68.2563 144.108 68.4803 143.98C68.7043 143.844 68.8163 143.636 68.8163 143.356C68.8163 143.124 68.7003 142.94 68.4683 142.804C68.2363 142.66 67.9563 142.548 67.6283 142.468C67.3003 142.38 66.9723 142.28 66.6443 142.168C66.3163 142.056 66.0363 141.872 65.8043 141.616C65.5723 141.36 65.4563 141.032 65.4563 140.632C65.4563 140.112 65.6563 139.684 66.0563 139.348C66.4643 139.012 66.9723 138.844 67.5803 138.844C68.0683 138.844 68.5003 138.956 68.8763 139.18C69.2603 139.396 69.5483 139.7 69.7403 140.092L68.8643 140.584C68.6483 140.072 68.2203 139.816 67.5803 139.816C67.2843 139.816 67.0323 139.888 66.8243 140.032C66.6163 140.168 66.5123 140.364 66.5123 140.62ZM74.138 140.008H72.542V143.26C72.542 143.556 72.598 143.768 72.71 143.896C72.83 144.016 73.01 144.08 73.25 144.088C73.49 144.088 73.786 144.08 74.138 144.064V145C73.226 145.12 72.558 145.048 72.134 144.784C71.71 144.512 71.498 144.004 71.498 143.26V140.008H70.31V139H71.498V137.632L72.542 137.32V139H74.138V140.008ZM83.1732 139V145H82.1292V140.008H79.9092V145H78.8652V140.008H77.9052V139H78.8652V138.82C78.8652 137.236 79.7412 136.444 81.4932 136.444C81.8212 136.444 82.2332 136.496 82.7292 136.6V137.548C82.2412 137.484 81.8292 137.452 81.4932 137.452C80.9492 137.452 80.5492 137.556 80.2932 137.764C80.0372 137.964 79.9092 138.316 79.9092 138.82V139H83.1732ZM87.7605 138.844C88.4645 138.844 89.0285 139.068 89.4525 139.516C89.8765 139.956 90.0885 140.556 90.0885 141.316V145H89.0445V141.376C89.0445 140.888 88.9125 140.512 88.6485 140.248C88.3845 139.976 88.0205 139.84 87.5565 139.84C87.0365 139.84 86.6165 140.004 86.2965 140.332C85.9765 140.652 85.8165 141.148 85.8165 141.82V145H84.7725V139H85.8165V139.864C86.2405 139.184 86.8885 138.844 87.7605 138.844ZM96.5139 139H97.5579V145H96.5139V143.968C95.9939 144.76 95.2379 145.156 94.2459 145.156C93.4059 145.156 92.6899 144.852 92.0979 144.244C91.5059 143.628 91.2099 142.88 91.2099 142C91.2099 141.12 91.5059 140.376 92.0979 139.768C92.6899 139.152 93.4059 138.844 94.2459 138.844C95.2379 138.844 95.9939 139.24 96.5139 140.032V139ZM94.3779 144.148C94.9859 144.148 95.4939 143.944 95.9019 143.536C96.3099 143.12 96.5139 142.608 96.5139 142C96.5139 141.392 96.3099 140.884 95.9019 140.476C95.4939 140.06 94.9859 139.852 94.3779 139.852C93.7779 139.852 93.2739 140.06 92.8659 140.476C92.4579 140.884 92.2539 141.392 92.2539 142C92.2539 142.608 92.4579 143.12 92.8659 143.536C93.2739 143.944 93.7779 144.148 94.3779 144.148ZM102.128 138.844C102.832 138.844 103.396 139.068 103.82 139.516C104.244 139.956 104.456 140.556 104.456 141.316V145H103.412V141.376C103.412 140.888 103.28 140.512 103.016 140.248C102.752 139.976 102.388 139.84 101.924 139.84C101.404 139.84 100.984 140.004 100.664 140.332C100.344 140.652 100.184 141.148 100.184 141.82V145H99.1397V139H100.184V139.864C100.608 139.184 101.256 138.844 102.128 138.844ZM108.733 145.156C107.829 145.156 107.077 144.856 106.477 144.256C105.877 143.648 105.577 142.896 105.577 142C105.577 141.104 105.877 140.356 106.477 139.756C107.077 139.148 107.829 138.844 108.733 138.844C109.325 138.844 109.857 138.988 110.329 139.276C110.801 139.556 111.153 139.936 111.385 140.416L110.509 140.92C110.357 140.6 110.121 140.344 109.801 140.152C109.489 139.96 109.133 139.864 108.733 139.864C108.133 139.864 107.629 140.068 107.221 140.476C106.821 140.884 106.621 141.392 106.621 142C106.621 142.6 106.821 143.104 107.221 143.512C107.629 143.92 108.133 144.124 108.733 144.124C109.133 144.124 109.493 144.032 109.813 143.848C110.133 143.656 110.377 143.4 110.545 143.08L111.433 143.596C111.177 144.068 110.809 144.448 110.329 144.736C109.849 145.016 109.317 145.156 108.733 145.156ZM112.992 137.908C112.792 137.908 112.624 137.84 112.488 137.704C112.352 137.568 112.284 137.404 112.284 137.212C112.284 137.02 112.352 136.856 112.488 136.72C112.624 136.576 112.792 136.504 112.992 136.504C113.184 136.504 113.348 136.576 113.484 136.72C113.62 136.856 113.688 137.02 113.688 137.212C113.688 137.404 113.62 137.568 113.484 137.704C113.348 137.84 113.184 137.908 112.992 137.908ZM112.464 145V139H113.508V145H112.464ZM120.069 139H121.113V145H120.069V143.968C119.549 144.76 118.793 145.156 117.801 145.156C116.961 145.156 116.245 144.852 115.653 144.244C115.061 143.628 114.765 142.88 114.765 142C114.765 141.12 115.061 140.376 115.653 139.768C116.245 139.152 116.961 138.844 117.801 138.844C118.793 138.844 119.549 139.24 120.069 140.032V139ZM117.933 144.148C118.541 144.148 119.049 143.944 119.457 143.536C119.865 143.12 120.069 142.608 120.069 142C120.069 141.392 119.865 140.884 119.457 140.476C119.049 140.06 118.541 139.852 117.933 139.852C117.333 139.852 116.829 140.06 116.421 140.476C116.013 140.884 115.809 141.392 115.809 142C115.809 142.608 116.013 143.12 116.421 143.536C116.829 143.944 117.333 144.148 117.933 144.148ZM122.694 145V136.24H123.738V145H122.694ZM133.299 139H134.343V145H133.299V143.968C132.779 144.76 132.023 145.156 131.031 145.156C130.191 145.156 129.475 144.852 128.883 144.244C128.291 143.628 127.995 142.88 127.995 142C127.995 141.12 128.291 140.376 128.883 139.768C129.475 139.152 130.191 138.844 131.031 138.844C132.023 138.844 132.779 139.24 133.299 140.032V139ZM131.163 144.148C131.771 144.148 132.279 143.944 132.687 143.536C133.095 143.12 133.299 142.608 133.299 142C133.299 141.392 133.095 140.884 132.687 140.476C132.279 140.06 131.771 139.852 131.163 139.852C130.563 139.852 130.059 140.06 129.651 140.476C129.243 140.884 129.039 141.392 129.039 142C129.039 142.608 129.243 143.12 129.651 143.536C130.059 143.944 130.563 144.148 131.163 144.148ZM135.925 145V136.24H136.969V145H135.925ZM138.562 145V136.24H139.606V145H138.562ZM146.262 144.244C145.646 144.852 144.898 145.156 144.018 145.156C143.138 145.156 142.39 144.852 141.774 144.244C141.166 143.636 140.862 142.888 140.862 142C140.862 141.112 141.166 140.364 141.774 139.756C142.39 139.148 143.138 138.844 144.018 138.844C144.898 138.844 145.646 139.148 146.262 139.756C146.878 140.364 147.186 141.112 147.186 142C147.186 142.888 146.878 143.636 146.262 144.244ZM144.018 144.136C144.618 144.136 145.122 143.932 145.53 143.524C145.938 143.116 146.142 142.608 146.142 142C146.142 141.392 145.938 140.884 145.53 140.476C145.122 140.068 144.618 139.864 144.018 139.864C143.426 139.864 142.926 140.068 142.518 140.476C142.11 140.884 141.906 141.392 141.906 142C141.906 142.608 142.11 143.116 142.518 143.524C142.926 143.932 143.426 144.136 144.018 144.136ZM151.237 145.156C150.333 145.156 149.581 144.856 148.981 144.256C148.381 143.648 148.081 142.896 148.081 142C148.081 141.104 148.381 140.356 148.981 139.756C149.581 139.148 150.333 138.844 151.237 138.844C151.829 138.844 152.361 138.988 152.833 139.276C153.305 139.556 153.657 139.936 153.889 140.416L153.013 140.92C152.861 140.6 152.625 140.344 152.305 140.152C151.993 139.96 151.637 139.864 151.237 139.864C150.637 139.864 150.133 140.068 149.725 140.476C149.325 140.884 149.125 141.392 149.125 142C149.125 142.6 149.325 143.104 149.725 143.512C150.133 143.92 150.637 144.124 151.237 144.124C151.637 144.124 151.997 144.032 152.317 143.848C152.637 143.656 152.881 143.4 153.049 143.08L153.937 143.596C153.681 144.068 153.313 144.448 152.833 144.736C152.353 145.016 151.821 145.156 151.237 145.156ZM159.854 139H160.898V145H159.854V143.968C159.334 144.76 158.578 145.156 157.586 145.156C156.746 145.156 156.03 144.852 155.438 144.244C154.846 143.628 154.55 142.88 154.55 142C154.55 141.12 154.846 140.376 155.438 139.768C156.03 139.152 156.746 138.844 157.586 138.844C158.578 138.844 159.334 139.24 159.854 140.032V139ZM157.718 144.148C158.326 144.148 158.834 143.944 159.242 143.536C159.65 143.12 159.854 142.608 159.854 142C159.854 141.392 159.65 140.884 159.242 140.476C158.834 140.06 158.326 139.852 157.718 139.852C157.118 139.852 156.614 140.06 156.206 140.476C155.798 140.884 155.594 141.392 155.594 142C155.594 142.608 155.798 143.12 156.206 143.536C156.614 143.944 157.118 144.148 157.718 144.148ZM165.744 140.008H164.148V143.26C164.148 143.556 164.204 143.768 164.316 143.896C164.436 144.016 164.616 144.08 164.855 144.088C165.095 144.088 165.392 144.08 165.744 144.064V145C164.832 145.12 164.164 145.048 163.74 144.784C163.316 144.512 163.104 144.004 163.104 143.26V140.008H161.916V139H163.104V137.632L164.148 137.32V139H165.744V140.008ZM167.508 137.908C167.308 137.908 167.14 137.84 167.004 137.704C166.868 137.568 166.8 137.404 166.8 137.212C166.8 137.02 166.868 136.856 167.004 136.72C167.14 136.576 167.308 136.504 167.508 136.504C167.7 136.504 167.864 136.576 168 136.72C168.136 136.856 168.204 137.02 168.204 137.212C168.204 137.404 168.136 137.568 168 137.704C167.864 137.84 167.7 137.908 167.508 137.908ZM166.979 145V139H168.024V145H166.979ZM174.68 144.244C174.064 144.852 173.316 145.156 172.436 145.156C171.556 145.156 170.808 144.852 170.192 144.244C169.584 143.636 169.28 142.888 169.28 142C169.28 141.112 169.584 140.364 170.192 139.756C170.808 139.148 171.556 138.844 172.436 138.844C173.316 138.844 174.064 139.148 174.68 139.756C175.296 140.364 175.604 141.112 175.604 142C175.604 142.888 175.296 143.636 174.68 144.244ZM172.436 144.136C173.036 144.136 173.54 143.932 173.948 143.524C174.356 143.116 174.56 142.608 174.56 142C174.56 141.392 174.356 140.884 173.948 140.476C173.54 140.068 173.036 139.864 172.436 139.864C171.844 139.864 171.344 140.068 170.936 140.476C170.528 140.884 170.324 141.392 170.324 142C170.324 142.608 170.528 143.116 170.936 143.524C171.344 143.932 171.844 144.136 172.436 144.136ZM179.823 138.844C180.527 138.844 181.091 139.068 181.515 139.516C181.939 139.956 182.151 140.556 182.151 141.316V145H181.107V141.376C181.107 140.888 180.975 140.512 180.711 140.248C180.447 139.976 180.083 139.84 179.619 139.84C179.099 139.84 178.679 140.004 178.359 140.332C178.039 140.652 177.879 141.148 177.879 141.82V145H176.835V139H177.879V139.864C178.303 139.184 178.951 138.844 179.823 138.844ZM191.672 144.244C191.056 144.852 190.308 145.156 189.428 145.156C188.548 145.156 187.8 144.852 187.184 144.244C186.576 143.636 186.272 142.888 186.272 142C186.272 141.112 186.576 140.364 187.184 139.756C187.8 139.148 188.548 138.844 189.428 138.844C190.308 138.844 191.056 139.148 191.672 139.756C192.288 140.364 192.596 141.112 192.596 142C192.596 142.888 192.288 143.636 191.672 144.244ZM189.428 144.136C190.028 144.136 190.532 143.932 190.94 143.524C191.348 143.116 191.552 142.608 191.552 142C191.552 141.392 191.348 140.884 190.94 140.476C190.532 140.068 190.028 139.864 189.428 139.864C188.836 139.864 188.336 140.068 187.928 140.476C187.52 140.884 187.316 141.392 187.316 142C187.316 142.608 187.52 143.116 187.928 143.524C188.336 143.932 188.836 144.136 189.428 144.136ZM196.689 137.452C195.633 137.364 195.105 137.82 195.105 138.82V139H196.689V140.008H195.105V145H194.061V140.008H193.101V139H194.061V138.82C194.061 138.012 194.285 137.4 194.733 136.984C195.189 136.568 195.841 136.388 196.689 136.444V137.452ZM203.567 137.452C202.511 137.364 201.983 137.82 201.983 138.82V139H203.567V140.008H201.983V145H200.939V140.008H199.979V139H200.939V138.82C200.939 138.012 201.163 137.4 201.611 136.984C202.067 136.568 202.719 136.388 203.567 136.444V137.452ZM208.502 139H209.546V145H208.502V144.136C208.078 144.816 207.43 145.156 206.558 145.156C205.854 145.156 205.29 144.936 204.866 144.496C204.442 144.048 204.23 143.444 204.23 142.684V139H205.274V142.624C205.274 143.112 205.406 143.492 205.67 143.764C205.934 144.028 206.298 144.16 206.762 144.16C207.282 144.16 207.702 144 208.022 143.68C208.342 143.352 208.502 142.852 208.502 142.18V139ZM214.124 138.844C214.828 138.844 215.392 139.068 215.816 139.516C216.24 139.956 216.452 140.556 216.452 141.316V145H215.408V141.376C215.408 140.888 215.276 140.512 215.012 140.248C214.748 139.976 214.384 139.84 213.92 139.84C213.4 139.84 212.98 140.004 212.66 140.332C212.34 140.652 212.18 141.148 212.18 141.82V145H211.136V139H212.18V139.864C212.604 139.184 213.252 138.844 214.124 138.844ZM222.877 136.6H223.921V145H222.877V143.968C222.357 144.76 221.601 145.156 220.609 145.156C219.769 145.156 219.053 144.852 218.461 144.244C217.869 143.628 217.573 142.88 217.573 142C217.573 141.12 217.869 140.376 218.461 139.768C219.053 139.152 219.769 138.844 220.609 138.844C221.601 138.844 222.357 139.24 222.877 140.032V136.6ZM220.741 144.148C221.349 144.148 221.857 143.944 222.265 143.536C222.673 143.12 222.877 142.608 222.877 142C222.877 141.392 222.673 140.884 222.265 140.476C221.857 140.06 221.349 139.852 220.741 139.852C220.141 139.852 219.637 140.06 219.229 140.476C218.821 140.884 218.617 141.392 218.617 142C218.617 142.608 218.821 143.12 219.229 143.536C219.637 143.944 220.141 144.148 220.741 144.148ZM226.391 140.62C226.391 140.852 226.507 141.04 226.739 141.184C226.971 141.32 227.251 141.432 227.579 141.52C227.907 141.6 228.235 141.696 228.563 141.808C228.891 141.912 229.171 142.096 229.403 142.36C229.635 142.616 229.751 142.948 229.751 143.356C229.751 143.9 229.539 144.336 229.115 144.664C228.699 144.992 228.163 145.156 227.507 145.156C226.923 145.156 226.423 145.028 226.007 144.772C225.591 144.516 225.295 144.176 225.119 143.752L226.019 143.236C226.115 143.524 226.295 143.752 226.559 143.92C226.823 144.088 227.139 144.172 227.507 144.172C227.851 144.172 228.135 144.108 228.359 143.98C228.583 143.844 228.695 143.636 228.695 143.356C228.695 143.124 228.579 142.94 228.347 142.804C228.115 142.66 227.835 142.548 227.507 142.468C227.179 142.38 226.851 142.28 226.523 142.168C226.195 142.056 225.915 141.872 225.683 141.616C225.451 141.36 225.335 141.032 225.335 140.632C225.335 140.112 225.535 139.684 225.935 139.348C226.343 139.012 226.851 138.844 227.459 138.844C227.947 138.844 228.379 138.956 228.755 139.18C229.139 139.396 229.427 139.7 229.619 140.092L228.743 140.584C228.527 140.072 228.099 139.816 227.459 139.816C227.163 139.816 226.911 139.888 226.703 140.032C226.495 140.168 226.391 140.364 226.391 140.62ZM27.76 154.6H28.804V163H27.76V161.968C27.24 162.76 26.484 163.156 25.492 163.156C24.652 163.156 23.936 162.852 23.344 162.244C22.752 161.628 22.456 160.88 22.456 160C22.456 159.12 22.752 158.376 23.344 157.768C23.936 157.152 24.652 156.844 25.492 156.844C26.484 156.844 27.24 157.24 27.76 158.032V154.6ZM25.624 162.148C26.232 162.148 26.74 161.944 27.148 161.536C27.556 161.12 27.76 160.608 27.76 160C27.76 159.392 27.556 158.884 27.148 158.476C26.74 158.06 26.232 157.852 25.624 157.852C25.024 157.852 24.52 158.06 24.112 158.476C23.704 158.884 23.5 159.392 23.5 160C23.5 160.608 23.704 161.12 24.112 161.536C24.52 161.944 25.024 162.148 25.624 162.148ZM30.9138 155.908C30.7138 155.908 30.5458 155.84 30.4098 155.704C30.2738 155.568 30.2058 155.404 30.2058 155.212C30.2058 155.02 30.2738 154.856 30.4098 154.72C30.5458 154.576 30.7138 154.504 30.9138 154.504C31.1058 154.504 31.2698 154.576 31.4058 154.72C31.5418 154.856 31.6098 155.02 31.6098 155.212C31.6098 155.404 31.5418 155.568 31.4058 155.704C31.2698 155.84 31.1058 155.908 30.9138 155.908ZM30.3857 163V157H31.4298V163H30.3857ZM34.0665 158.008C34.4105 157.264 35.0345 156.892 35.9385 156.892V157.984C35.4265 157.96 34.9865 158.096 34.6185 158.392C34.2505 158.688 34.0665 159.164 34.0665 159.82V163H33.0225V157H34.0665V158.008ZM37.3638 160.48C37.4678 161.016 37.7118 161.432 38.0958 161.728C38.4878 162.024 38.9678 162.172 39.5358 162.172C40.3278 162.172 40.9038 161.88 41.2638 161.296L42.1518 161.8C41.5678 162.704 40.6878 163.156 39.5118 163.156C38.5598 163.156 37.7838 162.86 37.1838 162.268C36.5918 161.668 36.2958 160.912 36.2958 160C36.2958 159.096 36.5878 158.344 37.1718 157.744C37.7558 157.144 38.5118 156.844 39.4398 156.844C40.3198 156.844 41.0358 157.156 41.5878 157.78C42.1478 158.396 42.4278 159.14 42.4278 160.012C42.4278 160.164 42.4158 160.32 42.3918 160.48H37.3638ZM39.4398 157.828C38.8798 157.828 38.4158 157.988 38.0478 158.308C37.6798 158.62 37.4518 159.04 37.3638 159.568H41.3718C41.2838 159 41.0598 158.568 40.6998 158.272C40.3398 157.976 39.9198 157.828 39.4398 157.828ZM46.4362 163.156C45.5322 163.156 44.7802 162.856 44.1802 162.256C43.5802 161.648 43.2802 160.896 43.2802 160C43.2802 159.104 43.5802 158.356 44.1802 157.756C44.7802 157.148 45.5322 156.844 46.4362 156.844C47.0282 156.844 47.5602 156.988 48.0322 157.276C48.5042 157.556 48.8562 157.936 49.0882 158.416L48.2122 158.92C48.0602 158.6 47.8242 158.344 47.5042 158.152C47.1922 157.96 46.8362 157.864 46.4362 157.864C45.8362 157.864 45.3322 158.068 44.9242 158.476C44.5242 158.884 44.3242 159.392 44.3242 160C44.3242 160.6 44.5242 161.104 44.9242 161.512C45.3322 161.92 45.8362 162.124 46.4362 162.124C46.8362 162.124 47.1962 162.032 47.5162 161.848C47.8362 161.656 48.0802 161.4 48.2482 161.08L49.1362 161.596C48.8802 162.068 48.5122 162.448 48.0322 162.736C47.5522 163.016 47.0202 163.156 46.4362 163.156ZM53.431 158.008H51.835V161.26C51.835 161.556 51.891 161.768 52.003 161.896C52.123 162.016 52.303 162.08 52.543 162.088C52.783 162.088 53.079 162.08 53.431 162.064V163C52.519 163.12 51.851 163.048 51.427 162.784C51.003 162.512 50.791 162.004 50.791 161.26V158.008H49.603V157H50.791V155.632L51.835 155.32V157H53.431V158.008ZM55.0943 160.48C55.1983 161.016 55.4423 161.432 55.8263 161.728C56.2183 162.024 56.6983 162.172 57.2663 162.172C58.0583 162.172 58.6343 161.88 58.9943 161.296L59.8823 161.8C59.2983 162.704 58.4183 163.156 57.2423 163.156C56.2903 163.156 55.5143 162.86 54.9143 162.268C54.3223 161.668 54.0263 160.912 54.0263 160C54.0263 159.096 54.3183 158.344 54.9023 157.744C55.4863 157.144 56.2423 156.844 57.1703 156.844C58.0503 156.844 58.7663 157.156 59.3183 157.78C59.8783 158.396 60.1583 159.14 60.1583 160.012C60.1583 160.164 60.1463 160.32 60.1223 160.48H55.0943ZM57.1703 157.828C56.6103 157.828 56.1463 157.988 55.7783 158.308C55.4103 158.62 55.1823 159.04 55.0943 159.568H59.1023C59.0143 159 58.7903 158.568 58.4303 158.272C58.0703 157.976 57.6503 157.828 57.1703 157.828ZM66.3147 154.6H67.3587V163H66.3147V161.968C65.7947 162.76 65.0387 163.156 64.0467 163.156C63.2067 163.156 62.4907 162.852 61.8987 162.244C61.3067 161.628 61.0107 160.88 61.0107 160C61.0107 159.12 61.3067 158.376 61.8987 157.768C62.4907 157.152 63.2067 156.844 64.0467 156.844C65.0387 156.844 65.7947 157.24 66.3147 158.032V154.6ZM64.1787 162.148C64.7867 162.148 65.2947 161.944 65.7027 161.536C66.1107 161.12 66.3147 160.608 66.3147 160C66.3147 159.392 66.1107 158.884 65.7027 158.476C65.2947 158.06 64.7867 157.852 64.1787 157.852C63.5787 157.852 63.0747 158.06 62.6667 158.476C62.2587 158.884 62.0547 159.392 62.0547 160C62.0547 160.608 62.2587 161.12 62.6667 161.536C63.0747 161.944 63.5787 162.148 64.1787 162.148ZM75.2044 158.008H73.6084V161.26C73.6084 161.556 73.6644 161.768 73.7764 161.896C73.8964 162.016 74.0764 162.08 74.3164 162.088C74.5564 162.088 74.8524 162.08 75.2044 162.064V163C74.2924 163.12 73.6244 163.048 73.2004 162.784C72.7764 162.512 72.5644 162.004 72.5644 161.26V158.008H71.3764V157H72.5644V155.632L73.6084 155.32V157H75.2044V158.008ZM81.1998 162.244C80.5838 162.852 79.8358 163.156 78.9558 163.156C78.0758 163.156 77.3278 162.852 76.7118 162.244C76.1038 161.636 75.7998 160.888 75.7998 160C75.7998 159.112 76.1038 158.364 76.7118 157.756C77.3278 157.148 78.0758 156.844 78.9558 156.844C79.8358 156.844 80.5838 157.148 81.1998 157.756C81.8158 158.364 82.1237 159.112 82.1237 160C82.1237 160.888 81.8158 161.636 81.1998 162.244ZM78.9558 162.136C79.5558 162.136 80.0598 161.932 80.4678 161.524C80.8758 161.116 81.0798 160.608 81.0798 160C81.0798 159.392 80.8758 158.884 80.4678 158.476C80.0598 158.068 79.5558 157.864 78.9558 157.864C78.3638 157.864 77.8638 158.068 77.4558 158.476C77.0478 158.884 76.8438 159.392 76.8438 160C76.8438 160.608 77.0478 161.116 77.4558 161.524C77.8638 161.932 78.3638 162.136 78.9558 162.136ZM90.1881 157H91.2801L89.4201 163H88.3521L86.9481 158.56L85.5441 163H84.4761L82.6161 157H83.7081L85.0281 161.56L86.4441 157H87.4521L88.8681 161.572L90.1881 157ZM97.0881 157H98.1321V163H97.0881V161.968C96.5681 162.76 95.8121 163.156 94.8201 163.156C93.9801 163.156 93.2641 162.852 92.6721 162.244C92.0801 161.628 91.7841 160.88 91.7841 160C91.7841 159.12 92.0801 158.376 92.6721 157.768C93.2641 157.152 93.9801 156.844 94.8201 156.844C95.8121 156.844 96.5681 157.24 97.0881 158.032V157ZM94.9521 162.148C95.5601 162.148 96.0681 161.944 96.4761 161.536C96.8841 161.12 97.0881 160.608 97.0881 160C97.0881 159.392 96.8841 158.884 96.4761 158.476C96.0681 158.06 95.5601 157.852 94.9521 157.852C94.3521 157.852 93.8481 158.06 93.4401 158.476C93.0321 158.884 92.8281 159.392 92.8281 160C92.8281 160.608 93.0321 161.12 93.4401 161.536C93.8481 161.944 94.3521 162.148 94.9521 162.148ZM100.758 158.008C101.102 157.264 101.726 156.892 102.63 156.892V157.984C102.118 157.96 101.678 158.096 101.31 158.392C100.942 158.688 100.758 159.164 100.758 159.82V163H99.7139V157H100.758V158.008ZM108.291 154.6H109.335V163H108.291V161.968C107.771 162.76 107.015 163.156 106.023 163.156C105.183 163.156 104.467 162.852 103.875 162.244C103.283 161.628 102.987 160.88 102.987 160C102.987 159.12 103.283 158.376 103.875 157.768C104.467 157.152 105.183 156.844 106.023 156.844C107.015 156.844 107.771 157.24 108.291 158.032V154.6ZM106.155 162.148C106.763 162.148 107.271 161.944 107.679 161.536C108.087 161.12 108.291 160.608 108.291 160C108.291 159.392 108.087 158.884 107.679 158.476C107.271 158.06 106.763 157.852 106.155 157.852C105.555 157.852 105.051 158.06 104.643 158.476C104.235 158.884 104.031 159.392 104.031 160C104.031 160.608 104.235 161.12 104.643 161.536C105.051 161.944 105.555 162.148 106.155 162.148ZM111.805 158.62C111.805 158.852 111.921 159.04 112.153 159.184C112.385 159.32 112.665 159.432 112.993 159.52C113.321 159.6 113.649 159.696 113.977 159.808C114.305 159.912 114.585 160.096 114.817 160.36C115.049 160.616 115.165 160.948 115.165 161.356C115.165 161.9 114.953 162.336 114.529 162.664C114.113 162.992 113.577 163.156 112.921 163.156C112.337 163.156 111.837 163.028 111.421 162.772C111.005 162.516 110.709 162.176 110.533 161.752L111.433 161.236C111.529 161.524 111.709 161.752 111.973 161.92C112.237 162.088 112.553 162.172 112.921 162.172C113.265 162.172 113.549 162.108 113.773 161.98C113.997 161.844 114.109 161.636 114.109 161.356C114.109 161.124 113.993 160.94 113.761 160.804C113.529 160.66 113.249 160.548 112.921 160.468C112.593 160.38 112.265 160.28 111.937 160.168C111.609 160.056 111.329 159.872 111.097 159.616C110.865 159.36 110.749 159.032 110.749 158.632C110.749 158.112 110.949 157.684 111.349 157.348C111.757 157.012 112.265 156.844 112.873 156.844C113.361 156.844 113.793 156.956 114.169 157.18C114.553 157.396 114.841 157.7 115.033 158.092L114.157 158.584C113.941 158.072 113.513 157.816 112.873 157.816C112.577 157.816 112.325 157.888 112.117 158.032C111.909 158.168 111.805 158.364 111.805 158.62ZM122.485 155.452C121.429 155.364 120.901 155.82 120.901 156.82V157H122.485V158.008H120.901V163H119.857V158.008H118.897V157H119.857V156.82C119.857 156.012 120.081 155.4 120.529 154.984C120.985 154.568 121.637 154.388 122.485 154.444V155.452ZM128.016 162.244C127.4 162.852 126.652 163.156 125.772 163.156C124.892 163.156 124.144 162.852 123.528 162.244C122.92 161.636 122.616 160.888 122.616 160C122.616 159.112 122.92 158.364 123.528 157.756C124.144 157.148 124.892 156.844 125.772 156.844C126.652 156.844 127.4 157.148 128.016 157.756C128.632 158.364 128.94 159.112 128.94 160C128.94 160.888 128.632 161.636 128.016 162.244ZM125.772 162.136C126.372 162.136 126.876 161.932 127.284 161.524C127.692 161.116 127.896 160.608 127.896 160C127.896 159.392 127.692 158.884 127.284 158.476C126.876 158.068 126.372 157.864 125.772 157.864C125.18 157.864 124.68 158.068 124.272 158.476C123.864 158.884 123.66 159.392 123.66 160C123.66 160.608 123.864 161.116 124.272 161.524C124.68 161.932 125.18 162.136 125.772 162.136ZM131.215 158.008C131.559 157.264 132.183 156.892 133.087 156.892V157.984C132.575 157.96 132.135 158.096 131.767 158.392C131.399 158.688 131.215 159.164 131.215 159.82V163H130.171V157H131.215V158.008ZM134.512 160.48C134.616 161.016 134.86 161.432 135.244 161.728C135.636 162.024 136.116 162.172 136.684 162.172C137.476 162.172 138.052 161.88 138.412 161.296L139.3 161.8C138.716 162.704 137.836 163.156 136.66 163.156C135.708 163.156 134.932 162.86 134.332 162.268C133.74 161.668 133.444 160.912 133.444 160C133.444 159.096 133.736 158.344 134.32 157.744C134.904 157.144 135.66 156.844 136.588 156.844C137.468 156.844 138.184 157.156 138.736 157.78C139.296 158.396 139.576 159.14 139.576 160.012C139.576 160.164 139.564 160.32 139.54 160.48H134.512ZM136.588 157.828C136.028 157.828 135.564 157.988 135.196 158.308C134.828 158.62 134.6 159.04 134.512 159.568H138.52C138.432 159 138.208 158.568 137.848 158.272C137.488 157.976 137.068 157.828 136.588 157.828ZM141.442 158.62C141.442 158.852 141.558 159.04 141.79 159.184C142.022 159.32 142.302 159.432 142.63 159.52C142.958 159.6 143.286 159.696 143.614 159.808C143.942 159.912 144.222 160.096 144.454 160.36C144.686 160.616 144.802 160.948 144.802 161.356C144.802 161.9 144.59 162.336 144.166 162.664C143.75 162.992 143.214 163.156 142.558 163.156C141.974 163.156 141.474 163.028 141.058 162.772C140.642 162.516 140.346 162.176 140.17 161.752L141.07 161.236C141.166 161.524 141.346 161.752 141.61 161.92C141.874 162.088 142.19 162.172 142.558 162.172C142.902 162.172 143.186 162.108 143.41 161.98C143.634 161.844 143.746 161.636 143.746 161.356C143.746 161.124 143.63 160.94 143.398 160.804C143.166 160.66 142.886 160.548 142.558 160.468C142.23 160.38 141.902 160.28 141.574 160.168C141.246 160.056 140.966 159.872 140.734 159.616C140.502 159.36 140.386 159.032 140.386 158.632C140.386 158.112 140.586 157.684 140.986 157.348C141.394 157.012 141.902 156.844 142.51 156.844C142.998 156.844 143.43 156.956 143.806 157.18C144.19 157.396 144.478 157.7 144.67 158.092L143.794 158.584C143.578 158.072 143.15 157.816 142.51 157.816C142.214 157.816 141.962 157.888 141.754 158.032C141.546 158.168 141.442 158.364 141.442 158.62ZM149.068 158.008H147.472V161.26C147.472 161.556 147.528 161.768 147.64 161.896C147.76 162.016 147.94 162.08 148.18 162.088C148.42 162.088 148.716 162.08 149.068 162.064V163C148.156 163.12 147.488 163.048 147.064 162.784C146.64 162.512 146.428 162.004 146.428 161.26V158.008H145.24V157H146.428V155.632L147.472 155.32V157H149.068V158.008ZM156.159 163.156C155.255 163.156 154.503 162.856 153.903 162.256C153.303 161.648 153.003 160.896 153.003 160C153.003 159.104 153.303 158.356 153.903 157.756C154.503 157.148 155.255 156.844 156.159 156.844C156.751 156.844 157.283 156.988 157.755 157.276C158.227 157.556 158.579 157.936 158.811 158.416L157.935 158.92C157.783 158.6 157.547 158.344 157.227 158.152C156.915 157.96 156.559 157.864 156.159 157.864C155.559 157.864 155.055 158.068 154.647 158.476C154.247 158.884 154.047 159.392 154.047 160C154.047 160.6 154.247 161.104 154.647 161.512C155.055 161.92 155.559 162.124 156.159 162.124C156.559 162.124 156.919 162.032 157.239 161.848C157.559 161.656 157.803 161.4 157.971 161.08L158.859 161.596C158.603 162.068 158.235 162.448 157.755 162.736C157.275 163.016 156.743 163.156 156.159 163.156ZM164.872 162.244C164.256 162.852 163.508 163.156 162.628 163.156C161.748 163.156 161 162.852 160.384 162.244C159.776 161.636 159.472 160.888 159.472 160C159.472 159.112 159.776 158.364 160.384 157.756C161 157.148 161.748 156.844 162.628 156.844C163.508 156.844 164.256 157.148 164.872 157.756C165.488 158.364 165.796 159.112 165.796 160C165.796 160.888 165.488 161.636 164.872 162.244ZM162.628 162.136C163.228 162.136 163.732 161.932 164.14 161.524C164.548 161.116 164.752 160.608 164.752 160C164.752 159.392 164.548 158.884 164.14 158.476C163.732 158.068 163.228 157.864 162.628 157.864C162.036 157.864 161.536 158.068 161.128 158.476C160.72 158.884 160.516 159.392 160.516 160C160.516 160.608 160.72 161.116 161.128 161.524C161.536 161.932 162.036 162.136 162.628 162.136ZM170.014 156.844C170.718 156.844 171.282 157.068 171.706 157.516C172.13 157.956 172.342 158.556 172.342 159.316V163H171.298V159.376C171.298 158.888 171.166 158.512 170.902 158.248C170.638 157.976 170.274 157.84 169.81 157.84C169.29 157.84 168.87 158.004 168.55 158.332C168.23 158.652 168.07 159.148 168.07 159.82V163H167.026V157H168.07V157.864C168.494 157.184 169.142 156.844 170.014 156.844ZM174.7 158.62C174.7 158.852 174.816 159.04 175.048 159.184C175.28 159.32 175.56 159.432 175.888 159.52C176.216 159.6 176.544 159.696 176.872 159.808C177.2 159.912 177.48 160.096 177.712 160.36C177.944 160.616 178.06 160.948 178.06 161.356C178.06 161.9 177.848 162.336 177.424 162.664C177.008 162.992 176.472 163.156 175.816 163.156C175.232 163.156 174.732 163.028 174.316 162.772C173.9 162.516 173.604 162.176 173.428 161.752L174.328 161.236C174.424 161.524 174.604 161.752 174.868 161.92C175.132 162.088 175.448 162.172 175.816 162.172C176.16 162.172 176.444 162.108 176.668 161.98C176.892 161.844 177.004 161.636 177.004 161.356C177.004 161.124 176.888 160.94 176.656 160.804C176.424 160.66 176.144 160.548 175.816 160.468C175.488 160.38 175.16 160.28 174.832 160.168C174.504 160.056 174.224 159.872 173.992 159.616C173.76 159.36 173.644 159.032 173.644 158.632C173.644 158.112 173.844 157.684 174.244 157.348C174.652 157.012 175.16 156.844 175.768 156.844C176.256 156.844 176.688 156.956 177.064 157.18C177.448 157.396 177.736 157.7 177.928 158.092L177.052 158.584C176.836 158.072 176.408 157.816 175.768 157.816C175.472 157.816 175.22 157.888 175.012 158.032C174.804 158.168 174.7 158.364 174.7 158.62ZM179.864 160.48C179.968 161.016 180.212 161.432 180.596 161.728C180.988 162.024 181.468 162.172 182.036 162.172C182.828 162.172 183.404 161.88 183.764 161.296L184.652 161.8C184.068 162.704 183.188 163.156 182.012 163.156C181.06 163.156 180.284 162.86 179.684 162.268C179.092 161.668 178.796 160.912 178.796 160C178.796 159.096 179.088 158.344 179.672 157.744C180.256 157.144 181.012 156.844 181.94 156.844C182.82 156.844 183.536 157.156 184.088 157.78C184.648 158.396 184.928 159.14 184.928 160.012C184.928 160.164 184.916 160.32 184.892 160.48H179.864ZM181.94 157.828C181.38 157.828 180.916 157.988 180.548 158.308C180.18 158.62 179.952 159.04 179.864 159.568H183.872C183.784 159 183.56 158.568 183.2 158.272C182.84 157.976 182.42 157.828 181.94 157.828ZM187.172 158.008C187.516 157.264 188.14 156.892 189.044 156.892V157.984C188.532 157.96 188.092 158.096 187.724 158.392C187.356 158.688 187.172 159.164 187.172 159.82V163H186.128V157H187.172V158.008ZM194.265 157H195.393L192.993 163H191.769L189.369 157H190.497L192.381 161.884L194.265 157ZM201.01 157H202.054V163H201.01V161.968C200.49 162.76 199.734 163.156 198.742 163.156C197.902 163.156 197.186 162.852 196.594 162.244C196.002 161.628 195.706 160.88 195.706 160C195.706 159.12 196.002 158.376 196.594 157.768C197.186 157.152 197.902 156.844 198.742 156.844C199.734 156.844 200.49 157.24 201.01 158.032V157ZM198.874 162.148C199.482 162.148 199.99 161.944 200.398 161.536C200.806 161.12 201.01 160.608 201.01 160C201.01 159.392 200.806 158.884 200.398 158.476C199.99 158.06 199.482 157.852 198.874 157.852C198.274 157.852 197.77 158.06 197.362 158.476C196.954 158.884 196.75 159.392 196.75 160C196.75 160.608 196.954 161.12 197.362 161.536C197.77 161.944 198.274 162.148 198.874 162.148ZM206.9 158.008H205.304V161.26C205.304 161.556 205.36 161.768 205.472 161.896C205.592 162.016 205.772 162.08 206.012 162.088C206.252 162.088 206.548 162.08 206.9 162.064V163C205.988 163.12 205.32 163.048 204.896 162.784C204.472 162.512 204.26 162.004 204.26 161.26V158.008H203.072V157H204.26V155.632L205.304 155.32V157H206.9V158.008ZM208.664 155.908C208.464 155.908 208.296 155.84 208.16 155.704C208.024 155.568 207.956 155.404 207.956 155.212C207.956 155.02 208.024 154.856 208.16 154.72C208.296 154.576 208.464 154.504 208.664 154.504C208.856 154.504 209.02 154.576 209.156 154.72C209.292 154.856 209.36 155.02 209.36 155.212C209.36 155.404 209.292 155.568 209.156 155.704C209.02 155.84 208.856 155.908 208.664 155.908ZM208.136 163V157H209.18V163H208.136ZM215.836 162.244C215.22 162.852 214.472 163.156 213.592 163.156C212.712 163.156 211.964 162.852 211.348 162.244C210.74 161.636 210.436 160.888 210.436 160C210.436 159.112 210.74 158.364 211.348 157.756C211.964 157.148 212.712 156.844 213.592 156.844C214.472 156.844 215.22 157.148 215.836 157.756C216.452 158.364 216.76 159.112 216.76 160C216.76 160.888 216.452 161.636 215.836 162.244ZM213.592 162.136C214.192 162.136 214.696 161.932 215.104 161.524C215.512 161.116 215.716 160.608 215.716 160C215.716 159.392 215.512 158.884 215.104 158.476C214.696 158.068 214.192 157.864 213.592 157.864C213 157.864 212.5 158.068 212.092 158.476C211.684 158.884 211.48 159.392 211.48 160C211.48 160.608 211.684 161.116 212.092 161.524C212.5 161.932 213 162.136 213.592 162.136ZM220.979 156.844C221.683 156.844 222.247 157.068 222.671 157.516C223.095 157.956 223.307 158.556 223.307 159.316V163H222.263V159.376C222.263 158.888 222.131 158.512 221.867 158.248C221.603 157.976 221.239 157.84 220.775 157.84C220.255 157.84 219.835 158.004 219.515 158.332C219.195 158.652 219.035 159.148 219.035 159.82V163H217.991V157H219.035V157.864C219.459 157.184 220.107 156.844 220.979 156.844ZM225.425 163.132C225.209 163.132 225.025 163.056 224.873 162.904C224.721 162.752 224.645 162.568 224.645 162.352C224.645 162.136 224.721 161.952 224.873 161.8C225.025 161.648 225.209 161.572 225.425 161.572C225.649 161.572 225.833 161.648 225.977 161.8C226.129 161.952 226.205 162.136 226.205 162.352C226.205 162.568 226.129 162.752 225.977 162.904C225.833 163.056 225.649 163.132 225.425 163.132Z" fill="#1A1A1A"/>
</svg>
