<svg width="198" height="179" viewBox="0 0 240 231" fill="none" xmlns="http://www.w3.org/2000/svg">
<g style="mix-blend-mode:multiply">
<path d="M0 183.773H99.912L119.631 218L139.088 183.773H239V0H0V183.773Z" fill="#D1EACB"/>
</g>
<path d="M11.9581 18.748C11.7021 19.012 11.3861 19.144 11.0101 19.144C10.6341 19.144 10.3141 19.012 10.0501 18.748C9.78613 18.484 9.65413 18.164 9.65413 17.788C9.65413 17.412 9.78613 17.096 10.0501 16.84C10.3141 16.576 10.6341 16.444 11.0101 16.444C11.3861 16.444 11.7021 16.576 11.9581 16.84C12.2221 17.096 12.3541 17.412 12.3541 17.788C12.3541 18.164 12.2221 18.484 11.9581 18.748ZM26.276 13.6V14.656H23.792V22H22.688V14.656H20.216V13.6H26.276ZM30.2605 15.844C30.9645 15.844 31.5285 16.068 31.9525 16.516C32.3765 16.956 32.5885 17.556 32.5885 18.316V22H31.5445V18.376C31.5445 17.888 31.4125 17.512 31.1485 17.248C30.8845 16.976 30.5205 16.84 30.0565 16.84C29.5365 16.84 29.1165 17.004 28.7965 17.332C28.4765 17.652 28.3165 18.148 28.3165 18.82V22H27.2725V13.6H28.3165V16.864C28.7405 16.184 29.3885 15.844 30.2605 15.844ZM34.7779 19.48C34.8819 20.016 35.1259 20.432 35.5099 20.728C35.9019 21.024 36.3819 21.172 36.9499 21.172C37.7419 21.172 38.3179 20.88 38.6779 20.296L39.5659 20.8C38.9819 21.704 38.1019 22.156 36.9259 22.156C35.9739 22.156 35.1979 21.86 34.5979 21.268C34.0059 20.668 33.7099 19.912 33.7099 19C33.7099 18.096 34.0019 17.344 34.5859 16.744C35.1699 16.144 35.9259 15.844 36.8539 15.844C37.7339 15.844 38.4499 16.156 39.0019 16.78C39.5619 17.396 39.8419 18.14 39.8419 19.012C39.8419 19.164 39.8299 19.32 39.8059 19.48H34.7779ZM36.8539 16.828C36.2939 16.828 35.8299 16.988 35.4619 17.308C35.0939 17.62 34.8659 18.04 34.7779 18.568H38.7859C38.6979 18 38.4739 17.568 38.1139 17.272C37.7539 16.976 37.3339 16.828 36.8539 16.828ZM45.266 20.944H49.166V22H44.15V13.6H49.106V14.656H45.266V17.236H48.806V18.28H45.266V20.944ZM53.0964 22.156C52.1924 22.156 51.4404 21.856 50.8404 21.256C50.2404 20.648 49.9404 19.896 49.9404 19C49.9404 18.104 50.2404 17.356 50.8404 16.756C51.4404 16.148 52.1924 15.844 53.0964 15.844C53.6884 15.844 54.2204 15.988 54.6924 16.276C55.1644 16.556 55.5164 16.936 55.7484 17.416L54.8724 17.92C54.7204 17.6 54.4844 17.344 54.1644 17.152C53.8524 16.96 53.4964 16.864 53.0964 16.864C52.4964 16.864 51.9924 17.068 51.5844 17.476C51.1844 17.884 50.9844 18.392 50.9844 19C50.9844 19.6 51.1844 20.104 51.5844 20.512C51.9924 20.92 52.4964 21.124 53.0964 21.124C53.4964 21.124 53.8564 21.032 54.1764 20.848C54.4964 20.656 54.7404 20.4 54.9084 20.08L55.7964 20.596C55.5404 21.068 55.1724 21.448 54.6924 21.736C54.2124 22.016 53.6804 22.156 53.0964 22.156ZM59.8152 15.844C60.5192 15.844 61.0832 16.068 61.5072 16.516C61.9312 16.956 62.1432 17.556 62.1432 18.316V22H61.0992V18.376C61.0992 17.888 60.9672 17.512 60.7032 17.248C60.4392 16.976 60.0752 16.84 59.6112 16.84C59.0912 16.84 58.6712 17.004 58.3512 17.332C58.0312 17.652 57.8712 18.148 57.8712 18.82V22H56.8272V13.6H57.8712V16.864C58.2952 16.184 58.9432 15.844 59.8152 15.844ZM68.6646 21.244C68.0486 21.852 67.3006 22.156 66.4206 22.156C65.5406 22.156 64.7926 21.852 64.1766 21.244C63.5686 20.636 63.2646 19.888 63.2646 19C63.2646 18.112 63.5686 17.364 64.1766 16.756C64.7926 16.148 65.5406 15.844 66.4206 15.844C67.3006 15.844 68.0486 16.148 68.6646 16.756C69.2806 17.364 69.5886 18.112 69.5886 19C69.5886 19.888 69.2806 20.636 68.6646 21.244ZM66.4206 21.136C67.0206 21.136 67.5246 20.932 67.9326 20.524C68.3406 20.116 68.5446 19.608 68.5446 19C68.5446 18.392 68.3406 17.884 67.9326 17.476C67.5246 17.068 67.0206 16.864 66.4206 16.864C65.8286 16.864 65.3286 17.068 64.9206 17.476C64.5126 17.884 64.3086 18.392 64.3086 19C64.3086 19.608 64.5126 20.116 64.9206 20.524C65.3286 20.932 65.8286 21.136 66.4206 21.136ZM77.2033 13.6C78.3473 13.6 79.2953 14.008 80.0473 14.824C80.8073 15.632 81.1873 16.624 81.1873 17.8C81.1873 18.976 80.8073 19.972 80.0473 20.788C79.2953 21.596 78.3473 22 77.2033 22H73.9273V13.6H77.2033ZM77.2033 20.944C78.0593 20.944 78.7593 20.644 79.3033 20.044C79.8473 19.444 80.1193 18.696 80.1193 17.8C80.1193 16.904 79.8473 16.156 79.3033 15.556C78.7593 14.956 78.0593 14.656 77.2033 14.656H75.0433V20.944H77.2033ZM87.7679 22L87.0839 20.116H83.3039L82.6199 22H81.4319L84.5639 13.6H85.8239L88.9559 22H87.7679ZM83.6879 19.072H86.6999L85.1879 14.932L83.6879 19.072ZM96.6262 20.884C95.7862 21.732 94.7582 22.156 93.5422 22.156C92.3262 22.156 91.2982 21.732 90.4582 20.884C89.6182 20.036 89.1982 19.008 89.1982 17.8C89.1982 16.584 89.6182 15.556 90.4582 14.716C91.2982 13.868 92.3262 13.444 93.5422 13.444C94.7582 13.444 95.7862 13.868 96.6262 14.716C97.4742 15.556 97.8982 16.584 97.8982 17.8C97.8982 19.008 97.4742 20.036 96.6262 20.884ZM91.2262 20.128C91.8502 20.752 92.6222 21.064 93.5422 21.064C94.4622 21.064 95.2302 20.752 95.8462 20.128C96.4702 19.496 96.7822 18.72 96.7822 17.8C96.7822 16.872 96.4702 16.096 95.8462 15.472C95.2302 14.84 94.4622 14.524 93.5422 14.524C92.6222 14.524 91.8502 14.84 91.2262 15.472C90.6102 16.096 90.3022 16.872 90.3022 17.8C90.3022 18.72 90.6102 19.496 91.2262 20.128ZM105.12 15.844C105.824 15.844 106.388 16.068 106.812 16.516C107.236 16.956 107.448 17.556 107.448 18.316V22H106.404V18.376C106.404 17.888 106.272 17.512 106.008 17.248C105.744 16.976 105.38 16.84 104.916 16.84C104.396 16.84 103.976 17.004 103.656 17.332C103.336 17.652 103.176 18.148 103.176 18.82V22H102.132V13.6H103.176V16.864C103.6 16.184 104.248 15.844 105.12 15.844ZM113.873 16H114.917V22H113.873V20.968C113.353 21.76 112.597 22.156 111.605 22.156C110.765 22.156 110.049 21.852 109.457 21.244C108.865 20.628 108.569 19.88 108.569 19C108.569 18.12 108.865 17.376 109.457 16.768C110.049 16.152 110.765 15.844 111.605 15.844C112.597 15.844 113.353 16.24 113.873 17.032V16ZM111.737 21.148C112.345 21.148 112.853 20.944 113.261 20.536C113.669 20.12 113.873 19.608 113.873 19C113.873 18.392 113.669 17.884 113.261 17.476C112.853 17.06 112.345 16.852 111.737 16.852C111.137 16.852 110.633 17.06 110.225 17.476C109.817 17.884 109.613 18.392 109.613 19C109.613 19.608 109.817 20.12 110.225 20.536C110.633 20.944 111.137 21.148 111.737 21.148ZM117.387 17.62C117.387 17.852 117.503 18.04 117.735 18.184C117.967 18.32 118.247 18.432 118.575 18.52C118.903 18.6 119.231 18.696 119.559 18.808C119.887 18.912 120.167 19.096 120.399 19.36C120.631 19.616 120.747 19.948 120.747 20.356C120.747 20.9 120.535 21.336 120.111 21.664C119.695 21.992 119.159 22.156 118.503 22.156C117.919 22.156 117.419 22.028 117.003 21.772C116.587 21.516 116.291 21.176 116.115 20.752L117.015 20.236C117.111 20.524 117.291 20.752 117.555 20.92C117.819 21.088 118.135 21.172 118.503 21.172C118.847 21.172 119.131 21.108 119.355 20.98C119.579 20.844 119.691 20.636 119.691 20.356C119.691 20.124 119.575 19.94 119.343 19.804C119.111 19.66 118.831 19.548 118.503 19.468C118.175 19.38 117.847 19.28 117.519 19.168C117.191 19.056 116.911 18.872 116.679 18.616C116.447 18.36 116.331 18.032 116.331 17.632C116.331 17.112 116.531 16.684 116.931 16.348C117.339 16.012 117.847 15.844 118.455 15.844C118.943 15.844 119.375 15.956 119.751 16.18C120.135 16.396 120.423 16.7 120.615 17.092L119.739 17.584C119.523 17.072 119.095 16.816 118.455 16.816C118.159 16.816 117.907 16.888 117.699 17.032C117.491 17.168 117.387 17.364 117.387 17.62ZM127.971 15.844C128.675 15.844 129.239 16.068 129.663 16.516C130.087 16.956 130.299 17.556 130.299 18.316V22H129.255V18.376C129.255 17.888 129.123 17.512 128.859 17.248C128.595 16.976 128.231 16.84 127.767 16.84C127.247 16.84 126.827 17.004 126.507 17.332C126.187 17.652 126.027 18.148 126.027 18.82V22H124.983V16H126.027V16.864C126.451 16.184 127.099 15.844 127.971 15.844ZM136.821 21.244C136.205 21.852 135.457 22.156 134.577 22.156C133.697 22.156 132.949 21.852 132.333 21.244C131.725 20.636 131.421 19.888 131.421 19C131.421 18.112 131.725 17.364 132.333 16.756C132.949 16.148 133.697 15.844 134.577 15.844C135.457 15.844 136.205 16.148 136.821 16.756C137.437 17.364 137.745 18.112 137.745 19C137.745 19.888 137.437 20.636 136.821 21.244ZM134.577 21.136C135.177 21.136 135.681 20.932 136.089 20.524C136.497 20.116 136.701 19.608 136.701 19C136.701 18.392 136.497 17.884 136.089 17.476C135.681 17.068 135.177 16.864 134.577 16.864C133.985 16.864 133.485 17.068 133.077 17.476C132.669 17.884 132.465 18.392 132.465 19C132.465 19.608 132.669 20.116 133.077 20.524C133.485 20.932 133.985 21.136 134.577 21.136ZM145.809 16H146.901L145.041 22H143.973L142.569 17.56L141.165 22H140.097L138.237 16H139.329L140.649 20.56L142.065 16H143.073L144.489 20.572L145.809 16ZM151.876 17.62C151.876 17.852 151.992 18.04 152.224 18.184C152.456 18.32 152.736 18.432 153.064 18.52C153.392 18.6 153.72 18.696 154.048 18.808C154.376 18.912 154.656 19.096 154.888 19.36C155.12 19.616 155.236 19.948 155.236 20.356C155.236 20.9 155.024 21.336 154.6 21.664C154.184 21.992 153.648 22.156 152.992 22.156C152.408 22.156 151.908 22.028 151.492 21.772C151.076 21.516 150.78 21.176 150.604 20.752L151.504 20.236C151.6 20.524 151.78 20.752 152.044 20.92C152.308 21.088 152.624 21.172 152.992 21.172C153.336 21.172 153.62 21.108 153.844 20.98C154.068 20.844 154.18 20.636 154.18 20.356C154.18 20.124 154.064 19.94 153.832 19.804C153.6 19.66 153.32 19.548 152.992 19.468C152.664 19.38 152.336 19.28 152.008 19.168C151.68 19.056 151.4 18.872 151.168 18.616C150.936 18.36 150.82 18.032 150.82 17.632C150.82 17.112 151.02 16.684 151.42 16.348C151.828 16.012 152.336 15.844 152.944 15.844C153.432 15.844 153.864 15.956 154.24 16.18C154.624 16.396 154.912 16.7 155.104 17.092L154.228 17.584C154.012 17.072 153.584 16.816 152.944 16.816C152.648 16.816 152.396 16.888 152.188 17.032C151.98 17.168 151.876 17.364 151.876 17.62ZM160.553 16H161.597V22H160.553V21.136C160.129 21.816 159.481 22.156 158.609 22.156C157.905 22.156 157.341 21.936 156.917 21.496C156.493 21.048 156.281 20.444 156.281 19.684V16H157.325V19.624C157.325 20.112 157.457 20.492 157.721 20.764C157.985 21.028 158.349 21.16 158.813 21.16C159.333 21.16 159.753 21 160.073 20.68C160.393 20.352 160.553 19.852 160.553 19.18V16ZM166.007 22.156C165.103 22.156 164.351 21.856 163.751 21.256C163.151 20.648 162.851 19.896 162.851 19C162.851 18.104 163.151 17.356 163.751 16.756C164.351 16.148 165.103 15.844 166.007 15.844C166.599 15.844 167.131 15.988 167.603 16.276C168.075 16.556 168.427 16.936 168.659 17.416L167.783 17.92C167.631 17.6 167.395 17.344 167.075 17.152C166.763 16.96 166.407 16.864 166.007 16.864C165.407 16.864 164.903 17.068 164.495 17.476C164.095 17.884 163.895 18.392 163.895 19C163.895 19.6 164.095 20.104 164.495 20.512C164.903 20.92 165.407 21.124 166.007 21.124C166.407 21.124 166.767 21.032 167.087 20.848C167.407 20.656 167.651 20.4 167.819 20.08L168.707 20.596C168.451 21.068 168.083 21.448 167.603 21.736C167.123 22.016 166.591 22.156 166.007 22.156ZM172.475 22.156C171.571 22.156 170.819 21.856 170.219 21.256C169.619 20.648 169.319 19.896 169.319 19C169.319 18.104 169.619 17.356 170.219 16.756C170.819 16.148 171.571 15.844 172.475 15.844C173.067 15.844 173.599 15.988 174.071 16.276C174.543 16.556 174.895 16.936 175.127 17.416L174.251 17.92C174.099 17.6 173.863 17.344 173.543 17.152C173.231 16.96 172.875 16.864 172.475 16.864C171.875 16.864 171.371 17.068 170.963 17.476C170.563 17.884 170.363 18.392 170.363 19C170.363 19.6 170.563 20.104 170.963 20.512C171.371 20.92 171.875 21.124 172.475 21.124C172.875 21.124 173.235 21.032 173.555 20.848C173.875 20.656 174.119 20.4 174.287 20.08L175.175 20.596C174.919 21.068 174.551 21.448 174.071 21.736C173.591 22.016 173.059 22.156 172.475 22.156ZM176.856 19.48C176.96 20.016 177.204 20.432 177.588 20.728C177.98 21.024 178.46 21.172 179.028 21.172C179.82 21.172 180.396 20.88 180.756 20.296L181.644 20.8C181.06 21.704 180.18 22.156 179.004 22.156C178.052 22.156 177.276 21.86 176.676 21.268C176.084 20.668 175.788 19.912 175.788 19C175.788 18.096 176.08 17.344 176.664 16.744C177.248 16.144 178.004 15.844 178.932 15.844C179.812 15.844 180.528 16.156 181.08 16.78C181.64 17.396 181.92 18.14 181.92 19.012C181.92 19.164 181.908 19.32 181.884 19.48H176.856ZM178.932 16.828C178.372 16.828 177.908 16.988 177.54 17.308C177.172 17.62 176.944 18.04 176.856 18.568H180.864C180.776 18 180.552 17.568 180.192 17.272C179.832 16.976 179.412 16.828 178.932 16.828ZM183.786 17.62C183.786 17.852 183.902 18.04 184.134 18.184C184.366 18.32 184.646 18.432 184.974 18.52C185.302 18.6 185.63 18.696 185.958 18.808C186.286 18.912 186.566 19.096 186.798 19.36C187.03 19.616 187.146 19.948 187.146 20.356C187.146 20.9 186.934 21.336 186.51 21.664C186.094 21.992 185.558 22.156 184.902 22.156C184.318 22.156 183.818 22.028 183.402 21.772C182.986 21.516 182.69 21.176 182.514 20.752L183.414 20.236C183.51 20.524 183.69 20.752 183.954 20.92C184.218 21.088 184.534 21.172 184.902 21.172C185.246 21.172 185.53 21.108 185.754 20.98C185.978 20.844 186.09 20.636 186.09 20.356C186.09 20.124 185.974 19.94 185.742 19.804C185.51 19.66 185.23 19.548 184.902 19.468C184.574 19.38 184.246 19.28 183.918 19.168C183.59 19.056 183.31 18.872 183.078 18.616C182.846 18.36 182.73 18.032 182.73 17.632C182.73 17.112 182.93 16.684 183.33 16.348C183.738 16.012 184.246 15.844 184.854 15.844C185.342 15.844 185.774 15.956 186.15 16.18C186.534 16.396 186.822 16.7 187.014 17.092L186.138 17.584C185.922 17.072 185.494 16.816 184.854 16.816C184.558 16.816 184.306 16.888 184.098 17.032C183.89 17.168 183.786 17.364 183.786 17.62ZM188.907 17.62C188.907 17.852 189.023 18.04 189.255 18.184C189.487 18.32 189.767 18.432 190.095 18.52C190.423 18.6 190.751 18.696 191.079 18.808C191.407 18.912 191.687 19.096 191.919 19.36C192.151 19.616 192.267 19.948 192.267 20.356C192.267 20.9 192.055 21.336 191.631 21.664C191.215 21.992 190.679 22.156 190.023 22.156C189.439 22.156 188.939 22.028 188.523 21.772C188.107 21.516 187.811 21.176 187.635 20.752L188.535 20.236C188.631 20.524 188.811 20.752 189.075 20.92C189.339 21.088 189.655 21.172 190.023 21.172C190.367 21.172 190.651 21.108 190.875 20.98C191.099 20.844 191.211 20.636 191.211 20.356C191.211 20.124 191.095 19.94 190.863 19.804C190.631 19.66 190.351 19.548 190.023 19.468C189.695 19.38 189.367 19.28 189.039 19.168C188.711 19.056 188.431 18.872 188.199 18.616C187.967 18.36 187.851 18.032 187.851 17.632C187.851 17.112 188.051 16.684 188.451 16.348C188.859 16.012 189.367 15.844 189.975 15.844C190.463 15.844 190.895 15.956 191.271 16.18C191.655 16.396 191.943 16.7 192.135 17.092L191.259 17.584C191.043 17.072 190.615 16.816 189.975 16.816C189.679 16.816 189.427 16.888 189.219 17.032C189.011 17.168 188.907 17.364 188.907 17.62ZM196.458 14.452C195.402 14.364 194.874 14.82 194.874 15.82V16H196.458V17.008H194.874V22H193.83V17.008H192.87V16H193.83V15.82C193.83 15.012 194.054 14.4 194.502 13.984C194.958 13.568 195.61 13.388 196.458 13.444V14.452ZM201.393 16H202.437V22H201.393V21.136C200.969 21.816 200.321 22.156 199.449 22.156C198.745 22.156 198.181 21.936 197.757 21.496C197.333 21.048 197.121 20.444 197.121 19.684V16H198.165V19.624C198.165 20.112 198.297 20.492 198.561 20.764C198.825 21.028 199.189 21.16 199.653 21.16C200.173 21.16 200.593 21 200.913 20.68C201.233 20.352 201.393 19.852 201.393 19.18V16ZM204.026 22V13.24H205.07V22H204.026ZM206.663 22V13.24H207.707V22H206.663ZM213.488 16H214.604L212.156 22.372C211.9 23.052 211.54 23.568 211.076 23.92C210.62 24.28 210.092 24.44 209.492 24.4V23.428C210.228 23.484 210.768 23.076 211.112 22.204L211.22 21.976L208.604 16H209.72L211.76 20.704L213.488 16ZM21.692 35.62C21.692 35.852 21.808 36.04 22.04 36.184C22.272 36.32 22.552 36.432 22.88 36.52C23.208 36.6 23.536 36.696 23.864 36.808C24.192 36.912 24.472 37.096 24.704 37.36C24.936 37.616 25.052 37.948 25.052 38.356C25.052 38.9 24.84 39.336 24.416 39.664C24 39.992 23.464 40.156 22.808 40.156C22.224 40.156 21.724 40.028 21.308 39.772C20.892 39.516 20.596 39.176 20.42 38.752L21.32 38.236C21.416 38.524 21.596 38.752 21.86 38.92C22.124 39.088 22.44 39.172 22.808 39.172C23.152 39.172 23.436 39.108 23.66 38.98C23.884 38.844 23.996 38.636 23.996 38.356C23.996 38.124 23.88 37.94 23.648 37.804C23.416 37.66 23.136 37.548 22.808 37.468C22.48 37.38 22.152 37.28 21.824 37.168C21.496 37.056 21.216 36.872 20.984 36.616C20.752 36.36 20.636 36.032 20.636 35.632C20.636 35.112 20.836 34.684 21.236 34.348C21.644 34.012 22.152 33.844 22.76 33.844C23.248 33.844 23.68 33.956 24.056 34.18C24.44 34.396 24.728 34.7 24.92 35.092L24.044 35.584C23.828 35.072 23.4 34.816 22.76 34.816C22.464 34.816 22.212 34.888 22.004 35.032C21.796 35.168 21.692 35.364 21.692 35.62ZM31.092 34H32.136V40H31.092V38.968C30.572 39.76 29.816 40.156 28.824 40.156C27.984 40.156 27.268 39.852 26.676 39.244C26.084 38.628 25.788 37.88 25.788 37C25.788 36.12 26.084 35.376 26.676 34.768C27.268 34.152 27.984 33.844 28.824 33.844C29.816 33.844 30.572 34.24 31.092 35.032V34ZM28.956 39.148C29.564 39.148 30.072 38.944 30.48 38.536C30.888 38.12 31.092 37.608 31.092 37C31.092 36.392 30.888 35.884 30.48 35.476C30.072 35.06 29.564 34.852 28.956 34.852C28.356 34.852 27.852 35.06 27.444 35.476C27.036 35.884 26.832 36.392 26.832 37C26.832 37.608 27.036 38.12 27.444 38.536C27.852 38.944 28.356 39.148 28.956 39.148ZM37.9178 34H39.0458L36.6458 40H35.4218L33.0218 34H34.1498L36.0338 38.884L37.9178 34ZM40.4263 37.48C40.5303 38.016 40.7743 38.432 41.1583 38.728C41.5503 39.024 42.0303 39.172 42.5983 39.172C43.3903 39.172 43.9663 38.88 44.3263 38.296L45.2143 38.8C44.6303 39.704 43.7503 40.156 42.5743 40.156C41.6223 40.156 40.8463 39.86 40.2463 39.268C39.6543 38.668 39.3583 37.912 39.3583 37C39.3583 36.096 39.6503 35.344 40.2343 34.744C40.8183 34.144 41.5743 33.844 42.5023 33.844C43.3823 33.844 44.0983 34.156 44.6503 34.78C45.2103 35.396 45.4903 36.14 45.4903 37.012C45.4903 37.164 45.4783 37.32 45.4543 37.48H40.4263ZM42.5023 34.828C41.9423 34.828 41.4783 34.988 41.1103 35.308C40.7423 35.62 40.5143 36.04 40.4263 36.568H44.4343C44.3463 36 44.1223 35.568 43.7623 35.272C43.4023 34.976 42.9823 34.828 42.5023 34.828ZM51.6467 31.6H52.6907V40H51.6467V38.968C51.1267 39.76 50.3707 40.156 49.3787 40.156C48.5387 40.156 47.8227 39.852 47.2307 39.244C46.6387 38.628 46.3427 37.88 46.3427 37C46.3427 36.12 46.6387 35.376 47.2307 34.768C47.8227 34.152 48.5387 33.844 49.3787 33.844C50.3707 33.844 51.1267 34.24 51.6467 35.032V31.6ZM49.5107 39.148C50.1187 39.148 50.6267 38.944 51.0347 38.536C51.4427 38.12 51.6467 37.608 51.6467 37C51.6467 36.392 51.4427 35.884 51.0347 35.476C50.6267 35.06 50.1187 34.852 49.5107 34.852C48.9107 34.852 48.4067 35.06 47.9987 35.476C47.5907 35.884 47.3867 36.392 47.3867 37C47.3867 37.608 47.5907 38.12 47.9987 38.536C48.4067 38.944 48.9107 39.148 49.5107 39.148ZM65.2405 31.6V40H64.1365V33.436L61.3885 38.008H61.2445L58.4965 33.448V40H57.3805V31.6H58.6405L61.3165 36.04L63.9805 31.6H65.2405ZM71.8967 34H72.9407V40H71.8967V38.968C71.3767 39.76 70.6207 40.156 69.6287 40.156C68.7887 40.156 68.0727 39.852 67.4807 39.244C66.8887 38.628 66.5927 37.88 66.5927 37C66.5927 36.12 66.8887 35.376 67.4807 34.768C68.0727 34.152 68.7887 33.844 69.6287 33.844C70.6207 33.844 71.3767 34.24 71.8967 35.032V34ZM69.7607 39.148C70.3687 39.148 70.8767 38.944 71.2847 38.536C71.6927 38.12 71.8967 37.608 71.8967 37C71.8967 36.392 71.6927 35.884 71.2847 35.476C70.8767 35.06 70.3687 34.852 69.7607 34.852C69.1607 34.852 68.6567 35.06 68.2487 35.476C67.8407 35.884 67.6367 36.392 67.6367 37C67.6367 37.608 67.8407 38.12 68.2487 38.536C68.6567 38.944 69.1607 39.148 69.7607 39.148ZM75.5665 35.008C75.9105 34.264 76.5345 33.892 77.4385 33.892V34.984C76.9265 34.96 76.4865 35.096 76.1185 35.392C75.7505 35.688 75.5665 36.164 75.5665 36.82V40H74.5225V34H75.5665V35.008ZM79.1373 35.62C79.1373 35.852 79.2533 36.04 79.4853 36.184C79.7173 36.32 79.9973 36.432 80.3253 36.52C80.6533 36.6 80.9813 36.696 81.3093 36.808C81.6373 36.912 81.9173 37.096 82.1493 37.36C82.3813 37.616 82.4973 37.948 82.4973 38.356C82.4973 38.9 82.2853 39.336 81.8613 39.664C81.4453 39.992 80.9093 40.156 80.2533 40.156C79.6693 40.156 79.1693 40.028 78.7533 39.772C78.3373 39.516 78.0413 39.176 77.8653 38.752L78.7653 38.236C78.8613 38.524 79.0413 38.752 79.3053 38.92C79.5693 39.088 79.8853 39.172 80.2533 39.172C80.5973 39.172 80.8813 39.108 81.1053 38.98C81.3293 38.844 81.4413 38.636 81.4413 38.356C81.4413 38.124 81.3253 37.94 81.0933 37.804C80.8613 37.66 80.5813 37.548 80.2533 37.468C79.9253 37.38 79.5973 37.28 79.2693 37.168C78.9413 37.056 78.6613 36.872 78.4293 36.616C78.1973 36.36 78.0813 36.032 78.0813 35.632C78.0813 35.112 78.2813 34.684 78.6813 34.348C79.0893 34.012 79.5973 33.844 80.2053 33.844C80.6933 33.844 81.1253 33.956 81.5013 34.18C81.8853 34.396 82.1733 34.7 82.3653 35.092L81.4893 35.584C81.2733 35.072 80.8453 34.816 80.2053 34.816C79.9093 34.816 79.6573 34.888 79.4493 35.032C79.2413 35.168 79.1373 35.364 79.1373 35.62ZM91.7014 34H92.7454V40H91.7014V38.968C91.1814 39.76 90.4254 40.156 89.4334 40.156C88.5934 40.156 87.8774 39.852 87.2854 39.244C86.6934 38.628 86.3974 37.88 86.3974 37C86.3974 36.12 86.6934 35.376 87.2854 34.768C87.8774 34.152 88.5934 33.844 89.4334 33.844C90.4254 33.844 91.1814 34.24 91.7014 35.032V34ZM89.5654 39.148C90.1734 39.148 90.6814 38.944 91.0894 38.536C91.4974 38.12 91.7014 37.608 91.7014 37C91.7014 36.392 91.4974 35.884 91.0894 35.476C90.6814 35.06 90.1734 34.852 89.5654 34.852C88.9654 34.852 88.4614 35.06 88.0534 35.476C87.6454 35.884 87.4414 36.392 87.4414 37C87.4414 37.608 87.6454 38.12 88.0534 38.536C88.4614 38.944 88.9654 39.148 89.5654 39.148ZM97.3152 33.844C98.0192 33.844 98.5832 34.068 99.0072 34.516C99.4312 34.956 99.6432 35.556 99.6432 36.316V40H98.5992V36.376C98.5992 35.888 98.4672 35.512 98.2032 35.248C97.9392 34.976 97.5752 34.84 97.1112 34.84C96.5912 34.84 96.1712 35.004 95.8512 35.332C95.5312 35.652 95.3712 36.148 95.3712 36.82V40H94.3272V34H95.3712V34.864C95.7952 34.184 96.4432 33.844 97.3152 33.844ZM106.069 31.6H107.113V40H106.069V38.968C105.549 39.76 104.793 40.156 103.801 40.156C102.961 40.156 102.245 39.852 101.653 39.244C101.061 38.628 100.765 37.88 100.765 37C100.765 36.12 101.061 35.376 101.653 34.768C102.245 34.152 102.961 33.844 103.801 33.844C104.793 33.844 105.549 34.24 106.069 35.032V31.6ZM103.933 39.148C104.541 39.148 105.049 38.944 105.457 38.536C105.865 38.12 106.069 37.608 106.069 37C106.069 36.392 105.865 35.884 105.457 35.476C105.049 35.06 104.541 34.852 103.933 34.852C103.333 34.852 102.829 35.06 102.421 35.476C102.013 35.884 101.809 36.392 101.809 37C101.809 37.608 102.013 38.12 102.421 38.536C102.829 38.944 103.333 39.148 103.933 39.148ZM114.514 40.156C113.73 40.156 113.058 39.972 112.498 39.604C111.946 39.236 111.558 38.732 111.334 38.092L112.294 37.54C112.622 38.556 113.37 39.064 114.538 39.064C115.114 39.064 115.554 38.948 115.858 38.716C116.162 38.476 116.314 38.16 116.314 37.768C116.314 37.368 116.162 37.068 115.858 36.868C115.554 36.668 115.046 36.456 114.334 36.232C113.982 36.12 113.714 36.032 113.53 35.968C113.346 35.896 113.114 35.792 112.834 35.656C112.562 35.512 112.358 35.368 112.222 35.224C112.086 35.072 111.962 34.876 111.85 34.636C111.746 34.396 111.694 34.124 111.694 33.82C111.694 33.092 111.95 32.516 112.462 32.092C112.974 31.66 113.598 31.444 114.334 31.444C114.998 31.444 115.574 31.612 116.062 31.948C116.558 32.284 116.93 32.728 117.178 33.28L116.242 33.82C115.882 32.956 115.246 32.524 114.334 32.524C113.878 32.524 113.51 32.636 113.23 32.86C112.95 33.084 112.81 33.388 112.81 33.772C112.81 34.14 112.942 34.42 113.206 34.612C113.47 34.804 113.926 35.004 114.574 35.212C114.806 35.284 114.97 35.336 115.066 35.368C115.162 35.4 115.31 35.456 115.51 35.536C115.718 35.616 115.87 35.68 115.966 35.728C116.062 35.776 116.19 35.844 116.35 35.932C116.518 36.02 116.642 36.104 116.722 36.184C116.802 36.264 116.894 36.364 116.998 36.484C117.11 36.596 117.19 36.712 117.238 36.832C117.286 36.952 117.326 37.092 117.358 37.252C117.398 37.404 117.418 37.568 117.418 37.744C117.418 38.48 117.15 39.068 116.614 39.508C116.078 39.94 115.378 40.156 114.514 40.156ZM123.74 34H124.784V40H123.74V38.968C123.22 39.76 122.464 40.156 121.472 40.156C120.632 40.156 119.916 39.852 119.324 39.244C118.732 38.628 118.436 37.88 118.436 37C118.436 36.12 118.732 35.376 119.324 34.768C119.916 34.152 120.632 33.844 121.472 33.844C122.464 33.844 123.22 34.24 123.74 35.032V34ZM121.604 39.148C122.212 39.148 122.72 38.944 123.128 38.536C123.536 38.12 123.74 37.608 123.74 37C123.74 36.392 123.536 35.884 123.128 35.476C122.72 35.06 122.212 34.852 121.604 34.852C121.004 34.852 120.5 35.06 120.092 35.476C119.684 35.884 119.48 36.392 119.48 37C119.48 37.608 119.684 38.12 120.092 38.536C120.5 38.944 121.004 39.148 121.604 39.148ZM129.63 35.008H128.034V38.26C128.034 38.556 128.09 38.768 128.202 38.896C128.322 39.016 128.502 39.08 128.742 39.088C128.982 39.088 129.278 39.08 129.63 39.064V40C128.718 40.12 128.05 40.048 127.626 39.784C127.202 39.512 126.99 39.004 126.99 38.26V35.008H125.802V34H126.99V32.632L128.034 32.32V34H129.63V35.008ZM135.041 34H136.085V40H135.041V39.136C134.617 39.816 133.969 40.156 133.097 40.156C132.393 40.156 131.829 39.936 131.405 39.496C130.981 39.048 130.769 38.444 130.769 37.684V34H131.813V37.624C131.813 38.112 131.945 38.492 132.209 38.764C132.473 39.028 132.837 39.16 133.301 39.16C133.821 39.16 134.241 39 134.561 38.68C134.881 38.352 135.041 37.852 135.041 37.18V34ZM138.719 35.008C139.063 34.264 139.687 33.892 140.591 33.892V34.984C140.079 34.96 139.639 35.096 139.271 35.392C138.903 35.688 138.719 36.164 138.719 36.82V40H137.675V34H138.719V35.008ZM144.6 33.844C145.304 33.844 145.868 34.068 146.292 34.516C146.716 34.956 146.928 35.556 146.928 36.316V40H145.884V36.376C145.884 35.888 145.752 35.512 145.488 35.248C145.224 34.976 144.86 34.84 144.396 34.84C143.876 34.84 143.456 35.004 143.136 35.332C142.816 35.652 142.656 36.148 142.656 36.82V40H141.612V34H142.656V34.864C143.08 34.184 143.728 33.844 144.6 33.844ZM151.914 32.908C151.714 32.908 151.546 32.84 151.41 32.704C151.274 32.568 151.206 32.404 151.206 32.212C151.206 32.02 151.274 31.856 151.41 31.72C151.546 31.576 151.714 31.504 151.914 31.504C152.106 31.504 152.27 31.576 152.406 31.72C152.542 31.856 152.61 32.02 152.61 32.212C152.61 32.404 152.542 32.568 152.406 32.704C152.27 32.84 152.106 32.908 151.914 32.908ZM151.386 40V34H152.43V40H151.386ZM157.01 33.844C157.714 33.844 158.278 34.068 158.702 34.516C159.126 34.956 159.338 35.556 159.338 36.316V40H158.294V36.376C158.294 35.888 158.162 35.512 157.898 35.248C157.634 34.976 157.27 34.84 156.806 34.84C156.286 34.84 155.866 35.004 155.546 35.332C155.226 35.652 155.066 36.148 155.066 36.82V40H154.022V34H155.066V34.864C155.49 34.184 156.138 33.844 157.01 33.844ZM168.764 34H169.808V40H168.764V38.968C168.244 39.76 167.488 40.156 166.496 40.156C165.656 40.156 164.94 39.852 164.348 39.244C163.756 38.628 163.46 37.88 163.46 37C163.46 36.12 163.756 35.376 164.348 34.768C164.94 34.152 165.656 33.844 166.496 33.844C167.488 33.844 168.244 34.24 168.764 35.032V34ZM166.628 39.148C167.236 39.148 167.744 38.944 168.152 38.536C168.56 38.12 168.764 37.608 168.764 37C168.764 36.392 168.56 35.884 168.152 35.476C167.744 35.06 167.236 34.852 166.628 34.852C166.028 34.852 165.524 35.06 165.116 35.476C164.708 35.884 164.504 36.392 164.504 37C164.504 37.608 164.708 38.12 165.116 38.536C165.524 38.944 166.028 39.148 166.628 39.148ZM176.358 31.6H177.402V40H176.358V38.968C175.838 39.76 175.082 40.156 174.09 40.156C173.25 40.156 172.534 39.852 171.942 39.244C171.35 38.628 171.054 37.88 171.054 37C171.054 36.12 171.35 35.376 171.942 34.768C172.534 34.152 173.25 33.844 174.09 33.844C175.082 33.844 175.838 34.24 176.358 35.032V31.6ZM174.222 39.148C174.83 39.148 175.338 38.944 175.746 38.536C176.154 38.12 176.358 37.608 176.358 37C176.358 36.392 176.154 35.884 175.746 35.476C175.338 35.06 174.83 34.852 174.222 34.852C173.622 34.852 173.118 35.06 172.71 35.476C172.302 35.884 172.098 36.392 172.098 37C172.098 37.608 172.302 38.12 172.71 38.536C173.118 38.944 173.622 39.148 174.222 39.148ZM183.951 31.6H184.995V40H183.951V38.968C183.431 39.76 182.675 40.156 181.683 40.156C180.843 40.156 180.127 39.852 179.535 39.244C178.943 38.628 178.647 37.88 178.647 37C178.647 36.12 178.943 35.376 179.535 34.768C180.127 34.152 180.843 33.844 181.683 33.844C182.675 33.844 183.431 34.24 183.951 35.032V31.6ZM181.815 39.148C182.423 39.148 182.931 38.944 183.339 38.536C183.747 38.12 183.951 37.608 183.951 37C183.951 36.392 183.747 35.884 183.339 35.476C182.931 35.06 182.423 34.852 181.815 34.852C181.215 34.852 180.711 35.06 180.303 35.476C179.895 35.884 179.691 36.392 179.691 37C179.691 37.608 179.895 38.12 180.303 38.536C180.711 38.944 181.215 39.148 181.815 39.148ZM187.105 32.908C186.905 32.908 186.737 32.84 186.601 32.704C186.465 32.568 186.397 32.404 186.397 32.212C186.397 32.02 186.465 31.856 186.601 31.72C186.737 31.576 186.905 31.504 187.105 31.504C187.297 31.504 187.461 31.576 187.597 31.72C187.733 31.856 187.801 32.02 187.801 32.212C187.801 32.404 187.733 32.568 187.597 32.704C187.461 32.84 187.297 32.908 187.105 32.908ZM186.577 40V34H187.621V40H186.577ZM192.478 35.008H190.882V38.26C190.882 38.556 190.938 38.768 191.05 38.896C191.17 39.016 191.35 39.08 191.59 39.088C191.83 39.088 192.126 39.08 192.478 39.064V40C191.566 40.12 190.898 40.048 190.474 39.784C190.05 39.512 189.838 39.004 189.838 38.26V35.008H188.65V34H189.838V32.632L190.882 32.32V34H192.478V35.008ZM194.242 32.908C194.042 32.908 193.874 32.84 193.738 32.704C193.602 32.568 193.534 32.404 193.534 32.212C193.534 32.02 193.602 31.856 193.738 31.72C193.874 31.576 194.042 31.504 194.242 31.504C194.434 31.504 194.598 31.576 194.734 31.72C194.87 31.856 194.938 32.02 194.938 32.212C194.938 32.404 194.87 32.568 194.734 32.704C194.598 32.84 194.434 32.908 194.242 32.908ZM193.714 40V34H194.758V40H193.714ZM201.415 39.244C200.799 39.852 200.051 40.156 199.171 40.156C198.291 40.156 197.543 39.852 196.927 39.244C196.319 38.636 196.015 37.888 196.015 37C196.015 36.112 196.319 35.364 196.927 34.756C197.543 34.148 198.291 33.844 199.171 33.844C200.051 33.844 200.799 34.148 201.415 34.756C202.031 35.364 202.339 36.112 202.339 37C202.339 37.888 202.031 38.636 201.415 39.244ZM199.171 39.136C199.771 39.136 200.275 38.932 200.683 38.524C201.091 38.116 201.295 37.608 201.295 37C201.295 36.392 201.091 35.884 200.683 35.476C200.275 35.068 199.771 34.864 199.171 34.864C198.579 34.864 198.079 35.068 197.671 35.476C197.263 35.884 197.059 36.392 197.059 37C197.059 37.608 197.263 38.116 197.671 38.524C198.079 38.932 198.579 39.136 199.171 39.136ZM206.557 33.844C207.261 33.844 207.825 34.068 208.249 34.516C208.673 34.956 208.885 35.556 208.885 36.316V40H207.841V36.376C207.841 35.888 207.709 35.512 207.445 35.248C207.181 34.976 206.817 34.84 206.353 34.84C205.833 34.84 205.413 35.004 205.093 35.332C204.773 35.652 204.613 36.148 204.613 36.82V40H203.569V34H204.613V34.864C205.037 34.184 205.685 33.844 206.557 33.844ZM218.407 39.244C217.791 39.852 217.043 40.156 216.163 40.156C215.283 40.156 214.535 39.852 213.919 39.244C213.311 38.636 213.007 37.888 213.007 37C213.007 36.112 213.311 35.364 213.919 34.756C214.535 34.148 215.283 33.844 216.163 33.844C217.043 33.844 217.791 34.148 218.407 34.756C219.023 35.364 219.331 36.112 219.331 37C219.331 37.888 219.023 38.636 218.407 39.244ZM216.163 39.136C216.763 39.136 217.267 38.932 217.675 38.524C218.083 38.116 218.287 37.608 218.287 37C218.287 36.392 218.083 35.884 217.675 35.476C217.267 35.068 216.763 34.864 216.163 34.864C215.571 34.864 215.071 35.068 214.663 35.476C214.255 35.884 214.051 36.392 214.051 37C214.051 37.608 214.255 38.116 214.663 38.524C215.071 38.932 215.571 39.136 216.163 39.136ZM223.55 33.844C224.254 33.844 224.818 34.068 225.242 34.516C225.666 34.956 225.878 35.556 225.878 36.316V40H224.834V36.376C224.834 35.888 224.702 35.512 224.438 35.248C224.174 34.976 223.81 34.84 223.346 34.84C222.826 34.84 222.406 35.004 222.086 35.332C221.766 35.652 221.606 36.148 221.606 36.82V40H220.562V34H221.606V34.864C222.03 34.184 222.678 33.844 223.55 33.844ZM22.016 56.944H25.916V58H20.9V49.6H25.856V50.656H22.016V53.236H25.556V54.28H22.016V56.944ZM31.9944 52H33.0384V58H31.9944V56.968C31.4744 57.76 30.7184 58.156 29.7264 58.156C28.8864 58.156 28.1704 57.852 27.5784 57.244C26.9864 56.628 26.6904 55.88 26.6904 55C26.6904 54.12 26.9864 53.376 27.5784 52.768C28.1704 52.152 28.8864 51.844 29.7264 51.844C30.7184 51.844 31.4744 52.24 31.9944 53.032V52ZM29.8584 57.148C30.4664 57.148 30.9744 56.944 31.3824 56.536C31.7904 56.12 31.9944 55.608 31.9944 55C31.9944 54.392 31.7904 53.884 31.3824 53.476C30.9744 53.06 30.4664 52.852 29.8584 52.852C29.2584 52.852 28.7544 53.06 28.3464 53.476C27.9384 53.884 27.7344 54.392 27.7344 55C27.7344 55.608 27.9384 56.12 28.3464 56.536C28.7544 56.944 29.2584 57.148 29.8584 57.148ZM35.6641 53.008C36.0081 52.264 36.6321 51.892 37.5361 51.892V52.984C37.0241 52.96 36.5841 53.096 36.2161 53.392C35.8481 53.688 35.6641 54.164 35.6641 54.82V58H34.6201V52H35.6641V53.008ZM41.9623 53.008H40.3663V56.26C40.3663 56.556 40.4223 56.768 40.5343 56.896C40.6543 57.016 40.8343 57.08 41.0742 57.088C41.3142 57.088 41.6103 57.08 41.9623 57.064V58C41.0503 58.12 40.3823 58.048 39.9583 57.784C39.5343 57.512 39.3223 57.004 39.3223 56.26V53.008H38.1343V52H39.3223V50.632L40.3663 50.32V52H41.9623V53.008ZM46.1863 51.844C46.8903 51.844 47.4543 52.068 47.8783 52.516C48.3023 52.956 48.5143 53.556 48.5143 54.316V58H47.4703V54.376C47.4703 53.888 47.3383 53.512 47.0743 53.248C46.8103 52.976 46.4463 52.84 45.9823 52.84C45.4623 52.84 45.0423 53.004 44.7223 53.332C44.4023 53.652 44.2423 54.148 44.2423 54.82V58H43.1982V49.6H44.2423V52.864C44.6663 52.184 45.3143 51.844 46.1863 51.844ZM50.6317 58.132C50.4157 58.132 50.2317 58.056 50.0797 57.904C49.9277 57.752 49.8517 57.568 49.8517 57.352C49.8517 57.136 49.9277 56.952 50.0797 56.8C50.2317 56.648 50.4157 56.572 50.6317 56.572C50.8557 56.572 51.0397 56.648 51.1837 56.8C51.3357 56.952 51.4117 57.136 51.4117 57.352C51.4117 57.568 51.3357 57.752 51.1837 57.904C51.0397 58.056 50.8557 58.132 50.6317 58.132Z" fill="#1A1A1A"/>
<path d="M11.9581 81.748C11.7021 82.012 11.3861 82.144 11.0101 82.144C10.6341 82.144 10.3141 82.012 10.0501 81.748C9.78613 81.484 9.65413 81.164 9.65413 80.788C9.65413 80.412 9.78613 80.096 10.0501 79.84C10.3141 79.576 10.6341 79.444 11.0101 79.444C11.3861 79.444 11.7021 79.576 11.9581 79.84C12.2221 80.096 12.3541 80.412 12.3541 80.788C12.3541 81.164 12.2221 81.484 11.9581 81.748ZM26.276 76.6V77.656H23.792V85H22.688V77.656H20.216V76.6H26.276ZM30.2605 78.844C30.9645 78.844 31.5285 79.068 31.9525 79.516C32.3765 79.956 32.5885 80.556 32.5885 81.316V85H31.5445V81.376C31.5445 80.888 31.4125 80.512 31.1485 80.248C30.8845 79.976 30.5205 79.84 30.0565 79.84C29.5365 79.84 29.1165 80.004 28.7965 80.332C28.4765 80.652 28.3165 81.148 28.3165 81.82V85H27.2725V76.6H28.3165V79.864C28.7405 79.184 29.3885 78.844 30.2605 78.844ZM34.7779 82.48C34.8819 83.016 35.1259 83.432 35.5099 83.728C35.9019 84.024 36.3819 84.172 36.9499 84.172C37.7419 84.172 38.3179 83.88 38.6779 83.296L39.5659 83.8C38.9819 84.704 38.1019 85.156 36.9259 85.156C35.9739 85.156 35.1979 84.86 34.5979 84.268C34.0059 83.668 33.7099 82.912 33.7099 82C33.7099 81.096 34.0019 80.344 34.5859 79.744C35.1699 79.144 35.9259 78.844 36.8539 78.844C37.7339 78.844 38.4499 79.156 39.0019 79.78C39.5619 80.396 39.8419 81.14 39.8419 82.012C39.8419 82.164 39.8299 82.32 39.8059 82.48H34.7779ZM36.8539 79.828C36.2939 79.828 35.8299 79.988 35.4619 80.308C35.0939 80.62 34.8659 81.04 34.7779 81.568H38.7859C38.6979 81 38.4739 80.568 38.1139 80.272C37.7539 79.976 37.3339 79.828 36.8539 79.828ZM45.266 83.944H49.166V85H44.15V76.6H49.106V77.656H45.266V80.236H48.806V81.28H45.266V83.944ZM53.0964 85.156C52.1924 85.156 51.4404 84.856 50.8404 84.256C50.2404 83.648 49.9404 82.896 49.9404 82C49.9404 81.104 50.2404 80.356 50.8404 79.756C51.4404 79.148 52.1924 78.844 53.0964 78.844C53.6884 78.844 54.2204 78.988 54.6924 79.276C55.1644 79.556 55.5164 79.936 55.7484 80.416L54.8724 80.92C54.7204 80.6 54.4844 80.344 54.1644 80.152C53.8524 79.96 53.4964 79.864 53.0964 79.864C52.4964 79.864 51.9924 80.068 51.5844 80.476C51.1844 80.884 50.9844 81.392 50.9844 82C50.9844 82.6 51.1844 83.104 51.5844 83.512C51.9924 83.92 52.4964 84.124 53.0964 84.124C53.4964 84.124 53.8564 84.032 54.1764 83.848C54.4964 83.656 54.7404 83.4 54.9084 83.08L55.7964 83.596C55.5404 84.068 55.1724 84.448 54.6924 84.736C54.2124 85.016 53.6804 85.156 53.0964 85.156ZM59.8152 78.844C60.5192 78.844 61.0832 79.068 61.5072 79.516C61.9312 79.956 62.1432 80.556 62.1432 81.316V85H61.0992V81.376C61.0992 80.888 60.9672 80.512 60.7032 80.248C60.4392 79.976 60.0752 79.84 59.6112 79.84C59.0912 79.84 58.6712 80.004 58.3512 80.332C58.0312 80.652 57.8712 81.148 57.8712 81.82V85H56.8272V76.6H57.8712V79.864C58.2952 79.184 58.9432 78.844 59.8152 78.844ZM68.6646 84.244C68.0486 84.852 67.3006 85.156 66.4206 85.156C65.5406 85.156 64.7926 84.852 64.1766 84.244C63.5686 83.636 63.2646 82.888 63.2646 82C63.2646 81.112 63.5686 80.364 64.1766 79.756C64.7926 79.148 65.5406 78.844 66.4206 78.844C67.3006 78.844 68.0486 79.148 68.6646 79.756C69.2806 80.364 69.5886 81.112 69.5886 82C69.5886 82.888 69.2806 83.636 68.6646 84.244ZM66.4206 84.136C67.0206 84.136 67.5246 83.932 67.9326 83.524C68.3406 83.116 68.5446 82.608 68.5446 82C68.5446 81.392 68.3406 80.884 67.9326 80.476C67.5246 80.068 67.0206 79.864 66.4206 79.864C65.8286 79.864 65.3286 80.068 64.9206 80.476C64.5126 80.884 64.3086 81.392 64.3086 82C64.3086 82.608 64.5126 83.116 64.9206 83.524C65.3286 83.932 65.8286 84.136 66.4206 84.136ZM74.785 79H75.913L73.513 85H72.289L69.889 79H71.017L72.901 83.884L74.785 79ZM77.2935 82.48C77.3975 83.016 77.6415 83.432 78.0255 83.728C78.4175 84.024 78.8975 84.172 79.4655 84.172C80.2575 84.172 80.8335 83.88 81.1935 83.296L82.0815 83.8C81.4975 84.704 80.6175 85.156 79.4415 85.156C78.4895 85.156 77.7135 84.86 77.1135 84.268C76.5215 83.668 76.2255 82.912 76.2255 82C76.2255 81.096 76.5175 80.344 77.1015 79.744C77.6855 79.144 78.4415 78.844 79.3695 78.844C80.2495 78.844 80.9655 79.156 81.5175 79.78C82.0775 80.396 82.3575 81.14 82.3575 82.012C82.3575 82.164 82.3455 82.32 82.3215 82.48H77.2935ZM79.3695 79.828C78.8095 79.828 78.3455 79.988 77.9775 80.308C77.6095 80.62 77.3815 81.04 77.2935 81.568H81.3015C81.2135 81 80.9895 80.568 80.6295 80.272C80.2695 79.976 79.8495 79.828 79.3695 79.828ZM84.6016 80.008C84.9456 79.264 85.5696 78.892 86.4736 78.892V79.984C85.9616 79.96 85.5216 80.096 85.1536 80.392C84.7856 80.688 84.6016 81.164 84.6016 81.82V85H83.5576V79H84.6016V80.008ZM88.1725 80.62C88.1725 80.852 88.2885 81.04 88.5205 81.184C88.7525 81.32 89.0325 81.432 89.3605 81.52C89.6885 81.6 90.0165 81.696 90.3445 81.808C90.6725 81.912 90.9525 82.096 91.1845 82.36C91.4165 82.616 91.5325 82.948 91.5325 83.356C91.5325 83.9 91.3205 84.336 90.8965 84.664C90.4805 84.992 89.9445 85.156 89.2885 85.156C88.7045 85.156 88.2045 85.028 87.7885 84.772C87.3725 84.516 87.0765 84.176 86.9005 83.752L87.8005 83.236C87.8965 83.524 88.0765 83.752 88.3405 83.92C88.6045 84.088 88.9205 84.172 89.2885 84.172C89.6325 84.172 89.9165 84.108 90.1405 83.98C90.3645 83.844 90.4765 83.636 90.4765 83.356C90.4765 83.124 90.3605 82.94 90.1285 82.804C89.8965 82.66 89.6165 82.548 89.2885 82.468C88.9605 82.38 88.6325 82.28 88.3045 82.168C87.9765 82.056 87.6965 81.872 87.4645 81.616C87.2325 81.36 87.1165 81.032 87.1165 80.632C87.1165 80.112 87.3165 79.684 87.7165 79.348C88.1245 79.012 88.6325 78.844 89.2405 78.844C89.7285 78.844 90.1605 78.956 90.5365 79.18C90.9205 79.396 91.2085 79.7 91.4005 80.092L90.5245 80.584C90.3085 80.072 89.8805 79.816 89.2405 79.816C88.9445 79.816 88.6925 79.888 88.4845 80.032C88.2765 80.168 88.1725 80.364 88.1725 80.62ZM93.3365 82.48C93.4405 83.016 93.6845 83.432 94.0685 83.728C94.4605 84.024 94.9405 84.172 95.5085 84.172C96.3005 84.172 96.8765 83.88 97.2365 83.296L98.1245 83.8C97.5405 84.704 96.6605 85.156 95.4845 85.156C94.5325 85.156 93.7565 84.86 93.1565 84.268C92.5645 83.668 92.2685 82.912 92.2685 82C92.2685 81.096 92.5605 80.344 93.1445 79.744C93.7285 79.144 94.4845 78.844 95.4125 78.844C96.2925 78.844 97.0085 79.156 97.5605 79.78C98.1205 80.396 98.4005 81.14 98.4005 82.012C98.4005 82.164 98.3885 82.32 98.3645 82.48H93.3365ZM95.4125 79.828C94.8525 79.828 94.3885 79.988 94.0205 80.308C93.6525 80.62 93.4245 81.04 93.3365 81.568H97.3445C97.2565 81 97.0325 80.568 96.6725 80.272C96.3125 79.976 95.8925 79.828 95.4125 79.828ZM103.129 77.908C102.929 77.908 102.761 77.84 102.625 77.704C102.489 77.568 102.421 77.404 102.421 77.212C102.421 77.02 102.489 76.856 102.625 76.72C102.761 76.576 102.929 76.504 103.129 76.504C103.321 76.504 103.485 76.576 103.621 76.72C103.757 76.856 103.825 77.02 103.825 77.212C103.825 77.404 103.757 77.568 103.621 77.704C103.485 77.84 103.321 77.908 103.129 77.908ZM102.601 85V79H103.645V85H102.601ZM106.126 80.62C106.126 80.852 106.242 81.04 106.474 81.184C106.706 81.32 106.986 81.432 107.314 81.52C107.642 81.6 107.97 81.696 108.298 81.808C108.626 81.912 108.906 82.096 109.138 82.36C109.37 82.616 109.486 82.948 109.486 83.356C109.486 83.9 109.274 84.336 108.85 84.664C108.434 84.992 107.898 85.156 107.242 85.156C106.658 85.156 106.158 85.028 105.742 84.772C105.326 84.516 105.03 84.176 104.854 83.752L105.754 83.236C105.85 83.524 106.03 83.752 106.294 83.92C106.558 84.088 106.874 84.172 107.242 84.172C107.586 84.172 107.87 84.108 108.094 83.98C108.318 83.844 108.43 83.636 108.43 83.356C108.43 83.124 108.314 82.94 108.082 82.804C107.85 82.66 107.57 82.548 107.242 82.468C106.914 82.38 106.586 82.28 106.258 82.168C105.93 82.056 105.65 81.872 105.418 81.616C105.186 81.36 105.07 81.032 105.07 80.632C105.07 80.112 105.27 79.684 105.67 79.348C106.078 79.012 106.586 78.844 107.194 78.844C107.682 78.844 108.114 78.956 108.49 79.18C108.874 79.396 109.162 79.7 109.354 80.092L108.478 80.584C108.262 80.072 107.834 79.816 107.194 79.816C106.898 79.816 106.646 79.888 106.438 80.032C106.23 80.168 106.126 80.364 106.126 80.62ZM116.986 80.008H115.39V83.26C115.39 83.556 115.446 83.768 115.558 83.896C115.678 84.016 115.858 84.08 116.098 84.088C116.338 84.088 116.634 84.08 116.986 84.064V85C116.074 85.12 115.406 85.048 114.982 84.784C114.558 84.512 114.346 84.004 114.346 83.26V80.008H113.158V79H114.346V77.632L115.39 77.32V79H116.986V80.008ZM121.21 78.844C121.914 78.844 122.478 79.068 122.902 79.516C123.326 79.956 123.538 80.556 123.538 81.316V85H122.494V81.376C122.494 80.888 122.362 80.512 122.098 80.248C121.834 79.976 121.47 79.84 121.006 79.84C120.486 79.84 120.066 80.004 119.746 80.332C119.426 80.652 119.266 81.148 119.266 81.82V85H118.222V76.6H119.266V79.864C119.69 79.184 120.338 78.844 121.21 78.844ZM125.727 82.48C125.831 83.016 126.075 83.432 126.459 83.728C126.851 84.024 127.331 84.172 127.899 84.172C128.691 84.172 129.267 83.88 129.627 83.296L130.515 83.8C129.931 84.704 129.051 85.156 127.875 85.156C126.923 85.156 126.147 84.86 125.547 84.268C124.955 83.668 124.659 82.912 124.659 82C124.659 81.096 124.951 80.344 125.535 79.744C126.119 79.144 126.875 78.844 127.803 78.844C128.683 78.844 129.399 79.156 129.951 79.78C130.511 80.396 130.791 81.14 130.791 82.012C130.791 82.164 130.779 82.32 130.755 82.48H125.727ZM127.803 79.828C127.243 79.828 126.779 79.988 126.411 80.308C126.043 80.62 125.815 81.04 125.727 81.568H129.735C129.647 81 129.423 80.568 129.063 80.272C128.703 79.976 128.283 79.828 127.803 79.828ZM139.755 79V85H138.711V80.008H136.491V85H135.447V80.008H134.487V79H135.447V78.82C135.447 77.236 136.323 76.444 138.075 76.444C138.403 76.444 138.815 76.496 139.311 76.6V77.548C138.823 77.484 138.411 77.452 138.075 77.452C137.531 77.452 137.131 77.556 136.875 77.764C136.619 77.964 136.491 78.316 136.491 78.82V79H139.755ZM142.399 80.008C142.743 79.264 143.367 78.892 144.271 78.892V79.984C143.759 79.96 143.319 80.096 142.951 80.392C142.583 80.688 142.399 81.164 142.399 81.82V85H141.354V79H142.399V80.008ZM145.969 80.62C145.969 80.852 146.085 81.04 146.317 81.184C146.549 81.32 146.829 81.432 147.157 81.52C147.485 81.6 147.813 81.696 148.141 81.808C148.469 81.912 148.749 82.096 148.981 82.36C149.213 82.616 149.329 82.948 149.329 83.356C149.329 83.9 149.117 84.336 148.693 84.664C148.277 84.992 147.741 85.156 147.085 85.156C146.501 85.156 146.001 85.028 145.585 84.772C145.169 84.516 144.873 84.176 144.697 83.752L145.597 83.236C145.693 83.524 145.873 83.752 146.137 83.92C146.401 84.088 146.717 84.172 147.085 84.172C147.429 84.172 147.713 84.108 147.937 83.98C148.161 83.844 148.273 83.636 148.273 83.356C148.273 83.124 148.157 82.94 147.925 82.804C147.693 82.66 147.413 82.548 147.085 82.468C146.757 82.38 146.429 82.28 146.101 82.168C145.773 82.056 145.493 81.872 145.261 81.616C145.029 81.36 144.913 81.032 144.913 80.632C144.913 80.112 145.113 79.684 145.513 79.348C145.921 79.012 146.429 78.844 147.037 78.844C147.525 78.844 147.957 78.956 148.333 79.18C148.717 79.396 149.005 79.7 149.197 80.092L148.321 80.584C148.105 80.072 147.677 79.816 147.037 79.816C146.741 79.816 146.489 79.888 146.281 80.032C146.073 80.168 145.969 80.364 145.969 80.62ZM153.595 80.008H151.999V83.26C151.999 83.556 152.055 83.768 152.167 83.896C152.287 84.016 152.467 84.08 152.707 84.088C152.947 84.088 153.243 84.08 153.595 84.064V85C152.683 85.12 152.015 85.048 151.591 84.784C151.167 84.512 150.955 84.004 150.955 83.26V80.008H149.767V79H150.955V77.632L151.999 77.32V79H153.595V80.008ZM164.346 78.844C165.018 78.844 165.562 79.064 165.978 79.504C166.394 79.936 166.602 80.524 166.602 81.268V85H165.558V81.304C165.558 80.84 165.438 80.48 165.198 80.224C164.958 79.968 164.638 79.84 164.238 79.84C163.79 79.84 163.43 79.992 163.158 80.296C162.894 80.592 162.762 81.048 162.762 81.664V85H161.718V81.304C161.718 80.84 161.602 80.48 161.37 80.224C161.146 79.968 160.838 79.84 160.446 79.84C160.006 79.84 159.638 79.992 159.342 80.296C159.054 80.6 158.91 81.056 158.91 81.664V85H157.866V79H158.91V79.804C159.318 79.164 159.914 78.844 160.698 78.844C161.506 78.844 162.094 79.184 162.462 79.864C162.878 79.184 163.506 78.844 164.346 78.844ZM168.782 82.48C168.886 83.016 169.13 83.432 169.514 83.728C169.906 84.024 170.386 84.172 170.954 84.172C171.746 84.172 172.322 83.88 172.682 83.296L173.57 83.8C172.986 84.704 172.106 85.156 170.93 85.156C169.978 85.156 169.202 84.86 168.602 84.268C168.01 83.668 167.714 82.912 167.714 82C167.714 81.096 168.006 80.344 168.59 79.744C169.174 79.144 169.93 78.844 170.858 78.844C171.738 78.844 172.454 79.156 173.006 79.78C173.566 80.396 173.846 81.14 173.846 82.012C173.846 82.164 173.834 82.32 173.81 82.48H168.782ZM170.858 79.828C170.298 79.828 169.834 79.988 169.466 80.308C169.098 80.62 168.87 81.04 168.782 81.568H172.79C172.702 81 172.478 80.568 172.118 80.272C171.758 79.976 171.338 79.828 170.858 79.828ZM178.134 80.008H176.538V83.26C176.538 83.556 176.594 83.768 176.706 83.896C176.826 84.016 177.006 84.08 177.246 84.088C177.486 84.088 177.782 84.08 178.134 84.064V85C177.222 85.12 176.554 85.048 176.13 84.784C175.706 84.512 175.494 84.004 175.494 83.26V80.008H174.306V79H175.494V77.632L176.538 77.32V79H178.134V80.008ZM184.033 79H185.077V85H184.033V83.968C183.513 84.76 182.757 85.156 181.765 85.156C180.925 85.156 180.209 84.852 179.617 84.244C179.025 83.628 178.729 82.88 178.729 82C178.729 81.12 179.025 80.376 179.617 79.768C180.209 79.152 180.925 78.844 181.765 78.844C182.757 78.844 183.513 79.24 184.033 80.032V79ZM181.897 84.148C182.505 84.148 183.013 83.944 183.421 83.536C183.829 83.12 184.033 82.608 184.033 82C184.033 81.392 183.829 80.884 183.421 80.476C183.013 80.06 182.505 79.852 181.897 79.852C181.297 79.852 180.793 80.06 180.385 80.476C179.977 80.884 179.773 81.392 179.773 82C179.773 82.608 179.977 83.12 180.385 83.536C180.793 83.944 181.297 84.148 181.897 84.148ZM190.859 79H191.987L189.587 85H188.363L185.963 79H187.091L188.975 83.884L190.859 79ZM193.368 82.48C193.472 83.016 193.716 83.432 194.1 83.728C194.492 84.024 194.972 84.172 195.54 84.172C196.332 84.172 196.908 83.88 197.268 83.296L198.156 83.8C197.572 84.704 196.692 85.156 195.516 85.156C194.564 85.156 193.788 84.86 193.188 84.268C192.596 83.668 192.3 82.912 192.3 82C192.3 81.096 192.592 80.344 193.176 79.744C193.76 79.144 194.516 78.844 195.444 78.844C196.324 78.844 197.04 79.156 197.592 79.78C198.152 80.396 198.432 81.14 198.432 82.012C198.432 82.164 198.42 82.32 198.396 82.48H193.368ZM195.444 79.828C194.884 79.828 194.42 79.988 194.052 80.308C193.684 80.62 193.456 81.04 193.368 81.568H197.376C197.288 81 197.064 80.568 196.704 80.272C196.344 79.976 195.924 79.828 195.444 79.828ZM200.676 80.008C201.02 79.264 201.644 78.892 202.548 78.892V79.984C202.036 79.96 201.596 80.096 201.228 80.392C200.86 80.688 200.676 81.164 200.676 81.82V85H199.632V79H200.676V80.008ZM204.247 80.62C204.247 80.852 204.363 81.04 204.595 81.184C204.827 81.32 205.107 81.432 205.435 81.52C205.763 81.6 206.091 81.696 206.419 81.808C206.747 81.912 207.027 82.096 207.259 82.36C207.491 82.616 207.607 82.948 207.607 83.356C207.607 83.9 207.395 84.336 206.971 84.664C206.555 84.992 206.019 85.156 205.363 85.156C204.779 85.156 204.279 85.028 203.863 84.772C203.447 84.516 203.151 84.176 202.975 83.752L203.875 83.236C203.971 83.524 204.151 83.752 204.415 83.92C204.679 84.088 204.995 84.172 205.363 84.172C205.707 84.172 205.991 84.108 206.215 83.98C206.439 83.844 206.551 83.636 206.551 83.356C206.551 83.124 206.435 82.94 206.203 82.804C205.971 82.66 205.691 82.548 205.363 82.468C205.035 82.38 204.707 82.28 204.379 82.168C204.051 82.056 203.771 81.872 203.539 81.616C203.307 81.36 203.191 81.032 203.191 80.632C203.191 80.112 203.391 79.684 203.791 79.348C204.199 79.012 204.707 78.844 205.315 78.844C205.803 78.844 206.235 78.956 206.611 79.18C206.995 79.396 207.283 79.7 207.475 80.092L206.599 80.584C206.383 80.072 205.955 79.816 205.315 79.816C205.019 79.816 204.767 79.888 204.559 80.032C204.351 80.168 204.247 80.364 204.247 80.62ZM209.411 82.48C209.515 83.016 209.759 83.432 210.143 83.728C210.535 84.024 211.015 84.172 211.583 84.172C212.375 84.172 212.951 83.88 213.311 83.296L214.199 83.8C213.615 84.704 212.735 85.156 211.559 85.156C210.607 85.156 209.831 84.86 209.231 84.268C208.639 83.668 208.343 82.912 208.343 82C208.343 81.096 208.635 80.344 209.219 79.744C209.803 79.144 210.559 78.844 211.487 78.844C212.367 78.844 213.083 79.156 213.635 79.78C214.195 80.396 214.475 81.14 214.475 82.012C214.475 82.164 214.463 82.32 214.439 82.48H209.411ZM211.487 79.828C210.927 79.828 210.463 79.988 210.095 80.308C209.727 80.62 209.499 81.04 209.411 81.568H213.419C213.331 81 213.107 80.568 212.747 80.272C212.387 79.976 211.967 79.828 211.487 79.828ZM221.939 80.008H220.343V83.26C220.343 83.556 220.399 83.768 220.511 83.896C220.631 84.016 220.811 84.08 221.051 84.088C221.291 84.088 221.587 84.08 221.939 84.064V85C221.027 85.12 220.359 85.048 219.935 84.784C219.511 84.512 219.299 84.004 219.299 83.26V80.008H218.111V79H219.299V77.632L220.343 77.32V79H221.939V80.008ZM227.934 84.244C227.318 84.852 226.57 85.156 225.69 85.156C224.81 85.156 224.062 84.852 223.446 84.244C222.838 83.636 222.534 82.888 222.534 82C222.534 81.112 222.838 80.364 223.446 79.756C224.062 79.148 224.81 78.844 225.69 78.844C226.57 78.844 227.318 79.148 227.934 79.756C228.55 80.364 228.858 81.112 228.858 82C228.858 82.888 228.55 83.636 227.934 84.244ZM225.69 84.136C226.29 84.136 226.794 83.932 227.202 83.524C227.61 83.116 227.814 82.608 227.814 82C227.814 81.392 227.61 80.884 227.202 80.476C226.794 80.068 226.29 79.864 225.69 79.864C225.098 79.864 224.598 80.068 224.19 80.476C223.782 80.884 223.578 81.392 223.578 82C223.578 82.608 223.782 83.116 224.19 83.524C224.598 83.932 225.098 84.136 225.69 84.136ZM21.836 98.008C22.18 97.264 22.804 96.892 23.708 96.892V97.984C23.196 97.96 22.756 98.096 22.388 98.392C22.02 98.688 21.836 99.164 21.836 99.82V103H20.792V97H21.836V98.008ZM25.1334 100.48C25.2374 101.016 25.4814 101.432 25.8654 101.728C26.2574 102.024 26.7374 102.172 27.3054 102.172C28.0974 102.172 28.6734 101.88 29.0334 101.296L29.9214 101.8C29.3374 102.704 28.4574 103.156 27.2814 103.156C26.3294 103.156 25.5534 102.86 24.9534 102.268C24.3614 101.668 24.0654 100.912 24.0654 100C24.0654 99.096 24.3574 98.344 24.9414 97.744C25.5254 97.144 26.2814 96.844 27.2094 96.844C28.0894 96.844 28.8054 97.156 29.3574 97.78C29.9174 98.396 30.1974 99.14 30.1974 100.012C30.1974 100.164 30.1854 100.32 30.1614 100.48H25.1334ZM27.2094 97.828C26.6494 97.828 26.1854 97.988 25.8174 98.308C25.4494 98.62 25.2214 99.04 25.1334 99.568H29.1414C29.0534 99 28.8294 98.568 28.4694 98.272C28.1094 97.976 27.6894 97.828 27.2094 97.828ZM36.3538 97H37.3978V103H36.3538V101.968C35.8338 102.76 35.0778 103.156 34.0858 103.156C33.2458 103.156 32.5298 102.852 31.9378 102.244C31.3458 101.628 31.0498 100.88 31.0498 100C31.0498 99.12 31.3458 98.376 31.9378 97.768C32.5298 97.152 33.2458 96.844 34.0858 96.844C35.0778 96.844 35.8338 97.24 36.3538 98.032V97ZM34.2178 102.148C34.8258 102.148 35.3338 101.944 35.7418 101.536C36.1498 101.12 36.3538 100.608 36.3538 100C36.3538 99.392 36.1498 98.884 35.7418 98.476C35.3338 98.06 34.8258 97.852 34.2178 97.852C33.6178 97.852 33.1138 98.06 32.7058 98.476C32.2978 98.884 32.0938 99.392 32.0938 100C32.0938 100.608 32.2978 101.12 32.7058 101.536C33.1138 101.944 33.6178 102.148 34.2178 102.148ZM41.7995 103.156C40.8955 103.156 40.1435 102.856 39.5435 102.256C38.9435 101.648 38.6435 100.896 38.6435 100C38.6435 99.104 38.9435 98.356 39.5435 97.756C40.1435 97.148 40.8955 96.844 41.7995 96.844C42.3915 96.844 42.9235 96.988 43.3955 97.276C43.8675 97.556 44.2195 97.936 44.4515 98.416L43.5755 98.92C43.4235 98.6 43.1875 98.344 42.8675 98.152C42.5555 97.96 42.1995 97.864 41.7995 97.864C41.1995 97.864 40.6955 98.068 40.2875 98.476C39.8875 98.884 39.6875 99.392 39.6875 100C39.6875 100.6 39.8875 101.104 40.2875 101.512C40.6955 101.92 41.1995 102.124 41.7995 102.124C42.1995 102.124 42.5595 102.032 42.8795 101.848C43.1995 101.656 43.4435 101.4 43.6115 101.08L44.4995 101.596C44.2435 102.068 43.8755 102.448 43.3955 102.736C42.9155 103.016 42.3835 103.156 41.7995 103.156ZM48.5183 96.844C49.2223 96.844 49.7863 97.068 50.2103 97.516C50.6343 97.956 50.8463 98.556 50.8463 99.316V103H49.8023V99.376C49.8023 98.888 49.6703 98.512 49.4063 98.248C49.1423 97.976 48.7783 97.84 48.3143 97.84C47.7943 97.84 47.3743 98.004 47.0543 98.332C46.7343 98.652 46.5743 99.148 46.5743 99.82V103H45.5303V94.6H46.5743V97.864C46.9983 97.184 47.6463 96.844 48.5183 96.844ZM60.2717 97H61.3157V103H60.2717V101.968C59.7517 102.76 58.9957 103.156 58.0037 103.156C57.1637 103.156 56.4477 102.852 55.8557 102.244C55.2637 101.628 54.9677 100.88 54.9677 100C54.9677 99.12 55.2637 98.376 55.8557 97.768C56.4477 97.152 57.1637 96.844 58.0037 96.844C58.9957 96.844 59.7517 97.24 60.2717 98.032V97ZM58.1357 102.148C58.7437 102.148 59.2517 101.944 59.6597 101.536C60.0677 101.12 60.2717 100.608 60.2717 100C60.2717 99.392 60.0677 98.884 59.6597 98.476C59.2517 98.06 58.7437 97.852 58.1357 97.852C57.5357 97.852 57.0317 98.06 56.6237 98.476C56.2157 98.884 56.0117 99.392 56.0117 100C56.0117 100.608 56.2157 101.12 56.6237 101.536C57.0317 101.944 57.5357 102.148 58.1357 102.148ZM71.2855 100.756C71.2855 101.412 71.0695 101.952 70.6375 102.376C70.2055 102.8 69.6455 103.052 68.9575 103.132V104.2H68.2015V103.144C67.5455 103.096 66.9855 102.916 66.5215 102.604C66.0655 102.292 65.7335 101.872 65.5255 101.344L66.4855 100.792C66.7575 101.536 67.3295 101.956 68.2015 102.052V99.148C67.8415 99.02 67.5495 98.904 67.3255 98.8C67.1095 98.688 66.8815 98.54 66.6415 98.356C66.4015 98.172 66.2215 97.948 66.1015 97.684C65.9895 97.412 65.9335 97.1 65.9335 96.748C65.9335 96.1 66.1495 95.572 66.5815 95.164C67.0135 94.756 67.5535 94.52 68.2015 94.456V93.4H68.9575V94.468C69.4375 94.532 69.8655 94.7 70.2415 94.972C70.6175 95.244 70.9095 95.612 71.1175 96.076L70.1815 96.604C69.9495 96.02 69.5415 95.672 68.9575 95.56V98.32C69.3255 98.456 69.6175 98.576 69.8335 98.68C70.0495 98.784 70.2855 98.932 70.5415 99.124C70.7975 99.308 70.9855 99.536 71.1055 99.808C71.2255 100.08 71.2855 100.396 71.2855 100.756ZM67.0375 96.748C67.0375 97.052 67.1295 97.3 67.3135 97.492C67.4975 97.684 67.7935 97.864 68.2015 98.032V95.548C67.8495 95.596 67.5655 95.728 67.3495 95.944C67.1415 96.152 67.0375 96.42 67.0375 96.748ZM68.9575 102.028C69.3415 101.972 69.6375 101.832 69.8455 101.608C70.0615 101.376 70.1695 101.096 70.1695 100.768C70.1695 100.44 70.0695 100.18 69.8695 99.988C69.6775 99.788 69.3735 99.6 68.9575 99.424V102.028ZM74.0791 94.6H75.0391V103H73.9351V95.8L72.1471 96.328L71.8711 95.368L74.0791 94.6ZM84.7405 97H85.7845V105.4H84.7405V101.968C84.2205 102.76 83.4645 103.156 82.4725 103.156C81.6325 103.156 80.9165 102.852 80.3245 102.244C79.7325 101.628 79.4365 100.88 79.4365 100C79.4365 99.12 79.7325 98.376 80.3245 97.768C80.9165 97.152 81.6325 96.844 82.4725 96.844C83.4645 96.844 84.2205 97.24 84.7405 98.032V97ZM82.6045 102.148C83.2125 102.148 83.7205 101.944 84.1285 101.536C84.5365 101.12 84.7405 100.608 84.7405 100C84.7405 99.392 84.5365 98.884 84.1285 98.476C83.7205 98.06 83.2125 97.852 82.6045 97.852C82.0045 97.852 81.5005 98.06 81.0925 98.476C80.6845 98.884 80.4805 99.392 80.4805 100C80.4805 100.608 80.6845 101.12 81.0925 101.536C81.5005 101.944 82.0045 102.148 82.6045 102.148ZM91.5062 97H92.5502V103H91.5062V102.136C91.0822 102.816 90.4342 103.156 89.5622 103.156C88.8582 103.156 88.2942 102.936 87.8702 102.496C87.4462 102.048 87.2342 101.444 87.2342 100.684V97H88.2782V100.624C88.2782 101.112 88.4102 101.492 88.6742 101.764C88.9382 102.028 89.3022 102.16 89.7662 102.16C90.2862 102.16 90.7062 102 91.0262 101.68C91.3462 101.352 91.5062 100.852 91.5062 100.18V97ZM99.1077 97H100.152V103H99.1077V101.968C98.5877 102.76 97.8317 103.156 96.8397 103.156C95.9997 103.156 95.2837 102.852 94.6917 102.244C94.0997 101.628 93.8037 100.88 93.8037 100C93.8037 99.12 94.0997 98.376 94.6917 97.768C95.2837 97.152 95.9997 96.844 96.8397 96.844C97.8317 96.844 98.5877 97.24 99.1077 98.032V97ZM96.9717 102.148C97.5797 102.148 98.0877 101.944 98.4957 101.536C98.9037 101.12 99.1077 100.608 99.1077 100C99.1077 99.392 98.9037 98.884 98.4957 98.476C98.0877 98.06 97.5797 97.852 96.9717 97.852C96.3717 97.852 95.8677 98.06 95.4597 98.476C95.0517 98.884 94.8477 99.392 94.8477 100C94.8477 100.608 95.0517 101.12 95.4597 101.536C95.8677 101.944 96.3717 102.148 96.9717 102.148ZM106.701 94.6H107.745V103H106.701V101.968C106.181 102.76 105.425 103.156 104.433 103.156C103.593 103.156 102.877 102.852 102.285 102.244C101.693 101.628 101.397 100.88 101.397 100C101.397 99.12 101.693 98.376 102.285 97.768C102.877 97.152 103.593 96.844 104.433 96.844C105.425 96.844 106.181 97.24 106.701 98.032V94.6ZM104.565 102.148C105.173 102.148 105.681 101.944 106.089 101.536C106.497 101.12 106.701 100.608 106.701 100C106.701 99.392 106.497 98.884 106.089 98.476C105.681 98.06 105.173 97.852 104.565 97.852C103.965 97.852 103.461 98.06 103.053 98.476C102.645 98.884 102.441 99.392 102.441 100C102.441 100.608 102.645 101.12 103.053 101.536C103.461 101.944 103.965 102.148 104.565 102.148ZM110.371 98.008C110.715 97.264 111.339 96.892 112.243 96.892V97.984C111.731 97.96 111.291 98.096 110.923 98.392C110.555 98.688 110.371 99.164 110.371 99.82V103H109.327V97H110.371V98.008ZM113.793 95.908C113.593 95.908 113.425 95.84 113.289 95.704C113.153 95.568 113.085 95.404 113.085 95.212C113.085 95.02 113.153 94.856 113.289 94.72C113.425 94.576 113.593 94.504 113.793 94.504C113.985 94.504 114.149 94.576 114.285 94.72C114.421 94.856 114.489 95.02 114.489 95.212C114.489 95.404 114.421 95.568 114.285 95.704C114.149 95.84 113.985 95.908 113.793 95.908ZM113.265 103V97H114.309V103H113.265ZM115.901 103V94.24H116.945V103H115.901ZM118.538 103V94.24H119.582V103H118.538ZM121.703 95.908C121.503 95.908 121.335 95.84 121.199 95.704C121.063 95.568 120.995 95.404 120.995 95.212C120.995 95.02 121.063 94.856 121.199 94.72C121.335 94.576 121.503 94.504 121.703 94.504C121.895 94.504 122.059 94.576 122.195 94.72C122.331 94.856 122.399 95.02 122.399 95.212C122.399 95.404 122.331 95.568 122.195 95.704C122.059 95.84 121.895 95.908 121.703 95.908ZM121.175 103V97H122.219V103H121.175ZM128.876 102.244C128.26 102.852 127.512 103.156 126.632 103.156C125.752 103.156 125.004 102.852 124.388 102.244C123.78 101.636 123.476 100.888 123.476 100C123.476 99.112 123.78 98.364 124.388 97.756C125.004 97.148 125.752 96.844 126.632 96.844C127.512 96.844 128.26 97.148 128.876 97.756C129.492 98.364 129.8 99.112 129.8 100C129.8 100.888 129.492 101.636 128.876 102.244ZM126.632 102.136C127.232 102.136 127.736 101.932 128.144 101.524C128.552 101.116 128.756 100.608 128.756 100C128.756 99.392 128.552 98.884 128.144 98.476C127.736 98.068 127.232 97.864 126.632 97.864C126.04 97.864 125.54 98.068 125.132 98.476C124.724 98.884 124.52 99.392 124.52 100C124.52 100.608 124.724 101.116 125.132 101.524C125.54 101.932 126.04 102.136 126.632 102.136ZM134.018 96.844C134.722 96.844 135.286 97.068 135.71 97.516C136.134 97.956 136.346 98.556 136.346 99.316V103H135.302V99.376C135.302 98.888 135.17 98.512 134.906 98.248C134.642 97.976 134.278 97.84 133.814 97.84C133.294 97.84 132.874 98.004 132.554 98.332C132.234 98.652 132.074 99.148 132.074 99.82V103H131.03V97H132.074V97.864C132.498 97.184 133.146 96.844 134.018 96.844ZM145.004 97H146.132L143.732 103H142.508L140.108 97H141.236L143.12 101.884L145.004 97ZM151.748 97H152.792V103H151.748V101.968C151.228 102.76 150.472 103.156 149.48 103.156C148.64 103.156 147.924 102.852 147.332 102.244C146.74 101.628 146.444 100.88 146.444 100C146.444 99.12 146.74 98.376 147.332 97.768C147.924 97.152 148.64 96.844 149.48 96.844C150.472 96.844 151.228 97.24 151.748 98.032V97ZM149.612 102.148C150.22 102.148 150.728 101.944 151.136 101.536C151.544 101.12 151.748 100.608 151.748 100C151.748 99.392 151.544 98.884 151.136 98.476C150.728 98.06 150.22 97.852 149.612 97.852C149.012 97.852 148.508 98.06 148.1 98.476C147.692 98.884 147.488 99.392 147.488 100C147.488 100.608 147.692 101.12 148.1 101.536C148.508 101.944 149.012 102.148 149.612 102.148ZM154.374 103V94.24H155.418V103H154.374ZM161.151 97H162.195V103H161.151V102.136C160.727 102.816 160.079 103.156 159.207 103.156C158.503 103.156 157.939 102.936 157.515 102.496C157.091 102.048 156.879 101.444 156.879 100.684V97H157.923V100.624C157.923 101.112 158.055 101.492 158.319 101.764C158.583 102.028 158.947 102.16 159.411 102.16C159.931 102.16 160.351 102 160.671 101.68C160.991 101.352 161.151 100.852 161.151 100.18V97ZM168.752 97H169.796V103H168.752V101.968C168.232 102.76 167.476 103.156 166.484 103.156C165.644 103.156 164.928 102.852 164.336 102.244C163.744 101.628 163.448 100.88 163.448 100C163.448 99.12 163.744 98.376 164.336 97.768C164.928 97.152 165.644 96.844 166.484 96.844C167.476 96.844 168.232 97.24 168.752 98.032V97ZM166.616 102.148C167.224 102.148 167.732 101.944 168.14 101.536C168.548 101.12 168.752 100.608 168.752 100C168.752 99.392 168.548 98.884 168.14 98.476C167.732 98.06 167.224 97.852 166.616 97.852C166.016 97.852 165.512 98.06 165.104 98.476C164.696 98.884 164.492 99.392 164.492 100C164.492 100.608 164.696 101.12 165.104 101.536C165.512 101.944 166.016 102.148 166.616 102.148ZM174.642 98.008H173.046V101.26C173.046 101.556 173.102 101.768 173.214 101.896C173.334 102.016 173.514 102.08 173.754 102.088C173.994 102.088 174.29 102.08 174.642 102.064V103C173.73 103.12 173.062 103.048 172.638 102.784C172.214 102.512 172.002 102.004 172.002 101.26V98.008H170.814V97H172.002V95.632L173.046 95.32V97H174.642V98.008ZM176.406 95.908C176.206 95.908 176.038 95.84 175.902 95.704C175.766 95.568 175.698 95.404 175.698 95.212C175.698 95.02 175.766 94.856 175.902 94.72C176.038 94.576 176.206 94.504 176.406 94.504C176.598 94.504 176.762 94.576 176.898 94.72C177.034 94.856 177.102 95.02 177.102 95.212C177.102 95.404 177.034 95.568 176.898 95.704C176.762 95.84 176.598 95.908 176.406 95.908ZM175.878 103V97H176.922V103H175.878ZM183.579 102.244C182.963 102.852 182.215 103.156 181.335 103.156C180.455 103.156 179.707 102.852 179.091 102.244C178.483 101.636 178.179 100.888 178.179 100C178.179 99.112 178.483 98.364 179.091 97.756C179.707 97.148 180.455 96.844 181.335 96.844C182.215 96.844 182.963 97.148 183.579 97.756C184.195 98.364 184.503 99.112 184.503 100C184.503 100.888 184.195 101.636 183.579 102.244ZM181.335 102.136C181.935 102.136 182.439 101.932 182.847 101.524C183.255 101.116 183.459 100.608 183.459 100C183.459 99.392 183.255 98.884 182.847 98.476C182.439 98.068 181.935 97.864 181.335 97.864C180.743 97.864 180.243 98.068 179.835 98.476C179.427 98.884 179.223 99.392 179.223 100C179.223 100.608 179.427 101.116 179.835 101.524C180.243 101.932 180.743 102.136 181.335 102.136ZM188.721 96.844C189.425 96.844 189.989 97.068 190.413 97.516C190.837 97.956 191.049 98.556 191.049 99.316V103H190.005V99.376C190.005 98.888 189.873 98.512 189.609 98.248C189.345 97.976 188.981 97.84 188.517 97.84C187.997 97.84 187.577 98.004 187.257 98.332C186.937 98.652 186.777 99.148 186.777 99.82V103H185.733V97H186.777V97.864C187.201 97.184 187.849 96.844 188.721 96.844ZM193.167 103.132C192.951 103.132 192.767 103.056 192.615 102.904C192.463 102.752 192.387 102.568 192.387 102.352C192.387 102.136 192.463 101.952 192.615 101.8C192.767 101.648 192.951 101.572 193.167 101.572C193.391 101.572 193.575 101.648 193.719 101.8C193.871 101.952 193.947 102.136 193.947 102.352C193.947 102.568 193.871 102.752 193.719 102.904C193.575 103.056 193.391 103.132 193.167 103.132Z" fill="#1A1A1A"/>
<path d="M11.9581 126.748C11.7021 127.012 11.3861 127.144 11.0101 127.144C10.6341 127.144 10.3141 127.012 10.0501 126.748C9.78613 126.484 9.65413 126.164 9.65413 125.788C9.65413 125.412 9.78613 125.096 10.0501 124.84C10.3141 124.576 10.6341 124.444 11.0101 124.444C11.3861 124.444 11.7021 124.576 11.9581 124.84C12.2221 125.096 12.3541 125.412 12.3541 125.788C12.3541 126.164 12.2221 126.484 11.9581 126.748ZM26.276 121.6V122.656H23.792V130H22.688V122.656H20.216V121.6H26.276ZM30.2605 123.844C30.9645 123.844 31.5285 124.068 31.9525 124.516C32.3765 124.956 32.5885 125.556 32.5885 126.316V130H31.5445V126.376C31.5445 125.888 31.4125 125.512 31.1485 125.248C30.8845 124.976 30.5205 124.84 30.0565 124.84C29.5365 124.84 29.1165 125.004 28.7965 125.332C28.4765 125.652 28.3165 126.148 28.3165 126.82V130H27.2725V121.6H28.3165V124.864C28.7405 124.184 29.3885 123.844 30.2605 123.844ZM34.7779 127.48C34.8819 128.016 35.1259 128.432 35.5099 128.728C35.9019 129.024 36.3819 129.172 36.9499 129.172C37.7419 129.172 38.3179 128.88 38.6779 128.296L39.5659 128.8C38.9819 129.704 38.1019 130.156 36.9259 130.156C35.9739 130.156 35.1979 129.86 34.5979 129.268C34.0059 128.668 33.7099 127.912 33.7099 127C33.7099 126.096 34.0019 125.344 34.5859 124.744C35.1699 124.144 35.9259 123.844 36.8539 123.844C37.7339 123.844 38.4499 124.156 39.0019 124.78C39.5619 125.396 39.8419 126.14 39.8419 127.012C39.8419 127.164 39.8299 127.32 39.8059 127.48H34.7779ZM36.8539 124.828C36.2939 124.828 35.8299 124.988 35.4619 125.308C35.0939 125.62 34.8659 126.04 34.7779 126.568H38.7859C38.6979 126 38.4739 125.568 38.1139 125.272C37.7539 124.976 37.3339 124.828 36.8539 124.828ZM45.266 128.944H49.166V130H44.15V121.6H49.106V122.656H45.266V125.236H48.806V126.28H45.266V128.944ZM53.0964 130.156C52.1924 130.156 51.4404 129.856 50.8404 129.256C50.2404 128.648 49.9404 127.896 49.9404 127C49.9404 126.104 50.2404 125.356 50.8404 124.756C51.4404 124.148 52.1924 123.844 53.0964 123.844C53.6884 123.844 54.2204 123.988 54.6924 124.276C55.1644 124.556 55.5164 124.936 55.7484 125.416L54.8724 125.92C54.7204 125.6 54.4844 125.344 54.1644 125.152C53.8524 124.96 53.4964 124.864 53.0964 124.864C52.4964 124.864 51.9924 125.068 51.5844 125.476C51.1844 125.884 50.9844 126.392 50.9844 127C50.9844 127.6 51.1844 128.104 51.5844 128.512C51.9924 128.92 52.4964 129.124 53.0964 129.124C53.4964 129.124 53.8564 129.032 54.1764 128.848C54.4964 128.656 54.7404 128.4 54.9084 128.08L55.7964 128.596C55.5404 129.068 55.1724 129.448 54.6924 129.736C54.2124 130.016 53.6804 130.156 53.0964 130.156ZM59.8152 123.844C60.5192 123.844 61.0832 124.068 61.5072 124.516C61.9312 124.956 62.1432 125.556 62.1432 126.316V130H61.0992V126.376C61.0992 125.888 60.9672 125.512 60.7032 125.248C60.4392 124.976 60.0752 124.84 59.6112 124.84C59.0912 124.84 58.6712 125.004 58.3512 125.332C58.0312 125.652 57.8712 126.148 57.8712 126.82V130H56.8272V121.6H57.8712V124.864C58.2952 124.184 58.9432 123.844 59.8152 123.844ZM68.6646 129.244C68.0486 129.852 67.3006 130.156 66.4206 130.156C65.5406 130.156 64.7926 129.852 64.1766 129.244C63.5686 128.636 63.2646 127.888 63.2646 127C63.2646 126.112 63.5686 125.364 64.1766 124.756C64.7926 124.148 65.5406 123.844 66.4206 123.844C67.3006 123.844 68.0486 124.148 68.6646 124.756C69.2806 125.364 69.5886 126.112 69.5886 127C69.5886 127.888 69.2806 128.636 68.6646 129.244ZM66.4206 129.136C67.0206 129.136 67.5246 128.932 67.9326 128.524C68.3406 128.116 68.5446 127.608 68.5446 127C68.5446 126.392 68.3406 125.884 67.9326 125.476C67.5246 125.068 67.0206 124.864 66.4206 124.864C65.8286 124.864 65.3286 125.068 64.9206 125.476C64.5126 125.884 64.3086 126.392 64.3086 127C64.3086 127.608 64.5126 128.116 64.9206 128.524C65.3286 128.932 65.8286 129.136 66.4206 129.136ZM79.4593 130L78.7753 128.116H74.9953L74.3113 130H73.1233L76.2553 121.6H77.5153L80.6473 130H79.4593ZM75.3793 127.072H78.3913L76.8793 122.932L75.3793 127.072ZM84.8423 123.844C85.6823 123.844 86.3983 124.152 86.9903 124.768C87.5823 125.376 87.8783 126.12 87.8783 127C87.8783 127.88 87.5823 128.628 86.9903 129.244C86.3983 129.852 85.6823 130.156 84.8423 130.156C83.8503 130.156 83.0943 129.76 82.5743 128.968V132.4H81.5303V124H82.5743V125.032C83.0943 124.24 83.8503 123.844 84.8423 123.844ZM84.7103 129.148C85.3103 129.148 85.8143 128.944 86.2223 128.536C86.6303 128.12 86.8343 127.608 86.8343 127C86.8343 126.392 86.6303 125.884 86.2223 125.476C85.8143 125.06 85.3103 124.852 84.7103 124.852C84.1023 124.852 83.5943 125.06 83.1863 125.476C82.7783 125.884 82.5743 126.392 82.5743 127C82.5743 127.608 82.7783 128.12 83.1863 128.536C83.5943 128.944 84.1023 129.148 84.7103 129.148ZM92.436 123.844C93.276 123.844 93.992 124.152 94.584 124.768C95.176 125.376 95.472 126.12 95.472 127C95.472 127.88 95.176 128.628 94.584 129.244C93.992 129.852 93.276 130.156 92.436 130.156C91.444 130.156 90.688 129.76 90.168 128.968V132.4H89.124V124H90.168V125.032C90.688 124.24 91.444 123.844 92.436 123.844ZM92.304 129.148C92.904 129.148 93.408 128.944 93.816 128.536C94.224 128.12 94.428 127.608 94.428 127C94.428 126.392 94.224 125.884 93.816 125.476C93.408 125.06 92.904 124.852 92.304 124.852C91.696 124.852 91.188 125.06 90.78 125.476C90.372 125.884 90.168 126.392 90.168 127C90.168 127.608 90.372 128.12 90.78 128.536C91.188 128.944 91.696 129.148 92.304 129.148ZM100.246 122.908C100.046 122.908 99.8778 122.84 99.7418 122.704C99.6058 122.568 99.5378 122.404 99.5378 122.212C99.5378 122.02 99.6058 121.856 99.7418 121.72C99.8778 121.576 100.046 121.504 100.246 121.504C100.438 121.504 100.602 121.576 100.738 121.72C100.874 121.856 100.942 122.02 100.942 122.212C100.942 122.404 100.874 122.568 100.738 122.704C100.602 122.84 100.438 122.908 100.246 122.908ZM99.7178 130V124H100.762V130H99.7178ZM103.243 125.62C103.243 125.852 103.359 126.04 103.591 126.184C103.823 126.32 104.103 126.432 104.431 126.52C104.759 126.6 105.087 126.696 105.415 126.808C105.743 126.912 106.023 127.096 106.255 127.36C106.487 127.616 106.603 127.948 106.603 128.356C106.603 128.9 106.391 129.336 105.967 129.664C105.551 129.992 105.015 130.156 104.359 130.156C103.775 130.156 103.275 130.028 102.859 129.772C102.443 129.516 102.147 129.176 101.971 128.752L102.871 128.236C102.967 128.524 103.147 128.752 103.411 128.92C103.675 129.088 103.991 129.172 104.359 129.172C104.703 129.172 104.987 129.108 105.211 128.98C105.435 128.844 105.547 128.636 105.547 128.356C105.547 128.124 105.431 127.94 105.199 127.804C104.967 127.66 104.687 127.548 104.359 127.468C104.031 127.38 103.703 127.28 103.375 127.168C103.047 127.056 102.767 126.872 102.535 126.616C102.303 126.36 102.187 126.032 102.187 125.632C102.187 125.112 102.387 124.684 102.787 124.348C103.195 124.012 103.703 123.844 104.311 123.844C104.799 123.844 105.231 123.956 105.607 124.18C105.991 124.396 106.279 124.7 106.471 125.092L105.595 125.584C105.379 125.072 104.951 124.816 104.311 124.816C104.015 124.816 103.763 124.888 103.555 125.032C103.347 125.168 103.243 125.364 103.243 125.62ZM113.827 123.844C114.531 123.844 115.095 124.068 115.519 124.516C115.943 124.956 116.155 125.556 116.155 126.316V130H115.111V126.376C115.111 125.888 114.979 125.512 114.715 125.248C114.451 124.976 114.087 124.84 113.623 124.84C113.103 124.84 112.683 125.004 112.363 125.332C112.043 125.652 111.883 126.148 111.883 126.82V130H110.839V124H111.883V124.864C112.307 124.184 112.955 123.844 113.827 123.844ZM122.676 129.244C122.06 129.852 121.312 130.156 120.432 130.156C119.552 130.156 118.804 129.852 118.188 129.244C117.58 128.636 117.276 127.888 117.276 127C117.276 126.112 117.58 125.364 118.188 124.756C118.804 124.148 119.552 123.844 120.432 123.844C121.312 123.844 122.06 124.148 122.676 124.756C123.292 125.364 123.6 126.112 123.6 127C123.6 127.888 123.292 128.636 122.676 129.244ZM120.432 129.136C121.032 129.136 121.536 128.932 121.944 128.524C122.352 128.116 122.556 127.608 122.556 127C122.556 126.392 122.352 125.884 121.944 125.476C121.536 125.068 121.032 124.864 120.432 124.864C119.84 124.864 119.34 125.068 118.932 125.476C118.524 125.884 118.32 126.392 118.32 127C118.32 127.608 118.524 128.116 118.932 128.524C119.34 128.932 119.84 129.136 120.432 129.136ZM131.665 124H132.757L130.897 130H129.829L128.425 125.56L127.021 130H125.953L124.093 124H125.185L126.505 128.56L127.921 124H128.929L130.345 128.572L131.665 124ZM139.915 122.452C138.859 122.364 138.331 122.82 138.331 123.82V124H139.915V125.008H138.331V130H137.287V125.008H136.327V124H137.287V123.82C137.287 123.012 137.511 122.4 137.959 121.984C138.415 121.568 139.067 121.388 139.915 121.444V122.452ZM144.85 124H145.894V130H144.85V129.136C144.426 129.816 143.778 130.156 142.906 130.156C142.202 130.156 141.638 129.936 141.214 129.496C140.79 129.048 140.578 128.444 140.578 127.684V124H141.622V127.624C141.622 128.112 141.754 128.492 142.018 128.764C142.282 129.028 142.646 129.16 143.11 129.16C143.63 129.16 144.05 129 144.37 128.68C144.69 128.352 144.85 127.852 144.85 127.18V124ZM147.483 130V121.24H148.527V130H147.483ZM150.12 130V121.24H151.164V130H150.12ZM156.945 124H158.061L155.613 130.372C155.357 131.052 154.997 131.568 154.533 131.92C154.077 132.28 153.549 132.44 152.949 132.4V131.428C153.685 131.484 154.225 131.076 154.569 130.204L154.677 129.976L152.061 124H153.177L155.217 128.704L156.945 124ZM162.833 125.62C162.833 125.852 162.949 126.04 163.181 126.184C163.413 126.32 163.693 126.432 164.021 126.52C164.349 126.6 164.677 126.696 165.005 126.808C165.333 126.912 165.613 127.096 165.845 127.36C166.077 127.616 166.193 127.948 166.193 128.356C166.193 128.9 165.981 129.336 165.557 129.664C165.141 129.992 164.605 130.156 163.949 130.156C163.365 130.156 162.865 130.028 162.449 129.772C162.033 129.516 161.737 129.176 161.561 128.752L162.461 128.236C162.557 128.524 162.737 128.752 163.001 128.92C163.265 129.088 163.581 129.172 163.949 129.172C164.293 129.172 164.577 129.108 164.801 128.98C165.025 128.844 165.137 128.636 165.137 128.356C165.137 128.124 165.021 127.94 164.789 127.804C164.557 127.66 164.277 127.548 163.949 127.468C163.621 127.38 163.293 127.28 162.965 127.168C162.637 127.056 162.357 126.872 162.125 126.616C161.893 126.36 161.777 126.032 161.777 125.632C161.777 125.112 161.977 124.684 162.377 124.348C162.785 124.012 163.293 123.844 163.901 123.844C164.389 123.844 164.821 123.956 165.197 124.18C165.581 124.396 165.869 124.7 166.061 125.092L165.185 125.584C164.969 125.072 164.541 124.816 163.901 124.816C163.605 124.816 163.353 124.888 163.145 125.032C162.937 125.168 162.833 125.364 162.833 125.62ZM171.51 124H172.554V130H171.51V129.136C171.086 129.816 170.438 130.156 169.566 130.156C168.862 130.156 168.298 129.936 167.874 129.496C167.45 129.048 167.238 128.444 167.238 127.684V124H168.282V127.624C168.282 128.112 168.414 128.492 168.678 128.764C168.942 129.028 169.306 129.16 169.77 129.16C170.29 129.16 170.71 129 171.03 128.68C171.35 128.352 171.51 127.852 171.51 127.18V124ZM177.456 123.844C178.296 123.844 179.012 124.152 179.604 124.768C180.196 125.376 180.492 126.12 180.492 127C180.492 127.88 180.196 128.628 179.604 129.244C179.012 129.852 178.296 130.156 177.456 130.156C176.464 130.156 175.708 129.76 175.188 128.968V132.4H174.144V124H175.188V125.032C175.708 124.24 176.464 123.844 177.456 123.844ZM177.324 129.148C177.924 129.148 178.428 128.944 178.836 128.536C179.244 128.12 179.448 127.608 179.448 127C179.448 126.392 179.244 125.884 178.836 125.476C178.428 125.06 177.924 124.852 177.324 124.852C176.716 124.852 176.208 125.06 175.8 125.476C175.392 125.884 175.188 126.392 175.188 127C175.188 127.608 175.392 128.12 175.8 128.536C176.208 128.944 176.716 129.148 177.324 129.148ZM185.049 123.844C185.889 123.844 186.605 124.152 187.197 124.768C187.789 125.376 188.085 126.12 188.085 127C188.085 127.88 187.789 128.628 187.197 129.244C186.605 129.852 185.889 130.156 185.049 130.156C184.057 130.156 183.301 129.76 182.781 128.968V132.4H181.737V124H182.781V125.032C183.301 124.24 184.057 123.844 185.049 123.844ZM184.917 129.148C185.517 129.148 186.021 128.944 186.429 128.536C186.837 128.12 187.041 127.608 187.041 127C187.041 126.392 186.837 125.884 186.429 125.476C186.021 125.06 185.517 124.852 184.917 124.852C184.309 124.852 183.801 125.06 183.393 125.476C182.985 125.884 182.781 126.392 182.781 127C182.781 127.608 182.985 128.12 183.393 128.536C183.801 128.944 184.309 129.148 184.917 129.148ZM194.395 129.244C193.779 129.852 193.031 130.156 192.151 130.156C191.271 130.156 190.523 129.852 189.907 129.244C189.299 128.636 188.995 127.888 188.995 127C188.995 126.112 189.299 125.364 189.907 124.756C190.523 124.148 191.271 123.844 192.151 123.844C193.031 123.844 193.779 124.148 194.395 124.756C195.011 125.364 195.319 126.112 195.319 127C195.319 127.888 195.011 128.636 194.395 129.244ZM192.151 129.136C192.751 129.136 193.255 128.932 193.663 128.524C194.071 128.116 194.275 127.608 194.275 127C194.275 126.392 194.071 125.884 193.663 125.476C193.255 125.068 192.751 124.864 192.151 124.864C191.559 124.864 191.059 125.068 190.651 125.476C190.243 125.884 190.039 126.392 190.039 127C190.039 127.608 190.243 128.116 190.651 128.524C191.059 128.932 191.559 129.136 192.151 129.136ZM197.594 125.008C197.938 124.264 198.562 123.892 199.466 123.892V124.984C198.954 124.96 198.514 125.096 198.146 125.392C197.778 125.688 197.594 126.164 197.594 126.82V130H196.55V124H197.594V125.008ZM203.892 125.008H202.296V128.26C202.296 128.556 202.352 128.768 202.464 128.896C202.584 129.016 202.764 129.08 203.004 129.088C203.244 129.088 203.54 129.08 203.892 129.064V130C202.98 130.12 202.312 130.048 201.888 129.784C201.464 129.512 201.252 129.004 201.252 128.26V125.008H200.064V124H201.252V122.632L202.296 122.32V124H203.892V125.008ZM205.555 127.48C205.659 128.016 205.903 128.432 206.287 128.728C206.679 129.024 207.159 129.172 207.727 129.172C208.519 129.172 209.095 128.88 209.455 128.296L210.343 128.8C209.759 129.704 208.879 130.156 207.703 130.156C206.751 130.156 205.975 129.86 205.375 129.268C204.783 128.668 204.487 127.912 204.487 127C204.487 126.096 204.779 125.344 205.363 124.744C205.947 124.144 206.703 123.844 207.631 123.844C208.511 123.844 209.227 124.156 209.779 124.78C210.339 125.396 210.619 126.14 210.619 127.012C210.619 127.164 210.607 127.32 210.583 127.48H205.555ZM207.631 124.828C207.071 124.828 206.607 124.988 206.239 125.308C205.871 125.62 205.643 126.04 205.555 126.568H209.563C209.475 126 209.251 125.568 208.891 125.272C208.531 124.976 208.111 124.828 207.631 124.828ZM216.776 121.6H217.82V130H216.776V128.968C216.256 129.76 215.5 130.156 214.508 130.156C213.668 130.156 212.952 129.852 212.36 129.244C211.768 128.628 211.472 127.88 211.472 127C211.472 126.12 211.768 125.376 212.36 124.768C212.952 124.152 213.668 123.844 214.508 123.844C215.5 123.844 216.256 124.24 216.776 125.032V121.6ZM214.64 129.148C215.248 129.148 215.756 128.944 216.164 128.536C216.572 128.12 216.776 127.608 216.776 127C216.776 126.392 216.572 125.884 216.164 125.476C215.756 125.06 215.248 124.852 214.64 124.852C214.04 124.852 213.536 125.06 213.128 125.476C212.72 125.884 212.516 126.392 212.516 127C212.516 127.608 212.72 128.12 213.128 128.536C213.536 128.944 214.04 129.148 214.64 129.148ZM25.856 147.244C25.24 147.852 24.492 148.156 23.612 148.156C22.732 148.156 21.984 147.852 21.368 147.244C20.76 146.636 20.456 145.888 20.456 145C20.456 144.112 20.76 143.364 21.368 142.756C21.984 142.148 22.732 141.844 23.612 141.844C24.492 141.844 25.24 142.148 25.856 142.756C26.472 143.364 26.78 144.112 26.78 145C26.78 145.888 26.472 146.636 25.856 147.244ZM23.612 147.136C24.212 147.136 24.716 146.932 25.124 146.524C25.532 146.116 25.736 145.608 25.736 145C25.736 144.392 25.532 143.884 25.124 143.476C24.716 143.068 24.212 142.864 23.612 142.864C23.02 142.864 22.52 143.068 22.112 143.476C21.704 143.884 21.5 144.392 21.5 145C21.5 145.608 21.704 146.116 22.112 146.524C22.52 146.932 23.02 147.136 23.612 147.136ZM30.9988 141.844C31.7028 141.844 32.2668 142.068 32.6908 142.516C33.1148 142.956 33.3268 143.556 33.3268 144.316V148H32.2828V144.376C32.2828 143.888 32.1508 143.512 31.8868 143.248C31.6228 142.976 31.2588 142.84 30.7948 142.84C30.2748 142.84 29.8548 143.004 29.5348 143.332C29.2148 143.652 29.0548 144.148 29.0548 144.82V148H28.0107V142H29.0548V142.864C29.4788 142.184 30.1268 141.844 30.9988 141.844ZM37.8922 139.6H39.0082V148H37.8922V139.6ZM47.7942 146.884C46.9542 147.732 45.9262 148.156 44.7102 148.156C43.4942 148.156 42.4662 147.732 41.6262 146.884C40.7862 146.036 40.3662 145.008 40.3662 143.8C40.3662 142.584 40.7862 141.556 41.6262 140.716C42.4662 139.868 43.4942 139.444 44.7102 139.444C45.9262 139.444 46.9542 139.868 47.7942 140.716C48.6422 141.556 49.0662 142.584 49.0662 143.8C49.0662 145.008 48.6422 146.036 47.7942 146.884ZM42.3942 146.128C43.0182 146.752 43.7902 147.064 44.7102 147.064C45.6302 147.064 46.3982 146.752 47.0142 146.128C47.6382 145.496 47.9502 144.72 47.9502 143.8C47.9502 142.872 47.6382 142.096 47.0142 141.472C46.3982 140.84 45.6302 140.524 44.7102 140.524C43.7902 140.524 43.0182 140.84 42.3942 141.472C41.7782 142.096 41.4702 142.872 41.4702 143.8C41.4702 144.72 41.7782 145.496 42.3942 146.128ZM52.8151 148.156C52.0311 148.156 51.3591 147.972 50.7991 147.604C50.2471 147.236 49.8591 146.732 49.6351 146.092L50.5951 145.54C50.9231 146.556 51.6711 147.064 52.8391 147.064C53.4151 147.064 53.8551 146.948 54.1591 146.716C54.4631 146.476 54.6151 146.16 54.6151 145.768C54.6151 145.368 54.4631 145.068 54.1591 144.868C53.8551 144.668 53.3471 144.456 52.6351 144.232C52.2831 144.12 52.0151 144.032 51.8311 143.968C51.6471 143.896 51.4151 143.792 51.1351 143.656C50.8631 143.512 50.6591 143.368 50.5231 143.224C50.3871 143.072 50.2631 142.876 50.1511 142.636C50.0471 142.396 49.9951 142.124 49.9951 141.82C49.9951 141.092 50.2511 140.516 50.7631 140.092C51.2751 139.66 51.8991 139.444 52.6351 139.444C53.2991 139.444 53.8751 139.612 54.3631 139.948C54.8591 140.284 55.2311 140.728 55.4791 141.28L54.5431 141.82C54.1831 140.956 53.5471 140.524 52.6351 140.524C52.1791 140.524 51.8111 140.636 51.5311 140.86C51.2511 141.084 51.1111 141.388 51.1111 141.772C51.1111 142.14 51.2431 142.42 51.5071 142.612C51.7711 142.804 52.2271 143.004 52.8751 143.212C53.1071 143.284 53.2711 143.336 53.3671 143.368C53.4631 143.4 53.6111 143.456 53.8111 143.536C54.0191 143.616 54.1711 143.68 54.2671 143.728C54.3631 143.776 54.4911 143.844 54.6511 143.932C54.8191 144.02 54.9431 144.104 55.0231 144.184C55.1031 144.264 55.1951 144.364 55.2991 144.484C55.4111 144.596 55.4911 144.712 55.5391 144.832C55.5871 144.952 55.6271 145.092 55.6591 145.252C55.6991 145.404 55.7191 145.568 55.7191 145.744C55.7191 146.48 55.4511 147.068 54.9151 147.508C54.3791 147.94 53.6791 148.156 52.8151 148.156ZM60.4606 140.908C60.2606 140.908 60.0926 140.84 59.9566 140.704C59.8206 140.568 59.7526 140.404 59.7526 140.212C59.7526 140.02 59.8206 139.856 59.9566 139.72C60.0926 139.576 60.2606 139.504 60.4606 139.504C60.6526 139.504 60.8166 139.576 60.9526 139.72C61.0886 139.856 61.1566 140.02 61.1566 140.212C61.1566 140.404 61.0886 140.568 60.9526 140.704C60.8166 140.84 60.6526 140.908 60.4606 140.908ZM59.9326 148V142H60.9766V148H59.9326ZM65.5573 141.844C66.2613 141.844 66.8253 142.068 67.2493 142.516C67.6733 142.956 67.8853 143.556 67.8853 144.316V148H66.8413V144.376C66.8413 143.888 66.7093 143.512 66.4453 143.248C66.1813 142.976 65.8173 142.84 65.3533 142.84C64.8333 142.84 64.4133 143.004 64.0933 143.332C63.7733 143.652 63.6133 144.148 63.6133 144.82V148H62.5693V142H63.6133V142.864C64.0373 142.184 64.6853 141.844 65.5573 141.844ZM77.3108 142H78.3548V148H77.3108V146.968C76.7908 147.76 76.0348 148.156 75.0428 148.156C74.2028 148.156 73.4868 147.852 72.8948 147.244C72.3028 146.628 72.0068 145.88 72.0068 145C72.0068 144.12 72.3028 143.376 72.8948 142.768C73.4868 142.152 74.2028 141.844 75.0428 141.844C76.0348 141.844 76.7908 142.24 77.3108 143.032V142ZM75.1748 147.148C75.7828 147.148 76.2908 146.944 76.6988 146.536C77.1068 146.12 77.3108 145.608 77.3108 145C77.3108 144.392 77.1068 143.884 76.6988 143.476C76.2908 143.06 75.7828 142.852 75.1748 142.852C74.5748 142.852 74.0708 143.06 73.6628 143.476C73.2548 143.884 73.0508 144.392 73.0508 145C73.0508 145.608 73.2548 146.12 73.6628 146.536C74.0708 146.944 74.5748 147.148 75.1748 147.148ZM84.9045 139.6H85.9485V148H84.9045V146.968C84.3845 147.76 83.6285 148.156 82.6365 148.156C81.7965 148.156 81.0805 147.852 80.4885 147.244C79.8965 146.628 79.6005 145.88 79.6005 145C79.6005 144.12 79.8965 143.376 80.4885 142.768C81.0805 142.152 81.7965 141.844 82.6365 141.844C83.6285 141.844 84.3845 142.24 84.9045 143.032V139.6ZM82.7685 147.148C83.3765 147.148 83.8845 146.944 84.2925 146.536C84.7005 146.12 84.9045 145.608 84.9045 145C84.9045 144.392 84.7005 143.884 84.2925 143.476C83.8845 143.06 83.3765 142.852 82.7685 142.852C82.1685 142.852 81.6645 143.06 81.2565 143.476C80.8485 143.884 80.6445 144.392 80.6445 145C80.6445 145.608 80.8485 146.12 81.2565 146.536C81.6645 146.944 82.1685 147.148 82.7685 147.148ZM92.4983 139.6H93.5423V148H92.4983V146.968C91.9783 147.76 91.2223 148.156 90.2303 148.156C89.3903 148.156 88.6743 147.852 88.0823 147.244C87.4903 146.628 87.1943 145.88 87.1943 145C87.1943 144.12 87.4903 143.376 88.0823 142.768C88.6743 142.152 89.3903 141.844 90.2303 141.844C91.2223 141.844 91.9783 142.24 92.4983 143.032V139.6ZM90.3623 147.148C90.9703 147.148 91.4783 146.944 91.8863 146.536C92.2943 146.12 92.4983 145.608 92.4983 145C92.4983 144.392 92.2943 143.884 91.8863 143.476C91.4783 143.06 90.9703 142.852 90.3623 142.852C89.7623 142.852 89.2583 143.06 88.8503 143.476C88.4423 143.884 88.2383 144.392 88.2383 145C88.2383 145.608 88.4423 146.12 88.8503 146.536C89.2583 146.944 89.7623 147.148 90.3623 147.148ZM95.652 140.908C95.452 140.908 95.284 140.84 95.148 140.704C95.012 140.568 94.944 140.404 94.944 140.212C94.944 140.02 95.012 139.856 95.148 139.72C95.284 139.576 95.452 139.504 95.652 139.504C95.844 139.504 96.008 139.576 96.144 139.72C96.28 139.856 96.348 140.02 96.348 140.212C96.348 140.404 96.28 140.568 96.144 140.704C96.008 140.84 95.844 140.908 95.652 140.908ZM95.124 148V142H96.168V148H95.124ZM101.025 143.008H99.4288V146.26C99.4288 146.556 99.4848 146.768 99.5968 146.896C99.7168 147.016 99.8968 147.08 100.137 147.088C100.377 147.088 100.673 147.08 101.025 147.064V148C100.113 148.12 99.4448 148.048 99.0208 147.784C98.5968 147.512 98.3848 147.004 98.3848 146.26V143.008H97.1968V142H98.3848V140.632L99.4288 140.32V142H101.025V143.008ZM102.789 140.908C102.589 140.908 102.421 140.84 102.285 140.704C102.149 140.568 102.081 140.404 102.081 140.212C102.081 140.02 102.149 139.856 102.285 139.72C102.421 139.576 102.589 139.504 102.789 139.504C102.981 139.504 103.145 139.576 103.281 139.72C103.417 139.856 103.485 140.02 103.485 140.212C103.485 140.404 103.417 140.568 103.281 140.704C103.145 140.84 102.981 140.908 102.789 140.908ZM102.261 148V142H103.305V148H102.261ZM109.961 147.244C109.345 147.852 108.597 148.156 107.717 148.156C106.837 148.156 106.089 147.852 105.473 147.244C104.865 146.636 104.561 145.888 104.561 145C104.561 144.112 104.865 143.364 105.473 142.756C106.089 142.148 106.837 141.844 107.717 141.844C108.597 141.844 109.345 142.148 109.961 142.756C110.577 143.364 110.885 144.112 110.885 145C110.885 145.888 110.577 146.636 109.961 147.244ZM107.717 147.136C108.317 147.136 108.821 146.932 109.229 146.524C109.637 146.116 109.841 145.608 109.841 145C109.841 144.392 109.637 143.884 109.229 143.476C108.821 143.068 108.317 142.864 107.717 142.864C107.125 142.864 106.625 143.068 106.217 143.476C105.809 143.884 105.605 144.392 105.605 145C105.605 145.608 105.809 146.116 106.217 146.524C106.625 146.932 107.125 147.136 107.717 147.136ZM115.104 141.844C115.808 141.844 116.372 142.068 116.796 142.516C117.22 142.956 117.432 143.556 117.432 144.316V148H116.388V144.376C116.388 143.888 116.256 143.512 115.992 143.248C115.728 142.976 115.364 142.84 114.9 142.84C114.38 142.84 113.96 143.004 113.64 143.332C113.32 143.652 113.16 144.148 113.16 144.82V148H112.116V142H113.16V142.864C113.584 142.184 114.232 141.844 115.104 141.844ZM125.154 143.008H123.558V146.26C123.558 146.556 123.614 146.768 123.726 146.896C123.846 147.016 124.026 147.08 124.266 147.088C124.506 147.088 124.802 147.08 125.154 147.064V148C124.242 148.12 123.574 148.048 123.15 147.784C122.726 147.512 122.514 147.004 122.514 146.26V143.008H121.326V142H122.514V140.632L123.558 140.32V142H125.154V143.008ZM131.149 147.244C130.533 147.852 129.785 148.156 128.905 148.156C128.025 148.156 127.277 147.852 126.661 147.244C126.053 146.636 125.749 145.888 125.749 145C125.749 144.112 126.053 143.364 126.661 142.756C127.277 142.148 128.025 141.844 128.905 141.844C129.785 141.844 130.533 142.148 131.149 142.756C131.765 143.364 132.073 144.112 132.073 145C132.073 145.888 131.765 146.636 131.149 147.244ZM128.905 147.136C129.505 147.136 130.009 146.932 130.417 146.524C130.825 146.116 131.029 145.608 131.029 145C131.029 144.392 130.825 143.884 130.417 143.476C130.009 143.068 129.505 142.864 128.905 142.864C128.313 142.864 127.813 143.068 127.405 143.476C126.997 143.884 126.793 144.392 126.793 145C126.793 145.608 126.997 146.116 127.405 146.524C127.813 146.932 128.313 147.136 128.905 147.136ZM141.944 148L141.26 146.116H137.48L136.796 148H135.608L138.74 139.6H140L143.132 148H141.944ZM137.864 145.072H140.876L139.364 140.932L137.864 145.072ZM147.003 141.844C147.707 141.844 148.271 142.068 148.695 142.516C149.119 142.956 149.331 143.556 149.331 144.316V148H148.287V144.376C148.287 143.888 148.155 143.512 147.891 143.248C147.627 142.976 147.263 142.84 146.799 142.84C146.279 142.84 145.859 143.004 145.539 143.332C145.219 143.652 145.059 144.148 145.059 144.82V148H144.015V142H145.059V142.864C145.483 142.184 146.131 141.844 147.003 141.844ZM155.756 139.6H156.8V148H155.756V146.968C155.236 147.76 154.48 148.156 153.488 148.156C152.648 148.156 151.932 147.852 151.34 147.244C150.748 146.628 150.452 145.88 150.452 145C150.452 144.12 150.748 143.376 151.34 142.768C151.932 142.152 152.648 141.844 153.488 141.844C154.48 141.844 155.236 142.24 155.756 143.032V139.6ZM153.62 147.148C154.228 147.148 154.736 146.944 155.144 146.536C155.552 146.12 155.756 145.608 155.756 145C155.756 144.392 155.552 143.884 155.144 143.476C154.736 143.06 154.228 142.852 153.62 142.852C153.02 142.852 152.516 143.06 152.108 143.476C151.7 143.884 151.496 144.392 151.496 145C151.496 145.608 151.7 146.12 152.108 146.536C152.516 146.944 153.02 147.148 153.62 147.148ZM159.426 143.008C159.77 142.264 160.394 141.892 161.298 141.892V142.984C160.786 142.96 160.346 143.096 159.978 143.392C159.61 143.688 159.426 144.164 159.426 144.82V148H158.382V142H159.426V143.008ZM167.055 147.244C166.439 147.852 165.691 148.156 164.811 148.156C163.931 148.156 163.183 147.852 162.567 147.244C161.959 146.636 161.655 145.888 161.655 145C161.655 144.112 161.959 143.364 162.567 142.756C163.183 142.148 163.931 141.844 164.811 141.844C165.691 141.844 166.439 142.148 167.055 142.756C167.671 143.364 167.979 144.112 167.979 145C167.979 145.888 167.671 146.636 167.055 147.244ZM164.811 147.136C165.411 147.136 165.915 146.932 166.323 146.524C166.731 146.116 166.935 145.608 166.935 145C166.935 144.392 166.731 143.884 166.323 143.476C165.915 143.068 165.411 142.864 164.811 142.864C164.219 142.864 163.719 143.068 163.311 143.476C162.903 143.884 162.699 144.392 162.699 145C162.699 145.608 162.903 146.116 163.311 146.524C163.719 146.932 164.219 147.136 164.811 147.136ZM169.738 140.908C169.538 140.908 169.37 140.84 169.234 140.704C169.098 140.568 169.03 140.404 169.03 140.212C169.03 140.02 169.098 139.856 169.234 139.72C169.37 139.576 169.538 139.504 169.738 139.504C169.93 139.504 170.094 139.576 170.23 139.72C170.366 139.856 170.434 140.02 170.434 140.212C170.434 140.404 170.366 140.568 170.23 140.704C170.094 140.84 169.93 140.908 169.738 140.908ZM169.21 148V142H170.254V148H169.21ZM176.815 139.6H177.859V148H176.815V146.968C176.295 147.76 175.539 148.156 174.547 148.156C173.707 148.156 172.991 147.852 172.399 147.244C171.807 146.628 171.511 145.88 171.511 145C171.511 144.12 171.807 143.376 172.399 142.768C172.991 142.152 173.707 141.844 174.547 141.844C175.539 141.844 176.295 142.24 176.815 143.032V139.6ZM174.679 147.148C175.287 147.148 175.795 146.944 176.203 146.536C176.611 146.12 176.815 145.608 176.815 145C176.815 144.392 176.611 143.884 176.203 143.476C175.795 143.06 175.287 142.852 174.679 142.852C174.079 142.852 173.575 143.06 173.167 143.476C172.759 143.884 172.555 144.392 172.555 145C172.555 145.608 172.759 146.12 173.167 146.536C173.575 146.944 174.079 147.148 174.679 147.148ZM180.1 148.132C179.884 148.132 179.7 148.056 179.548 147.904C179.396 147.752 179.32 147.568 179.32 147.352C179.32 147.136 179.396 146.952 179.548 146.8C179.7 146.648 179.884 146.572 180.1 146.572C180.324 146.572 180.508 146.648 180.652 146.8C180.804 146.952 180.88 147.136 180.88 147.352C180.88 147.568 180.804 147.752 180.652 147.904C180.508 148.056 180.324 148.132 180.1 148.132Z" fill="#1A1A1A"/>
</svg>
