<svg width="255" height="161" viewBox="0 0 276 161" fill="none" xmlns="http://www.w3.org/2000/svg">
<rect x="15" width="255" height="161" fill="#D1EACB"/>
<path d="M-1.37215e-06 79.8025L47.0867 52.617L47.0867 106.988L-1.37215e-06 79.8025Z" fill="#D1EACB"/>
<path d="M37.9581 22.748C37.7021 23.012 37.3861 23.144 37.0101 23.144C36.6341 23.144 36.3141 23.012 36.0501 22.748C35.7861 22.484 35.6541 22.164 35.6541 21.788C35.6541 21.412 35.7861 21.096 36.0501 20.84C36.3141 20.576 36.6341 20.444 37.0101 20.444C37.3861 20.444 37.7021 20.576 37.9581 20.84C38.2221 21.096 38.3541 21.412 38.3541 21.788C38.3541 22.164 38.2221 22.484 37.9581 22.748ZM52.276 17.6V18.656H49.792V26H48.688V18.656H46.216V17.6H52.276ZM56.2605 19.844C56.9645 19.844 57.5285 20.068 57.9525 20.516C58.3765 20.956 58.5885 21.556 58.5885 22.316V26H57.5445V22.376C57.5445 21.888 57.4125 21.512 57.1485 21.248C56.8845 20.976 56.5205 20.84 56.0565 20.84C55.5365 20.84 55.1165 21.004 54.7965 21.332C54.4765 21.652 54.3165 22.148 54.3165 22.82V26H53.2725V17.6H54.3165V20.864C54.7405 20.184 55.3885 19.844 56.2605 19.844ZM60.7779 23.48C60.8819 24.016 61.1259 24.432 61.5099 24.728C61.9019 25.024 62.3819 25.172 62.9499 25.172C63.7419 25.172 64.3179 24.88 64.6779 24.296L65.5659 24.8C64.9819 25.704 64.1019 26.156 62.9259 26.156C61.9739 26.156 61.1979 25.86 60.5979 25.268C60.0059 24.668 59.7099 23.912 59.7099 23C59.7099 22.096 60.0019 21.344 60.5859 20.744C61.1699 20.144 61.9259 19.844 62.8539 19.844C63.7339 19.844 64.4499 20.156 65.0019 20.78C65.5619 21.396 65.8419 22.14 65.8419 23.012C65.8419 23.164 65.8299 23.32 65.8059 23.48H60.7779ZM62.8539 20.828C62.2939 20.828 61.8299 20.988 61.4619 21.308C61.0939 21.62 60.8659 22.04 60.7779 22.568H64.7859C64.6979 22 64.4739 21.568 64.1139 21.272C63.7539 20.976 63.3339 20.828 62.8539 20.828ZM71.266 24.944H75.166V26H70.15V17.6H75.106V18.656H71.266V21.236H74.806V22.28H71.266V24.944ZM79.0964 26.156C78.1924 26.156 77.4404 25.856 76.8404 25.256C76.2404 24.648 75.9404 23.896 75.9404 23C75.9404 22.104 76.2404 21.356 76.8404 20.756C77.4404 20.148 78.1924 19.844 79.0964 19.844C79.6884 19.844 80.2204 19.988 80.6924 20.276C81.1644 20.556 81.5164 20.936 81.7484 21.416L80.8724 21.92C80.7204 21.6 80.4844 21.344 80.1644 21.152C79.8524 20.96 79.4964 20.864 79.0964 20.864C78.4964 20.864 77.9924 21.068 77.5844 21.476C77.1844 21.884 76.9844 22.392 76.9844 23C76.9844 23.6 77.1844 24.104 77.5844 24.512C77.9924 24.92 78.4964 25.124 79.0964 25.124C79.4964 25.124 79.8564 25.032 80.1764 24.848C80.4964 24.656 80.7404 24.4 80.9084 24.08L81.7964 24.596C81.5404 25.068 81.1724 25.448 80.6924 25.736C80.2124 26.016 79.6804 26.156 79.0964 26.156ZM85.8152 19.844C86.5192 19.844 87.0832 20.068 87.5072 20.516C87.9312 20.956 88.1432 21.556 88.1432 22.316V26H87.0992V22.376C87.0992 21.888 86.9672 21.512 86.7032 21.248C86.4392 20.976 86.0752 20.84 85.6112 20.84C85.0912 20.84 84.6712 21.004 84.3512 21.332C84.0312 21.652 83.8712 22.148 83.8712 22.82V26H82.8272V17.6H83.8712V20.864C84.2952 20.184 84.9432 19.844 85.8152 19.844ZM94.6646 25.244C94.0486 25.852 93.3006 26.156 92.4206 26.156C91.5406 26.156 90.7926 25.852 90.1766 25.244C89.5686 24.636 89.2646 23.888 89.2646 23C89.2646 22.112 89.5686 21.364 90.1766 20.756C90.7926 20.148 91.5406 19.844 92.4206 19.844C93.3006 19.844 94.0486 20.148 94.6646 20.756C95.2806 21.364 95.5886 22.112 95.5886 23C95.5886 23.888 95.2806 24.636 94.6646 25.244ZM92.4206 25.136C93.0206 25.136 93.5246 24.932 93.9326 24.524C94.3406 24.116 94.5446 23.608 94.5446 23C94.5446 22.392 94.3406 21.884 93.9326 21.476C93.5246 21.068 93.0206 20.864 92.4206 20.864C91.8286 20.864 91.3286 21.068 90.9206 21.476C90.5126 21.884 90.3086 22.392 90.3086 23C90.3086 23.608 90.5126 24.116 90.9206 24.524C91.3286 24.932 91.8286 25.136 92.4206 25.136ZM103.203 17.6C104.347 17.6 105.295 18.008 106.047 18.824C106.807 19.632 107.187 20.624 107.187 21.8C107.187 22.976 106.807 23.972 106.047 24.788C105.295 25.596 104.347 26 103.203 26H99.9273V17.6H103.203ZM103.203 24.944C104.059 24.944 104.759 24.644 105.303 24.044C105.847 23.444 106.119 22.696 106.119 21.8C106.119 20.904 105.847 20.156 105.303 19.556C104.759 18.956 104.059 18.656 103.203 18.656H101.043V24.944H103.203ZM113.768 26L113.084 24.116H109.304L108.62 26H107.432L110.564 17.6H111.824L114.956 26H113.768ZM109.688 23.072H112.7L111.188 18.932L109.688 23.072ZM122.626 24.884C121.786 25.732 120.758 26.156 119.542 26.156C118.326 26.156 117.298 25.732 116.458 24.884C115.618 24.036 115.198 23.008 115.198 21.8C115.198 20.584 115.618 19.556 116.458 18.716C117.298 17.868 118.326 17.444 119.542 17.444C120.758 17.444 121.786 17.868 122.626 18.716C123.474 19.556 123.898 20.584 123.898 21.8C123.898 23.008 123.474 24.036 122.626 24.884ZM117.226 24.128C117.85 24.752 118.622 25.064 119.542 25.064C120.462 25.064 121.23 24.752 121.846 24.128C122.47 23.496 122.782 22.72 122.782 21.8C122.782 20.872 122.47 20.096 121.846 19.472C121.23 18.84 120.462 18.524 119.542 18.524C118.622 18.524 117.85 18.84 117.226 19.472C116.61 20.096 116.302 20.872 116.302 21.8C116.302 22.72 116.61 23.496 117.226 24.128ZM131.12 19.844C131.824 19.844 132.388 20.068 132.812 20.516C133.236 20.956 133.448 21.556 133.448 22.316V26H132.404V22.376C132.404 21.888 132.272 21.512 132.008 21.248C131.744 20.976 131.38 20.84 130.916 20.84C130.396 20.84 129.976 21.004 129.656 21.332C129.336 21.652 129.176 22.148 129.176 22.82V26H128.132V17.6H129.176V20.864C129.6 20.184 130.248 19.844 131.12 19.844ZM139.873 20H140.917V26H139.873V24.968C139.353 25.76 138.597 26.156 137.605 26.156C136.765 26.156 136.049 25.852 135.457 25.244C134.865 24.628 134.569 23.88 134.569 23C134.569 22.12 134.865 21.376 135.457 20.768C136.049 20.152 136.765 19.844 137.605 19.844C138.597 19.844 139.353 20.24 139.873 21.032V20ZM137.737 25.148C138.345 25.148 138.853 24.944 139.261 24.536C139.669 24.12 139.873 23.608 139.873 23C139.873 22.392 139.669 21.884 139.261 21.476C138.853 21.06 138.345 20.852 137.737 20.852C137.137 20.852 136.633 21.06 136.225 21.476C135.817 21.884 135.613 22.392 135.613 23C135.613 23.608 135.817 24.12 136.225 24.536C136.633 24.944 137.137 25.148 137.737 25.148ZM143.387 21.62C143.387 21.852 143.503 22.04 143.735 22.184C143.967 22.32 144.247 22.432 144.575 22.52C144.903 22.6 145.231 22.696 145.559 22.808C145.887 22.912 146.167 23.096 146.399 23.36C146.631 23.616 146.747 23.948 146.747 24.356C146.747 24.9 146.535 25.336 146.111 25.664C145.695 25.992 145.159 26.156 144.503 26.156C143.919 26.156 143.419 26.028 143.003 25.772C142.587 25.516 142.291 25.176 142.115 24.752L143.015 24.236C143.111 24.524 143.291 24.752 143.555 24.92C143.819 25.088 144.135 25.172 144.503 25.172C144.847 25.172 145.131 25.108 145.355 24.98C145.579 24.844 145.691 24.636 145.691 24.356C145.691 24.124 145.575 23.94 145.343 23.804C145.111 23.66 144.831 23.548 144.503 23.468C144.175 23.38 143.847 23.28 143.519 23.168C143.191 23.056 142.911 22.872 142.679 22.616C142.447 22.36 142.331 22.032 142.331 21.632C142.331 21.112 142.531 20.684 142.931 20.348C143.339 20.012 143.847 19.844 144.455 19.844C144.943 19.844 145.375 19.956 145.751 20.18C146.135 20.396 146.423 20.7 146.615 21.092L145.739 21.584C145.523 21.072 145.095 20.816 144.455 20.816C144.159 20.816 143.907 20.888 143.699 21.032C143.491 21.168 143.387 21.364 143.387 21.62ZM151.883 21.62C151.883 21.852 151.999 22.04 152.231 22.184C152.463 22.32 152.743 22.432 153.071 22.52C153.399 22.6 153.727 22.696 154.055 22.808C154.383 22.912 154.663 23.096 154.895 23.36C155.127 23.616 155.243 23.948 155.243 24.356C155.243 24.9 155.031 25.336 154.607 25.664C154.191 25.992 153.655 26.156 152.999 26.156C152.415 26.156 151.915 26.028 151.499 25.772C151.083 25.516 150.787 25.176 150.611 24.752L151.511 24.236C151.607 24.524 151.787 24.752 152.051 24.92C152.315 25.088 152.631 25.172 152.999 25.172C153.343 25.172 153.627 25.108 153.851 24.98C154.075 24.844 154.187 24.636 154.187 24.356C154.187 24.124 154.071 23.94 153.839 23.804C153.607 23.66 153.327 23.548 152.999 23.468C152.671 23.38 152.343 23.28 152.015 23.168C151.687 23.056 151.407 22.872 151.175 22.616C150.943 22.36 150.827 22.032 150.827 21.632C150.827 21.112 151.027 20.684 151.427 20.348C151.835 20.012 152.343 19.844 152.951 19.844C153.439 19.844 153.871 19.956 154.247 20.18C154.631 20.396 154.919 20.7 155.111 21.092L154.235 21.584C154.019 21.072 153.591 20.816 152.951 20.816C152.655 20.816 152.403 20.888 152.195 21.032C151.987 21.168 151.883 21.364 151.883 21.62ZM160.561 20H161.605V26H160.561V25.136C160.137 25.816 159.489 26.156 158.617 26.156C157.913 26.156 157.349 25.936 156.925 25.496C156.501 25.048 156.289 24.444 156.289 23.684V20H157.333V23.624C157.333 24.112 157.465 24.492 157.729 24.764C157.993 25.028 158.357 25.16 158.821 25.16C159.341 25.16 159.761 25 160.081 24.68C160.401 24.352 160.561 23.852 160.561 23.18V20ZM166.014 26.156C165.11 26.156 164.358 25.856 163.758 25.256C163.158 24.648 162.858 23.896 162.858 23C162.858 22.104 163.158 21.356 163.758 20.756C164.358 20.148 165.11 19.844 166.014 19.844C166.606 19.844 167.138 19.988 167.61 20.276C168.082 20.556 168.434 20.936 168.666 21.416L167.79 21.92C167.638 21.6 167.402 21.344 167.082 21.152C166.77 20.96 166.414 20.864 166.014 20.864C165.414 20.864 164.91 21.068 164.502 21.476C164.102 21.884 163.902 22.392 163.902 23C163.902 23.6 164.102 24.104 164.502 24.512C164.91 24.92 165.414 25.124 166.014 25.124C166.414 25.124 166.774 25.032 167.094 24.848C167.414 24.656 167.658 24.4 167.826 24.08L168.714 24.596C168.458 25.068 168.09 25.448 167.61 25.736C167.13 26.016 166.598 26.156 166.014 26.156ZM172.483 26.156C171.579 26.156 170.827 25.856 170.227 25.256C169.627 24.648 169.327 23.896 169.327 23C169.327 22.104 169.627 21.356 170.227 20.756C170.827 20.148 171.579 19.844 172.483 19.844C173.075 19.844 173.607 19.988 174.079 20.276C174.551 20.556 174.903 20.936 175.135 21.416L174.259 21.92C174.107 21.6 173.871 21.344 173.551 21.152C173.239 20.96 172.883 20.864 172.483 20.864C171.883 20.864 171.379 21.068 170.971 21.476C170.571 21.884 170.371 22.392 170.371 23C170.371 23.6 170.571 24.104 170.971 24.512C171.379 24.92 171.883 25.124 172.483 25.124C172.883 25.124 173.243 25.032 173.563 24.848C173.883 24.656 174.127 24.4 174.295 24.08L175.183 24.596C174.927 25.068 174.559 25.448 174.079 25.736C173.599 26.016 173.067 26.156 172.483 26.156ZM176.864 23.48C176.968 24.016 177.212 24.432 177.596 24.728C177.988 25.024 178.468 25.172 179.036 25.172C179.828 25.172 180.404 24.88 180.764 24.296L181.652 24.8C181.068 25.704 180.188 26.156 179.012 26.156C178.06 26.156 177.284 25.86 176.684 25.268C176.092 24.668 175.796 23.912 175.796 23C175.796 22.096 176.088 21.344 176.672 20.744C177.256 20.144 178.012 19.844 178.94 19.844C179.82 19.844 180.536 20.156 181.088 20.78C181.648 21.396 181.928 22.14 181.928 23.012C181.928 23.164 181.916 23.32 181.892 23.48H176.864ZM178.94 20.828C178.38 20.828 177.916 20.988 177.548 21.308C177.18 21.62 176.952 22.04 176.864 22.568H180.872C180.784 22 180.56 21.568 180.2 21.272C179.84 20.976 179.42 20.828 178.94 20.828ZM183.794 21.62C183.794 21.852 183.91 22.04 184.142 22.184C184.374 22.32 184.654 22.432 184.982 22.52C185.31 22.6 185.638 22.696 185.966 22.808C186.294 22.912 186.574 23.096 186.806 23.36C187.038 23.616 187.154 23.948 187.154 24.356C187.154 24.9 186.942 25.336 186.518 25.664C186.102 25.992 185.566 26.156 184.91 26.156C184.326 26.156 183.826 26.028 183.41 25.772C182.994 25.516 182.698 25.176 182.522 24.752L183.422 24.236C183.518 24.524 183.698 24.752 183.962 24.92C184.226 25.088 184.542 25.172 184.91 25.172C185.254 25.172 185.538 25.108 185.762 24.98C185.986 24.844 186.098 24.636 186.098 24.356C186.098 24.124 185.982 23.94 185.75 23.804C185.518 23.66 185.238 23.548 184.91 23.468C184.582 23.38 184.254 23.28 183.926 23.168C183.598 23.056 183.318 22.872 183.086 22.616C182.854 22.36 182.738 22.032 182.738 21.632C182.738 21.112 182.938 20.684 183.338 20.348C183.746 20.012 184.254 19.844 184.862 19.844C185.35 19.844 185.782 19.956 186.158 20.18C186.542 20.396 186.83 20.7 187.022 21.092L186.146 21.584C185.93 21.072 185.502 20.816 184.862 20.816C184.566 20.816 184.314 20.888 184.106 21.032C183.898 21.168 183.794 21.364 183.794 21.62ZM188.915 21.62C188.915 21.852 189.031 22.04 189.263 22.184C189.495 22.32 189.775 22.432 190.103 22.52C190.431 22.6 190.759 22.696 191.087 22.808C191.415 22.912 191.695 23.096 191.927 23.36C192.159 23.616 192.275 23.948 192.275 24.356C192.275 24.9 192.063 25.336 191.639 25.664C191.223 25.992 190.687 26.156 190.031 26.156C189.447 26.156 188.947 26.028 188.531 25.772C188.115 25.516 187.819 25.176 187.643 24.752L188.543 24.236C188.639 24.524 188.819 24.752 189.083 24.92C189.347 25.088 189.663 25.172 190.031 25.172C190.375 25.172 190.659 25.108 190.883 24.98C191.107 24.844 191.219 24.636 191.219 24.356C191.219 24.124 191.103 23.94 190.871 23.804C190.639 23.66 190.359 23.548 190.031 23.468C189.703 23.38 189.375 23.28 189.047 23.168C188.719 23.056 188.439 22.872 188.207 22.616C187.975 22.36 187.859 22.032 187.859 21.632C187.859 21.112 188.059 20.684 188.459 20.348C188.867 20.012 189.375 19.844 189.983 19.844C190.471 19.844 190.903 19.956 191.279 20.18C191.663 20.396 191.951 20.7 192.143 21.092L191.267 21.584C191.051 21.072 190.623 20.816 189.983 20.816C189.687 20.816 189.435 20.888 189.227 21.032C189.019 21.168 188.915 21.364 188.915 21.62ZM196.466 18.452C195.41 18.364 194.882 18.82 194.882 19.82V20H196.466V21.008H194.882V26H193.838V21.008H192.878V20H193.838V19.82C193.838 19.012 194.062 18.4 194.51 17.984C194.966 17.568 195.618 17.388 196.466 17.444V18.452ZM201.401 20H202.445V26H201.401V25.136C200.977 25.816 200.329 26.156 199.457 26.156C198.753 26.156 198.189 25.936 197.765 25.496C197.341 25.048 197.129 24.444 197.129 23.684V20H198.173V23.624C198.173 24.112 198.305 24.492 198.569 24.764C198.833 25.028 199.197 25.16 199.661 25.16C200.181 25.16 200.601 25 200.921 24.68C201.241 24.352 201.401 23.852 201.401 23.18V20ZM204.034 26V17.24H205.078V26H204.034ZM206.671 26V17.24H207.715V26H206.671ZM213.496 20H214.612L212.164 26.372C211.908 27.052 211.548 27.568 211.084 27.92C210.628 28.28 210.1 28.44 209.5 28.4V27.428C210.236 27.484 210.776 27.076 211.12 26.204L211.228 25.976L208.612 20H209.728L211.768 24.704L213.496 20ZM219.383 21.62C219.383 21.852 219.499 22.04 219.731 22.184C219.963 22.32 220.243 22.432 220.571 22.52C220.899 22.6 221.227 22.696 221.555 22.808C221.883 22.912 222.163 23.096 222.395 23.36C222.627 23.616 222.743 23.948 222.743 24.356C222.743 24.9 222.531 25.336 222.107 25.664C221.691 25.992 221.155 26.156 220.499 26.156C219.915 26.156 219.415 26.028 218.999 25.772C218.583 25.516 218.287 25.176 218.111 24.752L219.011 24.236C219.107 24.524 219.287 24.752 219.551 24.92C219.815 25.088 220.131 25.172 220.499 25.172C220.843 25.172 221.127 25.108 221.351 24.98C221.575 24.844 221.687 24.636 221.687 24.356C221.687 24.124 221.571 23.94 221.339 23.804C221.107 23.66 220.827 23.548 220.499 23.468C220.171 23.38 219.843 23.28 219.515 23.168C219.187 23.056 218.907 22.872 218.675 22.616C218.443 22.36 218.327 22.032 218.327 21.632C218.327 21.112 218.527 20.684 218.927 20.348C219.335 20.012 219.843 19.844 220.451 19.844C220.939 19.844 221.371 19.956 221.747 20.18C222.131 20.396 222.419 20.7 222.611 21.092L221.735 21.584C221.519 21.072 221.091 20.816 220.451 20.816C220.155 20.816 219.903 20.888 219.695 21.032C219.487 21.168 219.383 21.364 219.383 21.62ZM228.783 20H229.827V26H228.783V24.968C228.263 25.76 227.507 26.156 226.515 26.156C225.675 26.156 224.959 25.852 224.367 25.244C223.775 24.628 223.479 23.88 223.479 23C223.479 22.12 223.775 21.376 224.367 20.768C224.959 20.152 225.675 19.844 226.515 19.844C227.507 19.844 228.263 20.24 228.783 21.032V20ZM226.647 25.148C227.255 25.148 227.763 24.944 228.171 24.536C228.579 24.12 228.783 23.608 228.783 23C228.783 22.392 228.579 21.884 228.171 21.476C227.763 21.06 227.255 20.852 226.647 20.852C226.047 20.852 225.543 21.06 225.135 21.476C224.727 21.884 224.523 22.392 224.523 23C224.523 23.608 224.727 24.12 225.135 24.536C225.543 24.944 226.047 25.148 226.647 25.148ZM235.609 20H236.737L234.337 26H233.113L230.713 20H231.841L233.725 24.884L235.609 20ZM238.118 23.48C238.222 24.016 238.466 24.432 238.85 24.728C239.242 25.024 239.722 25.172 240.29 25.172C241.082 25.172 241.658 24.88 242.018 24.296L242.906 24.8C242.322 25.704 241.442 26.156 240.266 26.156C239.314 26.156 238.538 25.86 237.938 25.268C237.346 24.668 237.05 23.912 237.05 23C237.05 22.096 237.342 21.344 237.926 20.744C238.51 20.144 239.266 19.844 240.194 19.844C241.074 19.844 241.79 20.156 242.342 20.78C242.902 21.396 243.182 22.14 243.182 23.012C243.182 23.164 243.17 23.32 243.146 23.48H238.118ZM240.194 20.828C239.634 20.828 239.17 20.988 238.802 21.308C238.434 21.62 238.206 22.04 238.118 22.568H242.126C242.038 22 241.814 21.568 241.454 21.272C241.094 20.976 240.674 20.828 240.194 20.828ZM249.338 17.6H250.382V26H249.338V24.968C248.818 25.76 248.062 26.156 247.07 26.156C246.23 26.156 245.514 25.852 244.922 25.244C244.33 24.628 244.034 23.88 244.034 23C244.034 22.12 244.33 21.376 244.922 20.768C245.514 20.152 246.23 19.844 247.07 19.844C248.062 19.844 248.818 20.24 249.338 21.032V17.6ZM247.202 25.148C247.81 25.148 248.318 24.944 248.726 24.536C249.134 24.12 249.338 23.608 249.338 23C249.338 22.392 249.134 21.884 248.726 21.476C248.318 21.06 247.81 20.852 247.202 20.852C246.602 20.852 246.098 21.06 245.69 21.476C245.282 21.884 245.078 22.392 245.078 23C245.078 23.608 245.282 24.12 245.69 24.536C246.098 24.944 246.602 25.148 247.202 25.148ZM50.056 39.008H48.46V42.26C48.46 42.556 48.516 42.768 48.628 42.896C48.748 43.016 48.928 43.08 49.168 43.088C49.408 43.088 49.704 43.08 50.056 43.064V44C49.144 44.12 48.476 44.048 48.052 43.784C47.628 43.512 47.416 43.004 47.416 42.26V39.008H46.228V38H47.416V36.632L48.46 36.32V38H50.056V39.008ZM54.28 37.844C54.984 37.844 55.548 38.068 55.972 38.516C56.396 38.956 56.608 39.556 56.608 40.316V44H55.564V40.376C55.564 39.888 55.432 39.512 55.168 39.248C54.904 38.976 54.54 38.84 54.076 38.84C53.556 38.84 53.136 39.004 52.816 39.332C52.496 39.652 52.336 40.148 52.336 40.82V44H51.292V35.6H52.336V38.864C52.76 38.184 53.408 37.844 54.28 37.844ZM58.7974 41.48C58.9014 42.016 59.1454 42.432 59.5294 42.728C59.9214 43.024 60.4014 43.172 60.9694 43.172C61.7614 43.172 62.3374 42.88 62.6974 42.296L63.5854 42.8C63.0014 43.704 62.1214 44.156 60.9454 44.156C59.9934 44.156 59.2174 43.86 58.6174 43.268C58.0254 42.668 57.7294 41.912 57.7294 41C57.7294 40.096 58.0214 39.344 58.6054 38.744C59.1894 38.144 59.9454 37.844 60.8734 37.844C61.7534 37.844 62.4694 38.156 63.0214 38.78C63.5814 39.396 63.8614 40.14 63.8614 41.012C63.8614 41.164 63.8494 41.32 63.8254 41.48H58.7974ZM60.8734 38.828C60.3134 38.828 59.8494 38.988 59.4814 39.308C59.1134 39.62 58.8854 40.04 58.7974 40.568H62.8054C62.7174 40 62.4934 39.568 62.1334 39.272C61.7734 38.976 61.3534 38.828 60.8734 38.828ZM75.1295 38H76.2215L74.3615 44H73.2935L71.8895 39.56L70.4855 44H69.4175L67.5575 38H68.6495L69.9695 42.56L71.3855 38H72.3935L73.8095 42.572L75.1295 38ZM82.1255 43.244C81.5095 43.852 80.7615 44.156 79.8815 44.156C79.0015 44.156 78.2535 43.852 77.6375 43.244C77.0295 42.636 76.7255 41.888 76.7255 41C76.7255 40.112 77.0295 39.364 77.6375 38.756C78.2535 38.148 79.0015 37.844 79.8815 37.844C80.7615 37.844 81.5095 38.148 82.1255 38.756C82.7415 39.364 83.0495 40.112 83.0495 41C83.0495 41.888 82.7415 42.636 82.1255 43.244ZM79.8815 43.136C80.4815 43.136 80.9855 42.932 81.3935 42.524C81.8015 42.116 82.0055 41.608 82.0055 41C82.0055 40.392 81.8015 39.884 81.3935 39.476C80.9855 39.068 80.4815 38.864 79.8815 38.864C79.2895 38.864 78.7895 39.068 78.3815 39.476C77.9735 39.884 77.7695 40.392 77.7695 41C77.7695 41.608 77.9735 42.116 78.3815 42.524C78.7895 42.932 79.2895 43.136 79.8815 43.136ZM85.3243 39.008C85.6683 38.264 86.2923 37.892 87.1963 37.892V38.984C86.6843 38.96 86.2443 39.096 85.8763 39.392C85.5083 39.688 85.3243 40.164 85.3243 40.82V44H84.2803V38H85.3243V39.008ZM88.2178 44V35.24H89.2618V44H88.2178ZM95.8225 35.6H96.8665V44H95.8225V42.968C95.3025 43.76 94.5465 44.156 93.5545 44.156C92.7145 44.156 91.9985 43.852 91.4065 43.244C90.8145 42.628 90.5185 41.88 90.5185 41C90.5185 40.12 90.8145 39.376 91.4065 38.768C91.9985 38.152 92.7145 37.844 93.5545 37.844C94.5465 37.844 95.3025 38.24 95.8225 39.032V35.6ZM93.6865 43.148C94.2945 43.148 94.8025 42.944 95.2105 42.536C95.6185 42.12 95.8225 41.608 95.8225 41C95.8225 40.392 95.6185 39.884 95.2105 39.476C94.8025 39.06 94.2945 38.852 93.6865 38.852C93.0865 38.852 92.5825 39.06 92.1745 39.476C91.7665 39.884 91.5625 40.392 91.5625 41C91.5625 41.608 91.7665 42.12 92.1745 42.536C92.5825 42.944 93.0865 43.148 93.6865 43.148ZM99.1083 44.132C98.8923 44.132 98.7083 44.056 98.5563 43.904C98.4043 43.752 98.3283 43.568 98.3283 43.352C98.3283 43.136 98.4043 42.952 98.5563 42.8C98.7083 42.648 98.8923 42.572 99.1083 42.572C99.3323 42.572 99.5163 42.648 99.6603 42.8C99.8123 42.952 99.8883 43.136 99.8883 43.352C99.8883 43.568 99.8123 43.752 99.6603 43.904C99.5163 44.056 99.3323 44.132 99.1083 44.132Z" fill="#1A1A1A"/>
<path d="M37.9581 67.748C37.7021 68.012 37.3861 68.144 37.0101 68.144C36.6341 68.144 36.3141 68.012 36.0501 67.748C35.7861 67.484 35.6541 67.164 35.6541 66.788C35.6541 66.412 35.7861 66.096 36.0501 65.84C36.3141 65.576 36.6341 65.444 37.0101 65.444C37.3861 65.444 37.7021 65.576 37.9581 65.84C38.2221 66.096 38.3541 66.412 38.3541 66.788C38.3541 67.164 38.2221 67.484 37.9581 67.748ZM52.276 62.6V63.656H49.792V71H48.688V63.656H46.216V62.6H52.276ZM56.2605 64.844C56.9645 64.844 57.5285 65.068 57.9525 65.516C58.3765 65.956 58.5885 66.556 58.5885 67.316V71H57.5445V67.376C57.5445 66.888 57.4125 66.512 57.1485 66.248C56.8845 65.976 56.5205 65.84 56.0565 65.84C55.5365 65.84 55.1165 66.004 54.7965 66.332C54.4765 66.652 54.3165 67.148 54.3165 67.82V71H53.2725V62.6H54.3165V65.864C54.7405 65.184 55.3885 64.844 56.2605 64.844ZM60.7779 68.48C60.8819 69.016 61.1259 69.432 61.5099 69.728C61.9019 70.024 62.3819 70.172 62.9499 70.172C63.7419 70.172 64.3179 69.88 64.6779 69.296L65.5659 69.8C64.9819 70.704 64.1019 71.156 62.9259 71.156C61.9739 71.156 61.1979 70.86 60.5979 70.268C60.0059 69.668 59.7099 68.912 59.7099 68C59.7099 67.096 60.0019 66.344 60.5859 65.744C61.1699 65.144 61.9259 64.844 62.8539 64.844C63.7339 64.844 64.4499 65.156 65.0019 65.78C65.5619 66.396 65.8419 67.14 65.8419 68.012C65.8419 68.164 65.8299 68.32 65.8059 68.48H60.7779ZM62.8539 65.828C62.2939 65.828 61.8299 65.988 61.4619 66.308C61.0939 66.62 60.8659 67.04 60.7779 67.568H64.7859C64.6979 67 64.4739 66.568 64.1139 66.272C63.7539 65.976 63.3339 65.828 62.8539 65.828ZM71.266 69.944H75.166V71H70.15V62.6H75.106V63.656H71.266V66.236H74.806V67.28H71.266V69.944ZM79.0964 71.156C78.1924 71.156 77.4404 70.856 76.8404 70.256C76.2404 69.648 75.9404 68.896 75.9404 68C75.9404 67.104 76.2404 66.356 76.8404 65.756C77.4404 65.148 78.1924 64.844 79.0964 64.844C79.6884 64.844 80.2204 64.988 80.6924 65.276C81.1644 65.556 81.5164 65.936 81.7484 66.416L80.8724 66.92C80.7204 66.6 80.4844 66.344 80.1644 66.152C79.8524 65.96 79.4964 65.864 79.0964 65.864C78.4964 65.864 77.9924 66.068 77.5844 66.476C77.1844 66.884 76.9844 67.392 76.9844 68C76.9844 68.6 77.1844 69.104 77.5844 69.512C77.9924 69.92 78.4964 70.124 79.0964 70.124C79.4964 70.124 79.8564 70.032 80.1764 69.848C80.4964 69.656 80.7404 69.4 80.9084 69.08L81.7964 69.596C81.5404 70.068 81.1724 70.448 80.6924 70.736C80.2124 71.016 79.6804 71.156 79.0964 71.156ZM85.8152 64.844C86.5192 64.844 87.0832 65.068 87.5072 65.516C87.9312 65.956 88.1432 66.556 88.1432 67.316V71H87.0992V67.376C87.0992 66.888 86.9672 66.512 86.7032 66.248C86.4392 65.976 86.0752 65.84 85.6112 65.84C85.0912 65.84 84.6712 66.004 84.3512 66.332C84.0312 66.652 83.8712 67.148 83.8712 67.82V71H82.8272V62.6H83.8712V65.864C84.2952 65.184 84.9432 64.844 85.8152 64.844ZM94.6646 70.244C94.0486 70.852 93.3006 71.156 92.4206 71.156C91.5406 71.156 90.7926 70.852 90.1766 70.244C89.5686 69.636 89.2646 68.888 89.2646 68C89.2646 67.112 89.5686 66.364 90.1766 65.756C90.7926 65.148 91.5406 64.844 92.4206 64.844C93.3006 64.844 94.0486 65.148 94.6646 65.756C95.2806 66.364 95.5886 67.112 95.5886 68C95.5886 68.888 95.2806 69.636 94.6646 70.244ZM92.4206 70.136C93.0206 70.136 93.5246 69.932 93.9326 69.524C94.3406 69.116 94.5446 68.608 94.5446 68C94.5446 67.392 94.3406 66.884 93.9326 66.476C93.5246 66.068 93.0206 65.864 92.4206 65.864C91.8286 65.864 91.3286 66.068 90.9206 66.476C90.5126 66.884 90.3086 67.392 90.3086 68C90.3086 68.608 90.5126 69.116 90.9206 69.524C91.3286 69.932 91.8286 70.136 92.4206 70.136ZM105.459 71L104.775 69.116H100.995L100.311 71H99.1233L102.255 62.6H103.515L106.647 71H105.459ZM101.379 68.072H104.391L102.879 63.932L101.379 68.072ZM110.842 64.844C111.682 64.844 112.398 65.152 112.99 65.768C113.582 66.376 113.878 67.12 113.878 68C113.878 68.88 113.582 69.628 112.99 70.244C112.398 70.852 111.682 71.156 110.842 71.156C109.85 71.156 109.094 70.76 108.574 69.968V73.4H107.53V65H108.574V66.032C109.094 65.24 109.85 64.844 110.842 64.844ZM110.71 70.148C111.31 70.148 111.814 69.944 112.222 69.536C112.63 69.12 112.834 68.608 112.834 68C112.834 67.392 112.63 66.884 112.222 66.476C111.814 66.06 111.31 65.852 110.71 65.852C110.102 65.852 109.594 66.06 109.186 66.476C108.778 66.884 108.574 67.392 108.574 68C108.574 68.608 108.778 69.12 109.186 69.536C109.594 69.944 110.102 70.148 110.71 70.148ZM118.436 64.844C119.276 64.844 119.992 65.152 120.584 65.768C121.176 66.376 121.472 67.12 121.472 68C121.472 68.88 121.176 69.628 120.584 70.244C119.992 70.852 119.276 71.156 118.436 71.156C117.444 71.156 116.688 70.76 116.168 69.968V73.4H115.124V65H116.168V66.032C116.688 65.24 117.444 64.844 118.436 64.844ZM118.304 70.148C118.904 70.148 119.408 69.944 119.816 69.536C120.224 69.12 120.428 68.608 120.428 68C120.428 67.392 120.224 66.884 119.816 66.476C119.408 66.06 118.904 65.852 118.304 65.852C117.696 65.852 117.188 66.06 116.78 66.476C116.372 66.884 116.168 67.392 116.168 68C116.168 68.608 116.372 69.12 116.78 69.536C117.188 69.944 117.696 70.148 118.304 70.148ZM128.706 64.844C129.41 64.844 129.974 65.068 130.398 65.516C130.822 65.956 131.034 66.556 131.034 67.316V71H129.99V67.376C129.99 66.888 129.858 66.512 129.594 66.248C129.33 65.976 128.966 65.84 128.502 65.84C127.982 65.84 127.562 66.004 127.242 66.332C126.922 66.652 126.762 67.148 126.762 67.82V71H125.718V62.6H126.762V65.864C127.186 65.184 127.834 64.844 128.706 64.844ZM137.459 65H138.503V71H137.459V69.968C136.939 70.76 136.183 71.156 135.191 71.156C134.351 71.156 133.635 70.852 133.043 70.244C132.451 69.628 132.155 68.88 132.155 68C132.155 67.12 132.451 66.376 133.043 65.768C133.635 65.152 134.351 64.844 135.191 64.844C136.183 64.844 136.939 65.24 137.459 66.032V65ZM135.323 70.148C135.931 70.148 136.439 69.944 136.847 69.536C137.255 69.12 137.459 68.608 137.459 68C137.459 67.392 137.255 66.884 136.847 66.476C136.439 66.06 135.931 65.852 135.323 65.852C134.723 65.852 134.219 66.06 133.811 66.476C133.403 66.884 133.199 67.392 133.199 68C133.199 68.608 133.403 69.12 133.811 69.536C134.219 69.944 134.723 70.148 135.323 70.148ZM140.973 66.62C140.973 66.852 141.089 67.04 141.321 67.184C141.553 67.32 141.833 67.432 142.161 67.52C142.489 67.6 142.817 67.696 143.145 67.808C143.473 67.912 143.753 68.096 143.985 68.36C144.217 68.616 144.333 68.948 144.333 69.356C144.333 69.9 144.121 70.336 143.697 70.664C143.281 70.992 142.745 71.156 142.089 71.156C141.505 71.156 141.005 71.028 140.589 70.772C140.173 70.516 139.877 70.176 139.701 69.752L140.601 69.236C140.697 69.524 140.877 69.752 141.141 69.92C141.405 70.088 141.721 70.172 142.089 70.172C142.433 70.172 142.717 70.108 142.941 69.98C143.165 69.844 143.277 69.636 143.277 69.356C143.277 69.124 143.161 68.94 142.929 68.804C142.697 68.66 142.417 68.548 142.089 68.468C141.761 68.38 141.433 68.28 141.105 68.168C140.777 68.056 140.497 67.872 140.265 67.616C140.033 67.36 139.917 67.032 139.917 66.632C139.917 66.112 140.117 65.684 140.517 65.348C140.925 65.012 141.433 64.844 142.041 64.844C142.529 64.844 142.961 64.956 143.337 65.18C143.721 65.396 144.009 65.7 144.201 66.092L143.325 66.584C143.109 66.072 142.681 65.816 142.041 65.816C141.745 65.816 141.493 65.888 141.285 66.032C141.077 66.168 140.973 66.364 140.973 66.62ZM149.469 66.62C149.469 66.852 149.585 67.04 149.817 67.184C150.049 67.32 150.329 67.432 150.657 67.52C150.985 67.6 151.313 67.696 151.641 67.808C151.969 67.912 152.249 68.096 152.481 68.36C152.713 68.616 152.829 68.948 152.829 69.356C152.829 69.9 152.617 70.336 152.193 70.664C151.777 70.992 151.241 71.156 150.585 71.156C150.001 71.156 149.501 71.028 149.085 70.772C148.669 70.516 148.373 70.176 148.197 69.752L149.097 69.236C149.193 69.524 149.373 69.752 149.637 69.92C149.901 70.088 150.217 70.172 150.585 70.172C150.929 70.172 151.213 70.108 151.437 69.98C151.661 69.844 151.773 69.636 151.773 69.356C151.773 69.124 151.657 68.94 151.425 68.804C151.193 68.66 150.913 68.548 150.585 68.468C150.257 68.38 149.929 68.28 149.601 68.168C149.273 68.056 148.993 67.872 148.761 67.616C148.529 67.36 148.413 67.032 148.413 66.632C148.413 66.112 148.613 65.684 149.013 65.348C149.421 65.012 149.929 64.844 150.537 64.844C151.025 64.844 151.457 64.956 151.833 65.18C152.217 65.396 152.505 65.7 152.697 66.092L151.821 66.584C151.605 66.072 151.177 65.816 150.537 65.816C150.241 65.816 149.989 65.888 149.781 66.032C149.573 66.168 149.469 66.364 149.469 66.62ZM158.147 65H159.191V71H158.147V70.136C157.723 70.816 157.075 71.156 156.203 71.156C155.499 71.156 154.935 70.936 154.511 70.496C154.087 70.048 153.875 69.444 153.875 68.684V65H154.919V68.624C154.919 69.112 155.051 69.492 155.315 69.764C155.579 70.028 155.943 70.16 156.407 70.16C156.927 70.16 157.347 70 157.667 69.68C157.987 69.352 158.147 68.852 158.147 68.18V65ZM163.6 71.156C162.696 71.156 161.944 70.856 161.344 70.256C160.744 69.648 160.444 68.896 160.444 68C160.444 67.104 160.744 66.356 161.344 65.756C161.944 65.148 162.696 64.844 163.6 64.844C164.192 64.844 164.724 64.988 165.196 65.276C165.668 65.556 166.02 65.936 166.252 66.416L165.376 66.92C165.224 66.6 164.988 66.344 164.668 66.152C164.356 65.96 164 65.864 163.6 65.864C163 65.864 162.496 66.068 162.088 66.476C161.688 66.884 161.488 67.392 161.488 68C161.488 68.6 161.688 69.104 162.088 69.512C162.496 69.92 163 70.124 163.6 70.124C164 70.124 164.36 70.032 164.68 69.848C165 69.656 165.244 69.4 165.412 69.08L166.3 69.596C166.044 70.068 165.676 70.448 165.196 70.736C164.716 71.016 164.184 71.156 163.6 71.156ZM170.069 71.156C169.165 71.156 168.413 70.856 167.813 70.256C167.213 69.648 166.913 68.896 166.913 68C166.913 67.104 167.213 66.356 167.813 65.756C168.413 65.148 169.165 64.844 170.069 64.844C170.661 64.844 171.193 64.988 171.665 65.276C172.137 65.556 172.489 65.936 172.721 66.416L171.845 66.92C171.693 66.6 171.457 66.344 171.137 66.152C170.825 65.96 170.469 65.864 170.069 65.864C169.469 65.864 168.965 66.068 168.557 66.476C168.157 66.884 167.957 67.392 167.957 68C167.957 68.6 168.157 69.104 168.557 69.512C168.965 69.92 169.469 70.124 170.069 70.124C170.469 70.124 170.829 70.032 171.149 69.848C171.469 69.656 171.713 69.4 171.881 69.08L172.769 69.596C172.513 70.068 172.145 70.448 171.665 70.736C171.185 71.016 170.653 71.156 170.069 71.156ZM174.45 68.48C174.554 69.016 174.798 69.432 175.182 69.728C175.574 70.024 176.054 70.172 176.622 70.172C177.414 70.172 177.99 69.88 178.35 69.296L179.238 69.8C178.654 70.704 177.774 71.156 176.598 71.156C175.646 71.156 174.87 70.86 174.27 70.268C173.678 69.668 173.382 68.912 173.382 68C173.382 67.096 173.674 66.344 174.258 65.744C174.842 65.144 175.598 64.844 176.526 64.844C177.406 64.844 178.122 65.156 178.674 65.78C179.234 66.396 179.514 67.14 179.514 68.012C179.514 68.164 179.502 68.32 179.478 68.48H174.45ZM176.526 65.828C175.966 65.828 175.502 65.988 175.134 66.308C174.766 66.62 174.538 67.04 174.45 67.568H178.458C178.37 67 178.146 66.568 177.786 66.272C177.426 65.976 177.006 65.828 176.526 65.828ZM181.38 66.62C181.38 66.852 181.496 67.04 181.728 67.184C181.96 67.32 182.24 67.432 182.568 67.52C182.896 67.6 183.224 67.696 183.552 67.808C183.88 67.912 184.16 68.096 184.392 68.36C184.624 68.616 184.74 68.948 184.74 69.356C184.74 69.9 184.528 70.336 184.104 70.664C183.688 70.992 183.152 71.156 182.496 71.156C181.912 71.156 181.412 71.028 180.996 70.772C180.58 70.516 180.284 70.176 180.108 69.752L181.008 69.236C181.104 69.524 181.284 69.752 181.548 69.92C181.812 70.088 182.128 70.172 182.496 70.172C182.84 70.172 183.124 70.108 183.348 69.98C183.572 69.844 183.684 69.636 183.684 69.356C183.684 69.124 183.568 68.94 183.336 68.804C183.104 68.66 182.824 68.548 182.496 68.468C182.168 68.38 181.84 68.28 181.512 68.168C181.184 68.056 180.904 67.872 180.672 67.616C180.44 67.36 180.324 67.032 180.324 66.632C180.324 66.112 180.524 65.684 180.924 65.348C181.332 65.012 181.84 64.844 182.448 64.844C182.936 64.844 183.368 64.956 183.744 65.18C184.128 65.396 184.416 65.7 184.608 66.092L183.732 66.584C183.516 66.072 183.088 65.816 182.448 65.816C182.152 65.816 181.9 65.888 181.692 66.032C181.484 66.168 181.38 66.364 181.38 66.62ZM186.501 66.62C186.501 66.852 186.617 67.04 186.849 67.184C187.081 67.32 187.361 67.432 187.689 67.52C188.017 67.6 188.345 67.696 188.673 67.808C189.001 67.912 189.281 68.096 189.513 68.36C189.745 68.616 189.861 68.948 189.861 69.356C189.861 69.9 189.649 70.336 189.225 70.664C188.809 70.992 188.273 71.156 187.617 71.156C187.033 71.156 186.533 71.028 186.117 70.772C185.701 70.516 185.405 70.176 185.229 69.752L186.129 69.236C186.225 69.524 186.405 69.752 186.669 69.92C186.933 70.088 187.249 70.172 187.617 70.172C187.961 70.172 188.245 70.108 188.469 69.98C188.693 69.844 188.805 69.636 188.805 69.356C188.805 69.124 188.689 68.94 188.457 68.804C188.225 68.66 187.945 68.548 187.617 68.468C187.289 68.38 186.961 68.28 186.633 68.168C186.305 68.056 186.025 67.872 185.793 67.616C185.561 67.36 185.445 67.032 185.445 66.632C185.445 66.112 185.645 65.684 186.045 65.348C186.453 65.012 186.961 64.844 187.569 64.844C188.057 64.844 188.489 64.956 188.865 65.18C189.249 65.396 189.537 65.7 189.729 66.092L188.853 66.584C188.637 66.072 188.209 65.816 187.569 65.816C187.273 65.816 187.021 65.888 186.813 66.032C186.605 66.168 186.501 66.364 186.501 66.62ZM194.052 63.452C192.996 63.364 192.468 63.82 192.468 64.82V65H194.052V66.008H192.468V71H191.424V66.008H190.464V65H191.424V64.82C191.424 64.012 191.648 63.4 192.096 62.984C192.552 62.568 193.204 62.388 194.052 62.444V63.452ZM198.987 65H200.031V71H198.987V70.136C198.563 70.816 197.915 71.156 197.043 71.156C196.339 71.156 195.775 70.936 195.351 70.496C194.927 70.048 194.715 69.444 194.715 68.684V65H195.759V68.624C195.759 69.112 195.891 69.492 196.155 69.764C196.419 70.028 196.783 70.16 197.247 70.16C197.767 70.16 198.187 70 198.507 69.68C198.827 69.352 198.987 68.852 198.987 68.18V65ZM201.62 71V62.24H202.664V71H201.62ZM204.257 71V62.24H205.301V71H204.257ZM211.082 65H212.198L209.75 71.372C209.494 72.052 209.134 72.568 208.67 72.92C208.214 73.28 207.686 73.44 207.086 73.4V72.428C207.822 72.484 208.362 72.076 208.706 71.204L208.814 70.976L206.198 65H207.314L209.354 69.704L211.082 65ZM216.969 66.62C216.969 66.852 217.085 67.04 217.317 67.184C217.549 67.32 217.829 67.432 218.157 67.52C218.485 67.6 218.813 67.696 219.141 67.808C219.469 67.912 219.749 68.096 219.981 68.36C220.213 68.616 220.329 68.948 220.329 69.356C220.329 69.9 220.117 70.336 219.693 70.664C219.277 70.992 218.741 71.156 218.085 71.156C217.501 71.156 217.001 71.028 216.585 70.772C216.169 70.516 215.873 70.176 215.697 69.752L216.597 69.236C216.693 69.524 216.873 69.752 217.137 69.92C217.401 70.088 217.717 70.172 218.085 70.172C218.429 70.172 218.713 70.108 218.937 69.98C219.161 69.844 219.273 69.636 219.273 69.356C219.273 69.124 219.157 68.94 218.925 68.804C218.693 68.66 218.413 68.548 218.085 68.468C217.757 68.38 217.429 68.28 217.101 68.168C216.773 68.056 216.493 67.872 216.261 67.616C216.029 67.36 215.913 67.032 215.913 66.632C215.913 66.112 216.113 65.684 216.513 65.348C216.921 65.012 217.429 64.844 218.037 64.844C218.525 64.844 218.957 64.956 219.333 65.18C219.717 65.396 220.005 65.7 220.197 66.092L219.321 66.584C219.105 66.072 218.677 65.816 218.037 65.816C217.741 65.816 217.489 65.888 217.281 66.032C217.073 66.168 216.969 66.364 216.969 66.62ZM226.369 65H227.413V71H226.369V69.968C225.849 70.76 225.093 71.156 224.101 71.156C223.261 71.156 222.545 70.852 221.953 70.244C221.361 69.628 221.065 68.88 221.065 68C221.065 67.12 221.361 66.376 221.953 65.768C222.545 65.152 223.261 64.844 224.101 64.844C225.093 64.844 225.849 65.24 226.369 66.032V65ZM224.233 70.148C224.841 70.148 225.349 69.944 225.757 69.536C226.165 69.12 226.369 68.608 226.369 68C226.369 67.392 226.165 66.884 225.757 66.476C225.349 66.06 224.841 65.852 224.233 65.852C223.633 65.852 223.129 66.06 222.721 66.476C222.313 66.884 222.109 67.392 222.109 68C222.109 68.608 222.313 69.12 222.721 69.536C223.129 69.944 223.633 70.148 224.233 70.148ZM233.195 65H234.323L231.923 71H230.699L228.299 65H229.427L231.311 69.884L233.195 65ZM235.704 68.48C235.808 69.016 236.052 69.432 236.436 69.728C236.828 70.024 237.308 70.172 237.876 70.172C238.668 70.172 239.244 69.88 239.604 69.296L240.492 69.8C239.908 70.704 239.028 71.156 237.852 71.156C236.9 71.156 236.124 70.86 235.524 70.268C234.932 69.668 234.636 68.912 234.636 68C234.636 67.096 234.928 66.344 235.512 65.744C236.096 65.144 236.852 64.844 237.78 64.844C238.66 64.844 239.376 65.156 239.928 65.78C240.488 66.396 240.768 67.14 240.768 68.012C240.768 68.164 240.756 68.32 240.732 68.48H235.704ZM237.78 65.828C237.22 65.828 236.756 65.988 236.388 66.308C236.02 66.62 235.792 67.04 235.704 67.568H239.712C239.624 67 239.4 66.568 239.04 66.272C238.68 65.976 238.26 65.828 237.78 65.828ZM246.924 62.6H247.968V71H246.924V69.968C246.404 70.76 245.648 71.156 244.656 71.156C243.816 71.156 243.1 70.852 242.508 70.244C241.916 69.628 241.62 68.88 241.62 68C241.62 67.12 241.916 66.376 242.508 65.768C243.1 65.152 243.816 64.844 244.656 64.844C245.648 64.844 246.404 65.24 246.924 66.032V62.6ZM244.788 70.148C245.396 70.148 245.904 69.944 246.312 69.536C246.72 69.12 246.924 68.608 246.924 68C246.924 67.392 246.72 66.884 246.312 66.476C245.904 66.06 245.396 65.852 244.788 65.852C244.188 65.852 243.684 66.06 243.276 66.476C242.868 66.884 242.664 67.392 242.664 68C242.664 68.608 242.868 69.12 243.276 69.536C243.684 69.944 244.188 70.148 244.788 70.148ZM51.772 83H52.804V88.748C52.804 89.636 52.504 90.324 51.904 90.812C51.304 91.308 50.584 91.556 49.744 91.556C49.072 91.556 48.492 91.428 48.004 91.172C47.516 90.924 47.148 90.564 46.9 90.092L47.812 89.576C48.14 90.248 48.792 90.584 49.768 90.584C50.392 90.584 50.88 90.42 51.232 90.092C51.592 89.764 51.772 89.316 51.772 88.748V87.896C51.244 88.696 50.492 89.096 49.516 89.096C48.66 89.096 47.936 88.792 47.344 88.184C46.752 87.576 46.456 86.836 46.456 85.964C46.456 85.092 46.752 84.356 47.344 83.756C47.936 83.148 48.66 82.844 49.516 82.844C50.5 82.844 51.252 83.24 51.772 84.032V83ZM48.112 87.488C48.52 87.896 49.028 88.1 49.636 88.1C50.244 88.1 50.752 87.896 51.16 87.488C51.568 87.08 51.772 86.572 51.772 85.964C51.772 85.364 51.568 84.86 51.16 84.452C50.752 84.044 50.244 83.84 49.636 83.84C49.028 83.84 48.52 84.044 48.112 84.452C47.704 84.86 47.5 85.364 47.5 85.964C47.5 86.572 47.704 87.08 48.112 87.488ZM59.3538 83H60.3978V89H59.3538V87.968C58.8338 88.76 58.0778 89.156 57.0858 89.156C56.2458 89.156 55.5298 88.852 54.9378 88.244C54.3458 87.628 54.0498 86.88 54.0498 86C54.0498 85.12 54.3458 84.376 54.9378 83.768C55.5298 83.152 56.2458 82.844 57.0858 82.844C58.0778 82.844 58.8338 83.24 59.3538 84.032V83ZM57.2178 88.148C57.8258 88.148 58.3338 87.944 58.7418 87.536C59.1498 87.12 59.3538 86.608 59.3538 86C59.3538 85.392 59.1498 84.884 58.7418 84.476C58.3338 84.06 57.8258 83.852 57.2178 83.852C56.6178 83.852 56.1138 84.06 55.7058 84.476C55.2978 84.884 55.0938 85.392 55.0938 86C55.0938 86.608 55.2978 87.12 55.7058 87.536C56.1138 87.944 56.6178 88.148 57.2178 88.148ZM68.4595 82.844C69.1315 82.844 69.6755 83.064 70.0915 83.504C70.5075 83.936 70.7155 84.524 70.7155 85.268V89H69.6715V85.304C69.6715 84.84 69.5515 84.48 69.3115 84.224C69.0715 83.968 68.7515 83.84 68.3515 83.84C67.9035 83.84 67.5435 83.992 67.2715 84.296C67.0075 84.592 66.8755 85.048 66.8755 85.664V89H65.8315V85.304C65.8315 84.84 65.7155 84.48 65.4835 84.224C65.2595 83.968 64.9515 83.84 64.5595 83.84C64.1195 83.84 63.7515 83.992 63.4555 84.296C63.1675 84.6 63.0235 85.056 63.0235 85.664V89H61.9795V83H63.0235V83.804C63.4315 83.164 64.0275 82.844 64.8115 82.844C65.6195 82.844 66.2075 83.184 66.5755 83.864C66.9915 83.184 67.6195 82.844 68.4595 82.844ZM72.6911 81.908C72.4911 81.908 72.3231 81.84 72.1871 81.704C72.0511 81.568 71.9831 81.404 71.9831 81.212C71.9831 81.02 72.0511 80.856 72.1871 80.72C72.3231 80.576 72.4911 80.504 72.6911 80.504C72.8831 80.504 73.0471 80.576 73.1831 80.72C73.3191 80.856 73.3871 81.02 73.3871 81.212C73.3871 81.404 73.3191 81.568 73.1831 81.704C73.0471 81.84 72.8831 81.908 72.6911 81.908ZM72.1631 89V83H73.2071V89H72.1631ZM77.7878 82.844C78.4918 82.844 79.0558 83.068 79.4798 83.516C79.9038 83.956 80.1158 84.556 80.1158 85.316V89H79.0718V85.376C79.0718 84.888 78.9398 84.512 78.6758 84.248C78.4118 83.976 78.0478 83.84 77.5838 83.84C77.0638 83.84 76.6438 84.004 76.3238 84.332C76.0038 84.652 75.8438 85.148 75.8438 85.82V89H74.7998V83H75.8438V83.864C76.2678 83.184 76.9158 82.844 77.7878 82.844ZM86.5533 83H87.5853V88.748C87.5853 89.636 87.2853 90.324 86.6853 90.812C86.0853 91.308 85.3653 91.556 84.5253 91.556C83.8533 91.556 83.2733 91.428 82.7853 91.172C82.2973 90.924 81.9293 90.564 81.6813 90.092L82.5933 89.576C82.9213 90.248 83.5733 90.584 84.5493 90.584C85.1733 90.584 85.6613 90.42 86.0133 90.092C86.3733 89.764 86.5533 89.316 86.5533 88.748V87.896C86.0253 88.696 85.2733 89.096 84.2973 89.096C83.4413 89.096 82.7173 88.792 82.1253 88.184C81.5333 87.576 81.2373 86.836 81.2373 85.964C81.2373 85.092 81.5333 84.356 82.1253 83.756C82.7173 83.148 83.4413 82.844 84.2973 82.844C85.2813 82.844 86.0333 83.24 86.5533 84.032V83ZM82.8933 87.488C83.3013 87.896 83.8093 88.1 84.4173 88.1C85.0253 88.1 85.5333 87.896 85.9413 87.488C86.3493 87.08 86.5533 86.572 86.5533 85.964C86.5533 85.364 86.3493 84.86 85.9413 84.452C85.5333 84.044 85.0253 83.84 84.4173 83.84C83.8093 83.84 83.3013 84.044 82.8933 84.452C82.4853 84.86 82.2812 85.364 82.2812 85.964C82.2812 86.572 82.4853 87.08 82.8933 87.488ZM89.827 89.132C89.611 89.132 89.427 89.056 89.275 88.904C89.123 88.752 89.047 88.568 89.047 88.352C89.047 88.136 89.123 87.952 89.275 87.8C89.427 87.648 89.611 87.572 89.827 87.572C90.051 87.572 90.235 87.648 90.379 87.8C90.531 87.952 90.607 88.136 90.607 88.352C90.607 88.568 90.531 88.752 90.379 88.904C90.235 89.056 90.051 89.132 89.827 89.132Z" fill="#1A1A1A"/>
<path d="M37.9581 112.748C37.7021 113.012 37.3861 113.144 37.0101 113.144C36.6341 113.144 36.3141 113.012 36.0501 112.748C35.7861 112.484 35.6541 112.164 35.6541 111.788C35.6541 111.412 35.7861 111.096 36.0501 110.84C36.3141 110.576 36.6341 110.444 37.0101 110.444C37.3861 110.444 37.7021 110.576 37.9581 110.84C38.2221 111.096 38.3541 111.412 38.3541 111.788C38.3541 112.164 38.2221 112.484 37.9581 112.748ZM48.016 114.944H51.916V116H46.9V107.6H51.856V108.656H48.016V111.236H51.556V112.28H48.016V114.944ZM57.3553 110H58.4833L56.0833 116H54.8593L52.4593 110H53.5873L55.4713 114.884L57.3553 110ZM59.8638 113.48C59.9678 114.016 60.2118 114.432 60.5958 114.728C60.9878 115.024 61.4678 115.172 62.0358 115.172C62.8278 115.172 63.4038 114.88 63.7638 114.296L64.6518 114.8C64.0678 115.704 63.1878 116.156 62.0118 116.156C61.0598 116.156 60.2838 115.86 59.6838 115.268C59.0918 114.668 58.7958 113.912 58.7958 113C58.7958 112.096 59.0878 111.344 59.6718 110.744C60.2558 110.144 61.0118 109.844 61.9398 109.844C62.8198 109.844 63.5358 110.156 64.0878 110.78C64.6478 111.396 64.9278 112.14 64.9278 113.012C64.9278 113.164 64.9158 113.32 64.8918 113.48H59.8638ZM61.9398 110.828C61.3798 110.828 60.9158 110.988 60.5478 111.308C60.1798 111.62 59.9518 112.04 59.8638 112.568H63.8718C63.7838 112 63.5598 111.568 63.1998 111.272C62.8398 110.976 62.4198 110.828 61.9398 110.828ZM67.1719 111.008C67.5159 110.264 68.1399 109.892 69.0439 109.892V110.984C68.5319 110.96 68.0919 111.096 67.7239 111.392C67.3559 111.688 67.1719 112.164 67.1719 112.82V116H66.1279V110H67.1719V111.008ZM74.3823 110H75.4983L73.0503 116.372C72.7943 117.052 72.4343 117.568 71.9703 117.92C71.5143 118.28 70.9863 118.44 70.3863 118.4V117.428C71.1223 117.484 71.6623 117.076 72.0063 116.204L72.1143 115.976L69.4983 110H70.6143L72.6543 114.704L74.3823 110ZM81.1998 115.244C80.5838 115.852 79.8358 116.156 78.9558 116.156C78.0758 116.156 77.3278 115.852 76.7118 115.244C76.1038 114.636 75.7998 113.888 75.7998 113C75.7998 112.112 76.1038 111.364 76.7118 110.756C77.3278 110.148 78.0758 109.844 78.9558 109.844C79.8358 109.844 80.5838 110.148 81.1998 110.756C81.8158 111.364 82.1237 112.112 82.1237 113C82.1237 113.888 81.8158 114.636 81.1998 115.244ZM78.9558 115.136C79.5558 115.136 80.0598 114.932 80.4678 114.524C80.8758 114.116 81.0798 113.608 81.0798 113C81.0798 112.392 80.8758 111.884 80.4678 111.476C80.0598 111.068 79.5558 110.864 78.9558 110.864C78.3638 110.864 77.8638 111.068 77.4558 111.476C77.0478 111.884 76.8438 112.392 76.8438 113C76.8438 113.608 77.0478 114.116 77.4558 114.524C77.8638 114.932 78.3638 115.136 78.9558 115.136ZM86.3425 109.844C87.0465 109.844 87.6105 110.068 88.0345 110.516C88.4585 110.956 88.6705 111.556 88.6705 112.316V116H87.6265V112.376C87.6265 111.888 87.4945 111.512 87.2305 111.248C86.9665 110.976 86.6025 110.84 86.1385 110.84C85.6185 110.84 85.1985 111.004 84.8785 111.332C84.5585 111.652 84.3985 112.148 84.3985 112.82V116H83.3545V110H84.3985V110.864C84.8225 110.184 85.4705 109.844 86.3425 109.844ZM90.8599 113.48C90.9639 114.016 91.2079 114.432 91.5919 114.728C91.9839 115.024 92.4639 115.172 93.0319 115.172C93.8239 115.172 94.3999 114.88 94.7599 114.296L95.6479 114.8C95.0639 115.704 94.1839 116.156 93.0079 116.156C92.0559 116.156 91.2799 115.86 90.6799 115.268C90.0879 114.668 89.7919 113.912 89.7919 113C89.7919 112.096 90.0839 111.344 90.6679 110.744C91.2519 110.144 92.0079 109.844 92.9359 109.844C93.8159 109.844 94.5319 110.156 95.0839 110.78C95.6439 111.396 95.9239 112.14 95.9239 113.012C95.9239 113.164 95.9119 113.32 95.8879 113.48H90.8599ZM92.9359 110.828C92.3759 110.828 91.9119 110.988 91.5439 111.308C91.1759 111.62 90.9479 112.04 90.8599 112.568H94.8679C94.7799 112 94.5559 111.568 94.1959 111.272C93.8359 110.976 93.4159 110.828 92.9359 110.828ZM103.112 109.844C103.816 109.844 104.38 110.068 104.804 110.516C105.228 110.956 105.44 111.556 105.44 112.316V116H104.396V112.376C104.396 111.888 104.264 111.512 104 111.248C103.736 110.976 103.372 110.84 102.908 110.84C102.388 110.84 101.968 111.004 101.648 111.332C101.328 111.652 101.168 112.148 101.168 112.82V116H100.124V110H101.168V110.864C101.592 110.184 102.24 109.844 103.112 109.844ZM111.961 115.244C111.345 115.852 110.597 116.156 109.717 116.156C108.837 116.156 108.089 115.852 107.473 115.244C106.865 114.636 106.561 113.888 106.561 113C106.561 112.112 106.865 111.364 107.473 110.756C108.089 110.148 108.837 109.844 109.717 109.844C110.597 109.844 111.345 110.148 111.961 110.756C112.577 111.364 112.885 112.112 112.885 113C112.885 113.888 112.577 114.636 111.961 115.244ZM109.717 115.136C110.317 115.136 110.821 114.932 111.229 114.524C111.637 114.116 111.841 113.608 111.841 113C111.841 112.392 111.637 111.884 111.229 111.476C110.821 111.068 110.317 110.864 109.717 110.864C109.125 110.864 108.625 111.068 108.217 111.476C107.809 111.884 107.605 112.392 107.605 113C107.605 113.608 107.809 114.116 108.217 114.524C108.625 114.932 109.125 115.136 109.717 115.136ZM120.95 110H122.042L120.182 116H119.114L117.71 111.56L116.306 116H115.238L113.378 110H114.47L115.79 114.56L117.206 110H118.214L119.63 114.572L120.95 110ZM126.116 116V107.24H127.16V116H126.116ZM129.281 108.908C129.081 108.908 128.913 108.84 128.777 108.704C128.641 108.568 128.573 108.404 128.573 108.212C128.573 108.02 128.641 107.856 128.777 107.72C128.913 107.576 129.081 107.504 129.281 107.504C129.473 107.504 129.637 107.576 129.773 107.72C129.909 107.856 129.977 108.02 129.977 108.212C129.977 108.404 129.909 108.568 129.773 108.704C129.637 108.84 129.473 108.908 129.281 108.908ZM128.753 116V110H129.797V116H128.753ZM135.59 110H136.718L134.318 116H133.094L130.694 110H131.822L133.706 114.884L135.59 110ZM138.098 113.48C138.202 114.016 138.446 114.432 138.83 114.728C139.222 115.024 139.702 115.172 140.27 115.172C141.062 115.172 141.638 114.88 141.998 114.296L142.886 114.8C142.302 115.704 141.422 116.156 140.246 116.156C139.294 116.156 138.518 115.86 137.918 115.268C137.326 114.668 137.03 113.912 137.03 113C137.03 112.096 137.322 111.344 137.906 110.744C138.49 110.144 139.246 109.844 140.174 109.844C141.054 109.844 141.77 110.156 142.322 110.78C142.882 111.396 143.162 112.14 143.162 113.012C143.162 113.164 143.15 113.32 143.126 113.48H138.098ZM140.174 110.828C139.614 110.828 139.15 110.988 138.782 111.308C138.414 111.62 138.186 112.04 138.098 112.568H142.106C142.018 112 141.794 111.568 141.434 111.272C141.074 110.976 140.654 110.828 140.174 110.828ZM145.028 111.62C145.028 111.852 145.144 112.04 145.376 112.184C145.608 112.32 145.888 112.432 146.216 112.52C146.544 112.6 146.872 112.696 147.2 112.808C147.528 112.912 147.808 113.096 148.04 113.36C148.272 113.616 148.388 113.948 148.388 114.356C148.388 114.9 148.176 115.336 147.752 115.664C147.336 115.992 146.8 116.156 146.144 116.156C145.56 116.156 145.06 116.028 144.644 115.772C144.228 115.516 143.932 115.176 143.756 114.752L144.656 114.236C144.752 114.524 144.932 114.752 145.196 114.92C145.46 115.088 145.776 115.172 146.144 115.172C146.488 115.172 146.772 115.108 146.996 114.98C147.22 114.844 147.332 114.636 147.332 114.356C147.332 114.124 147.216 113.94 146.984 113.804C146.752 113.66 146.472 113.548 146.144 113.468C145.816 113.38 145.488 113.28 145.16 113.168C144.832 113.056 144.552 112.872 144.32 112.616C144.088 112.36 143.972 112.032 143.972 111.632C143.972 111.112 144.172 110.684 144.572 110.348C144.98 110.012 145.488 109.844 146.096 109.844C146.584 109.844 147.016 109.956 147.392 110.18C147.776 110.396 148.064 110.7 148.256 111.092L147.38 111.584C147.164 111.072 146.736 110.816 146.096 110.816C145.8 110.816 145.548 110.888 145.34 111.032C145.132 111.168 145.028 111.364 145.028 111.62ZM153.152 108.908C152.952 108.908 152.784 108.84 152.648 108.704C152.512 108.568 152.444 108.404 152.444 108.212C152.444 108.02 152.512 107.856 152.648 107.72C152.784 107.576 152.952 107.504 153.152 107.504C153.344 107.504 153.508 107.576 153.644 107.72C153.78 107.856 153.848 108.02 153.848 108.212C153.848 108.404 153.78 108.568 153.644 108.704C153.508 108.84 153.344 108.908 153.152 108.908ZM152.624 116V110H153.668V116H152.624ZM158.249 109.844C158.953 109.844 159.517 110.068 159.941 110.516C160.365 110.956 160.577 111.556 160.577 112.316V116H159.533V112.376C159.533 111.888 159.401 111.512 159.137 111.248C158.873 110.976 158.509 110.84 158.045 110.84C157.525 110.84 157.105 111.004 156.785 111.332C156.465 111.652 156.305 112.148 156.305 112.82V116H155.261V110H156.305V110.864C156.729 110.184 157.377 109.844 158.249 109.844ZM162.934 111.62C162.934 111.852 163.05 112.04 163.282 112.184C163.514 112.32 163.794 112.432 164.122 112.52C164.45 112.6 164.778 112.696 165.106 112.808C165.434 112.912 165.714 113.096 165.946 113.36C166.178 113.616 166.294 113.948 166.294 114.356C166.294 114.9 166.082 115.336 165.658 115.664C165.242 115.992 164.706 116.156 164.05 116.156C163.466 116.156 162.966 116.028 162.55 115.772C162.134 115.516 161.838 115.176 161.662 114.752L162.562 114.236C162.658 114.524 162.838 114.752 163.102 114.92C163.366 115.088 163.682 115.172 164.05 115.172C164.394 115.172 164.678 115.108 164.902 114.98C165.126 114.844 165.238 114.636 165.238 114.356C165.238 114.124 165.122 113.94 164.89 113.804C164.658 113.66 164.378 113.548 164.05 113.468C163.722 113.38 163.394 113.28 163.066 113.168C162.738 113.056 162.458 112.872 162.226 112.616C161.994 112.36 161.878 112.032 161.878 111.632C161.878 111.112 162.078 110.684 162.478 110.348C162.886 110.012 163.394 109.844 164.002 109.844C164.49 109.844 164.922 109.956 165.298 110.18C165.682 110.396 165.97 110.7 166.162 111.092L165.286 111.584C165.07 111.072 164.642 110.816 164.002 110.816C163.706 110.816 163.454 110.888 163.246 111.032C163.038 111.168 162.934 111.364 162.934 111.62ZM168 108.908C167.8 108.908 167.632 108.84 167.496 108.704C167.36 108.568 167.292 108.404 167.292 108.212C167.292 108.02 167.36 107.856 167.496 107.72C167.632 107.576 167.8 107.504 168 107.504C168.192 107.504 168.356 107.576 168.492 107.72C168.628 107.856 168.696 108.02 168.696 108.212C168.696 108.404 168.628 108.568 168.492 108.704C168.356 108.84 168.192 108.908 168 108.908ZM167.472 116V110H168.516V116H167.472ZM175.076 107.6H176.12V116H175.076V114.968C174.556 115.76 173.8 116.156 172.808 116.156C171.968 116.156 171.252 115.852 170.66 115.244C170.068 114.628 169.772 113.88 169.772 113C169.772 112.12 170.068 111.376 170.66 110.768C171.252 110.152 171.968 109.844 172.808 109.844C173.8 109.844 174.556 110.24 175.076 111.032V107.6ZM172.94 115.148C173.548 115.148 174.056 114.944 174.464 114.536C174.872 114.12 175.076 113.608 175.076 113C175.076 112.392 174.872 111.884 174.464 111.476C174.056 111.06 173.548 110.852 172.94 110.852C172.34 110.852 171.836 111.06 171.428 111.476C171.02 111.884 170.816 112.392 170.816 113C170.816 113.608 171.02 114.12 171.428 114.536C171.836 114.944 172.34 115.148 172.94 115.148ZM178.434 113.48C178.538 114.016 178.782 114.432 179.166 114.728C179.558 115.024 180.038 115.172 180.606 115.172C181.398 115.172 181.974 114.88 182.334 114.296L183.222 114.8C182.638 115.704 181.758 116.156 180.582 116.156C179.63 116.156 178.854 115.86 178.254 115.268C177.662 114.668 177.366 113.912 177.366 113C177.366 112.096 177.658 111.344 178.242 110.744C178.826 110.144 179.582 109.844 180.51 109.844C181.39 109.844 182.106 110.156 182.658 110.78C183.218 111.396 183.498 112.14 183.498 113.012C183.498 113.164 183.486 113.32 183.462 113.48H178.434ZM180.51 110.828C179.95 110.828 179.486 110.988 179.118 111.308C178.75 111.62 178.522 112.04 178.434 112.568H182.442C182.354 112 182.13 111.568 181.77 111.272C181.41 110.976 180.99 110.828 180.51 110.828ZM190.962 111.008H189.366V114.26C189.366 114.556 189.422 114.768 189.534 114.896C189.654 115.016 189.834 115.08 190.074 115.088C190.314 115.088 190.61 115.08 190.962 115.064V116C190.05 116.12 189.382 116.048 188.958 115.784C188.534 115.512 188.322 115.004 188.322 114.26V111.008H187.134V110H188.322V108.632L189.366 108.32V110H190.962V111.008ZM195.186 109.844C195.89 109.844 196.454 110.068 196.878 110.516C197.302 110.956 197.514 111.556 197.514 112.316V116H196.47V112.376C196.47 111.888 196.338 111.512 196.074 111.248C195.81 110.976 195.446 110.84 194.982 110.84C194.462 110.84 194.042 111.004 193.722 111.332C193.402 111.652 193.242 112.148 193.242 112.82V116H192.198V107.6H193.242V110.864C193.666 110.184 194.314 109.844 195.186 109.844ZM199.704 113.48C199.808 114.016 200.052 114.432 200.436 114.728C200.828 115.024 201.308 115.172 201.876 115.172C202.668 115.172 203.244 114.88 203.604 114.296L204.492 114.8C203.908 115.704 203.028 116.156 201.852 116.156C200.9 116.156 200.124 115.86 199.524 115.268C198.932 114.668 198.636 113.912 198.636 113C198.636 112.096 198.928 111.344 199.512 110.744C200.096 110.144 200.852 109.844 201.78 109.844C202.66 109.844 203.376 110.156 203.928 110.78C204.488 111.396 204.768 112.14 204.768 113.012C204.768 113.164 204.756 113.32 204.732 113.48H199.704ZM201.78 110.828C201.22 110.828 200.756 110.988 200.388 111.308C200.02 111.62 199.792 112.04 199.704 112.568H203.712C203.624 112 203.4 111.568 203.04 111.272C202.68 110.976 202.26 110.828 201.78 110.828ZM48.016 132.944H51.916V134H46.9V125.6H51.856V126.656H48.016V129.236H51.556V130.28H48.016V132.944ZM55.8464 134.156C54.9424 134.156 54.1904 133.856 53.5904 133.256C52.9904 132.648 52.6904 131.896 52.6904 131C52.6904 130.104 52.9904 129.356 53.5904 128.756C54.1904 128.148 54.9424 127.844 55.8464 127.844C56.4384 127.844 56.9704 127.988 57.4424 128.276C57.9144 128.556 58.2664 128.936 58.4984 129.416L57.6224 129.92C57.4704 129.6 57.2344 129.344 56.9144 129.152C56.6024 128.96 56.2464 128.864 55.8464 128.864C55.2464 128.864 54.7424 129.068 54.3344 129.476C53.9344 129.884 53.7344 130.392 53.7344 131C53.7344 131.6 53.9344 132.104 54.3344 132.512C54.7424 132.92 55.2464 133.124 55.8464 133.124C56.2464 133.124 56.6064 133.032 56.9264 132.848C57.2464 132.656 57.4904 132.4 57.6584 132.08L58.5464 132.596C58.2904 133.068 57.9224 133.448 57.4424 133.736C56.9624 134.016 56.4304 134.156 55.8464 134.156ZM62.5652 127.844C63.2692 127.844 63.8332 128.068 64.2572 128.516C64.6812 128.956 64.8932 129.556 64.8932 130.316V134H63.8492V130.376C63.8492 129.888 63.7172 129.512 63.4532 129.248C63.1892 128.976 62.8252 128.84 62.3612 128.84C61.8412 128.84 61.4212 129.004 61.1012 129.332C60.7812 129.652 60.6212 130.148 60.6212 130.82V134H59.5772V125.6H60.6212V128.864C61.0452 128.184 61.6932 127.844 62.5652 127.844ZM71.4146 133.244C70.7986 133.852 70.0506 134.156 69.1706 134.156C68.2906 134.156 67.5426 133.852 66.9266 133.244C66.3186 132.636 66.0146 131.888 66.0146 131C66.0146 130.112 66.3186 129.364 66.9266 128.756C67.5426 128.148 68.2906 127.844 69.1706 127.844C70.0506 127.844 70.7986 128.148 71.4146 128.756C72.0306 129.364 72.3386 130.112 72.3386 131C72.3386 131.888 72.0306 132.636 71.4146 133.244ZM69.1706 133.136C69.7706 133.136 70.2746 132.932 70.6826 132.524C71.0906 132.116 71.2946 131.608 71.2946 131C71.2946 130.392 71.0906 129.884 70.6826 129.476C70.2746 129.068 69.7706 128.864 69.1706 128.864C68.5786 128.864 68.0786 129.068 67.6706 129.476C67.2626 129.884 67.0586 130.392 67.0586 131C67.0586 131.608 67.2626 132.116 67.6706 132.524C68.0786 132.932 68.5786 133.136 69.1706 133.136ZM77.535 128H78.663L76.263 134H75.039L72.639 128H73.767L75.651 132.884L77.535 128ZM80.0435 131.48C80.1475 132.016 80.3915 132.432 80.7755 132.728C81.1675 133.024 81.6475 133.172 82.2155 133.172C83.0075 133.172 83.5835 132.88 83.9435 132.296L84.8315 132.8C84.2475 133.704 83.3675 134.156 82.1915 134.156C81.2395 134.156 80.4635 133.86 79.8635 133.268C79.2715 132.668 78.9755 131.912 78.9755 131C78.9755 130.096 79.2675 129.344 79.8515 128.744C80.4355 128.144 81.1915 127.844 82.1195 127.844C82.9995 127.844 83.7155 128.156 84.2675 128.78C84.8275 129.396 85.1075 130.14 85.1075 131.012C85.1075 131.164 85.0955 131.32 85.0715 131.48H80.0435ZM82.1195 128.828C81.5595 128.828 81.0955 128.988 80.7275 129.308C80.3595 129.62 80.1315 130.04 80.0435 130.568H84.0515C83.9635 130 83.7395 129.568 83.3795 129.272C83.0195 128.976 82.5995 128.828 82.1195 128.828ZM87.3516 129.008C87.6956 128.264 88.3196 127.892 89.2236 127.892V128.984C88.7116 128.96 88.2716 129.096 87.9036 129.392C87.5356 129.688 87.3516 130.164 87.3516 130.82V134H86.3076V128H87.3516V129.008ZM90.9225 129.62C90.9225 129.852 91.0385 130.04 91.2705 130.184C91.5025 130.32 91.7825 130.432 92.1105 130.52C92.4385 130.6 92.7665 130.696 93.0945 130.808C93.4225 130.912 93.7025 131.096 93.9345 131.36C94.1665 131.616 94.2825 131.948 94.2825 132.356C94.2825 132.9 94.0705 133.336 93.6465 133.664C93.2305 133.992 92.6945 134.156 92.0385 134.156C91.4545 134.156 90.9545 134.028 90.5385 133.772C90.1225 133.516 89.8265 133.176 89.6505 132.752L90.5505 132.236C90.6465 132.524 90.8265 132.752 91.0905 132.92C91.3545 133.088 91.6705 133.172 92.0385 133.172C92.3825 133.172 92.6665 133.108 92.8905 132.98C93.1145 132.844 93.2265 132.636 93.2265 132.356C93.2265 132.124 93.1105 131.94 92.8785 131.804C92.6465 131.66 92.3665 131.548 92.0385 131.468C91.7105 131.38 91.3825 131.28 91.0545 131.168C90.7265 131.056 90.4465 130.872 90.2145 130.616C89.9825 130.36 89.8665 130.032 89.8665 129.632C89.8665 129.112 90.0665 128.684 90.4665 128.348C90.8745 128.012 91.3825 127.844 91.9905 127.844C92.4785 127.844 92.9105 127.956 93.2865 128.18C93.6705 128.396 93.9585 128.7 94.1505 129.092L93.2745 129.584C93.0585 129.072 92.6305 128.816 91.9905 128.816C91.6945 128.816 91.4425 128.888 91.2345 129.032C91.0265 129.168 90.9225 129.364 90.9225 129.62ZM96.0865 131.48C96.1905 132.016 96.4345 132.432 96.8185 132.728C97.2105 133.024 97.6905 133.172 98.2585 133.172C99.0505 133.172 99.6265 132.88 99.9865 132.296L100.875 132.8C100.291 133.704 99.4105 134.156 98.2345 134.156C97.2825 134.156 96.5065 133.86 95.9065 133.268C95.3145 132.668 95.0185 131.912 95.0185 131C95.0185 130.096 95.3105 129.344 95.8945 128.744C96.4785 128.144 97.2345 127.844 98.1625 127.844C99.0425 127.844 99.7585 128.156 100.311 128.78C100.871 129.396 101.151 130.14 101.151 131.012C101.151 131.164 101.139 131.32 101.115 131.48H96.0865ZM98.1625 128.828C97.6025 128.828 97.1385 128.988 96.7705 129.308C96.4025 129.62 96.1745 130.04 96.0865 130.568H100.095C100.007 130 99.7825 129.568 99.4225 129.272C99.0625 128.976 98.6425 128.828 98.1625 128.828ZM102.53 134.132C102.314 134.132 102.13 134.056 101.978 133.904C101.826 133.752 101.75 133.568 101.75 133.352C101.75 133.136 101.826 132.952 101.978 132.8C102.13 132.648 102.314 132.572 102.53 132.572C102.754 132.572 102.938 132.648 103.082 132.8C103.234 132.952 103.31 133.136 103.31 133.352C103.31 133.568 103.234 133.752 103.082 133.904C102.938 134.056 102.754 134.132 102.53 134.132Z" fill="#1A1A1A"/>
</svg>
