<svg width="198" height="179" viewBox="0 0 240 231" fill="none" xmlns="http://www.w3.org/2000/svg">
<g style="mix-blend-mode:multiply">
<path d="M0 183.773H99.912L119.631 218L139.088 183.773H239V0H0V183.773Z" fill="#D1EACB"/>
</g>
<path d="M11.9581 18.748C11.7021 19.012 11.3861 19.144 11.0101 19.144C10.6341 19.144 10.3141 19.012 10.0501 18.748C9.78613 18.484 9.65413 18.164 9.65413 17.788C9.65413 17.412 9.78613 17.096 10.0501 16.84C10.3141 16.576 10.6341 16.444 11.0101 16.444C11.3861 16.444 11.7021 16.576 11.9581 16.84C12.2221 17.096 12.3541 17.412 12.3541 17.788C12.3541 18.164 12.2221 18.484 11.9581 18.748ZM26.276 13.6V14.656H23.792V22H22.688V14.656H20.216V13.6H26.276ZM30.2605 15.844C30.9645 15.844 31.5285 16.068 31.9525 16.516C32.3765 16.956 32.5885 17.556 32.5885 18.316V22H31.5445V18.376C31.5445 17.888 31.4125 17.512 31.1485 17.248C30.8845 16.976 30.5205 16.84 30.0565 16.84C29.5365 16.84 29.1165 17.004 28.7965 17.332C28.4765 17.652 28.3165 18.148 28.3165 18.82V22H27.2725V13.6H28.3165V16.864C28.7405 16.184 29.3885 15.844 30.2605 15.844ZM34.7779 19.48C34.8819 20.016 35.1259 20.432 35.5099 20.728C35.9019 21.024 36.3819 21.172 36.9499 21.172C37.7419 21.172 38.3179 20.88 38.6779 20.296L39.5659 20.8C38.9819 21.704 38.1019 22.156 36.9259 22.156C35.9739 22.156 35.1979 21.86 34.5979 21.268C34.0059 20.668 33.7099 19.912 33.7099 19C33.7099 18.096 34.0019 17.344 34.5859 16.744C35.1699 16.144 35.9259 15.844 36.8539 15.844C37.7339 15.844 38.4499 16.156 39.0019 16.78C39.5619 17.396 39.8419 18.14 39.8419 19.012C39.8419 19.164 39.8299 19.32 39.8059 19.48H34.7779ZM36.8539 16.828C36.2939 16.828 35.8299 16.988 35.4619 17.308C35.0939 17.62 34.8659 18.04 34.7779 18.568H38.7859C38.6979 18 38.4739 17.568 38.1139 17.272C37.7539 16.976 37.3339 16.828 36.8539 16.828ZM45.266 20.944H49.166V22H44.15V13.6H49.106V14.656H45.266V17.236H48.806V18.28H45.266V20.944ZM53.0964 22.156C52.1924 22.156 51.4404 21.856 50.8404 21.256C50.2404 20.648 49.9404 19.896 49.9404 19C49.9404 18.104 50.2404 17.356 50.8404 16.756C51.4404 16.148 52.1924 15.844 53.0964 15.844C53.6884 15.844 54.2204 15.988 54.6924 16.276C55.1644 16.556 55.5164 16.936 55.7484 17.416L54.8724 17.92C54.7204 17.6 54.4844 17.344 54.1644 17.152C53.8524 16.96 53.4964 16.864 53.0964 16.864C52.4964 16.864 51.9924 17.068 51.5844 17.476C51.1844 17.884 50.9844 18.392 50.9844 19C50.9844 19.6 51.1844 20.104 51.5844 20.512C51.9924 20.92 52.4964 21.124 53.0964 21.124C53.4964 21.124 53.8564 21.032 54.1764 20.848C54.4964 20.656 54.7404 20.4 54.9084 20.08L55.7964 20.596C55.5404 21.068 55.1724 21.448 54.6924 21.736C54.2124 22.016 53.6804 22.156 53.0964 22.156ZM59.8152 15.844C60.5192 15.844 61.0832 16.068 61.5072 16.516C61.9312 16.956 62.1432 17.556 62.1432 18.316V22H61.0992V18.376C61.0992 17.888 60.9672 17.512 60.7032 17.248C60.4392 16.976 60.0752 16.84 59.6112 16.84C59.0912 16.84 58.6712 17.004 58.3512 17.332C58.0312 17.652 57.8712 18.148 57.8712 18.82V22H56.8272V13.6H57.8712V16.864C58.2952 16.184 58.9432 15.844 59.8152 15.844ZM68.6646 21.244C68.0486 21.852 67.3006 22.156 66.4206 22.156C65.5406 22.156 64.7926 21.852 64.1766 21.244C63.5686 20.636 63.2646 19.888 63.2646 19C63.2646 18.112 63.5686 17.364 64.1766 16.756C64.7926 16.148 65.5406 15.844 66.4206 15.844C67.3006 15.844 68.0486 16.148 68.6646 16.756C69.2806 17.364 69.5886 18.112 69.5886 19C69.5886 19.888 69.2806 20.636 68.6646 21.244ZM66.4206 21.136C67.0206 21.136 67.5246 20.932 67.9326 20.524C68.3406 20.116 68.5446 19.608 68.5446 19C68.5446 18.392 68.3406 17.884 67.9326 17.476C67.5246 17.068 67.0206 16.864 66.4206 16.864C65.8286 16.864 65.3286 17.068 64.9206 17.476C64.5126 17.884 64.3086 18.392 64.3086 19C64.3086 19.608 64.5126 20.116 64.9206 20.524C65.3286 20.932 65.8286 21.136 66.4206 21.136ZM79.4593 22L78.7753 20.116H74.9953L74.3113 22H73.1233L76.2553 13.6H77.5153L80.6473 22H79.4593ZM75.3793 19.072H78.3913L76.8793 14.932L75.3793 19.072ZM84.8423 15.844C85.6823 15.844 86.3983 16.152 86.9903 16.768C87.5823 17.376 87.8783 18.12 87.8783 19C87.8783 19.88 87.5823 20.628 86.9903 21.244C86.3983 21.852 85.6823 22.156 84.8423 22.156C83.8503 22.156 83.0943 21.76 82.5743 20.968V24.4H81.5303V16H82.5743V17.032C83.0943 16.24 83.8503 15.844 84.8423 15.844ZM84.7103 21.148C85.3103 21.148 85.8143 20.944 86.2223 20.536C86.6303 20.12 86.8343 19.608 86.8343 19C86.8343 18.392 86.6303 17.884 86.2223 17.476C85.8143 17.06 85.3103 16.852 84.7103 16.852C84.1023 16.852 83.5943 17.06 83.1863 17.476C82.7783 17.884 82.5743 18.392 82.5743 19C82.5743 19.608 82.7783 20.12 83.1863 20.536C83.5943 20.944 84.1023 21.148 84.7103 21.148ZM92.436 15.844C93.276 15.844 93.992 16.152 94.584 16.768C95.176 17.376 95.472 18.12 95.472 19C95.472 19.88 95.176 20.628 94.584 21.244C93.992 21.852 93.276 22.156 92.436 22.156C91.444 22.156 90.688 21.76 90.168 20.968V24.4H89.124V16H90.168V17.032C90.688 16.24 91.444 15.844 92.436 15.844ZM92.304 21.148C92.904 21.148 93.408 20.944 93.816 20.536C94.224 20.12 94.428 19.608 94.428 19C94.428 18.392 94.224 17.884 93.816 17.476C93.408 17.06 92.904 16.852 92.304 16.852C91.696 16.852 91.188 17.06 90.78 17.476C90.372 17.884 90.168 18.392 90.168 19C90.168 19.608 90.372 20.12 90.78 20.536C91.188 20.944 91.696 21.148 92.304 21.148ZM100.246 14.908C100.046 14.908 99.8778 14.84 99.7418 14.704C99.6058 14.568 99.5378 14.404 99.5378 14.212C99.5378 14.02 99.6058 13.856 99.7418 13.72C99.8778 13.576 100.046 13.504 100.246 13.504C100.438 13.504 100.602 13.576 100.738 13.72C100.874 13.856 100.942 14.02 100.942 14.212C100.942 14.404 100.874 14.568 100.738 14.704C100.602 14.84 100.438 14.908 100.246 14.908ZM99.7178 22V16H100.762V22H99.7178ZM103.243 17.62C103.243 17.852 103.359 18.04 103.591 18.184C103.823 18.32 104.103 18.432 104.431 18.52C104.759 18.6 105.087 18.696 105.415 18.808C105.743 18.912 106.023 19.096 106.255 19.36C106.487 19.616 106.603 19.948 106.603 20.356C106.603 20.9 106.391 21.336 105.967 21.664C105.551 21.992 105.015 22.156 104.359 22.156C103.775 22.156 103.275 22.028 102.859 21.772C102.443 21.516 102.147 21.176 101.971 20.752L102.871 20.236C102.967 20.524 103.147 20.752 103.411 20.92C103.675 21.088 103.991 21.172 104.359 21.172C104.703 21.172 104.987 21.108 105.211 20.98C105.435 20.844 105.547 20.636 105.547 20.356C105.547 20.124 105.431 19.94 105.199 19.804C104.967 19.66 104.687 19.548 104.359 19.468C104.031 19.38 103.703 19.28 103.375 19.168C103.047 19.056 102.767 18.872 102.535 18.616C102.303 18.36 102.187 18.032 102.187 17.632C102.187 17.112 102.387 16.684 102.787 16.348C103.195 16.012 103.703 15.844 104.311 15.844C104.799 15.844 105.231 15.956 105.607 16.18C105.991 16.396 106.279 16.7 106.471 17.092L105.595 17.584C105.379 17.072 104.951 16.816 104.311 16.816C104.015 16.816 103.763 16.888 103.555 17.032C103.347 17.168 103.243 17.364 103.243 17.62ZM114.103 17.008H112.507V20.26C112.507 20.556 112.563 20.768 112.675 20.896C112.795 21.016 112.975 21.08 113.215 21.088C113.455 21.088 113.751 21.08 114.103 21.064V22C113.191 22.12 112.523 22.048 112.099 21.784C111.675 21.512 111.463 21.004 111.463 20.26V17.008H110.275V16H111.463V14.632L112.507 14.32V16H114.103V17.008ZM118.327 15.844C119.031 15.844 119.595 16.068 120.019 16.516C120.443 16.956 120.655 17.556 120.655 18.316V22H119.611V18.376C119.611 17.888 119.479 17.512 119.215 17.248C118.951 16.976 118.587 16.84 118.123 16.84C117.603 16.84 117.183 17.004 116.863 17.332C116.543 17.652 116.383 18.148 116.383 18.82V22H115.339V13.6H116.383V16.864C116.807 16.184 117.455 15.844 118.327 15.844ZM122.844 19.48C122.948 20.016 123.192 20.432 123.576 20.728C123.968 21.024 124.448 21.172 125.016 21.172C125.808 21.172 126.384 20.88 126.744 20.296L127.632 20.8C127.048 21.704 126.168 22.156 124.992 22.156C124.04 22.156 123.264 21.86 122.664 21.268C122.072 20.668 121.776 19.912 121.776 19C121.776 18.096 122.068 17.344 122.652 16.744C123.236 16.144 123.992 15.844 124.92 15.844C125.8 15.844 126.516 16.156 127.068 16.78C127.628 17.396 127.908 18.14 127.908 19.012C127.908 19.164 127.896 19.32 127.872 19.48H122.844ZM124.92 16.828C124.36 16.828 123.896 16.988 123.528 17.308C123.16 17.62 122.932 18.04 122.844 18.568H126.852C126.764 18 126.54 17.568 126.18 17.272C125.82 16.976 125.4 16.828 124.92 16.828ZM138.096 17.14H136.704L136.488 18.46H137.892L137.748 19.324H136.344L135.996 21.4H135.084L135.432 19.324H133.968L133.62 21.4H132.696L133.044 19.324H131.652L131.796 18.46H133.188L133.404 17.14H132L132.144 16.264H133.548L133.896 14.2H134.82L134.472 16.264H135.936L136.284 14.2H137.196L136.848 16.264H138.24L138.096 17.14ZM135.576 18.46L135.792 17.14H134.328L134.112 18.46H135.576ZM140.958 13.6H141.918V22H140.814V14.8L139.026 15.328L138.75 14.368L140.958 13.6ZM149.963 15.844C150.803 15.844 151.519 16.152 152.111 16.768C152.703 17.376 152.999 18.12 152.999 19C152.999 19.88 152.703 20.628 152.111 21.244C151.519 21.852 150.803 22.156 149.963 22.156C148.971 22.156 148.215 21.76 147.695 20.968V24.4H146.651V16H147.695V17.032C148.215 16.24 148.971 15.844 149.963 15.844ZM149.831 21.148C150.431 21.148 150.935 20.944 151.343 20.536C151.751 20.12 151.955 19.608 151.955 19C151.955 18.392 151.751 17.884 151.343 17.476C150.935 17.06 150.431 16.852 149.831 16.852C149.223 16.852 148.715 17.06 148.307 17.476C147.899 17.884 147.695 18.392 147.695 19C147.695 19.608 147.899 20.12 148.307 20.536C148.715 20.944 149.223 21.148 149.831 21.148ZM154.245 22V13.24H155.289V22H154.245ZM161.85 16H162.894V22H161.85V20.968C161.33 21.76 160.574 22.156 159.582 22.156C158.742 22.156 158.026 21.852 157.434 21.244C156.842 20.628 156.546 19.88 156.546 19C156.546 18.12 156.842 17.376 157.434 16.768C158.026 16.152 158.742 15.844 159.582 15.844C160.574 15.844 161.33 16.24 161.85 17.032V16ZM159.714 21.148C160.322 21.148 160.83 20.944 161.238 20.536C161.646 20.12 161.85 19.608 161.85 19C161.85 18.392 161.646 17.884 161.238 17.476C160.83 17.06 160.322 16.852 159.714 16.852C159.114 16.852 158.61 17.06 158.202 17.476C157.794 17.884 157.59 18.392 157.59 19C157.59 19.608 157.794 20.12 158.202 20.536C158.61 20.944 159.114 21.148 159.714 21.148ZM168.664 16H169.78L167.332 22.372C167.076 23.052 166.716 23.568 166.252 23.92C165.796 24.28 165.268 24.44 164.668 24.4V23.428C165.404 23.484 165.944 23.076 166.288 22.204L166.396 21.976L163.78 16H164.896L166.936 20.704L168.664 16ZM170.291 22V21.088L173.255 18.064C174.047 17.272 174.443 16.592 174.443 16.024C174.443 15.552 174.299 15.184 174.011 14.92C173.723 14.656 173.371 14.524 172.955 14.524C172.163 14.524 171.587 14.9 171.227 15.652L170.291 15.1C170.555 14.556 170.919 14.144 171.383 13.864C171.855 13.584 172.375 13.444 172.943 13.444C173.647 13.444 174.259 13.676 174.779 14.14C175.299 14.604 175.559 15.228 175.559 16.012C175.559 16.86 175.059 17.784 174.059 18.784L171.911 20.92H175.715V22H170.291ZM177.477 19.48C177.581 20.016 177.825 20.432 178.209 20.728C178.601 21.024 179.081 21.172 179.649 21.172C180.441 21.172 181.017 20.88 181.377 20.296L182.265 20.8C181.681 21.704 180.801 22.156 179.625 22.156C178.673 22.156 177.897 21.86 177.297 21.268C176.705 20.668 176.409 19.912 176.409 19C176.409 18.096 176.701 17.344 177.285 16.744C177.869 16.144 178.625 15.844 179.553 15.844C180.433 15.844 181.149 16.156 181.701 16.78C182.261 17.396 182.541 18.14 182.541 19.012C182.541 19.164 182.529 19.32 182.505 19.48H177.477ZM179.553 16.828C178.993 16.828 178.529 16.988 178.161 17.308C177.793 17.62 177.565 18.04 177.477 18.568H181.485C181.397 18 181.173 17.568 180.813 17.272C180.453 16.976 180.033 16.828 179.553 16.828ZM188.698 16H189.742V22H188.698V20.968C188.178 21.76 187.422 22.156 186.43 22.156C185.59 22.156 184.874 21.852 184.282 21.244C183.69 20.628 183.394 19.88 183.394 19C183.394 18.12 183.69 17.376 184.282 16.768C184.874 16.152 185.59 15.844 186.43 15.844C187.422 15.844 188.178 16.24 188.698 17.032V16ZM186.562 21.148C187.17 21.148 187.678 20.944 188.086 20.536C188.494 20.12 188.698 19.608 188.698 19C188.698 18.392 188.494 17.884 188.086 17.476C187.678 17.06 187.17 16.852 186.562 16.852C185.962 16.852 185.458 17.06 185.05 17.476C184.642 17.884 184.438 18.392 184.438 19C184.438 19.608 184.642 20.12 185.05 20.536C185.458 20.944 185.962 21.148 186.562 21.148ZM192.367 17.008C192.711 16.264 193.335 15.892 194.239 15.892V16.984C193.727 16.96 193.287 17.096 192.919 17.392C192.551 17.688 192.367 18.164 192.367 18.82V22H191.323V16H192.367V17.008ZM198.249 15.844C198.953 15.844 199.517 16.068 199.941 16.516C200.365 16.956 200.577 17.556 200.577 18.316V22H199.533V18.376C199.533 17.888 199.401 17.512 199.137 17.248C198.873 16.976 198.509 16.84 198.045 16.84C197.525 16.84 197.105 17.004 196.785 17.332C196.465 17.652 196.305 18.148 196.305 18.82V22H195.261V16H196.305V16.864C196.729 16.184 197.377 15.844 198.249 15.844ZM25.772 34H26.804V39.748C26.804 40.636 26.504 41.324 25.904 41.812C25.304 42.308 24.584 42.556 23.744 42.556C23.072 42.556 22.492 42.428 22.004 42.172C21.516 41.924 21.148 41.564 20.9 41.092L21.812 40.576C22.14 41.248 22.792 41.584 23.768 41.584C24.392 41.584 24.88 41.42 25.232 41.092C25.592 40.764 25.772 40.316 25.772 39.748V38.896C25.244 39.696 24.492 40.096 23.516 40.096C22.66 40.096 21.936 39.792 21.344 39.184C20.752 38.576 20.456 37.836 20.456 36.964C20.456 36.092 20.752 35.356 21.344 34.756C21.936 34.148 22.66 33.844 23.516 33.844C24.5 33.844 25.252 34.24 25.772 35.032V34ZM22.112 38.488C22.52 38.896 23.028 39.1 23.636 39.1C24.244 39.1 24.752 38.896 25.16 38.488C25.568 38.08 25.772 37.572 25.772 36.964C25.772 36.364 25.568 35.86 25.16 35.452C24.752 35.044 24.244 34.84 23.636 34.84C23.028 34.84 22.52 35.044 22.112 35.452C21.704 35.86 21.5 36.364 21.5 36.964C21.5 37.572 21.704 38.08 22.112 38.488ZM33.3538 34H34.3978V40H33.3538V38.968C32.8338 39.76 32.0778 40.156 31.0858 40.156C30.2458 40.156 29.5298 39.852 28.9378 39.244C28.3458 38.628 28.0498 37.88 28.0498 37C28.0498 36.12 28.3458 35.376 28.9378 34.768C29.5298 34.152 30.2458 33.844 31.0858 33.844C32.0778 33.844 32.8338 34.24 33.3538 35.032V34ZM31.2178 39.148C31.8258 39.148 32.3338 38.944 32.7418 38.536C33.1498 38.12 33.3538 37.608 33.3538 37C33.3538 36.392 33.1498 35.884 32.7418 35.476C32.3338 35.06 31.8258 34.852 31.2178 34.852C30.6178 34.852 30.1138 35.06 29.7058 35.476C29.2978 35.884 29.0938 36.392 29.0938 37C29.0938 37.608 29.2978 38.12 29.7058 38.536C30.1138 38.944 30.6178 39.148 31.2178 39.148ZM42.4595 33.844C43.1315 33.844 43.6755 34.064 44.0915 34.504C44.5075 34.936 44.7155 35.524 44.7155 36.268V40H43.6715V36.304C43.6715 35.84 43.5515 35.48 43.3115 35.224C43.0715 34.968 42.7515 34.84 42.3515 34.84C41.9035 34.84 41.5435 34.992 41.2715 35.296C41.0075 35.592 40.8755 36.048 40.8755 36.664V40H39.8315V36.304C39.8315 35.84 39.7155 35.48 39.4835 35.224C39.2595 34.968 38.9515 34.84 38.5595 34.84C38.1195 34.84 37.7515 34.992 37.4555 35.296C37.1675 35.6 37.0235 36.056 37.0235 36.664V40H35.9795V34H37.0235V34.804C37.4315 34.164 38.0275 33.844 38.8115 33.844C39.6195 33.844 40.2075 34.184 40.5755 34.864C40.9915 34.184 41.6195 33.844 42.4595 33.844ZM46.6911 32.908C46.4911 32.908 46.3231 32.84 46.1871 32.704C46.0511 32.568 45.9831 32.404 45.9831 32.212C45.9831 32.02 46.0511 31.856 46.1871 31.72C46.3231 31.576 46.4911 31.504 46.6911 31.504C46.8831 31.504 47.0471 31.576 47.1831 31.72C47.3191 31.856 47.3871 32.02 47.3871 32.212C47.3871 32.404 47.3191 32.568 47.1831 32.704C47.0471 32.84 46.8831 32.908 46.6911 32.908ZM46.1631 40V34H47.2071V40H46.1631ZM51.7878 33.844C52.4918 33.844 53.0558 34.068 53.4798 34.516C53.9038 34.956 54.1158 35.556 54.1158 36.316V40H53.0718V36.376C53.0718 35.888 52.9398 35.512 52.6758 35.248C52.4118 34.976 52.0478 34.84 51.5838 34.84C51.0638 34.84 50.6438 35.004 50.3238 35.332C50.0038 35.652 49.8438 36.148 49.8438 36.82V40H48.7998V34H49.8438V34.864C50.2678 34.184 50.9158 33.844 51.7878 33.844ZM60.5533 34H61.5853V39.748C61.5853 40.636 61.2853 41.324 60.6853 41.812C60.0853 42.308 59.3653 42.556 58.5253 42.556C57.8533 42.556 57.2733 42.428 56.7853 42.172C56.2973 41.924 55.9293 41.564 55.6813 41.092L56.5933 40.576C56.9213 41.248 57.5733 41.584 58.5493 41.584C59.1733 41.584 59.6613 41.42 60.0133 41.092C60.3733 40.764 60.5533 40.316 60.5533 39.748V38.896C60.0253 39.696 59.2733 40.096 58.2973 40.096C57.4413 40.096 56.7173 39.792 56.1253 39.184C55.5333 38.576 55.2373 37.836 55.2373 36.964C55.2373 36.092 55.5333 35.356 56.1253 34.756C56.7173 34.148 57.4413 33.844 58.2973 33.844C59.2813 33.844 60.0333 34.24 60.5533 35.032V34ZM56.8933 38.488C57.3013 38.896 57.8093 39.1 58.4173 39.1C59.0253 39.1 59.5333 38.896 59.9413 38.488C60.3493 38.08 60.5533 37.572 60.5533 36.964C60.5533 36.364 60.3493 35.86 59.9413 35.452C59.5333 35.044 59.0253 34.84 58.4173 34.84C57.8093 34.84 57.3013 35.044 56.8933 35.452C56.4853 35.86 56.2812 36.364 56.2812 36.964C56.2812 37.572 56.4853 38.08 56.8933 38.488ZM71.135 34H72.179V40H71.135V38.968C70.615 39.76 69.859 40.156 68.867 40.156C68.027 40.156 67.311 39.852 66.719 39.244C66.127 38.628 65.831 37.88 65.831 37C65.831 36.12 66.127 35.376 66.719 34.768C67.311 34.152 68.027 33.844 68.867 33.844C69.859 33.844 70.615 34.24 71.135 35.032V34ZM68.999 39.148C69.607 39.148 70.115 38.944 70.523 38.536C70.931 38.12 71.135 37.608 71.135 37C71.135 36.392 70.931 35.884 70.523 35.476C70.115 35.06 69.607 34.852 68.999 34.852C68.399 34.852 67.895 35.06 67.487 35.476C67.079 35.884 66.875 36.392 66.875 37C66.875 37.608 67.079 38.12 67.487 38.536C67.895 38.944 68.399 39.148 68.999 39.148ZM77.0728 33.844C77.9128 33.844 78.6288 34.152 79.2208 34.768C79.8128 35.376 80.1088 36.12 80.1088 37C80.1088 37.88 79.8128 38.628 79.2208 39.244C78.6288 39.852 77.9128 40.156 77.0728 40.156C76.0808 40.156 75.3248 39.76 74.8048 38.968V42.4H73.7607V34H74.8048V35.032C75.3248 34.24 76.0808 33.844 77.0728 33.844ZM76.9408 39.148C77.5408 39.148 78.0448 38.944 78.4528 38.536C78.8608 38.12 79.0648 37.608 79.0648 37C79.0648 36.392 78.8608 35.884 78.4528 35.476C78.0448 35.06 77.5408 34.852 76.9408 34.852C76.3328 34.852 75.8248 35.06 75.4168 35.476C75.0088 35.884 74.8048 36.392 74.8048 37C74.8048 37.608 75.0088 38.12 75.4168 38.536C75.8248 38.944 76.3328 39.148 76.9408 39.148ZM84.6665 33.844C85.5065 33.844 86.2225 34.152 86.8145 34.768C87.4065 35.376 87.7025 36.12 87.7025 37C87.7025 37.88 87.4065 38.628 86.8145 39.244C86.2225 39.852 85.5065 40.156 84.6665 40.156C83.6745 40.156 82.9185 39.76 82.3985 38.968V42.4H81.3545V34H82.3985V35.032C82.9185 34.24 83.6745 33.844 84.6665 33.844ZM84.5345 39.148C85.1345 39.148 85.6385 38.944 86.0465 38.536C86.4545 38.12 86.6585 37.608 86.6585 37C86.6585 36.392 86.4545 35.884 86.0465 35.476C85.6385 35.06 85.1345 34.852 84.5345 34.852C83.9265 34.852 83.4185 35.06 83.0105 35.476C82.6025 35.884 82.3985 36.392 82.3985 37C82.3985 37.608 82.6025 38.12 83.0105 38.536C83.4185 38.944 83.9265 39.148 84.5345 39.148ZM96.9163 34H97.9603V40H96.9163V38.968C96.3963 39.76 95.6403 40.156 94.6483 40.156C93.8083 40.156 93.0923 39.852 92.5003 39.244C91.9083 38.628 91.6123 37.88 91.6123 37C91.6123 36.12 91.9083 35.376 92.5003 34.768C93.0923 34.152 93.8083 33.844 94.6483 33.844C95.6403 33.844 96.3963 34.24 96.9163 35.032V34ZM94.7803 39.148C95.3883 39.148 95.8963 38.944 96.3043 38.536C96.7123 38.12 96.9163 37.608 96.9163 37C96.9163 36.392 96.7123 35.884 96.3043 35.476C95.8963 35.06 95.3883 34.852 94.7803 34.852C94.1803 34.852 93.6763 35.06 93.2683 35.476C92.8603 35.884 92.6562 36.392 92.6562 37C92.6562 37.608 92.8603 38.12 93.2683 38.536C93.6763 38.944 94.1803 39.148 94.7803 39.148ZM103.742 34H104.87L102.47 40H101.246L98.846 34H99.974L101.858 38.884L103.742 34ZM110.487 34H111.531V40H110.487V38.968C109.967 39.76 109.211 40.156 108.219 40.156C107.379 40.156 106.663 39.852 106.071 39.244C105.479 38.628 105.183 37.88 105.183 37C105.183 36.12 105.479 35.376 106.071 34.768C106.663 34.152 107.379 33.844 108.219 33.844C109.211 33.844 109.967 34.24 110.487 35.032V34ZM108.351 39.148C108.959 39.148 109.467 38.944 109.875 38.536C110.283 38.12 110.487 37.608 110.487 37C110.487 36.392 110.283 35.884 109.875 35.476C109.467 35.06 108.959 34.852 108.351 34.852C107.751 34.852 107.247 35.06 106.839 35.476C106.431 35.884 106.227 36.392 106.227 37C106.227 37.608 106.431 38.12 106.839 38.536C107.247 38.944 107.751 39.148 108.351 39.148ZM113.64 32.908C113.44 32.908 113.272 32.84 113.136 32.704C113 32.568 112.932 32.404 112.932 32.212C112.932 32.02 113 31.856 113.136 31.72C113.272 31.576 113.44 31.504 113.64 31.504C113.832 31.504 113.996 31.576 114.132 31.72C114.268 31.856 114.336 32.02 114.336 32.212C114.336 32.404 114.268 32.568 114.132 32.704C113.996 32.84 113.832 32.908 113.64 32.908ZM113.112 40V34H114.156V40H113.112ZM115.749 40V31.24H116.793V40H115.749ZM123.354 34H124.398V40H123.354V38.968C122.834 39.76 122.078 40.156 121.086 40.156C120.246 40.156 119.53 39.852 118.938 39.244C118.346 38.628 118.05 37.88 118.05 37C118.05 36.12 118.346 35.376 118.938 34.768C119.53 34.152 120.246 33.844 121.086 33.844C122.078 33.844 122.834 34.24 123.354 35.032V34ZM121.218 39.148C121.826 39.148 122.334 38.944 122.742 38.536C123.15 38.12 123.354 37.608 123.354 37C123.354 36.392 123.15 35.884 122.742 35.476C122.334 35.06 121.826 34.852 121.218 34.852C120.618 34.852 120.114 35.06 119.706 35.476C119.298 35.884 119.094 36.392 119.094 37C119.094 37.608 119.298 38.12 119.706 38.536C120.114 38.944 120.618 39.148 121.218 39.148ZM129.292 33.844C130.132 33.844 130.848 34.152 131.44 34.768C132.032 35.376 132.328 36.12 132.328 37C132.328 37.88 132.032 38.628 131.44 39.244C130.848 39.852 130.132 40.156 129.292 40.156C128.3 40.156 127.544 39.76 127.024 38.968V40H125.979V31.6H127.024V35.032C127.544 34.24 128.3 33.844 129.292 33.844ZM129.16 39.148C129.76 39.148 130.264 38.944 130.672 38.536C131.08 38.12 131.284 37.608 131.284 37C131.284 36.392 131.08 35.884 130.672 35.476C130.264 35.06 129.76 34.852 129.16 34.852C128.552 34.852 128.044 35.06 127.636 35.476C127.228 35.884 127.024 36.392 127.024 37C127.024 37.608 127.228 38.12 127.636 38.536C128.044 38.944 128.552 39.148 129.16 39.148ZM133.573 40V31.24H134.617V40H133.573ZM136.942 37.48C137.046 38.016 137.29 38.432 137.674 38.728C138.066 39.024 138.546 39.172 139.114 39.172C139.906 39.172 140.482 38.88 140.842 38.296L141.73 38.8C141.146 39.704 140.266 40.156 139.09 40.156C138.138 40.156 137.362 39.86 136.762 39.268C136.17 38.668 135.874 37.912 135.874 37C135.874 36.096 136.166 35.344 136.75 34.744C137.334 34.144 138.09 33.844 139.018 33.844C139.898 33.844 140.614 34.156 141.166 34.78C141.726 35.396 142.006 36.14 142.006 37.012C142.006 37.164 141.994 37.32 141.97 37.48H136.942ZM139.018 34.828C138.458 34.828 137.994 34.988 137.626 35.308C137.258 35.62 137.03 36.04 136.942 36.568H140.95C140.862 36 140.638 35.568 140.278 35.272C139.918 34.976 139.498 34.828 139.018 34.828ZM151.174 34H152.218V40H151.174V38.968C150.654 39.76 149.898 40.156 148.906 40.156C148.066 40.156 147.35 39.852 146.758 39.244C146.166 38.628 145.87 37.88 145.87 37C145.87 36.12 146.166 35.376 146.758 34.768C147.35 34.152 148.066 33.844 148.906 33.844C149.898 33.844 150.654 34.24 151.174 35.032V34ZM149.038 39.148C149.646 39.148 150.154 38.944 150.562 38.536C150.97 38.12 151.174 37.608 151.174 37C151.174 36.392 150.97 35.884 150.562 35.476C150.154 35.06 149.646 34.852 149.038 34.852C148.438 34.852 147.934 35.06 147.526 35.476C147.118 35.884 146.914 36.392 146.914 37C146.914 37.608 147.118 38.12 147.526 38.536C147.934 38.944 148.438 39.148 149.038 39.148ZM156.62 40.156C155.716 40.156 154.964 39.856 154.364 39.256C153.764 38.648 153.464 37.896 153.464 37C153.464 36.104 153.764 35.356 154.364 34.756C154.964 34.148 155.716 33.844 156.62 33.844C157.212 33.844 157.744 33.988 158.216 34.276C158.688 34.556 159.04 34.936 159.272 35.416L158.396 35.92C158.244 35.6 158.008 35.344 157.688 35.152C157.376 34.96 157.02 34.864 156.62 34.864C156.02 34.864 155.516 35.068 155.108 35.476C154.708 35.884 154.508 36.392 154.508 37C154.508 37.6 154.708 38.104 155.108 38.512C155.516 38.92 156.02 39.124 156.62 39.124C157.02 39.124 157.38 39.032 157.7 38.848C158.02 38.656 158.264 38.4 158.432 38.08L159.32 38.596C159.064 39.068 158.696 39.448 158.216 39.736C157.736 40.016 157.204 40.156 156.62 40.156ZM161.406 35.008C161.75 34.264 162.374 33.892 163.278 33.892V34.984C162.766 34.96 162.326 35.096 161.958 35.392C161.59 35.688 161.406 36.164 161.406 36.82V40H160.362V34H161.406V35.008ZM169.036 39.244C168.42 39.852 167.672 40.156 166.792 40.156C165.912 40.156 165.164 39.852 164.548 39.244C163.94 38.636 163.636 37.888 163.636 37C163.636 36.112 163.94 35.364 164.548 34.756C165.164 34.148 165.912 33.844 166.792 33.844C167.672 33.844 168.42 34.148 169.036 34.756C169.652 35.364 169.96 36.112 169.96 37C169.96 37.888 169.652 38.636 169.036 39.244ZM166.792 39.136C167.392 39.136 167.896 38.932 168.304 38.524C168.712 38.116 168.916 37.608 168.916 37C168.916 36.392 168.712 35.884 168.304 35.476C167.896 35.068 167.392 34.864 166.792 34.864C166.2 34.864 165.7 35.068 165.292 35.476C164.884 35.884 164.68 36.392 164.68 37C164.68 37.608 164.884 38.116 165.292 38.524C165.7 38.932 166.2 39.136 166.792 39.136ZM171.962 35.62C171.962 35.852 172.078 36.04 172.31 36.184C172.542 36.32 172.822 36.432 173.15 36.52C173.478 36.6 173.806 36.696 174.134 36.808C174.462 36.912 174.742 37.096 174.974 37.36C175.206 37.616 175.322 37.948 175.322 38.356C175.322 38.9 175.11 39.336 174.686 39.664C174.27 39.992 173.734 40.156 173.078 40.156C172.494 40.156 171.994 40.028 171.578 39.772C171.162 39.516 170.866 39.176 170.69 38.752L171.59 38.236C171.686 38.524 171.866 38.752 172.13 38.92C172.394 39.088 172.71 39.172 173.078 39.172C173.422 39.172 173.706 39.108 173.93 38.98C174.154 38.844 174.266 38.636 174.266 38.356C174.266 38.124 174.15 37.94 173.918 37.804C173.686 37.66 173.406 37.548 173.078 37.468C172.75 37.38 172.422 37.28 172.094 37.168C171.766 37.056 171.486 36.872 171.254 36.616C171.022 36.36 170.906 36.032 170.906 35.632C170.906 35.112 171.106 34.684 171.506 34.348C171.914 34.012 172.422 33.844 173.03 33.844C173.518 33.844 173.95 33.956 174.326 34.18C174.71 34.396 174.998 34.7 175.19 35.092L174.314 35.584C174.098 35.072 173.67 34.816 173.03 34.816C172.734 34.816 172.482 34.888 172.274 35.032C172.066 35.168 171.962 35.364 171.962 35.62ZM177.083 35.62C177.083 35.852 177.199 36.04 177.431 36.184C177.663 36.32 177.943 36.432 178.271 36.52C178.599 36.6 178.927 36.696 179.255 36.808C179.583 36.912 179.863 37.096 180.095 37.36C180.327 37.616 180.443 37.948 180.443 38.356C180.443 38.9 180.231 39.336 179.807 39.664C179.391 39.992 178.855 40.156 178.199 40.156C177.615 40.156 177.115 40.028 176.699 39.772C176.283 39.516 175.987 39.176 175.811 38.752L176.711 38.236C176.807 38.524 176.987 38.752 177.251 38.92C177.515 39.088 177.831 39.172 178.199 39.172C178.543 39.172 178.827 39.108 179.051 38.98C179.275 38.844 179.387 38.636 179.387 38.356C179.387 38.124 179.271 37.94 179.039 37.804C178.807 37.66 178.527 37.548 178.199 37.468C177.871 37.38 177.543 37.28 177.215 37.168C176.887 37.056 176.607 36.872 176.375 36.616C176.143 36.36 176.027 36.032 176.027 35.632C176.027 35.112 176.227 34.684 176.627 34.348C177.035 34.012 177.543 33.844 178.151 33.844C178.639 33.844 179.071 33.956 179.447 34.18C179.831 34.396 180.119 34.7 180.311 35.092L179.435 35.584C179.219 35.072 178.791 34.816 178.151 34.816C177.855 34.816 177.603 34.888 177.395 35.032C177.187 35.168 177.083 35.364 177.083 35.62ZM187.835 31.6C188.611 31.6 189.255 31.86 189.767 32.38C190.287 32.892 190.547 33.532 190.547 34.3C190.547 35.06 190.287 35.7 189.767 36.22C189.255 36.74 188.611 37 187.835 37H185.903V40H184.787V31.6H187.835ZM187.835 35.956C188.299 35.956 188.683 35.8 188.987 35.488C189.291 35.168 189.443 34.772 189.443 34.3C189.443 33.82 189.291 33.424 188.987 33.112C188.683 32.8 188.299 32.644 187.835 32.644H185.903V35.956H187.835ZM195.754 40.156C194.482 40.156 193.43 39.736 192.598 38.896C191.774 38.056 191.362 37.024 191.362 35.8C191.362 34.576 191.774 33.544 192.598 32.704C193.43 31.864 194.482 31.444 195.754 31.444C196.522 31.444 197.226 31.628 197.866 31.996C198.514 32.364 199.018 32.86 199.378 33.484L198.406 34.048C198.166 33.584 197.806 33.216 197.326 32.944C196.854 32.664 196.33 32.524 195.754 32.524C194.786 32.524 193.994 32.836 193.378 33.46C192.77 34.084 192.466 34.864 192.466 35.8C192.466 36.728 192.77 37.504 193.378 38.128C193.994 38.752 194.786 39.064 195.754 39.064C196.33 39.064 196.854 38.928 197.326 38.656C197.806 38.376 198.166 38.008 198.406 37.552L199.378 38.104C199.026 38.728 198.526 39.228 197.878 39.604C197.23 39.972 196.522 40.156 195.754 40.156ZM201.754 38.764L200.974 41.68H200.074L200.554 38.764H201.754ZM212.314 40H211.042L208.978 36.688L206.914 40H205.654L208.354 35.68L205.81 31.6H207.07L208.978 34.66L210.886 31.6H212.146L209.614 35.668L212.314 40ZM216.62 33.844C217.46 33.844 218.176 34.152 218.768 34.768C219.36 35.376 219.656 36.12 219.656 37C219.656 37.88 219.36 38.628 218.768 39.244C218.176 39.852 217.46 40.156 216.62 40.156C215.628 40.156 214.872 39.76 214.352 38.968V40H213.308V31.6H214.352V35.032C214.872 34.24 215.628 33.844 216.62 33.844ZM216.488 39.148C217.088 39.148 217.592 38.944 218 38.536C218.408 38.12 218.612 37.608 218.612 37C218.612 36.392 218.408 35.884 218 35.476C217.592 35.06 217.088 34.852 216.488 34.852C215.88 34.852 215.372 35.06 214.964 35.476C214.556 35.884 214.352 36.392 214.352 37C214.352 37.608 214.556 38.12 214.964 38.536C215.372 38.944 215.88 39.148 216.488 39.148ZM225.965 39.244C225.349 39.852 224.601 40.156 223.721 40.156C222.841 40.156 222.093 39.852 221.477 39.244C220.869 38.636 220.565 37.888 220.565 37C220.565 36.112 220.869 35.364 221.477 34.756C222.093 34.148 222.841 33.844 223.721 33.844C224.601 33.844 225.349 34.148 225.965 34.756C226.581 35.364 226.889 36.112 226.889 37C226.889 37.888 226.581 38.636 225.965 39.244ZM223.721 39.136C224.321 39.136 224.825 38.932 225.233 38.524C225.641 38.116 225.845 37.608 225.845 37C225.845 36.392 225.641 35.884 225.233 35.476C224.825 35.068 224.321 34.864 223.721 34.864C223.129 34.864 222.629 35.068 222.221 35.476C221.813 35.884 221.609 36.392 221.609 37C221.609 37.608 221.813 38.116 222.221 38.524C222.629 38.932 223.129 39.136 223.721 39.136ZM232.906 40H231.682L230.002 37.732L228.31 40H227.086L229.39 36.916L227.218 34H228.454L230.002 36.088L231.55 34H232.774L230.614 36.904L232.906 40ZM27.668 57.652L26.732 58.192L25.88 57.28C25.256 57.864 24.456 58.156 23.48 58.156C22.64 58.156 21.96 57.94 21.44 57.508C20.92 57.068 20.66 56.476 20.66 55.732C20.66 55.22 20.788 54.752 21.044 54.328C21.308 53.896 21.692 53.556 22.196 53.308C21.836 52.852 21.656 52.344 21.656 51.784C21.656 51.088 21.896 50.524 22.376 50.092C22.864 49.66 23.448 49.444 24.128 49.444C24.688 49.444 25.196 49.596 25.652 49.9C26.108 50.204 26.436 50.624 26.636 51.16L25.7 51.7C25.58 51.332 25.38 51.044 25.1 50.836C24.828 50.628 24.512 50.524 24.152 50.524C23.768 50.524 23.44 50.64 23.168 50.872C22.904 51.104 22.772 51.404 22.772 51.772C22.772 52.036 22.832 52.276 22.952 52.492C23.08 52.7 23.268 52.936 23.516 53.2L25.808 55.648C26.008 55.232 26.152 54.724 26.24 54.124L27.2 54.676C27.088 55.34 26.872 55.936 26.552 56.464L27.668 57.652ZM23.504 57.1C24.168 57.1 24.72 56.904 25.16 56.512L22.892 54.076C22.508 54.236 22.224 54.46 22.04 54.748C21.864 55.036 21.776 55.34 21.776 55.66C21.776 56.108 21.928 56.46 22.232 56.716C22.536 56.972 22.96 57.1 23.504 57.1ZM34.8933 49.6C35.6693 49.6 36.3133 49.86 36.8253 50.38C37.3453 50.892 37.6053 51.532 37.6053 52.3C37.6053 53.06 37.3453 53.7 36.8253 54.22C36.3133 54.74 35.6693 55 34.8933 55H32.9613V58H31.8453V49.6H34.8933ZM34.8933 53.956C35.3573 53.956 35.7413 53.8 36.0453 53.488C36.3493 53.168 36.5013 52.772 36.5013 52.3C36.5013 51.82 36.3493 51.424 36.0453 51.112C35.7413 50.8 35.3573 50.644 34.8933 50.644H32.9613V53.956H34.8933ZM41.4011 58.156C40.6171 58.156 39.9451 57.972 39.3851 57.604C38.8331 57.236 38.4451 56.732 38.2211 56.092L39.1811 55.54C39.5091 56.556 40.2571 57.064 41.4251 57.064C42.0011 57.064 42.4411 56.948 42.7451 56.716C43.0491 56.476 43.2011 56.16 43.2011 55.768C43.2011 55.368 43.0491 55.068 42.7451 54.868C42.4411 54.668 41.9331 54.456 41.2211 54.232C40.8691 54.12 40.6011 54.032 40.4171 53.968C40.2331 53.896 40.0011 53.792 39.7211 53.656C39.4491 53.512 39.2451 53.368 39.1091 53.224C38.9731 53.072 38.8491 52.876 38.7371 52.636C38.6331 52.396 38.5811 52.124 38.5811 51.82C38.5811 51.092 38.8371 50.516 39.3491 50.092C39.8611 49.66 40.4851 49.444 41.2211 49.444C41.8851 49.444 42.4611 49.612 42.9491 49.948C43.4451 50.284 43.8171 50.728 44.0651 51.28L43.1291 51.82C42.7691 50.956 42.1331 50.524 41.2211 50.524C40.7651 50.524 40.3971 50.636 40.1171 50.86C39.8371 51.084 39.6971 51.388 39.6971 51.772C39.6971 52.14 39.8291 52.42 40.0931 52.612C40.3571 52.804 40.8131 53.004 41.4611 53.212C41.6931 53.284 41.8571 53.336 41.9531 53.368C42.0491 53.4 42.1971 53.456 42.3971 53.536C42.6051 53.616 42.7571 53.68 42.8531 53.728C42.9491 53.776 43.0771 53.844 43.2371 53.932C43.4051 54.02 43.5291 54.104 43.6091 54.184C43.6891 54.264 43.7811 54.364 43.8851 54.484C43.9971 54.596 44.0771 54.712 44.1251 54.832C44.1731 54.952 44.2131 55.092 44.2451 55.252C44.2851 55.404 44.3051 55.568 44.3051 55.744C44.3051 56.48 44.0371 57.068 43.5011 57.508C42.9651 57.94 42.2651 58.156 41.4011 58.156ZM45.9442 58.132C45.7282 58.132 45.5442 58.056 45.3922 57.904C45.2402 57.752 45.1642 57.568 45.1642 57.352C45.1642 57.136 45.2402 56.952 45.3922 56.8C45.5442 56.648 45.7282 56.572 45.9442 56.572C46.1682 56.572 46.3522 56.648 46.4962 56.8C46.6482 56.952 46.7242 57.136 46.7242 57.352C46.7242 57.568 46.6482 57.752 46.4962 57.904C46.3522 58.056 46.1682 58.132 45.9442 58.132Z" fill="#1A1A1A"/>
<path d="M11.9581 81.748C11.7021 82.012 11.3861 82.144 11.0101 82.144C10.6341 82.144 10.3141 82.012 10.0501 81.748C9.78613 81.484 9.65413 81.164 9.65413 80.788C9.65413 80.412 9.78613 80.096 10.0501 79.84C10.3141 79.576 10.6341 79.444 11.0101 79.444C11.3861 79.444 11.7021 79.576 11.9581 79.84C12.2221 80.096 12.3541 80.412 12.3541 80.788C12.3541 81.164 12.2221 81.484 11.9581 81.748ZM23.612 85.156C22.828 85.156 22.156 84.972 21.596 84.604C21.044 84.236 20.656 83.732 20.432 83.092L21.392 82.54C21.72 83.556 22.468 84.064 23.636 84.064C24.212 84.064 24.652 83.948 24.956 83.716C25.26 83.476 25.412 83.16 25.412 82.768C25.412 82.368 25.26 82.068 24.956 81.868C24.652 81.668 24.144 81.456 23.432 81.232C23.08 81.12 22.812 81.032 22.628 80.968C22.444 80.896 22.212 80.792 21.932 80.656C21.66 80.512 21.456 80.368 21.32 80.224C21.184 80.072 21.06 79.876 20.948 79.636C20.844 79.396 20.792 79.124 20.792 78.82C20.792 78.092 21.048 77.516 21.56 77.092C22.072 76.66 22.696 76.444 23.432 76.444C24.096 76.444 24.672 76.612 25.16 76.948C25.656 77.284 26.028 77.728 26.276 78.28L25.34 78.82C24.98 77.956 24.344 77.524 23.432 77.524C22.976 77.524 22.608 77.636 22.328 77.86C22.048 78.084 21.908 78.388 21.908 78.772C21.908 79.14 22.04 79.42 22.304 79.612C22.568 79.804 23.024 80.004 23.672 80.212C23.904 80.284 24.068 80.336 24.164 80.368C24.26 80.4 24.408 80.456 24.608 80.536C24.816 80.616 24.968 80.68 25.064 80.728C25.16 80.776 25.288 80.844 25.448 80.932C25.616 81.02 25.74 81.104 25.82 81.184C25.9 81.264 25.992 81.364 26.096 81.484C26.208 81.596 26.288 81.712 26.336 81.832C26.384 81.952 26.424 82.092 26.456 82.252C26.496 82.404 26.516 82.568 26.516 82.744C26.516 83.48 26.248 84.068 25.712 84.508C25.176 84.94 24.476 85.156 23.612 85.156ZM31.8695 79H32.9135V85H31.8695V84.136C31.4455 84.816 30.7975 85.156 29.9255 85.156C29.2215 85.156 28.6575 84.936 28.2335 84.496C27.8095 84.048 27.5975 83.444 27.5975 82.684V79H28.6415V82.624C28.6415 83.112 28.7735 83.492 29.0375 83.764C29.3015 84.028 29.6655 84.16 30.1295 84.16C30.6495 84.16 31.0695 84 31.3895 83.68C31.7095 83.352 31.8695 82.852 31.8695 82.18V79ZM37.3229 85.156C36.4189 85.156 35.6669 84.856 35.0669 84.256C34.4669 83.648 34.1669 82.896 34.1669 82C34.1669 81.104 34.4669 80.356 35.0669 79.756C35.6669 79.148 36.4189 78.844 37.3229 78.844C37.9149 78.844 38.4469 78.988 38.9189 79.276C39.3909 79.556 39.7429 79.936 39.9749 80.416L39.0989 80.92C38.9469 80.6 38.7109 80.344 38.3909 80.152C38.0789 79.96 37.7229 79.864 37.3229 79.864C36.7229 79.864 36.2189 80.068 35.8109 80.476C35.4109 80.884 35.2109 81.392 35.2109 82C35.2109 82.6 35.4109 83.104 35.8109 83.512C36.2189 83.92 36.7229 84.124 37.3229 84.124C37.7229 84.124 38.0829 84.032 38.4029 83.848C38.7229 83.656 38.9669 83.4 39.1349 83.08L40.0229 83.596C39.7669 84.068 39.3989 84.448 38.9189 84.736C38.4389 85.016 37.9069 85.156 37.3229 85.156ZM43.7917 85.156C42.8877 85.156 42.1357 84.856 41.5357 84.256C40.9357 83.648 40.6357 82.896 40.6357 82C40.6357 81.104 40.9357 80.356 41.5357 79.756C42.1357 79.148 42.8877 78.844 43.7917 78.844C44.3837 78.844 44.9157 78.988 45.3877 79.276C45.8597 79.556 46.2117 79.936 46.4437 80.416L45.5677 80.92C45.4157 80.6 45.1797 80.344 44.8597 80.152C44.5477 79.96 44.1917 79.864 43.7917 79.864C43.1917 79.864 42.6877 80.068 42.2797 80.476C41.8797 80.884 41.6797 81.392 41.6797 82C41.6797 82.6 41.8797 83.104 42.2797 83.512C42.6877 83.92 43.1917 84.124 43.7917 84.124C44.1917 84.124 44.5517 84.032 44.8717 83.848C45.1917 83.656 45.4357 83.4 45.6037 83.08L46.4917 83.596C46.2357 84.068 45.8677 84.448 45.3877 84.736C44.9077 85.016 44.3757 85.156 43.7917 85.156ZM48.1724 82.48C48.2764 83.016 48.5204 83.432 48.9044 83.728C49.2964 84.024 49.7764 84.172 50.3444 84.172C51.1364 84.172 51.7124 83.88 52.0724 83.296L52.9604 83.8C52.3764 84.704 51.4964 85.156 50.3204 85.156C49.3684 85.156 48.5924 84.86 47.9924 84.268C47.4004 83.668 47.1044 82.912 47.1044 82C47.1044 81.096 47.3964 80.344 47.9804 79.744C48.5644 79.144 49.3204 78.844 50.2484 78.844C51.1284 78.844 51.8444 79.156 52.3964 79.78C52.9564 80.396 53.2364 81.14 53.2364 82.012C53.2364 82.164 53.2244 82.32 53.2004 82.48H48.1724ZM50.2484 79.828C49.6884 79.828 49.2244 79.988 48.8564 80.308C48.4884 80.62 48.2604 81.04 48.1724 81.568H52.1804C52.0924 81 51.8684 80.568 51.5084 80.272C51.1484 79.976 50.7284 79.828 50.2484 79.828ZM55.1022 80.62C55.1022 80.852 55.2182 81.04 55.4502 81.184C55.6822 81.32 55.9622 81.432 56.2902 81.52C56.6182 81.6 56.9462 81.696 57.2742 81.808C57.6022 81.912 57.8822 82.096 58.1142 82.36C58.3462 82.616 58.4622 82.948 58.4622 83.356C58.4622 83.9 58.2502 84.336 57.8262 84.664C57.4102 84.992 56.8742 85.156 56.2182 85.156C55.6342 85.156 55.1342 85.028 54.7182 84.772C54.3022 84.516 54.0062 84.176 53.8302 83.752L54.7302 83.236C54.8262 83.524 55.0062 83.752 55.2702 83.92C55.5342 84.088 55.8502 84.172 56.2182 84.172C56.5622 84.172 56.8462 84.108 57.0702 83.98C57.2942 83.844 57.4062 83.636 57.4062 83.356C57.4062 83.124 57.2902 82.94 57.0582 82.804C56.8262 82.66 56.5462 82.548 56.2182 82.468C55.8902 82.38 55.5622 82.28 55.2342 82.168C54.9062 82.056 54.6262 81.872 54.3942 81.616C54.1622 81.36 54.0462 81.032 54.0462 80.632C54.0462 80.112 54.2462 79.684 54.6462 79.348C55.0542 79.012 55.5622 78.844 56.1702 78.844C56.6582 78.844 57.0902 78.956 57.4662 79.18C57.8502 79.396 58.1382 79.7 58.3302 80.092L57.4542 80.584C57.2382 80.072 56.8102 79.816 56.1702 79.816C55.8742 79.816 55.6222 79.888 55.4142 80.032C55.2062 80.168 55.1022 80.364 55.1022 80.62ZM60.2233 80.62C60.2233 80.852 60.3393 81.04 60.5713 81.184C60.8033 81.32 61.0833 81.432 61.4113 81.52C61.7393 81.6 62.0673 81.696 62.3953 81.808C62.7233 81.912 63.0033 82.096 63.2353 82.36C63.4673 82.616 63.5833 82.948 63.5833 83.356C63.5833 83.9 63.3713 84.336 62.9473 84.664C62.5313 84.992 61.9953 85.156 61.3393 85.156C60.7553 85.156 60.2553 85.028 59.8393 84.772C59.4233 84.516 59.1273 84.176 58.9513 83.752L59.8513 83.236C59.9473 83.524 60.1273 83.752 60.3913 83.92C60.6553 84.088 60.9713 84.172 61.3393 84.172C61.6833 84.172 61.9673 84.108 62.1913 83.98C62.4153 83.844 62.5273 83.636 62.5273 83.356C62.5273 83.124 62.4113 82.94 62.1793 82.804C61.9473 82.66 61.6673 82.548 61.3393 82.468C61.0113 82.38 60.6833 82.28 60.3553 82.168C60.0273 82.056 59.7473 81.872 59.5153 81.616C59.2833 81.36 59.1673 81.032 59.1673 80.632C59.1673 80.112 59.3673 79.684 59.7673 79.348C60.1753 79.012 60.6833 78.844 61.2913 78.844C61.7793 78.844 62.2113 78.956 62.5873 79.18C62.9713 79.396 63.2593 79.7 63.4513 80.092L62.5753 80.584C62.3593 80.072 61.9313 79.816 61.2913 79.816C60.9953 79.816 60.7433 79.888 60.5353 80.032C60.3273 80.168 60.2233 80.364 60.2233 80.62ZM67.7744 77.452C66.7184 77.364 66.1904 77.82 66.1904 78.82V79H67.7744V80.008H66.1904V85H65.1464V80.008H64.1864V79H65.1464V78.82C65.1464 78.012 65.3704 77.4 65.8184 76.984C66.2744 76.568 66.9264 76.388 67.7744 76.444V77.452ZM72.7093 79H73.7533V85H72.7093V84.136C72.2853 84.816 71.6373 85.156 70.7653 85.156C70.0613 85.156 69.4973 84.936 69.0733 84.496C68.6493 84.048 68.4373 83.444 68.4373 82.684V79H69.4813V82.624C69.4813 83.112 69.6133 83.492 69.8773 83.764C70.1413 84.028 70.5053 84.16 70.9693 84.16C71.4893 84.16 71.9093 84 72.2293 83.68C72.5493 83.352 72.7093 82.852 72.7093 82.18V79ZM75.3428 85V76.24H76.3868V85H75.3428ZM80.9795 85V76.24H82.0235V85H80.9795ZM88.5842 79H89.6282V85H88.5842V83.968C88.0642 84.76 87.3082 85.156 86.3162 85.156C85.4762 85.156 84.7602 84.852 84.1682 84.244C83.5762 83.628 83.2802 82.88 83.2802 82C83.2802 81.12 83.5762 80.376 84.1682 79.768C84.7602 79.152 85.4762 78.844 86.3162 78.844C87.3082 78.844 88.0642 79.24 88.5842 80.032V79ZM86.4482 84.148C87.0562 84.148 87.5642 83.944 87.9722 83.536C88.3802 83.12 88.5842 82.608 88.5842 82C88.5842 81.392 88.3802 80.884 87.9722 80.476C87.5642 80.06 87.0562 79.852 86.4482 79.852C85.8482 79.852 85.3442 80.06 84.9362 80.476C84.5282 80.884 84.3242 81.392 84.3242 82C84.3242 82.608 84.5282 83.12 84.9362 83.536C85.3442 83.944 85.8482 84.148 86.4482 84.148ZM95.35 79H96.394V85H95.35V84.136C94.926 84.816 94.278 85.156 93.406 85.156C92.702 85.156 92.138 84.936 91.714 84.496C91.29 84.048 91.078 83.444 91.078 82.684V79H92.122V82.624C92.122 83.112 92.254 83.492 92.518 83.764C92.782 84.028 93.146 84.16 93.61 84.16C94.13 84.16 94.55 84 94.87 83.68C95.19 83.352 95.35 82.852 95.35 82.18V79ZM100.971 78.844C101.675 78.844 102.239 79.068 102.663 79.516C103.087 79.956 103.299 80.556 103.299 81.316V85H102.255V81.376C102.255 80.888 102.123 80.512 101.859 80.248C101.595 79.976 101.231 79.84 100.767 79.84C100.247 79.84 99.8274 80.004 99.5074 80.332C99.1874 80.652 99.0274 81.148 99.0274 81.82V85H97.9834V79H99.0274V79.864C99.4514 79.184 100.099 78.844 100.971 78.844ZM107.577 85.156C106.673 85.156 105.921 84.856 105.321 84.256C104.721 83.648 104.421 82.896 104.421 82C104.421 81.104 104.721 80.356 105.321 79.756C105.921 79.148 106.673 78.844 107.577 78.844C108.169 78.844 108.701 78.988 109.173 79.276C109.645 79.556 109.997 79.936 110.229 80.416L109.353 80.92C109.201 80.6 108.965 80.344 108.645 80.152C108.333 79.96 107.977 79.864 107.577 79.864C106.977 79.864 106.473 80.068 106.065 80.476C105.665 80.884 105.465 81.392 105.465 82C105.465 82.6 105.665 83.104 106.065 83.512C106.473 83.92 106.977 84.124 107.577 84.124C107.977 84.124 108.337 84.032 108.657 83.848C108.977 83.656 109.221 83.4 109.389 83.08L110.277 83.596C110.021 84.068 109.653 84.448 109.173 84.736C108.693 85.016 108.161 85.156 107.577 85.156ZM114.296 78.844C115 78.844 115.564 79.068 115.988 79.516C116.412 79.956 116.624 80.556 116.624 81.316V85H115.58V81.376C115.58 80.888 115.448 80.512 115.184 80.248C114.92 79.976 114.556 79.84 114.092 79.84C113.572 79.84 113.152 80.004 112.832 80.332C112.512 80.652 112.352 81.148 112.352 81.82V85H111.308V76.6H112.352V79.864C112.776 79.184 113.424 78.844 114.296 78.844ZM126.145 84.244C125.529 84.852 124.781 85.156 123.901 85.156C123.021 85.156 122.273 84.852 121.657 84.244C121.049 83.636 120.745 82.888 120.745 82C120.745 81.112 121.049 80.364 121.657 79.756C122.273 79.148 123.021 78.844 123.901 78.844C124.781 78.844 125.529 79.148 126.145 79.756C126.761 80.364 127.069 81.112 127.069 82C127.069 82.888 126.761 83.636 126.145 84.244ZM123.901 84.136C124.501 84.136 125.005 83.932 125.413 83.524C125.821 83.116 126.025 82.608 126.025 82C126.025 81.392 125.821 80.884 125.413 80.476C125.005 80.068 124.501 79.864 123.901 79.864C123.309 79.864 122.809 80.068 122.401 80.476C121.993 80.884 121.789 81.392 121.789 82C121.789 82.608 121.993 83.116 122.401 83.524C122.809 83.932 123.309 84.136 123.901 84.136ZM131.161 77.452C130.105 77.364 129.577 77.82 129.577 78.82V79H131.161V80.008H129.577V85H128.533V80.008H127.573V79H128.533V78.82C128.533 78.012 128.757 77.4 129.205 76.984C129.661 76.568 130.313 76.388 131.161 76.444V77.452ZM138.22 80.008H136.624V83.26C136.624 83.556 136.68 83.768 136.792 83.896C136.912 84.016 137.092 84.08 137.332 84.088C137.572 84.088 137.868 84.08 138.22 84.064V85C137.308 85.12 136.64 85.048 136.216 84.784C135.792 84.512 135.58 84.004 135.58 83.26V80.008H134.392V79H135.58V77.632L136.624 77.32V79H138.22V80.008ZM142.444 78.844C143.148 78.844 143.712 79.068 144.136 79.516C144.56 79.956 144.772 80.556 144.772 81.316V85H143.728V81.376C143.728 80.888 143.596 80.512 143.332 80.248C143.068 79.976 142.704 79.84 142.24 79.84C141.72 79.84 141.3 80.004 140.98 80.332C140.66 80.652 140.5 81.148 140.5 81.82V85H139.456V76.6H140.5V79.864C140.924 79.184 141.572 78.844 142.444 78.844ZM146.962 82.48C147.066 83.016 147.31 83.432 147.694 83.728C148.086 84.024 148.566 84.172 149.134 84.172C149.926 84.172 150.502 83.88 150.862 83.296L151.75 83.8C151.166 84.704 150.286 85.156 149.11 85.156C148.158 85.156 147.382 84.86 146.782 84.268C146.19 83.668 145.894 82.912 145.894 82C145.894 81.096 146.186 80.344 146.77 79.744C147.354 79.144 148.11 78.844 149.038 78.844C149.918 78.844 150.634 79.156 151.186 79.78C151.746 80.396 152.026 81.14 152.026 82.012C152.026 82.164 152.014 82.32 151.99 82.48H146.962ZM149.038 79.828C148.478 79.828 148.014 79.988 147.646 80.308C147.278 80.62 147.05 81.04 146.962 81.568H150.97C150.882 81 150.658 80.568 150.298 80.272C149.938 79.976 149.518 79.828 149.038 79.828ZM157.45 83.944H161.35V85H156.334V76.6H161.29V77.656H157.45V80.236H160.99V81.28H157.45V83.944ZM165.28 85.156C164.376 85.156 163.624 84.856 163.024 84.256C162.424 83.648 162.124 82.896 162.124 82C162.124 81.104 162.424 80.356 163.024 79.756C163.624 79.148 164.376 78.844 165.28 78.844C165.872 78.844 166.404 78.988 166.876 79.276C167.348 79.556 167.7 79.936 167.932 80.416L167.056 80.92C166.904 80.6 166.668 80.344 166.348 80.152C166.036 79.96 165.68 79.864 165.28 79.864C164.68 79.864 164.176 80.068 163.768 80.476C163.368 80.884 163.168 81.392 163.168 82C163.168 82.6 163.368 83.104 163.768 83.512C164.176 83.92 164.68 84.124 165.28 84.124C165.68 84.124 166.04 84.032 166.36 83.848C166.68 83.656 166.924 83.4 167.092 83.08L167.98 83.596C167.724 84.068 167.356 84.448 166.876 84.736C166.396 85.016 165.864 85.156 165.28 85.156ZM171.999 78.844C172.703 78.844 173.267 79.068 173.691 79.516C174.115 79.956 174.327 80.556 174.327 81.316V85H173.283V81.376C173.283 80.888 173.151 80.512 172.887 80.248C172.623 79.976 172.259 79.84 171.795 79.84C171.275 79.84 170.855 80.004 170.535 80.332C170.215 80.652 170.055 81.148 170.055 81.82V85H169.011V76.6H170.055V79.864C170.479 79.184 171.127 78.844 171.999 78.844ZM180.848 84.244C180.232 84.852 179.484 85.156 178.604 85.156C177.724 85.156 176.976 84.852 176.36 84.244C175.752 83.636 175.448 82.888 175.448 82C175.448 81.112 175.752 80.364 176.36 79.756C176.976 79.148 177.724 78.844 178.604 78.844C179.484 78.844 180.232 79.148 180.848 79.756C181.464 80.364 181.772 81.112 181.772 82C181.772 82.888 181.464 83.636 180.848 84.244ZM178.604 84.136C179.204 84.136 179.708 83.932 180.116 83.524C180.524 83.116 180.728 82.608 180.728 82C180.728 81.392 180.524 80.884 180.116 80.476C179.708 80.068 179.204 79.864 178.604 79.864C178.012 79.864 177.512 80.068 177.104 80.476C176.696 80.884 176.492 81.392 176.492 82C176.492 82.608 176.696 83.116 177.104 83.524C177.512 83.932 178.012 84.136 178.604 84.136ZM186.969 79H188.097L185.697 85H184.473L182.073 79H183.201L185.085 83.884L186.969 79ZM189.477 82.48C189.581 83.016 189.825 83.432 190.209 83.728C190.601 84.024 191.081 84.172 191.649 84.172C192.441 84.172 193.017 83.88 193.377 83.296L194.265 83.8C193.681 84.704 192.801 85.156 191.625 85.156C190.673 85.156 189.897 84.86 189.297 84.268C188.705 83.668 188.409 82.912 188.409 82C188.409 81.096 188.701 80.344 189.285 79.744C189.869 79.144 190.625 78.844 191.553 78.844C192.433 78.844 193.149 79.156 193.701 79.78C194.261 80.396 194.541 81.14 194.541 82.012C194.541 82.164 194.529 82.32 194.505 82.48H189.477ZM191.553 79.828C190.993 79.828 190.529 79.988 190.161 80.308C189.793 80.62 189.565 81.04 189.477 81.568H193.485C193.397 81 193.173 80.568 192.813 80.272C192.453 79.976 192.033 79.828 191.553 79.828ZM196.785 80.008C197.129 79.264 197.753 78.892 198.657 78.892V79.984C198.145 79.96 197.705 80.096 197.337 80.392C196.969 80.688 196.785 81.164 196.785 81.82V85H195.741V79H196.785V80.008ZM200.356 80.62C200.356 80.852 200.472 81.04 200.704 81.184C200.936 81.32 201.216 81.432 201.544 81.52C201.872 81.6 202.2 81.696 202.528 81.808C202.856 81.912 203.136 82.096 203.368 82.36C203.6 82.616 203.716 82.948 203.716 83.356C203.716 83.9 203.504 84.336 203.08 84.664C202.664 84.992 202.128 85.156 201.472 85.156C200.888 85.156 200.388 85.028 199.972 84.772C199.556 84.516 199.26 84.176 199.084 83.752L199.984 83.236C200.08 83.524 200.26 83.752 200.524 83.92C200.788 84.088 201.104 84.172 201.472 84.172C201.816 84.172 202.1 84.108 202.324 83.98C202.548 83.844 202.66 83.636 202.66 83.356C202.66 83.124 202.544 82.94 202.312 82.804C202.08 82.66 201.8 82.548 201.472 82.468C201.144 82.38 200.816 82.28 200.488 82.168C200.16 82.056 199.88 81.872 199.648 81.616C199.416 81.36 199.3 81.032 199.3 80.632C199.3 80.112 199.5 79.684 199.9 79.348C200.308 79.012 200.816 78.844 201.424 78.844C201.912 78.844 202.344 78.956 202.72 79.18C203.104 79.396 203.392 79.7 203.584 80.092L202.708 80.584C202.492 80.072 202.064 79.816 201.424 79.816C201.128 79.816 200.876 79.888 200.668 80.032C200.46 80.168 200.356 80.364 200.356 80.62ZM205.52 82.48C205.624 83.016 205.868 83.432 206.252 83.728C206.644 84.024 207.124 84.172 207.692 84.172C208.484 84.172 209.06 83.88 209.42 83.296L210.308 83.8C209.724 84.704 208.844 85.156 207.668 85.156C206.716 85.156 205.94 84.86 205.34 84.268C204.748 83.668 204.452 82.912 204.452 82C204.452 81.096 204.744 80.344 205.328 79.744C205.912 79.144 206.668 78.844 207.596 78.844C208.476 78.844 209.192 79.156 209.744 79.78C210.304 80.396 210.584 81.14 210.584 82.012C210.584 82.164 210.572 82.32 210.548 82.48H205.52ZM207.596 79.828C207.036 79.828 206.572 79.988 206.204 80.308C205.836 80.62 205.608 81.04 205.52 81.568H209.528C209.44 81 209.216 80.568 208.856 80.272C208.496 79.976 208.076 79.828 207.596 79.828ZM214.892 81.82V80.812H219.272V81.82H214.892ZM228.928 79H229.972V85H228.928V83.968C228.408 84.76 227.652 85.156 226.66 85.156C225.82 85.156 225.104 84.852 224.512 84.244C223.92 83.628 223.624 82.88 223.624 82C223.624 81.12 223.92 80.376 224.512 79.768C225.104 79.152 225.82 78.844 226.66 78.844C227.652 78.844 228.408 79.24 228.928 80.032V79ZM226.792 84.148C227.4 84.148 227.908 83.944 228.316 83.536C228.724 83.12 228.928 82.608 228.928 82C228.928 81.392 228.724 80.884 228.316 80.476C227.908 80.06 227.4 79.852 226.792 79.852C226.192 79.852 225.688 80.06 225.28 80.476C224.872 80.884 224.668 81.392 224.668 82C224.668 82.608 224.872 83.12 225.28 83.536C225.688 83.944 226.192 84.148 226.792 84.148ZM28.76 94.6V103H27.656V96.436L24.908 101.008H24.764L22.016 96.448V103H20.9V94.6H22.16L24.836 99.04L27.5 94.6H28.76ZM38.4163 94.6V103H37.3123V96.436L34.5643 101.008H34.4203L31.6723 96.448V103H30.5563V94.6H31.8163L34.4923 99.04L37.1562 94.6H38.4163ZM47.1965 101.884C46.3565 102.732 45.3285 103.156 44.1125 103.156C42.8965 103.156 41.8685 102.732 41.0285 101.884C40.1885 101.036 39.7685 100.008 39.7685 98.8C39.7685 97.584 40.1885 96.556 41.0285 95.716C41.8685 94.868 42.8965 94.444 44.1125 94.444C45.3285 94.444 46.3565 94.868 47.1965 95.716C48.0445 96.556 48.4685 97.584 48.4685 98.8C48.4685 100.008 48.0445 101.036 47.1965 101.884ZM41.7965 101.128C42.4205 101.752 43.1925 102.064 44.1125 102.064C45.0325 102.064 45.8005 101.752 46.4165 101.128C47.0405 100.496 47.3525 99.72 47.3525 98.8C47.3525 97.872 47.0405 97.096 46.4165 96.472C45.8005 95.84 45.0325 95.524 44.1125 95.524C43.1925 95.524 42.4205 95.84 41.7965 96.472C41.1805 97.096 40.8725 97.872 40.8725 98.8C40.8725 99.72 41.1805 100.496 41.7965 101.128ZM54.7902 103L52.9062 99.784H50.9262V103H49.8102V94.6H53.1702C53.8902 94.6 54.5062 94.856 55.0182 95.368C55.5302 95.872 55.7862 96.484 55.7862 97.204C55.7862 97.748 55.6222 98.244 55.2942 98.692C54.9742 99.14 54.5582 99.456 54.0462 99.64L56.0262 103H54.7902ZM50.9262 95.644V98.776H53.1702C53.5862 98.776 53.9382 98.624 54.2262 98.32C54.5222 98.008 54.6702 97.636 54.6702 97.204C54.6702 96.772 54.5222 96.404 54.2262 96.1C53.9382 95.796 53.5862 95.644 53.1702 95.644H50.9262ZM60.1941 94.6C60.9701 94.6 61.6141 94.86 62.1261 95.38C62.6461 95.892 62.9061 96.532 62.9061 97.3C62.9061 98.06 62.6461 98.7 62.1261 99.22C61.6141 99.74 60.9701 100 60.1941 100H58.2621V103H57.1461V94.6H60.1941ZM60.1941 98.956C60.6581 98.956 61.0421 98.8 61.3461 98.488C61.6501 98.168 61.8021 97.772 61.8021 97.3C61.8021 96.82 61.6501 96.424 61.3461 96.112C61.0421 95.8 60.6581 95.644 60.1941 95.644H58.2621V98.956H60.1941ZM72.2656 98.836V99.34C72.2656 100.436 71.8896 101.348 71.1376 102.076C70.3856 102.796 69.3896 103.156 68.1496 103.156C66.8696 103.156 65.8096 102.736 64.9696 101.896C64.1376 101.048 63.7216 100.016 63.7216 98.8C63.7216 97.584 64.1376 96.556 64.9696 95.716C65.8096 94.868 66.8616 94.444 68.1256 94.444C68.9016 94.444 69.6136 94.632 70.2616 95.008C70.9096 95.376 71.4096 95.864 71.7616 96.472L70.8016 97.036C70.5616 96.58 70.1976 96.216 69.7096 95.944C69.2296 95.664 68.6976 95.524 68.1136 95.524C67.1536 95.524 66.3656 95.84 65.7496 96.472C65.1336 97.096 64.8256 97.872 64.8256 98.8C64.8256 99.728 65.1336 100.504 65.7496 101.128C66.3736 101.752 67.1776 102.064 68.1616 102.064C69.0016 102.064 69.6816 101.86 70.2016 101.452C70.7216 101.036 71.0376 100.5 71.1496 99.844H68.0656V98.836H72.2656ZM77.4147 98.62C77.4147 98.852 77.5307 99.04 77.7627 99.184C77.9947 99.32 78.2747 99.432 78.6027 99.52C78.9307 99.6 79.2587 99.696 79.5867 99.808C79.9147 99.912 80.1947 100.096 80.4267 100.36C80.6587 100.616 80.7747 100.948 80.7747 101.356C80.7747 101.9 80.5627 102.336 80.1387 102.664C79.7227 102.992 79.1867 103.156 78.5307 103.156C77.9467 103.156 77.4467 103.028 77.0307 102.772C76.6147 102.516 76.3187 102.176 76.1427 101.752L77.0427 101.236C77.1387 101.524 77.3187 101.752 77.5827 101.92C77.8467 102.088 78.1627 102.172 78.5307 102.172C78.8747 102.172 79.1587 102.108 79.3827 101.98C79.6067 101.844 79.7187 101.636 79.7187 101.356C79.7187 101.124 79.6027 100.94 79.3707 100.804C79.1387 100.66 78.8587 100.548 78.5307 100.468C78.2027 100.38 77.8747 100.28 77.5467 100.168C77.2187 100.056 76.9387 99.872 76.7067 99.616C76.4747 99.36 76.3587 99.032 76.3587 98.632C76.3587 98.112 76.5587 97.684 76.9587 97.348C77.3667 97.012 77.8747 96.844 78.4827 96.844C78.9707 96.844 79.4027 96.956 79.7787 97.18C80.1627 97.396 80.4507 97.7 80.6427 98.092L79.7667 98.584C79.5507 98.072 79.1227 97.816 78.4827 97.816C78.1867 97.816 77.9347 97.888 77.7267 98.032C77.5187 98.168 77.4147 98.364 77.4147 98.62ZM85.0404 98.008H83.4444V101.26C83.4444 101.556 83.5004 101.768 83.6124 101.896C83.7324 102.016 83.9124 102.08 84.1524 102.088C84.3924 102.088 84.6884 102.08 85.0404 102.064V103C84.1284 103.12 83.4604 103.048 83.0364 102.784C82.6124 102.512 82.4004 102.004 82.4004 101.26V98.008H81.2124V97H82.4004V95.632L83.4444 95.32V97H85.0404V98.008ZM90.5933 97H91.7093L89.2613 103.372C89.0053 104.052 88.6453 104.568 88.1813 104.92C87.7253 105.28 87.1973 105.44 86.5973 105.4V104.428C87.3333 104.484 87.8733 104.076 88.2173 103.204L88.3253 102.976L85.7093 97H86.8253L88.8653 101.704L90.5933 97ZM92.5811 103V94.24H93.6251V103H92.5811ZM95.9498 100.48C96.0538 101.016 96.2978 101.432 96.6818 101.728C97.0738 102.024 97.5538 102.172 98.1218 102.172C98.9138 102.172 99.4898 101.88 99.8498 101.296L100.738 101.8C100.154 102.704 99.2738 103.156 98.0978 103.156C97.1458 103.156 96.3698 102.86 95.7698 102.268C95.1778 101.668 94.8818 100.912 94.8818 100C94.8818 99.096 95.1738 98.344 95.7578 97.744C96.3418 97.144 97.0978 96.844 98.0258 96.844C98.9058 96.844 99.6218 97.156 100.174 97.78C100.734 98.396 101.014 99.14 101.014 100.012C101.014 100.164 101.002 100.32 100.978 100.48H95.9498ZM98.0258 97.828C97.4658 97.828 97.0018 97.988 96.6338 98.308C96.2658 98.62 96.0378 99.04 95.9498 99.568H99.9578C99.8698 99 99.6458 98.568 99.2858 98.272C98.9258 97.976 98.5058 97.828 98.0258 97.828ZM111.694 96.844C112.366 96.844 112.91 97.064 113.326 97.504C113.742 97.936 113.95 98.524 113.95 99.268V103H112.906V99.304C112.906 98.84 112.786 98.48 112.546 98.224C112.306 97.968 111.986 97.84 111.586 97.84C111.138 97.84 110.778 97.992 110.506 98.296C110.242 98.592 110.11 99.048 110.11 99.664V103H109.066V99.304C109.066 98.84 108.95 98.48 108.718 98.224C108.494 97.968 108.186 97.84 107.794 97.84C107.354 97.84 106.986 97.992 106.69 98.296C106.402 98.6 106.258 99.056 106.258 99.664V103H105.214V97H106.258V97.804C106.666 97.164 107.262 96.844 108.046 96.844C108.854 96.844 109.442 97.184 109.81 97.864C110.226 97.184 110.854 96.844 111.694 96.844ZM116.129 100.48C116.233 101.016 116.477 101.432 116.861 101.728C117.253 102.024 117.733 102.172 118.301 102.172C119.093 102.172 119.669 101.88 120.029 101.296L120.917 101.8C120.333 102.704 119.453 103.156 118.277 103.156C117.325 103.156 116.549 102.86 115.949 102.268C115.357 101.668 115.061 100.912 115.061 100C115.061 99.096 115.353 98.344 115.937 97.744C116.521 97.144 117.277 96.844 118.205 96.844C119.085 96.844 119.801 97.156 120.353 97.78C120.913 98.396 121.193 99.14 121.193 100.012C121.193 100.164 121.181 100.32 121.157 100.48H116.129ZM118.205 97.828C117.645 97.828 117.181 97.988 116.813 98.308C116.445 98.62 116.217 99.04 116.129 99.568H120.137C120.049 99 119.825 98.568 119.465 98.272C119.105 97.976 118.685 97.828 118.205 97.828ZM125.482 98.008H123.886V101.26C123.886 101.556 123.942 101.768 124.054 101.896C124.174 102.016 124.354 102.08 124.594 102.088C124.834 102.088 125.13 102.08 125.482 102.064V103C124.57 103.12 123.902 103.048 123.478 102.784C123.054 102.512 122.842 102.004 122.842 101.26V98.008H121.654V97H122.842V95.632L123.886 95.32V97H125.482V98.008ZM131.381 97H132.425V103H131.381V101.968C130.861 102.76 130.105 103.156 129.113 103.156C128.273 103.156 127.557 102.852 126.965 102.244C126.373 101.628 126.077 100.88 126.077 100C126.077 99.12 126.373 98.376 126.965 97.768C127.557 97.152 128.273 96.844 129.113 96.844C130.105 96.844 130.861 97.24 131.381 98.032V97ZM129.245 102.148C129.853 102.148 130.361 101.944 130.769 101.536C131.177 101.12 131.381 100.608 131.381 100C131.381 99.392 131.177 98.884 130.769 98.476C130.361 98.06 129.853 97.852 129.245 97.852C128.645 97.852 128.141 98.06 127.733 98.476C127.325 98.884 127.121 99.392 127.121 100C127.121 100.608 127.325 101.12 127.733 101.536C128.141 101.944 128.645 102.148 129.245 102.148ZM138.207 97H139.335L136.935 103H135.711L133.311 97H134.439L136.323 101.884L138.207 97ZM140.715 100.48C140.819 101.016 141.063 101.432 141.447 101.728C141.839 102.024 142.319 102.172 142.887 102.172C143.679 102.172 144.255 101.88 144.615 101.296L145.503 101.8C144.919 102.704 144.039 103.156 142.863 103.156C141.911 103.156 141.135 102.86 140.535 102.268C139.943 101.668 139.647 100.912 139.647 100C139.647 99.096 139.939 98.344 140.523 97.744C141.107 97.144 141.863 96.844 142.791 96.844C143.671 96.844 144.387 97.156 144.939 97.78C145.499 98.396 145.779 99.14 145.779 100.012C145.779 100.164 145.767 100.32 145.743 100.48H140.715ZM142.791 97.828C142.231 97.828 141.767 97.988 141.399 98.308C141.031 98.62 140.803 99.04 140.715 99.568H144.723C144.635 99 144.411 98.568 144.051 98.272C143.691 97.976 143.271 97.828 142.791 97.828ZM148.024 98.008C148.368 97.264 148.992 96.892 149.896 96.892V97.984C149.384 97.96 148.944 98.096 148.576 98.392C148.208 98.688 148.024 99.164 148.024 99.82V103H146.979V97H148.024V98.008ZM151.594 98.62C151.594 98.852 151.71 99.04 151.942 99.184C152.174 99.32 152.454 99.432 152.782 99.52C153.11 99.6 153.438 99.696 153.766 99.808C154.094 99.912 154.374 100.096 154.606 100.36C154.838 100.616 154.954 100.948 154.954 101.356C154.954 101.9 154.742 102.336 154.318 102.664C153.902 102.992 153.366 103.156 152.71 103.156C152.126 103.156 151.626 103.028 151.21 102.772C150.794 102.516 150.498 102.176 150.322 101.752L151.222 101.236C151.318 101.524 151.498 101.752 151.762 101.92C152.026 102.088 152.342 102.172 152.71 102.172C153.054 102.172 153.338 102.108 153.562 101.98C153.786 101.844 153.898 101.636 153.898 101.356C153.898 101.124 153.782 100.94 153.55 100.804C153.318 100.66 153.038 100.548 152.71 100.468C152.382 100.38 152.054 100.28 151.726 100.168C151.398 100.056 151.118 99.872 150.886 99.616C150.654 99.36 150.538 99.032 150.538 98.632C150.538 98.112 150.738 97.684 151.138 97.348C151.546 97.012 152.054 96.844 152.662 96.844C153.15 96.844 153.582 96.956 153.958 97.18C154.342 97.396 154.63 97.7 154.822 98.092L153.946 98.584C153.73 98.072 153.302 97.816 152.662 97.816C152.366 97.816 152.114 97.888 151.906 98.032C151.698 98.168 151.594 98.364 151.594 98.62ZM156.758 100.48C156.862 101.016 157.106 101.432 157.49 101.728C157.882 102.024 158.362 102.172 158.93 102.172C159.722 102.172 160.298 101.88 160.658 101.296L161.546 101.8C160.962 102.704 160.082 103.156 158.906 103.156C157.954 103.156 157.178 102.86 156.578 102.268C155.986 101.668 155.69 100.912 155.69 100C155.69 99.096 155.982 98.344 156.566 97.744C157.15 97.144 157.906 96.844 158.834 96.844C159.714 96.844 160.43 97.156 160.982 97.78C161.542 98.396 161.822 99.14 161.822 100.012C161.822 100.164 161.81 100.32 161.786 100.48H156.758ZM158.834 97.828C158.274 97.828 157.81 97.988 157.442 98.308C157.074 98.62 156.846 99.04 156.758 99.568H160.766C160.678 99 160.454 98.568 160.094 98.272C159.734 97.976 159.314 97.828 158.834 97.828ZM163.202 103.132C162.986 103.132 162.802 103.056 162.65 102.904C162.498 102.752 162.422 102.568 162.422 102.352C162.422 102.136 162.498 101.952 162.65 101.8C162.802 101.648 162.986 101.572 163.202 101.572C163.426 101.572 163.61 101.648 163.754 101.8C163.906 101.952 163.982 102.136 163.982 102.352C163.982 102.568 163.906 102.752 163.754 102.904C163.61 103.056 163.426 103.132 163.202 103.132Z" fill="#1A1A1A"/>
<path d="M11.9581 126.748C11.7021 127.012 11.3861 127.144 11.0101 127.144C10.6341 127.144 10.3141 127.012 10.0501 126.748C9.78613 126.484 9.65413 126.164 9.65413 125.788C9.65413 125.412 9.78613 125.096 10.0501 124.84C10.3141 124.576 10.6341 124.444 11.0101 124.444C11.3861 124.444 11.7021 124.576 11.9581 124.84C12.2221 125.096 12.3541 125.412 12.3541 125.788C12.3541 126.164 12.2221 126.484 11.9581 126.748ZM26.276 121.6V122.656H23.792V130H22.688V122.656H20.216V121.6H26.276ZM30.2605 123.844C30.9645 123.844 31.5285 124.068 31.9525 124.516C32.3765 124.956 32.5885 125.556 32.5885 126.316V130H31.5445V126.376C31.5445 125.888 31.4125 125.512 31.1485 125.248C30.8845 124.976 30.5205 124.84 30.0565 124.84C29.5365 124.84 29.1165 125.004 28.7965 125.332C28.4765 125.652 28.3165 126.148 28.3165 126.82V130H27.2725V121.6H28.3165V124.864C28.7405 124.184 29.3885 123.844 30.2605 123.844ZM34.7779 127.48C34.8819 128.016 35.1259 128.432 35.5099 128.728C35.9019 129.024 36.3819 129.172 36.9499 129.172C37.7419 129.172 38.3179 128.88 38.6779 128.296L39.5659 128.8C38.9819 129.704 38.1019 130.156 36.9259 130.156C35.9739 130.156 35.1979 129.86 34.5979 129.268C34.0059 128.668 33.7099 127.912 33.7099 127C33.7099 126.096 34.0019 125.344 34.5859 124.744C35.1699 124.144 35.9259 123.844 36.8539 123.844C37.7339 123.844 38.4499 124.156 39.0019 124.78C39.5619 125.396 39.8419 126.14 39.8419 127.012C39.8419 127.164 39.8299 127.32 39.8059 127.48H34.7779ZM36.8539 124.828C36.2939 124.828 35.8299 124.988 35.4619 125.308C35.0939 125.62 34.8659 126.04 34.7779 126.568H38.7859C38.6979 126 38.4739 125.568 38.1139 125.272C37.7539 124.976 37.3339 124.828 36.8539 124.828ZM45.266 128.944H49.166V130H44.15V121.6H49.106V122.656H45.266V125.236H48.806V126.28H45.266V128.944ZM53.0964 130.156C52.1924 130.156 51.4404 129.856 50.8404 129.256C50.2404 128.648 49.9404 127.896 49.9404 127C49.9404 126.104 50.2404 125.356 50.8404 124.756C51.4404 124.148 52.1924 123.844 53.0964 123.844C53.6884 123.844 54.2204 123.988 54.6924 124.276C55.1644 124.556 55.5164 124.936 55.7484 125.416L54.8724 125.92C54.7204 125.6 54.4844 125.344 54.1644 125.152C53.8524 124.96 53.4964 124.864 53.0964 124.864C52.4964 124.864 51.9924 125.068 51.5844 125.476C51.1844 125.884 50.9844 126.392 50.9844 127C50.9844 127.6 51.1844 128.104 51.5844 128.512C51.9924 128.92 52.4964 129.124 53.0964 129.124C53.4964 129.124 53.8564 129.032 54.1764 128.848C54.4964 128.656 54.7404 128.4 54.9084 128.08L55.7964 128.596C55.5404 129.068 55.1724 129.448 54.6924 129.736C54.2124 130.016 53.6804 130.156 53.0964 130.156ZM59.8152 123.844C60.5192 123.844 61.0832 124.068 61.5072 124.516C61.9312 124.956 62.1432 125.556 62.1432 126.316V130H61.0992V126.376C61.0992 125.888 60.9672 125.512 60.7032 125.248C60.4392 124.976 60.0752 124.84 59.6112 124.84C59.0912 124.84 58.6712 125.004 58.3512 125.332C58.0312 125.652 57.8712 126.148 57.8712 126.82V130H56.8272V121.6H57.8712V124.864C58.2952 124.184 58.9432 123.844 59.8152 123.844ZM68.6646 129.244C68.0486 129.852 67.3006 130.156 66.4206 130.156C65.5406 130.156 64.7926 129.852 64.1766 129.244C63.5686 128.636 63.2646 127.888 63.2646 127C63.2646 126.112 63.5686 125.364 64.1766 124.756C64.7926 124.148 65.5406 123.844 66.4206 123.844C67.3006 123.844 68.0486 124.148 68.6646 124.756C69.2806 125.364 69.5886 126.112 69.5886 127C69.5886 127.888 69.2806 128.636 68.6646 129.244ZM66.4206 129.136C67.0206 129.136 67.5246 128.932 67.9326 128.524C68.3406 128.116 68.5446 127.608 68.5446 127C68.5446 126.392 68.3406 125.884 67.9326 125.476C67.5246 125.068 67.0206 124.864 66.4206 124.864C65.8286 124.864 65.3286 125.068 64.9206 125.476C64.5126 125.884 64.3086 126.392 64.3086 127C64.3086 127.608 64.5126 128.116 64.9206 128.524C65.3286 128.932 65.8286 129.136 66.4206 129.136ZM77.2033 121.6C78.3473 121.6 79.2953 122.008 80.0473 122.824C80.8073 123.632 81.1873 124.624 81.1873 125.8C81.1873 126.976 80.8073 127.972 80.0473 128.788C79.2953 129.596 78.3473 130 77.2033 130H73.9273V121.6H77.2033ZM77.2033 128.944C78.0593 128.944 78.7593 128.644 79.3033 128.044C79.8473 127.444 80.1193 126.696 80.1193 125.8C80.1193 124.904 79.8473 124.156 79.3033 123.556C78.7593 122.956 78.0593 122.656 77.2033 122.656H75.0433V128.944H77.2033ZM87.7679 130L87.0839 128.116H83.3039L82.6199 130H81.4319L84.5639 121.6H85.8239L88.9559 130H87.7679ZM83.6879 127.072H86.6999L85.1879 122.932L83.6879 127.072ZM96.6262 128.884C95.7862 129.732 94.7582 130.156 93.5422 130.156C92.3262 130.156 91.2982 129.732 90.4582 128.884C89.6182 128.036 89.1982 127.008 89.1982 125.8C89.1982 124.584 89.6182 123.556 90.4582 122.716C91.2982 121.868 92.3262 121.444 93.5422 121.444C94.7582 121.444 95.7862 121.868 96.6262 122.716C97.4742 123.556 97.8982 124.584 97.8982 125.8C97.8982 127.008 97.4742 128.036 96.6262 128.884ZM91.2262 128.128C91.8502 128.752 92.6222 129.064 93.5422 129.064C94.4622 129.064 95.2302 128.752 95.8462 128.128C96.4702 127.496 96.7822 126.72 96.7822 125.8C96.7822 124.872 96.4702 124.096 95.8462 123.472C95.2302 122.84 94.4622 122.524 93.5422 122.524C92.6222 122.524 91.8502 122.84 91.2262 123.472C90.6102 124.096 90.3022 124.872 90.3022 125.8C90.3022 126.72 90.6102 127.496 91.2262 128.128ZM105.12 123.844C105.824 123.844 106.388 124.068 106.812 124.516C107.236 124.956 107.448 125.556 107.448 126.316V130H106.404V126.376C106.404 125.888 106.272 125.512 106.008 125.248C105.744 124.976 105.38 124.84 104.916 124.84C104.396 124.84 103.976 125.004 103.656 125.332C103.336 125.652 103.176 126.148 103.176 126.82V130H102.132V121.6H103.176V124.864C103.6 124.184 104.248 123.844 105.12 123.844ZM113.873 124H114.917V130H113.873V128.968C113.353 129.76 112.597 130.156 111.605 130.156C110.765 130.156 110.049 129.852 109.457 129.244C108.865 128.628 108.569 127.88 108.569 127C108.569 126.12 108.865 125.376 109.457 124.768C110.049 124.152 110.765 123.844 111.605 123.844C112.597 123.844 113.353 124.24 113.873 125.032V124ZM111.737 129.148C112.345 129.148 112.853 128.944 113.261 128.536C113.669 128.12 113.873 127.608 113.873 127C113.873 126.392 113.669 125.884 113.261 125.476C112.853 125.06 112.345 124.852 111.737 124.852C111.137 124.852 110.633 125.06 110.225 125.476C109.817 125.884 109.613 126.392 109.613 127C109.613 127.608 109.817 128.12 110.225 128.536C110.633 128.944 111.137 129.148 111.737 129.148ZM117.387 125.62C117.387 125.852 117.503 126.04 117.735 126.184C117.967 126.32 118.247 126.432 118.575 126.52C118.903 126.6 119.231 126.696 119.559 126.808C119.887 126.912 120.167 127.096 120.399 127.36C120.631 127.616 120.747 127.948 120.747 128.356C120.747 128.9 120.535 129.336 120.111 129.664C119.695 129.992 119.159 130.156 118.503 130.156C117.919 130.156 117.419 130.028 117.003 129.772C116.587 129.516 116.291 129.176 116.115 128.752L117.015 128.236C117.111 128.524 117.291 128.752 117.555 128.92C117.819 129.088 118.135 129.172 118.503 129.172C118.847 129.172 119.131 129.108 119.355 128.98C119.579 128.844 119.691 128.636 119.691 128.356C119.691 128.124 119.575 127.94 119.343 127.804C119.111 127.66 118.831 127.548 118.503 127.468C118.175 127.38 117.847 127.28 117.519 127.168C117.191 127.056 116.911 126.872 116.679 126.616C116.447 126.36 116.331 126.032 116.331 125.632C116.331 125.112 116.531 124.684 116.931 124.348C117.339 124.012 117.847 123.844 118.455 123.844C118.943 123.844 119.375 123.956 119.751 124.18C120.135 124.396 120.423 124.7 120.615 125.092L119.739 125.584C119.523 125.072 119.095 124.816 118.455 124.816C118.159 124.816 117.907 124.888 117.699 125.032C117.491 125.168 117.387 125.364 117.387 125.62ZM129.951 124H130.995V130H129.951V128.968C129.431 129.76 128.675 130.156 127.683 130.156C126.843 130.156 126.127 129.852 125.535 129.244C124.943 128.628 124.647 127.88 124.647 127C124.647 126.12 124.943 125.376 125.535 124.768C126.127 124.152 126.843 123.844 127.683 123.844C128.675 123.844 129.431 124.24 129.951 125.032V124ZM127.815 129.148C128.423 129.148 128.931 128.944 129.339 128.536C129.747 128.12 129.951 127.608 129.951 127C129.951 126.392 129.747 125.884 129.339 125.476C128.931 125.06 128.423 124.852 127.815 124.852C127.215 124.852 126.711 125.06 126.303 125.476C125.895 125.884 125.691 126.392 125.691 127C125.691 127.608 125.895 128.12 126.303 128.536C126.711 128.944 127.215 129.148 127.815 129.148ZM135.397 130.156C134.493 130.156 133.741 129.856 133.141 129.256C132.541 128.648 132.241 127.896 132.241 127C132.241 126.104 132.541 125.356 133.141 124.756C133.741 124.148 134.493 123.844 135.397 123.844C135.989 123.844 136.521 123.988 136.993 124.276C137.465 124.556 137.817 124.936 138.049 125.416L137.173 125.92C137.021 125.6 136.785 125.344 136.465 125.152C136.153 124.96 135.797 124.864 135.397 124.864C134.797 124.864 134.293 125.068 133.885 125.476C133.485 125.884 133.285 126.392 133.285 127C133.285 127.6 133.485 128.104 133.885 128.512C134.293 128.92 134.797 129.124 135.397 129.124C135.797 129.124 136.157 129.032 136.477 128.848C136.797 128.656 137.041 128.4 137.209 128.08L138.097 128.596C137.841 129.068 137.473 129.448 136.993 129.736C136.513 130.016 135.981 130.156 135.397 130.156ZM144.014 124H145.058V132.4H144.014V128.968C143.494 129.76 142.738 130.156 141.746 130.156C140.906 130.156 140.19 129.852 139.598 129.244C139.006 128.628 138.71 127.88 138.71 127C138.71 126.12 139.006 125.376 139.598 124.768C140.19 124.152 140.906 123.844 141.746 123.844C142.738 123.844 143.494 124.24 144.014 125.032V124ZM141.878 129.148C142.486 129.148 142.994 128.944 143.402 128.536C143.81 128.12 144.014 127.608 144.014 127C144.014 126.392 143.81 125.884 143.402 125.476C142.994 125.06 142.486 124.852 141.878 124.852C141.278 124.852 140.774 125.06 140.366 125.476C139.958 125.884 139.754 126.392 139.754 127C139.754 127.608 139.958 128.12 140.366 128.536C140.774 128.944 141.278 129.148 141.878 129.148ZM150.78 124H151.824V130H150.78V129.136C150.356 129.816 149.708 130.156 148.836 130.156C148.132 130.156 147.568 129.936 147.144 129.496C146.72 129.048 146.508 128.444 146.508 127.684V124H147.552V127.624C147.552 128.112 147.684 128.492 147.948 128.764C148.212 129.028 148.576 129.16 149.04 129.16C149.56 129.16 149.98 129 150.3 128.68C150.62 128.352 150.78 127.852 150.78 127.18V124ZM153.941 122.908C153.741 122.908 153.573 122.84 153.437 122.704C153.301 122.568 153.233 122.404 153.233 122.212C153.233 122.02 153.301 121.856 153.437 121.72C153.573 121.576 153.741 121.504 153.941 121.504C154.133 121.504 154.297 121.576 154.433 121.72C154.569 121.856 154.637 122.02 154.637 122.212C154.637 122.404 154.569 122.568 154.433 122.704C154.297 122.84 154.133 122.908 153.941 122.908ZM153.413 130V124H154.457V130H153.413ZM157.094 125.008C157.438 124.264 158.062 123.892 158.966 123.892V124.984C158.454 124.96 158.014 125.096 157.646 125.392C157.278 125.688 157.094 126.164 157.094 126.82V130H156.05V124H157.094V125.008ZM160.391 127.48C160.495 128.016 160.739 128.432 161.123 128.728C161.515 129.024 161.995 129.172 162.563 129.172C163.355 129.172 163.931 128.88 164.291 128.296L165.179 128.8C164.595 129.704 163.715 130.156 162.539 130.156C161.587 130.156 160.811 129.86 160.211 129.268C159.619 128.668 159.323 127.912 159.323 127C159.323 126.096 159.615 125.344 160.199 124.744C160.783 124.144 161.539 123.844 162.467 123.844C163.347 123.844 164.063 124.156 164.615 124.78C165.175 125.396 165.455 126.14 165.455 127.012C165.455 127.164 165.443 127.32 165.419 127.48H160.391ZM162.467 124.828C161.907 124.828 161.443 124.988 161.075 125.308C160.707 125.62 160.479 126.04 160.391 126.568H164.399C164.311 126 164.087 125.568 163.727 125.272C163.367 124.976 162.947 124.828 162.467 124.828ZM171.612 121.6H172.656V130H171.612V128.968C171.092 129.76 170.336 130.156 169.344 130.156C168.504 130.156 167.788 129.852 167.196 129.244C166.604 128.628 166.308 127.88 166.308 127C166.308 126.12 166.604 125.376 167.196 124.768C167.788 124.152 168.504 123.844 169.344 123.844C170.336 123.844 171.092 124.24 171.612 125.032V121.6ZM169.476 129.148C170.084 129.148 170.592 128.944 171 128.536C171.408 128.12 171.612 127.608 171.612 127C171.612 126.392 171.408 125.884 171 125.476C170.592 125.06 170.084 124.852 169.476 124.852C168.876 124.852 168.372 125.06 167.964 125.476C167.556 125.884 167.352 126.392 167.352 127C167.352 127.608 167.556 128.12 167.964 128.536C168.372 128.944 168.876 129.148 169.476 129.148ZM177.237 130V121.24H178.281V130H177.237ZM184.842 124H185.886V130H184.842V128.968C184.322 129.76 183.566 130.156 182.574 130.156C181.734 130.156 181.018 129.852 180.426 129.244C179.834 128.628 179.538 127.88 179.538 127C179.538 126.12 179.834 125.376 180.426 124.768C181.018 124.152 181.734 123.844 182.574 123.844C183.566 123.844 184.322 124.24 184.842 125.032V124ZM182.706 129.148C183.314 129.148 183.822 128.944 184.23 128.536C184.638 128.12 184.842 127.608 184.842 127C184.842 126.392 184.638 125.884 184.23 125.476C183.822 125.06 183.314 124.852 182.706 124.852C182.106 124.852 181.602 125.06 181.194 125.476C180.786 125.884 180.582 126.392 180.582 127C180.582 127.608 180.786 128.12 181.194 128.536C181.602 128.944 182.106 129.148 182.706 129.148ZM190.456 123.844C191.16 123.844 191.724 124.068 192.148 124.516C192.572 124.956 192.784 125.556 192.784 126.316V130H191.74V126.376C191.74 125.888 191.608 125.512 191.344 125.248C191.08 124.976 190.716 124.84 190.252 124.84C189.732 124.84 189.312 125.004 188.992 125.332C188.672 125.652 188.512 126.148 188.512 126.82V130H187.468V124H188.512V124.864C188.936 124.184 189.584 123.844 190.456 123.844ZM199.209 121.6H200.253V130H199.209V128.968C198.689 129.76 197.933 130.156 196.941 130.156C196.101 130.156 195.385 129.852 194.793 129.244C194.201 128.628 193.905 127.88 193.905 127C193.905 126.12 194.201 125.376 194.793 124.768C195.385 124.152 196.101 123.844 196.941 123.844C197.933 123.844 198.689 124.24 199.209 125.032V121.6ZM197.073 129.148C197.681 129.148 198.189 128.944 198.597 128.536C199.005 128.12 199.209 127.608 199.209 127C199.209 126.392 199.005 125.884 198.597 125.476C198.189 125.06 197.681 124.852 197.073 124.852C196.473 124.852 195.969 125.06 195.561 125.476C195.153 125.884 194.949 126.392 194.949 127C194.949 127.608 195.153 128.12 195.561 128.536C195.969 128.944 196.473 129.148 197.073 129.148ZM209.899 129.244C209.283 129.852 208.535 130.156 207.655 130.156C206.775 130.156 206.027 129.852 205.411 129.244C204.803 128.636 204.499 127.888 204.499 127C204.499 126.112 204.803 125.364 205.411 124.756C206.027 124.148 206.775 123.844 207.655 123.844C208.535 123.844 209.283 124.148 209.899 124.756C210.515 125.364 210.823 126.112 210.823 127C210.823 127.888 210.515 128.636 209.899 129.244ZM207.655 129.136C208.255 129.136 208.759 128.932 209.167 128.524C209.575 128.116 209.779 127.608 209.779 127C209.779 126.392 209.575 125.884 209.167 125.476C208.759 125.068 208.255 124.864 207.655 124.864C207.063 124.864 206.563 125.068 206.155 125.476C205.747 125.884 205.543 126.392 205.543 127C205.543 127.608 205.747 128.116 206.155 128.524C206.563 128.932 207.063 129.136 207.655 129.136ZM215.042 123.844C215.746 123.844 216.31 124.068 216.734 124.516C217.158 124.956 217.37 125.556 217.37 126.316V130H216.326V126.376C216.326 125.888 216.194 125.512 215.93 125.248C215.666 124.976 215.302 124.84 214.838 124.84C214.318 124.84 213.898 125.004 213.578 125.332C213.258 125.652 213.098 126.148 213.098 126.82V130H212.054V124H213.098V124.864C213.522 124.184 214.17 123.844 215.042 123.844ZM224.263 124.504C225.103 124.504 225.795 124.768 226.339 125.296C226.883 125.816 227.155 126.492 227.155 127.324C227.155 128.156 226.883 128.836 226.339 129.364C225.795 129.892 225.103 130.156 224.263 130.156C223.415 130.156 222.719 129.892 222.175 129.364C221.639 128.836 221.371 128.156 221.371 127.324C221.371 126.676 221.539 126.116 221.875 125.644L224.575 121.6H225.847L223.867 124.528C224.043 124.512 224.175 124.504 224.263 124.504ZM222.967 128.608C223.303 128.928 223.735 129.088 224.263 129.088C224.791 129.088 225.219 128.928 225.547 128.608C225.883 128.28 226.051 127.852 226.051 127.324C226.051 126.796 225.883 126.372 225.547 126.052C225.219 125.732 224.791 125.572 224.263 125.572C223.727 125.572 223.295 125.732 222.967 126.052C222.639 126.372 222.475 126.796 222.475 127.324C222.475 127.852 222.639 128.28 222.967 128.608ZM25.856 147.244C25.24 147.852 24.492 148.156 23.612 148.156C22.732 148.156 21.984 147.852 21.368 147.244C20.76 146.636 20.456 145.888 20.456 145C20.456 144.112 20.76 143.364 21.368 142.756C21.984 142.148 22.732 141.844 23.612 141.844C24.492 141.844 25.24 142.148 25.856 142.756C26.472 143.364 26.78 144.112 26.78 145C26.78 145.888 26.472 146.636 25.856 147.244ZM23.612 147.136C24.212 147.136 24.716 146.932 25.124 146.524C25.532 146.116 25.736 145.608 25.736 145C25.736 144.392 25.532 143.884 25.124 143.476C24.716 143.068 24.212 142.864 23.612 142.864C23.02 142.864 22.52 143.068 22.112 143.476C21.704 143.884 21.5 144.392 21.5 145C21.5 145.608 21.704 146.116 22.112 146.524C22.52 146.932 23.02 147.136 23.612 147.136ZM30.8721 140.452C29.8161 140.364 29.2881 140.82 29.2881 141.82V142H30.8721V143.008H29.2881V148H28.2441V143.008H27.2841V142H28.2441V141.82C28.2441 141.012 28.4681 140.4 28.9161 139.984C29.3721 139.568 30.0241 139.388 30.8721 139.444V140.452ZM37.931 143.008H36.335V146.26C36.335 146.556 36.391 146.768 36.503 146.896C36.623 147.016 36.803 147.08 37.043 147.088C37.283 147.088 37.579 147.08 37.931 147.064V148C37.019 148.12 36.351 148.048 35.927 147.784C35.503 147.512 35.291 147.004 35.291 146.26V143.008H34.103V142H35.291V140.632L36.335 140.32V142H37.931V143.008ZM42.155 141.844C42.859 141.844 43.423 142.068 43.847 142.516C44.271 142.956 44.483 143.556 44.483 144.316V148H43.439V144.376C43.439 143.888 43.307 143.512 43.043 143.248C42.779 142.976 42.415 142.84 41.951 142.84C41.431 142.84 41.011 143.004 40.691 143.332C40.371 143.652 40.211 144.148 40.211 144.82V148H39.167V139.6H40.211V142.864C40.635 142.184 41.283 141.844 42.155 141.844ZM46.6724 145.48C46.7764 146.016 47.0204 146.432 47.4044 146.728C47.7964 147.024 48.2764 147.172 48.8444 147.172C49.6364 147.172 50.2124 146.88 50.5724 146.296L51.4604 146.8C50.8764 147.704 49.9964 148.156 48.8204 148.156C47.8684 148.156 47.0924 147.86 46.4924 147.268C45.9004 146.668 45.6044 145.912 45.6044 145C45.6044 144.096 45.8964 143.344 46.4804 142.744C47.0644 142.144 47.8204 141.844 48.7484 141.844C49.6284 141.844 50.3444 142.156 50.8964 142.78C51.4564 143.396 51.7364 144.14 51.7364 145.012C51.7364 145.164 51.7244 145.32 51.7004 145.48H46.6724ZM48.7484 142.828C48.1884 142.828 47.7244 142.988 47.3564 143.308C46.9884 143.62 46.7604 144.04 46.6724 144.568H50.6804C50.5924 144 50.3684 143.568 50.0084 143.272C49.6484 142.976 49.2284 142.828 48.7484 142.828ZM61.0005 147.244C60.3845 147.852 59.6365 148.156 58.7565 148.156C57.8765 148.156 57.1285 147.852 56.5125 147.244C55.9045 146.636 55.6005 145.888 55.6005 145C55.6005 144.112 55.9045 143.364 56.5125 142.756C57.1285 142.148 57.8765 141.844 58.7565 141.844C59.6365 141.844 60.3845 142.148 61.0005 142.756C61.6165 143.364 61.9245 144.112 61.9245 145C61.9245 145.888 61.6165 146.636 61.0005 147.244ZM58.7565 147.136C59.3565 147.136 59.8605 146.932 60.2685 146.524C60.6765 146.116 60.8805 145.608 60.8805 145C60.8805 144.392 60.6765 143.884 60.2685 143.476C59.8605 143.068 59.3565 142.864 58.7565 142.864C58.1645 142.864 57.6645 143.068 57.2565 143.476C56.8485 143.884 56.6445 144.392 56.6445 145C56.6445 145.608 56.8485 146.116 57.2565 146.524C57.6645 146.932 58.1645 147.136 58.7565 147.136ZM65.9753 148.156C65.0713 148.156 64.3193 147.856 63.7193 147.256C63.1193 146.648 62.8193 145.896 62.8193 145C62.8193 144.104 63.1193 143.356 63.7193 142.756C64.3193 142.148 65.0713 141.844 65.9753 141.844C66.5673 141.844 67.0993 141.988 67.5713 142.276C68.0433 142.556 68.3953 142.936 68.6273 143.416L67.7513 143.92C67.5993 143.6 67.3633 143.344 67.0433 143.152C66.7313 142.96 66.3753 142.864 65.9753 142.864C65.3753 142.864 64.8713 143.068 64.4633 143.476C64.0633 143.884 63.8633 144.392 63.8633 145C63.8633 145.6 64.0633 146.104 64.4633 146.512C64.8713 146.92 65.3753 147.124 65.9753 147.124C66.3753 147.124 66.7353 147.032 67.0553 146.848C67.3753 146.656 67.6193 146.4 67.7873 146.08L68.6753 146.596C68.4193 147.068 68.0513 147.448 67.5713 147.736C67.0913 148.016 66.5593 148.156 65.9753 148.156ZM72.444 148.156C71.54 148.156 70.788 147.856 70.188 147.256C69.588 146.648 69.288 145.896 69.288 145C69.288 144.104 69.588 143.356 70.188 142.756C70.788 142.148 71.54 141.844 72.444 141.844C73.036 141.844 73.568 141.988 74.04 142.276C74.512 142.556 74.864 142.936 75.096 143.416L74.22 143.92C74.068 143.6 73.832 143.344 73.512 143.152C73.2 142.96 72.844 142.864 72.444 142.864C71.844 142.864 71.34 143.068 70.932 143.476C70.532 143.884 70.332 144.392 70.332 145C70.332 145.6 70.532 146.104 70.932 146.512C71.34 146.92 71.844 147.124 72.444 147.124C72.844 147.124 73.204 147.032 73.524 146.848C73.844 146.656 74.088 146.4 74.256 146.08L75.144 146.596C74.888 147.068 74.52 147.448 74.04 147.736C73.56 148.016 73.028 148.156 72.444 148.156ZM80.3265 142H81.3705V148H80.3265V147.136C79.9025 147.816 79.2545 148.156 78.3825 148.156C77.6785 148.156 77.1145 147.936 76.6905 147.496C76.2665 147.048 76.0545 146.444 76.0545 145.684V142H77.0985V145.624C77.0985 146.112 77.2305 146.492 77.4945 146.764C77.7585 147.028 78.1225 147.16 78.5865 147.16C79.1065 147.16 79.5265 147 79.8465 146.68C80.1665 146.352 80.3265 145.852 80.3265 145.18V142ZM86.272 141.844C87.112 141.844 87.828 142.152 88.42 142.768C89.012 143.376 89.308 144.12 89.308 145C89.308 145.88 89.012 146.628 88.42 147.244C87.828 147.852 87.112 148.156 86.272 148.156C85.28 148.156 84.524 147.76 84.004 146.968V150.4H82.96V142H84.004V143.032C84.524 142.24 85.28 141.844 86.272 141.844ZM86.14 147.148C86.74 147.148 87.244 146.944 87.652 146.536C88.06 146.12 88.264 145.608 88.264 145C88.264 144.392 88.06 143.884 87.652 143.476C87.244 143.06 86.74 142.852 86.14 142.852C85.532 142.852 85.024 143.06 84.616 143.476C84.208 143.884 84.004 144.392 84.004 145C84.004 145.608 84.208 146.12 84.616 146.536C85.024 146.944 85.532 147.148 86.14 147.148ZM91.0817 140.908C90.8817 140.908 90.7137 140.84 90.5777 140.704C90.4417 140.568 90.3737 140.404 90.3737 140.212C90.3737 140.02 90.4417 139.856 90.5777 139.72C90.7137 139.576 90.8817 139.504 91.0817 139.504C91.2737 139.504 91.4377 139.576 91.5737 139.72C91.7097 139.856 91.7777 140.02 91.7777 140.212C91.7777 140.404 91.7097 140.568 91.5737 140.704C91.4377 140.84 91.2737 140.908 91.0817 140.908ZM90.5537 148V142H91.5977V148H90.5537ZM93.9224 145.48C94.0264 146.016 94.2704 146.432 94.6544 146.728C95.0464 147.024 95.5264 147.172 96.0944 147.172C96.8864 147.172 97.4624 146.88 97.8224 146.296L98.7104 146.8C98.1264 147.704 97.2464 148.156 96.0704 148.156C95.1184 148.156 94.3424 147.86 93.7424 147.268C93.1504 146.668 92.8544 145.912 92.8544 145C92.8544 144.096 93.1464 143.344 93.7304 142.744C94.3144 142.144 95.0704 141.844 95.9984 141.844C96.8784 141.844 97.5944 142.156 98.1464 142.78C98.7064 143.396 98.9864 144.14 98.9864 145.012C98.9864 145.164 98.9744 145.32 98.9504 145.48H93.9224ZM95.9984 142.828C95.4384 142.828 94.9744 142.988 94.6064 143.308C94.2384 143.62 94.0104 144.04 93.9224 144.568H97.9304C97.8424 144 97.6184 143.568 97.2584 143.272C96.8984 142.976 96.4784 142.828 95.9984 142.828ZM105.143 139.6H106.187V148H105.143V146.968C104.623 147.76 103.867 148.156 102.875 148.156C102.035 148.156 101.319 147.852 100.727 147.244C100.135 146.628 99.8388 145.88 99.8388 145C99.8388 144.12 100.135 143.376 100.727 142.768C101.319 142.152 102.035 141.844 102.875 141.844C103.867 141.844 104.623 142.24 105.143 143.032V139.6ZM103.007 147.148C103.615 147.148 104.123 146.944 104.531 146.536C104.939 146.12 105.143 145.608 105.143 145C105.143 144.392 104.939 143.884 104.531 143.476C104.123 143.06 103.615 142.852 103.007 142.852C102.407 142.852 101.903 143.06 101.495 143.476C101.087 143.884 100.883 144.392 100.883 145C100.883 145.608 101.087 146.12 101.495 146.536C101.903 146.944 102.407 147.148 103.007 147.148ZM113.589 148.156C112.685 148.156 111.933 147.856 111.333 147.256C110.733 146.648 110.433 145.896 110.433 145C110.433 144.104 110.733 143.356 111.333 142.756C111.933 142.148 112.685 141.844 113.589 141.844C114.181 141.844 114.713 141.988 115.185 142.276C115.657 142.556 116.009 142.936 116.241 143.416L115.365 143.92C115.213 143.6 114.977 143.344 114.657 143.152C114.345 142.96 113.989 142.864 113.589 142.864C112.989 142.864 112.485 143.068 112.077 143.476C111.677 143.884 111.477 144.392 111.477 145C111.477 145.6 111.677 146.104 112.077 146.512C112.485 146.92 112.989 147.124 113.589 147.124C113.989 147.124 114.349 147.032 114.669 146.848C114.989 146.656 115.233 146.4 115.401 146.08L116.289 146.596C116.033 147.068 115.665 147.448 115.185 147.736C114.705 148.016 114.173 148.156 113.589 148.156ZM122.301 147.244C121.685 147.852 120.937 148.156 120.057 148.156C119.177 148.156 118.429 147.852 117.813 147.244C117.205 146.636 116.901 145.888 116.901 145C116.901 144.112 117.205 143.364 117.813 142.756C118.429 142.148 119.177 141.844 120.057 141.844C120.937 141.844 121.685 142.148 122.301 142.756C122.917 143.364 123.225 144.112 123.225 145C123.225 145.888 122.917 146.636 122.301 147.244ZM120.057 147.136C120.657 147.136 121.161 146.932 121.569 146.524C121.977 146.116 122.181 145.608 122.181 145C122.181 144.392 121.977 143.884 121.569 143.476C121.161 143.068 120.657 142.864 120.057 142.864C119.465 142.864 118.965 143.068 118.557 143.476C118.149 143.884 117.945 144.392 117.945 145C117.945 145.608 118.149 146.116 118.557 146.524C118.965 146.932 119.465 147.136 120.057 147.136ZM127.444 141.844C128.148 141.844 128.712 142.068 129.136 142.516C129.56 142.956 129.772 143.556 129.772 144.316V148H128.728V144.376C128.728 143.888 128.596 143.512 128.332 143.248C128.068 142.976 127.704 142.84 127.24 142.84C126.72 142.84 126.3 143.004 125.98 143.332C125.66 143.652 125.5 144.148 125.5 144.82V148H124.456V142H125.5V142.864C125.924 142.184 126.572 141.844 127.444 141.844ZM134.494 143.008H132.898V146.26C132.898 146.556 132.954 146.768 133.066 146.896C133.186 147.016 133.366 147.08 133.605 147.088C133.845 147.088 134.142 147.08 134.494 147.064V148C133.582 148.12 132.914 148.048 132.49 147.784C132.066 147.512 131.854 147.004 131.854 146.26V143.008H130.666V142H131.854V140.632L132.898 140.32V142H134.494V143.008ZM136.258 140.908C136.058 140.908 135.89 140.84 135.754 140.704C135.618 140.568 135.55 140.404 135.55 140.212C135.55 140.02 135.618 139.856 135.754 139.72C135.89 139.576 136.058 139.504 136.258 139.504C136.45 139.504 136.614 139.576 136.75 139.72C136.886 139.856 136.954 140.02 136.954 140.212C136.954 140.404 136.886 140.568 136.75 140.704C136.614 140.84 136.45 140.908 136.258 140.908ZM135.729 148V142H136.774V148H135.729ZM141.354 141.844C142.058 141.844 142.622 142.068 143.046 142.516C143.47 142.956 143.682 143.556 143.682 144.316V148H142.638V144.376C142.638 143.888 142.506 143.512 142.242 143.248C141.978 142.976 141.614 142.84 141.15 142.84C140.63 142.84 140.21 143.004 139.89 143.332C139.57 143.652 139.41 144.148 139.41 144.82V148H138.366V142H139.41V142.864C139.834 142.184 140.482 141.844 141.354 141.844ZM145.872 145.48C145.976 146.016 146.22 146.432 146.604 146.728C146.996 147.024 147.476 147.172 148.044 147.172C148.836 147.172 149.412 146.88 149.772 146.296L150.66 146.8C150.076 147.704 149.196 148.156 148.02 148.156C147.068 148.156 146.292 147.86 145.692 147.268C145.1 146.668 144.804 145.912 144.804 145C144.804 144.096 145.096 143.344 145.68 142.744C146.264 142.144 147.02 141.844 147.948 141.844C148.828 141.844 149.544 142.156 150.096 142.78C150.656 143.396 150.936 144.14 150.936 145.012C150.936 145.164 150.924 145.32 150.9 145.48H145.872ZM147.948 142.828C147.388 142.828 146.924 142.988 146.556 143.308C146.188 143.62 145.96 144.04 145.872 144.568H149.88C149.792 144 149.568 143.568 149.208 143.272C148.848 142.976 148.428 142.828 147.948 142.828ZM155.124 141.844C155.828 141.844 156.392 142.068 156.816 142.516C157.24 142.956 157.452 143.556 157.452 144.316V148H156.408V144.376C156.408 143.888 156.276 143.512 156.012 143.248C155.748 142.976 155.384 142.84 154.92 142.84C154.4 142.84 153.98 143.004 153.66 143.332C153.34 143.652 153.18 144.148 153.18 144.82V148H152.136V142H153.18V142.864C153.604 142.184 154.252 141.844 155.124 141.844ZM162.173 143.008H160.577V146.26C160.577 146.556 160.633 146.768 160.745 146.896C160.865 147.016 161.045 147.08 161.285 147.088C161.525 147.088 161.821 147.08 162.173 147.064V148C161.261 148.12 160.593 148.048 160.169 147.784C159.745 147.512 159.533 147.004 159.533 146.26V143.008H158.345V142H159.533V140.632L160.577 140.32V142H162.173V143.008ZM164.016 143.62C164.016 143.852 164.132 144.04 164.364 144.184C164.596 144.32 164.876 144.432 165.204 144.52C165.532 144.6 165.86 144.696 166.188 144.808C166.516 144.912 166.796 145.096 167.028 145.36C167.26 145.616 167.376 145.948 167.376 146.356C167.376 146.9 167.164 147.336 166.74 147.664C166.324 147.992 165.788 148.156 165.132 148.156C164.548 148.156 164.048 148.028 163.632 147.772C163.216 147.516 162.92 147.176 162.744 146.752L163.644 146.236C163.74 146.524 163.92 146.752 164.184 146.92C164.448 147.088 164.764 147.172 165.132 147.172C165.476 147.172 165.76 147.108 165.984 146.98C166.208 146.844 166.32 146.636 166.32 146.356C166.32 146.124 166.204 145.94 165.972 145.804C165.74 145.66 165.46 145.548 165.132 145.468C164.804 145.38 164.476 145.28 164.148 145.168C163.82 145.056 163.54 144.872 163.308 144.616C163.076 144.36 162.96 144.032 162.96 143.632C162.96 143.112 163.16 142.684 163.56 142.348C163.968 142.012 164.476 141.844 165.084 141.844C165.572 141.844 166.004 141.956 166.38 142.18C166.764 142.396 167.052 142.7 167.244 143.092L166.368 143.584C166.152 143.072 165.724 142.816 165.084 142.816C164.788 142.816 164.536 142.888 164.328 143.032C164.12 143.168 164.016 143.364 164.016 143.62ZM169.143 148.132C168.927 148.132 168.743 148.056 168.591 147.904C168.439 147.752 168.363 147.568 168.363 147.352C168.363 147.136 168.439 146.952 168.591 146.8C168.743 146.648 168.927 146.572 169.143 146.572C169.367 146.572 169.551 146.648 169.695 146.8C169.847 146.952 169.923 147.136 169.923 147.352C169.923 147.568 169.847 147.752 169.695 147.904C169.551 148.056 169.367 148.132 169.143 148.132Z" fill="#1A1A1A"/>
</svg>
