<svg width="198" height="179" viewBox="0 0 239 218" fill="none" xmlns="http://www.w3.org/2000/svg">
<g style="mix-blend-mode:multiply">
<path d="M0 34.2271H99.912L119.631 0L139.088 34.2271H239V218H0V34.2271Z" fill="#D1EACB"/>
</g>
<path d="M13.9581 69.748C13.7021 70.012 13.3861 70.144 13.0101 70.144C12.6341 70.144 12.3141 70.012 12.0501 69.748C11.7861 69.484 11.6541 69.164 11.6541 68.788C11.6541 68.412 11.7861 68.096 12.0501 67.84C12.3141 67.576 12.6341 67.444 13.0101 67.444C13.3861 67.444 13.7021 67.576 13.9581 67.84C14.2221 68.096 14.3541 68.412 14.3541 68.788C14.3541 69.164 14.2221 69.484 13.9581 69.748ZM28.276 64.6V65.656H25.792V73H24.688V65.656H22.216V64.6H28.276ZM32.2605 66.844C32.9645 66.844 33.5285 67.068 33.9525 67.516C34.3765 67.956 34.5885 68.556 34.5885 69.316V73H33.5445V69.376C33.5445 68.888 33.4125 68.512 33.1485 68.248C32.8845 67.976 32.5205 67.84 32.0565 67.84C31.5365 67.84 31.1165 68.004 30.7965 68.332C30.4765 68.652 30.3165 69.148 30.3165 69.82V73H29.2725V64.6H30.3165V67.864C30.7405 67.184 31.3885 66.844 32.2605 66.844ZM36.7779 70.48C36.8819 71.016 37.1259 71.432 37.5099 71.728C37.9019 72.024 38.3819 72.172 38.9499 72.172C39.7419 72.172 40.3179 71.88 40.6779 71.296L41.5659 71.8C40.9819 72.704 40.1019 73.156 38.9259 73.156C37.9739 73.156 37.1979 72.86 36.5979 72.268C36.0059 71.668 35.7099 70.912 35.7099 70C35.7099 69.096 36.0019 68.344 36.5859 67.744C37.1699 67.144 37.9259 66.844 38.8539 66.844C39.7339 66.844 40.4499 67.156 41.0019 67.78C41.5619 68.396 41.8419 69.14 41.8419 70.012C41.8419 70.164 41.8299 70.32 41.8059 70.48H36.7779ZM38.8539 67.828C38.2939 67.828 37.8299 67.988 37.4619 68.308C37.0939 68.62 36.8659 69.04 36.7779 69.568H40.7859C40.6979 69 40.4739 68.568 40.1139 68.272C39.7539 67.976 39.3339 67.828 38.8539 67.828ZM47.266 71.944H51.166V73H46.15V64.6H51.106V65.656H47.266V68.236H50.806V69.28H47.266V71.944ZM55.0964 73.156C54.1924 73.156 53.4404 72.856 52.8404 72.256C52.2404 71.648 51.9404 70.896 51.9404 70C51.9404 69.104 52.2404 68.356 52.8404 67.756C53.4404 67.148 54.1924 66.844 55.0964 66.844C55.6884 66.844 56.2204 66.988 56.6924 67.276C57.1644 67.556 57.5164 67.936 57.7484 68.416L56.8724 68.92C56.7204 68.6 56.4844 68.344 56.1644 68.152C55.8524 67.96 55.4964 67.864 55.0964 67.864C54.4964 67.864 53.9924 68.068 53.5844 68.476C53.1844 68.884 52.9844 69.392 52.9844 70C52.9844 70.6 53.1844 71.104 53.5844 71.512C53.9924 71.92 54.4964 72.124 55.0964 72.124C55.4964 72.124 55.8564 72.032 56.1764 71.848C56.4964 71.656 56.7404 71.4 56.9084 71.08L57.7964 71.596C57.5404 72.068 57.1724 72.448 56.6924 72.736C56.2124 73.016 55.6804 73.156 55.0964 73.156ZM61.8152 66.844C62.5192 66.844 63.0832 67.068 63.5072 67.516C63.9312 67.956 64.1432 68.556 64.1432 69.316V73H63.0992V69.376C63.0992 68.888 62.9672 68.512 62.7032 68.248C62.4392 67.976 62.0752 67.84 61.6112 67.84C61.0912 67.84 60.6712 68.004 60.3512 68.332C60.0312 68.652 59.8712 69.148 59.8712 69.82V73H58.8272V64.6H59.8712V67.864C60.2952 67.184 60.9432 66.844 61.8152 66.844ZM70.6646 72.244C70.0486 72.852 69.3006 73.156 68.4206 73.156C67.5406 73.156 66.7926 72.852 66.1766 72.244C65.5686 71.636 65.2646 70.888 65.2646 70C65.2646 69.112 65.5686 68.364 66.1766 67.756C66.7926 67.148 67.5406 66.844 68.4206 66.844C69.3006 66.844 70.0486 67.148 70.6646 67.756C71.2806 68.364 71.5886 69.112 71.5886 70C71.5886 70.888 71.2806 71.636 70.6646 72.244ZM68.4206 72.136C69.0206 72.136 69.5246 71.932 69.9326 71.524C70.3406 71.116 70.5446 70.608 70.5446 70C70.5446 69.392 70.3406 68.884 69.9326 68.476C69.5246 68.068 69.0206 67.864 68.4206 67.864C67.8286 67.864 67.3286 68.068 66.9206 68.476C66.5126 68.884 66.3086 69.392 66.3086 70C66.3086 70.608 66.5126 71.116 66.9206 71.524C67.3286 71.932 67.8286 72.136 68.4206 72.136ZM79.2033 64.6C80.3473 64.6 81.2953 65.008 82.0473 65.824C82.8073 66.632 83.1873 67.624 83.1873 68.8C83.1873 69.976 82.8073 70.972 82.0473 71.788C81.2953 72.596 80.3473 73 79.2033 73H75.9273V64.6H79.2033ZM79.2033 71.944C80.0593 71.944 80.7593 71.644 81.3033 71.044C81.8473 70.444 82.1193 69.696 82.1193 68.8C82.1193 67.904 81.8473 67.156 81.3033 66.556C80.7593 65.956 80.0593 65.656 79.2033 65.656H77.0433V71.944H79.2033ZM89.7679 73L89.0839 71.116H85.3039L84.6199 73H83.4319L86.5639 64.6H87.8239L90.9559 73H89.7679ZM85.6879 70.072H88.6999L87.1879 65.932L85.6879 70.072ZM98.6262 71.884C97.7862 72.732 96.7582 73.156 95.5422 73.156C94.3262 73.156 93.2982 72.732 92.4582 71.884C91.6182 71.036 91.1982 70.008 91.1982 68.8C91.1982 67.584 91.6182 66.556 92.4582 65.716C93.2982 64.868 94.3262 64.444 95.5422 64.444C96.7582 64.444 97.7862 64.868 98.6262 65.716C99.4742 66.556 99.8982 67.584 99.8982 68.8C99.8982 70.008 99.4742 71.036 98.6262 71.884ZM93.2262 71.128C93.8502 71.752 94.6222 72.064 95.5422 72.064C96.4622 72.064 97.2302 71.752 97.8462 71.128C98.4702 70.496 98.7822 69.72 98.7822 68.8C98.7822 67.872 98.4702 67.096 97.8462 66.472C97.2302 65.84 96.4622 65.524 95.5422 65.524C94.6222 65.524 93.8502 65.84 93.2262 66.472C92.6102 67.096 92.3022 67.872 92.3022 68.8C92.3022 69.72 92.6102 70.496 93.2262 71.128ZM107.12 66.844C107.824 66.844 108.388 67.068 108.812 67.516C109.236 67.956 109.448 68.556 109.448 69.316V73H108.404V69.376C108.404 68.888 108.272 68.512 108.008 68.248C107.744 67.976 107.38 67.84 106.916 67.84C106.396 67.84 105.976 68.004 105.656 68.332C105.336 68.652 105.176 69.148 105.176 69.82V73H104.132V64.6H105.176V67.864C105.6 67.184 106.248 66.844 107.12 66.844ZM115.873 67H116.917V73H115.873V71.968C115.353 72.76 114.597 73.156 113.605 73.156C112.765 73.156 112.049 72.852 111.457 72.244C110.865 71.628 110.569 70.88 110.569 70C110.569 69.12 110.865 68.376 111.457 67.768C112.049 67.152 112.765 66.844 113.605 66.844C114.597 66.844 115.353 67.24 115.873 68.032V67ZM113.737 72.148C114.345 72.148 114.853 71.944 115.261 71.536C115.669 71.12 115.873 70.608 115.873 70C115.873 69.392 115.669 68.884 115.261 68.476C114.853 68.06 114.345 67.852 113.737 67.852C113.137 67.852 112.633 68.06 112.225 68.476C111.817 68.884 111.613 69.392 111.613 70C111.613 70.608 111.817 71.12 112.225 71.536C112.633 71.944 113.137 72.148 113.737 72.148ZM119.387 68.62C119.387 68.852 119.503 69.04 119.735 69.184C119.967 69.32 120.247 69.432 120.575 69.52C120.903 69.6 121.231 69.696 121.559 69.808C121.887 69.912 122.167 70.096 122.399 70.36C122.631 70.616 122.747 70.948 122.747 71.356C122.747 71.9 122.535 72.336 122.111 72.664C121.695 72.992 121.159 73.156 120.503 73.156C119.919 73.156 119.419 73.028 119.003 72.772C118.587 72.516 118.291 72.176 118.115 71.752L119.015 71.236C119.111 71.524 119.291 71.752 119.555 71.92C119.819 72.088 120.135 72.172 120.503 72.172C120.847 72.172 121.131 72.108 121.355 71.98C121.579 71.844 121.691 71.636 121.691 71.356C121.691 71.124 121.575 70.94 121.343 70.804C121.111 70.66 120.831 70.548 120.503 70.468C120.175 70.38 119.847 70.28 119.519 70.168C119.191 70.056 118.911 69.872 118.679 69.616C118.447 69.36 118.331 69.032 118.331 68.632C118.331 68.112 118.531 67.684 118.931 67.348C119.339 67.012 119.847 66.844 120.455 66.844C120.943 66.844 121.375 66.956 121.751 67.18C122.135 67.396 122.423 67.7 122.615 68.092L121.739 68.584C121.523 68.072 121.095 67.816 120.455 67.816C120.159 67.816 119.907 67.888 119.699 68.032C119.491 68.168 119.387 68.364 119.387 68.62ZM127.883 68.62C127.883 68.852 127.999 69.04 128.231 69.184C128.463 69.32 128.743 69.432 129.071 69.52C129.399 69.6 129.727 69.696 130.055 69.808C130.383 69.912 130.663 70.096 130.895 70.36C131.127 70.616 131.243 70.948 131.243 71.356C131.243 71.9 131.031 72.336 130.607 72.664C130.191 72.992 129.655 73.156 128.999 73.156C128.415 73.156 127.915 73.028 127.499 72.772C127.083 72.516 126.787 72.176 126.611 71.752L127.511 71.236C127.607 71.524 127.787 71.752 128.051 71.92C128.315 72.088 128.631 72.172 128.999 72.172C129.343 72.172 129.627 72.108 129.851 71.98C130.075 71.844 130.187 71.636 130.187 71.356C130.187 71.124 130.071 70.94 129.839 70.804C129.607 70.66 129.327 70.548 128.999 70.468C128.671 70.38 128.343 70.28 128.015 70.168C127.687 70.056 127.407 69.872 127.175 69.616C126.943 69.36 126.827 69.032 126.827 68.632C126.827 68.112 127.027 67.684 127.427 67.348C127.835 67.012 128.343 66.844 128.951 66.844C129.439 66.844 129.871 66.956 130.247 67.18C130.631 67.396 130.919 67.7 131.111 68.092L130.235 68.584C130.019 68.072 129.591 67.816 128.951 67.816C128.655 67.816 128.403 67.888 128.195 68.032C127.987 68.168 127.883 68.364 127.883 68.62ZM136.561 67H137.605V73H136.561V72.136C136.137 72.816 135.489 73.156 134.617 73.156C133.913 73.156 133.349 72.936 132.925 72.496C132.501 72.048 132.289 71.444 132.289 70.684V67H133.333V70.624C133.333 71.112 133.465 71.492 133.729 71.764C133.993 72.028 134.357 72.16 134.821 72.16C135.341 72.16 135.761 72 136.081 71.68C136.401 71.352 136.561 70.852 136.561 70.18V67ZM142.014 73.156C141.11 73.156 140.358 72.856 139.758 72.256C139.158 71.648 138.858 70.896 138.858 70C138.858 69.104 139.158 68.356 139.758 67.756C140.358 67.148 141.11 66.844 142.014 66.844C142.606 66.844 143.138 66.988 143.61 67.276C144.082 67.556 144.434 67.936 144.666 68.416L143.79 68.92C143.638 68.6 143.402 68.344 143.082 68.152C142.77 67.96 142.414 67.864 142.014 67.864C141.414 67.864 140.91 68.068 140.502 68.476C140.102 68.884 139.902 69.392 139.902 70C139.902 70.6 140.102 71.104 140.502 71.512C140.91 71.92 141.414 72.124 142.014 72.124C142.414 72.124 142.774 72.032 143.094 71.848C143.414 71.656 143.658 71.4 143.826 71.08L144.714 71.596C144.458 72.068 144.09 72.448 143.61 72.736C143.13 73.016 142.598 73.156 142.014 73.156ZM148.483 73.156C147.579 73.156 146.827 72.856 146.227 72.256C145.627 71.648 145.327 70.896 145.327 70C145.327 69.104 145.627 68.356 146.227 67.756C146.827 67.148 147.579 66.844 148.483 66.844C149.075 66.844 149.607 66.988 150.079 67.276C150.551 67.556 150.903 67.936 151.135 68.416L150.259 68.92C150.107 68.6 149.871 68.344 149.551 68.152C149.239 67.96 148.883 67.864 148.483 67.864C147.883 67.864 147.379 68.068 146.971 68.476C146.571 68.884 146.371 69.392 146.371 70C146.371 70.6 146.571 71.104 146.971 71.512C147.379 71.92 147.883 72.124 148.483 72.124C148.883 72.124 149.243 72.032 149.563 71.848C149.883 71.656 150.127 71.4 150.295 71.08L151.183 71.596C150.927 72.068 150.559 72.448 150.079 72.736C149.599 73.016 149.067 73.156 148.483 73.156ZM152.864 70.48C152.968 71.016 153.212 71.432 153.596 71.728C153.988 72.024 154.468 72.172 155.036 72.172C155.828 72.172 156.404 71.88 156.764 71.296L157.652 71.8C157.068 72.704 156.188 73.156 155.012 73.156C154.06 73.156 153.284 72.86 152.684 72.268C152.092 71.668 151.796 70.912 151.796 70C151.796 69.096 152.088 68.344 152.672 67.744C153.256 67.144 154.012 66.844 154.94 66.844C155.82 66.844 156.536 67.156 157.088 67.78C157.648 68.396 157.928 69.14 157.928 70.012C157.928 70.164 157.916 70.32 157.892 70.48H152.864ZM154.94 67.828C154.38 67.828 153.916 67.988 153.548 68.308C153.18 68.62 152.952 69.04 152.864 69.568H156.872C156.784 69 156.56 68.568 156.2 68.272C155.84 67.976 155.42 67.828 154.94 67.828ZM159.794 68.62C159.794 68.852 159.91 69.04 160.142 69.184C160.374 69.32 160.654 69.432 160.982 69.52C161.31 69.6 161.638 69.696 161.966 69.808C162.294 69.912 162.574 70.096 162.806 70.36C163.038 70.616 163.154 70.948 163.154 71.356C163.154 71.9 162.942 72.336 162.518 72.664C162.102 72.992 161.566 73.156 160.91 73.156C160.326 73.156 159.826 73.028 159.41 72.772C158.994 72.516 158.698 72.176 158.522 71.752L159.422 71.236C159.518 71.524 159.698 71.752 159.962 71.92C160.226 72.088 160.542 72.172 160.91 72.172C161.254 72.172 161.538 72.108 161.762 71.98C161.986 71.844 162.098 71.636 162.098 71.356C162.098 71.124 161.982 70.94 161.75 70.804C161.518 70.66 161.238 70.548 160.91 70.468C160.582 70.38 160.254 70.28 159.926 70.168C159.598 70.056 159.318 69.872 159.086 69.616C158.854 69.36 158.738 69.032 158.738 68.632C158.738 68.112 158.938 67.684 159.338 67.348C159.746 67.012 160.254 66.844 160.862 66.844C161.35 66.844 161.782 66.956 162.158 67.18C162.542 67.396 162.83 67.7 163.022 68.092L162.146 68.584C161.93 68.072 161.502 67.816 160.862 67.816C160.566 67.816 160.314 67.888 160.106 68.032C159.898 68.168 159.794 68.364 159.794 68.62ZM164.915 68.62C164.915 68.852 165.031 69.04 165.263 69.184C165.495 69.32 165.775 69.432 166.103 69.52C166.431 69.6 166.759 69.696 167.087 69.808C167.415 69.912 167.695 70.096 167.927 70.36C168.159 70.616 168.275 70.948 168.275 71.356C168.275 71.9 168.063 72.336 167.639 72.664C167.223 72.992 166.687 73.156 166.031 73.156C165.447 73.156 164.947 73.028 164.531 72.772C164.115 72.516 163.819 72.176 163.643 71.752L164.543 71.236C164.639 71.524 164.819 71.752 165.083 71.92C165.347 72.088 165.663 72.172 166.031 72.172C166.375 72.172 166.659 72.108 166.883 71.98C167.107 71.844 167.219 71.636 167.219 71.356C167.219 71.124 167.103 70.94 166.871 70.804C166.639 70.66 166.359 70.548 166.031 70.468C165.703 70.38 165.375 70.28 165.047 70.168C164.719 70.056 164.439 69.872 164.207 69.616C163.975 69.36 163.859 69.032 163.859 68.632C163.859 68.112 164.059 67.684 164.459 67.348C164.867 67.012 165.375 66.844 165.983 66.844C166.471 66.844 166.903 66.956 167.279 67.18C167.663 67.396 167.951 67.7 168.143 68.092L167.267 68.584C167.051 68.072 166.623 67.816 165.983 67.816C165.687 67.816 165.435 67.888 165.227 68.032C165.019 68.168 164.915 68.364 164.915 68.62ZM172.466 65.452C171.41 65.364 170.882 65.82 170.882 66.82V67H172.466V68.008H170.882V73H169.838V68.008H168.878V67H169.838V66.82C169.838 66.012 170.062 65.4 170.51 64.984C170.966 64.568 171.618 64.388 172.466 64.444V65.452ZM177.401 67H178.445V73H177.401V72.136C176.977 72.816 176.329 73.156 175.457 73.156C174.753 73.156 174.189 72.936 173.765 72.496C173.341 72.048 173.129 71.444 173.129 70.684V67H174.173V70.624C174.173 71.112 174.305 71.492 174.569 71.764C174.833 72.028 175.197 72.16 175.661 72.16C176.181 72.16 176.601 72 176.921 71.68C177.241 71.352 177.401 70.852 177.401 70.18V67ZM180.034 73V64.24H181.078V73H180.034ZM182.671 73V64.24H183.715V73H182.671ZM189.496 67H190.612L188.164 73.372C187.908 74.052 187.548 74.568 187.084 74.92C186.628 75.28 186.1 75.44 185.5 75.4V74.428C186.236 74.484 186.776 74.076 187.12 73.204L187.228 72.976L184.612 67H185.728L187.768 71.704L189.496 67ZM195.383 68.62C195.383 68.852 195.499 69.04 195.731 69.184C195.963 69.32 196.243 69.432 196.571 69.52C196.899 69.6 197.227 69.696 197.555 69.808C197.883 69.912 198.163 70.096 198.395 70.36C198.627 70.616 198.743 70.948 198.743 71.356C198.743 71.9 198.531 72.336 198.107 72.664C197.691 72.992 197.155 73.156 196.499 73.156C195.915 73.156 195.415 73.028 194.999 72.772C194.583 72.516 194.287 72.176 194.111 71.752L195.011 71.236C195.107 71.524 195.287 71.752 195.551 71.92C195.815 72.088 196.131 72.172 196.499 72.172C196.843 72.172 197.127 72.108 197.351 71.98C197.575 71.844 197.687 71.636 197.687 71.356C197.687 71.124 197.571 70.94 197.339 70.804C197.107 70.66 196.827 70.548 196.499 70.468C196.171 70.38 195.843 70.28 195.515 70.168C195.187 70.056 194.907 69.872 194.675 69.616C194.443 69.36 194.327 69.032 194.327 68.632C194.327 68.112 194.527 67.684 194.927 67.348C195.335 67.012 195.843 66.844 196.451 66.844C196.939 66.844 197.371 66.956 197.747 67.18C198.131 67.396 198.419 67.7 198.611 68.092L197.735 68.584C197.519 68.072 197.091 67.816 196.451 67.816C196.155 67.816 195.903 67.888 195.695 68.032C195.487 68.168 195.383 68.364 195.383 68.62ZM204.783 67H205.827V73H204.783V71.968C204.263 72.76 203.507 73.156 202.515 73.156C201.675 73.156 200.959 72.852 200.367 72.244C199.775 71.628 199.479 70.88 199.479 70C199.479 69.12 199.775 68.376 200.367 67.768C200.959 67.152 201.675 66.844 202.515 66.844C203.507 66.844 204.263 67.24 204.783 68.032V67ZM202.647 72.148C203.255 72.148 203.763 71.944 204.171 71.536C204.579 71.12 204.783 70.608 204.783 70C204.783 69.392 204.579 68.884 204.171 68.476C203.763 68.06 203.255 67.852 202.647 67.852C202.047 67.852 201.543 68.06 201.135 68.476C200.727 68.884 200.523 69.392 200.523 70C200.523 70.608 200.727 71.12 201.135 71.536C201.543 71.944 202.047 72.148 202.647 72.148ZM211.609 67H212.737L210.337 73H209.113L206.713 67H207.841L209.725 71.884L211.609 67ZM214.118 70.48C214.222 71.016 214.466 71.432 214.85 71.728C215.242 72.024 215.722 72.172 216.29 72.172C217.082 72.172 217.658 71.88 218.018 71.296L218.906 71.8C218.322 72.704 217.442 73.156 216.266 73.156C215.314 73.156 214.538 72.86 213.938 72.268C213.346 71.668 213.05 70.912 213.05 70C213.05 69.096 213.342 68.344 213.926 67.744C214.51 67.144 215.266 66.844 216.194 66.844C217.074 66.844 217.79 67.156 218.342 67.78C218.902 68.396 219.182 69.14 219.182 70.012C219.182 70.164 219.17 70.32 219.146 70.48H214.118ZM216.194 67.828C215.634 67.828 215.17 67.988 214.802 68.308C214.434 68.62 214.206 69.04 214.118 69.568H218.126C218.038 69 217.814 68.568 217.454 68.272C217.094 67.976 216.674 67.828 216.194 67.828ZM225.338 64.6H226.382V73H225.338V71.968C224.818 72.76 224.062 73.156 223.07 73.156C222.23 73.156 221.514 72.852 220.922 72.244C220.33 71.628 220.034 70.88 220.034 70C220.034 69.12 220.33 68.376 220.922 67.768C221.514 67.152 222.23 66.844 223.07 66.844C224.062 66.844 224.818 67.24 225.338 68.032V64.6ZM223.202 72.148C223.81 72.148 224.318 71.944 224.726 71.536C225.134 71.12 225.338 70.608 225.338 70C225.338 69.392 225.134 68.884 224.726 68.476C224.318 68.06 223.81 67.852 223.202 67.852C222.602 67.852 222.098 68.06 221.69 68.476C221.282 68.884 221.078 69.392 221.078 70C221.078 70.608 221.282 71.12 221.69 71.536C222.098 71.944 222.602 72.148 223.202 72.148ZM26.056 86.008H24.46V89.26C24.46 89.556 24.516 89.768 24.628 89.896C24.748 90.016 24.928 90.08 25.168 90.088C25.408 90.088 25.704 90.08 26.056 90.064V91C25.144 91.12 24.476 91.048 24.052 90.784C23.628 90.512 23.416 90.004 23.416 89.26V86.008H22.228V85H23.416V83.632L24.46 83.32V85H26.056V86.008ZM30.28 84.844C30.984 84.844 31.548 85.068 31.972 85.516C32.396 85.956 32.608 86.556 32.608 87.316V91H31.564V87.376C31.564 86.888 31.432 86.512 31.168 86.248C30.904 85.976 30.54 85.84 30.076 85.84C29.556 85.84 29.136 86.004 28.816 86.332C28.496 86.652 28.336 87.148 28.336 87.82V91H27.292V82.6H28.336V85.864C28.76 85.184 29.408 84.844 30.28 84.844ZM34.7974 88.48C34.9014 89.016 35.1454 89.432 35.5294 89.728C35.9214 90.024 36.4014 90.172 36.9694 90.172C37.7614 90.172 38.3374 89.88 38.6974 89.296L39.5854 89.8C39.0014 90.704 38.1214 91.156 36.9454 91.156C35.9934 91.156 35.2174 90.86 34.6174 90.268C34.0254 89.668 33.7294 88.912 33.7294 88C33.7294 87.096 34.0214 86.344 34.6054 85.744C35.1894 85.144 35.9454 84.844 36.8734 84.844C37.7534 84.844 38.4694 85.156 39.0214 85.78C39.5814 86.396 39.8614 87.14 39.8614 88.012C39.8614 88.164 39.8494 88.32 39.8254 88.48H34.7974ZM36.8734 85.828C36.3134 85.828 35.8494 85.988 35.4814 86.308C35.1134 86.62 34.8854 87.04 34.7974 87.568H38.8054C38.7174 87 38.4934 86.568 38.1334 86.272C37.7734 85.976 37.3534 85.828 36.8734 85.828ZM51.1295 85H52.2215L50.3615 91H49.2935L47.8895 86.56L46.4855 91H45.4175L43.5575 85H44.6495L45.9695 89.56L47.3855 85H48.3935L49.8095 89.572L51.1295 85ZM58.1255 90.244C57.5095 90.852 56.7615 91.156 55.8815 91.156C55.0015 91.156 54.2535 90.852 53.6375 90.244C53.0295 89.636 52.7255 88.888 52.7255 88C52.7255 87.112 53.0295 86.364 53.6375 85.756C54.2535 85.148 55.0015 84.844 55.8815 84.844C56.7615 84.844 57.5095 85.148 58.1255 85.756C58.7415 86.364 59.0495 87.112 59.0495 88C59.0495 88.888 58.7415 89.636 58.1255 90.244ZM55.8815 90.136C56.4815 90.136 56.9855 89.932 57.3935 89.524C57.8015 89.116 58.0055 88.608 58.0055 88C58.0055 87.392 57.8015 86.884 57.3935 86.476C56.9855 86.068 56.4815 85.864 55.8815 85.864C55.2895 85.864 54.7895 86.068 54.3815 86.476C53.9735 86.884 53.7695 87.392 53.7695 88C53.7695 88.608 53.9735 89.116 54.3815 89.524C54.7895 89.932 55.2895 90.136 55.8815 90.136ZM61.3243 86.008C61.6683 85.264 62.2923 84.892 63.1963 84.892V85.984C62.6843 85.96 62.2443 86.096 61.8763 86.392C61.5083 86.688 61.3243 87.164 61.3243 87.82V91H60.2803V85H61.3243V86.008ZM64.2178 91V82.24H65.2618V91H64.2178ZM71.8225 82.6H72.8665V91H71.8225V89.968C71.3025 90.76 70.5465 91.156 69.5545 91.156C68.7145 91.156 67.9985 90.852 67.4065 90.244C66.8145 89.628 66.5185 88.88 66.5185 88C66.5185 87.12 66.8145 86.376 67.4065 85.768C67.9985 85.152 68.7145 84.844 69.5545 84.844C70.5465 84.844 71.3025 85.24 71.8225 86.032V82.6ZM69.6865 90.148C70.2945 90.148 70.8025 89.944 71.2105 89.536C71.6185 89.12 71.8225 88.608 71.8225 88C71.8225 87.392 71.6185 86.884 71.2105 86.476C70.8025 86.06 70.2945 85.852 69.6865 85.852C69.0865 85.852 68.5825 86.06 68.1745 86.476C67.7665 86.884 67.5625 87.392 67.5625 88C67.5625 88.608 67.7665 89.12 68.1745 89.536C68.5825 89.944 69.0865 90.148 69.6865 90.148ZM75.1083 91.132C74.8923 91.132 74.7083 91.056 74.5563 90.904C74.4043 90.752 74.3283 90.568 74.3283 90.352C74.3283 90.136 74.4043 89.952 74.5563 89.8C74.7083 89.648 74.8923 89.572 75.1083 89.572C75.3323 89.572 75.5163 89.648 75.6603 89.8C75.8123 89.952 75.8883 90.136 75.8883 90.352C75.8883 90.568 75.8123 90.752 75.6603 90.904C75.5163 91.056 75.3323 91.132 75.1083 91.132Z" fill="#1A1A1A"/>
<path d="M13.9581 114.748C13.7021 115.012 13.3861 115.144 13.0101 115.144C12.6341 115.144 12.3141 115.012 12.0501 114.748C11.7861 114.484 11.6541 114.164 11.6541 113.788C11.6541 113.412 11.7861 113.096 12.0501 112.84C12.3141 112.576 12.6341 112.444 13.0101 112.444C13.3861 112.444 13.7021 112.576 13.9581 112.84C14.2221 113.096 14.3541 113.412 14.3541 113.788C14.3541 114.164 14.2221 114.484 13.9581 114.748ZM28.276 109.6V110.656H25.792V118H24.688V110.656H22.216V109.6H28.276ZM32.2605 111.844C32.9645 111.844 33.5285 112.068 33.9525 112.516C34.3765 112.956 34.5885 113.556 34.5885 114.316V118H33.5445V114.376C33.5445 113.888 33.4125 113.512 33.1485 113.248C32.8845 112.976 32.5205 112.84 32.0565 112.84C31.5365 112.84 31.1165 113.004 30.7965 113.332C30.4765 113.652 30.3165 114.148 30.3165 114.82V118H29.2725V109.6H30.3165V112.864C30.7405 112.184 31.3885 111.844 32.2605 111.844ZM36.7779 115.48C36.8819 116.016 37.1259 116.432 37.5099 116.728C37.9019 117.024 38.3819 117.172 38.9499 117.172C39.7419 117.172 40.3179 116.88 40.6779 116.296L41.5659 116.8C40.9819 117.704 40.1019 118.156 38.9259 118.156C37.9739 118.156 37.1979 117.86 36.5979 117.268C36.0059 116.668 35.7099 115.912 35.7099 115C35.7099 114.096 36.0019 113.344 36.5859 112.744C37.1699 112.144 37.9259 111.844 38.8539 111.844C39.7339 111.844 40.4499 112.156 41.0019 112.78C41.5619 113.396 41.8419 114.14 41.8419 115.012C41.8419 115.164 41.8299 115.32 41.8059 115.48H36.7779ZM38.8539 112.828C38.2939 112.828 37.8299 112.988 37.4619 113.308C37.0939 113.62 36.8659 114.04 36.7779 114.568H40.7859C40.6979 114 40.4739 113.568 40.1139 113.272C39.7539 112.976 39.3339 112.828 38.8539 112.828ZM47.266 116.944H51.166V118H46.15V109.6H51.106V110.656H47.266V113.236H50.806V114.28H47.266V116.944ZM55.0964 118.156C54.1924 118.156 53.4404 117.856 52.8404 117.256C52.2404 116.648 51.9404 115.896 51.9404 115C51.9404 114.104 52.2404 113.356 52.8404 112.756C53.4404 112.148 54.1924 111.844 55.0964 111.844C55.6884 111.844 56.2204 111.988 56.6924 112.276C57.1644 112.556 57.5164 112.936 57.7484 113.416L56.8724 113.92C56.7204 113.6 56.4844 113.344 56.1644 113.152C55.8524 112.96 55.4964 112.864 55.0964 112.864C54.4964 112.864 53.9924 113.068 53.5844 113.476C53.1844 113.884 52.9844 114.392 52.9844 115C52.9844 115.6 53.1844 116.104 53.5844 116.512C53.9924 116.92 54.4964 117.124 55.0964 117.124C55.4964 117.124 55.8564 117.032 56.1764 116.848C56.4964 116.656 56.7404 116.4 56.9084 116.08L57.7964 116.596C57.5404 117.068 57.1724 117.448 56.6924 117.736C56.2124 118.016 55.6804 118.156 55.0964 118.156ZM61.8152 111.844C62.5192 111.844 63.0832 112.068 63.5072 112.516C63.9312 112.956 64.1432 113.556 64.1432 114.316V118H63.0992V114.376C63.0992 113.888 62.9672 113.512 62.7032 113.248C62.4392 112.976 62.0752 112.84 61.6112 112.84C61.0912 112.84 60.6712 113.004 60.3512 113.332C60.0312 113.652 59.8712 114.148 59.8712 114.82V118H58.8272V109.6H59.8712V112.864C60.2952 112.184 60.9432 111.844 61.8152 111.844ZM70.6646 117.244C70.0486 117.852 69.3006 118.156 68.4206 118.156C67.5406 118.156 66.7926 117.852 66.1766 117.244C65.5686 116.636 65.2646 115.888 65.2646 115C65.2646 114.112 65.5686 113.364 66.1766 112.756C66.7926 112.148 67.5406 111.844 68.4206 111.844C69.3006 111.844 70.0486 112.148 70.6646 112.756C71.2806 113.364 71.5886 114.112 71.5886 115C71.5886 115.888 71.2806 116.636 70.6646 117.244ZM68.4206 117.136C69.0206 117.136 69.5246 116.932 69.9326 116.524C70.3406 116.116 70.5446 115.608 70.5446 115C70.5446 114.392 70.3406 113.884 69.9326 113.476C69.5246 113.068 69.0206 112.864 68.4206 112.864C67.8286 112.864 67.3286 113.068 66.9206 113.476C66.5126 113.884 66.3086 114.392 66.3086 115C66.3086 115.608 66.5126 116.116 66.9206 116.524C67.3286 116.932 67.8286 117.136 68.4206 117.136ZM81.4593 118L80.7753 116.116H76.9953L76.3113 118H75.1233L78.2553 109.6H79.5153L82.6473 118H81.4593ZM77.3793 115.072H80.3913L78.8793 110.932L77.3793 115.072ZM86.8423 111.844C87.6823 111.844 88.3983 112.152 88.9903 112.768C89.5823 113.376 89.8783 114.12 89.8783 115C89.8783 115.88 89.5823 116.628 88.9903 117.244C88.3983 117.852 87.6823 118.156 86.8423 118.156C85.8503 118.156 85.0943 117.76 84.5743 116.968V120.4H83.5303V112H84.5743V113.032C85.0943 112.24 85.8503 111.844 86.8423 111.844ZM86.7103 117.148C87.3103 117.148 87.8143 116.944 88.2223 116.536C88.6303 116.12 88.8343 115.608 88.8343 115C88.8343 114.392 88.6303 113.884 88.2223 113.476C87.8143 113.06 87.3103 112.852 86.7103 112.852C86.1023 112.852 85.5943 113.06 85.1863 113.476C84.7783 113.884 84.5743 114.392 84.5743 115C84.5743 115.608 84.7783 116.12 85.1863 116.536C85.5943 116.944 86.1023 117.148 86.7103 117.148ZM94.436 111.844C95.276 111.844 95.992 112.152 96.584 112.768C97.176 113.376 97.472 114.12 97.472 115C97.472 115.88 97.176 116.628 96.584 117.244C95.992 117.852 95.276 118.156 94.436 118.156C93.444 118.156 92.688 117.76 92.168 116.968V120.4H91.124V112H92.168V113.032C92.688 112.24 93.444 111.844 94.436 111.844ZM94.304 117.148C94.904 117.148 95.408 116.944 95.816 116.536C96.224 116.12 96.428 115.608 96.428 115C96.428 114.392 96.224 113.884 95.816 113.476C95.408 113.06 94.904 112.852 94.304 112.852C93.696 112.852 93.188 113.06 92.78 113.476C92.372 113.884 92.168 114.392 92.168 115C92.168 115.608 92.372 116.12 92.78 116.536C93.188 116.944 93.696 117.148 94.304 117.148ZM104.706 111.844C105.41 111.844 105.974 112.068 106.398 112.516C106.822 112.956 107.034 113.556 107.034 114.316V118H105.99V114.376C105.99 113.888 105.858 113.512 105.594 113.248C105.33 112.976 104.966 112.84 104.502 112.84C103.982 112.84 103.562 113.004 103.242 113.332C102.922 113.652 102.762 114.148 102.762 114.82V118H101.718V109.6H102.762V112.864C103.186 112.184 103.834 111.844 104.706 111.844ZM113.459 112H114.503V118H113.459V116.968C112.939 117.76 112.183 118.156 111.191 118.156C110.351 118.156 109.635 117.852 109.043 117.244C108.451 116.628 108.155 115.88 108.155 115C108.155 114.12 108.451 113.376 109.043 112.768C109.635 112.152 110.351 111.844 111.191 111.844C112.183 111.844 112.939 112.24 113.459 113.032V112ZM111.323 117.148C111.931 117.148 112.439 116.944 112.847 116.536C113.255 116.12 113.459 115.608 113.459 115C113.459 114.392 113.255 113.884 112.847 113.476C112.439 113.06 111.931 112.852 111.323 112.852C110.723 112.852 110.219 113.06 109.811 113.476C109.403 113.884 109.199 114.392 109.199 115C109.199 115.608 109.403 116.12 109.811 116.536C110.219 116.944 110.723 117.148 111.323 117.148ZM116.973 113.62C116.973 113.852 117.089 114.04 117.321 114.184C117.553 114.32 117.833 114.432 118.161 114.52C118.489 114.6 118.817 114.696 119.145 114.808C119.473 114.912 119.753 115.096 119.985 115.36C120.217 115.616 120.333 115.948 120.333 116.356C120.333 116.9 120.121 117.336 119.697 117.664C119.281 117.992 118.745 118.156 118.089 118.156C117.505 118.156 117.005 118.028 116.589 117.772C116.173 117.516 115.877 117.176 115.701 116.752L116.601 116.236C116.697 116.524 116.877 116.752 117.141 116.92C117.405 117.088 117.721 117.172 118.089 117.172C118.433 117.172 118.717 117.108 118.941 116.98C119.165 116.844 119.277 116.636 119.277 116.356C119.277 116.124 119.161 115.94 118.929 115.804C118.697 115.66 118.417 115.548 118.089 115.468C117.761 115.38 117.433 115.28 117.105 115.168C116.777 115.056 116.497 114.872 116.265 114.616C116.033 114.36 115.917 114.032 115.917 113.632C115.917 113.112 116.117 112.684 116.517 112.348C116.925 112.012 117.433 111.844 118.041 111.844C118.529 111.844 118.961 111.956 119.337 112.18C119.721 112.396 120.009 112.7 120.201 113.092L119.325 113.584C119.109 113.072 118.681 112.816 118.041 112.816C117.745 112.816 117.493 112.888 117.285 113.032C117.077 113.168 116.973 113.364 116.973 113.62ZM125.469 113.62C125.469 113.852 125.585 114.04 125.817 114.184C126.049 114.32 126.329 114.432 126.657 114.52C126.985 114.6 127.313 114.696 127.641 114.808C127.969 114.912 128.249 115.096 128.481 115.36C128.713 115.616 128.829 115.948 128.829 116.356C128.829 116.9 128.617 117.336 128.193 117.664C127.777 117.992 127.241 118.156 126.585 118.156C126.001 118.156 125.501 118.028 125.085 117.772C124.669 117.516 124.373 117.176 124.197 116.752L125.097 116.236C125.193 116.524 125.373 116.752 125.637 116.92C125.901 117.088 126.217 117.172 126.585 117.172C126.929 117.172 127.213 117.108 127.437 116.98C127.661 116.844 127.773 116.636 127.773 116.356C127.773 116.124 127.657 115.94 127.425 115.804C127.193 115.66 126.913 115.548 126.585 115.468C126.257 115.38 125.929 115.28 125.601 115.168C125.273 115.056 124.993 114.872 124.761 114.616C124.529 114.36 124.413 114.032 124.413 113.632C124.413 113.112 124.613 112.684 125.013 112.348C125.421 112.012 125.929 111.844 126.537 111.844C127.025 111.844 127.457 111.956 127.833 112.18C128.217 112.396 128.505 112.7 128.697 113.092L127.821 113.584C127.605 113.072 127.177 112.816 126.537 112.816C126.241 112.816 125.989 112.888 125.781 113.032C125.573 113.168 125.469 113.364 125.469 113.62ZM134.147 112H135.191V118H134.147V117.136C133.723 117.816 133.075 118.156 132.203 118.156C131.499 118.156 130.935 117.936 130.511 117.496C130.087 117.048 129.875 116.444 129.875 115.684V112H130.919V115.624C130.919 116.112 131.051 116.492 131.315 116.764C131.579 117.028 131.943 117.16 132.407 117.16C132.927 117.16 133.347 117 133.667 116.68C133.987 116.352 134.147 115.852 134.147 115.18V112ZM139.6 118.156C138.696 118.156 137.944 117.856 137.344 117.256C136.744 116.648 136.444 115.896 136.444 115C136.444 114.104 136.744 113.356 137.344 112.756C137.944 112.148 138.696 111.844 139.6 111.844C140.192 111.844 140.724 111.988 141.196 112.276C141.668 112.556 142.02 112.936 142.252 113.416L141.376 113.92C141.224 113.6 140.988 113.344 140.668 113.152C140.356 112.96 140 112.864 139.6 112.864C139 112.864 138.496 113.068 138.088 113.476C137.688 113.884 137.488 114.392 137.488 115C137.488 115.6 137.688 116.104 138.088 116.512C138.496 116.92 139 117.124 139.6 117.124C140 117.124 140.36 117.032 140.68 116.848C141 116.656 141.244 116.4 141.412 116.08L142.3 116.596C142.044 117.068 141.676 117.448 141.196 117.736C140.716 118.016 140.184 118.156 139.6 118.156ZM146.069 118.156C145.165 118.156 144.413 117.856 143.813 117.256C143.213 116.648 142.913 115.896 142.913 115C142.913 114.104 143.213 113.356 143.813 112.756C144.413 112.148 145.165 111.844 146.069 111.844C146.661 111.844 147.193 111.988 147.665 112.276C148.137 112.556 148.489 112.936 148.721 113.416L147.845 113.92C147.693 113.6 147.457 113.344 147.137 113.152C146.825 112.96 146.469 112.864 146.069 112.864C145.469 112.864 144.965 113.068 144.557 113.476C144.157 113.884 143.957 114.392 143.957 115C143.957 115.6 144.157 116.104 144.557 116.512C144.965 116.92 145.469 117.124 146.069 117.124C146.469 117.124 146.829 117.032 147.149 116.848C147.469 116.656 147.713 116.4 147.881 116.08L148.769 116.596C148.513 117.068 148.145 117.448 147.665 117.736C147.185 118.016 146.653 118.156 146.069 118.156ZM150.45 115.48C150.554 116.016 150.798 116.432 151.182 116.728C151.574 117.024 152.054 117.172 152.622 117.172C153.414 117.172 153.99 116.88 154.35 116.296L155.238 116.8C154.654 117.704 153.774 118.156 152.598 118.156C151.646 118.156 150.87 117.86 150.27 117.268C149.678 116.668 149.382 115.912 149.382 115C149.382 114.096 149.674 113.344 150.258 112.744C150.842 112.144 151.598 111.844 152.526 111.844C153.406 111.844 154.122 112.156 154.674 112.78C155.234 113.396 155.514 114.14 155.514 115.012C155.514 115.164 155.502 115.32 155.478 115.48H150.45ZM152.526 112.828C151.966 112.828 151.502 112.988 151.134 113.308C150.766 113.62 150.538 114.04 150.45 114.568H154.458C154.37 114 154.146 113.568 153.786 113.272C153.426 112.976 153.006 112.828 152.526 112.828ZM157.38 113.62C157.38 113.852 157.496 114.04 157.728 114.184C157.96 114.32 158.24 114.432 158.568 114.52C158.896 114.6 159.224 114.696 159.552 114.808C159.88 114.912 160.16 115.096 160.392 115.36C160.624 115.616 160.74 115.948 160.74 116.356C160.74 116.9 160.528 117.336 160.104 117.664C159.688 117.992 159.152 118.156 158.496 118.156C157.912 118.156 157.412 118.028 156.996 117.772C156.58 117.516 156.284 117.176 156.108 116.752L157.008 116.236C157.104 116.524 157.284 116.752 157.548 116.92C157.812 117.088 158.128 117.172 158.496 117.172C158.84 117.172 159.124 117.108 159.348 116.98C159.572 116.844 159.684 116.636 159.684 116.356C159.684 116.124 159.568 115.94 159.336 115.804C159.104 115.66 158.824 115.548 158.496 115.468C158.168 115.38 157.84 115.28 157.512 115.168C157.184 115.056 156.904 114.872 156.672 114.616C156.44 114.36 156.324 114.032 156.324 113.632C156.324 113.112 156.524 112.684 156.924 112.348C157.332 112.012 157.84 111.844 158.448 111.844C158.936 111.844 159.368 111.956 159.744 112.18C160.128 112.396 160.416 112.7 160.608 113.092L159.732 113.584C159.516 113.072 159.088 112.816 158.448 112.816C158.152 112.816 157.9 112.888 157.692 113.032C157.484 113.168 157.38 113.364 157.38 113.62ZM162.501 113.62C162.501 113.852 162.617 114.04 162.849 114.184C163.081 114.32 163.361 114.432 163.689 114.52C164.017 114.6 164.345 114.696 164.673 114.808C165.001 114.912 165.281 115.096 165.513 115.36C165.745 115.616 165.861 115.948 165.861 116.356C165.861 116.9 165.649 117.336 165.225 117.664C164.809 117.992 164.273 118.156 163.617 118.156C163.033 118.156 162.533 118.028 162.117 117.772C161.701 117.516 161.405 117.176 161.229 116.752L162.129 116.236C162.225 116.524 162.405 116.752 162.669 116.92C162.933 117.088 163.249 117.172 163.617 117.172C163.961 117.172 164.245 117.108 164.469 116.98C164.693 116.844 164.805 116.636 164.805 116.356C164.805 116.124 164.689 115.94 164.457 115.804C164.225 115.66 163.945 115.548 163.617 115.468C163.289 115.38 162.961 115.28 162.633 115.168C162.305 115.056 162.025 114.872 161.793 114.616C161.561 114.36 161.445 114.032 161.445 113.632C161.445 113.112 161.645 112.684 162.045 112.348C162.453 112.012 162.961 111.844 163.569 111.844C164.057 111.844 164.489 111.956 164.865 112.18C165.249 112.396 165.537 112.7 165.729 113.092L164.853 113.584C164.637 113.072 164.209 112.816 163.569 112.816C163.273 112.816 163.021 112.888 162.813 113.032C162.605 113.168 162.501 113.364 162.501 113.62ZM170.052 110.452C168.996 110.364 168.468 110.82 168.468 111.82V112H170.052V113.008H168.468V118H167.424V113.008H166.464V112H167.424V111.82C167.424 111.012 167.648 110.4 168.096 109.984C168.552 109.568 169.204 109.388 170.052 109.444V110.452ZM174.987 112H176.031V118H174.987V117.136C174.563 117.816 173.915 118.156 173.043 118.156C172.339 118.156 171.775 117.936 171.351 117.496C170.927 117.048 170.715 116.444 170.715 115.684V112H171.759V115.624C171.759 116.112 171.891 116.492 172.155 116.764C172.419 117.028 172.783 117.16 173.247 117.16C173.767 117.16 174.187 117 174.507 116.68C174.827 116.352 174.987 115.852 174.987 115.18V112ZM177.62 118V109.24H178.664V118H177.62ZM180.257 118V109.24H181.301V118H180.257ZM187.082 112H188.198L185.75 118.372C185.494 119.052 185.134 119.568 184.67 119.92C184.214 120.28 183.686 120.44 183.086 120.4V119.428C183.822 119.484 184.362 119.076 184.706 118.204L184.814 117.976L182.198 112H183.314L185.354 116.704L187.082 112ZM192.969 113.62C192.969 113.852 193.085 114.04 193.317 114.184C193.549 114.32 193.829 114.432 194.157 114.52C194.485 114.6 194.813 114.696 195.141 114.808C195.469 114.912 195.749 115.096 195.981 115.36C196.213 115.616 196.329 115.948 196.329 116.356C196.329 116.9 196.117 117.336 195.693 117.664C195.277 117.992 194.741 118.156 194.085 118.156C193.501 118.156 193.001 118.028 192.585 117.772C192.169 117.516 191.873 117.176 191.697 116.752L192.597 116.236C192.693 116.524 192.873 116.752 193.137 116.92C193.401 117.088 193.717 117.172 194.085 117.172C194.429 117.172 194.713 117.108 194.937 116.98C195.161 116.844 195.273 116.636 195.273 116.356C195.273 116.124 195.157 115.94 194.925 115.804C194.693 115.66 194.413 115.548 194.085 115.468C193.757 115.38 193.429 115.28 193.101 115.168C192.773 115.056 192.493 114.872 192.261 114.616C192.029 114.36 191.913 114.032 191.913 113.632C191.913 113.112 192.113 112.684 192.513 112.348C192.921 112.012 193.429 111.844 194.037 111.844C194.525 111.844 194.957 111.956 195.333 112.18C195.717 112.396 196.005 112.7 196.197 113.092L195.321 113.584C195.105 113.072 194.677 112.816 194.037 112.816C193.741 112.816 193.489 112.888 193.281 113.032C193.073 113.168 192.969 113.364 192.969 113.62ZM202.369 112H203.413V118H202.369V116.968C201.849 117.76 201.093 118.156 200.101 118.156C199.261 118.156 198.545 117.852 197.953 117.244C197.361 116.628 197.065 115.88 197.065 115C197.065 114.12 197.361 113.376 197.953 112.768C198.545 112.152 199.261 111.844 200.101 111.844C201.093 111.844 201.849 112.24 202.369 113.032V112ZM200.233 117.148C200.841 117.148 201.349 116.944 201.757 116.536C202.165 116.12 202.369 115.608 202.369 115C202.369 114.392 202.165 113.884 201.757 113.476C201.349 113.06 200.841 112.852 200.233 112.852C199.633 112.852 199.129 113.06 198.721 113.476C198.313 113.884 198.109 114.392 198.109 115C198.109 115.608 198.313 116.12 198.721 116.536C199.129 116.944 199.633 117.148 200.233 117.148ZM209.195 112H210.323L207.923 118H206.699L204.299 112H205.427L207.311 116.884L209.195 112ZM211.704 115.48C211.808 116.016 212.052 116.432 212.436 116.728C212.828 117.024 213.308 117.172 213.876 117.172C214.668 117.172 215.244 116.88 215.604 116.296L216.492 116.8C215.908 117.704 215.028 118.156 213.852 118.156C212.9 118.156 212.124 117.86 211.524 117.268C210.932 116.668 210.636 115.912 210.636 115C210.636 114.096 210.928 113.344 211.512 112.744C212.096 112.144 212.852 111.844 213.78 111.844C214.66 111.844 215.376 112.156 215.928 112.78C216.488 113.396 216.768 114.14 216.768 115.012C216.768 115.164 216.756 115.32 216.732 115.48H211.704ZM213.78 112.828C213.22 112.828 212.756 112.988 212.388 113.308C212.02 113.62 211.792 114.04 211.704 114.568H215.712C215.624 114 215.4 113.568 215.04 113.272C214.68 112.976 214.26 112.828 213.78 112.828ZM222.924 109.6H223.968V118H222.924V116.968C222.404 117.76 221.648 118.156 220.656 118.156C219.816 118.156 219.1 117.852 218.508 117.244C217.916 116.628 217.62 115.88 217.62 115C217.62 114.12 217.916 113.376 218.508 112.768C219.1 112.152 219.816 111.844 220.656 111.844C221.648 111.844 222.404 112.24 222.924 113.032V109.6ZM220.788 117.148C221.396 117.148 221.904 116.944 222.312 116.536C222.72 116.12 222.924 115.608 222.924 115C222.924 114.392 222.72 113.884 222.312 113.476C221.904 113.06 221.396 112.852 220.788 112.852C220.188 112.852 219.684 113.06 219.276 113.476C218.868 113.884 218.664 114.392 218.664 115C218.664 115.608 218.868 116.12 219.276 116.536C219.684 116.944 220.188 117.148 220.788 117.148ZM27.772 130H28.804V135.748C28.804 136.636 28.504 137.324 27.904 137.812C27.304 138.308 26.584 138.556 25.744 138.556C25.072 138.556 24.492 138.428 24.004 138.172C23.516 137.924 23.148 137.564 22.9 137.092L23.812 136.576C24.14 137.248 24.792 137.584 25.768 137.584C26.392 137.584 26.88 137.42 27.232 137.092C27.592 136.764 27.772 136.316 27.772 135.748V134.896C27.244 135.696 26.492 136.096 25.516 136.096C24.66 136.096 23.936 135.792 23.344 135.184C22.752 134.576 22.456 133.836 22.456 132.964C22.456 132.092 22.752 131.356 23.344 130.756C23.936 130.148 24.66 129.844 25.516 129.844C26.5 129.844 27.252 130.24 27.772 131.032V130ZM24.112 134.488C24.52 134.896 25.028 135.1 25.636 135.1C26.244 135.1 26.752 134.896 27.16 134.488C27.568 134.08 27.772 133.572 27.772 132.964C27.772 132.364 27.568 131.86 27.16 131.452C26.752 131.044 26.244 130.84 25.636 130.84C25.028 130.84 24.52 131.044 24.112 131.452C23.704 131.86 23.5 132.364 23.5 132.964C23.5 133.572 23.704 134.08 24.112 134.488ZM35.3538 130H36.3978V136H35.3538V134.968C34.8338 135.76 34.0778 136.156 33.0858 136.156C32.2458 136.156 31.5298 135.852 30.9378 135.244C30.3458 134.628 30.0498 133.88 30.0498 133C30.0498 132.12 30.3458 131.376 30.9378 130.768C31.5298 130.152 32.2458 129.844 33.0858 129.844C34.0778 129.844 34.8338 130.24 35.3538 131.032V130ZM33.2178 135.148C33.8258 135.148 34.3338 134.944 34.7418 134.536C35.1498 134.12 35.3538 133.608 35.3538 133C35.3538 132.392 35.1498 131.884 34.7418 131.476C34.3338 131.06 33.8258 130.852 33.2178 130.852C32.6178 130.852 32.1138 131.06 31.7058 131.476C31.2978 131.884 31.0938 132.392 31.0938 133C31.0938 133.608 31.2978 134.12 31.7058 134.536C32.1138 134.944 32.6178 135.148 33.2178 135.148ZM44.4595 129.844C45.1315 129.844 45.6755 130.064 46.0915 130.504C46.5075 130.936 46.7155 131.524 46.7155 132.268V136H45.6715V132.304C45.6715 131.84 45.5515 131.48 45.3115 131.224C45.0715 130.968 44.7515 130.84 44.3515 130.84C43.9035 130.84 43.5435 130.992 43.2715 131.296C43.0075 131.592 42.8755 132.048 42.8755 132.664V136H41.8315V132.304C41.8315 131.84 41.7155 131.48 41.4835 131.224C41.2595 130.968 40.9515 130.84 40.5595 130.84C40.1195 130.84 39.7515 130.992 39.4555 131.296C39.1675 131.6 39.0235 132.056 39.0235 132.664V136H37.9795V130H39.0235V130.804C39.4315 130.164 40.0275 129.844 40.8115 129.844C41.6195 129.844 42.2075 130.184 42.5755 130.864C42.9915 130.184 43.6195 129.844 44.4595 129.844ZM48.6911 128.908C48.4911 128.908 48.3231 128.84 48.1871 128.704C48.0511 128.568 47.9831 128.404 47.9831 128.212C47.9831 128.02 48.0511 127.856 48.1871 127.72C48.3231 127.576 48.4911 127.504 48.6911 127.504C48.8831 127.504 49.0471 127.576 49.1831 127.72C49.3191 127.856 49.3871 128.02 49.3871 128.212C49.3871 128.404 49.3191 128.568 49.1831 128.704C49.0471 128.84 48.8831 128.908 48.6911 128.908ZM48.1631 136V130H49.2071V136H48.1631ZM53.7878 129.844C54.4918 129.844 55.0558 130.068 55.4798 130.516C55.9038 130.956 56.1158 131.556 56.1158 132.316V136H55.0718V132.376C55.0718 131.888 54.9398 131.512 54.6758 131.248C54.4118 130.976 54.0478 130.84 53.5838 130.84C53.0638 130.84 52.6438 131.004 52.3238 131.332C52.0038 131.652 51.8438 132.148 51.8438 132.82V136H50.7998V130H51.8438V130.864C52.2678 130.184 52.9158 129.844 53.7878 129.844ZM62.5533 130H63.5853V135.748C63.5853 136.636 63.2853 137.324 62.6853 137.812C62.0853 138.308 61.3653 138.556 60.5253 138.556C59.8533 138.556 59.2733 138.428 58.7853 138.172C58.2973 137.924 57.9293 137.564 57.6813 137.092L58.5933 136.576C58.9213 137.248 59.5733 137.584 60.5493 137.584C61.1733 137.584 61.6613 137.42 62.0133 137.092C62.3733 136.764 62.5533 136.316 62.5533 135.748V134.896C62.0253 135.696 61.2733 136.096 60.2973 136.096C59.4413 136.096 58.7173 135.792 58.1253 135.184C57.5333 134.576 57.2373 133.836 57.2373 132.964C57.2373 132.092 57.5333 131.356 58.1253 130.756C58.7173 130.148 59.4413 129.844 60.2973 129.844C61.2813 129.844 62.0333 130.24 62.5533 131.032V130ZM58.8933 134.488C59.3013 134.896 59.8093 135.1 60.4173 135.1C61.0253 135.1 61.5333 134.896 61.9413 134.488C62.3493 134.08 62.5533 133.572 62.5533 132.964C62.5533 132.364 62.3493 131.86 61.9413 131.452C61.5333 131.044 61.0253 130.84 60.4173 130.84C59.8093 130.84 59.3013 131.044 58.8933 131.452C58.4853 131.86 58.2812 132.364 58.2812 132.964C58.2812 133.572 58.4853 134.08 58.8933 134.488ZM65.827 136.132C65.611 136.132 65.427 136.056 65.275 135.904C65.123 135.752 65.047 135.568 65.047 135.352C65.047 135.136 65.123 134.952 65.275 134.8C65.427 134.648 65.611 134.572 65.827 134.572C66.051 134.572 66.235 134.648 66.379 134.8C66.531 134.952 66.607 135.136 66.607 135.352C66.607 135.568 66.531 135.752 66.379 135.904C66.235 136.056 66.051 136.132 65.827 136.132Z" fill="#1A1A1A"/>
<path d="M13.9581 159.748C13.7021 160.012 13.3861 160.144 13.0101 160.144C12.6341 160.144 12.3141 160.012 12.0501 159.748C11.7861 159.484 11.6541 159.164 11.6541 158.788C11.6541 158.412 11.7861 158.096 12.0501 157.84C12.3141 157.576 12.6341 157.444 13.0101 157.444C13.3861 157.444 13.7021 157.576 13.9581 157.84C14.2221 158.096 14.3541 158.412 14.3541 158.788C14.3541 159.164 14.2221 159.484 13.9581 159.748ZM24.016 161.944H27.916V163H22.9V154.6H27.856V155.656H24.016V158.236H27.556V159.28H24.016V161.944ZM33.3553 157H34.4833L32.0833 163H30.8593L28.4593 157H29.5873L31.4713 161.884L33.3553 157ZM35.8638 160.48C35.9678 161.016 36.2118 161.432 36.5958 161.728C36.9878 162.024 37.4678 162.172 38.0358 162.172C38.8278 162.172 39.4038 161.88 39.7638 161.296L40.6518 161.8C40.0678 162.704 39.1878 163.156 38.0118 163.156C37.0598 163.156 36.2838 162.86 35.6838 162.268C35.0918 161.668 34.7958 160.912 34.7958 160C34.7958 159.096 35.0878 158.344 35.6718 157.744C36.2558 157.144 37.0118 156.844 37.9398 156.844C38.8198 156.844 39.5358 157.156 40.0878 157.78C40.6478 158.396 40.9278 159.14 40.9278 160.012C40.9278 160.164 40.9158 160.32 40.8918 160.48H35.8638ZM37.9398 157.828C37.3798 157.828 36.9158 157.988 36.5478 158.308C36.1798 158.62 35.9518 159.04 35.8638 159.568H39.8718C39.7838 159 39.5598 158.568 39.1998 158.272C38.8398 157.976 38.4198 157.828 37.9398 157.828ZM43.1719 158.008C43.5159 157.264 44.1399 156.892 45.0439 156.892V157.984C44.5319 157.96 44.0919 158.096 43.7239 158.392C43.3559 158.688 43.1719 159.164 43.1719 159.82V163H42.1279V157H43.1719V158.008ZM50.3823 157H51.4983L49.0503 163.372C48.7943 164.052 48.4343 164.568 47.9703 164.92C47.5143 165.28 46.9863 165.44 46.3863 165.4V164.428C47.1223 164.484 47.6623 164.076 48.0063 163.204L48.1143 162.976L45.4983 157H46.6143L48.6543 161.704L50.3823 157ZM57.1998 162.244C56.5838 162.852 55.8358 163.156 54.9558 163.156C54.0758 163.156 53.3278 162.852 52.7118 162.244C52.1038 161.636 51.7998 160.888 51.7998 160C51.7998 159.112 52.1038 158.364 52.7118 157.756C53.3278 157.148 54.0758 156.844 54.9558 156.844C55.8358 156.844 56.5838 157.148 57.1998 157.756C57.8158 158.364 58.1237 159.112 58.1237 160C58.1237 160.888 57.8158 161.636 57.1998 162.244ZM54.9558 162.136C55.5558 162.136 56.0598 161.932 56.4678 161.524C56.8758 161.116 57.0798 160.608 57.0798 160C57.0798 159.392 56.8758 158.884 56.4678 158.476C56.0598 158.068 55.5558 157.864 54.9558 157.864C54.3638 157.864 53.8638 158.068 53.4558 158.476C53.0478 158.884 52.8438 159.392 52.8438 160C52.8438 160.608 53.0478 161.116 53.4558 161.524C53.8638 161.932 54.3638 162.136 54.9558 162.136ZM62.3425 156.844C63.0465 156.844 63.6105 157.068 64.0345 157.516C64.4585 157.956 64.6705 158.556 64.6705 159.316V163H63.6265V159.376C63.6265 158.888 63.4945 158.512 63.2305 158.248C62.9665 157.976 62.6025 157.84 62.1385 157.84C61.6185 157.84 61.1985 158.004 60.8785 158.332C60.5585 158.652 60.3985 159.148 60.3985 159.82V163H59.3545V157H60.3985V157.864C60.8225 157.184 61.4705 156.844 62.3425 156.844ZM66.8599 160.48C66.9639 161.016 67.2079 161.432 67.5919 161.728C67.9839 162.024 68.4639 162.172 69.0319 162.172C69.8239 162.172 70.3999 161.88 70.7599 161.296L71.6479 161.8C71.0639 162.704 70.1839 163.156 69.0079 163.156C68.0559 163.156 67.2799 162.86 66.6799 162.268C66.0879 161.668 65.7919 160.912 65.7919 160C65.7919 159.096 66.0839 158.344 66.6679 157.744C67.2519 157.144 68.0079 156.844 68.9359 156.844C69.8159 156.844 70.5319 157.156 71.0839 157.78C71.6439 158.396 71.9239 159.14 71.9239 160.012C71.9239 160.164 71.9119 160.32 71.8879 160.48H66.8599ZM68.9359 157.828C68.3759 157.828 67.9119 157.988 67.5439 158.308C67.1759 158.62 66.9479 159.04 66.8599 159.568H70.8679C70.7799 159 70.5559 158.568 70.1959 158.272C69.8359 157.976 69.4159 157.828 68.9359 157.828ZM79.112 156.844C79.816 156.844 80.38 157.068 80.804 157.516C81.228 157.956 81.44 158.556 81.44 159.316V163H80.396V159.376C80.396 158.888 80.264 158.512 80 158.248C79.736 157.976 79.372 157.84 78.908 157.84C78.388 157.84 77.968 158.004 77.648 158.332C77.328 158.652 77.168 159.148 77.168 159.82V163H76.124V157H77.168V157.864C77.592 157.184 78.24 156.844 79.112 156.844ZM87.9615 162.244C87.3455 162.852 86.5975 163.156 85.7175 163.156C84.8375 163.156 84.0895 162.852 83.4735 162.244C82.8655 161.636 82.5615 160.888 82.5615 160C82.5615 159.112 82.8655 158.364 83.4735 157.756C84.0895 157.148 84.8375 156.844 85.7175 156.844C86.5975 156.844 87.3455 157.148 87.9615 157.756C88.5775 158.364 88.8855 159.112 88.8855 160C88.8855 160.888 88.5775 161.636 87.9615 162.244ZM85.7175 162.136C86.3175 162.136 86.8215 161.932 87.2295 161.524C87.6375 161.116 87.8415 160.608 87.8415 160C87.8415 159.392 87.6375 158.884 87.2295 158.476C86.8215 158.068 86.3175 157.864 85.7175 157.864C85.1255 157.864 84.6255 158.068 84.2175 158.476C83.8095 158.884 83.6055 159.392 83.6055 160C83.6055 160.608 83.8095 161.116 84.2175 161.524C84.6255 161.932 85.1255 162.136 85.7175 162.136ZM96.9498 157H98.0418L96.1818 163H95.1138L93.7098 158.56L92.3058 163H91.2378L89.3778 157H90.4698L91.7898 161.56L93.2058 157H94.2138L95.6298 161.572L96.9498 157ZM102.116 163V154.24H103.16V163H102.116ZM105.281 155.908C105.081 155.908 104.913 155.84 104.777 155.704C104.641 155.568 104.573 155.404 104.573 155.212C104.573 155.02 104.641 154.856 104.777 154.72C104.913 154.576 105.081 154.504 105.281 154.504C105.473 154.504 105.637 154.576 105.773 154.72C105.909 154.856 105.977 155.02 105.977 155.212C105.977 155.404 105.909 155.568 105.773 155.704C105.637 155.84 105.473 155.908 105.281 155.908ZM104.753 163V157H105.797V163H104.753ZM111.59 157H112.718L110.318 163H109.094L106.694 157H107.822L109.706 161.884L111.59 157ZM114.098 160.48C114.202 161.016 114.446 161.432 114.83 161.728C115.222 162.024 115.702 162.172 116.27 162.172C117.062 162.172 117.638 161.88 117.998 161.296L118.886 161.8C118.302 162.704 117.422 163.156 116.246 163.156C115.294 163.156 114.518 162.86 113.918 162.268C113.326 161.668 113.03 160.912 113.03 160C113.03 159.096 113.322 158.344 113.906 157.744C114.49 157.144 115.246 156.844 116.174 156.844C117.054 156.844 117.77 157.156 118.322 157.78C118.882 158.396 119.162 159.14 119.162 160.012C119.162 160.164 119.15 160.32 119.126 160.48H114.098ZM116.174 157.828C115.614 157.828 115.15 157.988 114.782 158.308C114.414 158.62 114.186 159.04 114.098 159.568H118.106C118.018 159 117.794 158.568 117.434 158.272C117.074 157.976 116.654 157.828 116.174 157.828ZM121.028 158.62C121.028 158.852 121.144 159.04 121.376 159.184C121.608 159.32 121.888 159.432 122.216 159.52C122.544 159.6 122.872 159.696 123.2 159.808C123.528 159.912 123.808 160.096 124.04 160.36C124.272 160.616 124.388 160.948 124.388 161.356C124.388 161.9 124.176 162.336 123.752 162.664C123.336 162.992 122.8 163.156 122.144 163.156C121.56 163.156 121.06 163.028 120.644 162.772C120.228 162.516 119.932 162.176 119.756 161.752L120.656 161.236C120.752 161.524 120.932 161.752 121.196 161.92C121.46 162.088 121.776 162.172 122.144 162.172C122.488 162.172 122.772 162.108 122.996 161.98C123.22 161.844 123.332 161.636 123.332 161.356C123.332 161.124 123.216 160.94 122.984 160.804C122.752 160.66 122.472 160.548 122.144 160.468C121.816 160.38 121.488 160.28 121.16 160.168C120.832 160.056 120.552 159.872 120.32 159.616C120.088 159.36 119.972 159.032 119.972 158.632C119.972 158.112 120.172 157.684 120.572 157.348C120.98 157.012 121.488 156.844 122.096 156.844C122.584 156.844 123.016 156.956 123.392 157.18C123.776 157.396 124.064 157.7 124.256 158.092L123.38 158.584C123.164 158.072 122.736 157.816 122.096 157.816C121.8 157.816 121.548 157.888 121.34 158.032C121.132 158.168 121.028 158.364 121.028 158.62ZM129.152 155.908C128.952 155.908 128.784 155.84 128.648 155.704C128.512 155.568 128.444 155.404 128.444 155.212C128.444 155.02 128.512 154.856 128.648 154.72C128.784 154.576 128.952 154.504 129.152 154.504C129.344 154.504 129.508 154.576 129.644 154.72C129.78 154.856 129.848 155.02 129.848 155.212C129.848 155.404 129.78 155.568 129.644 155.704C129.508 155.84 129.344 155.908 129.152 155.908ZM128.624 163V157H129.668V163H128.624ZM134.249 156.844C134.953 156.844 135.517 157.068 135.941 157.516C136.365 157.956 136.577 158.556 136.577 159.316V163H135.533V159.376C135.533 158.888 135.401 158.512 135.137 158.248C134.873 157.976 134.509 157.84 134.045 157.84C133.525 157.84 133.105 158.004 132.785 158.332C132.465 158.652 132.305 159.148 132.305 159.82V163H131.261V157H132.305V157.864C132.729 157.184 133.377 156.844 134.249 156.844ZM138.934 158.62C138.934 158.852 139.05 159.04 139.282 159.184C139.514 159.32 139.794 159.432 140.122 159.52C140.45 159.6 140.778 159.696 141.106 159.808C141.434 159.912 141.714 160.096 141.946 160.36C142.178 160.616 142.294 160.948 142.294 161.356C142.294 161.9 142.082 162.336 141.658 162.664C141.242 162.992 140.706 163.156 140.05 163.156C139.466 163.156 138.966 163.028 138.55 162.772C138.134 162.516 137.838 162.176 137.662 161.752L138.562 161.236C138.658 161.524 138.838 161.752 139.102 161.92C139.366 162.088 139.682 162.172 140.05 162.172C140.394 162.172 140.678 162.108 140.902 161.98C141.126 161.844 141.238 161.636 141.238 161.356C141.238 161.124 141.122 160.94 140.89 160.804C140.658 160.66 140.378 160.548 140.05 160.468C139.722 160.38 139.394 160.28 139.066 160.168C138.738 160.056 138.458 159.872 138.226 159.616C137.994 159.36 137.878 159.032 137.878 158.632C137.878 158.112 138.078 157.684 138.478 157.348C138.886 157.012 139.394 156.844 140.002 156.844C140.49 156.844 140.922 156.956 141.298 157.18C141.682 157.396 141.97 157.7 142.162 158.092L141.286 158.584C141.07 158.072 140.642 157.816 140.002 157.816C139.706 157.816 139.454 157.888 139.246 158.032C139.038 158.168 138.934 158.364 138.934 158.62ZM144 155.908C143.8 155.908 143.632 155.84 143.496 155.704C143.36 155.568 143.292 155.404 143.292 155.212C143.292 155.02 143.36 154.856 143.496 154.72C143.632 154.576 143.8 154.504 144 154.504C144.192 154.504 144.356 154.576 144.492 154.72C144.628 154.856 144.696 155.02 144.696 155.212C144.696 155.404 144.628 155.568 144.492 155.704C144.356 155.84 144.192 155.908 144 155.908ZM143.472 163V157H144.516V163H143.472ZM151.076 154.6H152.12V163H151.076V161.968C150.556 162.76 149.8 163.156 148.808 163.156C147.968 163.156 147.252 162.852 146.66 162.244C146.068 161.628 145.772 160.88 145.772 160C145.772 159.12 146.068 158.376 146.66 157.768C147.252 157.152 147.968 156.844 148.808 156.844C149.8 156.844 150.556 157.24 151.076 158.032V154.6ZM148.94 162.148C149.548 162.148 150.056 161.944 150.464 161.536C150.872 161.12 151.076 160.608 151.076 160C151.076 159.392 150.872 158.884 150.464 158.476C150.056 158.06 149.548 157.852 148.94 157.852C148.34 157.852 147.836 158.06 147.428 158.476C147.02 158.884 146.816 159.392 146.816 160C146.816 160.608 147.02 161.12 147.428 161.536C147.836 161.944 148.34 162.148 148.94 162.148ZM154.434 160.48C154.538 161.016 154.782 161.432 155.166 161.728C155.558 162.024 156.038 162.172 156.606 162.172C157.398 162.172 157.974 161.88 158.334 161.296L159.222 161.8C158.638 162.704 157.758 163.156 156.582 163.156C155.63 163.156 154.854 162.86 154.254 162.268C153.662 161.668 153.366 160.912 153.366 160C153.366 159.096 153.658 158.344 154.242 157.744C154.826 157.144 155.582 156.844 156.51 156.844C157.39 156.844 158.106 157.156 158.658 157.78C159.218 158.396 159.498 159.14 159.498 160.012C159.498 160.164 159.486 160.32 159.462 160.48H154.434ZM156.51 157.828C155.95 157.828 155.486 157.988 155.118 158.308C154.75 158.62 154.522 159.04 154.434 159.568H158.442C158.354 159 158.13 158.568 157.77 158.272C157.41 157.976 156.99 157.828 156.51 157.828ZM166.962 158.008H165.366V161.26C165.366 161.556 165.422 161.768 165.534 161.896C165.654 162.016 165.834 162.08 166.074 162.088C166.314 162.088 166.61 162.08 166.962 162.064V163C166.05 163.12 165.382 163.048 164.958 162.784C164.534 162.512 164.322 162.004 164.322 161.26V158.008H163.134V157H164.322V155.632L165.366 155.32V157H166.962V158.008ZM171.186 156.844C171.89 156.844 172.454 157.068 172.878 157.516C173.302 157.956 173.514 158.556 173.514 159.316V163H172.47V159.376C172.47 158.888 172.338 158.512 172.074 158.248C171.81 157.976 171.446 157.84 170.982 157.84C170.462 157.84 170.042 158.004 169.722 158.332C169.402 158.652 169.242 159.148 169.242 159.82V163H168.198V154.6H169.242V157.864C169.666 157.184 170.314 156.844 171.186 156.844ZM175.704 160.48C175.808 161.016 176.052 161.432 176.436 161.728C176.828 162.024 177.308 162.172 177.876 162.172C178.668 162.172 179.244 161.88 179.604 161.296L180.492 161.8C179.908 162.704 179.028 163.156 177.852 163.156C176.9 163.156 176.124 162.86 175.524 162.268C174.932 161.668 174.636 160.912 174.636 160C174.636 159.096 174.928 158.344 175.512 157.744C176.096 157.144 176.852 156.844 177.78 156.844C178.66 156.844 179.376 157.156 179.928 157.78C180.488 158.396 180.768 159.14 180.768 160.012C180.768 160.164 180.756 160.32 180.732 160.48H175.704ZM177.78 157.828C177.22 157.828 176.756 157.988 176.388 158.308C176.02 158.62 175.792 159.04 175.704 159.568H179.712C179.624 159 179.4 158.568 179.04 158.272C178.68 157.976 178.26 157.828 177.78 157.828ZM24.016 179.944H27.916V181H22.9V172.6H27.856V173.656H24.016V176.236H27.556V177.28H24.016V179.944ZM31.8464 181.156C30.9424 181.156 30.1904 180.856 29.5904 180.256C28.9904 179.648 28.6904 178.896 28.6904 178C28.6904 177.104 28.9904 176.356 29.5904 175.756C30.1904 175.148 30.9424 174.844 31.8464 174.844C32.4384 174.844 32.9704 174.988 33.4424 175.276C33.9144 175.556 34.2664 175.936 34.4984 176.416L33.6224 176.92C33.4704 176.6 33.2344 176.344 32.9144 176.152C32.6024 175.96 32.2464 175.864 31.8464 175.864C31.2464 175.864 30.7424 176.068 30.3344 176.476C29.9344 176.884 29.7344 177.392 29.7344 178C29.7344 178.6 29.9344 179.104 30.3344 179.512C30.7424 179.92 31.2464 180.124 31.8464 180.124C32.2464 180.124 32.6064 180.032 32.9264 179.848C33.2464 179.656 33.4904 179.4 33.6584 179.08L34.5464 179.596C34.2904 180.068 33.9224 180.448 33.4424 180.736C32.9624 181.016 32.4304 181.156 31.8464 181.156ZM38.5652 174.844C39.2692 174.844 39.8332 175.068 40.2572 175.516C40.6812 175.956 40.8932 176.556 40.8932 177.316V181H39.8492V177.376C39.8492 176.888 39.7172 176.512 39.4532 176.248C39.1892 175.976 38.8252 175.84 38.3612 175.84C37.8412 175.84 37.4212 176.004 37.1012 176.332C36.7812 176.652 36.6212 177.148 36.6212 177.82V181H35.5772V172.6H36.6212V175.864C37.0452 175.184 37.6932 174.844 38.5652 174.844ZM47.4146 180.244C46.7986 180.852 46.0506 181.156 45.1706 181.156C44.2906 181.156 43.5426 180.852 42.9266 180.244C42.3186 179.636 42.0146 178.888 42.0146 178C42.0146 177.112 42.3186 176.364 42.9266 175.756C43.5426 175.148 44.2906 174.844 45.1706 174.844C46.0506 174.844 46.7986 175.148 47.4146 175.756C48.0306 176.364 48.3386 177.112 48.3386 178C48.3386 178.888 48.0306 179.636 47.4146 180.244ZM45.1706 180.136C45.7706 180.136 46.2746 179.932 46.6826 179.524C47.0906 179.116 47.2946 178.608 47.2946 178C47.2946 177.392 47.0906 176.884 46.6826 176.476C46.2746 176.068 45.7706 175.864 45.1706 175.864C44.5786 175.864 44.0786 176.068 43.6706 176.476C43.2626 176.884 43.0586 177.392 43.0586 178C43.0586 178.608 43.2626 179.116 43.6706 179.524C44.0786 179.932 44.5786 180.136 45.1706 180.136ZM53.535 175H54.663L52.263 181H51.039L48.639 175H49.767L51.651 179.884L53.535 175ZM56.0435 178.48C56.1475 179.016 56.3915 179.432 56.7755 179.728C57.1675 180.024 57.6475 180.172 58.2155 180.172C59.0075 180.172 59.5835 179.88 59.9435 179.296L60.8315 179.8C60.2475 180.704 59.3675 181.156 58.1915 181.156C57.2395 181.156 56.4635 180.86 55.8635 180.268C55.2715 179.668 54.9755 178.912 54.9755 178C54.9755 177.096 55.2675 176.344 55.8515 175.744C56.4355 175.144 57.1915 174.844 58.1195 174.844C58.9995 174.844 59.7155 175.156 60.2675 175.78C60.8275 176.396 61.1075 177.14 61.1075 178.012C61.1075 178.164 61.0955 178.32 61.0715 178.48H56.0435ZM58.1195 175.828C57.5595 175.828 57.0955 175.988 56.7275 176.308C56.3595 176.62 56.1315 177.04 56.0435 177.568H60.0515C59.9635 177 59.7395 176.568 59.3795 176.272C59.0195 175.976 58.5995 175.828 58.1195 175.828ZM63.3516 176.008C63.6956 175.264 64.3196 174.892 65.2236 174.892V175.984C64.7116 175.96 64.2716 176.096 63.9036 176.392C63.5356 176.688 63.3516 177.164 63.3516 177.82V181H62.3076V175H63.3516V176.008ZM66.9225 176.62C66.9225 176.852 67.0385 177.04 67.2705 177.184C67.5025 177.32 67.7825 177.432 68.1105 177.52C68.4385 177.6 68.7665 177.696 69.0945 177.808C69.4225 177.912 69.7025 178.096 69.9345 178.36C70.1665 178.616 70.2825 178.948 70.2825 179.356C70.2825 179.9 70.0705 180.336 69.6465 180.664C69.2305 180.992 68.6945 181.156 68.0385 181.156C67.4545 181.156 66.9545 181.028 66.5385 180.772C66.1225 180.516 65.8265 180.176 65.6505 179.752L66.5505 179.236C66.6465 179.524 66.8265 179.752 67.0905 179.92C67.3545 180.088 67.6705 180.172 68.0385 180.172C68.3825 180.172 68.6665 180.108 68.8905 179.98C69.1145 179.844 69.2265 179.636 69.2265 179.356C69.2265 179.124 69.1105 178.94 68.8785 178.804C68.6465 178.66 68.3665 178.548 68.0385 178.468C67.7105 178.38 67.3825 178.28 67.0545 178.168C66.7265 178.056 66.4465 177.872 66.2145 177.616C65.9825 177.36 65.8665 177.032 65.8665 176.632C65.8665 176.112 66.0665 175.684 66.4665 175.348C66.8745 175.012 67.3825 174.844 67.9905 174.844C68.4785 174.844 68.9105 174.956 69.2865 175.18C69.6705 175.396 69.9585 175.7 70.1505 176.092L69.2745 176.584C69.0585 176.072 68.6305 175.816 67.9905 175.816C67.6945 175.816 67.4425 175.888 67.2345 176.032C67.0265 176.168 66.9225 176.364 66.9225 176.62ZM72.0865 178.48C72.1905 179.016 72.4345 179.432 72.8185 179.728C73.2105 180.024 73.6905 180.172 74.2585 180.172C75.0505 180.172 75.6265 179.88 75.9865 179.296L76.8745 179.8C76.2905 180.704 75.4105 181.156 74.2345 181.156C73.2825 181.156 72.5065 180.86 71.9065 180.268C71.3145 179.668 71.0185 178.912 71.0185 178C71.0185 177.096 71.3105 176.344 71.8945 175.744C72.4785 175.144 73.2345 174.844 74.1625 174.844C75.0425 174.844 75.7585 175.156 76.3105 175.78C76.8705 176.396 77.1505 177.14 77.1505 178.012C77.1505 178.164 77.1385 178.32 77.1145 178.48H72.0865ZM74.1625 175.828C73.6025 175.828 73.1385 175.988 72.7705 176.308C72.4025 176.62 72.1745 177.04 72.0865 177.568H76.0945C76.0065 177 75.7825 176.568 75.4225 176.272C75.0625 175.976 74.6425 175.828 74.1625 175.828ZM78.5301 181.132C78.3141 181.132 78.1301 181.056 77.9781 180.904C77.8261 180.752 77.7501 180.568 77.7501 180.352C77.7501 180.136 77.8261 179.952 77.9781 179.8C78.1301 179.648 78.3141 179.572 78.5301 179.572C78.7541 179.572 78.9381 179.648 79.0821 179.8C79.2341 179.952 79.3101 180.136 79.3101 180.352C79.3101 180.568 79.2341 180.752 79.0821 180.904C78.9381 181.056 78.7541 181.132 78.5301 181.132Z" fill="#1A1A1A"/>
</svg>
