<svg width="198" height="179" viewBox="0 0 240 231" fill="none" xmlns="http://www.w3.org/2000/svg">
<g style="mix-blend-mode:multiply">
<path d="M0 183.773H99.912L119.631 218L139.088 183.773H239V0H0V183.773Z" fill="#D1EACB"/>
</g>
<path d="M11.9581 18.748C11.7021 19.012 11.3861 19.144 11.0101 19.144C10.6341 19.144 10.3141 19.012 10.0501 18.748C9.78613 18.484 9.65413 18.164 9.65413 17.788C9.65413 17.412 9.78613 17.096 10.0501 16.84C10.3141 16.576 10.6341 16.444 11.0101 16.444C11.3861 16.444 11.7021 16.576 11.9581 16.84C12.2221 17.096 12.3541 17.412 12.3541 17.788C12.3541 18.164 12.2221 18.484 11.9581 18.748ZM24.176 13.6C25.32 13.6 26.268 14.008 27.02 14.824C27.78 15.632 28.16 16.624 28.16 17.8C28.16 18.976 27.78 19.972 27.02 20.788C26.268 21.596 25.32 22 24.176 22H20.9V13.6H24.176ZM24.176 20.944C25.032 20.944 25.732 20.644 26.276 20.044C26.82 19.444 27.092 18.696 27.092 17.8C27.092 16.904 26.82 16.156 26.276 15.556C25.732 14.956 25.032 14.656 24.176 14.656H22.016V20.944H24.176ZM30.1373 19.48C30.2413 20.016 30.4853 20.432 30.8693 20.728C31.2613 21.024 31.7413 21.172 32.3093 21.172C33.1013 21.172 33.6773 20.88 34.0373 20.296L34.9253 20.8C34.3413 21.704 33.4613 22.156 32.2853 22.156C31.3333 22.156 30.5573 21.86 29.9573 21.268C29.3653 20.668 29.0693 19.912 29.0693 19C29.0693 18.096 29.3613 17.344 29.9453 16.744C30.5293 16.144 31.2853 15.844 32.2133 15.844C33.0933 15.844 33.8093 16.156 34.3613 16.78C34.9213 17.396 35.2013 18.14 35.2013 19.012C35.2013 19.164 35.1893 19.32 35.1653 19.48H30.1373ZM32.2133 16.828C31.6533 16.828 31.1893 16.988 30.8213 17.308C30.4533 17.62 30.2253 18.04 30.1373 18.568H34.1453C34.0573 18 33.8333 17.568 33.4733 17.272C33.1133 16.976 32.6933 16.828 32.2133 16.828ZM37.067 17.62C37.067 17.852 37.183 18.04 37.415 18.184C37.647 18.32 37.927 18.432 38.255 18.52C38.583 18.6 38.911 18.696 39.239 18.808C39.567 18.912 39.847 19.096 40.079 19.36C40.311 19.616 40.427 19.948 40.427 20.356C40.427 20.9 40.215 21.336 39.791 21.664C39.375 21.992 38.839 22.156 38.183 22.156C37.599 22.156 37.099 22.028 36.683 21.772C36.267 21.516 35.971 21.176 35.795 20.752L36.695 20.236C36.791 20.524 36.971 20.752 37.235 20.92C37.499 21.088 37.815 21.172 38.183 21.172C38.527 21.172 38.811 21.108 39.035 20.98C39.259 20.844 39.371 20.636 39.371 20.356C39.371 20.124 39.255 19.94 39.023 19.804C38.791 19.66 38.511 19.548 38.183 19.468C37.855 19.38 37.527 19.28 37.199 19.168C36.871 19.056 36.591 18.872 36.359 18.616C36.127 18.36 36.011 18.032 36.011 17.632C36.011 17.112 36.211 16.684 36.611 16.348C37.019 16.012 37.527 15.844 38.135 15.844C38.623 15.844 39.055 15.956 39.431 16.18C39.815 16.396 40.103 16.7 40.295 17.092L39.419 17.584C39.203 17.072 38.775 16.816 38.135 16.816C37.839 16.816 37.587 16.888 37.379 17.032C37.171 17.168 37.067 17.364 37.067 17.62ZM42.1325 14.908C41.9325 14.908 41.7645 14.84 41.6285 14.704C41.4925 14.568 41.4245 14.404 41.4245 14.212C41.4245 14.02 41.4925 13.856 41.6285 13.72C41.7645 13.576 41.9325 13.504 42.1325 13.504C42.3245 13.504 42.4885 13.576 42.6245 13.72C42.7605 13.856 42.8285 14.02 42.8285 14.212C42.8285 14.404 42.7605 14.568 42.6245 14.704C42.4885 14.84 42.3245 14.908 42.1325 14.908ZM41.6045 22V16H42.6485V22H41.6045ZM49.2212 16H50.2532V21.748C50.2532 22.636 49.9532 23.324 49.3532 23.812C48.7532 24.308 48.0332 24.556 47.1932 24.556C46.5212 24.556 45.9412 24.428 45.4532 24.172C44.9652 23.924 44.5972 23.564 44.3492 23.092L45.2612 22.576C45.5892 23.248 46.2412 23.584 47.2172 23.584C47.8412 23.584 48.3292 23.42 48.6812 23.092C49.0412 22.764 49.2212 22.316 49.2212 21.748V20.896C48.6932 21.696 47.9412 22.096 46.9652 22.096C46.1092 22.096 45.3852 21.792 44.7932 21.184C44.2012 20.576 43.9052 19.836 43.9052 18.964C43.9052 18.092 44.2012 17.356 44.7932 16.756C45.3852 16.148 46.1092 15.844 46.9652 15.844C47.9492 15.844 48.7012 16.24 49.2212 17.032V16ZM45.5612 20.488C45.9692 20.896 46.4772 21.1 47.0852 21.1C47.6932 21.1 48.2012 20.896 48.6092 20.488C49.0172 20.08 49.2212 19.572 49.2212 18.964C49.2212 18.364 49.0172 17.86 48.6092 17.452C48.2012 17.044 47.6932 16.84 47.0852 16.84C46.4772 16.84 45.9692 17.044 45.5612 17.452C45.1532 17.86 44.9492 18.364 44.9492 18.964C44.9492 19.572 45.1532 20.08 45.5612 20.488ZM54.823 15.844C55.527 15.844 56.091 16.068 56.515 16.516C56.939 16.956 57.151 17.556 57.151 18.316V22H56.107V18.376C56.107 17.888 55.975 17.512 55.711 17.248C55.447 16.976 55.083 16.84 54.619 16.84C54.099 16.84 53.679 17.004 53.359 17.332C53.039 17.652 52.879 18.148 52.879 18.82V22H51.835V16H52.879V16.864C53.303 16.184 53.951 15.844 54.823 15.844ZM59.3404 19.48C59.4444 20.016 59.6884 20.432 60.0724 20.728C60.4644 21.024 60.9444 21.172 61.5124 21.172C62.3044 21.172 62.8804 20.88 63.2404 20.296L64.1284 20.8C63.5444 21.704 62.6644 22.156 61.4884 22.156C60.5364 22.156 59.7604 21.86 59.1604 21.268C58.5684 20.668 58.2724 19.912 58.2724 19C58.2724 18.096 58.5644 17.344 59.1484 16.744C59.7324 16.144 60.4884 15.844 61.4164 15.844C62.2964 15.844 63.0124 16.156 63.5644 16.78C64.1244 17.396 64.4044 18.14 64.4044 19.012C64.4044 19.164 64.3924 19.32 64.3684 19.48H59.3404ZM61.4164 16.828C60.8564 16.828 60.3924 16.988 60.0244 17.308C59.6564 17.62 59.4284 18.04 59.3404 18.568H63.3484C63.2604 18 63.0364 17.568 62.6764 17.272C62.3164 16.976 61.8964 16.828 61.4164 16.828ZM70.5608 13.6H71.6048V22H70.5608V20.968C70.0408 21.76 69.2848 22.156 68.2928 22.156C67.4528 22.156 66.7368 21.852 66.1448 21.244C65.5528 20.628 65.2568 19.88 65.2568 19C65.2568 18.12 65.5528 17.376 66.1448 16.768C66.7368 16.152 67.4528 15.844 68.2928 15.844C69.2848 15.844 70.0408 16.24 70.5608 17.032V13.6ZM68.4248 21.148C69.0328 21.148 69.5408 20.944 69.9488 20.536C70.3568 20.12 70.5608 19.608 70.5608 19C70.5608 18.392 70.3568 17.884 69.9488 17.476C69.5408 17.06 69.0328 16.852 68.4248 16.852C67.8248 16.852 67.3208 17.06 66.9128 17.476C66.5048 17.884 66.3008 18.392 66.3008 19C66.3008 19.608 66.5048 20.12 66.9128 20.536C67.3208 20.944 67.8248 21.148 68.4248 21.148ZM77.4105 20.944H81.3105V22H76.2945V13.6H81.2505V14.656H77.4105V17.236H80.9505V18.28H77.4105V20.944ZM85.2409 22.156C84.3369 22.156 83.5849 21.856 82.9849 21.256C82.3849 20.648 82.0849 19.896 82.0849 19C82.0849 18.104 82.3849 17.356 82.9849 16.756C83.5849 16.148 84.3369 15.844 85.2409 15.844C85.8329 15.844 86.3649 15.988 86.8369 16.276C87.3089 16.556 87.6609 16.936 87.8929 17.416L87.0169 17.92C86.8649 17.6 86.6289 17.344 86.3089 17.152C85.9969 16.96 85.6409 16.864 85.2409 16.864C84.6409 16.864 84.1369 17.068 83.7289 17.476C83.3289 17.884 83.1289 18.392 83.1289 19C83.1289 19.6 83.3289 20.104 83.7289 20.512C84.1369 20.92 84.6409 21.124 85.2409 21.124C85.6409 21.124 86.0009 21.032 86.3209 20.848C86.6409 20.656 86.8849 20.4 87.0529 20.08L87.9409 20.596C87.6849 21.068 87.3169 21.448 86.8369 21.736C86.3569 22.016 85.8249 22.156 85.2409 22.156ZM91.9597 15.844C92.6637 15.844 93.2277 16.068 93.6517 16.516C94.0757 16.956 94.2877 17.556 94.2877 18.316V22H93.2437V18.376C93.2437 17.888 93.1117 17.512 92.8477 17.248C92.5837 16.976 92.2197 16.84 91.7557 16.84C91.2357 16.84 90.8157 17.004 90.4957 17.332C90.1757 17.652 90.0157 18.148 90.0157 18.82V22H88.9717V13.6H90.0157V16.864C90.4397 16.184 91.0877 15.844 91.9597 15.844ZM100.809 21.244C100.193 21.852 99.4451 22.156 98.5651 22.156C97.6851 22.156 96.9371 21.852 96.3211 21.244C95.7131 20.636 95.4091 19.888 95.4091 19C95.4091 18.112 95.7131 17.364 96.3211 16.756C96.9371 16.148 97.6851 15.844 98.5651 15.844C99.4451 15.844 100.193 16.148 100.809 16.756C101.425 17.364 101.733 18.112 101.733 19C101.733 19.888 101.425 20.636 100.809 21.244ZM98.5651 21.136C99.1651 21.136 99.6691 20.932 100.077 20.524C100.485 20.116 100.689 19.608 100.689 19C100.689 18.392 100.485 17.884 100.077 17.476C99.6691 17.068 99.1651 16.864 98.5651 16.864C97.9731 16.864 97.4731 17.068 97.0651 17.476C96.6571 17.884 96.4531 18.392 96.4531 19C96.4531 19.608 96.6571 20.116 97.0651 20.524C97.4731 20.932 97.9731 21.136 98.5651 21.136ZM110.908 14.656H107.188V17.38H110.752V18.436H107.188V22H106.072V13.6H110.908V14.656ZM117.215 21.244C116.599 21.852 115.851 22.156 114.971 22.156C114.091 22.156 113.343 21.852 112.727 21.244C112.119 20.636 111.815 19.888 111.815 19C111.815 18.112 112.119 17.364 112.727 16.756C113.343 16.148 114.091 15.844 114.971 15.844C115.851 15.844 116.599 16.148 117.215 16.756C117.831 17.364 118.139 18.112 118.139 19C118.139 19.888 117.831 20.636 117.215 21.244ZM114.971 21.136C115.571 21.136 116.075 20.932 116.483 20.524C116.891 20.116 117.095 19.608 117.095 19C117.095 18.392 116.891 17.884 116.483 17.476C116.075 17.068 115.571 16.864 114.971 16.864C114.379 16.864 113.879 17.068 113.471 17.476C113.063 17.884 112.859 18.392 112.859 19C112.859 19.608 113.063 20.116 113.471 20.524C113.879 20.932 114.379 21.136 114.971 21.136ZM120.414 17.008C120.758 16.264 121.382 15.892 122.286 15.892V16.984C121.774 16.96 121.334 17.096 120.966 17.392C120.598 17.688 120.414 18.164 120.414 18.82V22H119.37V16H120.414V17.008ZM123.712 19.48C123.816 20.016 124.06 20.432 124.444 20.728C124.836 21.024 125.316 21.172 125.884 21.172C126.676 21.172 127.252 20.88 127.612 20.296L128.5 20.8C127.916 21.704 127.036 22.156 125.86 22.156C124.908 22.156 124.132 21.86 123.532 21.268C122.94 20.668 122.644 19.912 122.644 19C122.644 18.096 122.936 17.344 123.52 16.744C124.104 16.144 124.86 15.844 125.788 15.844C126.668 15.844 127.384 16.156 127.936 16.78C128.496 17.396 128.776 18.14 128.776 19.012C128.776 19.164 128.764 19.32 128.74 19.48H123.712ZM125.788 16.828C125.228 16.828 124.764 16.988 124.396 17.308C124.028 17.62 123.8 18.04 123.712 18.568H127.72C127.632 18 127.408 17.568 127.048 17.272C126.688 16.976 126.268 16.828 125.788 16.828ZM130.641 17.62C130.641 17.852 130.757 18.04 130.989 18.184C131.221 18.32 131.501 18.432 131.829 18.52C132.157 18.6 132.485 18.696 132.813 18.808C133.141 18.912 133.421 19.096 133.653 19.36C133.885 19.616 134.001 19.948 134.001 20.356C134.001 20.9 133.789 21.336 133.365 21.664C132.949 21.992 132.413 22.156 131.757 22.156C131.173 22.156 130.673 22.028 130.257 21.772C129.841 21.516 129.545 21.176 129.369 20.752L130.269 20.236C130.365 20.524 130.545 20.752 130.809 20.92C131.073 21.088 131.389 21.172 131.757 21.172C132.101 21.172 132.385 21.108 132.609 20.98C132.833 20.844 132.945 20.636 132.945 20.356C132.945 20.124 132.829 19.94 132.597 19.804C132.365 19.66 132.085 19.548 131.757 19.468C131.429 19.38 131.101 19.28 130.773 19.168C130.445 19.056 130.165 18.872 129.933 18.616C129.701 18.36 129.585 18.032 129.585 17.632C129.585 17.112 129.785 16.684 130.185 16.348C130.593 16.012 131.101 15.844 131.709 15.844C132.197 15.844 132.629 15.956 133.005 16.18C133.389 16.396 133.677 16.7 133.869 17.092L132.993 17.584C132.777 17.072 132.349 16.816 131.709 16.816C131.413 16.816 131.161 16.888 130.953 17.032C130.745 17.168 130.641 17.364 130.641 17.62ZM138.267 17.008H136.671V20.26C136.671 20.556 136.727 20.768 136.839 20.896C136.959 21.016 137.139 21.08 137.379 21.088C137.619 21.088 137.915 21.08 138.267 21.064V22C137.355 22.12 136.687 22.048 136.263 21.784C135.839 21.512 135.627 21.004 135.627 20.26V17.008H134.439V16H135.627V14.632L136.671 14.32V16H138.267V17.008ZM147.866 13.6H148.982V22H148.082L143.762 15.724V22H142.646V13.6H143.546L147.866 19.864V13.6ZM155.615 14.656H151.895V17.38H155.459V18.436H151.895V22H150.779V13.6H155.615V14.656ZM162.342 13.6V14.656H159.858V22H158.754V14.656H156.282V13.6H162.342ZM169.159 22.156C168.255 22.156 167.503 21.856 166.903 21.256C166.303 20.648 166.003 19.896 166.003 19C166.003 18.104 166.303 17.356 166.903 16.756C167.503 16.148 168.255 15.844 169.159 15.844C169.751 15.844 170.283 15.988 170.755 16.276C171.227 16.556 171.579 16.936 171.811 17.416L170.935 17.92C170.783 17.6 170.547 17.344 170.227 17.152C169.915 16.96 169.559 16.864 169.159 16.864C168.559 16.864 168.055 17.068 167.647 17.476C167.247 17.884 167.047 18.392 167.047 19C167.047 19.6 167.247 20.104 167.647 20.512C168.055 20.92 168.559 21.124 169.159 21.124C169.559 21.124 169.919 21.032 170.239 20.848C170.559 20.656 170.803 20.4 170.971 20.08L171.859 20.596C171.603 21.068 171.235 21.448 170.755 21.736C170.275 22.016 169.743 22.156 169.159 22.156ZM177.872 21.244C177.256 21.852 176.508 22.156 175.628 22.156C174.748 22.156 174 21.852 173.384 21.244C172.776 20.636 172.472 19.888 172.472 19C172.472 18.112 172.776 17.364 173.384 16.756C174 16.148 174.748 15.844 175.628 15.844C176.508 15.844 177.256 16.148 177.872 16.756C178.488 17.364 178.796 18.112 178.796 19C178.796 19.888 178.488 20.636 177.872 21.244ZM175.628 21.136C176.228 21.136 176.732 20.932 177.14 20.524C177.548 20.116 177.752 19.608 177.752 19C177.752 18.392 177.548 17.884 177.14 17.476C176.732 17.068 176.228 16.864 175.628 16.864C175.036 16.864 174.536 17.068 174.128 17.476C173.72 17.884 173.516 18.392 173.516 19C173.516 19.608 173.72 20.116 174.128 20.524C174.536 20.932 175.036 21.136 175.628 21.136ZM180.026 22V13.24H181.07V22H180.026ZM182.663 22V13.24H183.707V22H182.663ZM186.032 19.48C186.136 20.016 186.38 20.432 186.764 20.728C187.156 21.024 187.636 21.172 188.204 21.172C188.996 21.172 189.572 20.88 189.932 20.296L190.82 20.8C190.236 21.704 189.356 22.156 188.18 22.156C187.228 22.156 186.452 21.86 185.852 21.268C185.26 20.668 184.964 19.912 184.964 19C184.964 18.096 185.256 17.344 185.84 16.744C186.424 16.144 187.18 15.844 188.108 15.844C188.988 15.844 189.704 16.156 190.256 16.78C190.816 17.396 191.096 18.14 191.096 19.012C191.096 19.164 191.084 19.32 191.06 19.48H186.032ZM188.108 16.828C187.548 16.828 187.084 16.988 186.716 17.308C186.348 17.62 186.12 18.04 186.032 18.568H190.04C189.952 18 189.728 17.568 189.368 17.272C189.008 16.976 188.588 16.828 188.108 16.828ZM195.104 22.156C194.2 22.156 193.448 21.856 192.848 21.256C192.248 20.648 191.948 19.896 191.948 19C191.948 18.104 192.248 17.356 192.848 16.756C193.448 16.148 194.2 15.844 195.104 15.844C195.696 15.844 196.228 15.988 196.7 16.276C197.172 16.556 197.524 16.936 197.756 17.416L196.88 17.92C196.728 17.6 196.492 17.344 196.172 17.152C195.86 16.96 195.504 16.864 195.104 16.864C194.504 16.864 194 17.068 193.592 17.476C193.192 17.884 192.992 18.392 192.992 19C192.992 19.6 193.192 20.104 193.592 20.512C194 20.92 194.504 21.124 195.104 21.124C195.504 21.124 195.864 21.032 196.184 20.848C196.504 20.656 196.748 20.4 196.916 20.08L197.804 20.596C197.548 21.068 197.18 21.448 196.7 21.736C196.22 22.016 195.688 22.156 195.104 22.156ZM202.099 17.008H200.503V20.26C200.503 20.556 200.559 20.768 200.671 20.896C200.791 21.016 200.971 21.08 201.211 21.088C201.451 21.088 201.747 21.08 202.099 21.064V22C201.187 22.12 200.519 22.048 200.095 21.784C199.671 21.512 199.459 21.004 199.459 20.26V17.008H198.271V16H199.459V14.632L200.503 14.32V16H202.099V17.008ZM203.863 14.908C203.663 14.908 203.495 14.84 203.359 14.704C203.223 14.568 203.155 14.404 203.155 14.212C203.155 14.02 203.223 13.856 203.359 13.72C203.495 13.576 203.663 13.504 203.863 13.504C204.055 13.504 204.219 13.576 204.355 13.72C204.491 13.856 204.559 14.02 204.559 14.212C204.559 14.404 204.491 14.568 204.355 14.704C204.219 14.84 204.055 14.908 203.863 14.908ZM203.335 22V16H204.379V22H203.335ZM211.036 21.244C210.42 21.852 209.672 22.156 208.792 22.156C207.912 22.156 207.164 21.852 206.548 21.244C205.94 20.636 205.636 19.888 205.636 19C205.636 18.112 205.94 17.364 206.548 16.756C207.164 16.148 207.912 15.844 208.792 15.844C209.672 15.844 210.42 16.148 211.036 16.756C211.652 17.364 211.96 18.112 211.96 19C211.96 19.888 211.652 20.636 211.036 21.244ZM208.792 21.136C209.392 21.136 209.896 20.932 210.304 20.524C210.712 20.116 210.916 19.608 210.916 19C210.916 18.392 210.712 17.884 210.304 17.476C209.896 17.068 209.392 16.864 208.792 16.864C208.2 16.864 207.7 17.068 207.292 17.476C206.884 17.884 206.68 18.392 206.68 19C206.68 19.608 206.884 20.116 207.292 20.524C207.7 20.932 208.2 21.136 208.792 21.136ZM216.178 15.844C216.882 15.844 217.446 16.068 217.87 16.516C218.294 16.956 218.506 17.556 218.506 18.316V22H217.462V18.376C217.462 17.888 217.33 17.512 217.066 17.248C216.802 16.976 216.438 16.84 215.974 16.84C215.454 16.84 215.034 17.004 214.714 17.332C214.394 17.652 214.234 18.148 214.234 18.82V22H213.19V16H214.234V16.864C214.658 16.184 215.306 15.844 216.178 15.844ZM27.86 34H28.952L27.092 40H26.024L24.62 35.56L23.216 40H22.148L20.288 34H21.38L22.7 38.56L24.116 34H25.124L26.54 38.572L27.86 34ZM30.5544 32.908C30.3544 32.908 30.1864 32.84 30.0504 32.704C29.9144 32.568 29.8464 32.404 29.8464 32.212C29.8464 32.02 29.9144 31.856 30.0504 31.72C30.1864 31.576 30.3544 31.504 30.5544 31.504C30.7464 31.504 30.9104 31.576 31.0464 31.72C31.1824 31.856 31.2504 32.02 31.2504 32.212C31.2504 32.404 31.1824 32.568 31.0464 32.704C30.9104 32.84 30.7464 32.908 30.5544 32.908ZM30.0264 40V34H31.0704V40H30.0264ZM35.9271 35.008H34.3311V38.26C34.3311 38.556 34.3871 38.768 34.4991 38.896C34.6191 39.016 34.7991 39.08 35.0391 39.088C35.2791 39.088 35.5751 39.08 35.9271 39.064V40C35.0151 40.12 34.3471 40.048 33.9231 39.784C33.4991 39.512 33.2871 39.004 33.2871 38.26V35.008H32.0991V34H33.2871V32.632L34.3311 32.32V34H35.9271V35.008ZM40.1511 33.844C40.8551 33.844 41.4191 34.068 41.8431 34.516C42.2671 34.956 42.4791 35.556 42.4791 36.316V40H41.4351V36.376C41.4351 35.888 41.3031 35.512 41.0391 35.248C40.7751 34.976 40.4111 34.84 39.9471 34.84C39.4271 34.84 39.0071 35.004 38.6871 35.332C38.3671 35.652 38.2071 36.148 38.2071 36.82V40H37.1631V31.6H38.2071V34.864C38.6311 34.184 39.2791 33.844 40.1511 33.844ZM52.0005 39.244C51.3845 39.852 50.6365 40.156 49.7565 40.156C48.8765 40.156 48.1285 39.852 47.5125 39.244C46.9045 38.636 46.6005 37.888 46.6005 37C46.6005 36.112 46.9045 35.364 47.5125 34.756C48.1285 34.148 48.8765 33.844 49.7565 33.844C50.6365 33.844 51.3845 34.148 52.0005 34.756C52.6165 35.364 52.9245 36.112 52.9245 37C52.9245 37.888 52.6165 38.636 52.0005 39.244ZM49.7565 39.136C50.3565 39.136 50.8605 38.932 51.2685 38.524C51.6765 38.116 51.8805 37.608 51.8805 37C51.8805 36.392 51.6765 35.884 51.2685 35.476C50.8605 35.068 50.3565 34.864 49.7565 34.864C49.1645 34.864 48.6645 35.068 48.2565 35.476C47.8485 35.884 47.6445 36.392 47.6445 37C47.6445 37.608 47.8485 38.116 48.2565 38.524C48.6645 38.932 49.1645 39.136 49.7565 39.136ZM58.1209 34H59.2489L56.8489 40H55.6249L53.2249 34H54.3529L56.2369 38.884L58.1209 34ZM60.6295 37.48C60.7335 38.016 60.9775 38.432 61.3615 38.728C61.7535 39.024 62.2335 39.172 62.8015 39.172C63.5935 39.172 64.1695 38.88 64.5295 38.296L65.4175 38.8C64.8335 39.704 63.9535 40.156 62.7775 40.156C61.8255 40.156 61.0495 39.86 60.4495 39.268C59.8575 38.668 59.5615 37.912 59.5615 37C59.5615 36.096 59.8535 35.344 60.4375 34.744C61.0215 34.144 61.7775 33.844 62.7055 33.844C63.5855 33.844 64.3015 34.156 64.8535 34.78C65.4135 35.396 65.6935 36.14 65.6935 37.012C65.6935 37.164 65.6815 37.32 65.6575 37.48H60.6295ZM62.7055 34.828C62.1455 34.828 61.6815 34.988 61.3135 35.308C60.9455 35.62 60.7175 36.04 60.6295 36.568H64.6375C64.5495 36 64.3255 35.568 63.9655 35.272C63.6055 34.976 63.1855 34.828 62.7055 34.828ZM67.9376 35.008C68.2816 34.264 68.9056 33.892 69.8096 33.892V34.984C69.2976 34.96 68.8576 35.096 68.4896 35.392C68.1216 35.688 67.9376 36.164 67.9376 36.82V40H66.8936V34H67.9376V35.008ZM76.2791 34.876C77.0711 34.876 77.7391 35.112 78.2831 35.584C78.8351 36.048 79.1111 36.692 79.1111 37.516C79.1111 38.332 78.8311 38.976 78.2711 39.448C77.7111 39.92 77.0311 40.156 76.2311 40.156C75.5911 40.156 75.0191 40.004 74.5151 39.7C74.0111 39.388 73.6591 38.94 73.4591 38.356L74.4071 37.816C74.5191 38.224 74.7351 38.536 75.0551 38.752C75.3751 38.96 75.7671 39.064 76.2311 39.064C76.7591 39.064 77.1871 38.928 77.5151 38.656C77.8431 38.384 78.0071 38.004 78.0071 37.516C78.0071 37.028 77.8431 36.648 77.5151 36.376C77.1871 36.096 76.7671 35.956 76.2551 35.956H73.8791L74.1911 31.6H78.7871V32.644H75.1991L75.0551 34.876H76.2791ZM85.5117 38.968C84.9438 39.76 84.1478 40.156 83.1238 40.156C82.0998 40.156 81.3038 39.76 80.7358 38.968C80.1678 38.176 79.8838 37.12 79.8838 35.8C79.8838 34.48 80.1678 33.424 80.7358 32.632C81.3038 31.84 82.0998 31.444 83.1238 31.444C84.1478 31.444 84.9438 31.84 85.5117 32.632C86.0798 33.424 86.3638 34.48 86.3638 35.8C86.3638 37.12 86.0798 38.176 85.5117 38.968ZM81.5518 38.212C81.9198 38.78 82.4438 39.064 83.1238 39.064C83.8038 39.064 84.3278 38.78 84.6958 38.212C85.0718 37.644 85.2598 36.84 85.2598 35.8C85.2598 34.76 85.0718 33.956 84.6958 33.388C84.3278 32.812 83.8038 32.524 83.1238 32.524C82.4438 32.524 81.9198 32.808 81.5518 33.376C81.1838 33.944 80.9998 34.752 80.9998 35.8C80.9998 36.84 81.1838 37.644 81.5518 38.212ZM93.0703 38.968C92.5023 39.76 91.7063 40.156 90.6823 40.156C89.6583 40.156 88.8623 39.76 88.2943 38.968C87.7263 38.176 87.4423 37.12 87.4423 35.8C87.4423 34.48 87.7263 33.424 88.2943 32.632C88.8623 31.84 89.6583 31.444 90.6823 31.444C91.7063 31.444 92.5023 31.84 93.0703 32.632C93.6383 33.424 93.9223 34.48 93.9223 35.8C93.9223 37.12 93.6383 38.176 93.0703 38.968ZM89.1103 38.212C89.4783 38.78 90.0023 39.064 90.6823 39.064C91.3623 39.064 91.8863 38.78 92.2543 38.212C92.6303 37.644 92.8183 36.84 92.8183 35.8C92.8183 34.76 92.6303 33.956 92.2543 33.388C91.8863 32.812 91.3623 32.524 90.6823 32.524C90.0023 32.524 89.4783 32.808 89.1103 33.376C88.7423 33.944 88.5583 34.752 88.5583 35.8C88.5583 36.84 88.7423 37.644 89.1103 38.212ZM100.317 35.296V36.292H98.2289V38.38H97.2329V36.292H95.1569V35.296H97.2329V33.22H98.2289V35.296H100.317ZM108.932 34H109.976V40H108.932V39.136C108.508 39.816 107.86 40.156 106.988 40.156C106.284 40.156 105.72 39.936 105.296 39.496C104.872 39.048 104.66 38.444 104.66 37.684V34H105.704V37.624C105.704 38.112 105.836 38.492 106.1 38.764C106.364 39.028 106.728 39.16 107.192 39.16C107.712 39.16 108.132 39 108.452 38.68C108.772 38.352 108.932 37.852 108.932 37.18V34ZM114.553 33.844C115.257 33.844 115.821 34.068 116.245 34.516C116.669 34.956 116.881 35.556 116.881 36.316V40H115.837V36.376C115.837 35.888 115.705 35.512 115.441 35.248C115.177 34.976 114.813 34.84 114.349 34.84C113.829 34.84 113.409 35.004 113.089 35.332C112.769 35.652 112.609 36.148 112.609 36.82V40H111.565V34H112.609V34.864C113.033 34.184 113.681 33.844 114.553 33.844ZM118.867 32.908C118.667 32.908 118.499 32.84 118.363 32.704C118.227 32.568 118.159 32.404 118.159 32.212C118.159 32.02 118.227 31.856 118.363 31.72C118.499 31.576 118.667 31.504 118.867 31.504C119.059 31.504 119.223 31.576 119.359 31.72C119.495 31.856 119.563 32.02 119.563 32.212C119.563 32.404 119.495 32.568 119.359 32.704C119.223 32.84 119.059 32.908 118.867 32.908ZM118.339 40V34H119.383V40H118.339ZM125.944 34H126.988V42.4H125.944V38.968C125.424 39.76 124.668 40.156 123.676 40.156C122.836 40.156 122.12 39.852 121.528 39.244C120.936 38.628 120.64 37.88 120.64 37C120.64 36.12 120.936 35.376 121.528 34.768C122.12 34.152 122.836 33.844 123.676 33.844C124.668 33.844 125.424 34.24 125.944 35.032V34ZM123.808 39.148C124.416 39.148 124.924 38.944 125.332 38.536C125.74 38.12 125.944 37.608 125.944 37C125.944 36.392 125.74 35.884 125.332 35.476C124.924 35.06 124.416 34.852 123.808 34.852C123.208 34.852 122.704 35.06 122.296 35.476C121.888 35.884 121.684 36.392 121.684 37C121.684 37.608 121.888 38.12 122.296 38.536C122.704 38.944 123.208 39.148 123.808 39.148ZM132.709 34H133.753V40H132.709V39.136C132.285 39.816 131.637 40.156 130.765 40.156C130.061 40.156 129.497 39.936 129.073 39.496C128.649 39.048 128.437 38.444 128.437 37.684V34H129.481V37.624C129.481 38.112 129.613 38.492 129.877 38.764C130.141 39.028 130.505 39.16 130.969 39.16C131.489 39.16 131.909 39 132.229 38.68C132.549 38.352 132.709 37.852 132.709 37.18V34ZM136.075 37.48C136.179 38.016 136.423 38.432 136.807 38.728C137.199 39.024 137.679 39.172 138.247 39.172C139.039 39.172 139.615 38.88 139.975 38.296L140.863 38.8C140.279 39.704 139.399 40.156 138.223 40.156C137.271 40.156 136.495 39.86 135.895 39.268C135.303 38.668 135.007 37.912 135.007 37C135.007 36.096 135.299 35.344 135.883 34.744C136.467 34.144 137.223 33.844 138.151 33.844C139.031 33.844 139.747 34.156 140.299 34.78C140.859 35.396 141.139 36.14 141.139 37.012C141.139 37.164 141.127 37.32 141.103 37.48H136.075ZM138.151 34.828C137.591 34.828 137.127 34.988 136.759 35.308C136.391 35.62 136.163 36.04 136.075 36.568H140.083C139.995 36 139.771 35.568 139.411 35.272C139.051 34.976 138.631 34.828 138.151 34.828ZM150.307 34H151.351V40H150.307V38.968C149.787 39.76 149.031 40.156 148.039 40.156C147.199 40.156 146.483 39.852 145.891 39.244C145.299 38.628 145.003 37.88 145.003 37C145.003 36.12 145.299 35.376 145.891 34.768C146.483 34.152 147.199 33.844 148.039 33.844C149.031 33.844 149.787 34.24 150.307 35.032V34ZM148.171 39.148C148.779 39.148 149.287 38.944 149.695 38.536C150.103 38.12 150.307 37.608 150.307 37C150.307 36.392 150.103 35.884 149.695 35.476C149.287 35.06 148.779 34.852 148.171 34.852C147.571 34.852 147.067 35.06 146.659 35.476C146.251 35.884 146.047 36.392 146.047 37C146.047 37.608 146.251 38.12 146.659 38.536C147.067 38.944 147.571 39.148 148.171 39.148ZM156.197 35.008H154.601V38.26C154.601 38.556 154.657 38.768 154.769 38.896C154.889 39.016 155.069 39.08 155.309 39.088C155.549 39.088 155.845 39.08 156.197 39.064V40C155.285 40.12 154.617 40.048 154.193 39.784C153.769 39.512 153.557 39.004 153.557 38.26V35.008H152.369V34H153.557V32.632L154.601 32.32V34H156.197V35.008ZM160.38 35.008H158.784V38.26C158.784 38.556 158.84 38.768 158.952 38.896C159.072 39.016 159.252 39.08 159.492 39.088C159.732 39.088 160.028 39.08 160.38 39.064V40C159.468 40.12 158.8 40.048 158.376 39.784C157.952 39.512 157.74 39.004 157.74 38.26V35.008H156.552V34H157.74V32.632L158.784 32.32V34H160.38V35.008ZM162.695 35.008C163.039 34.264 163.663 33.892 164.567 33.892V34.984C164.055 34.96 163.615 35.096 163.247 35.392C162.879 35.688 162.695 36.164 162.695 36.82V40H161.651V34H162.695V35.008ZM166.117 32.908C165.917 32.908 165.749 32.84 165.613 32.704C165.477 32.568 165.409 32.404 165.409 32.212C165.409 32.02 165.477 31.856 165.613 31.72C165.749 31.576 165.917 31.504 166.117 31.504C166.309 31.504 166.473 31.576 166.609 31.72C166.745 31.856 166.813 32.02 166.813 32.212C166.813 32.404 166.745 32.568 166.609 32.704C166.473 32.84 166.309 32.908 166.117 32.908ZM165.589 40V34H166.633V40H165.589ZM171.538 33.844C172.378 33.844 173.094 34.152 173.686 34.768C174.278 35.376 174.574 36.12 174.574 37C174.574 37.88 174.278 38.628 173.686 39.244C173.094 39.852 172.378 40.156 171.538 40.156C170.546 40.156 169.79 39.76 169.27 38.968V40H168.226V31.6H169.27V35.032C169.79 34.24 170.546 33.844 171.538 33.844ZM171.406 39.148C172.006 39.148 172.51 38.944 172.918 38.536C173.326 38.12 173.53 37.608 173.53 37C173.53 36.392 173.326 35.884 172.918 35.476C172.51 35.06 172.006 34.852 171.406 34.852C170.798 34.852 170.29 35.06 169.882 35.476C169.474 35.884 169.27 36.392 169.27 37C169.27 37.608 169.474 38.12 169.882 38.536C170.29 38.944 170.798 39.148 171.406 39.148ZM179.959 34H181.003V40H179.959V39.136C179.535 39.816 178.887 40.156 178.015 40.156C177.311 40.156 176.747 39.936 176.323 39.496C175.899 39.048 175.687 38.444 175.687 37.684V34H176.731V37.624C176.731 38.112 176.863 38.492 177.127 38.764C177.391 39.028 177.755 39.16 178.219 39.16C178.739 39.16 179.159 39 179.479 38.68C179.799 38.352 179.959 37.852 179.959 37.18V34ZM185.857 35.008H184.261V38.26C184.261 38.556 184.317 38.768 184.429 38.896C184.549 39.016 184.729 39.08 184.969 39.088C185.209 39.088 185.505 39.08 185.857 39.064V40C184.945 40.12 184.277 40.048 183.853 39.784C183.429 39.512 183.217 39.004 183.217 38.26V35.008H182.029V34H183.217V32.632L184.261 32.32V34H185.857V35.008ZM187.52 37.48C187.624 38.016 187.868 38.432 188.252 38.728C188.644 39.024 189.124 39.172 189.692 39.172C190.484 39.172 191.06 38.88 191.42 38.296L192.308 38.8C191.724 39.704 190.844 40.156 189.668 40.156C188.716 40.156 187.94 39.86 187.34 39.268C186.748 38.668 186.452 37.912 186.452 37C186.452 36.096 186.744 35.344 187.328 34.744C187.912 34.144 188.668 33.844 189.596 33.844C190.476 33.844 191.192 34.156 191.744 34.78C192.304 35.396 192.584 36.14 192.584 37.012C192.584 37.164 192.572 37.32 192.548 37.48H187.52ZM189.596 34.828C189.036 34.828 188.572 34.988 188.204 35.308C187.836 35.62 187.608 36.04 187.52 36.568H191.528C191.44 36 191.216 35.568 190.856 35.272C190.496 34.976 190.076 34.828 189.596 34.828ZM194.45 35.62C194.45 35.852 194.566 36.04 194.798 36.184C195.03 36.32 195.31 36.432 195.638 36.52C195.966 36.6 196.294 36.696 196.622 36.808C196.95 36.912 197.23 37.096 197.462 37.36C197.694 37.616 197.81 37.948 197.81 38.356C197.81 38.9 197.598 39.336 197.174 39.664C196.758 39.992 196.222 40.156 195.566 40.156C194.982 40.156 194.482 40.028 194.066 39.772C193.65 39.516 193.354 39.176 193.178 38.752L194.078 38.236C194.174 38.524 194.354 38.752 194.618 38.92C194.882 39.088 195.198 39.172 195.566 39.172C195.91 39.172 196.194 39.108 196.418 38.98C196.642 38.844 196.754 38.636 196.754 38.356C196.754 38.124 196.638 37.94 196.406 37.804C196.174 37.66 195.894 37.548 195.566 37.468C195.238 37.38 194.91 37.28 194.582 37.168C194.254 37.056 193.974 36.872 193.742 36.616C193.51 36.36 193.394 36.032 193.394 35.632C193.394 35.112 193.594 34.684 193.994 34.348C194.402 34.012 194.91 33.844 195.518 33.844C196.006 33.844 196.438 33.956 196.814 34.18C197.198 34.396 197.486 34.7 197.678 35.092L196.802 35.584C196.586 35.072 196.158 34.816 195.518 34.816C195.222 34.816 194.97 34.888 194.762 35.032C194.554 35.168 194.45 35.364 194.45 35.62ZM199.31 37.54L199.082 34V31.6H200.342V34L200.114 37.54H199.31ZM199.706 40.132C199.49 40.132 199.306 40.056 199.154 39.904C199.002 39.752 198.926 39.568 198.926 39.352C198.926 39.136 199.002 38.952 199.154 38.8C199.306 38.648 199.49 38.572 199.706 38.572C199.93 38.572 200.114 38.648 200.258 38.8C200.41 38.952 200.486 39.136 200.486 39.352C200.486 39.568 200.41 39.752 200.258 39.904C200.114 40.056 199.93 40.132 199.706 40.132Z" fill="#1A1A1A"/>
<path d="M11.9581 63.748C11.7021 64.012 11.3861 64.144 11.0101 64.144C10.6341 64.144 10.3141 64.012 10.0501 63.748C9.78613 63.484 9.65413 63.164 9.65413 62.788C9.65413 62.412 9.78613 62.096 10.0501 61.84C10.3141 61.576 10.6341 61.444 11.0101 61.444C11.3861 61.444 11.7021 61.576 11.9581 61.84C12.2221 62.096 12.3541 62.412 12.3541 62.788C12.3541 63.164 12.2221 63.484 11.9581 63.748ZM28.76 58.6V67H27.656V60.436L24.908 65.008H24.764L22.016 60.448V67H20.9V58.6H22.16L24.836 63.04L27.5 58.6H28.76ZM30.9763 59.908C30.7763 59.908 30.6083 59.84 30.4723 59.704C30.3363 59.568 30.2683 59.404 30.2683 59.212C30.2683 59.02 30.3363 58.856 30.4723 58.72C30.6083 58.576 30.7763 58.504 30.9763 58.504C31.1683 58.504 31.3323 58.576 31.4683 58.72C31.6043 58.856 31.6723 59.02 31.6723 59.212C31.6723 59.404 31.6043 59.568 31.4683 59.704C31.3323 59.84 31.1683 59.908 30.9763 59.908ZM30.4482 67V61H31.4923V67H30.4482ZM36.073 60.844C36.777 60.844 37.341 61.068 37.765 61.516C38.189 61.956 38.401 62.556 38.401 63.316V67H37.357V63.376C37.357 62.888 37.225 62.512 36.961 62.248C36.697 61.976 36.333 61.84 35.869 61.84C35.349 61.84 34.929 62.004 34.609 62.332C34.289 62.652 34.129 63.148 34.129 63.82V67H33.085V61H34.129V61.864C34.553 61.184 35.201 60.844 36.073 60.844ZM43.1224 62.008H41.5264V65.26C41.5264 65.556 41.5824 65.768 41.6944 65.896C41.8144 66.016 41.9944 66.08 42.2344 66.088C42.4744 66.088 42.7704 66.08 43.1224 66.064V67C42.2104 67.12 41.5424 67.048 41.1184 66.784C40.6944 66.512 40.4824 66.004 40.4824 65.26V62.008H39.2944V61H40.4824V59.632L41.5264 59.32V61H43.1224V62.008ZM44.7857 64.48C44.8897 65.016 45.1337 65.432 45.5177 65.728C45.9097 66.024 46.3897 66.172 46.9577 66.172C47.7497 66.172 48.3257 65.88 48.6857 65.296L49.5737 65.8C48.9897 66.704 48.1097 67.156 46.9337 67.156C45.9817 67.156 45.2057 66.86 44.6057 66.268C44.0137 65.668 43.7177 64.912 43.7177 64C43.7177 63.096 44.0097 62.344 44.5937 61.744C45.1777 61.144 45.9337 60.844 46.8617 60.844C47.7417 60.844 48.4577 61.156 49.0097 61.78C49.5697 62.396 49.8497 63.14 49.8497 64.012C49.8497 64.164 49.8377 64.32 49.8137 64.48H44.7857ZM46.8617 61.828C46.3017 61.828 45.8377 61.988 45.4697 62.308C45.1017 62.62 44.8737 63.04 44.7857 63.568H48.7937C48.7057 63 48.4817 62.568 48.1217 62.272C47.7617 61.976 47.3417 61.828 46.8617 61.828ZM56.0061 58.6H57.0501V67H56.0061V65.968C55.4861 66.76 54.7301 67.156 53.7381 67.156C52.8981 67.156 52.1821 66.852 51.5901 66.244C50.9981 65.628 50.7021 64.88 50.7021 64C50.7021 63.12 50.9981 62.376 51.5901 61.768C52.1821 61.152 52.8981 60.844 53.7381 60.844C54.7301 60.844 55.4861 61.24 56.0061 62.032V58.6ZM53.8701 66.148C54.4781 66.148 54.9861 65.944 55.3941 65.536C55.8021 65.12 56.0061 64.608 56.0061 64C56.0061 63.392 55.8021 62.884 55.3941 62.476C54.9861 62.06 54.4781 61.852 53.8701 61.852C53.2701 61.852 52.7661 62.06 52.3581 62.476C51.9501 62.884 51.7461 63.392 51.7461 64C51.7461 64.608 51.9501 65.12 52.3581 65.536C52.7661 65.944 53.2701 66.148 53.8701 66.148ZM64.8958 62.008H63.2998V65.26C63.2998 65.556 63.3558 65.768 63.4678 65.896C63.5878 66.016 63.7678 66.08 64.0078 66.088C64.2478 66.088 64.5438 66.08 64.8958 66.064V67C63.9838 67.12 63.3158 67.048 62.8918 66.784C62.4678 66.512 62.2558 66.004 62.2558 65.26V62.008H61.0678V61H62.2558V59.632L63.2998 59.32V61H64.8958V62.008ZM69.1198 60.844C69.8238 60.844 70.3878 61.068 70.8118 61.516C71.2358 61.956 71.4478 62.556 71.4478 63.316V67H70.4038V63.376C70.4038 62.888 70.2718 62.512 70.0078 62.248C69.7438 61.976 69.3798 61.84 68.9158 61.84C68.3958 61.84 67.9758 62.004 67.6558 62.332C67.3358 62.652 67.1758 63.148 67.1758 63.82V67H66.1318V58.6H67.1758V61.864C67.5998 61.184 68.2478 60.844 69.1198 60.844ZM73.6373 64.48C73.7413 65.016 73.9853 65.432 74.3693 65.728C74.7613 66.024 75.2413 66.172 75.8093 66.172C76.6013 66.172 77.1773 65.88 77.5373 65.296L78.4253 65.8C77.8413 66.704 76.9613 67.156 75.7853 67.156C74.8333 67.156 74.0573 66.86 73.4573 66.268C72.8653 65.668 72.5693 64.912 72.5693 64C72.5693 63.096 72.8613 62.344 73.4453 61.744C74.0293 61.144 74.7853 60.844 75.7133 60.844C76.5933 60.844 77.3093 61.156 77.8613 61.78C78.4213 62.396 78.7013 63.14 78.7013 64.012C78.7013 64.164 78.6893 64.32 78.6653 64.48H73.6373ZM75.7133 61.828C75.1533 61.828 74.6893 61.988 74.3213 62.308C73.9533 62.62 73.7253 63.04 73.6373 63.568H77.6453C77.5573 63 77.3333 62.568 76.9733 62.272C76.6133 61.976 76.1933 61.828 75.7133 61.828ZM87.8814 61H88.9134V66.748C88.9134 67.636 88.6134 68.324 88.0134 68.812C87.4134 69.308 86.6934 69.556 85.8534 69.556C85.1814 69.556 84.6014 69.428 84.1134 69.172C83.6254 68.924 83.2574 68.564 83.0094 68.092L83.9214 67.576C84.2494 68.248 84.9014 68.584 85.8774 68.584C86.5014 68.584 86.9894 68.42 87.3414 68.092C87.7014 67.764 87.8814 67.316 87.8814 66.748V65.896C87.3534 66.696 86.6014 67.096 85.6254 67.096C84.7694 67.096 84.0454 66.792 83.4534 66.184C82.8614 65.576 82.5654 64.836 82.5654 63.964C82.5654 63.092 82.8614 62.356 83.4534 61.756C84.0454 61.148 84.7694 60.844 85.6254 60.844C86.6094 60.844 87.3614 61.24 87.8814 62.032V61ZM84.2214 65.488C84.6294 65.896 85.1374 66.1 85.7454 66.1C86.3534 66.1 86.8614 65.896 87.2694 65.488C87.6774 65.08 87.8814 64.572 87.8814 63.964C87.8814 63.364 87.6774 62.86 87.2694 62.452C86.8614 62.044 86.3534 61.84 85.7454 61.84C85.1374 61.84 84.6294 62.044 84.2214 62.452C83.8134 62.86 83.6094 63.364 83.6094 63.964C83.6094 64.572 83.8134 65.08 84.2214 65.488ZM91.2271 64.48C91.3311 65.016 91.5751 65.432 91.9591 65.728C92.3511 66.024 92.8311 66.172 93.3991 66.172C94.1911 66.172 94.7671 65.88 95.1271 65.296L96.0151 65.8C95.4311 66.704 94.5511 67.156 93.3751 67.156C92.4231 67.156 91.6471 66.86 91.0471 66.268C90.4551 65.668 90.1591 64.912 90.1591 64C90.1591 63.096 90.4511 62.344 91.0351 61.744C91.6191 61.144 92.3751 60.844 93.3031 60.844C94.1831 60.844 94.8991 61.156 95.4511 61.78C96.0111 62.396 96.2911 63.14 96.2911 64.012C96.2911 64.164 96.2791 64.32 96.2551 64.48H91.2271ZM93.3031 61.828C92.7431 61.828 92.2791 61.988 91.9111 62.308C91.5431 62.62 91.3151 63.04 91.2271 63.568H95.2351C95.1471 63 94.9231 62.568 94.5631 62.272C94.2031 61.976 93.7831 61.828 93.3031 61.828ZM100.479 60.844C101.183 60.844 101.747 61.068 102.171 61.516C102.595 61.956 102.807 62.556 102.807 63.316V67H101.763V63.376C101.763 62.888 101.631 62.512 101.367 62.248C101.103 61.976 100.739 61.84 100.275 61.84C99.7552 61.84 99.3352 62.004 99.0152 62.332C98.6952 62.652 98.5352 63.148 98.5352 63.82V67H97.4912V61H98.5352V61.864C98.9592 61.184 99.6072 60.844 100.479 60.844ZM104.997 64.48C105.101 65.016 105.345 65.432 105.729 65.728C106.121 66.024 106.601 66.172 107.169 66.172C107.961 66.172 108.537 65.88 108.897 65.296L109.785 65.8C109.201 66.704 108.321 67.156 107.145 67.156C106.193 67.156 105.417 66.86 104.817 66.268C104.225 65.668 103.929 64.912 103.929 64C103.929 63.096 104.221 62.344 104.805 61.744C105.389 61.144 106.145 60.844 107.073 60.844C107.953 60.844 108.669 61.156 109.221 61.78C109.781 62.396 110.061 63.14 110.061 64.012C110.061 64.164 110.049 64.32 110.025 64.48H104.997ZM107.073 61.828C106.513 61.828 106.049 61.988 105.681 62.308C105.313 62.62 105.085 63.04 104.997 63.568H109.005C108.917 63 108.693 62.568 108.333 62.272C107.973 61.976 107.553 61.828 107.073 61.828ZM111.926 62.62C111.926 62.852 112.042 63.04 112.274 63.184C112.506 63.32 112.786 63.432 113.114 63.52C113.442 63.6 113.77 63.696 114.098 63.808C114.426 63.912 114.706 64.096 114.938 64.36C115.17 64.616 115.286 64.948 115.286 65.356C115.286 65.9 115.074 66.336 114.65 66.664C114.234 66.992 113.698 67.156 113.042 67.156C112.458 67.156 111.958 67.028 111.542 66.772C111.126 66.516 110.83 66.176 110.654 65.752L111.554 65.236C111.65 65.524 111.83 65.752 112.094 65.92C112.358 66.088 112.674 66.172 113.042 66.172C113.386 66.172 113.67 66.108 113.894 65.98C114.118 65.844 114.23 65.636 114.23 65.356C114.23 65.124 114.114 64.94 113.882 64.804C113.65 64.66 113.37 64.548 113.042 64.468C112.714 64.38 112.386 64.28 112.058 64.168C111.73 64.056 111.45 63.872 111.218 63.616C110.986 63.36 110.87 63.032 110.87 62.632C110.87 62.112 111.07 61.684 111.47 61.348C111.878 61.012 112.386 60.844 112.994 60.844C113.482 60.844 113.914 60.956 114.29 61.18C114.674 61.396 114.962 61.7 115.154 62.092L114.278 62.584C114.062 62.072 113.634 61.816 112.994 61.816C112.698 61.816 112.446 61.888 112.238 62.032C112.03 62.168 111.926 62.364 111.926 62.62ZM116.992 59.908C116.792 59.908 116.624 59.84 116.488 59.704C116.352 59.568 116.284 59.404 116.284 59.212C116.284 59.02 116.352 58.856 116.488 58.72C116.624 58.576 116.792 58.504 116.992 58.504C117.184 58.504 117.348 58.576 117.484 58.72C117.62 58.856 117.688 59.02 117.688 59.212C117.688 59.404 117.62 59.568 117.484 59.704C117.348 59.84 117.184 59.908 116.992 59.908ZM116.464 67V61H117.508V67H116.464ZM119.989 62.62C119.989 62.852 120.105 63.04 120.337 63.184C120.569 63.32 120.849 63.432 121.177 63.52C121.505 63.6 121.833 63.696 122.161 63.808C122.489 63.912 122.769 64.096 123.001 64.36C123.233 64.616 123.349 64.948 123.349 65.356C123.349 65.9 123.137 66.336 122.713 66.664C122.297 66.992 121.761 67.156 121.105 67.156C120.521 67.156 120.021 67.028 119.605 66.772C119.189 66.516 118.893 66.176 118.717 65.752L119.617 65.236C119.713 65.524 119.893 65.752 120.157 65.92C120.421 66.088 120.737 66.172 121.105 66.172C121.449 66.172 121.733 66.108 121.957 65.98C122.181 65.844 122.293 65.636 122.293 65.356C122.293 65.124 122.177 64.94 121.945 64.804C121.713 64.66 121.433 64.548 121.105 64.468C120.777 64.38 120.449 64.28 120.121 64.168C119.793 64.056 119.513 63.872 119.281 63.616C119.049 63.36 118.933 63.032 118.933 62.632C118.933 62.112 119.133 61.684 119.533 61.348C119.941 61.012 120.449 60.844 121.057 60.844C121.545 60.844 121.977 60.956 122.353 61.18C122.737 61.396 123.025 61.7 123.217 62.092L122.341 62.584C122.125 62.072 121.697 61.816 121.057 61.816C120.761 61.816 120.509 61.888 120.301 62.032C120.093 62.168 119.989 62.364 119.989 62.62ZM128.809 65.944H132.709V67H127.693V58.6H132.649V59.656H128.809V62.236H132.349V63.28H128.809V65.944ZM136.639 67.156C135.735 67.156 134.983 66.856 134.383 66.256C133.783 65.648 133.483 64.896 133.483 64C133.483 63.104 133.783 62.356 134.383 61.756C134.983 61.148 135.735 60.844 136.639 60.844C137.231 60.844 137.763 60.988 138.235 61.276C138.707 61.556 139.059 61.936 139.291 62.416L138.415 62.92C138.263 62.6 138.027 62.344 137.707 62.152C137.395 61.96 137.039 61.864 136.639 61.864C136.039 61.864 135.535 62.068 135.127 62.476C134.727 62.884 134.527 63.392 134.527 64C134.527 64.6 134.727 65.104 135.127 65.512C135.535 65.92 136.039 66.124 136.639 66.124C137.039 66.124 137.399 66.032 137.719 65.848C138.039 65.656 138.283 65.4 138.451 65.08L139.339 65.596C139.083 66.068 138.715 66.448 138.235 66.736C137.755 67.016 137.223 67.156 136.639 67.156ZM143.358 60.844C144.062 60.844 144.626 61.068 145.05 61.516C145.474 61.956 145.686 62.556 145.686 63.316V67H144.642V63.376C144.642 62.888 144.51 62.512 144.246 62.248C143.982 61.976 143.618 61.84 143.154 61.84C142.634 61.84 142.214 62.004 141.894 62.332C141.574 62.652 141.414 63.148 141.414 63.82V67H140.37V58.6H141.414V61.864C141.838 61.184 142.486 60.844 143.358 60.844ZM152.208 66.244C151.592 66.852 150.844 67.156 149.964 67.156C149.084 67.156 148.336 66.852 147.72 66.244C147.112 65.636 146.808 64.888 146.808 64C146.808 63.112 147.112 62.364 147.72 61.756C148.336 61.148 149.084 60.844 149.964 60.844C150.844 60.844 151.592 61.148 152.208 61.756C152.824 62.364 153.132 63.112 153.132 64C153.132 64.888 152.824 65.636 152.208 66.244ZM149.964 66.136C150.564 66.136 151.068 65.932 151.476 65.524C151.884 65.116 152.088 64.608 152.088 64C152.088 63.392 151.884 62.884 151.476 62.476C151.068 62.068 150.564 61.864 149.964 61.864C149.372 61.864 148.872 62.068 148.464 62.476C148.056 62.884 147.852 63.392 147.852 64C147.852 64.608 148.056 65.116 148.464 65.524C148.872 65.932 149.372 66.136 149.964 66.136ZM162.306 59.656H158.586V62.38H162.15V63.436H158.586V67H157.47V58.6H162.306V59.656ZM168.614 66.244C167.998 66.852 167.25 67.156 166.37 67.156C165.49 67.156 164.742 66.852 164.126 66.244C163.518 65.636 163.214 64.888 163.214 64C163.214 63.112 163.518 62.364 164.126 61.756C164.742 61.148 165.49 60.844 166.37 60.844C167.25 60.844 167.998 61.148 168.614 61.756C169.23 62.364 169.538 63.112 169.538 64C169.538 64.888 169.23 65.636 168.614 66.244ZM166.37 66.136C166.97 66.136 167.474 65.932 167.882 65.524C168.29 65.116 168.494 64.608 168.494 64C168.494 63.392 168.29 62.884 167.882 62.476C167.474 62.068 166.97 61.864 166.37 61.864C165.778 61.864 165.278 62.068 164.87 62.476C164.462 62.884 164.258 63.392 164.258 64C164.258 64.608 164.462 65.116 164.87 65.524C165.278 65.932 165.778 66.136 166.37 66.136ZM171.813 62.008C172.157 61.264 172.781 60.892 173.685 60.892V61.984C173.173 61.96 172.733 62.096 172.365 62.392C171.997 62.688 171.813 63.164 171.813 63.82V67H170.769V61H171.813V62.008ZM175.11 64.48C175.214 65.016 175.458 65.432 175.842 65.728C176.234 66.024 176.714 66.172 177.282 66.172C178.074 66.172 178.65 65.88 179.01 65.296L179.898 65.8C179.314 66.704 178.434 67.156 177.258 67.156C176.306 67.156 175.53 66.86 174.93 66.268C174.338 65.668 174.042 64.912 174.042 64C174.042 63.096 174.334 62.344 174.918 61.744C175.502 61.144 176.258 60.844 177.186 60.844C178.066 60.844 178.782 61.156 179.334 61.78C179.894 62.396 180.174 63.14 180.174 64.012C180.174 64.164 180.162 64.32 180.138 64.48H175.11ZM177.186 61.828C176.626 61.828 176.162 61.988 175.794 62.308C175.426 62.62 175.198 63.04 175.11 63.568H179.118C179.03 63 178.806 62.568 178.446 62.272C178.086 61.976 177.666 61.828 177.186 61.828ZM182.04 62.62C182.04 62.852 182.156 63.04 182.388 63.184C182.62 63.32 182.9 63.432 183.228 63.52C183.556 63.6 183.884 63.696 184.212 63.808C184.54 63.912 184.82 64.096 185.052 64.36C185.284 64.616 185.4 64.948 185.4 65.356C185.4 65.9 185.188 66.336 184.764 66.664C184.348 66.992 183.812 67.156 183.156 67.156C182.572 67.156 182.072 67.028 181.656 66.772C181.24 66.516 180.944 66.176 180.768 65.752L181.668 65.236C181.764 65.524 181.944 65.752 182.208 65.92C182.472 66.088 182.788 66.172 183.156 66.172C183.5 66.172 183.784 66.108 184.008 65.98C184.232 65.844 184.344 65.636 184.344 65.356C184.344 65.124 184.228 64.94 183.996 64.804C183.764 64.66 183.484 64.548 183.156 64.468C182.828 64.38 182.5 64.28 182.172 64.168C181.844 64.056 181.564 63.872 181.332 63.616C181.1 63.36 180.984 63.032 180.984 62.632C180.984 62.112 181.184 61.684 181.584 61.348C181.992 61.012 182.5 60.844 183.108 60.844C183.596 60.844 184.028 60.956 184.404 61.18C184.788 61.396 185.076 61.7 185.268 62.092L184.392 62.584C184.176 62.072 183.748 61.816 183.108 61.816C182.812 61.816 182.56 61.888 182.352 62.032C182.144 62.168 182.04 62.364 182.04 62.62ZM189.665 62.008H188.069V65.26C188.069 65.556 188.125 65.768 188.237 65.896C188.357 66.016 188.537 66.08 188.777 66.088C189.017 66.088 189.313 66.08 189.665 66.064V67C188.753 67.12 188.085 67.048 187.661 66.784C187.237 66.512 187.025 66.004 187.025 65.26V62.008H185.837V61H187.025V59.632L188.069 59.32V61H189.665V62.008ZM23.612 85.156C22.708 85.156 21.956 84.856 21.356 84.256C20.756 83.648 20.456 82.896 20.456 82C20.456 81.104 20.756 80.356 21.356 79.756C21.956 79.148 22.708 78.844 23.612 78.844C24.204 78.844 24.736 78.988 25.208 79.276C25.68 79.556 26.032 79.936 26.264 80.416L25.388 80.92C25.236 80.6 25 80.344 24.68 80.152C24.368 79.96 24.012 79.864 23.612 79.864C23.012 79.864 22.508 80.068 22.1 80.476C21.7 80.884 21.5 81.392 21.5 82C21.5 82.6 21.7 83.104 22.1 83.512C22.508 83.92 23.012 84.124 23.612 84.124C24.012 84.124 24.372 84.032 24.692 83.848C25.012 83.656 25.256 83.4 25.424 83.08L26.312 83.596C26.056 84.068 25.688 84.448 25.208 84.736C24.728 85.016 24.196 85.156 23.612 85.156ZM32.3248 84.244C31.7088 84.852 30.9608 85.156 30.0808 85.156C29.2008 85.156 28.4528 84.852 27.8368 84.244C27.2288 83.636 26.9248 82.888 26.9248 82C26.9248 81.112 27.2288 80.364 27.8368 79.756C28.4528 79.148 29.2008 78.844 30.0808 78.844C30.9608 78.844 31.7088 79.148 32.3248 79.756C32.9408 80.364 33.2487 81.112 33.2487 82C33.2487 82.888 32.9408 83.636 32.3248 84.244ZM30.0808 84.136C30.6808 84.136 31.1848 83.932 31.5928 83.524C32.0008 83.116 32.2048 82.608 32.2048 82C32.2048 81.392 32.0008 80.884 31.5928 80.476C31.1848 80.068 30.6808 79.864 30.0808 79.864C29.4888 79.864 28.9888 80.068 28.5808 80.476C28.1728 80.884 27.9688 81.392 27.9688 82C27.9688 82.608 28.1728 83.116 28.5808 83.524C28.9888 83.932 29.4888 84.136 30.0808 84.136ZM34.4795 85V76.24H35.5235V85H34.4795ZM37.1162 85V76.24H38.1602V85H37.1162ZM40.4849 82.48C40.5889 83.016 40.8329 83.432 41.2169 83.728C41.6089 84.024 42.0889 84.172 42.6569 84.172C43.4489 84.172 44.0249 83.88 44.3849 83.296L45.2729 83.8C44.6889 84.704 43.8089 85.156 42.6329 85.156C41.6809 85.156 40.9049 84.86 40.3049 84.268C39.7129 83.668 39.4169 82.912 39.4169 82C39.4169 81.096 39.7089 80.344 40.2929 79.744C40.8769 79.144 41.6329 78.844 42.5609 78.844C43.4409 78.844 44.1569 79.156 44.7089 79.78C45.2689 80.396 45.5489 81.14 45.5489 82.012C45.5489 82.164 45.5369 82.32 45.5129 82.48H40.4849ZM42.5609 79.828C42.0009 79.828 41.5369 79.988 41.1689 80.308C40.8009 80.62 40.5729 81.04 40.4849 81.568H44.4929C44.4049 81 44.1809 80.568 43.8209 80.272C43.4609 79.976 43.0409 79.828 42.5609 79.828ZM49.5573 85.156C48.6533 85.156 47.9013 84.856 47.3013 84.256C46.7013 83.648 46.4013 82.896 46.4013 82C46.4013 81.104 46.7013 80.356 47.3013 79.756C47.9013 79.148 48.6533 78.844 49.5573 78.844C50.1493 78.844 50.6813 78.988 51.1533 79.276C51.6253 79.556 51.9773 79.936 52.2093 80.416L51.3333 80.92C51.1813 80.6 50.9453 80.344 50.6253 80.152C50.3133 79.96 49.9573 79.864 49.5573 79.864C48.9573 79.864 48.4533 80.068 48.0453 80.476C47.6453 80.884 47.4453 81.392 47.4453 82C47.4453 82.6 47.6453 83.104 48.0453 83.512C48.4533 83.92 48.9573 84.124 49.5573 84.124C49.9573 84.124 50.3173 84.032 50.6373 83.848C50.9573 83.656 51.2013 83.4 51.3693 83.08L52.2573 83.596C52.0013 84.068 51.6333 84.448 51.1533 84.736C50.6733 85.016 50.1413 85.156 49.5573 85.156ZM56.5521 80.008H54.9561V83.26C54.9561 83.556 55.0121 83.768 55.1241 83.896C55.2441 84.016 55.4241 84.08 55.6641 84.088C55.9041 84.088 56.2001 84.08 56.5521 84.064V85C55.6401 85.12 54.9721 85.048 54.5481 84.784C54.1241 84.512 53.9121 84.004 53.9121 83.26V80.008H52.7241V79H53.9121V77.632L54.9561 77.32V79H56.5521V80.008ZM58.3161 77.908C58.1161 77.908 57.9481 77.84 57.8121 77.704C57.6761 77.568 57.6081 77.404 57.6081 77.212C57.6081 77.02 57.6761 76.856 57.8121 76.72C57.9481 76.576 58.1161 76.504 58.3161 76.504C58.5081 76.504 58.6721 76.576 58.8081 76.72C58.9441 76.856 59.0121 77.02 59.0121 77.212C59.0121 77.404 58.9441 77.568 58.8081 77.704C58.6721 77.84 58.5081 77.908 58.3161 77.908ZM57.7881 85V79H58.8321V85H57.7881ZM65.4888 84.244C64.8728 84.852 64.1248 85.156 63.2448 85.156C62.3648 85.156 61.6168 84.852 61.0008 84.244C60.3928 83.636 60.0888 82.888 60.0888 82C60.0888 81.112 60.3928 80.364 61.0008 79.756C61.6168 79.148 62.3648 78.844 63.2448 78.844C64.1248 78.844 64.8728 79.148 65.4888 79.756C66.1048 80.364 66.4128 81.112 66.4128 82C66.4128 82.888 66.1048 83.636 65.4888 84.244ZM63.2448 84.136C63.8448 84.136 64.3488 83.932 64.7568 83.524C65.1648 83.116 65.3688 82.608 65.3688 82C65.3688 81.392 65.1648 80.884 64.7568 80.476C64.3488 80.068 63.8448 79.864 63.2448 79.864C62.6528 79.864 62.1528 80.068 61.7448 80.476C61.3368 80.884 61.1328 81.392 61.1328 82C61.1328 82.608 61.3368 83.116 61.7448 83.524C62.1528 83.932 62.6528 84.136 63.2448 84.136ZM70.6316 78.844C71.3356 78.844 71.8996 79.068 72.3236 79.516C72.7476 79.956 72.9596 80.556 72.9596 81.316V85H71.9156V81.376C71.9156 80.888 71.7836 80.512 71.5196 80.248C71.2556 79.976 70.8916 79.84 70.4276 79.84C69.9076 79.84 69.4876 80.004 69.1676 80.332C68.8476 80.652 68.6876 81.148 68.6876 81.82V85H67.6436V79H68.6876V79.864C69.1116 79.184 69.7596 78.844 70.6316 78.844ZM84.485 79H85.577L83.717 85H82.649L81.245 80.56L79.841 85H78.773L76.913 79H78.005L79.325 83.56L80.741 79H81.749L83.165 83.572L84.485 79ZM87.1794 77.908C86.9794 77.908 86.8114 77.84 86.6754 77.704C86.5394 77.568 86.4714 77.404 86.4714 77.212C86.4714 77.02 86.5394 76.856 86.6754 76.72C86.8114 76.576 86.9794 76.504 87.1794 76.504C87.3714 76.504 87.5354 76.576 87.6714 76.72C87.8074 76.856 87.8754 77.02 87.8754 77.212C87.8754 77.404 87.8074 77.568 87.6714 77.704C87.5354 77.84 87.3714 77.908 87.1794 77.908ZM86.6514 85V79H87.6954V85H86.6514ZM92.5521 80.008H90.9561V83.26C90.9561 83.556 91.0121 83.768 91.1241 83.896C91.2441 84.016 91.4241 84.08 91.6641 84.088C91.9041 84.088 92.2001 84.08 92.5521 84.064V85C91.6401 85.12 90.9721 85.048 90.5481 84.784C90.1241 84.512 89.9121 84.004 89.9121 83.26V80.008H88.7241V79H89.9121V77.632L90.9561 77.32V79H92.5521V80.008ZM96.7761 78.844C97.4801 78.844 98.0441 79.068 98.4681 79.516C98.8921 79.956 99.1041 80.556 99.1041 81.316V85H98.0601V81.376C98.0601 80.888 97.9281 80.512 97.6641 80.248C97.4001 79.976 97.0361 79.84 96.5721 79.84C96.0521 79.84 95.6321 80.004 95.3121 80.332C94.9921 80.652 94.8321 81.148 94.8321 81.82V85H93.7881V76.6H94.8321V79.864C95.2561 79.184 95.9041 78.844 96.7761 78.844ZM105.146 76.6H106.106V85H105.002V77.8L103.214 78.328L102.938 77.368L105.146 76.6ZM113.215 83.968C112.647 84.76 111.851 85.156 110.827 85.156C109.803 85.156 109.007 84.76 108.439 83.968C107.871 83.176 107.587 82.12 107.587 80.8C107.587 79.48 107.871 78.424 108.439 77.632C109.007 76.84 109.803 76.444 110.827 76.444C111.851 76.444 112.647 76.84 113.215 77.632C113.783 78.424 114.067 79.48 114.067 80.8C114.067 82.12 113.783 83.176 113.215 83.968ZM109.255 83.212C109.623 83.78 110.147 84.064 110.827 84.064C111.507 84.064 112.031 83.78 112.399 83.212C112.775 82.644 112.963 81.84 112.963 80.8C112.963 79.76 112.775 78.956 112.399 78.388C112.031 77.812 111.507 77.524 110.827 77.524C110.147 77.524 109.623 77.808 109.255 78.376C108.887 78.944 108.703 79.752 108.703 80.8C108.703 81.84 108.887 82.644 109.255 83.212ZM116.594 83.764L115.814 86.68H114.914L115.394 83.764H116.594ZM123.082 83.968C122.514 84.76 121.718 85.156 120.694 85.156C119.67 85.156 118.874 84.76 118.306 83.968C117.738 83.176 117.454 82.12 117.454 80.8C117.454 79.48 117.738 78.424 118.306 77.632C118.874 76.84 119.67 76.444 120.694 76.444C121.718 76.444 122.514 76.84 123.082 77.632C123.65 78.424 123.934 79.48 123.934 80.8C123.934 82.12 123.65 83.176 123.082 83.968ZM119.122 83.212C119.49 83.78 120.014 84.064 120.694 84.064C121.374 84.064 121.898 83.78 122.266 83.212C122.642 82.644 122.83 81.84 122.83 80.8C122.83 79.76 122.642 78.956 122.266 78.388C121.898 77.812 121.374 77.524 120.694 77.524C120.014 77.524 119.49 77.808 119.122 78.376C118.754 78.944 118.57 79.752 118.57 80.8C118.57 81.84 118.754 82.644 119.122 83.212ZM130.641 83.968C130.073 84.76 129.277 85.156 128.253 85.156C127.229 85.156 126.433 84.76 125.865 83.968C125.297 83.176 125.013 82.12 125.013 80.8C125.013 79.48 125.297 78.424 125.865 77.632C126.433 76.84 127.229 76.444 128.253 76.444C129.277 76.444 130.073 76.84 130.641 77.632C131.209 78.424 131.493 79.48 131.493 80.8C131.493 82.12 131.209 83.176 130.641 83.968ZM126.681 83.212C127.049 83.78 127.573 84.064 128.253 84.064C128.933 84.064 129.457 83.78 129.825 83.212C130.201 82.644 130.389 81.84 130.389 80.8C130.389 79.76 130.201 78.956 129.825 78.388C129.457 77.812 128.933 77.524 128.253 77.524C127.573 77.524 127.049 77.808 126.681 78.376C126.313 78.944 126.129 79.752 126.129 80.8C126.129 81.84 126.313 82.644 126.681 83.212ZM138.199 83.968C137.631 84.76 136.835 85.156 135.811 85.156C134.787 85.156 133.991 84.76 133.423 83.968C132.855 83.176 132.571 82.12 132.571 80.8C132.571 79.48 132.855 78.424 133.423 77.632C133.991 76.84 134.787 76.444 135.811 76.444C136.835 76.444 137.631 76.84 138.199 77.632C138.767 78.424 139.051 79.48 139.051 80.8C139.051 82.12 138.767 83.176 138.199 83.968ZM134.239 83.212C134.607 83.78 135.131 84.064 135.811 84.064C136.491 84.064 137.015 83.78 137.383 83.212C137.759 82.644 137.947 81.84 137.947 80.8C137.947 79.76 137.759 78.956 137.383 78.388C137.015 77.812 136.491 77.524 135.811 77.524C135.131 77.524 134.607 77.808 134.239 78.376C133.871 78.944 133.687 79.752 133.687 80.8C133.687 81.84 133.871 82.644 134.239 83.212ZM147.522 79H148.566V85H147.522V84.136C147.098 84.816 146.45 85.156 145.578 85.156C144.874 85.156 144.31 84.936 143.886 84.496C143.462 84.048 143.25 83.444 143.25 82.684V79H144.294V82.624C144.294 83.112 144.426 83.492 144.69 83.764C144.954 84.028 145.318 84.16 145.782 84.16C146.302 84.16 146.722 84 147.042 83.68C147.362 83.352 147.522 82.852 147.522 82.18V79ZM153.143 78.844C153.847 78.844 154.411 79.068 154.835 79.516C155.259 79.956 155.471 80.556 155.471 81.316V85H154.427V81.376C154.427 80.888 154.295 80.512 154.031 80.248C153.767 79.976 153.403 79.84 152.939 79.84C152.419 79.84 151.999 80.004 151.679 80.332C151.359 80.652 151.199 81.148 151.199 81.82V85H150.155V79H151.199V79.864C151.623 79.184 152.271 78.844 153.143 78.844ZM157.457 77.908C157.257 77.908 157.089 77.84 156.953 77.704C156.817 77.568 156.749 77.404 156.749 77.212C156.749 77.02 156.817 76.856 156.953 76.72C157.089 76.576 157.257 76.504 157.457 76.504C157.649 76.504 157.813 76.576 157.949 76.72C158.085 76.856 158.153 77.02 158.153 77.212C158.153 77.404 158.085 77.568 157.949 77.704C157.813 77.84 157.649 77.908 157.457 77.908ZM156.929 85V79H157.973V85H156.929ZM164.533 79H165.577V87.4H164.533V83.968C164.013 84.76 163.257 85.156 162.265 85.156C161.425 85.156 160.709 84.852 160.117 84.244C159.525 83.628 159.229 82.88 159.229 82C159.229 81.12 159.525 80.376 160.117 79.768C160.709 79.152 161.425 78.844 162.265 78.844C163.257 78.844 164.013 79.24 164.533 80.032V79ZM162.397 84.148C163.005 84.148 163.513 83.944 163.921 83.536C164.329 83.12 164.533 82.608 164.533 82C164.533 81.392 164.329 80.884 163.921 80.476C163.513 80.06 163.005 79.852 162.397 79.852C161.797 79.852 161.293 80.06 160.885 80.476C160.477 80.884 160.273 81.392 160.273 82C160.273 82.608 160.477 83.12 160.885 83.536C161.293 83.944 161.797 84.148 162.397 84.148ZM171.299 79H172.343V85H171.299V84.136C170.875 84.816 170.227 85.156 169.355 85.156C168.651 85.156 168.087 84.936 167.663 84.496C167.239 84.048 167.027 83.444 167.027 82.684V79H168.071V82.624C168.071 83.112 168.203 83.492 168.467 83.764C168.731 84.028 169.095 84.16 169.559 84.16C170.079 84.16 170.499 84 170.819 83.68C171.139 83.352 171.299 82.852 171.299 82.18V79ZM174.665 82.48C174.769 83.016 175.013 83.432 175.397 83.728C175.789 84.024 176.269 84.172 176.837 84.172C177.629 84.172 178.205 83.88 178.565 83.296L179.453 83.8C178.869 84.704 177.989 85.156 176.813 85.156C175.861 85.156 175.085 84.86 174.485 84.268C173.893 83.668 173.597 82.912 173.597 82C173.597 81.096 173.889 80.344 174.473 79.744C175.057 79.144 175.813 78.844 176.741 78.844C177.621 78.844 178.337 79.156 178.889 79.78C179.449 80.396 179.729 81.14 179.729 82.012C179.729 82.164 179.717 82.32 179.693 82.48H174.665ZM176.741 79.828C176.181 79.828 175.717 79.988 175.349 80.308C174.981 80.62 174.753 81.04 174.665 81.568H178.673C178.585 81 178.361 80.568 178.001 80.272C177.641 79.976 177.221 79.828 176.741 79.828ZM189.257 76.6H190.373V85H189.473L185.153 78.724V85H184.037V76.6H184.937L189.257 82.864V76.6ZM197.006 77.656H193.286V80.38H196.85V81.436H193.286V85H192.17V76.6H197.006V77.656ZM203.733 76.6V77.656H201.249V85H200.145V77.656H197.673V76.6H203.733ZM204.774 80.62C204.774 80.852 204.89 81.04 205.122 81.184C205.354 81.32 205.634 81.432 205.962 81.52C206.29 81.6 206.618 81.696 206.946 81.808C207.274 81.912 207.554 82.096 207.786 82.36C208.018 82.616 208.134 82.948 208.134 83.356C208.134 83.9 207.922 84.336 207.498 84.664C207.082 84.992 206.546 85.156 205.89 85.156C205.306 85.156 204.806 85.028 204.39 84.772C203.974 84.516 203.678 84.176 203.502 83.752L204.402 83.236C204.498 83.524 204.678 83.752 204.942 83.92C205.206 84.088 205.522 84.172 205.89 84.172C206.234 84.172 206.518 84.108 206.742 83.98C206.966 83.844 207.078 83.636 207.078 83.356C207.078 83.124 206.962 82.94 206.73 82.804C206.498 82.66 206.218 82.548 205.89 82.468C205.562 82.38 205.234 82.28 204.906 82.168C204.578 82.056 204.298 81.872 204.066 81.616C203.834 81.36 203.718 81.032 203.718 80.632C203.718 80.112 203.918 79.684 204.318 79.348C204.726 79.012 205.234 78.844 205.842 78.844C206.33 78.844 206.762 78.956 207.138 79.18C207.522 79.396 207.81 79.7 208.002 80.092L207.126 80.584C206.91 80.072 206.482 79.816 205.842 79.816C205.546 79.816 205.294 79.888 205.086 80.032C204.878 80.168 204.774 80.364 204.774 80.62ZM217.434 84.244C216.818 84.852 216.07 85.156 215.19 85.156C214.31 85.156 213.562 84.852 212.946 84.244C212.338 83.636 212.034 82.888 212.034 82C212.034 81.112 212.338 80.364 212.946 79.756C213.562 79.148 214.31 78.844 215.19 78.844C216.07 78.844 216.818 79.148 217.434 79.756C218.05 80.364 218.358 81.112 218.358 82C218.358 82.888 218.05 83.636 217.434 84.244ZM215.19 84.136C215.79 84.136 216.294 83.932 216.702 83.524C217.11 83.116 217.314 82.608 217.314 82C217.314 81.392 217.11 80.884 216.702 80.476C216.294 80.068 215.79 79.864 215.19 79.864C214.598 79.864 214.098 80.068 213.69 80.476C213.282 80.884 213.078 81.392 213.078 82C213.078 82.608 213.282 83.116 213.69 83.524C214.098 83.932 214.598 84.136 215.19 84.136ZM222.577 78.844C223.281 78.844 223.845 79.068 224.269 79.516C224.693 79.956 224.905 80.556 224.905 81.316V85H223.861V81.376C223.861 80.888 223.729 80.512 223.465 80.248C223.201 79.976 222.837 79.84 222.373 79.84C221.853 79.84 221.433 80.004 221.113 80.332C220.793 80.652 220.633 81.148 220.633 81.82V85H219.589V79H220.633V79.864C221.057 79.184 221.705 78.844 222.577 78.844ZM23.612 103.156C22.828 103.156 22.156 102.972 21.596 102.604C21.044 102.236 20.656 101.732 20.432 101.092L21.392 100.54C21.72 101.556 22.468 102.064 23.636 102.064C24.212 102.064 24.652 101.948 24.956 101.716C25.26 101.476 25.412 101.16 25.412 100.768C25.412 100.368 25.26 100.068 24.956 99.868C24.652 99.668 24.144 99.456 23.432 99.232C23.08 99.12 22.812 99.032 22.628 98.968C22.444 98.896 22.212 98.792 21.932 98.656C21.66 98.512 21.456 98.368 21.32 98.224C21.184 98.072 21.06 97.876 20.948 97.636C20.844 97.396 20.792 97.124 20.792 96.82C20.792 96.092 21.048 95.516 21.56 95.092C22.072 94.66 22.696 94.444 23.432 94.444C24.096 94.444 24.672 94.612 25.16 94.948C25.656 95.284 26.028 95.728 26.276 96.28L25.34 96.82C24.98 95.956 24.344 95.524 23.432 95.524C22.976 95.524 22.608 95.636 22.328 95.86C22.048 96.084 21.908 96.388 21.908 96.772C21.908 97.14 22.04 97.42 22.304 97.612C22.568 97.804 23.024 98.004 23.672 98.212C23.904 98.284 24.068 98.336 24.164 98.368C24.26 98.4 24.408 98.456 24.608 98.536C24.816 98.616 24.968 98.68 25.064 98.728C25.16 98.776 25.288 98.844 25.448 98.932C25.616 99.02 25.74 99.104 25.82 99.184C25.9 99.264 25.992 99.364 26.096 99.484C26.208 99.596 26.288 99.712 26.336 99.832C26.384 99.952 26.424 100.092 26.456 100.252C26.496 100.404 26.516 100.568 26.516 100.744C26.516 101.48 26.248 102.068 25.712 102.508C25.176 102.94 24.476 103.156 23.612 103.156ZM32.9341 102.244C32.3181 102.852 31.5701 103.156 30.6901 103.156C29.8101 103.156 29.0621 102.852 28.4461 102.244C27.8381 101.636 27.5341 100.888 27.5341 100C27.5341 99.112 27.8381 98.364 28.4461 97.756C29.0621 97.148 29.8101 96.844 30.6901 96.844C31.5701 96.844 32.3181 97.148 32.9341 97.756C33.5501 98.364 33.8581 99.112 33.8581 100C33.8581 100.888 33.5501 101.636 32.9341 102.244ZM30.6901 102.136C31.2901 102.136 31.7941 101.932 32.2021 101.524C32.6101 101.116 32.8141 100.608 32.8141 100C32.8141 99.392 32.6101 98.884 32.2021 98.476C31.7941 98.068 31.2901 97.864 30.6901 97.864C30.0981 97.864 29.5981 98.068 29.1901 98.476C28.7821 98.884 28.5781 99.392 28.5781 100C28.5781 100.608 28.7821 101.116 29.1901 101.524C29.5981 101.932 30.0981 102.136 30.6901 102.136ZM35.0889 103V94.24H36.1329V103H35.0889ZM42.6936 97H43.7376V103H42.6936V101.968C42.1736 102.76 41.4176 103.156 40.4256 103.156C39.5856 103.156 38.8696 102.852 38.2776 102.244C37.6856 101.628 37.3896 100.88 37.3896 100C37.3896 99.12 37.6856 98.376 38.2776 97.768C38.8696 97.152 39.5856 96.844 40.4256 96.844C41.4176 96.844 42.1736 97.24 42.6936 98.032V97ZM40.5576 102.148C41.1656 102.148 41.6736 101.944 42.0816 101.536C42.4896 101.12 42.6936 100.608 42.6936 100C42.6936 99.392 42.4896 98.884 42.0816 98.476C41.6736 98.06 41.1656 97.852 40.5576 97.852C39.9576 97.852 39.4536 98.06 39.0456 98.476C38.6376 98.884 38.4336 99.392 38.4336 100C38.4336 100.608 38.6376 101.12 39.0456 101.536C39.4536 101.944 39.9576 102.148 40.5576 102.148ZM48.3073 96.844C49.0113 96.844 49.5753 97.068 49.9993 97.516C50.4233 97.956 50.6353 98.556 50.6353 99.316V103H49.5913V99.376C49.5913 98.888 49.4593 98.512 49.1953 98.248C48.9313 97.976 48.5673 97.84 48.1033 97.84C47.5833 97.84 47.1633 98.004 46.8433 98.332C46.5233 98.652 46.3633 99.148 46.3633 99.82V103H45.3193V97H46.3633V97.864C46.7873 97.184 47.4353 96.844 48.3073 96.844ZM57.0608 97H58.1048V103H57.0608V101.968C56.5408 102.76 55.7848 103.156 54.7928 103.156C53.9528 103.156 53.2368 102.852 52.6448 102.244C52.0528 101.628 51.7568 100.88 51.7568 100C51.7568 99.12 52.0528 98.376 52.6448 97.768C53.2368 97.152 53.9528 96.844 54.7928 96.844C55.7848 96.844 56.5408 97.24 57.0608 98.032V97ZM54.9248 102.148C55.5328 102.148 56.0408 101.944 56.4488 101.536C56.8568 101.12 57.0608 100.608 57.0608 100C57.0608 99.392 56.8568 98.884 56.4488 98.476C56.0408 98.06 55.5328 97.852 54.9248 97.852C54.3248 97.852 53.8208 98.06 53.4128 98.476C53.0048 98.884 52.8008 99.392 52.8008 100C52.8008 100.608 53.0048 101.12 53.4128 101.536C53.8208 101.944 54.3248 102.148 54.9248 102.148ZM60.3465 103.132C60.1305 103.132 59.9465 103.056 59.7945 102.904C59.6425 102.752 59.5665 102.568 59.5665 102.352C59.5665 102.136 59.6425 101.952 59.7945 101.8C59.9465 101.648 60.1305 101.572 60.3465 101.572C60.5705 101.572 60.7545 101.648 60.8985 101.8C61.0505 101.952 61.1265 102.136 61.1265 102.352C61.1265 102.568 61.0505 102.752 60.8985 102.904C60.7545 103.056 60.5705 103.132 60.3465 103.132Z" fill="#1A1A1A"/>
<path d="M11.9581 126.748C11.7021 127.012 11.3861 127.144 11.0101 127.144C10.6341 127.144 10.3141 127.012 10.0501 126.748C9.78613 126.484 9.65413 126.164 9.65413 125.788C9.65413 125.412 9.78613 125.096 10.0501 124.84C10.3141 124.576 10.6341 124.444 11.0101 124.444C11.3861 124.444 11.7021 124.576 11.9581 124.84C12.2221 125.096 12.3541 125.412 12.3541 125.788C12.3541 126.164 12.2221 126.484 11.9581 126.748ZM23.612 130.156C22.828 130.156 22.156 129.972 21.596 129.604C21.044 129.236 20.656 128.732 20.432 128.092L21.392 127.54C21.72 128.556 22.468 129.064 23.636 129.064C24.212 129.064 24.652 128.948 24.956 128.716C25.26 128.476 25.412 128.16 25.412 127.768C25.412 127.368 25.26 127.068 24.956 126.868C24.652 126.668 24.144 126.456 23.432 126.232C23.08 126.12 22.812 126.032 22.628 125.968C22.444 125.896 22.212 125.792 21.932 125.656C21.66 125.512 21.456 125.368 21.32 125.224C21.184 125.072 21.06 124.876 20.948 124.636C20.844 124.396 20.792 124.124 20.792 123.82C20.792 123.092 21.048 122.516 21.56 122.092C22.072 121.66 22.696 121.444 23.432 121.444C24.096 121.444 24.672 121.612 25.16 121.948C25.656 122.284 26.028 122.728 26.276 123.28L25.34 123.82C24.98 122.956 24.344 122.524 23.432 122.524C22.976 122.524 22.608 122.636 22.328 122.86C22.048 123.084 21.908 123.388 21.908 123.772C21.908 124.14 22.04 124.42 22.304 124.612C22.568 124.804 23.024 125.004 23.672 125.212C23.904 125.284 24.068 125.336 24.164 125.368C24.26 125.4 24.408 125.456 24.608 125.536C24.816 125.616 24.968 125.68 25.064 125.728C25.16 125.776 25.288 125.844 25.448 125.932C25.616 126.02 25.74 126.104 25.82 126.184C25.9 126.264 25.992 126.364 26.096 126.484C26.208 126.596 26.288 126.712 26.336 126.832C26.384 126.952 26.424 127.092 26.456 127.252C26.496 127.404 26.516 127.568 26.516 127.744C26.516 128.48 26.248 129.068 25.712 129.508C25.176 129.94 24.476 130.156 23.612 130.156ZM28.6021 127.48C28.7061 128.016 28.9501 128.432 29.3341 128.728C29.7261 129.024 30.2061 129.172 30.7741 129.172C31.5661 129.172 32.1421 128.88 32.5021 128.296L33.3901 128.8C32.8061 129.704 31.9261 130.156 30.7501 130.156C29.7981 130.156 29.0221 129.86 28.4221 129.268C27.8301 128.668 27.5341 127.912 27.5341 127C27.5341 126.096 27.8261 125.344 28.4101 124.744C28.9941 124.144 29.7501 123.844 30.6781 123.844C31.5581 123.844 32.2741 124.156 32.8261 124.78C33.3861 125.396 33.6661 126.14 33.6661 127.012C33.6661 127.164 33.6541 127.32 33.6301 127.48H28.6021ZM30.6781 124.828C30.1181 124.828 29.6541 124.988 29.2861 125.308C28.9181 125.62 28.6901 126.04 28.6021 126.568H32.6101C32.5221 126 32.2981 125.568 31.9381 125.272C31.5781 124.976 31.1581 124.828 30.6781 124.828ZM37.9544 125.008H36.3584V128.26C36.3584 128.556 36.4144 128.768 36.5264 128.896C36.6464 129.016 36.8264 129.08 37.0664 129.088C37.3064 129.088 37.6024 129.08 37.9544 129.064V130C37.0424 130.12 36.3744 130.048 35.9504 129.784C35.5264 129.512 35.3144 129.004 35.3144 128.26V125.008H34.1264V124H35.3144V122.632L36.3584 122.32V124H37.9544V125.008ZM43.3656 124H44.4096V130H43.3656V129.136C42.9416 129.816 42.2936 130.156 41.4216 130.156C40.7176 130.156 40.1536 129.936 39.7296 129.496C39.3056 129.048 39.0936 128.444 39.0936 127.684V124H40.1376V127.624C40.1376 128.112 40.2696 128.492 40.5336 128.764C40.7976 129.028 41.1616 129.16 41.6256 129.16C42.1456 129.16 42.5656 129 42.8856 128.68C43.2056 128.352 43.3656 127.852 43.3656 127.18V124ZM49.311 123.844C50.151 123.844 50.867 124.152 51.459 124.768C52.051 125.376 52.347 126.12 52.347 127C52.347 127.88 52.051 128.628 51.459 129.244C50.867 129.852 50.151 130.156 49.311 130.156C48.319 130.156 47.563 129.76 47.043 128.968V132.4H45.999V124H47.043V125.032C47.563 124.24 48.319 123.844 49.311 123.844ZM49.179 129.148C49.779 129.148 50.283 128.944 50.691 128.536C51.099 128.12 51.303 127.608 51.303 127C51.303 126.392 51.099 125.884 50.691 125.476C50.283 125.06 49.779 124.852 49.179 124.852C48.571 124.852 48.063 125.06 47.655 125.476C47.247 125.884 47.043 126.392 47.043 127C47.043 127.608 47.247 128.12 47.655 128.536C48.063 128.944 48.571 129.148 49.179 129.148ZM57.4928 125.62C57.4928 125.852 57.6088 126.04 57.8408 126.184C58.0728 126.32 58.3528 126.432 58.6808 126.52C59.0088 126.6 59.3368 126.696 59.6648 126.808C59.9928 126.912 60.2728 127.096 60.5048 127.36C60.7368 127.616 60.8528 127.948 60.8528 128.356C60.8528 128.9 60.6408 129.336 60.2168 129.664C59.8008 129.992 59.2648 130.156 58.6088 130.156C58.0248 130.156 57.5248 130.028 57.1088 129.772C56.6928 129.516 56.3968 129.176 56.2208 128.752L57.1208 128.236C57.2168 128.524 57.3968 128.752 57.6608 128.92C57.9248 129.088 58.2408 129.172 58.6088 129.172C58.9528 129.172 59.2368 129.108 59.4608 128.98C59.6848 128.844 59.7968 128.636 59.7968 128.356C59.7968 128.124 59.6808 127.94 59.4488 127.804C59.2168 127.66 58.9368 127.548 58.6088 127.468C58.2808 127.38 57.9528 127.28 57.6248 127.168C57.2968 127.056 57.0168 126.872 56.7848 126.616C56.5528 126.36 56.4368 126.032 56.4368 125.632C56.4368 125.112 56.6368 124.684 57.0368 124.348C57.4448 124.012 57.9528 123.844 58.5608 123.844C59.0488 123.844 59.4808 123.956 59.8568 124.18C60.2408 124.396 60.5288 124.7 60.7208 125.092L59.8448 125.584C59.6288 125.072 59.2008 124.816 58.5608 124.816C58.2648 124.816 58.0128 124.888 57.8048 125.032C57.5968 125.168 57.4928 125.364 57.4928 125.62ZM65.1185 125.008H63.5225V128.26C63.5225 128.556 63.5785 128.768 63.6905 128.896C63.8105 129.016 63.9905 129.08 64.2305 129.088C64.4705 129.088 64.7665 129.08 65.1185 129.064V130C64.2065 130.12 63.5385 130.048 63.1145 129.784C62.6905 129.512 62.4785 129.004 62.4785 128.26V125.008H61.2905V124H62.4785V122.632L63.5225 122.32V124H65.1185V125.008ZM71.0178 124H72.0618V130H71.0178V128.968C70.4978 129.76 69.7418 130.156 68.7498 130.156C67.9098 130.156 67.1938 129.852 66.6018 129.244C66.0098 128.628 65.7138 127.88 65.7138 127C65.7138 126.12 66.0098 125.376 66.6018 124.768C67.1938 124.152 67.9098 123.844 68.7498 123.844C69.7418 123.844 70.4978 124.24 71.0178 125.032V124ZM68.8818 129.148C69.4898 129.148 69.9978 128.944 70.4058 128.536C70.8138 128.12 71.0178 127.608 71.0178 127C71.0178 126.392 70.8138 125.884 70.4058 125.476C69.9978 125.06 69.4898 124.852 68.8818 124.852C68.2818 124.852 67.7778 125.06 67.3698 125.476C66.9618 125.884 66.7578 126.392 66.7578 127C66.7578 127.608 66.9618 128.12 67.3698 128.536C67.7778 128.944 68.2818 129.148 68.8818 129.148ZM78.7196 130H77.4236L74.6876 127.156V130H73.6436V121.6H74.6876V126.652L77.2796 124H78.6236L75.7556 126.904L78.7196 130ZM80.2184 122.908C80.0184 122.908 79.8504 122.84 79.7144 122.704C79.5784 122.568 79.5104 122.404 79.5104 122.212C79.5104 122.02 79.5784 121.856 79.7144 121.72C79.8504 121.576 80.0184 121.504 80.2184 121.504C80.4104 121.504 80.5744 121.576 80.7104 121.72C80.8464 121.856 80.9144 122.02 80.9144 122.212C80.9144 122.404 80.8464 122.568 80.7104 122.704C80.5744 122.84 80.4104 122.908 80.2184 122.908ZM79.6904 130V124H80.7344V130H79.6904ZM85.3152 123.844C86.0192 123.844 86.5832 124.068 87.0072 124.516C87.4312 124.956 87.6432 125.556 87.6432 126.316V130H86.5992V126.376C86.5992 125.888 86.4672 125.512 86.2032 125.248C85.9392 124.976 85.5752 124.84 85.1112 124.84C84.5912 124.84 84.1712 125.004 83.8512 125.332C83.5312 125.652 83.3712 126.148 83.3712 126.82V130H82.3272V124H83.3712V124.864C83.7952 124.184 84.4432 123.844 85.3152 123.844ZM94.0806 124H95.1126V129.748C95.1126 130.636 94.8126 131.324 94.2126 131.812C93.6126 132.308 92.8926 132.556 92.0526 132.556C91.3806 132.556 90.8006 132.428 90.3126 132.172C89.8246 131.924 89.4566 131.564 89.2086 131.092L90.1206 130.576C90.4486 131.248 91.1006 131.584 92.0766 131.584C92.7006 131.584 93.1886 131.42 93.5406 131.092C93.9006 130.764 94.0806 130.316 94.0806 129.748V128.896C93.5526 129.696 92.8006 130.096 91.8246 130.096C90.9686 130.096 90.2446 129.792 89.6526 129.184C89.0606 128.576 88.7646 127.836 88.7646 126.964C88.7646 126.092 89.0606 125.356 89.6526 124.756C90.2446 124.148 90.9686 123.844 91.8246 123.844C92.8086 123.844 93.5606 124.24 94.0806 125.032V124ZM90.4206 128.488C90.8286 128.896 91.3366 129.1 91.9446 129.1C92.5526 129.1 93.0606 128.896 93.4686 128.488C93.8766 128.08 94.0806 127.572 94.0806 126.964C94.0806 126.364 93.8766 125.86 93.4686 125.452C93.0606 125.044 92.5526 124.84 91.9446 124.84C91.3366 124.84 90.8286 125.044 90.4206 125.452C90.0126 125.86 89.8086 126.364 89.8086 126.964C89.8086 127.572 90.0126 128.08 90.4206 128.488ZM103.006 123.844C103.846 123.844 104.562 124.152 105.154 124.768C105.746 125.376 106.042 126.12 106.042 127C106.042 127.88 105.746 128.628 105.154 129.244C104.562 129.852 103.846 130.156 103.006 130.156C102.014 130.156 101.258 129.76 100.738 128.968V132.4H99.6943V124H100.738V125.032C101.258 124.24 102.014 123.844 103.006 123.844ZM102.874 129.148C103.474 129.148 103.978 128.944 104.386 128.536C104.794 128.12 104.998 127.608 104.998 127C104.998 126.392 104.794 125.884 104.386 125.476C103.978 125.06 103.474 124.852 102.874 124.852C102.266 124.852 101.758 125.06 101.35 125.476C100.942 125.884 100.738 126.392 100.738 127C100.738 127.608 100.942 128.12 101.35 128.536C101.758 128.944 102.266 129.148 102.874 129.148ZM108.332 125.008C108.676 124.264 109.3 123.892 110.204 123.892V124.984C109.692 124.96 109.252 125.096 108.884 125.392C108.516 125.688 108.332 126.164 108.332 126.82V130H107.288V124H108.332V125.008ZM115.961 129.244C115.345 129.852 114.597 130.156 113.717 130.156C112.837 130.156 112.089 129.852 111.473 129.244C110.865 128.636 110.561 127.888 110.561 127C110.561 126.112 110.865 125.364 111.473 124.756C112.089 124.148 112.837 123.844 113.717 123.844C114.597 123.844 115.345 124.148 115.961 124.756C116.577 125.364 116.885 126.112 116.885 127C116.885 127.888 116.577 128.636 115.961 129.244ZM113.717 129.136C114.317 129.136 114.821 128.932 115.229 128.524C115.637 128.116 115.841 127.608 115.841 127C115.841 126.392 115.637 125.884 115.229 125.476C114.821 125.068 114.317 124.864 113.717 124.864C113.125 124.864 112.625 125.068 112.217 125.476C111.809 125.884 111.605 126.392 111.605 127C111.605 127.608 111.809 128.116 112.217 128.524C112.625 128.932 113.125 129.136 113.717 129.136ZM121.251 125.008H119.655V128.26C119.655 128.556 119.711 128.768 119.823 128.896C119.943 129.016 120.123 129.08 120.363 129.088C120.603 129.088 120.899 129.08 121.251 129.064V130C120.339 130.12 119.671 130.048 119.247 129.784C118.823 129.512 118.611 129.004 118.611 128.26V125.008H117.423V124H118.611V122.632L119.655 122.32V124H121.251V125.008ZM127.247 129.244C126.631 129.852 125.883 130.156 125.003 130.156C124.123 130.156 123.375 129.852 122.759 129.244C122.151 128.636 121.847 127.888 121.847 127C121.847 126.112 122.151 125.364 122.759 124.756C123.375 124.148 124.123 123.844 125.003 123.844C125.883 123.844 126.631 124.148 127.247 124.756C127.863 125.364 128.171 126.112 128.171 127C128.171 127.888 127.863 128.636 127.247 129.244ZM125.003 129.136C125.603 129.136 126.107 128.932 126.515 128.524C126.923 128.116 127.127 127.608 127.127 127C127.127 126.392 126.923 125.884 126.515 125.476C126.107 125.068 125.603 124.864 125.003 124.864C124.411 124.864 123.911 125.068 123.503 125.476C123.095 125.884 122.891 126.392 122.891 127C122.891 127.608 123.095 128.116 123.503 128.524C123.911 128.932 124.411 129.136 125.003 129.136ZM132.221 130.156C131.317 130.156 130.565 129.856 129.965 129.256C129.365 128.648 129.065 127.896 129.065 127C129.065 126.104 129.365 125.356 129.965 124.756C130.565 124.148 131.317 123.844 132.221 123.844C132.813 123.844 133.345 123.988 133.817 124.276C134.289 124.556 134.641 124.936 134.873 125.416L133.997 125.92C133.845 125.6 133.609 125.344 133.289 125.152C132.977 124.96 132.621 124.864 132.221 124.864C131.621 124.864 131.117 125.068 130.709 125.476C130.309 125.884 130.109 126.392 130.109 127C130.109 127.6 130.309 128.104 130.709 128.512C131.117 128.92 131.621 129.124 132.221 129.124C132.621 129.124 132.981 129.032 133.301 128.848C133.621 128.656 133.865 128.4 134.033 128.08L134.921 128.596C134.665 129.068 134.297 129.448 133.817 129.736C133.337 130.016 132.805 130.156 132.221 130.156ZM140.934 129.244C140.318 129.852 139.57 130.156 138.69 130.156C137.81 130.156 137.062 129.852 136.446 129.244C135.838 128.636 135.534 127.888 135.534 127C135.534 126.112 135.838 125.364 136.446 124.756C137.062 124.148 137.81 123.844 138.69 123.844C139.57 123.844 140.318 124.148 140.934 124.756C141.55 125.364 141.858 126.112 141.858 127C141.858 127.888 141.55 128.636 140.934 129.244ZM138.69 129.136C139.29 129.136 139.794 128.932 140.202 128.524C140.61 128.116 140.814 127.608 140.814 127C140.814 126.392 140.61 125.884 140.202 125.476C139.794 125.068 139.29 124.864 138.69 124.864C138.098 124.864 137.598 125.068 137.19 125.476C136.782 125.884 136.578 126.392 136.578 127C136.578 127.608 136.782 128.116 137.19 128.524C137.598 128.932 138.098 129.136 138.69 129.136ZM143.089 130V121.24H144.133V130H143.089ZM151.81 122.452C150.754 122.364 150.226 122.82 150.226 123.82V124H151.81V125.008H150.226V130H149.182V125.008H148.222V124H149.182V123.82C149.182 123.012 149.406 122.4 149.854 121.984C150.31 121.568 150.962 121.388 151.81 121.444V122.452ZM157.34 129.244C156.724 129.852 155.976 130.156 155.096 130.156C154.216 130.156 153.468 129.852 152.852 129.244C152.244 128.636 151.94 127.888 151.94 127C151.94 126.112 152.244 125.364 152.852 124.756C153.468 124.148 154.216 123.844 155.096 123.844C155.976 123.844 156.724 124.148 157.34 124.756C157.956 125.364 158.264 126.112 158.264 127C158.264 127.888 157.956 128.636 157.34 129.244ZM155.096 129.136C155.696 129.136 156.2 128.932 156.608 128.524C157.016 128.116 157.22 127.608 157.22 127C157.22 126.392 157.016 125.884 156.608 125.476C156.2 125.068 155.696 124.864 155.096 124.864C154.504 124.864 154.004 125.068 153.596 125.476C153.188 125.884 152.984 126.392 152.984 127C152.984 127.608 153.188 128.116 153.596 128.524C154.004 128.932 154.504 129.136 155.096 129.136ZM160.539 125.008C160.883 124.264 161.507 123.892 162.411 123.892V124.984C161.899 124.96 161.459 125.096 161.091 125.392C160.723 125.688 160.539 126.164 160.539 126.82V130H159.495V124H160.539V125.008ZM171.761 121.6H172.877V130H171.977L167.657 123.724V130H166.541V121.6H167.441L171.761 127.864V121.6ZM179.509 122.656H175.789V125.38H179.353V126.436H175.789V130H174.673V121.6H179.509V122.656ZM186.237 121.6V122.656H183.753V130H182.649V122.656H180.177V121.6H186.237ZM193.221 123.844C193.925 123.844 194.489 124.068 194.913 124.516C195.337 124.956 195.549 125.556 195.549 126.316V130H194.505V126.376C194.505 125.888 194.373 125.512 194.109 125.248C193.845 124.976 193.481 124.84 193.017 124.84C192.497 124.84 192.077 125.004 191.757 125.332C191.437 125.652 191.277 126.148 191.277 126.82V130H190.233V121.6H191.277V124.864C191.701 124.184 192.349 123.844 193.221 123.844ZM202.071 129.244C201.455 129.852 200.707 130.156 199.827 130.156C198.947 130.156 198.199 129.852 197.583 129.244C196.975 128.636 196.671 127.888 196.671 127C196.671 126.112 196.975 125.364 197.583 124.756C198.199 124.148 198.947 123.844 199.827 123.844C200.707 123.844 201.455 124.148 202.071 124.756C202.687 125.364 202.995 126.112 202.995 127C202.995 127.888 202.687 128.636 202.071 129.244ZM199.827 129.136C200.427 129.136 200.931 128.932 201.339 128.524C201.747 128.116 201.951 127.608 201.951 127C201.951 126.392 201.747 125.884 201.339 125.476C200.931 125.068 200.427 124.864 199.827 124.864C199.235 124.864 198.735 125.068 198.327 125.476C197.919 125.884 197.715 126.392 197.715 127C197.715 127.608 197.919 128.116 198.327 128.524C198.735 128.932 199.235 129.136 199.827 129.136ZM204.226 130V121.24H205.27V130H204.226ZM211.83 121.6H212.874V130H211.83V128.968C211.31 129.76 210.554 130.156 209.562 130.156C208.722 130.156 208.006 129.852 207.414 129.244C206.822 128.628 206.526 127.88 206.526 127C206.526 126.12 206.822 125.376 207.414 124.768C208.006 124.152 208.722 123.844 209.562 123.844C210.554 123.844 211.31 124.24 211.83 125.032V121.6ZM209.694 129.148C210.302 129.148 210.81 128.944 211.218 128.536C211.626 128.12 211.83 127.608 211.83 127C211.83 126.392 211.626 125.884 211.218 125.476C210.81 125.06 210.302 124.852 209.694 124.852C209.094 124.852 208.59 125.06 208.182 125.476C207.774 125.884 207.57 126.392 207.57 127C207.57 127.608 207.774 128.12 208.182 128.536C208.59 128.944 209.094 129.148 209.694 129.148ZM215.188 127.48C215.292 128.016 215.536 128.432 215.92 128.728C216.312 129.024 216.792 129.172 217.36 129.172C218.152 129.172 218.728 128.88 219.088 128.296L219.976 128.8C219.392 129.704 218.512 130.156 217.336 130.156C216.384 130.156 215.608 129.86 215.008 129.268C214.416 128.668 214.12 127.912 214.12 127C214.12 126.096 214.412 125.344 214.996 124.744C215.58 124.144 216.336 123.844 217.264 123.844C218.144 123.844 218.86 124.156 219.412 124.78C219.972 125.396 220.252 126.14 220.252 127.012C220.252 127.164 220.24 127.32 220.216 127.48H215.188ZM217.264 124.828C216.704 124.828 216.24 124.988 215.872 125.308C215.504 125.62 215.276 126.04 215.188 126.568H219.196C219.108 126 218.884 125.568 218.524 125.272C218.164 124.976 217.744 124.828 217.264 124.828ZM222.496 125.008C222.84 124.264 223.464 123.892 224.368 123.892V124.984C223.856 124.96 223.416 125.096 223.048 125.392C222.68 125.688 222.496 126.164 222.496 126.82V130H221.452V124H222.496V125.008ZM226.067 125.62C226.067 125.852 226.183 126.04 226.415 126.184C226.647 126.32 226.927 126.432 227.255 126.52C227.583 126.6 227.911 126.696 228.239 126.808C228.567 126.912 228.847 127.096 229.079 127.36C229.311 127.616 229.427 127.948 229.427 128.356C229.427 128.9 229.215 129.336 228.791 129.664C228.375 129.992 227.839 130.156 227.183 130.156C226.599 130.156 226.099 130.028 225.683 129.772C225.267 129.516 224.971 129.176 224.795 128.752L225.695 128.236C225.791 128.524 225.971 128.752 226.235 128.92C226.499 129.088 226.815 129.172 227.183 129.172C227.527 129.172 227.811 129.108 228.035 128.98C228.259 128.844 228.371 128.636 228.371 128.356C228.371 128.124 228.255 127.94 228.023 127.804C227.791 127.66 227.511 127.548 227.183 127.468C226.855 127.38 226.527 127.28 226.199 127.168C225.871 127.056 225.591 126.872 225.359 126.616C225.127 126.36 225.011 126.032 225.011 125.632C225.011 125.112 225.211 124.684 225.611 124.348C226.019 124.012 226.527 123.844 227.135 123.844C227.623 123.844 228.055 123.956 228.431 124.18C228.815 124.396 229.103 124.7 229.295 125.092L228.419 125.584C228.203 125.072 227.775 124.816 227.135 124.816C226.839 124.816 226.587 124.888 226.379 125.032C226.171 125.168 226.067 125.364 226.067 125.62ZM24.056 143.008H22.46V146.26C22.46 146.556 22.516 146.768 22.628 146.896C22.748 147.016 22.928 147.08 23.168 147.088C23.408 147.088 23.704 147.08 24.056 147.064V148C23.144 148.12 22.476 148.048 22.052 147.784C21.628 147.512 21.416 147.004 21.416 146.26V143.008H20.228V142H21.416V140.632L22.46 140.32V142H24.056V143.008ZM30.0513 147.244C29.4353 147.852 28.6873 148.156 27.8073 148.156C26.9273 148.156 26.1793 147.852 25.5633 147.244C24.9553 146.636 24.6513 145.888 24.6513 145C24.6513 144.112 24.9553 143.364 25.5633 142.756C26.1793 142.148 26.9273 141.844 27.8073 141.844C28.6873 141.844 29.4353 142.148 30.0513 142.756C30.6673 143.364 30.9753 144.112 30.9753 145C30.9753 145.888 30.6673 146.636 30.0513 147.244ZM27.8073 147.136C28.4073 147.136 28.9113 146.932 29.3193 146.524C29.7273 146.116 29.9313 145.608 29.9313 145C29.9313 144.392 29.7273 143.884 29.3193 143.476C28.9113 143.068 28.4073 142.864 27.8073 142.864C27.2153 142.864 26.7153 143.068 26.3073 143.476C25.8993 143.884 25.6953 144.392 25.6953 145C25.6953 145.608 25.8993 146.116 26.3073 146.524C26.7153 146.932 27.2153 147.136 27.8073 147.136ZM35.9381 145.48C36.0421 146.016 36.2861 146.432 36.6701 146.728C37.0621 147.024 37.5421 147.172 38.1101 147.172C38.9021 147.172 39.4781 146.88 39.8381 146.296L40.7261 146.8C40.1421 147.704 39.2621 148.156 38.0861 148.156C37.1341 148.156 36.3581 147.86 35.7581 147.268C35.1661 146.668 34.8701 145.912 34.8701 145C34.8701 144.096 35.1621 143.344 35.7461 142.744C36.3301 142.144 37.0861 141.844 38.0141 141.844C38.8941 141.844 39.6101 142.156 40.1621 142.78C40.7221 143.396 41.0021 144.14 41.0021 145.012C41.0021 145.164 40.9901 145.32 40.9661 145.48H35.9381ZM38.0141 142.828C37.4541 142.828 36.9901 142.988 36.6221 143.308C36.2541 143.62 36.0261 144.04 35.9381 144.568H39.9461C39.8581 144 39.6341 143.568 39.2741 143.272C38.9141 142.976 38.4941 142.828 38.0141 142.828ZM47.1584 142H48.2024V148H47.1584V146.968C46.6384 147.76 45.8824 148.156 44.8904 148.156C44.0504 148.156 43.3344 147.852 42.7424 147.244C42.1504 146.628 41.8544 145.88 41.8544 145C41.8544 144.12 42.1504 143.376 42.7424 142.768C43.3344 142.152 44.0504 141.844 44.8904 141.844C45.8824 141.844 46.6384 142.24 47.1584 143.032V142ZM45.0224 147.148C45.6304 147.148 46.1384 146.944 46.5464 146.536C46.9544 146.12 47.1584 145.608 47.1584 145C47.1584 144.392 46.9544 143.884 46.5464 143.476C46.1384 143.06 45.6304 142.852 45.0224 142.852C44.4224 142.852 43.9184 143.06 43.5104 143.476C43.1024 143.884 42.8984 144.392 42.8984 145C42.8984 145.608 43.1024 146.12 43.5104 146.536C43.9184 146.944 44.4224 147.148 45.0224 147.148ZM50.8282 143.008C51.1722 142.264 51.7962 141.892 52.7002 141.892V142.984C52.1882 142.96 51.7482 143.096 51.3802 143.392C51.0122 143.688 50.8282 144.164 50.8282 144.82V148H49.7842V142H50.8282V143.008ZM56.7097 141.844C57.4137 141.844 57.9777 142.068 58.4017 142.516C58.8257 142.956 59.0377 143.556 59.0377 144.316V148H57.9937V144.376C57.9937 143.888 57.8617 143.512 57.5977 143.248C57.3337 142.976 56.9697 142.84 56.5057 142.84C55.9857 142.84 55.5657 143.004 55.2457 143.332C54.9257 143.652 54.7657 144.148 54.7657 144.82V148H53.7217V142H54.7657V142.864C55.1897 142.184 55.8377 141.844 56.7097 141.844ZM68.8831 145.756C68.8831 146.412 68.6671 146.952 68.2351 147.376C67.8031 147.8 67.2431 148.052 66.5551 148.132V149.2H65.7991V148.144C65.1431 148.096 64.5831 147.916 64.1191 147.604C63.6631 147.292 63.3311 146.872 63.1231 146.344L64.0831 145.792C64.3551 146.536 64.9271 146.956 65.7991 147.052V144.148C65.4391 144.02 65.1471 143.904 64.9231 143.8C64.7071 143.688 64.4791 143.54 64.2391 143.356C63.9991 143.172 63.8191 142.948 63.6991 142.684C63.5871 142.412 63.5311 142.1 63.5311 141.748C63.5311 141.1 63.7471 140.572 64.1791 140.164C64.6111 139.756 65.1511 139.52 65.7991 139.456V138.4H66.5551V139.468C67.0351 139.532 67.4631 139.7 67.8391 139.972C68.2151 140.244 68.5071 140.612 68.7151 141.076L67.7791 141.604C67.5471 141.02 67.1391 140.672 66.5551 140.56V143.32C66.9231 143.456 67.2151 143.576 67.4311 143.68C67.6471 143.784 67.8831 143.932 68.1391 144.124C68.3951 144.308 68.5831 144.536 68.7031 144.808C68.8231 145.08 68.8831 145.396 68.8831 145.756ZM64.6351 141.748C64.6351 142.052 64.7271 142.3 64.9111 142.492C65.0951 142.684 65.3911 142.864 65.7991 143.032V140.548C65.4471 140.596 65.1631 140.728 64.9471 140.944C64.7391 141.152 64.6351 141.42 64.6351 141.748ZM66.5551 147.028C66.9391 146.972 67.2351 146.832 67.4431 146.608C67.6591 146.376 67.7671 146.096 67.7671 145.768C67.7671 145.44 67.6671 145.18 67.4671 144.988C67.2751 144.788 66.9711 144.6 66.5551 144.424V147.028ZM71.3168 146.944H75.2168V148H70.2008V139.6H75.1568V140.656H71.3168V143.236H74.8568V144.28H71.3168V146.944ZM82.5401 148H81.2681L79.2041 144.688L77.1401 148H75.8801L78.5801 143.68L76.0361 139.6H77.2961L79.2041 142.66L81.1121 139.6H82.3721L79.8401 143.668L82.5401 148ZM86.6902 139.6C87.4662 139.6 88.1102 139.86 88.6222 140.38C89.1422 140.892 89.4022 141.532 89.4022 142.3C89.4022 143.06 89.1422 143.7 88.6222 144.22C88.1102 144.74 87.4662 145 86.6902 145H84.7582V148H83.6422V139.6H86.6902ZM86.6902 143.956C87.1542 143.956 87.5382 143.8 87.8422 143.488C88.1462 143.168 88.2982 142.772 88.2982 142.3C88.2982 141.82 88.1462 141.424 87.8422 141.112C87.5382 140.8 87.1542 140.644 86.6902 140.644H84.7582V143.956H86.6902ZM96.8763 143.008H95.2803V146.26C95.2803 146.556 95.3363 146.768 95.4483 146.896C95.5683 147.016 95.7483 147.08 95.9883 147.088C96.2283 147.088 96.5243 147.08 96.8763 147.064V148C95.9643 148.12 95.2963 148.048 94.8723 147.784C94.4483 147.512 94.2363 147.004 94.2363 146.26V143.008H93.0483V142H94.2363V140.632L95.2803 140.32V142H96.8763V143.008ZM102.872 147.244C102.256 147.852 101.508 148.156 100.628 148.156C99.7476 148.156 98.9996 147.852 98.3836 147.244C97.7756 146.636 97.4716 145.888 97.4716 145C97.4716 144.112 97.7756 143.364 98.3836 142.756C98.9996 142.148 99.7476 141.844 100.628 141.844C101.508 141.844 102.256 142.148 102.872 142.756C103.488 143.364 103.796 144.112 103.796 145C103.796 145.888 103.488 146.636 102.872 147.244ZM100.628 147.136C101.228 147.136 101.732 146.932 102.14 146.524C102.548 146.116 102.752 145.608 102.752 145C102.752 144.392 102.548 143.884 102.14 143.476C101.732 143.068 101.228 142.864 100.628 142.864C100.036 142.864 99.5356 143.068 99.1276 143.476C98.7196 143.884 98.5156 144.392 98.5156 145C98.5156 145.608 98.7196 146.116 99.1276 146.524C99.5356 146.932 100.036 147.136 100.628 147.136ZM110.102 148H108.806L106.07 145.156V148H105.026V139.6H106.07V144.652L108.662 142H110.006L107.138 144.904L110.102 148ZM111.254 145.48C111.358 146.016 111.602 146.432 111.986 146.728C112.378 147.024 112.858 147.172 113.426 147.172C114.218 147.172 114.794 146.88 115.154 146.296L116.042 146.8C115.458 147.704 114.578 148.156 113.402 148.156C112.45 148.156 111.674 147.86 111.074 147.268C110.482 146.668 110.186 145.912 110.186 145C110.186 144.096 110.478 143.344 111.062 142.744C111.646 142.144 112.402 141.844 113.33 141.844C114.21 141.844 114.926 142.156 115.478 142.78C116.038 143.396 116.318 144.14 116.318 145.012C116.318 145.164 116.306 145.32 116.282 145.48H111.254ZM113.33 142.828C112.77 142.828 112.306 142.988 111.938 143.308C111.57 143.62 111.342 144.04 111.254 144.568H115.262C115.174 144 114.95 143.568 114.59 143.272C114.23 142.976 113.81 142.828 113.33 142.828ZM120.507 141.844C121.211 141.844 121.775 142.068 122.199 142.516C122.623 142.956 122.835 143.556 122.835 144.316V148H121.791V144.376C121.791 143.888 121.659 143.512 121.395 143.248C121.131 142.976 120.767 142.84 120.303 142.84C119.783 142.84 119.363 143.004 119.043 143.332C118.723 143.652 118.563 144.148 118.563 144.82V148H117.519V142H118.563V142.864C118.987 142.184 119.635 141.844 120.507 141.844ZM124.952 148.132C124.736 148.132 124.552 148.056 124.4 147.904C124.248 147.752 124.172 147.568 124.172 147.352C124.172 147.136 124.248 146.952 124.4 146.8C124.552 146.648 124.736 146.572 124.952 146.572C125.176 146.572 125.36 146.648 125.504 146.8C125.656 146.952 125.732 147.136 125.732 147.352C125.732 147.568 125.656 147.752 125.504 147.904C125.36 148.056 125.176 148.132 124.952 148.132Z" fill="#1A1A1A"/>
</svg>
