<svg width="255" height="161" viewBox="0 0 276 161" fill="none" xmlns="http://www.w3.org/2000/svg">
<rect x="15" width="255" height="161" fill="#D1EACB"/>
<path d="M-1.37215e-06 79.8025L47.0867 52.617L47.0867 106.988L-1.37215e-06 79.8025Z" fill="#D1EACB"/>
<path d="M37.9581 19.748C37.7021 20.012 37.3861 20.144 37.0101 20.144C36.6341 20.144 36.3141 20.012 36.0501 19.748C35.7861 19.484 35.6541 19.164 35.6541 18.788C35.6541 18.412 35.7861 18.096 36.0501 17.84C36.3141 17.576 36.6341 17.444 37.0101 17.444C37.3861 17.444 37.7021 17.576 37.9581 17.84C38.2221 18.096 38.3541 18.412 38.3541 18.788C38.3541 19.164 38.2221 19.484 37.9581 19.748ZM52.276 14.6V15.656H49.792V23H48.688V15.656H46.216V14.6H52.276ZM56.2605 16.844C56.9645 16.844 57.5285 17.068 57.9525 17.516C58.3765 17.956 58.5885 18.556 58.5885 19.316V23H57.5445V19.376C57.5445 18.888 57.4125 18.512 57.1485 18.248C56.8845 17.976 56.5205 17.84 56.0565 17.84C55.5365 17.84 55.1165 18.004 54.7965 18.332C54.4765 18.652 54.3165 19.148 54.3165 19.82V23H53.2725V14.6H54.3165V17.864C54.7405 17.184 55.3885 16.844 56.2605 16.844ZM60.7779 20.48C60.8819 21.016 61.1259 21.432 61.5099 21.728C61.9019 22.024 62.3819 22.172 62.9499 22.172C63.7419 22.172 64.3179 21.88 64.6779 21.296L65.5659 21.8C64.9819 22.704 64.1019 23.156 62.9259 23.156C61.9739 23.156 61.1979 22.86 60.5979 22.268C60.0059 21.668 59.7099 20.912 59.7099 20C59.7099 19.096 60.0019 18.344 60.5859 17.744C61.1699 17.144 61.9259 16.844 62.8539 16.844C63.7339 16.844 64.4499 17.156 65.0019 17.78C65.5619 18.396 65.8419 19.14 65.8419 20.012C65.8419 20.164 65.8299 20.32 65.8059 20.48H60.7779ZM62.8539 17.828C62.2939 17.828 61.8299 17.988 61.4619 18.308C61.0939 18.62 60.8659 19.04 60.7779 19.568H64.7859C64.6979 19 64.4739 18.568 64.1139 18.272C63.7539 17.976 63.3339 17.828 62.8539 17.828ZM71.266 21.944H75.166V23H70.15V14.6H75.106V15.656H71.266V18.236H74.806V19.28H71.266V21.944ZM79.0964 23.156C78.1924 23.156 77.4404 22.856 76.8404 22.256C76.2404 21.648 75.9404 20.896 75.9404 20C75.9404 19.104 76.2404 18.356 76.8404 17.756C77.4404 17.148 78.1924 16.844 79.0964 16.844C79.6884 16.844 80.2204 16.988 80.6924 17.276C81.1644 17.556 81.5164 17.936 81.7484 18.416L80.8724 18.92C80.7204 18.6 80.4844 18.344 80.1644 18.152C79.8524 17.96 79.4964 17.864 79.0964 17.864C78.4964 17.864 77.9924 18.068 77.5844 18.476C77.1844 18.884 76.9844 19.392 76.9844 20C76.9844 20.6 77.1844 21.104 77.5844 21.512C77.9924 21.92 78.4964 22.124 79.0964 22.124C79.4964 22.124 79.8564 22.032 80.1764 21.848C80.4964 21.656 80.7404 21.4 80.9084 21.08L81.7964 21.596C81.5404 22.068 81.1724 22.448 80.6924 22.736C80.2124 23.016 79.6804 23.156 79.0964 23.156ZM85.8152 16.844C86.5192 16.844 87.0832 17.068 87.5072 17.516C87.9312 17.956 88.1432 18.556 88.1432 19.316V23H87.0992V19.376C87.0992 18.888 86.9672 18.512 86.7032 18.248C86.4392 17.976 86.0752 17.84 85.6112 17.84C85.0912 17.84 84.6712 18.004 84.3512 18.332C84.0312 18.652 83.8712 19.148 83.8712 19.82V23H82.8272V14.6H83.8712V17.864C84.2952 17.184 84.9432 16.844 85.8152 16.844ZM94.6646 22.244C94.0486 22.852 93.3006 23.156 92.4206 23.156C91.5406 23.156 90.7926 22.852 90.1766 22.244C89.5686 21.636 89.2646 20.888 89.2646 20C89.2646 19.112 89.5686 18.364 90.1766 17.756C90.7926 17.148 91.5406 16.844 92.4206 16.844C93.3006 16.844 94.0486 17.148 94.6646 17.756C95.2806 18.364 95.5886 19.112 95.5886 20C95.5886 20.888 95.2806 21.636 94.6646 22.244ZM92.4206 22.136C93.0206 22.136 93.5246 21.932 93.9326 21.524C94.3406 21.116 94.5446 20.608 94.5446 20C94.5446 19.392 94.3406 18.884 93.9326 18.476C93.5246 18.068 93.0206 17.864 92.4206 17.864C91.8286 17.864 91.3286 18.068 90.9206 18.476C90.5126 18.884 90.3086 19.392 90.3086 20C90.3086 20.608 90.5126 21.116 90.9206 21.524C91.3286 21.932 91.8286 22.136 92.4206 22.136ZM105.459 23L104.775 21.116H100.995L100.311 23H99.1233L102.255 14.6H103.515L106.647 23H105.459ZM101.379 20.072H104.391L102.879 15.932L101.379 20.072ZM110.842 16.844C111.682 16.844 112.398 17.152 112.99 17.768C113.582 18.376 113.878 19.12 113.878 20C113.878 20.88 113.582 21.628 112.99 22.244C112.398 22.852 111.682 23.156 110.842 23.156C109.85 23.156 109.094 22.76 108.574 21.968V25.4H107.53V17H108.574V18.032C109.094 17.24 109.85 16.844 110.842 16.844ZM110.71 22.148C111.31 22.148 111.814 21.944 112.222 21.536C112.63 21.12 112.834 20.608 112.834 20C112.834 19.392 112.63 18.884 112.222 18.476C111.814 18.06 111.31 17.852 110.71 17.852C110.102 17.852 109.594 18.06 109.186 18.476C108.778 18.884 108.574 19.392 108.574 20C108.574 20.608 108.778 21.12 109.186 21.536C109.594 21.944 110.102 22.148 110.71 22.148ZM118.436 16.844C119.276 16.844 119.992 17.152 120.584 17.768C121.176 18.376 121.472 19.12 121.472 20C121.472 20.88 121.176 21.628 120.584 22.244C119.992 22.852 119.276 23.156 118.436 23.156C117.444 23.156 116.688 22.76 116.168 21.968V25.4H115.124V17H116.168V18.032C116.688 17.24 117.444 16.844 118.436 16.844ZM118.304 22.148C118.904 22.148 119.408 21.944 119.816 21.536C120.224 21.12 120.428 20.608 120.428 20C120.428 19.392 120.224 18.884 119.816 18.476C119.408 18.06 118.904 17.852 118.304 17.852C117.696 17.852 117.188 18.06 116.78 18.476C116.372 18.884 116.168 19.392 116.168 20C116.168 20.608 116.372 21.12 116.78 21.536C117.188 21.944 117.696 22.148 118.304 22.148ZM126.246 15.908C126.046 15.908 125.878 15.84 125.742 15.704C125.606 15.568 125.538 15.404 125.538 15.212C125.538 15.02 125.606 14.856 125.742 14.72C125.878 14.576 126.046 14.504 126.246 14.504C126.438 14.504 126.602 14.576 126.738 14.72C126.874 14.856 126.942 15.02 126.942 15.212C126.942 15.404 126.874 15.568 126.738 15.704C126.602 15.84 126.438 15.908 126.246 15.908ZM125.718 23V17H126.762V23H125.718ZM129.243 18.62C129.243 18.852 129.359 19.04 129.591 19.184C129.823 19.32 130.103 19.432 130.431 19.52C130.759 19.6 131.087 19.696 131.415 19.808C131.743 19.912 132.023 20.096 132.255 20.36C132.487 20.616 132.603 20.948 132.603 21.356C132.603 21.9 132.391 22.336 131.967 22.664C131.551 22.992 131.015 23.156 130.359 23.156C129.775 23.156 129.275 23.028 128.859 22.772C128.443 22.516 128.147 22.176 127.971 21.752L128.871 21.236C128.967 21.524 129.147 21.752 129.411 21.92C129.675 22.088 129.991 22.172 130.359 22.172C130.703 22.172 130.987 22.108 131.211 21.98C131.435 21.844 131.547 21.636 131.547 21.356C131.547 21.124 131.431 20.94 131.199 20.804C130.967 20.66 130.687 20.548 130.359 20.468C130.031 20.38 129.703 20.28 129.375 20.168C129.047 20.056 128.767 19.872 128.535 19.616C128.303 19.36 128.187 19.032 128.187 18.632C128.187 18.112 128.387 17.684 128.787 17.348C129.195 17.012 129.703 16.844 130.311 16.844C130.799 16.844 131.231 16.956 131.607 17.18C131.991 17.396 132.279 17.7 132.471 18.092L131.595 18.584C131.379 18.072 130.951 17.816 130.311 17.816C130.015 17.816 129.763 17.888 129.555 18.032C129.347 18.168 129.243 18.364 129.243 18.62ZM140.103 18.008H138.507V21.26C138.507 21.556 138.563 21.768 138.675 21.896C138.795 22.016 138.975 22.08 139.215 22.088C139.455 22.088 139.751 22.08 140.103 22.064V23C139.191 23.12 138.523 23.048 138.099 22.784C137.675 22.512 137.463 22.004 137.463 21.26V18.008H136.275V17H137.463V15.632L138.507 15.32V17H140.103V18.008ZM144.327 16.844C145.031 16.844 145.595 17.068 146.019 17.516C146.443 17.956 146.655 18.556 146.655 19.316V23H145.611V19.376C145.611 18.888 145.479 18.512 145.215 18.248C144.951 17.976 144.587 17.84 144.123 17.84C143.603 17.84 143.183 18.004 142.863 18.332C142.543 18.652 142.383 19.148 142.383 19.82V23H141.339V14.6H142.383V17.864C142.807 17.184 143.455 16.844 144.327 16.844ZM148.844 20.48C148.948 21.016 149.192 21.432 149.576 21.728C149.968 22.024 150.448 22.172 151.016 22.172C151.808 22.172 152.384 21.88 152.744 21.296L153.632 21.8C153.048 22.704 152.168 23.156 150.992 23.156C150.04 23.156 149.264 22.86 148.664 22.268C148.072 21.668 147.776 20.912 147.776 20C147.776 19.096 148.068 18.344 148.652 17.744C149.236 17.144 149.992 16.844 150.92 16.844C151.8 16.844 152.516 17.156 153.068 17.78C153.628 18.396 153.908 19.14 153.908 20.012C153.908 20.164 153.896 20.32 153.872 20.48H148.844ZM150.92 17.828C150.36 17.828 149.896 17.988 149.528 18.308C149.16 18.62 148.932 19.04 148.844 19.568H152.852C152.764 19 152.54 18.568 152.18 18.272C151.82 17.976 151.4 17.828 150.92 17.828ZM164.096 18.14H162.704L162.488 19.46H163.892L163.748 20.324H162.344L161.996 22.4H161.084L161.432 20.324H159.968L159.62 22.4H158.696L159.044 20.324H157.652L157.796 19.46H159.188L159.404 18.14H158L158.144 17.264H159.548L159.896 15.2H160.82L160.472 17.264H161.936L162.284 15.2H163.196L162.848 17.264H164.24L164.096 18.14ZM161.576 19.46L161.792 18.14H160.328L160.112 19.46H161.576ZM166.958 14.6H167.918V23H166.814V15.8L165.026 16.328L164.75 15.368L166.958 14.6ZM175.963 16.844C176.803 16.844 177.519 17.152 178.111 17.768C178.703 18.376 178.999 19.12 178.999 20C178.999 20.88 178.703 21.628 178.111 22.244C177.519 22.852 176.803 23.156 175.963 23.156C174.971 23.156 174.215 22.76 173.695 21.968V25.4H172.651V17H173.695V18.032C174.215 17.24 174.971 16.844 175.963 16.844ZM175.831 22.148C176.431 22.148 176.935 21.944 177.343 21.536C177.751 21.12 177.955 20.608 177.955 20C177.955 19.392 177.751 18.884 177.343 18.476C176.935 18.06 176.431 17.852 175.831 17.852C175.223 17.852 174.715 18.06 174.307 18.476C173.899 18.884 173.695 19.392 173.695 20C173.695 20.608 173.899 21.12 174.307 21.536C174.715 21.944 175.223 22.148 175.831 22.148ZM180.245 23V14.24H181.289V23H180.245ZM187.85 17H188.894V23H187.85V21.968C187.33 22.76 186.574 23.156 185.582 23.156C184.742 23.156 184.026 22.852 183.434 22.244C182.842 21.628 182.546 20.88 182.546 20C182.546 19.12 182.842 18.376 183.434 17.768C184.026 17.152 184.742 16.844 185.582 16.844C186.574 16.844 187.33 17.24 187.85 18.032V17ZM185.714 22.148C186.322 22.148 186.83 21.944 187.238 21.536C187.646 21.12 187.85 20.608 187.85 20C187.85 19.392 187.646 18.884 187.238 18.476C186.83 18.06 186.322 17.852 185.714 17.852C185.114 17.852 184.61 18.06 184.202 18.476C183.794 18.884 183.59 19.392 183.59 20C183.59 20.608 183.794 21.12 184.202 21.536C184.61 21.944 185.114 22.148 185.714 22.148ZM194.664 17H195.78L193.332 23.372C193.076 24.052 192.716 24.568 192.252 24.92C191.796 25.28 191.268 25.44 190.668 25.4V24.428C191.404 24.484 191.944 24.076 192.288 23.204L192.396 22.976L189.78 17H190.896L192.936 21.704L194.664 17ZM196.291 23V22.088L199.255 19.064C200.047 18.272 200.443 17.592 200.443 17.024C200.443 16.552 200.299 16.184 200.011 15.92C199.723 15.656 199.371 15.524 198.955 15.524C198.163 15.524 197.587 15.9 197.227 16.652L196.291 16.1C196.555 15.556 196.919 15.144 197.383 14.864C197.855 14.584 198.375 14.444 198.943 14.444C199.647 14.444 200.259 14.676 200.779 15.14C201.299 15.604 201.559 16.228 201.559 17.012C201.559 17.86 201.059 18.784 200.059 19.784L197.911 21.92H201.715V23H196.291ZM203.477 20.48C203.581 21.016 203.825 21.432 204.209 21.728C204.601 22.024 205.081 22.172 205.649 22.172C206.441 22.172 207.017 21.88 207.377 21.296L208.265 21.8C207.681 22.704 206.801 23.156 205.625 23.156C204.673 23.156 203.897 22.86 203.297 22.268C202.705 21.668 202.409 20.912 202.409 20C202.409 19.096 202.701 18.344 203.285 17.744C203.869 17.144 204.625 16.844 205.553 16.844C206.433 16.844 207.149 17.156 207.701 17.78C208.261 18.396 208.541 19.14 208.541 20.012C208.541 20.164 208.529 20.32 208.505 20.48H203.477ZM205.553 17.828C204.993 17.828 204.529 17.988 204.161 18.308C203.793 18.62 203.565 19.04 203.477 19.568H207.485C207.397 19 207.173 18.568 206.813 18.272C206.453 17.976 206.033 17.828 205.553 17.828ZM214.698 17H215.742V23H214.698V21.968C214.178 22.76 213.422 23.156 212.43 23.156C211.59 23.156 210.874 22.852 210.282 22.244C209.69 21.628 209.394 20.88 209.394 20C209.394 19.12 209.69 18.376 210.282 17.768C210.874 17.152 211.59 16.844 212.43 16.844C213.422 16.844 214.178 17.24 214.698 18.032V17ZM212.562 22.148C213.17 22.148 213.678 21.944 214.086 21.536C214.494 21.12 214.698 20.608 214.698 20C214.698 19.392 214.494 18.884 214.086 18.476C213.678 18.06 213.17 17.852 212.562 17.852C211.962 17.852 211.458 18.06 211.05 18.476C210.642 18.884 210.438 19.392 210.438 20C210.438 20.608 210.642 21.12 211.05 21.536C211.458 21.944 211.962 22.148 212.562 22.148ZM218.367 18.008C218.711 17.264 219.335 16.892 220.239 16.892V17.984C219.727 17.96 219.287 18.096 218.919 18.392C218.551 18.688 218.367 19.164 218.367 19.82V23H217.323V17H218.367V18.008ZM224.249 16.844C224.953 16.844 225.517 17.068 225.941 17.516C226.365 17.956 226.577 18.556 226.577 19.316V23H225.533V19.376C225.533 18.888 225.401 18.512 225.137 18.248C224.873 17.976 224.509 17.84 224.045 17.84C223.525 17.84 223.105 18.004 222.785 18.332C222.465 18.652 222.305 19.148 222.305 19.82V23H221.261V17H222.305V17.864C222.729 17.184 223.377 16.844 224.249 16.844ZM51.772 35H52.804V40.748C52.804 41.636 52.504 42.324 51.904 42.812C51.304 43.308 50.584 43.556 49.744 43.556C49.072 43.556 48.492 43.428 48.004 43.172C47.516 42.924 47.148 42.564 46.9 42.092L47.812 41.576C48.14 42.248 48.792 42.584 49.768 42.584C50.392 42.584 50.88 42.42 51.232 42.092C51.592 41.764 51.772 41.316 51.772 40.748V39.896C51.244 40.696 50.492 41.096 49.516 41.096C48.66 41.096 47.936 40.792 47.344 40.184C46.752 39.576 46.456 38.836 46.456 37.964C46.456 37.092 46.752 36.356 47.344 35.756C47.936 35.148 48.66 34.844 49.516 34.844C50.5 34.844 51.252 35.24 51.772 36.032V35ZM48.112 39.488C48.52 39.896 49.028 40.1 49.636 40.1C50.244 40.1 50.752 39.896 51.16 39.488C51.568 39.08 51.772 38.572 51.772 37.964C51.772 37.364 51.568 36.86 51.16 36.452C50.752 36.044 50.244 35.84 49.636 35.84C49.028 35.84 48.52 36.044 48.112 36.452C47.704 36.86 47.5 37.364 47.5 37.964C47.5 38.572 47.704 39.08 48.112 39.488ZM59.3538 35H60.3978V41H59.3538V39.968C58.8338 40.76 58.0778 41.156 57.0858 41.156C56.2458 41.156 55.5298 40.852 54.9378 40.244C54.3458 39.628 54.0498 38.88 54.0498 38C54.0498 37.12 54.3458 36.376 54.9378 35.768C55.5298 35.152 56.2458 34.844 57.0858 34.844C58.0778 34.844 58.8338 35.24 59.3538 36.032V35ZM57.2178 40.148C57.8258 40.148 58.3338 39.944 58.7418 39.536C59.1498 39.12 59.3538 38.608 59.3538 38C59.3538 37.392 59.1498 36.884 58.7418 36.476C58.3338 36.06 57.8258 35.852 57.2178 35.852C56.6178 35.852 56.1138 36.06 55.7058 36.476C55.2978 36.884 55.0938 37.392 55.0938 38C55.0938 38.608 55.2978 39.12 55.7058 39.536C56.1138 39.944 56.6178 40.148 57.2178 40.148ZM68.4595 34.844C69.1315 34.844 69.6755 35.064 70.0915 35.504C70.5075 35.936 70.7155 36.524 70.7155 37.268V41H69.6715V37.304C69.6715 36.84 69.5515 36.48 69.3115 36.224C69.0715 35.968 68.7515 35.84 68.3515 35.84C67.9035 35.84 67.5435 35.992 67.2715 36.296C67.0075 36.592 66.8755 37.048 66.8755 37.664V41H65.8315V37.304C65.8315 36.84 65.7155 36.48 65.4835 36.224C65.2595 35.968 64.9515 35.84 64.5595 35.84C64.1195 35.84 63.7515 35.992 63.4555 36.296C63.1675 36.6 63.0235 37.056 63.0235 37.664V41H61.9795V35H63.0235V35.804C63.4315 35.164 64.0275 34.844 64.8115 34.844C65.6195 34.844 66.2075 35.184 66.5755 35.864C66.9915 35.184 67.6195 34.844 68.4595 34.844ZM72.6911 33.908C72.4911 33.908 72.3231 33.84 72.1871 33.704C72.0511 33.568 71.9831 33.404 71.9831 33.212C71.9831 33.02 72.0511 32.856 72.1871 32.72C72.3231 32.576 72.4911 32.504 72.6911 32.504C72.8831 32.504 73.0471 32.576 73.1831 32.72C73.3191 32.856 73.3871 33.02 73.3871 33.212C73.3871 33.404 73.3191 33.568 73.1831 33.704C73.0471 33.84 72.8831 33.908 72.6911 33.908ZM72.1631 41V35H73.2071V41H72.1631ZM77.7878 34.844C78.4918 34.844 79.0558 35.068 79.4798 35.516C79.9038 35.956 80.1158 36.556 80.1158 37.316V41H79.0718V37.376C79.0718 36.888 78.9398 36.512 78.6758 36.248C78.4118 35.976 78.0478 35.84 77.5838 35.84C77.0638 35.84 76.6438 36.004 76.3238 36.332C76.0038 36.652 75.8438 37.148 75.8438 37.82V41H74.7998V35H75.8438V35.864C76.2678 35.184 76.9158 34.844 77.7878 34.844ZM86.5533 35H87.5853V40.748C87.5853 41.636 87.2853 42.324 86.6853 42.812C86.0853 43.308 85.3653 43.556 84.5253 43.556C83.8533 43.556 83.2733 43.428 82.7853 43.172C82.2973 42.924 81.9293 42.564 81.6813 42.092L82.5933 41.576C82.9213 42.248 83.5733 42.584 84.5493 42.584C85.1733 42.584 85.6613 42.42 86.0133 42.092C86.3733 41.764 86.5533 41.316 86.5533 40.748V39.896C86.0253 40.696 85.2733 41.096 84.2973 41.096C83.4413 41.096 82.7173 40.792 82.1253 40.184C81.5333 39.576 81.2373 38.836 81.2373 37.964C81.2373 37.092 81.5333 36.356 82.1253 35.756C82.7173 35.148 83.4413 34.844 84.2973 34.844C85.2813 34.844 86.0333 35.24 86.5533 36.032V35ZM82.8933 39.488C83.3013 39.896 83.8093 40.1 84.4173 40.1C85.0253 40.1 85.5333 39.896 85.9413 39.488C86.3493 39.08 86.5533 38.572 86.5533 37.964C86.5533 37.364 86.3493 36.86 85.9413 36.452C85.5333 36.044 85.0253 35.84 84.4173 35.84C83.8093 35.84 83.3013 36.044 82.8933 36.452C82.4853 36.86 82.2812 37.364 82.2812 37.964C82.2812 38.572 82.4853 39.08 82.8933 39.488ZM97.135 35H98.179V41H97.135V39.968C96.615 40.76 95.859 41.156 94.867 41.156C94.027 41.156 93.311 40.852 92.719 40.244C92.127 39.628 91.831 38.88 91.831 38C91.831 37.12 92.127 36.376 92.719 35.768C93.311 35.152 94.027 34.844 94.867 34.844C95.859 34.844 96.615 35.24 97.135 36.032V35ZM94.999 40.148C95.607 40.148 96.115 39.944 96.523 39.536C96.931 39.12 97.135 38.608 97.135 38C97.135 37.392 96.931 36.884 96.523 36.476C96.115 36.06 95.607 35.852 94.999 35.852C94.399 35.852 93.895 36.06 93.487 36.476C93.079 36.884 92.875 37.392 92.875 38C92.875 38.608 93.079 39.12 93.487 39.536C93.895 39.944 94.399 40.148 94.999 40.148ZM103.073 34.844C103.913 34.844 104.629 35.152 105.221 35.768C105.813 36.376 106.109 37.12 106.109 38C106.109 38.88 105.813 39.628 105.221 40.244C104.629 40.852 103.913 41.156 103.073 41.156C102.081 41.156 101.325 40.76 100.805 39.968V43.4H99.7607V35H100.805V36.032C101.325 35.24 102.081 34.844 103.073 34.844ZM102.941 40.148C103.541 40.148 104.045 39.944 104.453 39.536C104.861 39.12 105.065 38.608 105.065 38C105.065 37.392 104.861 36.884 104.453 36.476C104.045 36.06 103.541 35.852 102.941 35.852C102.333 35.852 101.825 36.06 101.417 36.476C101.009 36.884 100.805 37.392 100.805 38C100.805 38.608 101.009 39.12 101.417 39.536C101.825 39.944 102.333 40.148 102.941 40.148ZM110.667 34.844C111.507 34.844 112.223 35.152 112.815 35.768C113.407 36.376 113.703 37.12 113.703 38C113.703 38.88 113.407 39.628 112.815 40.244C112.223 40.852 111.507 41.156 110.667 41.156C109.675 41.156 108.919 40.76 108.399 39.968V43.4H107.354V35H108.399V36.032C108.919 35.24 109.675 34.844 110.667 34.844ZM110.535 40.148C111.135 40.148 111.639 39.944 112.047 39.536C112.455 39.12 112.659 38.608 112.659 38C112.659 37.392 112.455 36.884 112.047 36.476C111.639 36.06 111.135 35.852 110.535 35.852C109.927 35.852 109.419 36.06 109.011 36.476C108.603 36.884 108.399 37.392 108.399 38C108.399 38.608 108.603 39.12 109.011 39.536C109.419 39.944 109.927 40.148 110.535 40.148ZM122.916 35H123.96V41H122.916V39.968C122.396 40.76 121.64 41.156 120.648 41.156C119.808 41.156 119.092 40.852 118.5 40.244C117.908 39.628 117.612 38.88 117.612 38C117.612 37.12 117.908 36.376 118.5 35.768C119.092 35.152 119.808 34.844 120.648 34.844C121.64 34.844 122.396 35.24 122.916 36.032V35ZM120.78 40.148C121.388 40.148 121.896 39.944 122.304 39.536C122.712 39.12 122.916 38.608 122.916 38C122.916 37.392 122.712 36.884 122.304 36.476C121.896 36.06 121.388 35.852 120.78 35.852C120.18 35.852 119.676 36.06 119.268 36.476C118.86 36.884 118.656 37.392 118.656 38C118.656 38.608 118.86 39.12 119.268 39.536C119.676 39.944 120.18 40.148 120.78 40.148ZM129.742 35H130.87L128.47 41H127.246L124.846 35H125.974L127.858 39.884L129.742 35ZM136.487 35H137.531V41H136.487V39.968C135.967 40.76 135.211 41.156 134.219 41.156C133.379 41.156 132.663 40.852 132.071 40.244C131.479 39.628 131.183 38.88 131.183 38C131.183 37.12 131.479 36.376 132.071 35.768C132.663 35.152 133.379 34.844 134.219 34.844C135.211 34.844 135.967 35.24 136.487 36.032V35ZM134.351 40.148C134.959 40.148 135.467 39.944 135.875 39.536C136.283 39.12 136.487 38.608 136.487 38C136.487 37.392 136.283 36.884 135.875 36.476C135.467 36.06 134.959 35.852 134.351 35.852C133.751 35.852 133.247 36.06 132.839 36.476C132.431 36.884 132.227 37.392 132.227 38C132.227 38.608 132.431 39.12 132.839 39.536C133.247 39.944 133.751 40.148 134.351 40.148ZM139.64 33.908C139.44 33.908 139.272 33.84 139.136 33.704C139 33.568 138.932 33.404 138.932 33.212C138.932 33.02 139 32.856 139.136 32.72C139.272 32.576 139.44 32.504 139.64 32.504C139.832 32.504 139.996 32.576 140.132 32.72C140.268 32.856 140.336 33.02 140.336 33.212C140.336 33.404 140.268 33.568 140.132 33.704C139.996 33.84 139.832 33.908 139.64 33.908ZM139.112 41V35H140.156V41H139.112ZM141.749 41V32.24H142.793V41H141.749ZM149.354 35H150.398V41H149.354V39.968C148.834 40.76 148.078 41.156 147.086 41.156C146.246 41.156 145.53 40.852 144.938 40.244C144.346 39.628 144.05 38.88 144.05 38C144.05 37.12 144.346 36.376 144.938 35.768C145.53 35.152 146.246 34.844 147.086 34.844C148.078 34.844 148.834 35.24 149.354 36.032V35ZM147.218 40.148C147.826 40.148 148.334 39.944 148.742 39.536C149.15 39.12 149.354 38.608 149.354 38C149.354 37.392 149.15 36.884 148.742 36.476C148.334 36.06 147.826 35.852 147.218 35.852C146.618 35.852 146.114 36.06 145.706 36.476C145.298 36.884 145.094 37.392 145.094 38C145.094 38.608 145.298 39.12 145.706 39.536C146.114 39.944 146.618 40.148 147.218 40.148ZM155.292 34.844C156.132 34.844 156.848 35.152 157.44 35.768C158.032 36.376 158.328 37.12 158.328 38C158.328 38.88 158.032 39.628 157.44 40.244C156.848 40.852 156.132 41.156 155.292 41.156C154.3 41.156 153.544 40.76 153.024 39.968V41H151.979V32.6H153.024V36.032C153.544 35.24 154.3 34.844 155.292 34.844ZM155.16 40.148C155.76 40.148 156.264 39.944 156.672 39.536C157.08 39.12 157.284 38.608 157.284 38C157.284 37.392 157.08 36.884 156.672 36.476C156.264 36.06 155.76 35.852 155.16 35.852C154.552 35.852 154.044 36.06 153.636 36.476C153.228 36.884 153.024 37.392 153.024 38C153.024 38.608 153.228 39.12 153.636 39.536C154.044 39.944 154.552 40.148 155.16 40.148ZM159.573 41V32.24H160.617V41H159.573ZM162.942 38.48C163.046 39.016 163.29 39.432 163.674 39.728C164.066 40.024 164.546 40.172 165.114 40.172C165.906 40.172 166.482 39.88 166.842 39.296L167.73 39.8C167.146 40.704 166.266 41.156 165.09 41.156C164.138 41.156 163.362 40.86 162.762 40.268C162.17 39.668 161.874 38.912 161.874 38C161.874 37.096 162.166 36.344 162.75 35.744C163.334 35.144 164.09 34.844 165.018 34.844C165.898 34.844 166.614 35.156 167.166 35.78C167.726 36.396 168.006 37.14 168.006 38.012C168.006 38.164 167.994 38.32 167.97 38.48H162.942ZM165.018 35.828C164.458 35.828 163.994 35.988 163.626 36.308C163.258 36.62 163.03 37.04 162.942 37.568H166.95C166.862 37 166.638 36.568 166.278 36.272C165.918 35.976 165.498 35.828 165.018 35.828ZM177.174 35H178.218V41H177.174V39.968C176.654 40.76 175.898 41.156 174.906 41.156C174.066 41.156 173.35 40.852 172.758 40.244C172.166 39.628 171.87 38.88 171.87 38C171.87 37.12 172.166 36.376 172.758 35.768C173.35 35.152 174.066 34.844 174.906 34.844C175.898 34.844 176.654 35.24 177.174 36.032V35ZM175.038 40.148C175.646 40.148 176.154 39.944 176.562 39.536C176.97 39.12 177.174 38.608 177.174 38C177.174 37.392 176.97 36.884 176.562 36.476C176.154 36.06 175.646 35.852 175.038 35.852C174.438 35.852 173.934 36.06 173.526 36.476C173.118 36.884 172.914 37.392 172.914 38C172.914 38.608 173.118 39.12 173.526 39.536C173.934 39.944 174.438 40.148 175.038 40.148ZM182.62 41.156C181.716 41.156 180.964 40.856 180.364 40.256C179.764 39.648 179.464 38.896 179.464 38C179.464 37.104 179.764 36.356 180.364 35.756C180.964 35.148 181.716 34.844 182.62 34.844C183.212 34.844 183.744 34.988 184.216 35.276C184.688 35.556 185.04 35.936 185.272 36.416L184.396 36.92C184.244 36.6 184.008 36.344 183.688 36.152C183.376 35.96 183.02 35.864 182.62 35.864C182.02 35.864 181.516 36.068 181.108 36.476C180.708 36.884 180.508 37.392 180.508 38C180.508 38.6 180.708 39.104 181.108 39.512C181.516 39.92 182.02 40.124 182.62 40.124C183.02 40.124 183.38 40.032 183.7 39.848C184.02 39.656 184.264 39.4 184.432 39.08L185.32 39.596C185.064 40.068 184.696 40.448 184.216 40.736C183.736 41.016 183.204 41.156 182.62 41.156ZM187.406 36.008C187.75 35.264 188.374 34.892 189.278 34.892V35.984C188.766 35.96 188.326 36.096 187.958 36.392C187.59 36.688 187.406 37.164 187.406 37.82V41H186.362V35H187.406V36.008ZM195.036 40.244C194.42 40.852 193.672 41.156 192.792 41.156C191.912 41.156 191.164 40.852 190.548 40.244C189.94 39.636 189.636 38.888 189.636 38C189.636 37.112 189.94 36.364 190.548 35.756C191.164 35.148 191.912 34.844 192.792 34.844C193.672 34.844 194.42 35.148 195.036 35.756C195.652 36.364 195.96 37.112 195.96 38C195.96 38.888 195.652 39.636 195.036 40.244ZM192.792 40.136C193.392 40.136 193.896 39.932 194.304 39.524C194.712 39.116 194.916 38.608 194.916 38C194.916 37.392 194.712 36.884 194.304 36.476C193.896 36.068 193.392 35.864 192.792 35.864C192.2 35.864 191.7 36.068 191.292 36.476C190.884 36.884 190.68 37.392 190.68 38C190.68 38.608 190.884 39.116 191.292 39.524C191.7 39.932 192.2 40.136 192.792 40.136ZM197.962 36.62C197.962 36.852 198.078 37.04 198.31 37.184C198.542 37.32 198.822 37.432 199.15 37.52C199.478 37.6 199.806 37.696 200.134 37.808C200.462 37.912 200.742 38.096 200.974 38.36C201.206 38.616 201.322 38.948 201.322 39.356C201.322 39.9 201.11 40.336 200.686 40.664C200.27 40.992 199.734 41.156 199.078 41.156C198.494 41.156 197.994 41.028 197.578 40.772C197.162 40.516 196.866 40.176 196.69 39.752L197.59 39.236C197.686 39.524 197.866 39.752 198.13 39.92C198.394 40.088 198.71 40.172 199.078 40.172C199.422 40.172 199.706 40.108 199.93 39.98C200.154 39.844 200.266 39.636 200.266 39.356C200.266 39.124 200.15 38.94 199.918 38.804C199.686 38.66 199.406 38.548 199.078 38.468C198.75 38.38 198.422 38.28 198.094 38.168C197.766 38.056 197.486 37.872 197.254 37.616C197.022 37.36 196.906 37.032 196.906 36.632C196.906 36.112 197.106 35.684 197.506 35.348C197.914 35.012 198.422 34.844 199.03 34.844C199.518 34.844 199.95 34.956 200.326 35.18C200.71 35.396 200.998 35.7 201.19 36.092L200.314 36.584C200.098 36.072 199.67 35.816 199.03 35.816C198.734 35.816 198.482 35.888 198.274 36.032C198.066 36.168 197.962 36.364 197.962 36.62ZM203.083 36.62C203.083 36.852 203.199 37.04 203.431 37.184C203.663 37.32 203.943 37.432 204.271 37.52C204.599 37.6 204.927 37.696 205.255 37.808C205.583 37.912 205.863 38.096 206.095 38.36C206.327 38.616 206.443 38.948 206.443 39.356C206.443 39.9 206.231 40.336 205.807 40.664C205.391 40.992 204.855 41.156 204.199 41.156C203.615 41.156 203.115 41.028 202.699 40.772C202.283 40.516 201.987 40.176 201.811 39.752L202.711 39.236C202.807 39.524 202.987 39.752 203.251 39.92C203.515 40.088 203.831 40.172 204.199 40.172C204.543 40.172 204.827 40.108 205.051 39.98C205.275 39.844 205.387 39.636 205.387 39.356C205.387 39.124 205.271 38.94 205.039 38.804C204.807 38.66 204.527 38.548 204.199 38.468C203.871 38.38 203.543 38.28 203.215 38.168C202.887 38.056 202.607 37.872 202.375 37.616C202.143 37.36 202.027 37.032 202.027 36.632C202.027 36.112 202.227 35.684 202.627 35.348C203.035 35.012 203.543 34.844 204.151 34.844C204.639 34.844 205.071 34.956 205.447 35.18C205.831 35.396 206.119 35.7 206.311 36.092L205.435 36.584C205.219 36.072 204.791 35.816 204.151 35.816C203.855 35.816 203.603 35.888 203.395 36.032C203.187 36.168 203.083 36.364 203.083 36.62ZM213.835 32.6C214.611 32.6 215.255 32.86 215.767 33.38C216.287 33.892 216.547 34.532 216.547 35.3C216.547 36.06 216.287 36.7 215.767 37.22C215.255 37.74 214.611 38 213.835 38H211.903V41H210.787V32.6H213.835ZM213.835 36.956C214.299 36.956 214.683 36.8 214.987 36.488C215.291 36.168 215.443 35.772 215.443 35.3C215.443 34.82 215.291 34.424 214.987 34.112C214.683 33.8 214.299 33.644 213.835 33.644H211.903V36.956H213.835ZM221.754 41.156C220.482 41.156 219.43 40.736 218.598 39.896C217.774 39.056 217.362 38.024 217.362 36.8C217.362 35.576 217.774 34.544 218.598 33.704C219.43 32.864 220.482 32.444 221.754 32.444C222.522 32.444 223.226 32.628 223.866 32.996C224.514 33.364 225.018 33.86 225.378 34.484L224.406 35.048C224.166 34.584 223.806 34.216 223.326 33.944C222.854 33.664 222.33 33.524 221.754 33.524C220.786 33.524 219.994 33.836 219.378 34.46C218.77 35.084 218.466 35.864 218.466 36.8C218.466 37.728 218.77 38.504 219.378 39.128C219.994 39.752 220.786 40.064 221.754 40.064C222.33 40.064 222.854 39.928 223.326 39.656C223.806 39.376 224.166 39.008 224.406 38.552L225.378 39.104C225.026 39.728 224.526 40.228 223.878 40.604C223.23 40.972 222.522 41.156 221.754 41.156ZM227.754 39.764L226.974 42.68H226.074L226.554 39.764H227.754ZM238.314 41H237.042L234.978 37.688L232.914 41H231.654L234.354 36.68L231.81 32.6H233.07L234.978 35.66L236.886 32.6H238.146L235.614 36.668L238.314 41ZM242.62 34.844C243.46 34.844 244.176 35.152 244.768 35.768C245.36 36.376 245.656 37.12 245.656 38C245.656 38.88 245.36 39.628 244.768 40.244C244.176 40.852 243.46 41.156 242.62 41.156C241.628 41.156 240.872 40.76 240.352 39.968V41H239.308V32.6H240.352V36.032C240.872 35.24 241.628 34.844 242.62 34.844ZM242.488 40.148C243.088 40.148 243.592 39.944 244 39.536C244.408 39.12 244.612 38.608 244.612 38C244.612 37.392 244.408 36.884 244 36.476C243.592 36.06 243.088 35.852 242.488 35.852C241.88 35.852 241.372 36.06 240.964 36.476C240.556 36.884 240.352 37.392 240.352 38C240.352 38.608 240.556 39.12 240.964 39.536C241.372 39.944 241.88 40.148 242.488 40.148ZM251.965 40.244C251.349 40.852 250.601 41.156 249.721 41.156C248.841 41.156 248.093 40.852 247.477 40.244C246.869 39.636 246.565 38.888 246.565 38C246.565 37.112 246.869 36.364 247.477 35.756C248.093 35.148 248.841 34.844 249.721 34.844C250.601 34.844 251.349 35.148 251.965 35.756C252.581 36.364 252.889 37.112 252.889 38C252.889 38.888 252.581 39.636 251.965 40.244ZM249.721 40.136C250.321 40.136 250.825 39.932 251.233 39.524C251.641 39.116 251.845 38.608 251.845 38C251.845 37.392 251.641 36.884 251.233 36.476C250.825 36.068 250.321 35.864 249.721 35.864C249.129 35.864 248.629 36.068 248.221 36.476C247.813 36.884 247.609 37.392 247.609 38C247.609 38.608 247.813 39.116 248.221 39.524C248.629 39.932 249.129 40.136 249.721 40.136ZM258.906 41H257.682L256.002 38.732L254.31 41H253.086L255.39 37.916L253.218 35H254.454L256.002 37.088L257.55 35H258.774L256.614 37.904L258.906 41ZM53.668 58.652L52.732 59.192L51.88 58.28C51.256 58.864 50.456 59.156 49.48 59.156C48.64 59.156 47.96 58.94 47.44 58.508C46.92 58.068 46.66 57.476 46.66 56.732C46.66 56.22 46.788 55.752 47.044 55.328C47.308 54.896 47.692 54.556 48.196 54.308C47.836 53.852 47.656 53.344 47.656 52.784C47.656 52.088 47.896 51.524 48.376 51.092C48.864 50.66 49.448 50.444 50.128 50.444C50.688 50.444 51.196 50.596 51.652 50.9C52.108 51.204 52.436 51.624 52.636 52.16L51.7 52.7C51.58 52.332 51.38 52.044 51.1 51.836C50.828 51.628 50.512 51.524 50.152 51.524C49.768 51.524 49.44 51.64 49.168 51.872C48.904 52.104 48.772 52.404 48.772 52.772C48.772 53.036 48.832 53.276 48.952 53.492C49.08 53.7 49.268 53.936 49.516 54.2L51.808 56.648C52.008 56.232 52.152 55.724 52.24 55.124L53.2 55.676C53.088 56.34 52.872 56.936 52.552 57.464L53.668 58.652ZM49.504 58.1C50.168 58.1 50.72 57.904 51.16 57.512L48.892 55.076C48.508 55.236 48.224 55.46 48.04 55.748C47.864 56.036 47.776 56.34 47.776 56.66C47.776 57.108 47.928 57.46 48.232 57.716C48.536 57.972 48.96 58.1 49.504 58.1ZM60.8933 50.6C61.6693 50.6 62.3133 50.86 62.8253 51.38C63.3453 51.892 63.6053 52.532 63.6053 53.3C63.6053 54.06 63.3453 54.7 62.8253 55.22C62.3133 55.74 61.6693 56 60.8933 56H58.9613V59H57.8453V50.6H60.8933ZM60.8933 54.956C61.3573 54.956 61.7413 54.8 62.0453 54.488C62.3493 54.168 62.5013 53.772 62.5013 53.3C62.5013 52.82 62.3493 52.424 62.0453 52.112C61.7413 51.8 61.3573 51.644 60.8933 51.644H58.9613V54.956H60.8933ZM67.4011 59.156C66.6171 59.156 65.9451 58.972 65.3851 58.604C64.8331 58.236 64.4451 57.732 64.2211 57.092L65.1811 56.54C65.5091 57.556 66.2571 58.064 67.4251 58.064C68.0011 58.064 68.4411 57.948 68.7451 57.716C69.0491 57.476 69.2011 57.16 69.2011 56.768C69.2011 56.368 69.0491 56.068 68.7451 55.868C68.4411 55.668 67.9331 55.456 67.2211 55.232C66.8691 55.12 66.6011 55.032 66.4171 54.968C66.2331 54.896 66.0011 54.792 65.7211 54.656C65.4491 54.512 65.2451 54.368 65.1091 54.224C64.9731 54.072 64.8491 53.876 64.7371 53.636C64.6331 53.396 64.5811 53.124 64.5811 52.82C64.5811 52.092 64.8371 51.516 65.3491 51.092C65.8611 50.66 66.4851 50.444 67.2211 50.444C67.8851 50.444 68.4611 50.612 68.9491 50.948C69.4451 51.284 69.8171 51.728 70.0651 52.28L69.1291 52.82C68.7691 51.956 68.1331 51.524 67.2211 51.524C66.7651 51.524 66.3971 51.636 66.1171 51.86C65.8371 52.084 65.6971 52.388 65.6971 52.772C65.6971 53.14 65.8291 53.42 66.0931 53.612C66.3571 53.804 66.8131 54.004 67.4611 54.212C67.6931 54.284 67.8571 54.336 67.9531 54.368C68.0491 54.4 68.1971 54.456 68.3971 54.536C68.6051 54.616 68.7571 54.68 68.8531 54.728C68.9491 54.776 69.0771 54.844 69.2371 54.932C69.4051 55.02 69.5291 55.104 69.6091 55.184C69.6891 55.264 69.7811 55.364 69.8851 55.484C69.9971 55.596 70.0771 55.712 70.1251 55.832C70.1731 55.952 70.2131 56.092 70.2451 56.252C70.2851 56.404 70.3051 56.568 70.3051 56.744C70.3051 57.48 70.0371 58.068 69.5011 58.508C68.9651 58.94 68.2651 59.156 67.4011 59.156ZM71.9442 59.132C71.7282 59.132 71.5442 59.056 71.3922 58.904C71.2402 58.752 71.1642 58.568 71.1642 58.352C71.1642 58.136 71.2402 57.952 71.3922 57.8C71.5442 57.648 71.7282 57.572 71.9442 57.572C72.1682 57.572 72.3522 57.648 72.4962 57.8C72.6482 57.952 72.7242 58.136 72.7242 58.352C72.7242 58.568 72.6482 58.752 72.4962 58.904C72.3522 59.056 72.1682 59.132 71.9442 59.132Z" fill="#1A1A1A"/>
<path d="M37.9581 82.748C37.7021 83.012 37.3861 83.144 37.0101 83.144C36.6341 83.144 36.3141 83.012 36.0501 82.748C35.7861 82.484 35.6541 82.164 35.6541 81.788C35.6541 81.412 35.7861 81.096 36.0501 80.84C36.3141 80.576 36.6341 80.444 37.0101 80.444C37.3861 80.444 37.7021 80.576 37.9581 80.84C38.2221 81.096 38.3541 81.412 38.3541 81.788C38.3541 82.164 38.2221 82.484 37.9581 82.748ZM49.612 86.156C48.828 86.156 48.156 85.972 47.596 85.604C47.044 85.236 46.656 84.732 46.432 84.092L47.392 83.54C47.72 84.556 48.468 85.064 49.636 85.064C50.212 85.064 50.652 84.948 50.956 84.716C51.26 84.476 51.412 84.16 51.412 83.768C51.412 83.368 51.26 83.068 50.956 82.868C50.652 82.668 50.144 82.456 49.432 82.232C49.08 82.12 48.812 82.032 48.628 81.968C48.444 81.896 48.212 81.792 47.932 81.656C47.66 81.512 47.456 81.368 47.32 81.224C47.184 81.072 47.06 80.876 46.948 80.636C46.844 80.396 46.792 80.124 46.792 79.82C46.792 79.092 47.048 78.516 47.56 78.092C48.072 77.66 48.696 77.444 49.432 77.444C50.096 77.444 50.672 77.612 51.16 77.948C51.656 78.284 52.028 78.728 52.276 79.28L51.34 79.82C50.98 78.956 50.344 78.524 49.432 78.524C48.976 78.524 48.608 78.636 48.328 78.86C48.048 79.084 47.908 79.388 47.908 79.772C47.908 80.14 48.04 80.42 48.304 80.612C48.568 80.804 49.024 81.004 49.672 81.212C49.904 81.284 50.068 81.336 50.164 81.368C50.26 81.4 50.408 81.456 50.608 81.536C50.816 81.616 50.968 81.68 51.064 81.728C51.16 81.776 51.288 81.844 51.448 81.932C51.616 82.02 51.74 82.104 51.82 82.184C51.9 82.264 51.992 82.364 52.096 82.484C52.208 82.596 52.288 82.712 52.336 82.832C52.384 82.952 52.424 83.092 52.456 83.252C52.496 83.404 52.516 83.568 52.516 83.744C52.516 84.48 52.248 85.068 51.712 85.508C51.176 85.94 50.476 86.156 49.612 86.156ZM57.8695 80H58.9135V86H57.8695V85.136C57.4455 85.816 56.7975 86.156 55.9255 86.156C55.2215 86.156 54.6575 85.936 54.2335 85.496C53.8095 85.048 53.5975 84.444 53.5975 83.684V80H54.6415V83.624C54.6415 84.112 54.7735 84.492 55.0375 84.764C55.3015 85.028 55.6655 85.16 56.1295 85.16C56.6495 85.16 57.0695 85 57.3895 84.68C57.7095 84.352 57.8695 83.852 57.8695 83.18V80ZM63.3229 86.156C62.4189 86.156 61.6669 85.856 61.0669 85.256C60.4669 84.648 60.1669 83.896 60.1669 83C60.1669 82.104 60.4669 81.356 61.0669 80.756C61.6669 80.148 62.4189 79.844 63.3229 79.844C63.9149 79.844 64.4469 79.988 64.9189 80.276C65.3909 80.556 65.7429 80.936 65.9749 81.416L65.0989 81.92C64.9469 81.6 64.7109 81.344 64.3909 81.152C64.0789 80.96 63.7229 80.864 63.3229 80.864C62.7229 80.864 62.2189 81.068 61.8109 81.476C61.4109 81.884 61.2109 82.392 61.2109 83C61.2109 83.6 61.4109 84.104 61.8109 84.512C62.2189 84.92 62.7229 85.124 63.3229 85.124C63.7229 85.124 64.0829 85.032 64.4029 84.848C64.7229 84.656 64.9669 84.4 65.1349 84.08L66.0229 84.596C65.7669 85.068 65.3989 85.448 64.9189 85.736C64.4389 86.016 63.9069 86.156 63.3229 86.156ZM69.7917 86.156C68.8877 86.156 68.1357 85.856 67.5357 85.256C66.9357 84.648 66.6357 83.896 66.6357 83C66.6357 82.104 66.9357 81.356 67.5357 80.756C68.1357 80.148 68.8877 79.844 69.7917 79.844C70.3837 79.844 70.9157 79.988 71.3877 80.276C71.8597 80.556 72.2117 80.936 72.4437 81.416L71.5677 81.92C71.4157 81.6 71.1797 81.344 70.8597 81.152C70.5477 80.96 70.1917 80.864 69.7917 80.864C69.1917 80.864 68.6877 81.068 68.2797 81.476C67.8797 81.884 67.6797 82.392 67.6797 83C67.6797 83.6 67.8797 84.104 68.2797 84.512C68.6877 84.92 69.1917 85.124 69.7917 85.124C70.1917 85.124 70.5517 85.032 70.8717 84.848C71.1917 84.656 71.4357 84.4 71.6037 84.08L72.4917 84.596C72.2357 85.068 71.8677 85.448 71.3877 85.736C70.9077 86.016 70.3757 86.156 69.7917 86.156ZM74.1724 83.48C74.2764 84.016 74.5204 84.432 74.9044 84.728C75.2964 85.024 75.7764 85.172 76.3444 85.172C77.1364 85.172 77.7124 84.88 78.0724 84.296L78.9604 84.8C78.3764 85.704 77.4964 86.156 76.3204 86.156C75.3684 86.156 74.5924 85.86 73.9924 85.268C73.4004 84.668 73.1044 83.912 73.1044 83C73.1044 82.096 73.3964 81.344 73.9804 80.744C74.5644 80.144 75.3204 79.844 76.2484 79.844C77.1284 79.844 77.8444 80.156 78.3964 80.78C78.9564 81.396 79.2364 82.14 79.2364 83.012C79.2364 83.164 79.2244 83.32 79.2004 83.48H74.1724ZM76.2484 80.828C75.6884 80.828 75.2244 80.988 74.8564 81.308C74.4884 81.62 74.2604 82.04 74.1724 82.568H78.1804C78.0924 82 77.8684 81.568 77.5084 81.272C77.1484 80.976 76.7284 80.828 76.2484 80.828ZM81.1022 81.62C81.1022 81.852 81.2182 82.04 81.4502 82.184C81.6822 82.32 81.9622 82.432 82.2902 82.52C82.6182 82.6 82.9462 82.696 83.2742 82.808C83.6022 82.912 83.8822 83.096 84.1142 83.36C84.3462 83.616 84.4622 83.948 84.4622 84.356C84.4622 84.9 84.2502 85.336 83.8262 85.664C83.4102 85.992 82.8742 86.156 82.2182 86.156C81.6342 86.156 81.1342 86.028 80.7182 85.772C80.3022 85.516 80.0062 85.176 79.8302 84.752L80.7302 84.236C80.8262 84.524 81.0062 84.752 81.2702 84.92C81.5342 85.088 81.8502 85.172 82.2182 85.172C82.5622 85.172 82.8462 85.108 83.0702 84.98C83.2942 84.844 83.4062 84.636 83.4062 84.356C83.4062 84.124 83.2902 83.94 83.0582 83.804C82.8262 83.66 82.5462 83.548 82.2182 83.468C81.8902 83.38 81.5622 83.28 81.2342 83.168C80.9062 83.056 80.6262 82.872 80.3942 82.616C80.1622 82.36 80.0462 82.032 80.0462 81.632C80.0462 81.112 80.2462 80.684 80.6462 80.348C81.0542 80.012 81.5622 79.844 82.1702 79.844C82.6582 79.844 83.0902 79.956 83.4662 80.18C83.8502 80.396 84.1382 80.7 84.3302 81.092L83.4542 81.584C83.2382 81.072 82.8102 80.816 82.1702 80.816C81.8742 80.816 81.6222 80.888 81.4142 81.032C81.2062 81.168 81.1022 81.364 81.1022 81.62ZM86.2233 81.62C86.2233 81.852 86.3393 82.04 86.5713 82.184C86.8033 82.32 87.0833 82.432 87.4113 82.52C87.7393 82.6 88.0673 82.696 88.3953 82.808C88.7233 82.912 89.0033 83.096 89.2353 83.36C89.4673 83.616 89.5833 83.948 89.5833 84.356C89.5833 84.9 89.3713 85.336 88.9473 85.664C88.5313 85.992 87.9953 86.156 87.3393 86.156C86.7553 86.156 86.2553 86.028 85.8393 85.772C85.4233 85.516 85.1273 85.176 84.9513 84.752L85.8513 84.236C85.9473 84.524 86.1273 84.752 86.3913 84.92C86.6553 85.088 86.9713 85.172 87.3393 85.172C87.6833 85.172 87.9673 85.108 88.1913 84.98C88.4153 84.844 88.5273 84.636 88.5273 84.356C88.5273 84.124 88.4113 83.94 88.1793 83.804C87.9473 83.66 87.6673 83.548 87.3393 83.468C87.0113 83.38 86.6833 83.28 86.3553 83.168C86.0273 83.056 85.7473 82.872 85.5153 82.616C85.2833 82.36 85.1673 82.032 85.1673 81.632C85.1673 81.112 85.3673 80.684 85.7673 80.348C86.1753 80.012 86.6833 79.844 87.2913 79.844C87.7793 79.844 88.2113 79.956 88.5873 80.18C88.9713 80.396 89.2593 80.7 89.4513 81.092L88.5753 81.584C88.3593 81.072 87.9313 80.816 87.2913 80.816C86.9953 80.816 86.7433 80.888 86.5353 81.032C86.3273 81.168 86.2233 81.364 86.2233 81.62ZM93.7744 78.452C92.7184 78.364 92.1904 78.82 92.1904 79.82V80H93.7744V81.008H92.1904V86H91.1464V81.008H90.1864V80H91.1464V79.82C91.1464 79.012 91.3704 78.4 91.8184 77.984C92.2744 77.568 92.9264 77.388 93.7744 77.444V78.452ZM98.7093 80H99.7533V86H98.7093V85.136C98.2853 85.816 97.6373 86.156 96.7653 86.156C96.0613 86.156 95.4973 85.936 95.0733 85.496C94.6493 85.048 94.4373 84.444 94.4373 83.684V80H95.4813V83.624C95.4813 84.112 95.6133 84.492 95.8773 84.764C96.1413 85.028 96.5053 85.16 96.9693 85.16C97.4893 85.16 97.9093 85 98.2293 84.68C98.5493 84.352 98.7093 83.852 98.7093 83.18V80ZM101.343 86V77.24H102.387V86H101.343ZM106.979 86V77.24H108.024V86H106.979ZM114.584 80H115.628V86H114.584V84.968C114.064 85.76 113.308 86.156 112.316 86.156C111.476 86.156 110.76 85.852 110.168 85.244C109.576 84.628 109.28 83.88 109.28 83C109.28 82.12 109.576 81.376 110.168 80.768C110.76 80.152 111.476 79.844 112.316 79.844C113.308 79.844 114.064 80.24 114.584 81.032V80ZM112.448 85.148C113.056 85.148 113.564 84.944 113.972 84.536C114.38 84.12 114.584 83.608 114.584 83C114.584 82.392 114.38 81.884 113.972 81.476C113.564 81.06 113.056 80.852 112.448 80.852C111.848 80.852 111.344 81.06 110.936 81.476C110.528 81.884 110.324 82.392 110.324 83C110.324 83.608 110.528 84.12 110.936 84.536C111.344 84.944 111.848 85.148 112.448 85.148ZM121.35 80H122.394V86H121.35V85.136C120.926 85.816 120.278 86.156 119.406 86.156C118.702 86.156 118.138 85.936 117.714 85.496C117.29 85.048 117.078 84.444 117.078 83.684V80H118.122V83.624C118.122 84.112 118.254 84.492 118.518 84.764C118.782 85.028 119.146 85.16 119.61 85.16C120.13 85.16 120.55 85 120.87 84.68C121.19 84.352 121.35 83.852 121.35 83.18V80ZM126.971 79.844C127.675 79.844 128.239 80.068 128.663 80.516C129.087 80.956 129.299 81.556 129.299 82.316V86H128.255V82.376C128.255 81.888 128.123 81.512 127.859 81.248C127.595 80.976 127.231 80.84 126.767 80.84C126.247 80.84 125.827 81.004 125.507 81.332C125.187 81.652 125.027 82.148 125.027 82.82V86H123.983V80H125.027V80.864C125.451 80.184 126.099 79.844 126.971 79.844ZM133.577 86.156C132.673 86.156 131.921 85.856 131.321 85.256C130.721 84.648 130.421 83.896 130.421 83C130.421 82.104 130.721 81.356 131.321 80.756C131.921 80.148 132.673 79.844 133.577 79.844C134.169 79.844 134.701 79.988 135.173 80.276C135.645 80.556 135.997 80.936 136.229 81.416L135.353 81.92C135.201 81.6 134.965 81.344 134.645 81.152C134.333 80.96 133.977 80.864 133.577 80.864C132.977 80.864 132.473 81.068 132.065 81.476C131.665 81.884 131.465 82.392 131.465 83C131.465 83.6 131.665 84.104 132.065 84.512C132.473 84.92 132.977 85.124 133.577 85.124C133.977 85.124 134.337 85.032 134.657 84.848C134.977 84.656 135.221 84.4 135.389 84.08L136.277 84.596C136.021 85.068 135.653 85.448 135.173 85.736C134.693 86.016 134.161 86.156 133.577 86.156ZM140.296 79.844C141 79.844 141.564 80.068 141.988 80.516C142.412 80.956 142.624 81.556 142.624 82.316V86H141.58V82.376C141.58 81.888 141.448 81.512 141.184 81.248C140.92 80.976 140.556 80.84 140.092 80.84C139.572 80.84 139.152 81.004 138.832 81.332C138.512 81.652 138.352 82.148 138.352 82.82V86H137.308V77.6H138.352V80.864C138.776 80.184 139.424 79.844 140.296 79.844ZM152.145 85.244C151.529 85.852 150.781 86.156 149.901 86.156C149.021 86.156 148.273 85.852 147.657 85.244C147.049 84.636 146.745 83.888 146.745 83C146.745 82.112 147.049 81.364 147.657 80.756C148.273 80.148 149.021 79.844 149.901 79.844C150.781 79.844 151.529 80.148 152.145 80.756C152.761 81.364 153.069 82.112 153.069 83C153.069 83.888 152.761 84.636 152.145 85.244ZM149.901 85.136C150.501 85.136 151.005 84.932 151.413 84.524C151.821 84.116 152.025 83.608 152.025 83C152.025 82.392 151.821 81.884 151.413 81.476C151.005 81.068 150.501 80.864 149.901 80.864C149.309 80.864 148.809 81.068 148.401 81.476C147.993 81.884 147.789 82.392 147.789 83C147.789 83.608 147.993 84.116 148.401 84.524C148.809 84.932 149.309 85.136 149.901 85.136ZM157.161 78.452C156.105 78.364 155.577 78.82 155.577 79.82V80H157.161V81.008H155.577V86H154.533V81.008H153.573V80H154.533V79.82C154.533 79.012 154.757 78.4 155.205 77.984C155.661 77.568 156.313 77.388 157.161 77.444V78.452ZM164.22 81.008H162.624V84.26C162.624 84.556 162.68 84.768 162.792 84.896C162.912 85.016 163.092 85.08 163.332 85.088C163.572 85.088 163.868 85.08 164.22 85.064V86C163.308 86.12 162.64 86.048 162.216 85.784C161.792 85.512 161.58 85.004 161.58 84.26V81.008H160.392V80H161.58V78.632L162.624 78.32V80H164.22V81.008ZM168.444 79.844C169.148 79.844 169.712 80.068 170.136 80.516C170.56 80.956 170.772 81.556 170.772 82.316V86H169.728V82.376C169.728 81.888 169.596 81.512 169.332 81.248C169.068 80.976 168.704 80.84 168.24 80.84C167.72 80.84 167.3 81.004 166.98 81.332C166.66 81.652 166.5 82.148 166.5 82.82V86H165.456V77.6H166.5V80.864C166.924 80.184 167.572 79.844 168.444 79.844ZM172.962 83.48C173.066 84.016 173.31 84.432 173.694 84.728C174.086 85.024 174.566 85.172 175.134 85.172C175.926 85.172 176.502 84.88 176.862 84.296L177.75 84.8C177.166 85.704 176.286 86.156 175.11 86.156C174.158 86.156 173.382 85.86 172.782 85.268C172.19 84.668 171.894 83.912 171.894 83C171.894 82.096 172.186 81.344 172.77 80.744C173.354 80.144 174.11 79.844 175.038 79.844C175.918 79.844 176.634 80.156 177.186 80.78C177.746 81.396 178.026 82.14 178.026 83.012C178.026 83.164 178.014 83.32 177.99 83.48H172.962ZM175.038 80.828C174.478 80.828 174.014 80.988 173.646 81.308C173.278 81.62 173.05 82.04 172.962 82.568H176.97C176.882 82 176.658 81.568 176.298 81.272C175.938 80.976 175.518 80.828 175.038 80.828ZM183.45 84.944H187.35V86H182.334V77.6H187.29V78.656H183.45V81.236H186.99V82.28H183.45V84.944ZM191.28 86.156C190.376 86.156 189.624 85.856 189.024 85.256C188.424 84.648 188.124 83.896 188.124 83C188.124 82.104 188.424 81.356 189.024 80.756C189.624 80.148 190.376 79.844 191.28 79.844C191.872 79.844 192.404 79.988 192.876 80.276C193.348 80.556 193.7 80.936 193.932 81.416L193.056 81.92C192.904 81.6 192.668 81.344 192.348 81.152C192.036 80.96 191.68 80.864 191.28 80.864C190.68 80.864 190.176 81.068 189.768 81.476C189.368 81.884 189.168 82.392 189.168 83C189.168 83.6 189.368 84.104 189.768 84.512C190.176 84.92 190.68 85.124 191.28 85.124C191.68 85.124 192.04 85.032 192.36 84.848C192.68 84.656 192.924 84.4 193.092 84.08L193.98 84.596C193.724 85.068 193.356 85.448 192.876 85.736C192.396 86.016 191.864 86.156 191.28 86.156ZM197.999 79.844C198.703 79.844 199.267 80.068 199.691 80.516C200.115 80.956 200.327 81.556 200.327 82.316V86H199.283V82.376C199.283 81.888 199.151 81.512 198.887 81.248C198.623 80.976 198.259 80.84 197.795 80.84C197.275 80.84 196.855 81.004 196.535 81.332C196.215 81.652 196.055 82.148 196.055 82.82V86H195.011V77.6H196.055V80.864C196.479 80.184 197.127 79.844 197.999 79.844ZM206.848 85.244C206.232 85.852 205.484 86.156 204.604 86.156C203.724 86.156 202.976 85.852 202.36 85.244C201.752 84.636 201.448 83.888 201.448 83C201.448 82.112 201.752 81.364 202.36 80.756C202.976 80.148 203.724 79.844 204.604 79.844C205.484 79.844 206.232 80.148 206.848 80.756C207.464 81.364 207.772 82.112 207.772 83C207.772 83.888 207.464 84.636 206.848 85.244ZM204.604 85.136C205.204 85.136 205.708 84.932 206.116 84.524C206.524 84.116 206.728 83.608 206.728 83C206.728 82.392 206.524 81.884 206.116 81.476C205.708 81.068 205.204 80.864 204.604 80.864C204.012 80.864 203.512 81.068 203.104 81.476C202.696 81.884 202.492 82.392 202.492 83C202.492 83.608 202.696 84.116 203.104 84.524C203.512 84.932 204.012 85.136 204.604 85.136ZM212.969 80H214.097L211.697 86H210.473L208.073 80H209.201L211.085 84.884L212.969 80ZM215.477 83.48C215.581 84.016 215.825 84.432 216.209 84.728C216.601 85.024 217.081 85.172 217.649 85.172C218.441 85.172 219.017 84.88 219.377 84.296L220.265 84.8C219.681 85.704 218.801 86.156 217.625 86.156C216.673 86.156 215.897 85.86 215.297 85.268C214.705 84.668 214.409 83.912 214.409 83C214.409 82.096 214.701 81.344 215.285 80.744C215.869 80.144 216.625 79.844 217.553 79.844C218.433 79.844 219.149 80.156 219.701 80.78C220.261 81.396 220.541 82.14 220.541 83.012C220.541 83.164 220.529 83.32 220.505 83.48H215.477ZM217.553 80.828C216.993 80.828 216.529 80.988 216.161 81.308C215.793 81.62 215.565 82.04 215.477 82.568H219.485C219.397 82 219.173 81.568 218.813 81.272C218.453 80.976 218.033 80.828 217.553 80.828ZM222.785 81.008C223.129 80.264 223.753 79.892 224.657 79.892V80.984C224.145 80.96 223.705 81.096 223.337 81.392C222.969 81.688 222.785 82.164 222.785 82.82V86H221.741V80H222.785V81.008ZM226.356 81.62C226.356 81.852 226.472 82.04 226.704 82.184C226.936 82.32 227.216 82.432 227.544 82.52C227.872 82.6 228.2 82.696 228.528 82.808C228.856 82.912 229.136 83.096 229.368 83.36C229.6 83.616 229.716 83.948 229.716 84.356C229.716 84.9 229.504 85.336 229.08 85.664C228.664 85.992 228.128 86.156 227.472 86.156C226.888 86.156 226.388 86.028 225.972 85.772C225.556 85.516 225.26 85.176 225.084 84.752L225.984 84.236C226.08 84.524 226.26 84.752 226.524 84.92C226.788 85.088 227.104 85.172 227.472 85.172C227.816 85.172 228.1 85.108 228.324 84.98C228.548 84.844 228.66 84.636 228.66 84.356C228.66 84.124 228.544 83.94 228.312 83.804C228.08 83.66 227.8 83.548 227.472 83.468C227.144 83.38 226.816 83.28 226.488 83.168C226.16 83.056 225.88 82.872 225.648 82.616C225.416 82.36 225.3 82.032 225.3 81.632C225.3 81.112 225.5 80.684 225.9 80.348C226.308 80.012 226.816 79.844 227.424 79.844C227.912 79.844 228.344 79.956 228.72 80.18C229.104 80.396 229.392 80.7 229.584 81.092L228.708 81.584C228.492 81.072 228.064 80.816 227.424 80.816C227.128 80.816 226.876 80.888 226.668 81.032C226.46 81.168 226.356 81.364 226.356 81.62ZM231.52 83.48C231.624 84.016 231.868 84.432 232.252 84.728C232.644 85.024 233.124 85.172 233.692 85.172C234.484 85.172 235.06 84.88 235.42 84.296L236.308 84.8C235.724 85.704 234.844 86.156 233.668 86.156C232.716 86.156 231.94 85.86 231.34 85.268C230.748 84.668 230.452 83.912 230.452 83C230.452 82.096 230.744 81.344 231.328 80.744C231.912 80.144 232.668 79.844 233.596 79.844C234.476 79.844 235.192 80.156 235.744 80.78C236.304 81.396 236.584 82.14 236.584 83.012C236.584 83.164 236.572 83.32 236.548 83.48H231.52ZM233.596 80.828C233.036 80.828 232.572 80.988 232.204 81.308C231.836 81.62 231.608 82.04 231.52 82.568H235.528C235.44 82 235.216 81.568 234.856 81.272C234.496 80.976 234.076 80.828 233.596 80.828ZM240.892 82.82V81.812H245.272V82.82H240.892ZM254.928 80H255.972V86H254.928V84.968C254.408 85.76 253.652 86.156 252.66 86.156C251.82 86.156 251.104 85.852 250.512 85.244C249.92 84.628 249.624 83.88 249.624 83C249.624 82.12 249.92 81.376 250.512 80.768C251.104 80.152 251.82 79.844 252.66 79.844C253.652 79.844 254.408 80.24 254.928 81.032V80ZM252.792 85.148C253.4 85.148 253.908 84.944 254.316 84.536C254.724 84.12 254.928 83.608 254.928 83C254.928 82.392 254.724 81.884 254.316 81.476C253.908 81.06 253.4 80.852 252.792 80.852C252.192 80.852 251.688 81.06 251.28 81.476C250.872 81.884 250.668 82.392 250.668 83C250.668 83.608 250.872 84.12 251.28 84.536C251.688 84.944 252.192 85.148 252.792 85.148ZM54.76 95.6V104H53.656V97.436L50.908 102.008H50.764L48.016 97.448V104H46.9V95.6H48.16L50.836 100.04L53.5 95.6H54.76ZM64.4163 95.6V104H63.3123V97.436L60.5643 102.008H60.4203L57.6723 97.448V104H56.5563V95.6H57.8163L60.4923 100.04L63.1562 95.6H64.4163ZM73.1965 102.884C72.3565 103.732 71.3285 104.156 70.1125 104.156C68.8965 104.156 67.8685 103.732 67.0285 102.884C66.1885 102.036 65.7685 101.008 65.7685 99.8C65.7685 98.584 66.1885 97.556 67.0285 96.716C67.8685 95.868 68.8965 95.444 70.1125 95.444C71.3285 95.444 72.3565 95.868 73.1965 96.716C74.0445 97.556 74.4685 98.584 74.4685 99.8C74.4685 101.008 74.0445 102.036 73.1965 102.884ZM67.7965 102.128C68.4205 102.752 69.1925 103.064 70.1125 103.064C71.0325 103.064 71.8005 102.752 72.4165 102.128C73.0405 101.496 73.3525 100.72 73.3525 99.8C73.3525 98.872 73.0405 98.096 72.4165 97.472C71.8005 96.84 71.0325 96.524 70.1125 96.524C69.1925 96.524 68.4205 96.84 67.7965 97.472C67.1805 98.096 66.8725 98.872 66.8725 99.8C66.8725 100.72 67.1805 101.496 67.7965 102.128ZM80.7902 104L78.9062 100.784H76.9262V104H75.8102V95.6H79.1702C79.8902 95.6 80.5062 95.856 81.0182 96.368C81.5302 96.872 81.7862 97.484 81.7862 98.204C81.7862 98.748 81.6222 99.244 81.2942 99.692C80.9742 100.14 80.5582 100.456 80.0462 100.64L82.0262 104H80.7902ZM76.9262 96.644V99.776H79.1702C79.5862 99.776 79.9382 99.624 80.2262 99.32C80.5222 99.008 80.6702 98.636 80.6702 98.204C80.6702 97.772 80.5222 97.404 80.2262 97.1C79.9382 96.796 79.5862 96.644 79.1702 96.644H76.9262ZM86.1941 95.6C86.9701 95.6 87.6141 95.86 88.1261 96.38C88.6461 96.892 88.9061 97.532 88.9061 98.3C88.9061 99.06 88.6461 99.7 88.1261 100.22C87.6141 100.74 86.9701 101 86.1941 101H84.2621V104H83.1461V95.6H86.1941ZM86.1941 99.956C86.6581 99.956 87.0421 99.8 87.3461 99.488C87.6501 99.168 87.8021 98.772 87.8021 98.3C87.8021 97.82 87.6501 97.424 87.3461 97.112C87.0421 96.8 86.6581 96.644 86.1941 96.644H84.2621V99.956H86.1941ZM98.2656 99.836V100.34C98.2656 101.436 97.8896 102.348 97.1376 103.076C96.3856 103.796 95.3896 104.156 94.1496 104.156C92.8696 104.156 91.8096 103.736 90.9696 102.896C90.1376 102.048 89.7216 101.016 89.7216 99.8C89.7216 98.584 90.1376 97.556 90.9696 96.716C91.8096 95.868 92.8616 95.444 94.1256 95.444C94.9016 95.444 95.6136 95.632 96.2616 96.008C96.9096 96.376 97.4096 96.864 97.7616 97.472L96.8016 98.036C96.5616 97.58 96.1976 97.216 95.7096 96.944C95.2296 96.664 94.6976 96.524 94.1136 96.524C93.1536 96.524 92.3656 96.84 91.7496 97.472C91.1336 98.096 90.8256 98.872 90.8256 99.8C90.8256 100.728 91.1336 101.504 91.7496 102.128C92.3736 102.752 93.1776 103.064 94.1616 103.064C95.0016 103.064 95.6816 102.86 96.2016 102.452C96.7216 102.036 97.0376 101.5 97.1496 100.844H94.0656V99.836H98.2656ZM103.415 99.62C103.415 99.852 103.531 100.04 103.763 100.184C103.995 100.32 104.275 100.432 104.603 100.52C104.931 100.6 105.259 100.696 105.587 100.808C105.915 100.912 106.195 101.096 106.427 101.36C106.659 101.616 106.775 101.948 106.775 102.356C106.775 102.9 106.563 103.336 106.139 103.664C105.723 103.992 105.187 104.156 104.531 104.156C103.947 104.156 103.447 104.028 103.031 103.772C102.615 103.516 102.319 103.176 102.143 102.752L103.043 102.236C103.139 102.524 103.319 102.752 103.583 102.92C103.847 103.088 104.163 103.172 104.531 103.172C104.875 103.172 105.159 103.108 105.383 102.98C105.607 102.844 105.719 102.636 105.719 102.356C105.719 102.124 105.603 101.94 105.371 101.804C105.139 101.66 104.859 101.548 104.531 101.468C104.203 101.38 103.875 101.28 103.547 101.168C103.219 101.056 102.939 100.872 102.707 100.616C102.475 100.36 102.359 100.032 102.359 99.632C102.359 99.112 102.559 98.684 102.959 98.348C103.367 98.012 103.875 97.844 104.483 97.844C104.971 97.844 105.403 97.956 105.779 98.18C106.163 98.396 106.451 98.7 106.643 99.092L105.767 99.584C105.551 99.072 105.123 98.816 104.483 98.816C104.187 98.816 103.935 98.888 103.727 99.032C103.519 99.168 103.415 99.364 103.415 99.62ZM111.04 99.008H109.444V102.26C109.444 102.556 109.5 102.768 109.612 102.896C109.732 103.016 109.912 103.08 110.152 103.088C110.392 103.088 110.688 103.08 111.04 103.064V104C110.128 104.12 109.46 104.048 109.036 103.784C108.612 103.512 108.4 103.004 108.4 102.26V99.008H107.212V98H108.4V96.632L109.444 96.32V98H111.04V99.008ZM116.593 98H117.709L115.261 104.372C115.005 105.052 114.645 105.568 114.181 105.92C113.725 106.28 113.197 106.44 112.597 106.4V105.428C113.333 105.484 113.873 105.076 114.217 104.204L114.325 103.976L111.709 98H112.825L114.865 102.704L116.593 98ZM118.581 104V95.24H119.625V104H118.581ZM121.95 101.48C122.054 102.016 122.298 102.432 122.682 102.728C123.074 103.024 123.554 103.172 124.122 103.172C124.914 103.172 125.49 102.88 125.85 102.296L126.738 102.8C126.154 103.704 125.274 104.156 124.098 104.156C123.146 104.156 122.37 103.86 121.77 103.268C121.178 102.668 120.882 101.912 120.882 101C120.882 100.096 121.174 99.344 121.758 98.744C122.342 98.144 123.098 97.844 124.026 97.844C124.906 97.844 125.622 98.156 126.174 98.78C126.734 99.396 127.014 100.14 127.014 101.012C127.014 101.164 127.002 101.32 126.978 101.48H121.95ZM124.026 98.828C123.466 98.828 123.002 98.988 122.634 99.308C122.266 99.62 122.038 100.04 121.95 100.568H125.958C125.87 100 125.646 99.568 125.286 99.272C124.926 98.976 124.506 98.828 124.026 98.828ZM137.694 97.844C138.366 97.844 138.91 98.064 139.326 98.504C139.742 98.936 139.95 99.524 139.95 100.268V104H138.906V100.304C138.906 99.84 138.786 99.48 138.546 99.224C138.306 98.968 137.986 98.84 137.586 98.84C137.138 98.84 136.778 98.992 136.506 99.296C136.242 99.592 136.11 100.048 136.11 100.664V104H135.066V100.304C135.066 99.84 134.95 99.48 134.718 99.224C134.494 98.968 134.186 98.84 133.794 98.84C133.354 98.84 132.986 98.992 132.69 99.296C132.402 99.6 132.258 100.056 132.258 100.664V104H131.214V98H132.258V98.804C132.666 98.164 133.262 97.844 134.046 97.844C134.854 97.844 135.442 98.184 135.81 98.864C136.226 98.184 136.854 97.844 137.694 97.844ZM142.129 101.48C142.233 102.016 142.477 102.432 142.861 102.728C143.253 103.024 143.733 103.172 144.301 103.172C145.093 103.172 145.669 102.88 146.029 102.296L146.917 102.8C146.333 103.704 145.453 104.156 144.277 104.156C143.325 104.156 142.549 103.86 141.949 103.268C141.357 102.668 141.061 101.912 141.061 101C141.061 100.096 141.353 99.344 141.937 98.744C142.521 98.144 143.277 97.844 144.205 97.844C145.085 97.844 145.801 98.156 146.353 98.78C146.913 99.396 147.193 100.14 147.193 101.012C147.193 101.164 147.181 101.32 147.157 101.48H142.129ZM144.205 98.828C143.645 98.828 143.181 98.988 142.813 99.308C142.445 99.62 142.217 100.04 142.129 100.568H146.137C146.049 100 145.825 99.568 145.465 99.272C145.105 98.976 144.685 98.828 144.205 98.828ZM151.482 99.008H149.886V102.26C149.886 102.556 149.942 102.768 150.054 102.896C150.174 103.016 150.354 103.08 150.594 103.088C150.834 103.088 151.13 103.08 151.482 103.064V104C150.57 104.12 149.902 104.048 149.478 103.784C149.054 103.512 148.842 103.004 148.842 102.26V99.008H147.654V98H148.842V96.632L149.886 96.32V98H151.482V99.008ZM157.381 98H158.425V104H157.381V102.968C156.861 103.76 156.105 104.156 155.113 104.156C154.273 104.156 153.557 103.852 152.965 103.244C152.373 102.628 152.077 101.88 152.077 101C152.077 100.12 152.373 99.376 152.965 98.768C153.557 98.152 154.273 97.844 155.113 97.844C156.105 97.844 156.861 98.24 157.381 99.032V98ZM155.245 103.148C155.853 103.148 156.361 102.944 156.769 102.536C157.177 102.12 157.381 101.608 157.381 101C157.381 100.392 157.177 99.884 156.769 99.476C156.361 99.06 155.853 98.852 155.245 98.852C154.645 98.852 154.141 99.06 153.733 99.476C153.325 99.884 153.121 100.392 153.121 101C153.121 101.608 153.325 102.12 153.733 102.536C154.141 102.944 154.645 103.148 155.245 103.148ZM164.207 98H165.335L162.935 104H161.711L159.311 98H160.439L162.323 102.884L164.207 98ZM166.715 101.48C166.819 102.016 167.063 102.432 167.447 102.728C167.839 103.024 168.319 103.172 168.887 103.172C169.679 103.172 170.255 102.88 170.615 102.296L171.503 102.8C170.919 103.704 170.039 104.156 168.863 104.156C167.911 104.156 167.135 103.86 166.535 103.268C165.943 102.668 165.647 101.912 165.647 101C165.647 100.096 165.939 99.344 166.523 98.744C167.107 98.144 167.863 97.844 168.791 97.844C169.671 97.844 170.387 98.156 170.939 98.78C171.499 99.396 171.779 100.14 171.779 101.012C171.779 101.164 171.767 101.32 171.743 101.48H166.715ZM168.791 98.828C168.231 98.828 167.767 98.988 167.399 99.308C167.031 99.62 166.803 100.04 166.715 100.568H170.723C170.635 100 170.411 99.568 170.051 99.272C169.691 98.976 169.271 98.828 168.791 98.828ZM174.024 99.008C174.368 98.264 174.992 97.892 175.896 97.892V98.984C175.384 98.96 174.944 99.096 174.576 99.392C174.208 99.688 174.024 100.164 174.024 100.82V104H172.979V98H174.024V99.008ZM177.594 99.62C177.594 99.852 177.71 100.04 177.942 100.184C178.174 100.32 178.454 100.432 178.782 100.52C179.11 100.6 179.438 100.696 179.766 100.808C180.094 100.912 180.374 101.096 180.606 101.36C180.838 101.616 180.954 101.948 180.954 102.356C180.954 102.9 180.742 103.336 180.318 103.664C179.902 103.992 179.366 104.156 178.71 104.156C178.126 104.156 177.626 104.028 177.21 103.772C176.794 103.516 176.498 103.176 176.322 102.752L177.222 102.236C177.318 102.524 177.498 102.752 177.762 102.92C178.026 103.088 178.342 103.172 178.71 103.172C179.054 103.172 179.338 103.108 179.562 102.98C179.786 102.844 179.898 102.636 179.898 102.356C179.898 102.124 179.782 101.94 179.55 101.804C179.318 101.66 179.038 101.548 178.71 101.468C178.382 101.38 178.054 101.28 177.726 101.168C177.398 101.056 177.118 100.872 176.886 100.616C176.654 100.36 176.538 100.032 176.538 99.632C176.538 99.112 176.738 98.684 177.138 98.348C177.546 98.012 178.054 97.844 178.662 97.844C179.15 97.844 179.582 97.956 179.958 98.18C180.342 98.396 180.63 98.7 180.822 99.092L179.946 99.584C179.73 99.072 179.302 98.816 178.662 98.816C178.366 98.816 178.114 98.888 177.906 99.032C177.698 99.168 177.594 99.364 177.594 99.62ZM182.758 101.48C182.862 102.016 183.106 102.432 183.49 102.728C183.882 103.024 184.362 103.172 184.93 103.172C185.722 103.172 186.298 102.88 186.658 102.296L187.546 102.8C186.962 103.704 186.082 104.156 184.906 104.156C183.954 104.156 183.178 103.86 182.578 103.268C181.986 102.668 181.69 101.912 181.69 101C181.69 100.096 181.982 99.344 182.566 98.744C183.15 98.144 183.906 97.844 184.834 97.844C185.714 97.844 186.43 98.156 186.982 98.78C187.542 99.396 187.822 100.14 187.822 101.012C187.822 101.164 187.81 101.32 187.786 101.48H182.758ZM184.834 98.828C184.274 98.828 183.81 98.988 183.442 99.308C183.074 99.62 182.846 100.04 182.758 100.568H186.766C186.678 100 186.454 99.568 186.094 99.272C185.734 98.976 185.314 98.828 184.834 98.828ZM189.202 104.132C188.986 104.132 188.802 104.056 188.65 103.904C188.498 103.752 188.422 103.568 188.422 103.352C188.422 103.136 188.498 102.952 188.65 102.8C188.802 102.648 188.986 102.572 189.202 102.572C189.426 102.572 189.61 102.648 189.754 102.8C189.906 102.952 189.982 103.136 189.982 103.352C189.982 103.568 189.906 103.752 189.754 103.904C189.61 104.056 189.426 104.132 189.202 104.132Z" fill="#1A1A1A"/>
<path d="M37.9581 127.748C37.7021 128.012 37.3861 128.144 37.0101 128.144C36.6341 128.144 36.3141 128.012 36.0501 127.748C35.7861 127.484 35.6541 127.164 35.6541 126.788C35.6541 126.412 35.7861 126.096 36.0501 125.84C36.3141 125.576 36.6341 125.444 37.0101 125.444C37.3861 125.444 37.7021 125.576 37.9581 125.84C38.2221 126.096 38.3541 126.412 38.3541 126.788C38.3541 127.164 38.2221 127.484 37.9581 127.748ZM52.276 122.6V123.656H49.792V131H48.688V123.656H46.216V122.6H52.276ZM56.2605 124.844C56.9645 124.844 57.5285 125.068 57.9525 125.516C58.3765 125.956 58.5885 126.556 58.5885 127.316V131H57.5445V127.376C57.5445 126.888 57.4125 126.512 57.1485 126.248C56.8845 125.976 56.5205 125.84 56.0565 125.84C55.5365 125.84 55.1165 126.004 54.7965 126.332C54.4765 126.652 54.3165 127.148 54.3165 127.82V131H53.2725V122.6H54.3165V125.864C54.7405 125.184 55.3885 124.844 56.2605 124.844ZM60.7779 128.48C60.8819 129.016 61.1259 129.432 61.5099 129.728C61.9019 130.024 62.3819 130.172 62.9499 130.172C63.7419 130.172 64.3179 129.88 64.6779 129.296L65.5659 129.8C64.9819 130.704 64.1019 131.156 62.9259 131.156C61.9739 131.156 61.1979 130.86 60.5979 130.268C60.0059 129.668 59.7099 128.912 59.7099 128C59.7099 127.096 60.0019 126.344 60.5859 125.744C61.1699 125.144 61.9259 124.844 62.8539 124.844C63.7339 124.844 64.4499 125.156 65.0019 125.78C65.5619 126.396 65.8419 127.14 65.8419 128.012C65.8419 128.164 65.8299 128.32 65.8059 128.48H60.7779ZM62.8539 125.828C62.2939 125.828 61.8299 125.988 61.4619 126.308C61.0939 126.62 60.8659 127.04 60.7779 127.568H64.7859C64.6979 127 64.4739 126.568 64.1139 126.272C63.7539 125.976 63.3339 125.828 62.8539 125.828ZM71.266 129.944H75.166V131H70.15V122.6H75.106V123.656H71.266V126.236H74.806V127.28H71.266V129.944ZM79.0964 131.156C78.1924 131.156 77.4404 130.856 76.8404 130.256C76.2404 129.648 75.9404 128.896 75.9404 128C75.9404 127.104 76.2404 126.356 76.8404 125.756C77.4404 125.148 78.1924 124.844 79.0964 124.844C79.6884 124.844 80.2204 124.988 80.6924 125.276C81.1644 125.556 81.5164 125.936 81.7484 126.416L80.8724 126.92C80.7204 126.6 80.4844 126.344 80.1644 126.152C79.8524 125.96 79.4964 125.864 79.0964 125.864C78.4964 125.864 77.9924 126.068 77.5844 126.476C77.1844 126.884 76.9844 127.392 76.9844 128C76.9844 128.6 77.1844 129.104 77.5844 129.512C77.9924 129.92 78.4964 130.124 79.0964 130.124C79.4964 130.124 79.8564 130.032 80.1764 129.848C80.4964 129.656 80.7404 129.4 80.9084 129.08L81.7964 129.596C81.5404 130.068 81.1724 130.448 80.6924 130.736C80.2124 131.016 79.6804 131.156 79.0964 131.156ZM85.8152 124.844C86.5192 124.844 87.0832 125.068 87.5072 125.516C87.9312 125.956 88.1432 126.556 88.1432 127.316V131H87.0992V127.376C87.0992 126.888 86.9672 126.512 86.7032 126.248C86.4392 125.976 86.0752 125.84 85.6112 125.84C85.0912 125.84 84.6712 126.004 84.3512 126.332C84.0312 126.652 83.8712 127.148 83.8712 127.82V131H82.8272V122.6H83.8712V125.864C84.2952 125.184 84.9432 124.844 85.8152 124.844ZM94.6646 130.244C94.0486 130.852 93.3006 131.156 92.4206 131.156C91.5406 131.156 90.7926 130.852 90.1766 130.244C89.5686 129.636 89.2646 128.888 89.2646 128C89.2646 127.112 89.5686 126.364 90.1766 125.756C90.7926 125.148 91.5406 124.844 92.4206 124.844C93.3006 124.844 94.0486 125.148 94.6646 125.756C95.2806 126.364 95.5886 127.112 95.5886 128C95.5886 128.888 95.2806 129.636 94.6646 130.244ZM92.4206 130.136C93.0206 130.136 93.5246 129.932 93.9326 129.524C94.3406 129.116 94.5446 128.608 94.5446 128C94.5446 127.392 94.3406 126.884 93.9326 126.476C93.5246 126.068 93.0206 125.864 92.4206 125.864C91.8286 125.864 91.3286 126.068 90.9206 126.476C90.5126 126.884 90.3086 127.392 90.3086 128C90.3086 128.608 90.5126 129.116 90.9206 129.524C91.3286 129.932 91.8286 130.136 92.4206 130.136ZM103.203 122.6C104.347 122.6 105.295 123.008 106.047 123.824C106.807 124.632 107.187 125.624 107.187 126.8C107.187 127.976 106.807 128.972 106.047 129.788C105.295 130.596 104.347 131 103.203 131H99.9273V122.6H103.203ZM103.203 129.944C104.059 129.944 104.759 129.644 105.303 129.044C105.847 128.444 106.119 127.696 106.119 126.8C106.119 125.904 105.847 125.156 105.303 124.556C104.759 123.956 104.059 123.656 103.203 123.656H101.043V129.944H103.203ZM113.768 131L113.084 129.116H109.304L108.62 131H107.432L110.564 122.6H111.824L114.956 131H113.768ZM109.688 128.072H112.7L111.188 123.932L109.688 128.072ZM122.626 129.884C121.786 130.732 120.758 131.156 119.542 131.156C118.326 131.156 117.298 130.732 116.458 129.884C115.618 129.036 115.198 128.008 115.198 126.8C115.198 125.584 115.618 124.556 116.458 123.716C117.298 122.868 118.326 122.444 119.542 122.444C120.758 122.444 121.786 122.868 122.626 123.716C123.474 124.556 123.898 125.584 123.898 126.8C123.898 128.008 123.474 129.036 122.626 129.884ZM117.226 129.128C117.85 129.752 118.622 130.064 119.542 130.064C120.462 130.064 121.23 129.752 121.846 129.128C122.47 128.496 122.782 127.72 122.782 126.8C122.782 125.872 122.47 125.096 121.846 124.472C121.23 123.84 120.462 123.524 119.542 123.524C118.622 123.524 117.85 123.84 117.226 124.472C116.61 125.096 116.302 125.872 116.302 126.8C116.302 127.72 116.61 128.496 117.226 129.128ZM131.12 124.844C131.824 124.844 132.388 125.068 132.812 125.516C133.236 125.956 133.448 126.556 133.448 127.316V131H132.404V127.376C132.404 126.888 132.272 126.512 132.008 126.248C131.744 125.976 131.38 125.84 130.916 125.84C130.396 125.84 129.976 126.004 129.656 126.332C129.336 126.652 129.176 127.148 129.176 127.82V131H128.132V122.6H129.176V125.864C129.6 125.184 130.248 124.844 131.12 124.844ZM139.873 125H140.917V131H139.873V129.968C139.353 130.76 138.597 131.156 137.605 131.156C136.765 131.156 136.049 130.852 135.457 130.244C134.865 129.628 134.569 128.88 134.569 128C134.569 127.12 134.865 126.376 135.457 125.768C136.049 125.152 136.765 124.844 137.605 124.844C138.597 124.844 139.353 125.24 139.873 126.032V125ZM137.737 130.148C138.345 130.148 138.853 129.944 139.261 129.536C139.669 129.12 139.873 128.608 139.873 128C139.873 127.392 139.669 126.884 139.261 126.476C138.853 126.06 138.345 125.852 137.737 125.852C137.137 125.852 136.633 126.06 136.225 126.476C135.817 126.884 135.613 127.392 135.613 128C135.613 128.608 135.817 129.12 136.225 129.536C136.633 129.944 137.137 130.148 137.737 130.148ZM143.387 126.62C143.387 126.852 143.503 127.04 143.735 127.184C143.967 127.32 144.247 127.432 144.575 127.52C144.903 127.6 145.231 127.696 145.559 127.808C145.887 127.912 146.167 128.096 146.399 128.36C146.631 128.616 146.747 128.948 146.747 129.356C146.747 129.9 146.535 130.336 146.111 130.664C145.695 130.992 145.159 131.156 144.503 131.156C143.919 131.156 143.419 131.028 143.003 130.772C142.587 130.516 142.291 130.176 142.115 129.752L143.015 129.236C143.111 129.524 143.291 129.752 143.555 129.92C143.819 130.088 144.135 130.172 144.503 130.172C144.847 130.172 145.131 130.108 145.355 129.98C145.579 129.844 145.691 129.636 145.691 129.356C145.691 129.124 145.575 128.94 145.343 128.804C145.111 128.66 144.831 128.548 144.503 128.468C144.175 128.38 143.847 128.28 143.519 128.168C143.191 128.056 142.911 127.872 142.679 127.616C142.447 127.36 142.331 127.032 142.331 126.632C142.331 126.112 142.531 125.684 142.931 125.348C143.339 125.012 143.847 124.844 144.455 124.844C144.943 124.844 145.375 124.956 145.751 125.18C146.135 125.396 146.423 125.7 146.615 126.092L145.739 126.584C145.523 126.072 145.095 125.816 144.455 125.816C144.159 125.816 143.907 125.888 143.699 126.032C143.491 126.168 143.387 126.364 143.387 126.62ZM155.951 125H156.995V131H155.951V129.968C155.431 130.76 154.675 131.156 153.683 131.156C152.843 131.156 152.127 130.852 151.535 130.244C150.943 129.628 150.647 128.88 150.647 128C150.647 127.12 150.943 126.376 151.535 125.768C152.127 125.152 152.843 124.844 153.683 124.844C154.675 124.844 155.431 125.24 155.951 126.032V125ZM153.815 130.148C154.423 130.148 154.931 129.944 155.339 129.536C155.747 129.12 155.951 128.608 155.951 128C155.951 127.392 155.747 126.884 155.339 126.476C154.931 126.06 154.423 125.852 153.815 125.852C153.215 125.852 152.711 126.06 152.303 126.476C151.895 126.884 151.691 127.392 151.691 128C151.691 128.608 151.895 129.12 152.303 129.536C152.711 129.944 153.215 130.148 153.815 130.148ZM161.397 131.156C160.493 131.156 159.741 130.856 159.141 130.256C158.541 129.648 158.241 128.896 158.241 128C158.241 127.104 158.541 126.356 159.141 125.756C159.741 125.148 160.493 124.844 161.397 124.844C161.989 124.844 162.521 124.988 162.993 125.276C163.465 125.556 163.817 125.936 164.049 126.416L163.173 126.92C163.021 126.6 162.785 126.344 162.465 126.152C162.153 125.96 161.797 125.864 161.397 125.864C160.797 125.864 160.293 126.068 159.885 126.476C159.485 126.884 159.285 127.392 159.285 128C159.285 128.6 159.485 129.104 159.885 129.512C160.293 129.92 160.797 130.124 161.397 130.124C161.797 130.124 162.157 130.032 162.477 129.848C162.797 129.656 163.041 129.4 163.209 129.08L164.097 129.596C163.841 130.068 163.473 130.448 162.993 130.736C162.513 131.016 161.981 131.156 161.397 131.156ZM170.014 125H171.058V133.4H170.014V129.968C169.494 130.76 168.738 131.156 167.746 131.156C166.906 131.156 166.19 130.852 165.598 130.244C165.006 129.628 164.71 128.88 164.71 128C164.71 127.12 165.006 126.376 165.598 125.768C166.19 125.152 166.906 124.844 167.746 124.844C168.738 124.844 169.494 125.24 170.014 126.032V125ZM167.878 130.148C168.486 130.148 168.994 129.944 169.402 129.536C169.81 129.12 170.014 128.608 170.014 128C170.014 127.392 169.81 126.884 169.402 126.476C168.994 126.06 168.486 125.852 167.878 125.852C167.278 125.852 166.774 126.06 166.366 126.476C165.958 126.884 165.754 127.392 165.754 128C165.754 128.608 165.958 129.12 166.366 129.536C166.774 129.944 167.278 130.148 167.878 130.148ZM176.78 125H177.824V131H176.78V130.136C176.356 130.816 175.708 131.156 174.836 131.156C174.132 131.156 173.568 130.936 173.144 130.496C172.72 130.048 172.508 129.444 172.508 128.684V125H173.552V128.624C173.552 129.112 173.684 129.492 173.948 129.764C174.212 130.028 174.576 130.16 175.04 130.16C175.56 130.16 175.98 130 176.3 129.68C176.62 129.352 176.78 128.852 176.78 128.18V125ZM179.941 123.908C179.741 123.908 179.573 123.84 179.437 123.704C179.301 123.568 179.233 123.404 179.233 123.212C179.233 123.02 179.301 122.856 179.437 122.72C179.573 122.576 179.741 122.504 179.941 122.504C180.133 122.504 180.297 122.576 180.433 122.72C180.569 122.856 180.637 123.02 180.637 123.212C180.637 123.404 180.569 123.568 180.433 123.704C180.297 123.84 180.133 123.908 179.941 123.908ZM179.413 131V125H180.457V131H179.413ZM183.094 126.008C183.438 125.264 184.062 124.892 184.966 124.892V125.984C184.454 125.96 184.014 126.096 183.646 126.392C183.278 126.688 183.094 127.164 183.094 127.82V131H182.05V125H183.094V126.008ZM186.391 128.48C186.495 129.016 186.739 129.432 187.123 129.728C187.515 130.024 187.995 130.172 188.563 130.172C189.355 130.172 189.931 129.88 190.291 129.296L191.179 129.8C190.595 130.704 189.715 131.156 188.539 131.156C187.587 131.156 186.811 130.86 186.211 130.268C185.619 129.668 185.323 128.912 185.323 128C185.323 127.096 185.615 126.344 186.199 125.744C186.783 125.144 187.539 124.844 188.467 124.844C189.347 124.844 190.063 125.156 190.615 125.78C191.175 126.396 191.455 127.14 191.455 128.012C191.455 128.164 191.443 128.32 191.419 128.48H186.391ZM188.467 125.828C187.907 125.828 187.443 125.988 187.075 126.308C186.707 126.62 186.479 127.04 186.391 127.568H190.399C190.311 127 190.087 126.568 189.727 126.272C189.367 125.976 188.947 125.828 188.467 125.828ZM197.612 122.6H198.656V131H197.612V129.968C197.092 130.76 196.336 131.156 195.344 131.156C194.504 131.156 193.788 130.852 193.196 130.244C192.604 129.628 192.308 128.88 192.308 128C192.308 127.12 192.604 126.376 193.196 125.768C193.788 125.152 194.504 124.844 195.344 124.844C196.336 124.844 197.092 125.24 197.612 126.032V122.6ZM195.476 130.148C196.084 130.148 196.592 129.944 197 129.536C197.408 129.12 197.612 128.608 197.612 128C197.612 127.392 197.408 126.884 197 126.476C196.592 126.06 196.084 125.852 195.476 125.852C194.876 125.852 194.372 126.06 193.964 126.476C193.556 126.884 193.352 127.392 193.352 128C193.352 128.608 193.556 129.12 193.964 129.536C194.372 129.944 194.876 130.148 195.476 130.148ZM203.237 131V122.24H204.281V131H203.237ZM210.842 125H211.886V131H210.842V129.968C210.322 130.76 209.566 131.156 208.574 131.156C207.734 131.156 207.018 130.852 206.426 130.244C205.834 129.628 205.538 128.88 205.538 128C205.538 127.12 205.834 126.376 206.426 125.768C207.018 125.152 207.734 124.844 208.574 124.844C209.566 124.844 210.322 125.24 210.842 126.032V125ZM208.706 130.148C209.314 130.148 209.822 129.944 210.23 129.536C210.638 129.12 210.842 128.608 210.842 128C210.842 127.392 210.638 126.884 210.23 126.476C209.822 126.06 209.314 125.852 208.706 125.852C208.106 125.852 207.602 126.06 207.194 126.476C206.786 126.884 206.582 127.392 206.582 128C206.582 128.608 206.786 129.12 207.194 129.536C207.602 129.944 208.106 130.148 208.706 130.148ZM216.456 124.844C217.16 124.844 217.724 125.068 218.148 125.516C218.572 125.956 218.784 126.556 218.784 127.316V131H217.74V127.376C217.74 126.888 217.608 126.512 217.344 126.248C217.08 125.976 216.716 125.84 216.252 125.84C215.732 125.84 215.312 126.004 214.992 126.332C214.672 126.652 214.512 127.148 214.512 127.82V131H213.468V125H214.512V125.864C214.936 125.184 215.584 124.844 216.456 124.844ZM225.209 122.6H226.253V131H225.209V129.968C224.689 130.76 223.933 131.156 222.941 131.156C222.101 131.156 221.385 130.852 220.793 130.244C220.201 129.628 219.905 128.88 219.905 128C219.905 127.12 220.201 126.376 220.793 125.768C221.385 125.152 222.101 124.844 222.941 124.844C223.933 124.844 224.689 125.24 225.209 126.032V122.6ZM223.073 130.148C223.681 130.148 224.189 129.944 224.597 129.536C225.005 129.12 225.209 128.608 225.209 128C225.209 127.392 225.005 126.884 224.597 126.476C224.189 126.06 223.681 125.852 223.073 125.852C222.473 125.852 221.969 126.06 221.561 126.476C221.153 126.884 220.949 127.392 220.949 128C220.949 128.608 221.153 129.12 221.561 129.536C221.969 129.944 222.473 130.148 223.073 130.148ZM235.899 130.244C235.283 130.852 234.535 131.156 233.655 131.156C232.775 131.156 232.027 130.852 231.411 130.244C230.803 129.636 230.499 128.888 230.499 128C230.499 127.112 230.803 126.364 231.411 125.756C232.027 125.148 232.775 124.844 233.655 124.844C234.535 124.844 235.283 125.148 235.899 125.756C236.515 126.364 236.823 127.112 236.823 128C236.823 128.888 236.515 129.636 235.899 130.244ZM233.655 130.136C234.255 130.136 234.759 129.932 235.167 129.524C235.575 129.116 235.779 128.608 235.779 128C235.779 127.392 235.575 126.884 235.167 126.476C234.759 126.068 234.255 125.864 233.655 125.864C233.063 125.864 232.563 126.068 232.155 126.476C231.747 126.884 231.543 127.392 231.543 128C231.543 128.608 231.747 129.116 232.155 129.524C232.563 129.932 233.063 130.136 233.655 130.136ZM241.042 124.844C241.746 124.844 242.31 125.068 242.734 125.516C243.158 125.956 243.37 126.556 243.37 127.316V131H242.326V127.376C242.326 126.888 242.194 126.512 241.93 126.248C241.666 125.976 241.302 125.84 240.838 125.84C240.318 125.84 239.898 126.004 239.578 126.332C239.258 126.652 239.098 127.148 239.098 127.82V131H238.054V125H239.098V125.864C239.522 125.184 240.17 124.844 241.042 124.844ZM250.263 125.504C251.103 125.504 251.795 125.768 252.339 126.296C252.883 126.816 253.155 127.492 253.155 128.324C253.155 129.156 252.883 129.836 252.339 130.364C251.795 130.892 251.103 131.156 250.263 131.156C249.415 131.156 248.719 130.892 248.175 130.364C247.639 129.836 247.371 129.156 247.371 128.324C247.371 127.676 247.539 127.116 247.875 126.644L250.575 122.6H251.847L249.867 125.528C250.043 125.512 250.175 125.504 250.263 125.504ZM248.967 129.608C249.303 129.928 249.735 130.088 250.263 130.088C250.791 130.088 251.219 129.928 251.547 129.608C251.883 129.28 252.051 128.852 252.051 128.324C252.051 127.796 251.883 127.372 251.547 127.052C251.219 126.732 250.791 126.572 250.263 126.572C249.727 126.572 249.295 126.732 248.967 127.052C248.639 127.372 248.475 127.796 248.475 128.324C248.475 128.852 248.639 129.28 248.967 129.608ZM51.856 148.244C51.24 148.852 50.492 149.156 49.612 149.156C48.732 149.156 47.984 148.852 47.368 148.244C46.76 147.636 46.456 146.888 46.456 146C46.456 145.112 46.76 144.364 47.368 143.756C47.984 143.148 48.732 142.844 49.612 142.844C50.492 142.844 51.24 143.148 51.856 143.756C52.472 144.364 52.78 145.112 52.78 146C52.78 146.888 52.472 147.636 51.856 148.244ZM49.612 148.136C50.212 148.136 50.716 147.932 51.124 147.524C51.532 147.116 51.736 146.608 51.736 146C51.736 145.392 51.532 144.884 51.124 144.476C50.716 144.068 50.212 143.864 49.612 143.864C49.02 143.864 48.52 144.068 48.112 144.476C47.704 144.884 47.5 145.392 47.5 146C47.5 146.608 47.704 147.116 48.112 147.524C48.52 147.932 49.02 148.136 49.612 148.136ZM56.8721 141.452C55.8161 141.364 55.2881 141.82 55.2881 142.82V143H56.8721V144.008H55.2881V149H54.2441V144.008H53.2841V143H54.2441V142.82C54.2441 142.012 54.4681 141.4 54.9161 140.984C55.3721 140.568 56.0241 140.388 56.8721 140.444V141.452ZM63.931 144.008H62.335V147.26C62.335 147.556 62.391 147.768 62.503 147.896C62.623 148.016 62.803 148.08 63.043 148.088C63.283 148.088 63.579 148.08 63.931 148.064V149C63.019 149.12 62.351 149.048 61.927 148.784C61.503 148.512 61.291 148.004 61.291 147.26V144.008H60.103V143H61.291V141.632L62.335 141.32V143H63.931V144.008ZM68.155 142.844C68.859 142.844 69.423 143.068 69.847 143.516C70.271 143.956 70.483 144.556 70.483 145.316V149H69.439V145.376C69.439 144.888 69.307 144.512 69.043 144.248C68.779 143.976 68.415 143.84 67.951 143.84C67.431 143.84 67.011 144.004 66.691 144.332C66.371 144.652 66.211 145.148 66.211 145.82V149H65.167V140.6H66.211V143.864C66.635 143.184 67.283 142.844 68.155 142.844ZM72.6724 146.48C72.7764 147.016 73.0204 147.432 73.4044 147.728C73.7964 148.024 74.2764 148.172 74.8444 148.172C75.6364 148.172 76.2124 147.88 76.5724 147.296L77.4604 147.8C76.8764 148.704 75.9964 149.156 74.8204 149.156C73.8684 149.156 73.0924 148.86 72.4924 148.268C71.9004 147.668 71.6044 146.912 71.6044 146C71.6044 145.096 71.8964 144.344 72.4804 143.744C73.0644 143.144 73.8204 142.844 74.7484 142.844C75.6284 142.844 76.3444 143.156 76.8964 143.78C77.4564 144.396 77.7364 145.14 77.7364 146.012C77.7364 146.164 77.7244 146.32 77.7004 146.48H72.6724ZM74.7484 143.828C74.1884 143.828 73.7244 143.988 73.3564 144.308C72.9884 144.62 72.7604 145.04 72.6724 145.568H76.6804C76.5924 145 76.3684 144.568 76.0084 144.272C75.6484 143.976 75.2284 143.828 74.7484 143.828ZM87.0005 148.244C86.3845 148.852 85.6365 149.156 84.7565 149.156C83.8765 149.156 83.1285 148.852 82.5125 148.244C81.9045 147.636 81.6005 146.888 81.6005 146C81.6005 145.112 81.9045 144.364 82.5125 143.756C83.1285 143.148 83.8765 142.844 84.7565 142.844C85.6365 142.844 86.3845 143.148 87.0005 143.756C87.6165 144.364 87.9245 145.112 87.9245 146C87.9245 146.888 87.6165 147.636 87.0005 148.244ZM84.7565 148.136C85.3565 148.136 85.8605 147.932 86.2685 147.524C86.6765 147.116 86.8805 146.608 86.8805 146C86.8805 145.392 86.6765 144.884 86.2685 144.476C85.8605 144.068 85.3565 143.864 84.7565 143.864C84.1645 143.864 83.6645 144.068 83.2565 144.476C82.8485 144.884 82.6445 145.392 82.6445 146C82.6445 146.608 82.8485 147.116 83.2565 147.524C83.6645 147.932 84.1645 148.136 84.7565 148.136ZM91.9753 149.156C91.0713 149.156 90.3193 148.856 89.7193 148.256C89.1193 147.648 88.8193 146.896 88.8193 146C88.8193 145.104 89.1193 144.356 89.7193 143.756C90.3193 143.148 91.0713 142.844 91.9753 142.844C92.5673 142.844 93.0993 142.988 93.5713 143.276C94.0433 143.556 94.3953 143.936 94.6273 144.416L93.7513 144.92C93.5993 144.6 93.3633 144.344 93.0433 144.152C92.7313 143.96 92.3753 143.864 91.9753 143.864C91.3753 143.864 90.8713 144.068 90.4633 144.476C90.0633 144.884 89.8633 145.392 89.8633 146C89.8633 146.6 90.0633 147.104 90.4633 147.512C90.8713 147.92 91.3753 148.124 91.9753 148.124C92.3753 148.124 92.7353 148.032 93.0553 147.848C93.3753 147.656 93.6193 147.4 93.7873 147.08L94.6753 147.596C94.4193 148.068 94.0513 148.448 93.5713 148.736C93.0913 149.016 92.5593 149.156 91.9753 149.156ZM98.444 149.156C97.54 149.156 96.788 148.856 96.188 148.256C95.588 147.648 95.288 146.896 95.288 146C95.288 145.104 95.588 144.356 96.188 143.756C96.788 143.148 97.54 142.844 98.444 142.844C99.036 142.844 99.568 142.988 100.04 143.276C100.512 143.556 100.864 143.936 101.096 144.416L100.22 144.92C100.068 144.6 99.832 144.344 99.512 144.152C99.2 143.96 98.844 143.864 98.444 143.864C97.844 143.864 97.34 144.068 96.932 144.476C96.532 144.884 96.332 145.392 96.332 146C96.332 146.6 96.532 147.104 96.932 147.512C97.34 147.92 97.844 148.124 98.444 148.124C98.844 148.124 99.204 148.032 99.524 147.848C99.844 147.656 100.088 147.4 100.256 147.08L101.144 147.596C100.888 148.068 100.52 148.448 100.04 148.736C99.56 149.016 99.028 149.156 98.444 149.156ZM106.327 143H107.371V149H106.327V148.136C105.903 148.816 105.255 149.156 104.383 149.156C103.679 149.156 103.115 148.936 102.691 148.496C102.267 148.048 102.055 147.444 102.055 146.684V143H103.099V146.624C103.099 147.112 103.231 147.492 103.495 147.764C103.759 148.028 104.123 148.16 104.587 148.16C105.107 148.16 105.527 148 105.847 147.68C106.167 147.352 106.327 146.852 106.327 146.18V143ZM112.272 142.844C113.112 142.844 113.828 143.152 114.42 143.768C115.012 144.376 115.308 145.12 115.308 146C115.308 146.88 115.012 147.628 114.42 148.244C113.828 148.852 113.112 149.156 112.272 149.156C111.28 149.156 110.524 148.76 110.004 147.968V151.4H108.96V143H110.004V144.032C110.524 143.24 111.28 142.844 112.272 142.844ZM112.14 148.148C112.74 148.148 113.244 147.944 113.652 147.536C114.06 147.12 114.264 146.608 114.264 146C114.264 145.392 114.06 144.884 113.652 144.476C113.244 144.06 112.74 143.852 112.14 143.852C111.532 143.852 111.024 144.06 110.616 144.476C110.208 144.884 110.004 145.392 110.004 146C110.004 146.608 110.208 147.12 110.616 147.536C111.024 147.944 111.532 148.148 112.14 148.148ZM117.082 141.908C116.882 141.908 116.714 141.84 116.578 141.704C116.442 141.568 116.374 141.404 116.374 141.212C116.374 141.02 116.442 140.856 116.578 140.72C116.714 140.576 116.882 140.504 117.082 140.504C117.274 140.504 117.438 140.576 117.574 140.72C117.71 140.856 117.778 141.02 117.778 141.212C117.778 141.404 117.71 141.568 117.574 141.704C117.438 141.84 117.274 141.908 117.082 141.908ZM116.554 149V143H117.598V149H116.554ZM119.922 146.48C120.026 147.016 120.27 147.432 120.654 147.728C121.046 148.024 121.526 148.172 122.094 148.172C122.886 148.172 123.462 147.88 123.822 147.296L124.71 147.8C124.126 148.704 123.246 149.156 122.07 149.156C121.118 149.156 120.342 148.86 119.742 148.268C119.15 147.668 118.854 146.912 118.854 146C118.854 145.096 119.146 144.344 119.73 143.744C120.314 143.144 121.07 142.844 121.998 142.844C122.878 142.844 123.594 143.156 124.146 143.78C124.706 144.396 124.986 145.14 124.986 146.012C124.986 146.164 124.974 146.32 124.95 146.48H119.922ZM121.998 143.828C121.438 143.828 120.974 143.988 120.606 144.308C120.238 144.62 120.01 145.04 119.922 145.568H123.93C123.842 145 123.618 144.568 123.258 144.272C122.898 143.976 122.478 143.828 121.998 143.828ZM131.143 140.6H132.187V149H131.143V147.968C130.623 148.76 129.867 149.156 128.875 149.156C128.035 149.156 127.319 148.852 126.727 148.244C126.135 147.628 125.839 146.88 125.839 146C125.839 145.12 126.135 144.376 126.727 143.768C127.319 143.152 128.035 142.844 128.875 142.844C129.867 142.844 130.623 143.24 131.143 144.032V140.6ZM129.007 148.148C129.615 148.148 130.123 147.944 130.531 147.536C130.939 147.12 131.143 146.608 131.143 146C131.143 145.392 130.939 144.884 130.531 144.476C130.123 144.06 129.615 143.852 129.007 143.852C128.407 143.852 127.903 144.06 127.495 144.476C127.087 144.884 126.883 145.392 126.883 146C126.883 146.608 127.087 147.12 127.495 147.536C127.903 147.944 128.407 148.148 129.007 148.148ZM139.589 149.156C138.685 149.156 137.933 148.856 137.333 148.256C136.733 147.648 136.433 146.896 136.433 146C136.433 145.104 136.733 144.356 137.333 143.756C137.933 143.148 138.685 142.844 139.589 142.844C140.181 142.844 140.713 142.988 141.185 143.276C141.657 143.556 142.009 143.936 142.241 144.416L141.365 144.92C141.213 144.6 140.977 144.344 140.657 144.152C140.345 143.96 139.989 143.864 139.589 143.864C138.989 143.864 138.485 144.068 138.077 144.476C137.677 144.884 137.477 145.392 137.477 146C137.477 146.6 137.677 147.104 138.077 147.512C138.485 147.92 138.989 148.124 139.589 148.124C139.989 148.124 140.349 148.032 140.669 147.848C140.989 147.656 141.233 147.4 141.401 147.08L142.289 147.596C142.033 148.068 141.665 148.448 141.185 148.736C140.705 149.016 140.173 149.156 139.589 149.156ZM148.301 148.244C147.685 148.852 146.937 149.156 146.057 149.156C145.177 149.156 144.429 148.852 143.813 148.244C143.205 147.636 142.901 146.888 142.901 146C142.901 145.112 143.205 144.364 143.813 143.756C144.429 143.148 145.177 142.844 146.057 142.844C146.937 142.844 147.685 143.148 148.301 143.756C148.917 144.364 149.225 145.112 149.225 146C149.225 146.888 148.917 147.636 148.301 148.244ZM146.057 148.136C146.657 148.136 147.161 147.932 147.569 147.524C147.977 147.116 148.181 146.608 148.181 146C148.181 145.392 147.977 144.884 147.569 144.476C147.161 144.068 146.657 143.864 146.057 143.864C145.465 143.864 144.965 144.068 144.557 144.476C144.149 144.884 143.945 145.392 143.945 146C143.945 146.608 144.149 147.116 144.557 147.524C144.965 147.932 145.465 148.136 146.057 148.136ZM153.444 142.844C154.148 142.844 154.712 143.068 155.136 143.516C155.56 143.956 155.772 144.556 155.772 145.316V149H154.728V145.376C154.728 144.888 154.596 144.512 154.332 144.248C154.068 143.976 153.704 143.84 153.24 143.84C152.72 143.84 152.3 144.004 151.98 144.332C151.66 144.652 151.5 145.148 151.5 145.82V149H150.456V143H151.5V143.864C151.924 143.184 152.572 142.844 153.444 142.844ZM160.494 144.008H158.898V147.26C158.898 147.556 158.954 147.768 159.066 147.896C159.186 148.016 159.366 148.08 159.605 148.088C159.845 148.088 160.142 148.08 160.494 148.064V149C159.582 149.12 158.914 149.048 158.49 148.784C158.066 148.512 157.854 148.004 157.854 147.26V144.008H156.666V143H157.854V141.632L158.898 141.32V143H160.494V144.008ZM162.258 141.908C162.058 141.908 161.89 141.84 161.754 141.704C161.618 141.568 161.55 141.404 161.55 141.212C161.55 141.02 161.618 140.856 161.754 140.72C161.89 140.576 162.058 140.504 162.258 140.504C162.45 140.504 162.614 140.576 162.75 140.72C162.886 140.856 162.954 141.02 162.954 141.212C162.954 141.404 162.886 141.568 162.75 141.704C162.614 141.84 162.45 141.908 162.258 141.908ZM161.729 149V143H162.774V149H161.729ZM167.354 142.844C168.058 142.844 168.622 143.068 169.046 143.516C169.47 143.956 169.682 144.556 169.682 145.316V149H168.638V145.376C168.638 144.888 168.506 144.512 168.242 144.248C167.978 143.976 167.614 143.84 167.15 143.84C166.63 143.84 166.21 144.004 165.89 144.332C165.57 144.652 165.41 145.148 165.41 145.82V149H164.366V143H165.41V143.864C165.834 143.184 166.482 142.844 167.354 142.844ZM171.872 146.48C171.976 147.016 172.22 147.432 172.604 147.728C172.996 148.024 173.476 148.172 174.044 148.172C174.836 148.172 175.412 147.88 175.772 147.296L176.66 147.8C176.076 148.704 175.196 149.156 174.02 149.156C173.068 149.156 172.292 148.86 171.692 148.268C171.1 147.668 170.804 146.912 170.804 146C170.804 145.096 171.096 144.344 171.68 143.744C172.264 143.144 173.02 142.844 173.948 142.844C174.828 142.844 175.544 143.156 176.096 143.78C176.656 144.396 176.936 145.14 176.936 146.012C176.936 146.164 176.924 146.32 176.9 146.48H171.872ZM173.948 143.828C173.388 143.828 172.924 143.988 172.556 144.308C172.188 144.62 171.96 145.04 171.872 145.568H175.88C175.792 145 175.568 144.568 175.208 144.272C174.848 143.976 174.428 143.828 173.948 143.828ZM181.124 142.844C181.828 142.844 182.392 143.068 182.816 143.516C183.24 143.956 183.452 144.556 183.452 145.316V149H182.408V145.376C182.408 144.888 182.276 144.512 182.012 144.248C181.748 143.976 181.384 143.84 180.92 143.84C180.4 143.84 179.98 144.004 179.66 144.332C179.34 144.652 179.18 145.148 179.18 145.82V149H178.136V143H179.18V143.864C179.604 143.184 180.252 142.844 181.124 142.844ZM188.173 144.008H186.577V147.26C186.577 147.556 186.633 147.768 186.745 147.896C186.865 148.016 187.045 148.08 187.285 148.088C187.525 148.088 187.821 148.08 188.173 148.064V149C187.261 149.12 186.593 149.048 186.169 148.784C185.745 148.512 185.533 148.004 185.533 147.26V144.008H184.345V143H185.533V141.632L186.577 141.32V143H188.173V144.008ZM190.016 144.62C190.016 144.852 190.132 145.04 190.364 145.184C190.596 145.32 190.876 145.432 191.204 145.52C191.532 145.6 191.86 145.696 192.188 145.808C192.516 145.912 192.796 146.096 193.028 146.36C193.26 146.616 193.376 146.948 193.376 147.356C193.376 147.9 193.164 148.336 192.74 148.664C192.324 148.992 191.788 149.156 191.132 149.156C190.548 149.156 190.048 149.028 189.632 148.772C189.216 148.516 188.92 148.176 188.744 147.752L189.644 147.236C189.74 147.524 189.92 147.752 190.184 147.92C190.448 148.088 190.764 148.172 191.132 148.172C191.476 148.172 191.76 148.108 191.984 147.98C192.208 147.844 192.32 147.636 192.32 147.356C192.32 147.124 192.204 146.94 191.972 146.804C191.74 146.66 191.46 146.548 191.132 146.468C190.804 146.38 190.476 146.28 190.148 146.168C189.82 146.056 189.54 145.872 189.308 145.616C189.076 145.36 188.96 145.032 188.96 144.632C188.96 144.112 189.16 143.684 189.56 143.348C189.968 143.012 190.476 142.844 191.084 142.844C191.572 142.844 192.004 142.956 192.38 143.18C192.764 143.396 193.052 143.7 193.244 144.092L192.368 144.584C192.152 144.072 191.724 143.816 191.084 143.816C190.788 143.816 190.536 143.888 190.328 144.032C190.12 144.168 190.016 144.364 190.016 144.62ZM195.143 149.132C194.927 149.132 194.743 149.056 194.591 148.904C194.439 148.752 194.363 148.568 194.363 148.352C194.363 148.136 194.439 147.952 194.591 147.8C194.743 147.648 194.927 147.572 195.143 147.572C195.367 147.572 195.551 147.648 195.695 147.8C195.847 147.952 195.923 148.136 195.923 148.352C195.923 148.568 195.847 148.752 195.695 148.904C195.551 149.056 195.367 149.132 195.143 149.132Z" fill="#1A1A1A"/>
</svg>
