<svg width="255" height="161" viewBox="0 0 276 161" fill="none" xmlns="http://www.w3.org/2000/svg">
<rect x="15" width="255" height="161" fill="#D1EACB"/>
<path d="M37.9581 19.748C37.7021 20.012 37.3861 20.144 37.0101 20.144C36.6341 20.144 36.3141 20.012 36.0501 19.748C35.7861 19.484 35.6541 19.164 35.6541 18.788C35.6541 18.412 35.7861 18.096 36.0501 17.84C36.3141 17.576 36.6341 17.444 37.0101 17.444C37.3861 17.444 37.7021 17.576 37.9581 17.84C38.2221 18.096 38.3541 18.412 38.3541 18.788C38.3541 19.164 38.2221 19.484 37.9581 19.748ZM50.176 14.6C51.32 14.6 52.268 15.008 53.02 15.824C53.78 16.632 54.16 17.624 54.16 18.8C54.16 19.976 53.78 20.972 53.02 21.788C52.268 22.596 51.32 23 50.176 23H46.9V14.6H50.176ZM50.176 21.944C51.032 21.944 51.732 21.644 52.276 21.044C52.82 20.444 53.092 19.696 53.092 18.8C53.092 17.904 52.82 17.156 52.276 16.556C51.732 15.956 51.032 15.656 50.176 15.656H48.016V21.944H50.176ZM56.1373 20.48C56.2413 21.016 56.4853 21.432 56.8693 21.728C57.2613 22.024 57.7413 22.172 58.3093 22.172C59.1013 22.172 59.6773 21.88 60.0373 21.296L60.9253 21.8C60.3413 22.704 59.4613 23.156 58.2853 23.156C57.3333 23.156 56.5573 22.86 55.9573 22.268C55.3653 21.668 55.0693 20.912 55.0693 20C55.0693 19.096 55.3613 18.344 55.9453 17.744C56.5293 17.144 57.2853 16.844 58.2133 16.844C59.0933 16.844 59.8093 17.156 60.3613 17.78C60.9213 18.396 61.2013 19.14 61.2013 20.012C61.2013 20.164 61.1893 20.32 61.1653 20.48H56.1373ZM58.2133 17.828C57.6533 17.828 57.1893 17.988 56.8213 18.308C56.4533 18.62 56.2253 19.04 56.1373 19.568H60.1453C60.0573 19 59.8333 18.568 59.4733 18.272C59.1133 17.976 58.6933 17.828 58.2133 17.828ZM63.067 18.62C63.067 18.852 63.183 19.04 63.415 19.184C63.647 19.32 63.927 19.432 64.255 19.52C64.583 19.6 64.911 19.696 65.239 19.808C65.567 19.912 65.847 20.096 66.079 20.36C66.311 20.616 66.427 20.948 66.427 21.356C66.427 21.9 66.215 22.336 65.791 22.664C65.375 22.992 64.839 23.156 64.183 23.156C63.599 23.156 63.099 23.028 62.683 22.772C62.267 22.516 61.971 22.176 61.795 21.752L62.695 21.236C62.791 21.524 62.971 21.752 63.235 21.92C63.499 22.088 63.815 22.172 64.183 22.172C64.527 22.172 64.811 22.108 65.035 21.98C65.259 21.844 65.371 21.636 65.371 21.356C65.371 21.124 65.255 20.94 65.023 20.804C64.791 20.66 64.511 20.548 64.183 20.468C63.855 20.38 63.527 20.28 63.199 20.168C62.871 20.056 62.591 19.872 62.359 19.616C62.127 19.36 62.011 19.032 62.011 18.632C62.011 18.112 62.211 17.684 62.611 17.348C63.019 17.012 63.527 16.844 64.135 16.844C64.623 16.844 65.055 16.956 65.431 17.18C65.815 17.396 66.103 17.7 66.295 18.092L65.419 18.584C65.203 18.072 64.775 17.816 64.135 17.816C63.839 17.816 63.587 17.888 63.379 18.032C63.171 18.168 63.067 18.364 63.067 18.62ZM68.1325 15.908C67.9325 15.908 67.7645 15.84 67.6285 15.704C67.4925 15.568 67.4245 15.404 67.4245 15.212C67.4245 15.02 67.4925 14.856 67.6285 14.72C67.7645 14.576 67.9325 14.504 68.1325 14.504C68.3245 14.504 68.4885 14.576 68.6245 14.72C68.7605 14.856 68.8285 15.02 68.8285 15.212C68.8285 15.404 68.7605 15.568 68.6245 15.704C68.4885 15.84 68.3245 15.908 68.1325 15.908ZM67.6045 23V17H68.6485V23H67.6045ZM75.2212 17H76.2532V22.748C76.2532 23.636 75.9532 24.324 75.3532 24.812C74.7532 25.308 74.0332 25.556 73.1932 25.556C72.5212 25.556 71.9412 25.428 71.4532 25.172C70.9652 24.924 70.5972 24.564 70.3492 24.092L71.2612 23.576C71.5892 24.248 72.2412 24.584 73.2172 24.584C73.8412 24.584 74.3292 24.42 74.6812 24.092C75.0412 23.764 75.2212 23.316 75.2212 22.748V21.896C74.6932 22.696 73.9412 23.096 72.9652 23.096C72.1092 23.096 71.3852 22.792 70.7932 22.184C70.2012 21.576 69.9052 20.836 69.9052 19.964C69.9052 19.092 70.2012 18.356 70.7932 17.756C71.3852 17.148 72.1092 16.844 72.9652 16.844C73.9492 16.844 74.7012 17.24 75.2212 18.032V17ZM71.5612 21.488C71.9692 21.896 72.4772 22.1 73.0852 22.1C73.6932 22.1 74.2012 21.896 74.6092 21.488C75.0172 21.08 75.2212 20.572 75.2212 19.964C75.2212 19.364 75.0172 18.86 74.6092 18.452C74.2012 18.044 73.6932 17.84 73.0852 17.84C72.4772 17.84 71.9692 18.044 71.5612 18.452C71.1532 18.86 70.9492 19.364 70.9492 19.964C70.9492 20.572 71.1532 21.08 71.5612 21.488ZM80.823 16.844C81.527 16.844 82.091 17.068 82.515 17.516C82.939 17.956 83.151 18.556 83.151 19.316V23H82.107V19.376C82.107 18.888 81.975 18.512 81.711 18.248C81.447 17.976 81.083 17.84 80.619 17.84C80.099 17.84 79.679 18.004 79.359 18.332C79.039 18.652 78.879 19.148 78.879 19.82V23H77.835V17H78.879V17.864C79.303 17.184 79.951 16.844 80.823 16.844ZM85.3404 20.48C85.4444 21.016 85.6884 21.432 86.0724 21.728C86.4644 22.024 86.9444 22.172 87.5124 22.172C88.3044 22.172 88.8804 21.88 89.2404 21.296L90.1284 21.8C89.5444 22.704 88.6644 23.156 87.4884 23.156C86.5364 23.156 85.7604 22.86 85.1604 22.268C84.5684 21.668 84.2724 20.912 84.2724 20C84.2724 19.096 84.5644 18.344 85.1484 17.744C85.7324 17.144 86.4884 16.844 87.4164 16.844C88.2964 16.844 89.0124 17.156 89.5644 17.78C90.1244 18.396 90.4044 19.14 90.4044 20.012C90.4044 20.164 90.3924 20.32 90.3684 20.48H85.3404ZM87.4164 17.828C86.8564 17.828 86.3924 17.988 86.0244 18.308C85.6564 18.62 85.4284 19.04 85.3404 19.568H89.3484C89.2604 19 89.0364 18.568 88.6764 18.272C88.3164 17.976 87.8964 17.828 87.4164 17.828ZM96.5608 14.6H97.6048V23H96.5608V21.968C96.0408 22.76 95.2848 23.156 94.2928 23.156C93.4528 23.156 92.7368 22.852 92.1448 22.244C91.5528 21.628 91.2568 20.88 91.2568 20C91.2568 19.12 91.5528 18.376 92.1448 17.768C92.7368 17.152 93.4528 16.844 94.2928 16.844C95.2848 16.844 96.0408 17.24 96.5608 18.032V14.6ZM94.4248 22.148C95.0328 22.148 95.5408 21.944 95.9488 21.536C96.3568 21.12 96.5608 20.608 96.5608 20C96.5608 19.392 96.3568 18.884 95.9488 18.476C95.5408 18.06 95.0328 17.852 94.4248 17.852C93.8248 17.852 93.3208 18.06 92.9128 18.476C92.5048 18.884 92.3008 19.392 92.3008 20C92.3008 20.608 92.5048 21.12 92.9128 21.536C93.3208 21.944 93.8248 22.148 94.4248 22.148ZM103.411 21.944H107.311V23H102.295V14.6H107.251V15.656H103.411V18.236H106.951V19.28H103.411V21.944ZM111.241 23.156C110.337 23.156 109.585 22.856 108.985 22.256C108.385 21.648 108.085 20.896 108.085 20C108.085 19.104 108.385 18.356 108.985 17.756C109.585 17.148 110.337 16.844 111.241 16.844C111.833 16.844 112.365 16.988 112.837 17.276C113.309 17.556 113.661 17.936 113.893 18.416L113.017 18.92C112.865 18.6 112.629 18.344 112.309 18.152C111.997 17.96 111.641 17.864 111.241 17.864C110.641 17.864 110.137 18.068 109.729 18.476C109.329 18.884 109.129 19.392 109.129 20C109.129 20.6 109.329 21.104 109.729 21.512C110.137 21.92 110.641 22.124 111.241 22.124C111.641 22.124 112.001 22.032 112.321 21.848C112.641 21.656 112.885 21.4 113.053 21.08L113.941 21.596C113.685 22.068 113.317 22.448 112.837 22.736C112.357 23.016 111.825 23.156 111.241 23.156ZM117.96 16.844C118.664 16.844 119.228 17.068 119.652 17.516C120.076 17.956 120.288 18.556 120.288 19.316V23H119.244V19.376C119.244 18.888 119.112 18.512 118.848 18.248C118.584 17.976 118.22 17.84 117.756 17.84C117.236 17.84 116.816 18.004 116.496 18.332C116.176 18.652 116.016 19.148 116.016 19.82V23H114.972V14.6H116.016V17.864C116.44 17.184 117.088 16.844 117.96 16.844ZM126.809 22.244C126.193 22.852 125.445 23.156 124.565 23.156C123.685 23.156 122.937 22.852 122.321 22.244C121.713 21.636 121.409 20.888 121.409 20C121.409 19.112 121.713 18.364 122.321 17.756C122.937 17.148 123.685 16.844 124.565 16.844C125.445 16.844 126.193 17.148 126.809 17.756C127.425 18.364 127.733 19.112 127.733 20C127.733 20.888 127.425 21.636 126.809 22.244ZM124.565 22.136C125.165 22.136 125.669 21.932 126.077 21.524C126.485 21.116 126.689 20.608 126.689 20C126.689 19.392 126.485 18.884 126.077 18.476C125.669 18.068 125.165 17.864 124.565 17.864C123.973 17.864 123.473 18.068 123.065 18.476C122.657 18.884 122.453 19.392 122.453 20C122.453 20.608 122.657 21.116 123.065 21.524C123.473 21.932 123.973 22.136 124.565 22.136ZM136.908 15.656H133.188V18.38H136.752V19.436H133.188V23H132.072V14.6H136.908V15.656ZM143.215 22.244C142.599 22.852 141.851 23.156 140.971 23.156C140.091 23.156 139.343 22.852 138.727 22.244C138.119 21.636 137.815 20.888 137.815 20C137.815 19.112 138.119 18.364 138.727 17.756C139.343 17.148 140.091 16.844 140.971 16.844C141.851 16.844 142.599 17.148 143.215 17.756C143.831 18.364 144.139 19.112 144.139 20C144.139 20.888 143.831 21.636 143.215 22.244ZM140.971 22.136C141.571 22.136 142.075 21.932 142.483 21.524C142.891 21.116 143.095 20.608 143.095 20C143.095 19.392 142.891 18.884 142.483 18.476C142.075 18.068 141.571 17.864 140.971 17.864C140.379 17.864 139.879 18.068 139.471 18.476C139.063 18.884 138.859 19.392 138.859 20C138.859 20.608 139.063 21.116 139.471 21.524C139.879 21.932 140.379 22.136 140.971 22.136ZM146.414 18.008C146.758 17.264 147.382 16.892 148.286 16.892V17.984C147.774 17.96 147.334 18.096 146.966 18.392C146.598 18.688 146.414 19.164 146.414 19.82V23H145.37V17H146.414V18.008ZM149.712 20.48C149.816 21.016 150.06 21.432 150.444 21.728C150.836 22.024 151.316 22.172 151.884 22.172C152.676 22.172 153.252 21.88 153.612 21.296L154.5 21.8C153.916 22.704 153.036 23.156 151.86 23.156C150.908 23.156 150.132 22.86 149.532 22.268C148.94 21.668 148.644 20.912 148.644 20C148.644 19.096 148.936 18.344 149.52 17.744C150.104 17.144 150.86 16.844 151.788 16.844C152.668 16.844 153.384 17.156 153.936 17.78C154.496 18.396 154.776 19.14 154.776 20.012C154.776 20.164 154.764 20.32 154.74 20.48H149.712ZM151.788 17.828C151.228 17.828 150.764 17.988 150.396 18.308C150.028 18.62 149.8 19.04 149.712 19.568H153.72C153.632 19 153.408 18.568 153.048 18.272C152.688 17.976 152.268 17.828 151.788 17.828ZM156.641 18.62C156.641 18.852 156.757 19.04 156.989 19.184C157.221 19.32 157.501 19.432 157.829 19.52C158.157 19.6 158.485 19.696 158.813 19.808C159.141 19.912 159.421 20.096 159.653 20.36C159.885 20.616 160.001 20.948 160.001 21.356C160.001 21.9 159.789 22.336 159.365 22.664C158.949 22.992 158.413 23.156 157.757 23.156C157.173 23.156 156.673 23.028 156.257 22.772C155.841 22.516 155.545 22.176 155.369 21.752L156.269 21.236C156.365 21.524 156.545 21.752 156.809 21.92C157.073 22.088 157.389 22.172 157.757 22.172C158.101 22.172 158.385 22.108 158.609 21.98C158.833 21.844 158.945 21.636 158.945 21.356C158.945 21.124 158.829 20.94 158.597 20.804C158.365 20.66 158.085 20.548 157.757 20.468C157.429 20.38 157.101 20.28 156.773 20.168C156.445 20.056 156.165 19.872 155.933 19.616C155.701 19.36 155.585 19.032 155.585 18.632C155.585 18.112 155.785 17.684 156.185 17.348C156.593 17.012 157.101 16.844 157.709 16.844C158.197 16.844 158.629 16.956 159.005 17.18C159.389 17.396 159.677 17.7 159.869 18.092L158.993 18.584C158.777 18.072 158.349 17.816 157.709 17.816C157.413 17.816 157.161 17.888 156.953 18.032C156.745 18.168 156.641 18.364 156.641 18.62ZM164.267 18.008H162.671V21.26C162.671 21.556 162.727 21.768 162.839 21.896C162.959 22.016 163.139 22.08 163.379 22.088C163.619 22.088 163.915 22.08 164.267 22.064V23C163.355 23.12 162.687 23.048 162.263 22.784C161.839 22.512 161.627 22.004 161.627 21.26V18.008H160.439V17H161.627V15.632L162.671 15.32V17H164.267V18.008ZM173.866 14.6H174.982V23H174.082L169.762 16.724V23H168.646V14.6H169.546L173.866 20.864V14.6ZM181.615 15.656H177.895V18.38H181.459V19.436H177.895V23H176.779V14.6H181.615V15.656ZM188.342 14.6V15.656H185.858V23H184.754V15.656H182.282V14.6H188.342ZM195.159 23.156C194.255 23.156 193.503 22.856 192.903 22.256C192.303 21.648 192.003 20.896 192.003 20C192.003 19.104 192.303 18.356 192.903 17.756C193.503 17.148 194.255 16.844 195.159 16.844C195.751 16.844 196.283 16.988 196.755 17.276C197.227 17.556 197.579 17.936 197.811 18.416L196.935 18.92C196.783 18.6 196.547 18.344 196.227 18.152C195.915 17.96 195.559 17.864 195.159 17.864C194.559 17.864 194.055 18.068 193.647 18.476C193.247 18.884 193.047 19.392 193.047 20C193.047 20.6 193.247 21.104 193.647 21.512C194.055 21.92 194.559 22.124 195.159 22.124C195.559 22.124 195.919 22.032 196.239 21.848C196.559 21.656 196.803 21.4 196.971 21.08L197.859 21.596C197.603 22.068 197.235 22.448 196.755 22.736C196.275 23.016 195.743 23.156 195.159 23.156ZM203.872 22.244C203.256 22.852 202.508 23.156 201.628 23.156C200.748 23.156 200 22.852 199.384 22.244C198.776 21.636 198.472 20.888 198.472 20C198.472 19.112 198.776 18.364 199.384 17.756C200 17.148 200.748 16.844 201.628 16.844C202.508 16.844 203.256 17.148 203.872 17.756C204.488 18.364 204.796 19.112 204.796 20C204.796 20.888 204.488 21.636 203.872 22.244ZM201.628 22.136C202.228 22.136 202.732 21.932 203.14 21.524C203.548 21.116 203.752 20.608 203.752 20C203.752 19.392 203.548 18.884 203.14 18.476C202.732 18.068 202.228 17.864 201.628 17.864C201.036 17.864 200.536 18.068 200.128 18.476C199.72 18.884 199.516 19.392 199.516 20C199.516 20.608 199.72 21.116 200.128 21.524C200.536 21.932 201.036 22.136 201.628 22.136ZM206.026 23V14.24H207.07V23H206.026ZM208.663 23V14.24H209.707V23H208.663ZM212.032 20.48C212.136 21.016 212.38 21.432 212.764 21.728C213.156 22.024 213.636 22.172 214.204 22.172C214.996 22.172 215.572 21.88 215.932 21.296L216.82 21.8C216.236 22.704 215.356 23.156 214.18 23.156C213.228 23.156 212.452 22.86 211.852 22.268C211.26 21.668 210.964 20.912 210.964 20C210.964 19.096 211.256 18.344 211.84 17.744C212.424 17.144 213.18 16.844 214.108 16.844C214.988 16.844 215.704 17.156 216.256 17.78C216.816 18.396 217.096 19.14 217.096 20.012C217.096 20.164 217.084 20.32 217.06 20.48H212.032ZM214.108 17.828C213.548 17.828 213.084 17.988 212.716 18.308C212.348 18.62 212.12 19.04 212.032 19.568H216.04C215.952 19 215.728 18.568 215.368 18.272C215.008 17.976 214.588 17.828 214.108 17.828ZM221.104 23.156C220.2 23.156 219.448 22.856 218.848 22.256C218.248 21.648 217.948 20.896 217.948 20C217.948 19.104 218.248 18.356 218.848 17.756C219.448 17.148 220.2 16.844 221.104 16.844C221.696 16.844 222.228 16.988 222.7 17.276C223.172 17.556 223.524 17.936 223.756 18.416L222.88 18.92C222.728 18.6 222.492 18.344 222.172 18.152C221.86 17.96 221.504 17.864 221.104 17.864C220.504 17.864 220 18.068 219.592 18.476C219.192 18.884 218.992 19.392 218.992 20C218.992 20.6 219.192 21.104 219.592 21.512C220 21.92 220.504 22.124 221.104 22.124C221.504 22.124 221.864 22.032 222.184 21.848C222.504 21.656 222.748 21.4 222.916 21.08L223.804 21.596C223.548 22.068 223.18 22.448 222.7 22.736C222.22 23.016 221.688 23.156 221.104 23.156ZM228.099 18.008H226.503V21.26C226.503 21.556 226.559 21.768 226.671 21.896C226.791 22.016 226.971 22.08 227.211 22.088C227.451 22.088 227.747 22.08 228.099 22.064V23C227.187 23.12 226.519 23.048 226.095 22.784C225.671 22.512 225.459 22.004 225.459 21.26V18.008H224.271V17H225.459V15.632L226.503 15.32V17H228.099V18.008ZM229.863 15.908C229.663 15.908 229.495 15.84 229.359 15.704C229.223 15.568 229.155 15.404 229.155 15.212C229.155 15.02 229.223 14.856 229.359 14.72C229.495 14.576 229.663 14.504 229.863 14.504C230.055 14.504 230.219 14.576 230.355 14.72C230.491 14.856 230.559 15.02 230.559 15.212C230.559 15.404 230.491 15.568 230.355 15.704C230.219 15.84 230.055 15.908 229.863 15.908ZM229.335 23V17H230.379V23H229.335ZM237.036 22.244C236.42 22.852 235.672 23.156 234.792 23.156C233.912 23.156 233.164 22.852 232.548 22.244C231.94 21.636 231.636 20.888 231.636 20C231.636 19.112 231.94 18.364 232.548 17.756C233.164 17.148 233.912 16.844 234.792 16.844C235.672 16.844 236.42 17.148 237.036 17.756C237.652 18.364 237.96 19.112 237.96 20C237.96 20.888 237.652 21.636 237.036 22.244ZM234.792 22.136C235.392 22.136 235.896 21.932 236.304 21.524C236.712 21.116 236.916 20.608 236.916 20C236.916 19.392 236.712 18.884 236.304 18.476C235.896 18.068 235.392 17.864 234.792 17.864C234.2 17.864 233.7 18.068 233.292 18.476C232.884 18.884 232.68 19.392 232.68 20C232.68 20.608 232.884 21.116 233.292 21.524C233.7 21.932 234.2 22.136 234.792 22.136ZM242.178 16.844C242.882 16.844 243.446 17.068 243.87 17.516C244.294 17.956 244.506 18.556 244.506 19.316V23H243.462V19.376C243.462 18.888 243.33 18.512 243.066 18.248C242.802 17.976 242.438 17.84 241.974 17.84C241.454 17.84 241.034 18.004 240.714 18.332C240.394 18.652 240.234 19.148 240.234 19.82V23H239.19V17H240.234V17.864C240.658 17.184 241.306 16.844 242.178 16.844ZM53.86 35H54.952L53.092 41H52.024L50.62 36.56L49.216 41H48.148L46.288 35H47.38L48.7 39.56L50.116 35H51.124L52.54 39.572L53.86 35ZM56.5544 33.908C56.3544 33.908 56.1864 33.84 56.0504 33.704C55.9144 33.568 55.8464 33.404 55.8464 33.212C55.8464 33.02 55.9144 32.856 56.0504 32.72C56.1864 32.576 56.3544 32.504 56.5544 32.504C56.7464 32.504 56.9104 32.576 57.0464 32.72C57.1824 32.856 57.2504 33.02 57.2504 33.212C57.2504 33.404 57.1824 33.568 57.0464 33.704C56.9104 33.84 56.7464 33.908 56.5544 33.908ZM56.0264 41V35H57.0704V41H56.0264ZM61.9271 36.008H60.3311V39.26C60.3311 39.556 60.3871 39.768 60.4991 39.896C60.6191 40.016 60.7991 40.08 61.0391 40.088C61.2791 40.088 61.5751 40.08 61.9271 40.064V41C61.0151 41.12 60.3471 41.048 59.9231 40.784C59.4991 40.512 59.2871 40.004 59.2871 39.26V36.008H58.0991V35H59.2871V33.632L60.3311 33.32V35H61.9271V36.008ZM66.1511 34.844C66.8551 34.844 67.4191 35.068 67.8431 35.516C68.2671 35.956 68.4791 36.556 68.4791 37.316V41H67.4351V37.376C67.4351 36.888 67.3031 36.512 67.0391 36.248C66.7751 35.976 66.4111 35.84 65.9471 35.84C65.4271 35.84 65.0071 36.004 64.6871 36.332C64.3671 36.652 64.2071 37.148 64.2071 37.82V41H63.1631V32.6H64.2071V35.864C64.6311 35.184 65.2791 34.844 66.1511 34.844ZM78.0005 40.244C77.3845 40.852 76.6365 41.156 75.7565 41.156C74.8765 41.156 74.1285 40.852 73.5125 40.244C72.9045 39.636 72.6005 38.888 72.6005 38C72.6005 37.112 72.9045 36.364 73.5125 35.756C74.1285 35.148 74.8765 34.844 75.7565 34.844C76.6365 34.844 77.3845 35.148 78.0005 35.756C78.6165 36.364 78.9245 37.112 78.9245 38C78.9245 38.888 78.6165 39.636 78.0005 40.244ZM75.7565 40.136C76.3565 40.136 76.8605 39.932 77.2685 39.524C77.6765 39.116 77.8805 38.608 77.8805 38C77.8805 37.392 77.6765 36.884 77.2685 36.476C76.8605 36.068 76.3565 35.864 75.7565 35.864C75.1645 35.864 74.6645 36.068 74.2565 36.476C73.8485 36.884 73.6445 37.392 73.6445 38C73.6445 38.608 73.8485 39.116 74.2565 39.524C74.6645 39.932 75.1645 40.136 75.7565 40.136ZM84.1209 35H85.2489L82.8489 41H81.6249L79.2249 35H80.3529L82.2369 39.884L84.1209 35ZM86.6295 38.48C86.7335 39.016 86.9775 39.432 87.3615 39.728C87.7535 40.024 88.2335 40.172 88.8015 40.172C89.5935 40.172 90.1695 39.88 90.5295 39.296L91.4175 39.8C90.8335 40.704 89.9535 41.156 88.7775 41.156C87.8255 41.156 87.0495 40.86 86.4495 40.268C85.8575 39.668 85.5615 38.912 85.5615 38C85.5615 37.096 85.8535 36.344 86.4375 35.744C87.0215 35.144 87.7775 34.844 88.7055 34.844C89.5855 34.844 90.3015 35.156 90.8535 35.78C91.4135 36.396 91.6935 37.14 91.6935 38.012C91.6935 38.164 91.6815 38.32 91.6575 38.48H86.6295ZM88.7055 35.828C88.1455 35.828 87.6815 35.988 87.3135 36.308C86.9455 36.62 86.7175 37.04 86.6295 37.568H90.6375C90.5495 37 90.3255 36.568 89.9655 36.272C89.6055 35.976 89.1855 35.828 88.7055 35.828ZM93.9376 36.008C94.2816 35.264 94.9056 34.892 95.8096 34.892V35.984C95.2976 35.96 94.8576 36.096 94.4896 36.392C94.1216 36.688 93.9376 37.164 93.9376 37.82V41H92.8936V35H93.9376V36.008ZM102.279 35.876C103.071 35.876 103.739 36.112 104.283 36.584C104.835 37.048 105.111 37.692 105.111 38.516C105.111 39.332 104.831 39.976 104.271 40.448C103.711 40.92 103.031 41.156 102.231 41.156C101.591 41.156 101.019 41.004 100.515 40.7C100.011 40.388 99.6591 39.94 99.4591 39.356L100.407 38.816C100.519 39.224 100.735 39.536 101.055 39.752C101.375 39.96 101.767 40.064 102.231 40.064C102.759 40.064 103.187 39.928 103.515 39.656C103.843 39.384 104.007 39.004 104.007 38.516C104.007 38.028 103.843 37.648 103.515 37.376C103.187 37.096 102.767 36.956 102.255 36.956H99.8791L100.191 32.6H104.787V33.644H101.199L101.055 35.876H102.279ZM111.512 39.968C110.944 40.76 110.148 41.156 109.124 41.156C108.1 41.156 107.304 40.76 106.736 39.968C106.168 39.176 105.884 38.12 105.884 36.8C105.884 35.48 106.168 34.424 106.736 33.632C107.304 32.84 108.1 32.444 109.124 32.444C110.148 32.444 110.944 32.84 111.512 33.632C112.08 34.424 112.364 35.48 112.364 36.8C112.364 38.12 112.08 39.176 111.512 39.968ZM107.552 39.212C107.92 39.78 108.444 40.064 109.124 40.064C109.804 40.064 110.328 39.78 110.696 39.212C111.072 38.644 111.26 37.84 111.26 36.8C111.26 35.76 111.072 34.956 110.696 34.388C110.328 33.812 109.804 33.524 109.124 33.524C108.444 33.524 107.92 33.808 107.552 34.376C107.184 34.944 107 35.752 107 36.8C107 37.84 107.184 38.644 107.552 39.212ZM119.07 39.968C118.502 40.76 117.706 41.156 116.682 41.156C115.658 41.156 114.862 40.76 114.294 39.968C113.726 39.176 113.442 38.12 113.442 36.8C113.442 35.48 113.726 34.424 114.294 33.632C114.862 32.84 115.658 32.444 116.682 32.444C117.706 32.444 118.502 32.84 119.07 33.632C119.638 34.424 119.922 35.48 119.922 36.8C119.922 38.12 119.638 39.176 119.07 39.968ZM115.11 39.212C115.478 39.78 116.002 40.064 116.682 40.064C117.362 40.064 117.886 39.78 118.254 39.212C118.63 38.644 118.818 37.84 118.818 36.8C118.818 35.76 118.63 34.956 118.254 34.388C117.886 33.812 117.362 33.524 116.682 33.524C116.002 33.524 115.478 33.808 115.11 34.376C114.742 34.944 114.558 35.752 114.558 36.8C114.558 37.84 114.742 38.644 115.11 39.212ZM126.317 36.296V37.292H124.229V39.38H123.233V37.292H121.157V36.296H123.233V34.22H124.229V36.296H126.317ZM134.932 35H135.976V41H134.932V40.136C134.508 40.816 133.86 41.156 132.988 41.156C132.284 41.156 131.72 40.936 131.296 40.496C130.872 40.048 130.66 39.444 130.66 38.684V35H131.704V38.624C131.704 39.112 131.836 39.492 132.1 39.764C132.364 40.028 132.728 40.16 133.192 40.16C133.712 40.16 134.132 40 134.452 39.68C134.772 39.352 134.932 38.852 134.932 38.18V35ZM140.553 34.844C141.257 34.844 141.821 35.068 142.245 35.516C142.669 35.956 142.881 36.556 142.881 37.316V41H141.837V37.376C141.837 36.888 141.705 36.512 141.441 36.248C141.177 35.976 140.813 35.84 140.349 35.84C139.829 35.84 139.409 36.004 139.089 36.332C138.769 36.652 138.609 37.148 138.609 37.82V41H137.565V35H138.609V35.864C139.033 35.184 139.681 34.844 140.553 34.844ZM144.867 33.908C144.667 33.908 144.499 33.84 144.363 33.704C144.227 33.568 144.159 33.404 144.159 33.212C144.159 33.02 144.227 32.856 144.363 32.72C144.499 32.576 144.667 32.504 144.867 32.504C145.059 32.504 145.223 32.576 145.359 32.72C145.495 32.856 145.563 33.02 145.563 33.212C145.563 33.404 145.495 33.568 145.359 33.704C145.223 33.84 145.059 33.908 144.867 33.908ZM144.339 41V35H145.383V41H144.339ZM151.944 35H152.988V43.4H151.944V39.968C151.424 40.76 150.668 41.156 149.676 41.156C148.836 41.156 148.12 40.852 147.528 40.244C146.936 39.628 146.64 38.88 146.64 38C146.64 37.12 146.936 36.376 147.528 35.768C148.12 35.152 148.836 34.844 149.676 34.844C150.668 34.844 151.424 35.24 151.944 36.032V35ZM149.808 40.148C150.416 40.148 150.924 39.944 151.332 39.536C151.74 39.12 151.944 38.608 151.944 38C151.944 37.392 151.74 36.884 151.332 36.476C150.924 36.06 150.416 35.852 149.808 35.852C149.208 35.852 148.704 36.06 148.296 36.476C147.888 36.884 147.684 37.392 147.684 38C147.684 38.608 147.888 39.12 148.296 39.536C148.704 39.944 149.208 40.148 149.808 40.148ZM158.709 35H159.753V41H158.709V40.136C158.285 40.816 157.637 41.156 156.765 41.156C156.061 41.156 155.497 40.936 155.073 40.496C154.649 40.048 154.437 39.444 154.437 38.684V35H155.481V38.624C155.481 39.112 155.613 39.492 155.877 39.764C156.141 40.028 156.505 40.16 156.969 40.16C157.489 40.16 157.909 40 158.229 39.68C158.549 39.352 158.709 38.852 158.709 38.18V35ZM162.075 38.48C162.179 39.016 162.423 39.432 162.807 39.728C163.199 40.024 163.679 40.172 164.247 40.172C165.039 40.172 165.615 39.88 165.975 39.296L166.863 39.8C166.279 40.704 165.399 41.156 164.223 41.156C163.271 41.156 162.495 40.86 161.895 40.268C161.303 39.668 161.007 38.912 161.007 38C161.007 37.096 161.299 36.344 161.883 35.744C162.467 35.144 163.223 34.844 164.151 34.844C165.031 34.844 165.747 35.156 166.299 35.78C166.859 36.396 167.139 37.14 167.139 38.012C167.139 38.164 167.127 38.32 167.103 38.48H162.075ZM164.151 35.828C163.591 35.828 163.127 35.988 162.759 36.308C162.391 36.62 162.163 37.04 162.075 37.568H166.083C165.995 37 165.771 36.568 165.411 36.272C165.051 35.976 164.631 35.828 164.151 35.828ZM176.307 35H177.351V41H176.307V39.968C175.787 40.76 175.031 41.156 174.039 41.156C173.199 41.156 172.483 40.852 171.891 40.244C171.299 39.628 171.003 38.88 171.003 38C171.003 37.12 171.299 36.376 171.891 35.768C172.483 35.152 173.199 34.844 174.039 34.844C175.031 34.844 175.787 35.24 176.307 36.032V35ZM174.171 40.148C174.779 40.148 175.287 39.944 175.695 39.536C176.103 39.12 176.307 38.608 176.307 38C176.307 37.392 176.103 36.884 175.695 36.476C175.287 36.06 174.779 35.852 174.171 35.852C173.571 35.852 173.067 36.06 172.659 36.476C172.251 36.884 172.047 37.392 172.047 38C172.047 38.608 172.251 39.12 172.659 39.536C173.067 39.944 173.571 40.148 174.171 40.148ZM182.197 36.008H180.601V39.26C180.601 39.556 180.657 39.768 180.769 39.896C180.889 40.016 181.069 40.08 181.309 40.088C181.549 40.088 181.845 40.08 182.197 40.064V41C181.285 41.12 180.617 41.048 180.193 40.784C179.769 40.512 179.557 40.004 179.557 39.26V36.008H178.369V35H179.557V33.632L180.601 33.32V35H182.197V36.008ZM186.38 36.008H184.784V39.26C184.784 39.556 184.84 39.768 184.952 39.896C185.072 40.016 185.252 40.08 185.492 40.088C185.732 40.088 186.028 40.08 186.38 40.064V41C185.468 41.12 184.8 41.048 184.376 40.784C183.952 40.512 183.74 40.004 183.74 39.26V36.008H182.552V35H183.74V33.632L184.784 33.32V35H186.38V36.008ZM188.695 36.008C189.039 35.264 189.663 34.892 190.567 34.892V35.984C190.055 35.96 189.615 36.096 189.247 36.392C188.879 36.688 188.695 37.164 188.695 37.82V41H187.651V35H188.695V36.008ZM192.117 33.908C191.917 33.908 191.749 33.84 191.613 33.704C191.477 33.568 191.409 33.404 191.409 33.212C191.409 33.02 191.477 32.856 191.613 32.72C191.749 32.576 191.917 32.504 192.117 32.504C192.309 32.504 192.473 32.576 192.609 32.72C192.745 32.856 192.813 33.02 192.813 33.212C192.813 33.404 192.745 33.568 192.609 33.704C192.473 33.84 192.309 33.908 192.117 33.908ZM191.589 41V35H192.633V41H191.589ZM197.538 34.844C198.378 34.844 199.094 35.152 199.686 35.768C200.278 36.376 200.574 37.12 200.574 38C200.574 38.88 200.278 39.628 199.686 40.244C199.094 40.852 198.378 41.156 197.538 41.156C196.546 41.156 195.79 40.76 195.27 39.968V41H194.226V32.6H195.27V36.032C195.79 35.24 196.546 34.844 197.538 34.844ZM197.406 40.148C198.006 40.148 198.51 39.944 198.918 39.536C199.326 39.12 199.53 38.608 199.53 38C199.53 37.392 199.326 36.884 198.918 36.476C198.51 36.06 198.006 35.852 197.406 35.852C196.798 35.852 196.29 36.06 195.882 36.476C195.474 36.884 195.27 37.392 195.27 38C195.27 38.608 195.474 39.12 195.882 39.536C196.29 39.944 196.798 40.148 197.406 40.148ZM205.959 35H207.003V41H205.959V40.136C205.535 40.816 204.887 41.156 204.015 41.156C203.311 41.156 202.747 40.936 202.323 40.496C201.899 40.048 201.687 39.444 201.687 38.684V35H202.731V38.624C202.731 39.112 202.863 39.492 203.127 39.764C203.391 40.028 203.755 40.16 204.219 40.16C204.739 40.16 205.159 40 205.479 39.68C205.799 39.352 205.959 38.852 205.959 38.18V35ZM211.857 36.008H210.261V39.26C210.261 39.556 210.317 39.768 210.429 39.896C210.549 40.016 210.729 40.08 210.969 40.088C211.209 40.088 211.505 40.08 211.857 40.064V41C210.945 41.12 210.277 41.048 209.853 40.784C209.429 40.512 209.217 40.004 209.217 39.26V36.008H208.029V35H209.217V33.632L210.261 33.32V35H211.857V36.008ZM213.52 38.48C213.624 39.016 213.868 39.432 214.252 39.728C214.644 40.024 215.124 40.172 215.692 40.172C216.484 40.172 217.06 39.88 217.42 39.296L218.308 39.8C217.724 40.704 216.844 41.156 215.668 41.156C214.716 41.156 213.94 40.86 213.34 40.268C212.748 39.668 212.452 38.912 212.452 38C212.452 37.096 212.744 36.344 213.328 35.744C213.912 35.144 214.668 34.844 215.596 34.844C216.476 34.844 217.192 35.156 217.744 35.78C218.304 36.396 218.584 37.14 218.584 38.012C218.584 38.164 218.572 38.32 218.548 38.48H213.52ZM215.596 35.828C215.036 35.828 214.572 35.988 214.204 36.308C213.836 36.62 213.608 37.04 213.52 37.568H217.528C217.44 37 217.216 36.568 216.856 36.272C216.496 35.976 216.076 35.828 215.596 35.828ZM220.45 36.62C220.45 36.852 220.566 37.04 220.798 37.184C221.03 37.32 221.31 37.432 221.638 37.52C221.966 37.6 222.294 37.696 222.622 37.808C222.95 37.912 223.23 38.096 223.462 38.36C223.694 38.616 223.81 38.948 223.81 39.356C223.81 39.9 223.598 40.336 223.174 40.664C222.758 40.992 222.222 41.156 221.566 41.156C220.982 41.156 220.482 41.028 220.066 40.772C219.65 40.516 219.354 40.176 219.178 39.752L220.078 39.236C220.174 39.524 220.354 39.752 220.618 39.92C220.882 40.088 221.198 40.172 221.566 40.172C221.91 40.172 222.194 40.108 222.418 39.98C222.642 39.844 222.754 39.636 222.754 39.356C222.754 39.124 222.638 38.94 222.406 38.804C222.174 38.66 221.894 38.548 221.566 38.468C221.238 38.38 220.91 38.28 220.582 38.168C220.254 38.056 219.974 37.872 219.742 37.616C219.51 37.36 219.394 37.032 219.394 36.632C219.394 36.112 219.594 35.684 219.994 35.348C220.402 35.012 220.91 34.844 221.518 34.844C222.006 34.844 222.438 34.956 222.814 35.18C223.198 35.396 223.486 35.7 223.678 36.092L222.802 36.584C222.586 36.072 222.158 35.816 221.518 35.816C221.222 35.816 220.97 35.888 220.762 36.032C220.554 36.168 220.45 36.364 220.45 36.62ZM225.31 38.54L225.082 35V32.6H226.342V35L226.114 38.54H225.31ZM225.706 41.132C225.49 41.132 225.306 41.056 225.154 40.904C225.002 40.752 224.926 40.568 224.926 40.352C224.926 40.136 225.002 39.952 225.154 39.8C225.306 39.648 225.49 39.572 225.706 39.572C225.93 39.572 226.114 39.648 226.258 39.8C226.41 39.952 226.486 40.136 226.486 40.352C226.486 40.568 226.41 40.752 226.258 40.904C226.114 41.056 225.93 41.132 225.706 41.132Z" fill="#1A1A1A"/>
<path d="M37.9581 62.748C37.7021 63.012 37.3861 63.144 37.0101 63.144C36.6341 63.144 36.3141 63.012 36.0501 62.748C35.7861 62.484 35.6541 62.164 35.6541 61.788C35.6541 61.412 35.7861 61.096 36.0501 60.84C36.3141 60.576 36.6341 60.444 37.0101 60.444C37.3861 60.444 37.7021 60.576 37.9581 60.84C38.2221 61.096 38.3541 61.412 38.3541 61.788C38.3541 62.164 38.2221 62.484 37.9581 62.748ZM54.76 57.6V66H53.656V59.436L50.908 64.008H50.764L48.016 59.448V66H46.9V57.6H48.16L50.836 62.04L53.5 57.6H54.76ZM56.9763 58.908C56.7763 58.908 56.6083 58.84 56.4723 58.704C56.3363 58.568 56.2683 58.404 56.2683 58.212C56.2683 58.02 56.3363 57.856 56.4723 57.72C56.6083 57.576 56.7763 57.504 56.9763 57.504C57.1683 57.504 57.3323 57.576 57.4683 57.72C57.6043 57.856 57.6723 58.02 57.6723 58.212C57.6723 58.404 57.6043 58.568 57.4683 58.704C57.3323 58.84 57.1683 58.908 56.9763 58.908ZM56.4482 66V60H57.4923V66H56.4482ZM62.073 59.844C62.777 59.844 63.341 60.068 63.765 60.516C64.189 60.956 64.401 61.556 64.401 62.316V66H63.357V62.376C63.357 61.888 63.225 61.512 62.961 61.248C62.697 60.976 62.333 60.84 61.869 60.84C61.349 60.84 60.929 61.004 60.609 61.332C60.289 61.652 60.129 62.148 60.129 62.82V66H59.085V60H60.129V60.864C60.553 60.184 61.201 59.844 62.073 59.844ZM69.1224 61.008H67.5264V64.26C67.5264 64.556 67.5824 64.768 67.6944 64.896C67.8144 65.016 67.9944 65.08 68.2344 65.088C68.4744 65.088 68.7704 65.08 69.1224 65.064V66C68.2104 66.12 67.5424 66.048 67.1184 65.784C66.6944 65.512 66.4824 65.004 66.4824 64.26V61.008H65.2944V60H66.4824V58.632L67.5264 58.32V60H69.1224V61.008ZM70.7857 63.48C70.8897 64.016 71.1337 64.432 71.5177 64.728C71.9097 65.024 72.3897 65.172 72.9577 65.172C73.7497 65.172 74.3257 64.88 74.6857 64.296L75.5737 64.8C74.9897 65.704 74.1097 66.156 72.9337 66.156C71.9817 66.156 71.2057 65.86 70.6057 65.268C70.0137 64.668 69.7177 63.912 69.7177 63C69.7177 62.096 70.0097 61.344 70.5937 60.744C71.1777 60.144 71.9337 59.844 72.8617 59.844C73.7417 59.844 74.4577 60.156 75.0097 60.78C75.5697 61.396 75.8497 62.14 75.8497 63.012C75.8497 63.164 75.8377 63.32 75.8137 63.48H70.7857ZM72.8617 60.828C72.3017 60.828 71.8377 60.988 71.4697 61.308C71.1017 61.62 70.8737 62.04 70.7857 62.568H74.7937C74.7057 62 74.4817 61.568 74.1217 61.272C73.7617 60.976 73.3417 60.828 72.8617 60.828ZM82.0061 57.6H83.0501V66H82.0061V64.968C81.4861 65.76 80.7301 66.156 79.7381 66.156C78.8981 66.156 78.1821 65.852 77.5901 65.244C76.9981 64.628 76.7021 63.88 76.7021 63C76.7021 62.12 76.9981 61.376 77.5901 60.768C78.1821 60.152 78.8981 59.844 79.7381 59.844C80.7301 59.844 81.4861 60.24 82.0061 61.032V57.6ZM79.8701 65.148C80.4781 65.148 80.9861 64.944 81.3941 64.536C81.8021 64.12 82.0061 63.608 82.0061 63C82.0061 62.392 81.8021 61.884 81.3941 61.476C80.9861 61.06 80.4781 60.852 79.8701 60.852C79.2701 60.852 78.7661 61.06 78.3581 61.476C77.9501 61.884 77.7461 62.392 77.7461 63C77.7461 63.608 77.9501 64.12 78.3581 64.536C78.7661 64.944 79.2701 65.148 79.8701 65.148ZM90.8958 61.008H89.2998V64.26C89.2998 64.556 89.3558 64.768 89.4678 64.896C89.5878 65.016 89.7678 65.08 90.0078 65.088C90.2478 65.088 90.5438 65.08 90.8958 65.064V66C89.9838 66.12 89.3158 66.048 88.8918 65.784C88.4678 65.512 88.2558 65.004 88.2558 64.26V61.008H87.0678V60H88.2558V58.632L89.2998 58.32V60H90.8958V61.008ZM95.1198 59.844C95.8238 59.844 96.3878 60.068 96.8118 60.516C97.2358 60.956 97.4478 61.556 97.4478 62.316V66H96.4038V62.376C96.4038 61.888 96.2718 61.512 96.0078 61.248C95.7438 60.976 95.3798 60.84 94.9158 60.84C94.3958 60.84 93.9758 61.004 93.6558 61.332C93.3358 61.652 93.1758 62.148 93.1758 62.82V66H92.1318V57.6H93.1758V60.864C93.5998 60.184 94.2478 59.844 95.1198 59.844ZM99.6373 63.48C99.7413 64.016 99.9853 64.432 100.369 64.728C100.761 65.024 101.241 65.172 101.809 65.172C102.601 65.172 103.177 64.88 103.537 64.296L104.425 64.8C103.841 65.704 102.961 66.156 101.785 66.156C100.833 66.156 100.057 65.86 99.4573 65.268C98.8653 64.668 98.5693 63.912 98.5693 63C98.5693 62.096 98.8613 61.344 99.4453 60.744C100.029 60.144 100.785 59.844 101.713 59.844C102.593 59.844 103.309 60.156 103.861 60.78C104.421 61.396 104.701 62.14 104.701 63.012C104.701 63.164 104.689 63.32 104.665 63.48H99.6373ZM101.713 60.828C101.153 60.828 100.689 60.988 100.321 61.308C99.9533 61.62 99.7253 62.04 99.6373 62.568H103.645C103.557 62 103.333 61.568 102.973 61.272C102.613 60.976 102.193 60.828 101.713 60.828ZM113.881 60H114.913V65.748C114.913 66.636 114.613 67.324 114.013 67.812C113.413 68.308 112.693 68.556 111.853 68.556C111.181 68.556 110.601 68.428 110.113 68.172C109.625 67.924 109.257 67.564 109.009 67.092L109.921 66.576C110.249 67.248 110.901 67.584 111.877 67.584C112.501 67.584 112.989 67.42 113.341 67.092C113.701 66.764 113.881 66.316 113.881 65.748V64.896C113.353 65.696 112.601 66.096 111.625 66.096C110.769 66.096 110.045 65.792 109.453 65.184C108.861 64.576 108.565 63.836 108.565 62.964C108.565 62.092 108.861 61.356 109.453 60.756C110.045 60.148 110.769 59.844 111.625 59.844C112.609 59.844 113.361 60.24 113.881 61.032V60ZM110.221 64.488C110.629 64.896 111.137 65.1 111.745 65.1C112.353 65.1 112.861 64.896 113.269 64.488C113.677 64.08 113.881 63.572 113.881 62.964C113.881 62.364 113.677 61.86 113.269 61.452C112.861 61.044 112.353 60.84 111.745 60.84C111.137 60.84 110.629 61.044 110.221 61.452C109.813 61.86 109.609 62.364 109.609 62.964C109.609 63.572 109.813 64.08 110.221 64.488ZM117.227 63.48C117.331 64.016 117.575 64.432 117.959 64.728C118.351 65.024 118.831 65.172 119.399 65.172C120.191 65.172 120.767 64.88 121.127 64.296L122.015 64.8C121.431 65.704 120.551 66.156 119.375 66.156C118.423 66.156 117.647 65.86 117.047 65.268C116.455 64.668 116.159 63.912 116.159 63C116.159 62.096 116.451 61.344 117.035 60.744C117.619 60.144 118.375 59.844 119.303 59.844C120.183 59.844 120.899 60.156 121.451 60.78C122.011 61.396 122.291 62.14 122.291 63.012C122.291 63.164 122.279 63.32 122.255 63.48H117.227ZM119.303 60.828C118.743 60.828 118.279 60.988 117.911 61.308C117.543 61.62 117.315 62.04 117.227 62.568H121.235C121.147 62 120.923 61.568 120.563 61.272C120.203 60.976 119.783 60.828 119.303 60.828ZM126.479 59.844C127.183 59.844 127.747 60.068 128.171 60.516C128.595 60.956 128.807 61.556 128.807 62.316V66H127.763V62.376C127.763 61.888 127.631 61.512 127.367 61.248C127.103 60.976 126.739 60.84 126.275 60.84C125.755 60.84 125.335 61.004 125.015 61.332C124.695 61.652 124.535 62.148 124.535 62.82V66H123.491V60H124.535V60.864C124.959 60.184 125.607 59.844 126.479 59.844ZM130.997 63.48C131.101 64.016 131.345 64.432 131.729 64.728C132.121 65.024 132.601 65.172 133.169 65.172C133.961 65.172 134.537 64.88 134.897 64.296L135.785 64.8C135.201 65.704 134.321 66.156 133.145 66.156C132.193 66.156 131.417 65.86 130.817 65.268C130.225 64.668 129.929 63.912 129.929 63C129.929 62.096 130.221 61.344 130.805 60.744C131.389 60.144 132.145 59.844 133.073 59.844C133.953 59.844 134.669 60.156 135.221 60.78C135.781 61.396 136.061 62.14 136.061 63.012C136.061 63.164 136.049 63.32 136.025 63.48H130.997ZM133.073 60.828C132.513 60.828 132.049 60.988 131.681 61.308C131.313 61.62 131.085 62.04 130.997 62.568H135.005C134.917 62 134.693 61.568 134.333 61.272C133.973 60.976 133.553 60.828 133.073 60.828ZM137.926 61.62C137.926 61.852 138.042 62.04 138.274 62.184C138.506 62.32 138.786 62.432 139.114 62.52C139.442 62.6 139.77 62.696 140.098 62.808C140.426 62.912 140.706 63.096 140.938 63.36C141.17 63.616 141.286 63.948 141.286 64.356C141.286 64.9 141.074 65.336 140.65 65.664C140.234 65.992 139.698 66.156 139.042 66.156C138.458 66.156 137.958 66.028 137.542 65.772C137.126 65.516 136.83 65.176 136.654 64.752L137.554 64.236C137.65 64.524 137.83 64.752 138.094 64.92C138.358 65.088 138.674 65.172 139.042 65.172C139.386 65.172 139.67 65.108 139.894 64.98C140.118 64.844 140.23 64.636 140.23 64.356C140.23 64.124 140.114 63.94 139.882 63.804C139.65 63.66 139.37 63.548 139.042 63.468C138.714 63.38 138.386 63.28 138.058 63.168C137.73 63.056 137.45 62.872 137.218 62.616C136.986 62.36 136.87 62.032 136.87 61.632C136.87 61.112 137.07 60.684 137.47 60.348C137.878 60.012 138.386 59.844 138.994 59.844C139.482 59.844 139.914 59.956 140.29 60.18C140.674 60.396 140.962 60.7 141.154 61.092L140.278 61.584C140.062 61.072 139.634 60.816 138.994 60.816C138.698 60.816 138.446 60.888 138.238 61.032C138.03 61.168 137.926 61.364 137.926 61.62ZM142.992 58.908C142.792 58.908 142.624 58.84 142.488 58.704C142.352 58.568 142.284 58.404 142.284 58.212C142.284 58.02 142.352 57.856 142.488 57.72C142.624 57.576 142.792 57.504 142.992 57.504C143.184 57.504 143.348 57.576 143.484 57.72C143.62 57.856 143.688 58.02 143.688 58.212C143.688 58.404 143.62 58.568 143.484 58.704C143.348 58.84 143.184 58.908 142.992 58.908ZM142.464 66V60H143.508V66H142.464ZM145.989 61.62C145.989 61.852 146.105 62.04 146.337 62.184C146.569 62.32 146.849 62.432 147.177 62.52C147.505 62.6 147.833 62.696 148.161 62.808C148.489 62.912 148.769 63.096 149.001 63.36C149.233 63.616 149.349 63.948 149.349 64.356C149.349 64.9 149.137 65.336 148.713 65.664C148.297 65.992 147.761 66.156 147.105 66.156C146.521 66.156 146.021 66.028 145.605 65.772C145.189 65.516 144.893 65.176 144.717 64.752L145.617 64.236C145.713 64.524 145.893 64.752 146.157 64.92C146.421 65.088 146.737 65.172 147.105 65.172C147.449 65.172 147.733 65.108 147.957 64.98C148.181 64.844 148.293 64.636 148.293 64.356C148.293 64.124 148.177 63.94 147.945 63.804C147.713 63.66 147.433 63.548 147.105 63.468C146.777 63.38 146.449 63.28 146.121 63.168C145.793 63.056 145.513 62.872 145.281 62.616C145.049 62.36 144.933 62.032 144.933 61.632C144.933 61.112 145.133 60.684 145.533 60.348C145.941 60.012 146.449 59.844 147.057 59.844C147.545 59.844 147.977 59.956 148.353 60.18C148.737 60.396 149.025 60.7 149.217 61.092L148.341 61.584C148.125 61.072 147.697 60.816 147.057 60.816C146.761 60.816 146.509 60.888 146.301 61.032C146.093 61.168 145.989 61.364 145.989 61.62ZM154.809 64.944H158.709V66H153.693V57.6H158.649V58.656H154.809V61.236H158.349V62.28H154.809V64.944ZM162.639 66.156C161.735 66.156 160.983 65.856 160.383 65.256C159.783 64.648 159.483 63.896 159.483 63C159.483 62.104 159.783 61.356 160.383 60.756C160.983 60.148 161.735 59.844 162.639 59.844C163.231 59.844 163.763 59.988 164.235 60.276C164.707 60.556 165.059 60.936 165.291 61.416L164.415 61.92C164.263 61.6 164.027 61.344 163.707 61.152C163.395 60.96 163.039 60.864 162.639 60.864C162.039 60.864 161.535 61.068 161.127 61.476C160.727 61.884 160.527 62.392 160.527 63C160.527 63.6 160.727 64.104 161.127 64.512C161.535 64.92 162.039 65.124 162.639 65.124C163.039 65.124 163.399 65.032 163.719 64.848C164.039 64.656 164.283 64.4 164.451 64.08L165.339 64.596C165.083 65.068 164.715 65.448 164.235 65.736C163.755 66.016 163.223 66.156 162.639 66.156ZM169.358 59.844C170.062 59.844 170.626 60.068 171.05 60.516C171.474 60.956 171.686 61.556 171.686 62.316V66H170.642V62.376C170.642 61.888 170.51 61.512 170.246 61.248C169.982 60.976 169.618 60.84 169.154 60.84C168.634 60.84 168.214 61.004 167.894 61.332C167.574 61.652 167.414 62.148 167.414 62.82V66H166.37V57.6H167.414V60.864C167.838 60.184 168.486 59.844 169.358 59.844ZM178.208 65.244C177.592 65.852 176.844 66.156 175.964 66.156C175.084 66.156 174.336 65.852 173.72 65.244C173.112 64.636 172.808 63.888 172.808 63C172.808 62.112 173.112 61.364 173.72 60.756C174.336 60.148 175.084 59.844 175.964 59.844C176.844 59.844 177.592 60.148 178.208 60.756C178.824 61.364 179.132 62.112 179.132 63C179.132 63.888 178.824 64.636 178.208 65.244ZM175.964 65.136C176.564 65.136 177.068 64.932 177.476 64.524C177.884 64.116 178.088 63.608 178.088 63C178.088 62.392 177.884 61.884 177.476 61.476C177.068 61.068 176.564 60.864 175.964 60.864C175.372 60.864 174.872 61.068 174.464 61.476C174.056 61.884 173.852 62.392 173.852 63C173.852 63.608 174.056 64.116 174.464 64.524C174.872 64.932 175.372 65.136 175.964 65.136ZM188.306 58.656H184.586V61.38H188.15V62.436H184.586V66H183.47V57.6H188.306V58.656ZM194.614 65.244C193.998 65.852 193.25 66.156 192.37 66.156C191.49 66.156 190.742 65.852 190.126 65.244C189.518 64.636 189.214 63.888 189.214 63C189.214 62.112 189.518 61.364 190.126 60.756C190.742 60.148 191.49 59.844 192.37 59.844C193.25 59.844 193.998 60.148 194.614 60.756C195.23 61.364 195.538 62.112 195.538 63C195.538 63.888 195.23 64.636 194.614 65.244ZM192.37 65.136C192.97 65.136 193.474 64.932 193.882 64.524C194.29 64.116 194.494 63.608 194.494 63C194.494 62.392 194.29 61.884 193.882 61.476C193.474 61.068 192.97 60.864 192.37 60.864C191.778 60.864 191.278 61.068 190.87 61.476C190.462 61.884 190.258 62.392 190.258 63C190.258 63.608 190.462 64.116 190.87 64.524C191.278 64.932 191.778 65.136 192.37 65.136ZM197.813 61.008C198.157 60.264 198.781 59.892 199.685 59.892V60.984C199.173 60.96 198.733 61.096 198.365 61.392C197.997 61.688 197.813 62.164 197.813 62.82V66H196.769V60H197.813V61.008ZM201.11 63.48C201.214 64.016 201.458 64.432 201.842 64.728C202.234 65.024 202.714 65.172 203.282 65.172C204.074 65.172 204.65 64.88 205.01 64.296L205.898 64.8C205.314 65.704 204.434 66.156 203.258 66.156C202.306 66.156 201.53 65.86 200.93 65.268C200.338 64.668 200.042 63.912 200.042 63C200.042 62.096 200.334 61.344 200.918 60.744C201.502 60.144 202.258 59.844 203.186 59.844C204.066 59.844 204.782 60.156 205.334 60.78C205.894 61.396 206.174 62.14 206.174 63.012C206.174 63.164 206.162 63.32 206.138 63.48H201.11ZM203.186 60.828C202.626 60.828 202.162 60.988 201.794 61.308C201.426 61.62 201.198 62.04 201.11 62.568H205.118C205.03 62 204.806 61.568 204.446 61.272C204.086 60.976 203.666 60.828 203.186 60.828ZM208.04 61.62C208.04 61.852 208.156 62.04 208.388 62.184C208.62 62.32 208.9 62.432 209.228 62.52C209.556 62.6 209.884 62.696 210.212 62.808C210.54 62.912 210.82 63.096 211.052 63.36C211.284 63.616 211.4 63.948 211.4 64.356C211.4 64.9 211.188 65.336 210.764 65.664C210.348 65.992 209.812 66.156 209.156 66.156C208.572 66.156 208.072 66.028 207.656 65.772C207.24 65.516 206.944 65.176 206.768 64.752L207.668 64.236C207.764 64.524 207.944 64.752 208.208 64.92C208.472 65.088 208.788 65.172 209.156 65.172C209.5 65.172 209.784 65.108 210.008 64.98C210.232 64.844 210.344 64.636 210.344 64.356C210.344 64.124 210.228 63.94 209.996 63.804C209.764 63.66 209.484 63.548 209.156 63.468C208.828 63.38 208.5 63.28 208.172 63.168C207.844 63.056 207.564 62.872 207.332 62.616C207.1 62.36 206.984 62.032 206.984 61.632C206.984 61.112 207.184 60.684 207.584 60.348C207.992 60.012 208.5 59.844 209.108 59.844C209.596 59.844 210.028 59.956 210.404 60.18C210.788 60.396 211.076 60.7 211.268 61.092L210.392 61.584C210.176 61.072 209.748 60.816 209.108 60.816C208.812 60.816 208.56 60.888 208.352 61.032C208.144 61.168 208.04 61.364 208.04 61.62ZM215.665 61.008H214.069V64.26C214.069 64.556 214.125 64.768 214.237 64.896C214.357 65.016 214.537 65.08 214.777 65.088C215.017 65.088 215.313 65.08 215.665 65.064V66C214.753 66.12 214.085 66.048 213.661 65.784C213.237 65.512 213.025 65.004 213.025 64.26V61.008H211.837V60H213.025V58.632L214.069 58.32V60H215.665V61.008ZM49.612 84.156C48.708 84.156 47.956 83.856 47.356 83.256C46.756 82.648 46.456 81.896 46.456 81C46.456 80.104 46.756 79.356 47.356 78.756C47.956 78.148 48.708 77.844 49.612 77.844C50.204 77.844 50.736 77.988 51.208 78.276C51.68 78.556 52.032 78.936 52.264 79.416L51.388 79.92C51.236 79.6 51 79.344 50.68 79.152C50.368 78.96 50.012 78.864 49.612 78.864C49.012 78.864 48.508 79.068 48.1 79.476C47.7 79.884 47.5 80.392 47.5 81C47.5 81.6 47.7 82.104 48.1 82.512C48.508 82.92 49.012 83.124 49.612 83.124C50.012 83.124 50.372 83.032 50.692 82.848C51.012 82.656 51.256 82.4 51.424 82.08L52.312 82.596C52.056 83.068 51.688 83.448 51.208 83.736C50.728 84.016 50.196 84.156 49.612 84.156ZM58.3248 83.244C57.7088 83.852 56.9608 84.156 56.0808 84.156C55.2008 84.156 54.4528 83.852 53.8368 83.244C53.2288 82.636 52.9248 81.888 52.9248 81C52.9248 80.112 53.2288 79.364 53.8368 78.756C54.4528 78.148 55.2008 77.844 56.0808 77.844C56.9608 77.844 57.7088 78.148 58.3248 78.756C58.9408 79.364 59.2487 80.112 59.2487 81C59.2487 81.888 58.9408 82.636 58.3248 83.244ZM56.0808 83.136C56.6808 83.136 57.1848 82.932 57.5928 82.524C58.0008 82.116 58.2048 81.608 58.2048 81C58.2048 80.392 58.0008 79.884 57.5928 79.476C57.1848 79.068 56.6808 78.864 56.0808 78.864C55.4888 78.864 54.9888 79.068 54.5808 79.476C54.1728 79.884 53.9688 80.392 53.9688 81C53.9688 81.608 54.1728 82.116 54.5808 82.524C54.9888 82.932 55.4888 83.136 56.0808 83.136ZM60.4795 84V75.24H61.5235V84H60.4795ZM63.1162 84V75.24H64.1602V84H63.1162ZM66.4849 81.48C66.5889 82.016 66.8329 82.432 67.2169 82.728C67.6089 83.024 68.0889 83.172 68.6569 83.172C69.4489 83.172 70.0249 82.88 70.3849 82.296L71.2729 82.8C70.6889 83.704 69.8089 84.156 68.6329 84.156C67.6809 84.156 66.9049 83.86 66.3049 83.268C65.7129 82.668 65.4169 81.912 65.4169 81C65.4169 80.096 65.7089 79.344 66.2929 78.744C66.8769 78.144 67.6329 77.844 68.5609 77.844C69.4409 77.844 70.1569 78.156 70.7089 78.78C71.2689 79.396 71.5489 80.14 71.5489 81.012C71.5489 81.164 71.5369 81.32 71.5129 81.48H66.4849ZM68.5609 78.828C68.0009 78.828 67.5369 78.988 67.1689 79.308C66.8009 79.62 66.5729 80.04 66.4849 80.568H70.4929C70.4049 80 70.1809 79.568 69.8209 79.272C69.4609 78.976 69.0409 78.828 68.5609 78.828ZM75.5573 84.156C74.6533 84.156 73.9013 83.856 73.3013 83.256C72.7013 82.648 72.4013 81.896 72.4013 81C72.4013 80.104 72.7013 79.356 73.3013 78.756C73.9013 78.148 74.6533 77.844 75.5573 77.844C76.1493 77.844 76.6813 77.988 77.1533 78.276C77.6253 78.556 77.9773 78.936 78.2093 79.416L77.3333 79.92C77.1813 79.6 76.9453 79.344 76.6253 79.152C76.3133 78.96 75.9573 78.864 75.5573 78.864C74.9573 78.864 74.4533 79.068 74.0453 79.476C73.6453 79.884 73.4453 80.392 73.4453 81C73.4453 81.6 73.6453 82.104 74.0453 82.512C74.4533 82.92 74.9573 83.124 75.5573 83.124C75.9573 83.124 76.3173 83.032 76.6373 82.848C76.9573 82.656 77.2013 82.4 77.3693 82.08L78.2573 82.596C78.0013 83.068 77.6333 83.448 77.1533 83.736C76.6733 84.016 76.1413 84.156 75.5573 84.156ZM82.5521 79.008H80.9561V82.26C80.9561 82.556 81.0121 82.768 81.1241 82.896C81.2441 83.016 81.4241 83.08 81.6641 83.088C81.9041 83.088 82.2001 83.08 82.5521 83.064V84C81.6401 84.12 80.9721 84.048 80.5481 83.784C80.1241 83.512 79.9121 83.004 79.9121 82.26V79.008H78.7241V78H79.9121V76.632L80.9561 76.32V78H82.5521V79.008ZM84.3161 76.908C84.1161 76.908 83.9481 76.84 83.8121 76.704C83.6761 76.568 83.6081 76.404 83.6081 76.212C83.6081 76.02 83.6761 75.856 83.8121 75.72C83.9481 75.576 84.1161 75.504 84.3161 75.504C84.5081 75.504 84.6721 75.576 84.8081 75.72C84.9441 75.856 85.0121 76.02 85.0121 76.212C85.0121 76.404 84.9441 76.568 84.8081 76.704C84.6721 76.84 84.5081 76.908 84.3161 76.908ZM83.7881 84V78H84.8321V84H83.7881ZM91.4888 83.244C90.8728 83.852 90.1248 84.156 89.2448 84.156C88.3648 84.156 87.6168 83.852 87.0008 83.244C86.3928 82.636 86.0888 81.888 86.0888 81C86.0888 80.112 86.3928 79.364 87.0008 78.756C87.6168 78.148 88.3648 77.844 89.2448 77.844C90.1248 77.844 90.8728 78.148 91.4888 78.756C92.1048 79.364 92.4128 80.112 92.4128 81C92.4128 81.888 92.1048 82.636 91.4888 83.244ZM89.2448 83.136C89.8448 83.136 90.3488 82.932 90.7568 82.524C91.1648 82.116 91.3688 81.608 91.3688 81C91.3688 80.392 91.1648 79.884 90.7568 79.476C90.3488 79.068 89.8448 78.864 89.2448 78.864C88.6528 78.864 88.1528 79.068 87.7448 79.476C87.3368 79.884 87.1328 80.392 87.1328 81C87.1328 81.608 87.3368 82.116 87.7448 82.524C88.1528 82.932 88.6528 83.136 89.2448 83.136ZM96.6316 77.844C97.3356 77.844 97.8996 78.068 98.3236 78.516C98.7476 78.956 98.9596 79.556 98.9596 80.316V84H97.9156V80.376C97.9156 79.888 97.7836 79.512 97.5196 79.248C97.2556 78.976 96.8916 78.84 96.4276 78.84C95.9076 78.84 95.4876 79.004 95.1676 79.332C94.8476 79.652 94.6876 80.148 94.6876 80.82V84H93.6436V78H94.6876V78.864C95.1116 78.184 95.7596 77.844 96.6316 77.844ZM110.485 78H111.577L109.717 84H108.649L107.245 79.56L105.841 84H104.773L102.913 78H104.005L105.325 82.56L106.741 78H107.749L109.165 82.572L110.485 78ZM113.179 76.908C112.979 76.908 112.811 76.84 112.675 76.704C112.539 76.568 112.471 76.404 112.471 76.212C112.471 76.02 112.539 75.856 112.675 75.72C112.811 75.576 112.979 75.504 113.179 75.504C113.371 75.504 113.535 75.576 113.671 75.72C113.807 75.856 113.875 76.02 113.875 76.212C113.875 76.404 113.807 76.568 113.671 76.704C113.535 76.84 113.371 76.908 113.179 76.908ZM112.651 84V78H113.695V84H112.651ZM118.552 79.008H116.956V82.26C116.956 82.556 117.012 82.768 117.124 82.896C117.244 83.016 117.424 83.08 117.664 83.088C117.904 83.088 118.2 83.08 118.552 83.064V84C117.64 84.12 116.972 84.048 116.548 83.784C116.124 83.512 115.912 83.004 115.912 82.26V79.008H114.724V78H115.912V76.632L116.956 76.32V78H118.552V79.008ZM122.776 77.844C123.48 77.844 124.044 78.068 124.468 78.516C124.892 78.956 125.104 79.556 125.104 80.316V84H124.06V80.376C124.06 79.888 123.928 79.512 123.664 79.248C123.4 78.976 123.036 78.84 122.572 78.84C122.052 78.84 121.632 79.004 121.312 79.332C120.992 79.652 120.832 80.148 120.832 80.82V84H119.788V75.6H120.832V78.864C121.256 78.184 121.904 77.844 122.776 77.844ZM131.146 75.6H132.106V84H131.002V76.8L129.214 77.328L128.938 76.368L131.146 75.6ZM139.215 82.968C138.647 83.76 137.851 84.156 136.827 84.156C135.803 84.156 135.007 83.76 134.439 82.968C133.871 82.176 133.587 81.12 133.587 79.8C133.587 78.48 133.871 77.424 134.439 76.632C135.007 75.84 135.803 75.444 136.827 75.444C137.851 75.444 138.647 75.84 139.215 76.632C139.783 77.424 140.067 78.48 140.067 79.8C140.067 81.12 139.783 82.176 139.215 82.968ZM135.255 82.212C135.623 82.78 136.147 83.064 136.827 83.064C137.507 83.064 138.031 82.78 138.399 82.212C138.775 81.644 138.963 80.84 138.963 79.8C138.963 78.76 138.775 77.956 138.399 77.388C138.031 76.812 137.507 76.524 136.827 76.524C136.147 76.524 135.623 76.808 135.255 77.376C134.887 77.944 134.703 78.752 134.703 79.8C134.703 80.84 134.887 81.644 135.255 82.212ZM142.594 82.764L141.814 85.68H140.914L141.394 82.764H142.594ZM149.082 82.968C148.514 83.76 147.718 84.156 146.694 84.156C145.67 84.156 144.874 83.76 144.306 82.968C143.738 82.176 143.454 81.12 143.454 79.8C143.454 78.48 143.738 77.424 144.306 76.632C144.874 75.84 145.67 75.444 146.694 75.444C147.718 75.444 148.514 75.84 149.082 76.632C149.65 77.424 149.934 78.48 149.934 79.8C149.934 81.12 149.65 82.176 149.082 82.968ZM145.122 82.212C145.49 82.78 146.014 83.064 146.694 83.064C147.374 83.064 147.898 82.78 148.266 82.212C148.642 81.644 148.83 80.84 148.83 79.8C148.83 78.76 148.642 77.956 148.266 77.388C147.898 76.812 147.374 76.524 146.694 76.524C146.014 76.524 145.49 76.808 145.122 77.376C144.754 77.944 144.57 78.752 144.57 79.8C144.57 80.84 144.754 81.644 145.122 82.212ZM156.641 82.968C156.073 83.76 155.277 84.156 154.253 84.156C153.229 84.156 152.433 83.76 151.865 82.968C151.297 82.176 151.013 81.12 151.013 79.8C151.013 78.48 151.297 77.424 151.865 76.632C152.433 75.84 153.229 75.444 154.253 75.444C155.277 75.444 156.073 75.84 156.641 76.632C157.209 77.424 157.493 78.48 157.493 79.8C157.493 81.12 157.209 82.176 156.641 82.968ZM152.681 82.212C153.049 82.78 153.573 83.064 154.253 83.064C154.933 83.064 155.457 82.78 155.825 82.212C156.201 81.644 156.389 80.84 156.389 79.8C156.389 78.76 156.201 77.956 155.825 77.388C155.457 76.812 154.933 76.524 154.253 76.524C153.573 76.524 153.049 76.808 152.681 77.376C152.313 77.944 152.129 78.752 152.129 79.8C152.129 80.84 152.313 81.644 152.681 82.212ZM164.199 82.968C163.631 83.76 162.835 84.156 161.811 84.156C160.787 84.156 159.991 83.76 159.423 82.968C158.855 82.176 158.571 81.12 158.571 79.8C158.571 78.48 158.855 77.424 159.423 76.632C159.991 75.84 160.787 75.444 161.811 75.444C162.835 75.444 163.631 75.84 164.199 76.632C164.767 77.424 165.051 78.48 165.051 79.8C165.051 81.12 164.767 82.176 164.199 82.968ZM160.239 82.212C160.607 82.78 161.131 83.064 161.811 83.064C162.491 83.064 163.015 82.78 163.383 82.212C163.759 81.644 163.947 80.84 163.947 79.8C163.947 78.76 163.759 77.956 163.383 77.388C163.015 76.812 162.491 76.524 161.811 76.524C161.131 76.524 160.607 76.808 160.239 77.376C159.871 77.944 159.687 78.752 159.687 79.8C159.687 80.84 159.871 81.644 160.239 82.212ZM173.522 78H174.566V84H173.522V83.136C173.098 83.816 172.45 84.156 171.578 84.156C170.874 84.156 170.31 83.936 169.886 83.496C169.462 83.048 169.25 82.444 169.25 81.684V78H170.294V81.624C170.294 82.112 170.426 82.492 170.69 82.764C170.954 83.028 171.318 83.16 171.782 83.16C172.302 83.16 172.722 83 173.042 82.68C173.362 82.352 173.522 81.852 173.522 81.18V78ZM179.143 77.844C179.847 77.844 180.411 78.068 180.835 78.516C181.259 78.956 181.471 79.556 181.471 80.316V84H180.427V80.376C180.427 79.888 180.295 79.512 180.031 79.248C179.767 78.976 179.403 78.84 178.939 78.84C178.419 78.84 177.999 79.004 177.679 79.332C177.359 79.652 177.199 80.148 177.199 80.82V84H176.155V78H177.199V78.864C177.623 78.184 178.271 77.844 179.143 77.844ZM183.457 76.908C183.257 76.908 183.089 76.84 182.953 76.704C182.817 76.568 182.749 76.404 182.749 76.212C182.749 76.02 182.817 75.856 182.953 75.72C183.089 75.576 183.257 75.504 183.457 75.504C183.649 75.504 183.813 75.576 183.949 75.72C184.085 75.856 184.153 76.02 184.153 76.212C184.153 76.404 184.085 76.568 183.949 76.704C183.813 76.84 183.649 76.908 183.457 76.908ZM182.929 84V78H183.973V84H182.929ZM190.533 78H191.577V86.4H190.533V82.968C190.013 83.76 189.257 84.156 188.265 84.156C187.425 84.156 186.709 83.852 186.117 83.244C185.525 82.628 185.229 81.88 185.229 81C185.229 80.12 185.525 79.376 186.117 78.768C186.709 78.152 187.425 77.844 188.265 77.844C189.257 77.844 190.013 78.24 190.533 79.032V78ZM188.397 83.148C189.005 83.148 189.513 82.944 189.921 82.536C190.329 82.12 190.533 81.608 190.533 81C190.533 80.392 190.329 79.884 189.921 79.476C189.513 79.06 189.005 78.852 188.397 78.852C187.797 78.852 187.293 79.06 186.885 79.476C186.477 79.884 186.273 80.392 186.273 81C186.273 81.608 186.477 82.12 186.885 82.536C187.293 82.944 187.797 83.148 188.397 83.148ZM197.299 78H198.343V84H197.299V83.136C196.875 83.816 196.227 84.156 195.355 84.156C194.651 84.156 194.087 83.936 193.663 83.496C193.239 83.048 193.027 82.444 193.027 81.684V78H194.071V81.624C194.071 82.112 194.203 82.492 194.467 82.764C194.731 83.028 195.095 83.16 195.559 83.16C196.079 83.16 196.499 83 196.819 82.68C197.139 82.352 197.299 81.852 197.299 81.18V78ZM200.665 81.48C200.769 82.016 201.013 82.432 201.397 82.728C201.789 83.024 202.269 83.172 202.837 83.172C203.629 83.172 204.205 82.88 204.565 82.296L205.453 82.8C204.869 83.704 203.989 84.156 202.813 84.156C201.861 84.156 201.085 83.86 200.485 83.268C199.893 82.668 199.597 81.912 199.597 81C199.597 80.096 199.889 79.344 200.473 78.744C201.057 78.144 201.813 77.844 202.741 77.844C203.621 77.844 204.337 78.156 204.889 78.78C205.449 79.396 205.729 80.14 205.729 81.012C205.729 81.164 205.717 81.32 205.693 81.48H200.665ZM202.741 78.828C202.181 78.828 201.717 78.988 201.349 79.308C200.981 79.62 200.753 80.04 200.665 80.568H204.673C204.585 80 204.361 79.568 204.001 79.272C203.641 78.976 203.221 78.828 202.741 78.828ZM215.257 75.6H216.373V84H215.473L211.153 77.724V84H210.037V75.6H210.937L215.257 81.864V75.6ZM223.006 76.656H219.286V79.38H222.85V80.436H219.286V84H218.17V75.6H223.006V76.656ZM229.733 75.6V76.656H227.249V84H226.145V76.656H223.673V75.6H229.733ZM230.774 79.62C230.774 79.852 230.89 80.04 231.122 80.184C231.354 80.32 231.634 80.432 231.962 80.52C232.29 80.6 232.618 80.696 232.946 80.808C233.274 80.912 233.554 81.096 233.786 81.36C234.018 81.616 234.134 81.948 234.134 82.356C234.134 82.9 233.922 83.336 233.498 83.664C233.082 83.992 232.546 84.156 231.89 84.156C231.306 84.156 230.806 84.028 230.39 83.772C229.974 83.516 229.678 83.176 229.502 82.752L230.402 82.236C230.498 82.524 230.678 82.752 230.942 82.92C231.206 83.088 231.522 83.172 231.89 83.172C232.234 83.172 232.518 83.108 232.742 82.98C232.966 82.844 233.078 82.636 233.078 82.356C233.078 82.124 232.962 81.94 232.73 81.804C232.498 81.66 232.218 81.548 231.89 81.468C231.562 81.38 231.234 81.28 230.906 81.168C230.578 81.056 230.298 80.872 230.066 80.616C229.834 80.36 229.718 80.032 229.718 79.632C229.718 79.112 229.918 78.684 230.318 78.348C230.726 78.012 231.234 77.844 231.842 77.844C232.33 77.844 232.762 77.956 233.138 78.18C233.522 78.396 233.81 78.7 234.002 79.092L233.126 79.584C232.91 79.072 232.482 78.816 231.842 78.816C231.546 78.816 231.294 78.888 231.086 79.032C230.878 79.168 230.774 79.364 230.774 79.62ZM243.434 83.244C242.818 83.852 242.07 84.156 241.19 84.156C240.31 84.156 239.562 83.852 238.946 83.244C238.338 82.636 238.034 81.888 238.034 81C238.034 80.112 238.338 79.364 238.946 78.756C239.562 78.148 240.31 77.844 241.19 77.844C242.07 77.844 242.818 78.148 243.434 78.756C244.05 79.364 244.358 80.112 244.358 81C244.358 81.888 244.05 82.636 243.434 83.244ZM241.19 83.136C241.79 83.136 242.294 82.932 242.702 82.524C243.11 82.116 243.314 81.608 243.314 81C243.314 80.392 243.11 79.884 242.702 79.476C242.294 79.068 241.79 78.864 241.19 78.864C240.598 78.864 240.098 79.068 239.69 79.476C239.282 79.884 239.078 80.392 239.078 81C239.078 81.608 239.282 82.116 239.69 82.524C240.098 82.932 240.598 83.136 241.19 83.136ZM248.577 77.844C249.281 77.844 249.845 78.068 250.269 78.516C250.693 78.956 250.905 79.556 250.905 80.316V84H249.861V80.376C249.861 79.888 249.729 79.512 249.465 79.248C249.201 78.976 248.837 78.84 248.373 78.84C247.853 78.84 247.433 79.004 247.113 79.332C246.793 79.652 246.633 80.148 246.633 80.82V84H245.589V78H246.633V78.864C247.057 78.184 247.705 77.844 248.577 77.844ZM49.612 102.156C48.828 102.156 48.156 101.972 47.596 101.604C47.044 101.236 46.656 100.732 46.432 100.092L47.392 99.54C47.72 100.556 48.468 101.064 49.636 101.064C50.212 101.064 50.652 100.948 50.956 100.716C51.26 100.476 51.412 100.16 51.412 99.768C51.412 99.368 51.26 99.068 50.956 98.868C50.652 98.668 50.144 98.456 49.432 98.232C49.08 98.12 48.812 98.032 48.628 97.968C48.444 97.896 48.212 97.792 47.932 97.656C47.66 97.512 47.456 97.368 47.32 97.224C47.184 97.072 47.06 96.876 46.948 96.636C46.844 96.396 46.792 96.124 46.792 95.82C46.792 95.092 47.048 94.516 47.56 94.092C48.072 93.66 48.696 93.444 49.432 93.444C50.096 93.444 50.672 93.612 51.16 93.948C51.656 94.284 52.028 94.728 52.276 95.28L51.34 95.82C50.98 94.956 50.344 94.524 49.432 94.524C48.976 94.524 48.608 94.636 48.328 94.86C48.048 95.084 47.908 95.388 47.908 95.772C47.908 96.14 48.04 96.42 48.304 96.612C48.568 96.804 49.024 97.004 49.672 97.212C49.904 97.284 50.068 97.336 50.164 97.368C50.26 97.4 50.408 97.456 50.608 97.536C50.816 97.616 50.968 97.68 51.064 97.728C51.16 97.776 51.288 97.844 51.448 97.932C51.616 98.02 51.74 98.104 51.82 98.184C51.9 98.264 51.992 98.364 52.096 98.484C52.208 98.596 52.288 98.712 52.336 98.832C52.384 98.952 52.424 99.092 52.456 99.252C52.496 99.404 52.516 99.568 52.516 99.744C52.516 100.48 52.248 101.068 51.712 101.508C51.176 101.94 50.476 102.156 49.612 102.156ZM58.9341 101.244C58.3181 101.852 57.5701 102.156 56.6901 102.156C55.8101 102.156 55.0621 101.852 54.4461 101.244C53.8381 100.636 53.5341 99.888 53.5341 99C53.5341 98.112 53.8381 97.364 54.4461 96.756C55.0621 96.148 55.8101 95.844 56.6901 95.844C57.5701 95.844 58.3181 96.148 58.9341 96.756C59.5501 97.364 59.8581 98.112 59.8581 99C59.8581 99.888 59.5501 100.636 58.9341 101.244ZM56.6901 101.136C57.2901 101.136 57.7941 100.932 58.2021 100.524C58.6101 100.116 58.8141 99.608 58.8141 99C58.8141 98.392 58.6101 97.884 58.2021 97.476C57.7941 97.068 57.2901 96.864 56.6901 96.864C56.0981 96.864 55.5981 97.068 55.1901 97.476C54.7821 97.884 54.5781 98.392 54.5781 99C54.5781 99.608 54.7821 100.116 55.1901 100.524C55.5981 100.932 56.0981 101.136 56.6901 101.136ZM61.0889 102V93.24H62.1329V102H61.0889ZM68.6936 96H69.7376V102H68.6936V100.968C68.1736 101.76 67.4176 102.156 66.4256 102.156C65.5856 102.156 64.8696 101.852 64.2776 101.244C63.6856 100.628 63.3896 99.88 63.3896 99C63.3896 98.12 63.6856 97.376 64.2776 96.768C64.8696 96.152 65.5856 95.844 66.4256 95.844C67.4176 95.844 68.1736 96.24 68.6936 97.032V96ZM66.5576 101.148C67.1656 101.148 67.6736 100.944 68.0816 100.536C68.4896 100.12 68.6936 99.608 68.6936 99C68.6936 98.392 68.4896 97.884 68.0816 97.476C67.6736 97.06 67.1656 96.852 66.5576 96.852C65.9576 96.852 65.4536 97.06 65.0456 97.476C64.6376 97.884 64.4336 98.392 64.4336 99C64.4336 99.608 64.6376 100.12 65.0456 100.536C65.4536 100.944 65.9576 101.148 66.5576 101.148ZM74.3073 95.844C75.0113 95.844 75.5753 96.068 75.9993 96.516C76.4233 96.956 76.6353 97.556 76.6353 98.316V102H75.5913V98.376C75.5913 97.888 75.4593 97.512 75.1953 97.248C74.9313 96.976 74.5673 96.84 74.1033 96.84C73.5833 96.84 73.1633 97.004 72.8433 97.332C72.5233 97.652 72.3633 98.148 72.3633 98.82V102H71.3193V96H72.3633V96.864C72.7873 96.184 73.4353 95.844 74.3073 95.844ZM83.0608 96H84.1048V102H83.0608V100.968C82.5408 101.76 81.7848 102.156 80.7928 102.156C79.9528 102.156 79.2368 101.852 78.6448 101.244C78.0528 100.628 77.7568 99.88 77.7568 99C77.7568 98.12 78.0528 97.376 78.6448 96.768C79.2368 96.152 79.9528 95.844 80.7928 95.844C81.7848 95.844 82.5408 96.24 83.0608 97.032V96ZM80.9248 101.148C81.5328 101.148 82.0408 100.944 82.4488 100.536C82.8568 100.12 83.0608 99.608 83.0608 99C83.0608 98.392 82.8568 97.884 82.4488 97.476C82.0408 97.06 81.5328 96.852 80.9248 96.852C80.3248 96.852 79.8208 97.06 79.4128 97.476C79.0048 97.884 78.8008 98.392 78.8008 99C78.8008 99.608 79.0048 100.12 79.4128 100.536C79.8208 100.944 80.3248 101.148 80.9248 101.148ZM86.3465 102.132C86.1305 102.132 85.9465 102.056 85.7945 101.904C85.6425 101.752 85.5665 101.568 85.5665 101.352C85.5665 101.136 85.6425 100.952 85.7945 100.8C85.9465 100.648 86.1305 100.572 86.3465 100.572C86.5705 100.572 86.7545 100.648 86.8985 100.8C87.0505 100.952 87.1265 101.136 87.1265 101.352C87.1265 101.568 87.0505 101.752 86.8985 101.904C86.7545 102.056 86.5705 102.132 86.3465 102.132Z" fill="#1A1A1A"/>
<path d="M37.9581 123.748C37.7021 124.012 37.3861 124.144 37.0101 124.144C36.6341 124.144 36.3141 124.012 36.0501 123.748C35.7861 123.484 35.6541 123.164 35.6541 122.788C35.6541 122.412 35.7861 122.096 36.0501 121.84C36.3141 121.576 36.6341 121.444 37.0101 121.444C37.3861 121.444 37.7021 121.576 37.9581 121.84C38.2221 122.096 38.3541 122.412 38.3541 122.788C38.3541 123.164 38.2221 123.484 37.9581 123.748ZM49.612 127.156C48.828 127.156 48.156 126.972 47.596 126.604C47.044 126.236 46.656 125.732 46.432 125.092L47.392 124.54C47.72 125.556 48.468 126.064 49.636 126.064C50.212 126.064 50.652 125.948 50.956 125.716C51.26 125.476 51.412 125.16 51.412 124.768C51.412 124.368 51.26 124.068 50.956 123.868C50.652 123.668 50.144 123.456 49.432 123.232C49.08 123.12 48.812 123.032 48.628 122.968C48.444 122.896 48.212 122.792 47.932 122.656C47.66 122.512 47.456 122.368 47.32 122.224C47.184 122.072 47.06 121.876 46.948 121.636C46.844 121.396 46.792 121.124 46.792 120.82C46.792 120.092 47.048 119.516 47.56 119.092C48.072 118.66 48.696 118.444 49.432 118.444C50.096 118.444 50.672 118.612 51.16 118.948C51.656 119.284 52.028 119.728 52.276 120.28L51.34 120.82C50.98 119.956 50.344 119.524 49.432 119.524C48.976 119.524 48.608 119.636 48.328 119.86C48.048 120.084 47.908 120.388 47.908 120.772C47.908 121.14 48.04 121.42 48.304 121.612C48.568 121.804 49.024 122.004 49.672 122.212C49.904 122.284 50.068 122.336 50.164 122.368C50.26 122.4 50.408 122.456 50.608 122.536C50.816 122.616 50.968 122.68 51.064 122.728C51.16 122.776 51.288 122.844 51.448 122.932C51.616 123.02 51.74 123.104 51.82 123.184C51.9 123.264 51.992 123.364 52.096 123.484C52.208 123.596 52.288 123.712 52.336 123.832C52.384 123.952 52.424 124.092 52.456 124.252C52.496 124.404 52.516 124.568 52.516 124.744C52.516 125.48 52.248 126.068 51.712 126.508C51.176 126.94 50.476 127.156 49.612 127.156ZM54.6021 124.48C54.7061 125.016 54.9501 125.432 55.3341 125.728C55.7261 126.024 56.2061 126.172 56.7741 126.172C57.5661 126.172 58.1421 125.88 58.5021 125.296L59.3901 125.8C58.8061 126.704 57.9261 127.156 56.7501 127.156C55.7981 127.156 55.0221 126.86 54.4221 126.268C53.8301 125.668 53.5341 124.912 53.5341 124C53.5341 123.096 53.8261 122.344 54.4101 121.744C54.9941 121.144 55.7501 120.844 56.6781 120.844C57.5581 120.844 58.2741 121.156 58.8261 121.78C59.3861 122.396 59.6661 123.14 59.6661 124.012C59.6661 124.164 59.6541 124.32 59.6301 124.48H54.6021ZM56.6781 121.828C56.1181 121.828 55.6541 121.988 55.2861 122.308C54.9181 122.62 54.6901 123.04 54.6021 123.568H58.6101C58.5221 123 58.2981 122.568 57.9381 122.272C57.5781 121.976 57.1581 121.828 56.6781 121.828ZM63.9544 122.008H62.3584V125.26C62.3584 125.556 62.4144 125.768 62.5264 125.896C62.6464 126.016 62.8264 126.08 63.0664 126.088C63.3064 126.088 63.6024 126.08 63.9544 126.064V127C63.0424 127.12 62.3744 127.048 61.9504 126.784C61.5264 126.512 61.3144 126.004 61.3144 125.26V122.008H60.1264V121H61.3144V119.632L62.3584 119.32V121H63.9544V122.008ZM69.3656 121H70.4096V127H69.3656V126.136C68.9416 126.816 68.2936 127.156 67.4216 127.156C66.7176 127.156 66.1536 126.936 65.7296 126.496C65.3056 126.048 65.0936 125.444 65.0936 124.684V121H66.1376V124.624C66.1376 125.112 66.2696 125.492 66.5336 125.764C66.7976 126.028 67.1616 126.16 67.6256 126.16C68.1456 126.16 68.5656 126 68.8856 125.68C69.2056 125.352 69.3656 124.852 69.3656 124.18V121ZM75.311 120.844C76.151 120.844 76.867 121.152 77.459 121.768C78.051 122.376 78.347 123.12 78.347 124C78.347 124.88 78.051 125.628 77.459 126.244C76.867 126.852 76.151 127.156 75.311 127.156C74.319 127.156 73.563 126.76 73.043 125.968V129.4H71.999V121H73.043V122.032C73.563 121.24 74.319 120.844 75.311 120.844ZM75.179 126.148C75.779 126.148 76.283 125.944 76.691 125.536C77.099 125.12 77.303 124.608 77.303 124C77.303 123.392 77.099 122.884 76.691 122.476C76.283 122.06 75.779 121.852 75.179 121.852C74.571 121.852 74.063 122.06 73.655 122.476C73.247 122.884 73.043 123.392 73.043 124C73.043 124.608 73.247 125.12 73.655 125.536C74.063 125.944 74.571 126.148 75.179 126.148ZM83.4928 122.62C83.4928 122.852 83.6088 123.04 83.8408 123.184C84.0728 123.32 84.3528 123.432 84.6808 123.52C85.0088 123.6 85.3368 123.696 85.6648 123.808C85.9928 123.912 86.2728 124.096 86.5048 124.36C86.7368 124.616 86.8528 124.948 86.8528 125.356C86.8528 125.9 86.6408 126.336 86.2168 126.664C85.8008 126.992 85.2648 127.156 84.6088 127.156C84.0248 127.156 83.5248 127.028 83.1088 126.772C82.6928 126.516 82.3968 126.176 82.2208 125.752L83.1208 125.236C83.2168 125.524 83.3968 125.752 83.6608 125.92C83.9248 126.088 84.2408 126.172 84.6088 126.172C84.9528 126.172 85.2368 126.108 85.4608 125.98C85.6848 125.844 85.7968 125.636 85.7968 125.356C85.7968 125.124 85.6808 124.94 85.4488 124.804C85.2168 124.66 84.9368 124.548 84.6088 124.468C84.2808 124.38 83.9528 124.28 83.6248 124.168C83.2968 124.056 83.0168 123.872 82.7848 123.616C82.5528 123.36 82.4368 123.032 82.4368 122.632C82.4368 122.112 82.6368 121.684 83.0368 121.348C83.4448 121.012 83.9528 120.844 84.5608 120.844C85.0488 120.844 85.4808 120.956 85.8568 121.18C86.2408 121.396 86.5288 121.7 86.7208 122.092L85.8448 122.584C85.6288 122.072 85.2008 121.816 84.5608 121.816C84.2648 121.816 84.0128 121.888 83.8048 122.032C83.5968 122.168 83.4928 122.364 83.4928 122.62ZM91.1185 122.008H89.5225V125.26C89.5225 125.556 89.5785 125.768 89.6905 125.896C89.8105 126.016 89.9905 126.08 90.2305 126.088C90.4705 126.088 90.7665 126.08 91.1185 126.064V127C90.2065 127.12 89.5385 127.048 89.1145 126.784C88.6905 126.512 88.4785 126.004 88.4785 125.26V122.008H87.2905V121H88.4785V119.632L89.5225 119.32V121H91.1185V122.008ZM97.0178 121H98.0618V127H97.0178V125.968C96.4978 126.76 95.7418 127.156 94.7498 127.156C93.9098 127.156 93.1938 126.852 92.6018 126.244C92.0098 125.628 91.7138 124.88 91.7138 124C91.7138 123.12 92.0098 122.376 92.6018 121.768C93.1938 121.152 93.9098 120.844 94.7498 120.844C95.7418 120.844 96.4978 121.24 97.0178 122.032V121ZM94.8818 126.148C95.4898 126.148 95.9978 125.944 96.4058 125.536C96.8138 125.12 97.0178 124.608 97.0178 124C97.0178 123.392 96.8138 122.884 96.4058 122.476C95.9978 122.06 95.4898 121.852 94.8818 121.852C94.2818 121.852 93.7778 122.06 93.3698 122.476C92.9618 122.884 92.7578 123.392 92.7578 124C92.7578 124.608 92.9618 125.12 93.3698 125.536C93.7778 125.944 94.2818 126.148 94.8818 126.148ZM104.72 127H103.424L100.688 124.156V127H99.6436V118.6H100.688V123.652L103.28 121H104.624L101.756 123.904L104.72 127ZM106.218 119.908C106.018 119.908 105.85 119.84 105.714 119.704C105.578 119.568 105.51 119.404 105.51 119.212C105.51 119.02 105.578 118.856 105.714 118.72C105.85 118.576 106.018 118.504 106.218 118.504C106.41 118.504 106.574 118.576 106.71 118.72C106.846 118.856 106.914 119.02 106.914 119.212C106.914 119.404 106.846 119.568 106.71 119.704C106.574 119.84 106.41 119.908 106.218 119.908ZM105.69 127V121H106.734V127H105.69ZM111.315 120.844C112.019 120.844 112.583 121.068 113.007 121.516C113.431 121.956 113.643 122.556 113.643 123.316V127H112.599V123.376C112.599 122.888 112.467 122.512 112.203 122.248C111.939 121.976 111.575 121.84 111.111 121.84C110.591 121.84 110.171 122.004 109.851 122.332C109.531 122.652 109.371 123.148 109.371 123.82V127H108.327V121H109.371V121.864C109.795 121.184 110.443 120.844 111.315 120.844ZM120.081 121H121.113V126.748C121.113 127.636 120.813 128.324 120.213 128.812C119.613 129.308 118.893 129.556 118.053 129.556C117.381 129.556 116.801 129.428 116.313 129.172C115.825 128.924 115.457 128.564 115.209 128.092L116.121 127.576C116.449 128.248 117.101 128.584 118.077 128.584C118.701 128.584 119.189 128.42 119.541 128.092C119.901 127.764 120.081 127.316 120.081 126.748V125.896C119.553 126.696 118.801 127.096 117.825 127.096C116.969 127.096 116.245 126.792 115.653 126.184C115.061 125.576 114.765 124.836 114.765 123.964C114.765 123.092 115.061 122.356 115.653 121.756C116.245 121.148 116.969 120.844 117.825 120.844C118.809 120.844 119.561 121.24 120.081 122.032V121ZM116.421 125.488C116.829 125.896 117.337 126.1 117.945 126.1C118.553 126.1 119.061 125.896 119.469 125.488C119.877 125.08 120.081 124.572 120.081 123.964C120.081 123.364 119.877 122.86 119.469 122.452C119.061 122.044 118.553 121.84 117.945 121.84C117.337 121.84 116.829 122.044 116.421 122.452C116.013 122.86 115.809 123.364 115.809 123.964C115.809 124.572 116.013 125.08 116.421 125.488ZM129.006 120.844C129.846 120.844 130.562 121.152 131.154 121.768C131.746 122.376 132.042 123.12 132.042 124C132.042 124.88 131.746 125.628 131.154 126.244C130.562 126.852 129.846 127.156 129.006 127.156C128.014 127.156 127.258 126.76 126.738 125.968V129.4H125.694V121H126.738V122.032C127.258 121.24 128.014 120.844 129.006 120.844ZM128.874 126.148C129.474 126.148 129.978 125.944 130.386 125.536C130.794 125.12 130.998 124.608 130.998 124C130.998 123.392 130.794 122.884 130.386 122.476C129.978 122.06 129.474 121.852 128.874 121.852C128.266 121.852 127.758 122.06 127.35 122.476C126.942 122.884 126.738 123.392 126.738 124C126.738 124.608 126.942 125.12 127.35 125.536C127.758 125.944 128.266 126.148 128.874 126.148ZM134.332 122.008C134.676 121.264 135.3 120.892 136.204 120.892V121.984C135.692 121.96 135.252 122.096 134.884 122.392C134.516 122.688 134.332 123.164 134.332 123.82V127H133.288V121H134.332V122.008ZM141.961 126.244C141.345 126.852 140.597 127.156 139.717 127.156C138.837 127.156 138.089 126.852 137.473 126.244C136.865 125.636 136.561 124.888 136.561 124C136.561 123.112 136.865 122.364 137.473 121.756C138.089 121.148 138.837 120.844 139.717 120.844C140.597 120.844 141.345 121.148 141.961 121.756C142.577 122.364 142.885 123.112 142.885 124C142.885 124.888 142.577 125.636 141.961 126.244ZM139.717 126.136C140.317 126.136 140.821 125.932 141.229 125.524C141.637 125.116 141.841 124.608 141.841 124C141.841 123.392 141.637 122.884 141.229 122.476C140.821 122.068 140.317 121.864 139.717 121.864C139.125 121.864 138.625 122.068 138.217 122.476C137.809 122.884 137.605 123.392 137.605 124C137.605 124.608 137.809 125.116 138.217 125.524C138.625 125.932 139.125 126.136 139.717 126.136ZM147.251 122.008H145.655V125.26C145.655 125.556 145.711 125.768 145.823 125.896C145.943 126.016 146.123 126.08 146.363 126.088C146.603 126.088 146.899 126.08 147.251 126.064V127C146.339 127.12 145.671 127.048 145.247 126.784C144.823 126.512 144.611 126.004 144.611 125.26V122.008H143.423V121H144.611V119.632L145.655 119.32V121H147.251V122.008ZM153.247 126.244C152.631 126.852 151.883 127.156 151.003 127.156C150.123 127.156 149.375 126.852 148.759 126.244C148.151 125.636 147.847 124.888 147.847 124C147.847 123.112 148.151 122.364 148.759 121.756C149.375 121.148 150.123 120.844 151.003 120.844C151.883 120.844 152.631 121.148 153.247 121.756C153.863 122.364 154.171 123.112 154.171 124C154.171 124.888 153.863 125.636 153.247 126.244ZM151.003 126.136C151.603 126.136 152.107 125.932 152.515 125.524C152.923 125.116 153.127 124.608 153.127 124C153.127 123.392 152.923 122.884 152.515 122.476C152.107 122.068 151.603 121.864 151.003 121.864C150.411 121.864 149.911 122.068 149.503 122.476C149.095 122.884 148.891 123.392 148.891 124C148.891 124.608 149.095 125.116 149.503 125.524C149.911 125.932 150.411 126.136 151.003 126.136ZM158.221 127.156C157.317 127.156 156.565 126.856 155.965 126.256C155.365 125.648 155.065 124.896 155.065 124C155.065 123.104 155.365 122.356 155.965 121.756C156.565 121.148 157.317 120.844 158.221 120.844C158.813 120.844 159.345 120.988 159.817 121.276C160.289 121.556 160.641 121.936 160.873 122.416L159.997 122.92C159.845 122.6 159.609 122.344 159.289 122.152C158.977 121.96 158.621 121.864 158.221 121.864C157.621 121.864 157.117 122.068 156.709 122.476C156.309 122.884 156.109 123.392 156.109 124C156.109 124.6 156.309 125.104 156.709 125.512C157.117 125.92 157.621 126.124 158.221 126.124C158.621 126.124 158.981 126.032 159.301 125.848C159.621 125.656 159.865 125.4 160.033 125.08L160.921 125.596C160.665 126.068 160.297 126.448 159.817 126.736C159.337 127.016 158.805 127.156 158.221 127.156ZM166.934 126.244C166.318 126.852 165.57 127.156 164.69 127.156C163.81 127.156 163.062 126.852 162.446 126.244C161.838 125.636 161.534 124.888 161.534 124C161.534 123.112 161.838 122.364 162.446 121.756C163.062 121.148 163.81 120.844 164.69 120.844C165.57 120.844 166.318 121.148 166.934 121.756C167.55 122.364 167.858 123.112 167.858 124C167.858 124.888 167.55 125.636 166.934 126.244ZM164.69 126.136C165.29 126.136 165.794 125.932 166.202 125.524C166.61 125.116 166.814 124.608 166.814 124C166.814 123.392 166.61 122.884 166.202 122.476C165.794 122.068 165.29 121.864 164.69 121.864C164.098 121.864 163.598 122.068 163.19 122.476C162.782 122.884 162.578 123.392 162.578 124C162.578 124.608 162.782 125.116 163.19 125.524C163.598 125.932 164.098 126.136 164.69 126.136ZM169.089 127V118.24H170.133V127H169.089ZM177.81 119.452C176.754 119.364 176.226 119.82 176.226 120.82V121H177.81V122.008H176.226V127H175.182V122.008H174.222V121H175.182V120.82C175.182 120.012 175.406 119.4 175.854 118.984C176.31 118.568 176.962 118.388 177.81 118.444V119.452ZM183.34 126.244C182.724 126.852 181.976 127.156 181.096 127.156C180.216 127.156 179.468 126.852 178.852 126.244C178.244 125.636 177.94 124.888 177.94 124C177.94 123.112 178.244 122.364 178.852 121.756C179.468 121.148 180.216 120.844 181.096 120.844C181.976 120.844 182.724 121.148 183.34 121.756C183.956 122.364 184.264 123.112 184.264 124C184.264 124.888 183.956 125.636 183.34 126.244ZM181.096 126.136C181.696 126.136 182.2 125.932 182.608 125.524C183.016 125.116 183.22 124.608 183.22 124C183.22 123.392 183.016 122.884 182.608 122.476C182.2 122.068 181.696 121.864 181.096 121.864C180.504 121.864 180.004 122.068 179.596 122.476C179.188 122.884 178.984 123.392 178.984 124C178.984 124.608 179.188 125.116 179.596 125.524C180.004 125.932 180.504 126.136 181.096 126.136ZM186.539 122.008C186.883 121.264 187.507 120.892 188.411 120.892V121.984C187.899 121.96 187.459 122.096 187.091 122.392C186.723 122.688 186.539 123.164 186.539 123.82V127H185.495V121H186.539V122.008ZM197.761 118.6H198.877V127H197.977L193.657 120.724V127H192.541V118.6H193.441L197.761 124.864V118.6ZM205.509 119.656H201.789V122.38H205.353V123.436H201.789V127H200.673V118.6H205.509V119.656ZM212.237 118.6V119.656H209.753V127H208.649V119.656H206.177V118.6H212.237ZM219.221 120.844C219.925 120.844 220.489 121.068 220.913 121.516C221.337 121.956 221.549 122.556 221.549 123.316V127H220.505V123.376C220.505 122.888 220.373 122.512 220.109 122.248C219.845 121.976 219.481 121.84 219.017 121.84C218.497 121.84 218.077 122.004 217.757 122.332C217.437 122.652 217.277 123.148 217.277 123.82V127H216.233V118.6H217.277V121.864C217.701 121.184 218.349 120.844 219.221 120.844ZM228.071 126.244C227.455 126.852 226.707 127.156 225.827 127.156C224.947 127.156 224.199 126.852 223.583 126.244C222.975 125.636 222.671 124.888 222.671 124C222.671 123.112 222.975 122.364 223.583 121.756C224.199 121.148 224.947 120.844 225.827 120.844C226.707 120.844 227.455 121.148 228.071 121.756C228.687 122.364 228.995 123.112 228.995 124C228.995 124.888 228.687 125.636 228.071 126.244ZM225.827 126.136C226.427 126.136 226.931 125.932 227.339 125.524C227.747 125.116 227.951 124.608 227.951 124C227.951 123.392 227.747 122.884 227.339 122.476C226.931 122.068 226.427 121.864 225.827 121.864C225.235 121.864 224.735 122.068 224.327 122.476C223.919 122.884 223.715 123.392 223.715 124C223.715 124.608 223.919 125.116 224.327 125.524C224.735 125.932 225.235 126.136 225.827 126.136ZM230.226 127V118.24H231.27V127H230.226ZM237.83 118.6H238.874V127H237.83V125.968C237.31 126.76 236.554 127.156 235.562 127.156C234.722 127.156 234.006 126.852 233.414 126.244C232.822 125.628 232.526 124.88 232.526 124C232.526 123.12 232.822 122.376 233.414 121.768C234.006 121.152 234.722 120.844 235.562 120.844C236.554 120.844 237.31 121.24 237.83 122.032V118.6ZM235.694 126.148C236.302 126.148 236.81 125.944 237.218 125.536C237.626 125.12 237.83 124.608 237.83 124C237.83 123.392 237.626 122.884 237.218 122.476C236.81 122.06 236.302 121.852 235.694 121.852C235.094 121.852 234.59 122.06 234.182 122.476C233.774 122.884 233.57 123.392 233.57 124C233.57 124.608 233.774 125.12 234.182 125.536C234.59 125.944 235.094 126.148 235.694 126.148ZM241.188 124.48C241.292 125.016 241.536 125.432 241.92 125.728C242.312 126.024 242.792 126.172 243.36 126.172C244.152 126.172 244.728 125.88 245.088 125.296L245.976 125.8C245.392 126.704 244.512 127.156 243.336 127.156C242.384 127.156 241.608 126.86 241.008 126.268C240.416 125.668 240.12 124.912 240.12 124C240.12 123.096 240.412 122.344 240.996 121.744C241.58 121.144 242.336 120.844 243.264 120.844C244.144 120.844 244.86 121.156 245.412 121.78C245.972 122.396 246.252 123.14 246.252 124.012C246.252 124.164 246.24 124.32 246.216 124.48H241.188ZM243.264 121.828C242.704 121.828 242.24 121.988 241.872 122.308C241.504 122.62 241.276 123.04 241.188 123.568H245.196C245.108 123 244.884 122.568 244.524 122.272C244.164 121.976 243.744 121.828 243.264 121.828ZM248.496 122.008C248.84 121.264 249.464 120.892 250.368 120.892V121.984C249.856 121.96 249.416 122.096 249.048 122.392C248.68 122.688 248.496 123.164 248.496 123.82V127H247.452V121H248.496V122.008ZM252.067 122.62C252.067 122.852 252.183 123.04 252.415 123.184C252.647 123.32 252.927 123.432 253.255 123.52C253.583 123.6 253.911 123.696 254.239 123.808C254.567 123.912 254.847 124.096 255.079 124.36C255.311 124.616 255.427 124.948 255.427 125.356C255.427 125.9 255.215 126.336 254.791 126.664C254.375 126.992 253.839 127.156 253.183 127.156C252.599 127.156 252.099 127.028 251.683 126.772C251.267 126.516 250.971 126.176 250.795 125.752L251.695 125.236C251.791 125.524 251.971 125.752 252.235 125.92C252.499 126.088 252.815 126.172 253.183 126.172C253.527 126.172 253.811 126.108 254.035 125.98C254.259 125.844 254.371 125.636 254.371 125.356C254.371 125.124 254.255 124.94 254.023 124.804C253.791 124.66 253.511 124.548 253.183 124.468C252.855 124.38 252.527 124.28 252.199 124.168C251.871 124.056 251.591 123.872 251.359 123.616C251.127 123.36 251.011 123.032 251.011 122.632C251.011 122.112 251.211 121.684 251.611 121.348C252.019 121.012 252.527 120.844 253.135 120.844C253.623 120.844 254.055 120.956 254.431 121.18C254.815 121.396 255.103 121.7 255.295 122.092L254.419 122.584C254.203 122.072 253.775 121.816 253.135 121.816C252.839 121.816 252.587 121.888 252.379 122.032C252.171 122.168 252.067 122.364 252.067 122.62ZM50.056 140.008H48.46V143.26C48.46 143.556 48.516 143.768 48.628 143.896C48.748 144.016 48.928 144.08 49.168 144.088C49.408 144.088 49.704 144.08 50.056 144.064V145C49.144 145.12 48.476 145.048 48.052 144.784C47.628 144.512 47.416 144.004 47.416 143.26V140.008H46.228V139H47.416V137.632L48.46 137.32V139H50.056V140.008ZM56.0513 144.244C55.4353 144.852 54.6873 145.156 53.8073 145.156C52.9273 145.156 52.1793 144.852 51.5633 144.244C50.9553 143.636 50.6513 142.888 50.6513 142C50.6513 141.112 50.9553 140.364 51.5633 139.756C52.1793 139.148 52.9273 138.844 53.8073 138.844C54.6873 138.844 55.4353 139.148 56.0513 139.756C56.6673 140.364 56.9753 141.112 56.9753 142C56.9753 142.888 56.6673 143.636 56.0513 144.244ZM53.8073 144.136C54.4073 144.136 54.9113 143.932 55.3193 143.524C55.7273 143.116 55.9313 142.608 55.9313 142C55.9313 141.392 55.7273 140.884 55.3193 140.476C54.9113 140.068 54.4073 139.864 53.8073 139.864C53.2153 139.864 52.7153 140.068 52.3073 140.476C51.8993 140.884 51.6953 141.392 51.6953 142C51.6953 142.608 51.8993 143.116 52.3073 143.524C52.7153 143.932 53.2153 144.136 53.8073 144.136ZM61.9381 142.48C62.0421 143.016 62.2861 143.432 62.6701 143.728C63.0621 144.024 63.5421 144.172 64.1101 144.172C64.9021 144.172 65.4781 143.88 65.8381 143.296L66.7261 143.8C66.1421 144.704 65.2621 145.156 64.0861 145.156C63.1341 145.156 62.3581 144.86 61.7581 144.268C61.1661 143.668 60.8701 142.912 60.8701 142C60.8701 141.096 61.1621 140.344 61.7461 139.744C62.3301 139.144 63.0861 138.844 64.0141 138.844C64.8941 138.844 65.6101 139.156 66.1621 139.78C66.7221 140.396 67.0021 141.14 67.0021 142.012C67.0021 142.164 66.9901 142.32 66.9661 142.48H61.9381ZM64.0141 139.828C63.4541 139.828 62.9901 139.988 62.6221 140.308C62.2541 140.62 62.0261 141.04 61.9381 141.568H65.9461C65.8581 141 65.6341 140.568 65.2741 140.272C64.9141 139.976 64.4941 139.828 64.0141 139.828ZM73.1584 139H74.2024V145H73.1584V143.968C72.6384 144.76 71.8824 145.156 70.8904 145.156C70.0504 145.156 69.3344 144.852 68.7424 144.244C68.1504 143.628 67.8544 142.88 67.8544 142C67.8544 141.12 68.1504 140.376 68.7424 139.768C69.3344 139.152 70.0504 138.844 70.8904 138.844C71.8824 138.844 72.6384 139.24 73.1584 140.032V139ZM71.0224 144.148C71.6304 144.148 72.1384 143.944 72.5464 143.536C72.9544 143.12 73.1584 142.608 73.1584 142C73.1584 141.392 72.9544 140.884 72.5464 140.476C72.1384 140.06 71.6304 139.852 71.0224 139.852C70.4224 139.852 69.9184 140.06 69.5104 140.476C69.1024 140.884 68.8984 141.392 68.8984 142C68.8984 142.608 69.1024 143.12 69.5104 143.536C69.9184 143.944 70.4224 144.148 71.0224 144.148ZM76.8282 140.008C77.1722 139.264 77.7962 138.892 78.7002 138.892V139.984C78.1882 139.96 77.7482 140.096 77.3802 140.392C77.0122 140.688 76.8282 141.164 76.8282 141.82V145H75.7842V139H76.8282V140.008ZM82.7097 138.844C83.4137 138.844 83.9777 139.068 84.4017 139.516C84.8257 139.956 85.0377 140.556 85.0377 141.316V145H83.9937V141.376C83.9937 140.888 83.8617 140.512 83.5977 140.248C83.3337 139.976 82.9697 139.84 82.5057 139.84C81.9857 139.84 81.5657 140.004 81.2457 140.332C80.9257 140.652 80.7657 141.148 80.7657 141.82V145H79.7217V139H80.7657V139.864C81.1897 139.184 81.8377 138.844 82.7097 138.844ZM94.8831 142.756C94.8831 143.412 94.6671 143.952 94.2351 144.376C93.8031 144.8 93.2431 145.052 92.5551 145.132V146.2H91.7991V145.144C91.1431 145.096 90.5831 144.916 90.1191 144.604C89.6631 144.292 89.3311 143.872 89.1231 143.344L90.0831 142.792C90.3551 143.536 90.9271 143.956 91.7991 144.052V141.148C91.4391 141.02 91.1471 140.904 90.9231 140.8C90.7071 140.688 90.4791 140.54 90.2391 140.356C89.9991 140.172 89.8191 139.948 89.6991 139.684C89.5871 139.412 89.5311 139.1 89.5311 138.748C89.5311 138.1 89.7471 137.572 90.1791 137.164C90.6111 136.756 91.1511 136.52 91.7991 136.456V135.4H92.5551V136.468C93.0351 136.532 93.4631 136.7 93.8391 136.972C94.2151 137.244 94.5071 137.612 94.7151 138.076L93.7791 138.604C93.5471 138.02 93.1391 137.672 92.5551 137.56V140.32C92.9231 140.456 93.2151 140.576 93.4311 140.68C93.6471 140.784 93.8831 140.932 94.1391 141.124C94.3951 141.308 94.5831 141.536 94.7031 141.808C94.8231 142.08 94.8831 142.396 94.8831 142.756ZM90.6351 138.748C90.6351 139.052 90.7271 139.3 90.9111 139.492C91.0951 139.684 91.3911 139.864 91.7991 140.032V137.548C91.4471 137.596 91.1631 137.728 90.9471 137.944C90.7391 138.152 90.6351 138.42 90.6351 138.748ZM92.5551 144.028C92.9391 143.972 93.2351 143.832 93.4431 143.608C93.6591 143.376 93.7671 143.096 93.7671 142.768C93.7671 142.44 93.6671 142.18 93.4671 141.988C93.2751 141.788 92.9711 141.6 92.5551 141.424V144.028ZM97.3168 143.944H101.217V145H96.2008V136.6H101.157V137.656H97.3168V140.236H100.857V141.28H97.3168V143.944ZM108.54 145H107.268L105.204 141.688L103.14 145H101.88L104.58 140.68L102.036 136.6H103.296L105.204 139.66L107.112 136.6H108.372L105.84 140.668L108.54 145ZM112.69 136.6C113.466 136.6 114.11 136.86 114.622 137.38C115.142 137.892 115.402 138.532 115.402 139.3C115.402 140.06 115.142 140.7 114.622 141.22C114.11 141.74 113.466 142 112.69 142H110.758V145H109.642V136.6H112.69ZM112.69 140.956C113.154 140.956 113.538 140.8 113.842 140.488C114.146 140.168 114.298 139.772 114.298 139.3C114.298 138.82 114.146 138.424 113.842 138.112C113.538 137.8 113.154 137.644 112.69 137.644H110.758V140.956H112.69ZM122.876 140.008H121.28V143.26C121.28 143.556 121.336 143.768 121.448 143.896C121.568 144.016 121.748 144.08 121.988 144.088C122.228 144.088 122.524 144.08 122.876 144.064V145C121.964 145.12 121.296 145.048 120.872 144.784C120.448 144.512 120.236 144.004 120.236 143.26V140.008H119.048V139H120.236V137.632L121.28 137.32V139H122.876V140.008ZM128.872 144.244C128.256 144.852 127.508 145.156 126.628 145.156C125.748 145.156 125 144.852 124.384 144.244C123.776 143.636 123.472 142.888 123.472 142C123.472 141.112 123.776 140.364 124.384 139.756C125 139.148 125.748 138.844 126.628 138.844C127.508 138.844 128.256 139.148 128.872 139.756C129.488 140.364 129.796 141.112 129.796 142C129.796 142.888 129.488 143.636 128.872 144.244ZM126.628 144.136C127.228 144.136 127.732 143.932 128.14 143.524C128.548 143.116 128.752 142.608 128.752 142C128.752 141.392 128.548 140.884 128.14 140.476C127.732 140.068 127.228 139.864 126.628 139.864C126.036 139.864 125.536 140.068 125.128 140.476C124.72 140.884 124.516 141.392 124.516 142C124.516 142.608 124.72 143.116 125.128 143.524C125.536 143.932 126.036 144.136 126.628 144.136ZM136.102 145H134.806L132.07 142.156V145H131.026V136.6H132.07V141.652L134.662 139H136.006L133.138 141.904L136.102 145ZM137.254 142.48C137.358 143.016 137.602 143.432 137.986 143.728C138.378 144.024 138.858 144.172 139.426 144.172C140.218 144.172 140.794 143.88 141.154 143.296L142.042 143.8C141.458 144.704 140.578 145.156 139.402 145.156C138.45 145.156 137.674 144.86 137.074 144.268C136.482 143.668 136.186 142.912 136.186 142C136.186 141.096 136.478 140.344 137.062 139.744C137.646 139.144 138.402 138.844 139.33 138.844C140.21 138.844 140.926 139.156 141.478 139.78C142.038 140.396 142.318 141.14 142.318 142.012C142.318 142.164 142.306 142.32 142.282 142.48H137.254ZM139.33 139.828C138.77 139.828 138.306 139.988 137.938 140.308C137.57 140.62 137.342 141.04 137.254 141.568H141.262C141.174 141 140.95 140.568 140.59 140.272C140.23 139.976 139.81 139.828 139.33 139.828ZM146.507 138.844C147.211 138.844 147.775 139.068 148.199 139.516C148.623 139.956 148.835 140.556 148.835 141.316V145H147.791V141.376C147.791 140.888 147.659 140.512 147.395 140.248C147.131 139.976 146.767 139.84 146.303 139.84C145.783 139.84 145.363 140.004 145.043 140.332C144.723 140.652 144.563 141.148 144.563 141.82V145H143.519V139H144.563V139.864C144.987 139.184 145.635 138.844 146.507 138.844ZM150.952 145.132C150.736 145.132 150.552 145.056 150.4 144.904C150.248 144.752 150.172 144.568 150.172 144.352C150.172 144.136 150.248 143.952 150.4 143.8C150.552 143.648 150.736 143.572 150.952 143.572C151.176 143.572 151.36 143.648 151.504 143.8C151.656 143.952 151.732 144.136 151.732 144.352C151.732 144.568 151.656 144.752 151.504 144.904C151.36 145.056 151.176 145.132 150.952 145.132Z" fill="#1A1A1A"/>
<path d="M-1.37215e-06 79.8025L47.0867 52.617L47.0867 106.988L-1.37215e-06 79.8025Z" fill="#D1EACB"/>
</svg>
