<svg width="70" height="69" viewBox="0 0 70 69" fill="none" xmlns="http://www.w3.org/2000/svg">
<path d="M51.2421 23.9345C50.0357 24.4856 48.7597 24.8499 47.4539 25.0161C48.8314 24.1496 49.8638 22.7865 50.3593 21.1795C49.0649 21.9909 47.6478 22.5626 46.1698 22.8697C45.1818 21.7416 43.8662 20.9907 42.4295 20.7348C40.9926 20.4788 39.5156 20.7323 38.2302 21.4554C36.945 22.1785 35.9239 23.3303 35.3272 24.7302C34.7307 26.1302 34.5922 27.699 34.9336 29.1906C32.3163 29.0514 29.7559 28.3339 27.4192 27.0846C25.0824 25.8355 23.0213 24.0827 21.3699 21.9401C20.7906 23.0052 20.4862 24.2113 20.487 25.4387C20.485 26.5785 20.7506 27.7011 21.2603 28.7066C21.77 29.7121 22.5079 30.5693 23.4084 31.2021C22.3618 31.1719 21.3376 30.8763 20.4228 30.3399V30.4247C20.4307 32.0215 20.9621 33.5667 21.9274 34.7985C22.8926 36.0305 24.2323 36.8735 25.7199 37.1852C25.1472 37.3686 24.5527 37.4653 23.9542 37.4725C23.5399 37.4673 23.1266 37.4277 22.7182 37.3542C23.1418 38.7279 23.9616 39.9284 25.0635 40.7887C26.1654 41.6489 27.4945 42.1262 28.866 42.1542C26.5501 44.0728 23.6907 45.12 20.7438 45.1288C20.2073 45.1306 19.6712 45.0965 19.1387 45.0274C22.1474 47.0726 25.6538 48.1586 29.2352 48.1539C31.7067 48.1809 34.1586 47.6892 36.4474 46.7074C38.7363 45.7255 40.8166 44.2733 42.5665 42.4354C44.3163 40.5977 45.7011 38.4111 46.6393 36.0034C47.5778 33.596 48.051 31.0155 48.0318 28.4132C48.0318 28.1259 48.0318 27.8217 48.0318 27.5175C49.2913 26.5285 50.3777 25.316 51.2421 23.9345Z" fill="black"/>
<circle cx="35.1895" cy="34.3966" r="33.3966" stroke="black" stroke-width="2"/>
</svg>
