<svg width="60" height="60" viewBox="0 0 60 60" fill="none" xmlns="http://www.w3.org/2000/svg">
<path d="M30 60C46.5685 60 60 46.5685 60 30C60 13.4315 46.5685 0 30 0C13.4315 0 0 13.4315 0 30C0 46.5685 13.4315 60 30 60Z" fill="#1A1A1A"/>
<path d="M49.0203 44.4811H46.8298V28.6716L49.0203 30.7668V18.4811H36.6393L40.4488 22.2907L36.7346 26.1002L28.3536 19.8145L14.1631 29.9097V9.71924H11.9727V46.6716H49.0203V44.4811ZM27.2108 28.5764V44.4811H20.7346V33.243L27.2108 28.5764ZM29.4012 28.7669L35.9727 33.624V44.4811H29.4012V28.7669ZM38.1631 33.9097L44.6393 27.3383V44.4811H38.1631V33.9097ZM28.3536 22.4811L36.925 28.9573L43.5917 22.2907L41.8774 20.5764H46.8298V25.5287L45.1155 23.8145L37.1155 31.8145L28.2584 25.243L14.1631 35.243V32.5764L28.3536 22.4811ZM14.1631 37.9097L18.5441 34.7668V44.4811H14.1631V37.9097Z" fill="white"/>
</svg>
