<svg width="60" height="60" viewBox="0 0 60 60" fill="none" xmlns="http://www.w3.org/2000/svg">
<path d="M30 60C46.5685 60 60 46.5685 60 30C60 13.4315 46.5685 0 30 0C13.4315 0 0 13.4315 0 30C0 46.5685 13.4315 60 30 60Z" fill="#1A1A1A"/>
<path d="M26.8728 19.965C27.2052 19.6441 27.4694 19.2594 27.6494 18.8338C27.8295 18.4083 27.9216 17.9508 27.9204 17.4888C27.938 16.8858 27.7868 16.2899 27.4839 15.7683C27.1811 15.2467 26.7385 14.82 26.2061 14.5364L28.5871 9.48877H16.1109L18.4918 14.5364C17.9595 14.82 17.5169 15.2467 17.214 15.7683C16.9111 16.2899 16.7599 16.8858 16.7775 17.4888C16.7763 17.9508 16.8685 18.4083 17.0485 18.8338C17.2285 19.2594 17.4927 19.6441 17.8252 19.965C11.7299 24.5364 10.0156 31.8697 10.0156 39.4888V45.4888H30.2061V47.6792H48.2061V25.2983H31.5394C30.3526 23.2288 28.7664 21.4159 26.8728 19.965ZM20.1108 18.6316C19.8077 18.6316 19.5171 18.5112 19.3027 18.2969C19.0884 18.0825 18.968 17.7919 18.968 17.4888C18.968 17.1857 19.0884 16.895 19.3027 16.6806C19.5171 16.4663 19.8077 16.3459 20.1108 16.3459H24.587C24.8901 16.3459 25.1808 16.4663 25.3951 16.6806C25.6095 16.895 25.7299 17.1857 25.7299 17.4888C25.7079 17.7846 25.5804 18.0626 25.3707 18.2724C25.1609 18.4821 24.8829 18.6096 24.587 18.6316H20.1108ZM25.0632 11.7745L23.9204 14.1554H20.7775L19.6346 11.7745H25.0632ZM12.3014 43.203V39.4888C12.3014 30.3459 14.968 24.2507 20.3966 20.8221H24.3013C26.8574 22.4447 28.9041 24.7554 30.2061 27.4888V43.203H12.3014ZM46.0156 45.4888H32.3966V41.0126H46.0156V45.4888ZM32.3966 38.7268V34.2507H46.0156V38.7268H32.3966ZM46.0156 27.584V32.0602H32.3966V27.584H46.0156Z" fill="white"/>
<path d="M22.3001 30.9176C22.6032 30.9176 22.8939 31.038 23.1082 31.2523C23.3226 31.4666 23.4429 31.7573 23.4429 32.0604H25.7287C25.7298 31.3504 25.5106 30.6576 25.1011 30.0776C24.6917 29.4976 24.1123 29.059 23.4429 28.8223V27.5842H21.2525V28.8223C20.5831 29.059 20.0037 29.4976 19.5943 30.0776C19.1849 30.6576 18.9656 31.3504 18.9668 32.0604C18.9668 32.9445 19.318 33.7923 19.9431 34.4174C20.5682 35.0426 21.4161 35.3937 22.3001 35.3937C22.6032 35.3937 22.8939 35.5141 23.1082 35.7285C23.3226 35.9428 23.4429 36.2335 23.4429 36.5366C23.4436 36.6826 23.4137 36.8271 23.3552 36.9608C23.2967 37.0945 23.2108 37.2146 23.1032 37.3132C22.9956 37.4118 22.8687 37.4869 22.7303 37.5336C22.592 37.5802 22.4455 37.5975 22.3001 37.5842C22.1626 37.5842 22.0263 37.5571 21.8992 37.5045C21.7721 37.4518 21.6566 37.3746 21.5593 37.2774C21.4621 37.1801 21.3849 37.0646 21.3322 36.9375C21.2796 36.8104 21.2525 36.6742 21.2525 36.5366H18.9668C18.9713 37.2337 19.1942 37.9118 19.6042 38.4756C20.0143 39.0393 20.5907 39.4604 21.2525 39.6795V41.0128H23.4429V39.6795C24.1047 39.4604 24.6812 39.0393 25.0912 38.4756C25.5012 37.9118 25.7242 37.2337 25.7287 36.5366C25.7287 35.6273 25.3674 34.7552 24.7245 34.1122C24.0815 33.4692 23.2094 33.108 22.3001 33.108C22.0223 33.108 21.7558 32.9977 21.5593 32.8012C21.3629 32.6047 21.2525 32.3382 21.2525 32.0604C21.2392 31.915 21.2565 31.7685 21.3032 31.6302C21.3498 31.4919 21.4249 31.3649 21.5235 31.2573C21.6222 31.1497 21.7422 31.0639 21.8759 31.0054C22.0096 30.9469 22.1542 30.917 22.3001 30.9176Z" fill="white"/>
</svg>
