<svg width="69" height="69" viewBox="0 0 69 69" fill="none" xmlns="http://www.w3.org/2000/svg">
<path fill-rule="evenodd" clip-rule="evenodd" d="M37.2926 16.879C35.3069 17.1904 33.9121 17.8652 32.7678 19.0678C31.8045 20.0804 31.2034 21.2684 30.8632 22.8318C30.7347 23.4224 30.7183 23.7793 30.6917 26.561L30.6624 29.637H27.9435H25.2246V32.7639V35.8907L27.9313 35.9087L30.638 35.9267L30.6555 43.952L30.673 51.9773H33.9138H37.1547V43.9348V35.8923H39.8441C41.3233 35.8923 42.5346 35.8846 42.536 35.8751C42.7165 34.6233 43.3306 29.7244 43.3115 29.6886C43.2964 29.6602 41.9028 29.637 40.2147 29.637H37.1456L37.1688 27.0765C37.1915 24.5722 37.1956 24.507 37.3551 24.1091C37.6781 23.303 38.3577 22.8267 39.3725 22.6954C39.6509 22.6594 40.7091 22.6289 41.724 22.6278L43.5694 22.6256L43.5514 19.8245L43.5334 17.0234L42.637 16.9422C41.1671 16.809 37.9791 16.7714 37.2926 16.879Z" fill="black"/>
<circle cx="34.3966" cy="34.3966" r="33.3966" stroke="black" stroke-width="2"/>
</svg>
