<svg width="35" height="34" viewBox="0 0 35 34" fill="none" xmlns="http://www.w3.org/2000/svg">
<path fill-rule="evenodd" clip-rule="evenodd" d="M13.6532 9.86303C12.0545 10.0875 10.7677 11.2377 10.3747 12.7936C10.3377 12.9401 10.2938 13.1736 10.2773 13.3123C10.2357 13.6607 10.2357 20.338 10.2773 20.6863C10.4723 22.3202 11.6346 23.6491 13.2187 24.0493C13.3652 24.0863 13.5986 24.1301 13.7373 24.1467C14.0856 24.1883 20.7622 24.1883 21.1105 24.1467C22.583 23.9709 23.8142 23.01 24.3492 21.6188C24.4358 21.3936 24.537 20.967 24.5705 20.6863C24.6121 20.338 24.6121 13.6607 24.5705 13.3123C24.3948 11.8397 23.4339 10.6084 22.0429 10.0733C21.8177 9.9867 21.3912 9.88543 21.1105 9.85192C20.7268 9.80611 13.9871 9.81615 13.6532 9.86303ZM21.9535 11.6906C22.3173 11.8129 22.6087 12.1044 22.7319 12.4692C22.7902 12.6419 22.7923 12.9847 22.7361 13.1698C22.5062 13.9279 21.6014 14.2533 20.9415 13.8153C20.5546 13.5584 20.3494 13.1011 20.4211 12.6555C20.4931 12.2087 20.7991 11.8402 21.2163 11.698C21.4089 11.6323 21.7695 11.6287 21.9535 11.6906ZM21.4299 12.5272C21.2684 12.615 21.2051 12.8528 21.3033 13.0026C21.4948 13.295 21.9375 13.1678 21.9375 12.8204C21.9375 12.5703 21.6529 12.4059 21.4299 12.5272ZM18.0407 13.1147C18.8744 13.2538 19.6089 13.6304 20.2007 14.2222C20.9529 14.9745 21.3478 15.9305 21.3478 16.9993C21.3478 18.0681 20.9529 19.0241 20.2007 19.7764C19.4485 20.5287 18.4926 20.9236 17.4239 20.9236C16.3552 20.9236 15.3993 20.5287 14.6471 19.7764C13.8949 19.0241 13.5 18.0681 13.5 16.9993C13.5 15.9305 13.8949 14.9745 14.6471 14.2222C15.2294 13.6399 15.965 13.2587 16.7791 13.1174C17.0673 13.0673 17.7479 13.0659 18.0407 13.1147ZM16.8811 13.96C15.4189 14.2242 14.3401 15.5145 14.3401 16.9993C14.3401 18.9019 16.0757 20.3662 17.9444 20.0403C19.9989 19.682 21.1167 17.4359 20.1618 15.5844C19.5466 14.3914 18.1957 13.7225 16.8811 13.96Z" fill="black"/>
<circle cx="17.4239" cy="17.0001" r="16.5001" stroke="black"/>
</svg>
