<svg width="208" height="124" viewBox="0 0 208 124" fill="none" xmlns="http://www.w3.org/2000/svg">
<rect x="15" width="193" height="124" fill="#D1EACB"/>
<path d="M-9.83506e-07 61.5L33.75 42.0144L33.75 80.9856L-9.83506e-07 61.5Z" fill="#D1EACB"/>
<path d="M37.9581 19.748C37.7021 20.012 37.3861 20.144 37.0101 20.144C36.6341 20.144 36.3141 20.012 36.0501 19.748C35.7861 19.484 35.6541 19.164 35.6541 18.788C35.6541 18.412 35.7861 18.096 36.0501 17.84C36.3141 17.576 36.6341 17.444 37.0101 17.444C37.3861 17.444 37.7021 17.576 37.9581 17.84C38.2221 18.096 38.3541 18.412 38.3541 18.788C38.3541 19.164 38.2221 19.484 37.9581 19.748ZM54.76 14.6V23H53.656V16.436L50.908 21.008H50.764L48.016 16.448V23H46.9V14.6H48.16L50.836 19.04L53.5 14.6H54.76ZM56.9763 15.908C56.7763 15.908 56.6083 15.84 56.4723 15.704C56.3363 15.568 56.2683 15.404 56.2683 15.212C56.2683 15.02 56.3363 14.856 56.4723 14.72C56.6083 14.576 56.7763 14.504 56.9763 14.504C57.1683 14.504 57.3323 14.576 57.4683 14.72C57.6043 14.856 57.6723 15.02 57.6723 15.212C57.6723 15.404 57.6043 15.568 57.4683 15.704C57.3323 15.84 57.1683 15.908 56.9763 15.908ZM56.4482 23V17H57.4923V23H56.4482ZM62.073 16.844C62.777 16.844 63.341 17.068 63.765 17.516C64.189 17.956 64.401 18.556 64.401 19.316V23H63.357V19.376C63.357 18.888 63.225 18.512 62.961 18.248C62.697 17.976 62.333 17.84 61.869 17.84C61.349 17.84 60.929 18.004 60.609 18.332C60.289 18.652 60.129 19.148 60.129 19.82V23H59.085V17H60.129V17.864C60.553 17.184 61.201 16.844 62.073 16.844ZM69.1224 18.008H67.5264V21.26C67.5264 21.556 67.5824 21.768 67.6944 21.896C67.8144 22.016 67.9944 22.08 68.2344 22.088C68.4744 22.088 68.7704 22.08 69.1224 22.064V23C68.2104 23.12 67.5424 23.048 67.1184 22.784C66.6944 22.512 66.4824 22.004 66.4824 21.26V18.008H65.2944V17H66.4824V15.632L67.5264 15.32V17H69.1224V18.008ZM74.6176 21.944H78.5176V23H73.5016V14.6H78.4576V15.656H74.6176V18.236H78.1576V19.28H74.6176V21.944ZM82.4479 23.156C81.5439 23.156 80.7919 22.856 80.1919 22.256C79.5919 21.648 79.2919 20.896 79.2919 20C79.2919 19.104 79.5919 18.356 80.1919 17.756C80.7919 17.148 81.5439 16.844 82.4479 16.844C83.0399 16.844 83.5719 16.988 84.0439 17.276C84.5159 17.556 84.8679 17.936 85.0999 18.416L84.2239 18.92C84.0719 18.6 83.8359 18.344 83.5159 18.152C83.2039 17.96 82.8479 17.864 82.4479 17.864C81.8479 17.864 81.3439 18.068 80.9359 18.476C80.5359 18.884 80.3359 19.392 80.3359 20C80.3359 20.6 80.5359 21.104 80.9359 21.512C81.3439 21.92 81.8479 22.124 82.4479 22.124C82.8479 22.124 83.2079 22.032 83.5279 21.848C83.8479 21.656 84.0919 21.4 84.2599 21.08L85.1479 21.596C84.8919 22.068 84.5239 22.448 84.0439 22.736C83.5639 23.016 83.0319 23.156 82.4479 23.156ZM89.1667 16.844C89.8707 16.844 90.4347 17.068 90.8587 17.516C91.2827 17.956 91.4947 18.556 91.4947 19.316V23H90.4507V19.376C90.4507 18.888 90.3187 18.512 90.0547 18.248C89.7907 17.976 89.4267 17.84 88.9627 17.84C88.4427 17.84 88.0227 18.004 87.7027 18.332C87.3827 18.652 87.2227 19.148 87.2227 19.82V23H86.1787V14.6H87.2227V17.864C87.6467 17.184 88.2947 16.844 89.1667 16.844ZM98.0162 22.244C97.4002 22.852 96.6522 23.156 95.7722 23.156C94.8922 23.156 94.1442 22.852 93.5282 22.244C92.9202 21.636 92.6162 20.888 92.6162 20C92.6162 19.112 92.9202 18.364 93.5282 17.756C94.1442 17.148 94.8922 16.844 95.7722 16.844C96.6522 16.844 97.4002 17.148 98.0162 17.756C98.6322 18.364 98.9402 19.112 98.9402 20C98.9402 20.888 98.6322 21.636 98.0162 22.244ZM95.7722 22.136C96.3722 22.136 96.8762 21.932 97.2842 21.524C97.6922 21.116 97.8962 20.608 97.8962 20C97.8962 19.392 97.6922 18.884 97.2842 18.476C96.8762 18.068 96.3722 17.864 95.7722 17.864C95.1802 17.864 94.6802 18.068 94.2722 18.476C93.8642 18.884 93.6602 19.392 93.6602 20C93.6602 20.608 93.8642 21.116 94.2722 21.524C94.6802 21.932 95.1802 22.136 95.7722 22.136ZM108.115 15.656H104.395V18.38H107.959V19.436H104.395V23H103.279V14.6H108.115V15.656ZM114.422 22.244C113.806 22.852 113.058 23.156 112.178 23.156C111.298 23.156 110.55 22.852 109.934 22.244C109.326 21.636 109.022 20.888 109.022 20C109.022 19.112 109.326 18.364 109.934 17.756C110.55 17.148 111.298 16.844 112.178 16.844C113.058 16.844 113.806 17.148 114.422 17.756C115.038 18.364 115.346 19.112 115.346 20C115.346 20.888 115.038 21.636 114.422 22.244ZM112.178 22.136C112.778 22.136 113.282 21.932 113.69 21.524C114.098 21.116 114.302 20.608 114.302 20C114.302 19.392 114.098 18.884 113.69 18.476C113.282 18.068 112.778 17.864 112.178 17.864C111.586 17.864 111.086 18.068 110.678 18.476C110.27 18.884 110.066 19.392 110.066 20C110.066 20.608 110.27 21.116 110.678 21.524C111.086 21.932 111.586 22.136 112.178 22.136ZM117.621 18.008C117.965 17.264 118.589 16.892 119.493 16.892V17.984C118.981 17.96 118.541 18.096 118.173 18.392C117.805 18.688 117.621 19.164 117.621 19.82V23H116.577V17H117.621V18.008ZM120.919 20.48C121.023 21.016 121.267 21.432 121.651 21.728C122.043 22.024 122.523 22.172 123.091 22.172C123.883 22.172 124.459 21.88 124.819 21.296L125.707 21.8C125.123 22.704 124.243 23.156 123.067 23.156C122.115 23.156 121.339 22.86 120.739 22.268C120.147 21.668 119.851 20.912 119.851 20C119.851 19.096 120.143 18.344 120.727 17.744C121.311 17.144 122.067 16.844 122.995 16.844C123.875 16.844 124.591 17.156 125.143 17.78C125.703 18.396 125.983 19.14 125.983 20.012C125.983 20.164 125.971 20.32 125.947 20.48H120.919ZM122.995 17.828C122.435 17.828 121.971 17.988 121.603 18.308C121.235 18.62 121.007 19.04 120.919 19.568H124.927C124.839 19 124.615 18.568 124.255 18.272C123.895 17.976 123.475 17.828 122.995 17.828ZM127.848 18.62C127.848 18.852 127.964 19.04 128.196 19.184C128.428 19.32 128.708 19.432 129.036 19.52C129.364 19.6 129.692 19.696 130.02 19.808C130.348 19.912 130.628 20.096 130.86 20.36C131.092 20.616 131.208 20.948 131.208 21.356C131.208 21.9 130.996 22.336 130.572 22.664C130.156 22.992 129.62 23.156 128.964 23.156C128.38 23.156 127.88 23.028 127.464 22.772C127.048 22.516 126.752 22.176 126.576 21.752L127.476 21.236C127.572 21.524 127.752 21.752 128.016 21.92C128.28 22.088 128.596 22.172 128.964 22.172C129.308 22.172 129.592 22.108 129.816 21.98C130.04 21.844 130.152 21.636 130.152 21.356C130.152 21.124 130.036 20.94 129.804 20.804C129.572 20.66 129.292 20.548 128.964 20.468C128.636 20.38 128.308 20.28 127.98 20.168C127.652 20.056 127.372 19.872 127.14 19.616C126.908 19.36 126.792 19.032 126.792 18.632C126.792 18.112 126.992 17.684 127.392 17.348C127.8 17.012 128.308 16.844 128.916 16.844C129.404 16.844 129.836 16.956 130.212 17.18C130.596 17.396 130.884 17.7 131.076 18.092L130.2 18.584C129.984 18.072 129.556 17.816 128.916 17.816C128.62 17.816 128.368 17.888 128.16 18.032C127.952 18.168 127.848 18.364 127.848 18.62ZM135.474 18.008H133.878V21.26C133.878 21.556 133.934 21.768 134.046 21.896C134.166 22.016 134.346 22.08 134.586 22.088C134.826 22.088 135.122 22.08 135.474 22.064V23C134.562 23.12 133.894 23.048 133.47 22.784C133.046 22.512 132.834 22.004 132.834 21.26V18.008H131.646V17H132.834V15.632L133.878 15.32V17H135.474V18.008ZM145.073 14.6H146.189V23H145.289L140.969 16.724V23H139.853V14.6H140.753L145.073 20.864V14.6ZM152.822 15.656H149.102V18.38H152.666V19.436H149.102V23H147.986V14.6H152.822V15.656ZM159.549 14.6V15.656H157.065V23H155.961V15.656H153.489V14.6H159.549ZM168.61 22.244C167.994 22.852 167.246 23.156 166.366 23.156C165.486 23.156 164.738 22.852 164.122 22.244C163.514 21.636 163.21 20.888 163.21 20C163.21 19.112 163.514 18.364 164.122 17.756C164.738 17.148 165.486 16.844 166.366 16.844C167.246 16.844 167.994 17.148 168.61 17.756C169.226 18.364 169.534 19.112 169.534 20C169.534 20.888 169.226 21.636 168.61 22.244ZM166.366 22.136C166.966 22.136 167.47 21.932 167.878 21.524C168.286 21.116 168.49 20.608 168.49 20C168.49 19.392 168.286 18.884 167.878 18.476C167.47 18.068 166.966 17.864 166.366 17.864C165.774 17.864 165.274 18.068 164.866 18.476C164.458 18.884 164.254 19.392 164.254 20C164.254 20.608 164.458 21.116 164.866 21.524C165.274 21.932 165.774 22.136 166.366 22.136ZM173.753 16.844C174.457 16.844 175.021 17.068 175.445 17.516C175.869 17.956 176.081 18.556 176.081 19.316V23H175.037V19.376C175.037 18.888 174.905 18.512 174.641 18.248C174.377 17.976 174.013 17.84 173.549 17.84C173.029 17.84 172.609 18.004 172.289 18.332C171.969 18.652 171.809 19.148 171.809 19.82V23H170.765V17H171.809V17.864C172.233 17.184 172.881 16.844 173.753 16.844ZM49.612 43.156C48.828 43.156 48.156 42.972 47.596 42.604C47.044 42.236 46.656 41.732 46.432 41.092L47.392 40.54C47.72 41.556 48.468 42.064 49.636 42.064C50.212 42.064 50.652 41.948 50.956 41.716C51.26 41.476 51.412 41.16 51.412 40.768C51.412 40.368 51.26 40.068 50.956 39.868C50.652 39.668 50.144 39.456 49.432 39.232C49.08 39.12 48.812 39.032 48.628 38.968C48.444 38.896 48.212 38.792 47.932 38.656C47.66 38.512 47.456 38.368 47.32 38.224C47.184 38.072 47.06 37.876 46.948 37.636C46.844 37.396 46.792 37.124 46.792 36.82C46.792 36.092 47.048 35.516 47.56 35.092C48.072 34.66 48.696 34.444 49.432 34.444C50.096 34.444 50.672 34.612 51.16 34.948C51.656 35.284 52.028 35.728 52.276 36.28L51.34 36.82C50.98 35.956 50.344 35.524 49.432 35.524C48.976 35.524 48.608 35.636 48.328 35.86C48.048 36.084 47.908 36.388 47.908 36.772C47.908 37.14 48.04 37.42 48.304 37.612C48.568 37.804 49.024 38.004 49.672 38.212C49.904 38.284 50.068 38.336 50.164 38.368C50.26 38.4 50.408 38.456 50.608 38.536C50.816 38.616 50.968 38.68 51.064 38.728C51.16 38.776 51.288 38.844 51.448 38.932C51.616 39.02 51.74 39.104 51.82 39.184C51.9 39.264 51.992 39.364 52.096 39.484C52.208 39.596 52.288 39.712 52.336 39.832C52.384 39.952 52.424 40.092 52.456 40.252C52.496 40.404 52.516 40.568 52.516 40.744C52.516 41.48 52.248 42.068 51.712 42.508C51.176 42.94 50.476 43.156 49.612 43.156ZM58.9341 42.244C58.3181 42.852 57.5701 43.156 56.6901 43.156C55.8101 43.156 55.0621 42.852 54.4461 42.244C53.8381 41.636 53.5341 40.888 53.5341 40C53.5341 39.112 53.8381 38.364 54.4461 37.756C55.0621 37.148 55.8101 36.844 56.6901 36.844C57.5701 36.844 58.3181 37.148 58.9341 37.756C59.5501 38.364 59.8581 39.112 59.8581 40C59.8581 40.888 59.5501 41.636 58.9341 42.244ZM56.6901 42.136C57.2901 42.136 57.7941 41.932 58.2021 41.524C58.6101 41.116 58.8141 40.608 58.8141 40C58.8141 39.392 58.6101 38.884 58.2021 38.476C57.7941 38.068 57.2901 37.864 56.6901 37.864C56.0981 37.864 55.5981 38.068 55.1901 38.476C54.7821 38.884 54.5781 39.392 54.5781 40C54.5781 40.608 54.7821 41.116 55.1901 41.524C55.5981 41.932 56.0981 42.136 56.6901 42.136ZM61.0889 43V34.24H62.1329V43H61.0889ZM68.6936 37H69.7376V43H68.6936V41.968C68.1736 42.76 67.4176 43.156 66.4256 43.156C65.5856 43.156 64.8696 42.852 64.2776 42.244C63.6856 41.628 63.3896 40.88 63.3896 40C63.3896 39.12 63.6856 38.376 64.2776 37.768C64.8696 37.152 65.5856 36.844 66.4256 36.844C67.4176 36.844 68.1736 37.24 68.6936 38.032V37ZM66.5576 42.148C67.1656 42.148 67.6736 41.944 68.0816 41.536C68.4896 41.12 68.6936 40.608 68.6936 40C68.6936 39.392 68.4896 38.884 68.0816 38.476C67.6736 38.06 67.1656 37.852 66.5576 37.852C65.9576 37.852 65.4536 38.06 65.0456 38.476C64.6376 38.884 64.4336 39.392 64.4336 40C64.4336 40.608 64.6376 41.12 65.0456 41.536C65.4536 41.944 65.9576 42.148 66.5576 42.148ZM74.3073 36.844C75.0113 36.844 75.5753 37.068 75.9993 37.516C76.4233 37.956 76.6353 38.556 76.6353 39.316V43H75.5913V39.376C75.5913 38.888 75.4593 38.512 75.1953 38.248C74.9313 37.976 74.5673 37.84 74.1033 37.84C73.5833 37.84 73.1633 38.004 72.8433 38.332C72.5233 38.652 72.3633 39.148 72.3633 39.82V43H71.3193V37H72.3633V37.864C72.7873 37.184 73.4353 36.844 74.3073 36.844ZM83.0608 37H84.1048V43H83.0608V41.968C82.5408 42.76 81.7848 43.156 80.7928 43.156C79.9528 43.156 79.2368 42.852 78.6448 42.244C78.0528 41.628 77.7568 40.88 77.7568 40C77.7568 39.12 78.0528 38.376 78.6448 37.768C79.2368 37.152 79.9528 36.844 80.7928 36.844C81.7848 36.844 82.5408 37.24 83.0608 38.032V37ZM80.9248 42.148C81.5328 42.148 82.0408 41.944 82.4488 41.536C82.8568 41.12 83.0608 40.608 83.0608 40C83.0608 39.392 82.8568 38.884 82.4488 38.476C82.0408 38.06 81.5328 37.852 80.9248 37.852C80.3248 37.852 79.8208 38.06 79.4128 38.476C79.0048 38.884 78.8008 39.392 78.8008 40C78.8008 40.608 79.0048 41.12 79.4128 41.536C79.8208 41.944 80.3248 42.148 80.9248 42.148ZM86.3465 43.132C86.1305 43.132 85.9465 43.056 85.7945 42.904C85.6425 42.752 85.5665 42.568 85.5665 42.352C85.5665 42.136 85.6425 41.952 85.7945 41.8C85.9465 41.648 86.1305 41.572 86.3465 41.572C86.5705 41.572 86.7545 41.648 86.8985 41.8C87.0505 41.952 87.1265 42.136 87.1265 42.352C87.1265 42.568 87.0505 42.752 86.8985 42.904C86.7545 43.056 86.5705 43.132 86.3465 43.132Z" fill="#1A1A1A"/>
<path d="M37.9581 64.748C37.7021 65.012 37.3861 65.144 37.0101 65.144C36.6341 65.144 36.3141 65.012 36.0501 64.748C35.7861 64.484 35.6541 64.164 35.6541 63.788C35.6541 63.412 35.7861 63.096 36.0501 62.84C36.3141 62.576 36.6341 62.444 37.0101 62.444C37.3861 62.444 37.7021 62.576 37.9581 62.84C38.2221 63.096 38.3541 63.412 38.3541 63.788C38.3541 64.164 38.2221 64.484 37.9581 64.748ZM49.612 68.156C48.828 68.156 48.156 67.972 47.596 67.604C47.044 67.236 46.656 66.732 46.432 66.092L47.392 65.54C47.72 66.556 48.468 67.064 49.636 67.064C50.212 67.064 50.652 66.948 50.956 66.716C51.26 66.476 51.412 66.16 51.412 65.768C51.412 65.368 51.26 65.068 50.956 64.868C50.652 64.668 50.144 64.456 49.432 64.232C49.08 64.12 48.812 64.032 48.628 63.968C48.444 63.896 48.212 63.792 47.932 63.656C47.66 63.512 47.456 63.368 47.32 63.224C47.184 63.072 47.06 62.876 46.948 62.636C46.844 62.396 46.792 62.124 46.792 61.82C46.792 61.092 47.048 60.516 47.56 60.092C48.072 59.66 48.696 59.444 49.432 59.444C50.096 59.444 50.672 59.612 51.16 59.948C51.656 60.284 52.028 60.728 52.276 61.28L51.34 61.82C50.98 60.956 50.344 60.524 49.432 60.524C48.976 60.524 48.608 60.636 48.328 60.86C48.048 61.084 47.908 61.388 47.908 61.772C47.908 62.14 48.04 62.42 48.304 62.612C48.568 62.804 49.024 63.004 49.672 63.212C49.904 63.284 50.068 63.336 50.164 63.368C50.26 63.4 50.408 63.456 50.608 63.536C50.816 63.616 50.968 63.68 51.064 63.728C51.16 63.776 51.288 63.844 51.448 63.932C51.616 64.02 51.74 64.104 51.82 64.184C51.9 64.264 51.992 64.364 52.096 64.484C52.208 64.596 52.288 64.712 52.336 64.832C52.384 64.952 52.424 65.092 52.456 65.252C52.496 65.404 52.516 65.568 52.516 65.744C52.516 66.48 52.248 67.068 51.712 67.508C51.176 67.94 50.476 68.156 49.612 68.156ZM54.6021 65.48C54.7061 66.016 54.9501 66.432 55.3341 66.728C55.7261 67.024 56.2061 67.172 56.7741 67.172C57.5661 67.172 58.1421 66.88 58.5021 66.296L59.3901 66.8C58.8061 67.704 57.9261 68.156 56.7501 68.156C55.7981 68.156 55.0221 67.86 54.4221 67.268C53.8301 66.668 53.5341 65.912 53.5341 65C53.5341 64.096 53.8261 63.344 54.4101 62.744C54.9941 62.144 55.7501 61.844 56.6781 61.844C57.5581 61.844 58.2741 62.156 58.8261 62.78C59.3861 63.396 59.6661 64.14 59.6661 65.012C59.6661 65.164 59.6541 65.32 59.6301 65.48H54.6021ZM56.6781 62.828C56.1181 62.828 55.6541 62.988 55.2861 63.308C54.9181 63.62 54.6901 64.04 54.6021 64.568H58.6101C58.5221 64 58.2981 63.568 57.9381 63.272C57.5781 62.976 57.1581 62.828 56.6781 62.828ZM63.9544 63.008H62.3584V66.26C62.3584 66.556 62.4144 66.768 62.5264 66.896C62.6464 67.016 62.8264 67.08 63.0664 67.088C63.3064 67.088 63.6024 67.08 63.9544 67.064V68C63.0424 68.12 62.3744 68.048 61.9504 67.784C61.5264 67.512 61.3144 67.004 61.3144 66.26V63.008H60.1264V62H61.3144V60.632L62.3584 60.32V62H63.9544V63.008ZM69.3656 62H70.4096V68H69.3656V67.136C68.9416 67.816 68.2936 68.156 67.4216 68.156C66.7176 68.156 66.1536 67.936 65.7296 67.496C65.3056 67.048 65.0936 66.444 65.0936 65.684V62H66.1376V65.624C66.1376 66.112 66.2696 66.492 66.5336 66.764C66.7976 67.028 67.1616 67.16 67.6256 67.16C68.1456 67.16 68.5656 67 68.8856 66.68C69.2056 66.352 69.3656 65.852 69.3656 65.18V62ZM75.311 61.844C76.151 61.844 76.867 62.152 77.459 62.768C78.051 63.376 78.347 64.12 78.347 65C78.347 65.88 78.051 66.628 77.459 67.244C76.867 67.852 76.151 68.156 75.311 68.156C74.319 68.156 73.563 67.76 73.043 66.968V70.4H71.999V62H73.043V63.032C73.563 62.24 74.319 61.844 75.311 61.844ZM75.179 67.148C75.779 67.148 76.283 66.944 76.691 66.536C77.099 66.12 77.303 65.608 77.303 65C77.303 64.392 77.099 63.884 76.691 63.476C76.283 63.06 75.779 62.852 75.179 62.852C74.571 62.852 74.063 63.06 73.655 63.476C73.247 63.884 73.043 64.392 73.043 65C73.043 65.608 73.247 66.12 73.655 66.536C74.063 66.944 74.571 67.148 75.179 67.148ZM83.4928 63.62C83.4928 63.852 83.6088 64.04 83.8408 64.184C84.0728 64.32 84.3528 64.432 84.6808 64.52C85.0088 64.6 85.3368 64.696 85.6648 64.808C85.9928 64.912 86.2728 65.096 86.5048 65.36C86.7368 65.616 86.8528 65.948 86.8528 66.356C86.8528 66.9 86.6408 67.336 86.2168 67.664C85.8008 67.992 85.2648 68.156 84.6088 68.156C84.0248 68.156 83.5248 68.028 83.1088 67.772C82.6928 67.516 82.3968 67.176 82.2208 66.752L83.1208 66.236C83.2168 66.524 83.3968 66.752 83.6608 66.92C83.9248 67.088 84.2408 67.172 84.6088 67.172C84.9528 67.172 85.2368 67.108 85.4608 66.98C85.6848 66.844 85.7968 66.636 85.7968 66.356C85.7968 66.124 85.6808 65.94 85.4488 65.804C85.2168 65.66 84.9368 65.548 84.6088 65.468C84.2808 65.38 83.9528 65.28 83.6248 65.168C83.2968 65.056 83.0168 64.872 82.7848 64.616C82.5528 64.36 82.4368 64.032 82.4368 63.632C82.4368 63.112 82.6368 62.684 83.0368 62.348C83.4448 62.012 83.9528 61.844 84.5608 61.844C85.0488 61.844 85.4808 61.956 85.8568 62.18C86.2408 62.396 86.5288 62.7 86.7208 63.092L85.8448 63.584C85.6288 63.072 85.2008 62.816 84.5608 62.816C84.2648 62.816 84.0128 62.888 83.8048 63.032C83.5968 63.168 83.4928 63.364 83.4928 63.62ZM91.1185 63.008H89.5225V66.26C89.5225 66.556 89.5785 66.768 89.6905 66.896C89.8105 67.016 89.9905 67.08 90.2305 67.088C90.4705 67.088 90.7665 67.08 91.1185 67.064V68C90.2065 68.12 89.5385 68.048 89.1145 67.784C88.6905 67.512 88.4785 67.004 88.4785 66.26V63.008H87.2905V62H88.4785V60.632L89.5225 60.32V62H91.1185V63.008ZM97.0178 62H98.0618V68H97.0178V66.968C96.4978 67.76 95.7418 68.156 94.7498 68.156C93.9098 68.156 93.1938 67.852 92.6018 67.244C92.0098 66.628 91.7138 65.88 91.7138 65C91.7138 64.12 92.0098 63.376 92.6018 62.768C93.1938 62.152 93.9098 61.844 94.7498 61.844C95.7418 61.844 96.4978 62.24 97.0178 63.032V62ZM94.8818 67.148C95.4898 67.148 95.9978 66.944 96.4058 66.536C96.8138 66.12 97.0178 65.608 97.0178 65C97.0178 64.392 96.8138 63.884 96.4058 63.476C95.9978 63.06 95.4898 62.852 94.8818 62.852C94.2818 62.852 93.7778 63.06 93.3698 63.476C92.9618 63.884 92.7578 64.392 92.7578 65C92.7578 65.608 92.9618 66.12 93.3698 66.536C93.7778 66.944 94.2818 67.148 94.8818 67.148ZM104.72 68H103.424L100.688 65.156V68H99.6436V59.6H100.688V64.652L103.28 62H104.624L101.756 64.904L104.72 68ZM106.218 60.908C106.018 60.908 105.85 60.84 105.714 60.704C105.578 60.568 105.51 60.404 105.51 60.212C105.51 60.02 105.578 59.856 105.714 59.72C105.85 59.576 106.018 59.504 106.218 59.504C106.41 59.504 106.574 59.576 106.71 59.72C106.846 59.856 106.914 60.02 106.914 60.212C106.914 60.404 106.846 60.568 106.71 60.704C106.574 60.84 106.41 60.908 106.218 60.908ZM105.69 68V62H106.734V68H105.69ZM111.315 61.844C112.019 61.844 112.583 62.068 113.007 62.516C113.431 62.956 113.643 63.556 113.643 64.316V68H112.599V64.376C112.599 63.888 112.467 63.512 112.203 63.248C111.939 62.976 111.575 62.84 111.111 62.84C110.591 62.84 110.171 63.004 109.851 63.332C109.531 63.652 109.371 64.148 109.371 64.82V68H108.327V62H109.371V62.864C109.795 62.184 110.443 61.844 111.315 61.844ZM120.081 62H121.113V67.748C121.113 68.636 120.813 69.324 120.213 69.812C119.613 70.308 118.893 70.556 118.053 70.556C117.381 70.556 116.801 70.428 116.313 70.172C115.825 69.924 115.457 69.564 115.209 69.092L116.121 68.576C116.449 69.248 117.101 69.584 118.077 69.584C118.701 69.584 119.189 69.42 119.541 69.092C119.901 68.764 120.081 68.316 120.081 67.748V66.896C119.553 67.696 118.801 68.096 117.825 68.096C116.969 68.096 116.245 67.792 115.653 67.184C115.061 66.576 114.765 65.836 114.765 64.964C114.765 64.092 115.061 63.356 115.653 62.756C116.245 62.148 116.969 61.844 117.825 61.844C118.809 61.844 119.561 62.24 120.081 63.032V62ZM116.421 66.488C116.829 66.896 117.337 67.1 117.945 67.1C118.553 67.1 119.061 66.896 119.469 66.488C119.877 66.08 120.081 65.572 120.081 64.964C120.081 64.364 119.877 63.86 119.469 63.452C119.061 63.044 118.553 62.84 117.945 62.84C117.337 62.84 116.829 63.044 116.421 63.452C116.013 63.86 115.809 64.364 115.809 64.964C115.809 65.572 116.013 66.08 116.421 66.488ZM129.006 61.844C129.846 61.844 130.562 62.152 131.154 62.768C131.746 63.376 132.042 64.12 132.042 65C132.042 65.88 131.746 66.628 131.154 67.244C130.562 67.852 129.846 68.156 129.006 68.156C128.014 68.156 127.258 67.76 126.738 66.968V70.4H125.694V62H126.738V63.032C127.258 62.24 128.014 61.844 129.006 61.844ZM128.874 67.148C129.474 67.148 129.978 66.944 130.386 66.536C130.794 66.12 130.998 65.608 130.998 65C130.998 64.392 130.794 63.884 130.386 63.476C129.978 63.06 129.474 62.852 128.874 62.852C128.266 62.852 127.758 63.06 127.35 63.476C126.942 63.884 126.738 64.392 126.738 65C126.738 65.608 126.942 66.12 127.35 66.536C127.758 66.944 128.266 67.148 128.874 67.148ZM134.332 63.008C134.676 62.264 135.3 61.892 136.204 61.892V62.984C135.692 62.96 135.252 63.096 134.884 63.392C134.516 63.688 134.332 64.164 134.332 64.82V68H133.288V62H134.332V63.008ZM141.961 67.244C141.345 67.852 140.597 68.156 139.717 68.156C138.837 68.156 138.089 67.852 137.473 67.244C136.865 66.636 136.561 65.888 136.561 65C136.561 64.112 136.865 63.364 137.473 62.756C138.089 62.148 138.837 61.844 139.717 61.844C140.597 61.844 141.345 62.148 141.961 62.756C142.577 63.364 142.885 64.112 142.885 65C142.885 65.888 142.577 66.636 141.961 67.244ZM139.717 67.136C140.317 67.136 140.821 66.932 141.229 66.524C141.637 66.116 141.841 65.608 141.841 65C141.841 64.392 141.637 63.884 141.229 63.476C140.821 63.068 140.317 62.864 139.717 62.864C139.125 62.864 138.625 63.068 138.217 63.476C137.809 63.884 137.605 64.392 137.605 65C137.605 65.608 137.809 66.116 138.217 66.524C138.625 66.932 139.125 67.136 139.717 67.136ZM147.251 63.008H145.655V66.26C145.655 66.556 145.711 66.768 145.823 66.896C145.943 67.016 146.123 67.08 146.363 67.088C146.603 67.088 146.899 67.08 147.251 67.064V68C146.339 68.12 145.671 68.048 145.247 67.784C144.823 67.512 144.611 67.004 144.611 66.26V63.008H143.423V62H144.611V60.632L145.655 60.32V62H147.251V63.008ZM153.247 67.244C152.631 67.852 151.883 68.156 151.003 68.156C150.123 68.156 149.375 67.852 148.759 67.244C148.151 66.636 147.847 65.888 147.847 65C147.847 64.112 148.151 63.364 148.759 62.756C149.375 62.148 150.123 61.844 151.003 61.844C151.883 61.844 152.631 62.148 153.247 62.756C153.863 63.364 154.171 64.112 154.171 65C154.171 65.888 153.863 66.636 153.247 67.244ZM151.003 67.136C151.603 67.136 152.107 66.932 152.515 66.524C152.923 66.116 153.127 65.608 153.127 65C153.127 64.392 152.923 63.884 152.515 63.476C152.107 63.068 151.603 62.864 151.003 62.864C150.411 62.864 149.911 63.068 149.503 63.476C149.095 63.884 148.891 64.392 148.891 65C148.891 65.608 149.095 66.116 149.503 66.524C149.911 66.932 150.411 67.136 151.003 67.136ZM158.221 68.156C157.317 68.156 156.565 67.856 155.965 67.256C155.365 66.648 155.065 65.896 155.065 65C155.065 64.104 155.365 63.356 155.965 62.756C156.565 62.148 157.317 61.844 158.221 61.844C158.813 61.844 159.345 61.988 159.817 62.276C160.289 62.556 160.641 62.936 160.873 63.416L159.997 63.92C159.845 63.6 159.609 63.344 159.289 63.152C158.977 62.96 158.621 62.864 158.221 62.864C157.621 62.864 157.117 63.068 156.709 63.476C156.309 63.884 156.109 64.392 156.109 65C156.109 65.6 156.309 66.104 156.709 66.512C157.117 66.92 157.621 67.124 158.221 67.124C158.621 67.124 158.981 67.032 159.301 66.848C159.621 66.656 159.865 66.4 160.033 66.08L160.921 66.596C160.665 67.068 160.297 67.448 159.817 67.736C159.337 68.016 158.805 68.156 158.221 68.156ZM166.934 67.244C166.318 67.852 165.57 68.156 164.69 68.156C163.81 68.156 163.062 67.852 162.446 67.244C161.838 66.636 161.534 65.888 161.534 65C161.534 64.112 161.838 63.364 162.446 62.756C163.062 62.148 163.81 61.844 164.69 61.844C165.57 61.844 166.318 62.148 166.934 62.756C167.55 63.364 167.858 64.112 167.858 65C167.858 65.888 167.55 66.636 166.934 67.244ZM164.69 67.136C165.29 67.136 165.794 66.932 166.202 66.524C166.61 66.116 166.814 65.608 166.814 65C166.814 64.392 166.61 63.884 166.202 63.476C165.794 63.068 165.29 62.864 164.69 62.864C164.098 62.864 163.598 63.068 163.19 63.476C162.782 63.884 162.578 64.392 162.578 65C162.578 65.608 162.782 66.116 163.19 66.524C163.598 66.932 164.098 67.136 164.69 67.136ZM169.089 68V59.24H170.133V68H169.089ZM177.81 60.452C176.754 60.364 176.226 60.82 176.226 61.82V62H177.81V63.008H176.226V68H175.182V63.008H174.222V62H175.182V61.82C175.182 61.012 175.406 60.4 175.854 59.984C176.31 59.568 176.962 59.388 177.81 59.444V60.452ZM183.34 67.244C182.724 67.852 181.976 68.156 181.096 68.156C180.216 68.156 179.468 67.852 178.852 67.244C178.244 66.636 177.94 65.888 177.94 65C177.94 64.112 178.244 63.364 178.852 62.756C179.468 62.148 180.216 61.844 181.096 61.844C181.976 61.844 182.724 62.148 183.34 62.756C183.956 63.364 184.264 64.112 184.264 65C184.264 65.888 183.956 66.636 183.34 67.244ZM181.096 67.136C181.696 67.136 182.2 66.932 182.608 66.524C183.016 66.116 183.22 65.608 183.22 65C183.22 64.392 183.016 63.884 182.608 63.476C182.2 63.068 181.696 62.864 181.096 62.864C180.504 62.864 180.004 63.068 179.596 63.476C179.188 63.884 178.984 64.392 178.984 65C178.984 65.608 179.188 66.116 179.596 66.524C180.004 66.932 180.504 67.136 181.096 67.136ZM186.539 63.008C186.883 62.264 187.507 61.892 188.411 61.892V62.984C187.899 62.96 187.459 63.096 187.091 63.392C186.723 63.688 186.539 64.164 186.539 64.82V68H185.495V62H186.539V63.008ZM55.12 79.6H56.236V88H55.336L51.016 81.724V88H49.9V79.6H50.8L55.12 85.864V79.6ZM62.8688 80.656H59.1488V83.38H62.7128V84.436H59.1488V88H58.0328V79.6H62.8688V80.656ZM69.5963 79.6V80.656H67.1123V88H66.0083V80.656H63.5363V79.6H69.5963ZM76.5808 81.844C77.2848 81.844 77.8488 82.068 78.2728 82.516C78.6968 82.956 78.9088 83.556 78.9088 84.316V88H77.8648V84.376C77.8648 83.888 77.7328 83.512 77.4688 83.248C77.2048 82.976 76.8408 82.84 76.3768 82.84C75.8568 82.84 75.4368 83.004 75.1168 83.332C74.7968 83.652 74.6368 84.148 74.6368 84.82V88H73.5928V79.6H74.6368V82.864C75.0608 82.184 75.7088 81.844 76.5808 81.844ZM85.4302 87.244C84.8142 87.852 84.0662 88.156 83.1862 88.156C82.3062 88.156 81.5582 87.852 80.9422 87.244C80.3342 86.636 80.0302 85.888 80.0302 85C80.0302 84.112 80.3342 83.364 80.9422 82.756C81.5582 82.148 82.3062 81.844 83.1862 81.844C84.0662 81.844 84.8142 82.148 85.4302 82.756C86.0462 83.364 86.3542 84.112 86.3542 85C86.3542 85.888 86.0462 86.636 85.4302 87.244ZM83.1862 87.136C83.7862 87.136 84.2902 86.932 84.6982 86.524C85.1062 86.116 85.3102 85.608 85.3102 85C85.3102 84.392 85.1062 83.884 84.6982 83.476C84.2902 83.068 83.7862 82.864 83.1862 82.864C82.5942 82.864 82.0942 83.068 81.6862 83.476C81.2782 83.884 81.0742 84.392 81.0742 85C81.0742 85.608 81.2782 86.116 81.6862 86.524C82.0942 86.932 82.5942 87.136 83.1862 87.136ZM87.585 88V79.24H88.629V88H87.585ZM95.1897 79.6H96.2337V88H95.1897V86.968C94.6697 87.76 93.9137 88.156 92.9217 88.156C92.0817 88.156 91.3657 87.852 90.7737 87.244C90.1817 86.628 89.8857 85.88 89.8857 85C89.8857 84.12 90.1817 83.376 90.7737 82.768C91.3657 82.152 92.0817 81.844 92.9217 81.844C93.9137 81.844 94.6697 82.24 95.1897 83.032V79.6ZM93.0537 87.148C93.6617 87.148 94.1697 86.944 94.5777 86.536C94.9857 86.12 95.1897 85.608 95.1897 85C95.1897 84.392 94.9857 83.884 94.5777 83.476C94.1697 83.06 93.6617 82.852 93.0537 82.852C92.4537 82.852 91.9497 83.06 91.5417 83.476C91.1337 83.884 90.9297 84.392 90.9297 85C90.9297 85.608 91.1337 86.12 91.5417 86.536C91.9497 86.944 92.4537 87.148 93.0537 87.148ZM98.5474 85.48C98.6514 86.016 98.8954 86.432 99.2794 86.728C99.6714 87.024 100.151 87.172 100.719 87.172C101.511 87.172 102.087 86.88 102.447 86.296L103.335 86.8C102.751 87.704 101.871 88.156 100.695 88.156C99.7434 88.156 98.9674 87.86 98.3674 87.268C97.7754 86.668 97.4794 85.912 97.4794 85C97.4794 84.096 97.7714 83.344 98.3554 82.744C98.9394 82.144 99.6954 81.844 100.623 81.844C101.503 81.844 102.219 82.156 102.771 82.78C103.331 83.396 103.611 84.14 103.611 85.012C103.611 85.164 103.599 85.32 103.575 85.48H98.5474ZM100.623 82.828C100.063 82.828 99.5994 82.988 99.2314 83.308C98.8634 83.62 98.6354 84.04 98.5474 84.568H102.555C102.467 84 102.243 83.568 101.883 83.272C101.523 82.976 101.103 82.828 100.623 82.828ZM105.856 83.008C106.2 82.264 106.824 81.892 107.728 81.892V82.984C107.216 82.96 106.776 83.096 106.408 83.392C106.04 83.688 105.856 84.164 105.856 84.82V88H104.812V82H105.856V83.008ZM109.426 83.62C109.426 83.852 109.542 84.04 109.774 84.184C110.006 84.32 110.286 84.432 110.614 84.52C110.942 84.6 111.27 84.696 111.598 84.808C111.926 84.912 112.206 85.096 112.438 85.36C112.67 85.616 112.786 85.948 112.786 86.356C112.786 86.9 112.574 87.336 112.15 87.664C111.734 87.992 111.198 88.156 110.542 88.156C109.958 88.156 109.458 88.028 109.042 87.772C108.626 87.516 108.33 87.176 108.154 86.752L109.054 86.236C109.15 86.524 109.33 86.752 109.594 86.92C109.858 87.088 110.174 87.172 110.542 87.172C110.886 87.172 111.17 87.108 111.394 86.98C111.618 86.844 111.73 86.636 111.73 86.356C111.73 86.124 111.614 85.94 111.382 85.804C111.15 85.66 110.87 85.548 110.542 85.468C110.214 85.38 109.886 85.28 109.558 85.168C109.23 85.056 108.95 84.872 108.718 84.616C108.486 84.36 108.37 84.032 108.37 83.632C108.37 83.112 108.57 82.684 108.97 82.348C109.378 82.012 109.886 81.844 110.494 81.844C110.982 81.844 111.414 81.956 111.79 82.18C112.174 82.396 112.462 82.7 112.654 83.092L111.778 83.584C111.562 83.072 111.134 82.816 110.494 82.816C110.198 82.816 109.946 82.888 109.738 83.032C109.53 83.168 109.426 83.364 109.426 83.62ZM120.286 83.008H118.69V86.26C118.69 86.556 118.746 86.768 118.858 86.896C118.978 87.016 119.158 87.08 119.398 87.088C119.638 87.088 119.934 87.08 120.286 87.064V88C119.374 88.12 118.706 88.048 118.282 87.784C117.858 87.512 117.646 87.004 117.646 86.26V83.008H116.458V82H117.646V80.632L118.69 80.32V82H120.286V83.008ZM126.282 87.244C125.666 87.852 124.918 88.156 124.038 88.156C123.158 88.156 122.41 87.852 121.794 87.244C121.186 86.636 120.882 85.888 120.882 85C120.882 84.112 121.186 83.364 121.794 82.756C122.41 82.148 123.158 81.844 124.038 81.844C124.918 81.844 125.666 82.148 126.282 82.756C126.898 83.364 127.206 84.112 127.206 85C127.206 85.888 126.898 86.636 126.282 87.244ZM124.038 87.136C124.638 87.136 125.142 86.932 125.55 86.524C125.958 86.116 126.162 85.608 126.162 85C126.162 84.392 125.958 83.884 125.55 83.476C125.142 83.068 124.638 82.864 124.038 82.864C123.446 82.864 122.946 83.068 122.538 83.476C122.13 83.884 121.926 84.392 121.926 85C121.926 85.608 122.13 86.116 122.538 86.524C122.946 86.932 123.446 87.136 124.038 87.136ZM132.169 85.48C132.273 86.016 132.517 86.432 132.901 86.728C133.293 87.024 133.773 87.172 134.341 87.172C135.133 87.172 135.709 86.88 136.069 86.296L136.957 86.8C136.373 87.704 135.493 88.156 134.317 88.156C133.365 88.156 132.589 87.86 131.989 87.268C131.397 86.668 131.101 85.912 131.101 85C131.101 84.096 131.393 83.344 131.977 82.744C132.561 82.144 133.317 81.844 134.245 81.844C135.125 81.844 135.841 82.156 136.393 82.78C136.953 83.396 137.233 84.14 137.233 85.012C137.233 85.164 137.221 85.32 137.197 85.48H132.169ZM134.245 82.828C133.685 82.828 133.221 82.988 132.853 83.308C132.485 83.62 132.257 84.04 132.169 84.568H136.177C136.089 84 135.865 83.568 135.505 83.272C135.145 82.976 134.725 82.828 134.245 82.828ZM143.389 82H144.433V88H143.389V86.968C142.869 87.76 142.113 88.156 141.121 88.156C140.281 88.156 139.565 87.852 138.973 87.244C138.381 86.628 138.085 85.88 138.085 85C138.085 84.12 138.381 83.376 138.973 82.768C139.565 82.152 140.281 81.844 141.121 81.844C142.113 81.844 142.869 82.24 143.389 83.032V82ZM141.253 87.148C141.861 87.148 142.369 86.944 142.777 86.536C143.185 86.12 143.389 85.608 143.389 85C143.389 84.392 143.185 83.884 142.777 83.476C142.369 83.06 141.861 82.852 141.253 82.852C140.653 82.852 140.149 83.06 139.741 83.476C139.333 83.884 139.129 84.392 139.129 85C139.129 85.608 139.333 86.12 139.741 86.536C140.149 86.944 140.653 87.148 141.253 87.148ZM147.059 83.008C147.403 82.264 148.027 81.892 148.931 81.892V82.984C148.419 82.96 147.979 83.096 147.611 83.392C147.243 83.688 147.059 84.164 147.059 84.82V88H146.015V82H147.059V83.008ZM152.94 81.844C153.644 81.844 154.208 82.068 154.632 82.516C155.056 82.956 155.268 83.556 155.268 84.316V88H154.224V84.376C154.224 83.888 154.092 83.512 153.828 83.248C153.564 82.976 153.2 82.84 152.736 82.84C152.216 82.84 151.796 83.004 151.476 83.332C151.156 83.652 150.996 84.148 150.996 84.82V88H149.952V82H150.996V82.864C151.42 82.184 152.068 81.844 152.94 81.844ZM165.114 85.756C165.114 86.412 164.898 86.952 164.466 87.376C164.034 87.8 163.474 88.052 162.786 88.132V89.2H162.03V88.144C161.374 88.096 160.814 87.916 160.35 87.604C159.894 87.292 159.562 86.872 159.354 86.344L160.314 85.792C160.586 86.536 161.158 86.956 162.03 87.052V84.148C161.67 84.02 161.378 83.904 161.154 83.8C160.938 83.688 160.71 83.54 160.47 83.356C160.23 83.172 160.05 82.948 159.93 82.684C159.818 82.412 159.762 82.1 159.762 81.748C159.762 81.1 159.978 80.572 160.41 80.164C160.842 79.756 161.382 79.52 162.03 79.456V78.4H162.786V79.468C163.266 79.532 163.694 79.7 164.07 79.972C164.446 80.244 164.738 80.612 164.946 81.076L164.01 81.604C163.778 81.02 163.37 80.672 162.786 80.56V83.32C163.154 83.456 163.446 83.576 163.662 83.68C163.878 83.784 164.114 83.932 164.37 84.124C164.626 84.308 164.814 84.536 164.934 84.808C165.054 85.08 165.114 85.396 165.114 85.756ZM160.866 81.748C160.866 82.052 160.958 82.3 161.142 82.492C161.326 82.684 161.622 82.864 162.03 83.032V80.548C161.678 80.596 161.394 80.728 161.178 80.944C160.97 81.152 160.866 81.42 160.866 81.748ZM162.786 87.028C163.17 86.972 163.466 86.832 163.674 86.608C163.89 86.376 163.998 86.096 163.998 85.768C163.998 85.44 163.898 85.18 163.698 84.988C163.506 84.788 163.202 84.6 162.786 84.424V87.028ZM167.547 86.944H171.447V88H166.431V79.6H171.387V80.656H167.547V83.236H171.087V84.28H167.547V86.944ZM178.771 88H177.499L175.435 84.688L173.371 88H172.111L174.811 83.68L172.267 79.6H173.527L175.435 82.66L177.343 79.6H178.603L176.071 83.668L178.771 88ZM182.921 79.6C183.697 79.6 184.341 79.86 184.853 80.38C185.373 80.892 185.633 81.532 185.633 82.3C185.633 83.06 185.373 83.7 184.853 84.22C184.341 84.74 183.697 85 182.921 85H180.989V88H179.873V79.6H182.921ZM182.921 83.956C183.385 83.956 183.769 83.8 184.073 83.488C184.377 83.168 184.529 82.772 184.529 82.3C184.529 81.82 184.377 81.424 184.073 81.112C183.769 80.8 183.385 80.644 182.921 80.644H180.989V83.956H182.921ZM54.76 102H55.804V108H54.76V106.968C54.24 107.76 53.484 108.156 52.492 108.156C51.652 108.156 50.936 107.852 50.344 107.244C49.752 106.628 49.456 105.88 49.456 105C49.456 104.12 49.752 103.376 50.344 102.768C50.936 102.152 51.652 101.844 52.492 101.844C53.484 101.844 54.24 102.24 54.76 103.032V102ZM52.624 107.148C53.232 107.148 53.74 106.944 54.148 106.536C54.556 106.12 54.76 105.608 54.76 105C54.76 104.392 54.556 103.884 54.148 103.476C53.74 103.06 53.232 102.852 52.624 102.852C52.024 102.852 51.52 103.06 51.112 103.476C50.704 103.884 50.5 104.392 50.5 105C50.5 105.608 50.704 106.12 51.112 106.536C51.52 106.944 52.024 107.148 52.624 107.148ZM60.3738 101.844C61.0778 101.844 61.6418 102.068 62.0658 102.516C62.4898 102.956 62.7018 103.556 62.7018 104.316V108H61.6578V104.376C61.6578 103.888 61.5258 103.512 61.2618 103.248C60.9978 102.976 60.6338 102.84 60.1698 102.84C59.6498 102.84 59.2298 103.004 58.9098 103.332C58.5898 103.652 58.4298 104.148 58.4298 104.82V108H57.3857V102H58.4298V102.864C58.8538 102.184 59.5018 101.844 60.3738 101.844ZM69.1272 99.6H70.1712V108H69.1272V106.968C68.6072 107.76 67.8512 108.156 66.8592 108.156C66.0192 108.156 65.3032 107.852 64.7112 107.244C64.1192 106.628 63.8232 105.88 63.8232 105C63.8232 104.12 64.1192 103.376 64.7112 102.768C65.3032 102.152 66.0192 101.844 66.8592 101.844C67.8512 101.844 68.6072 102.24 69.1272 103.032V99.6ZM66.9912 107.148C67.5992 107.148 68.1072 106.944 68.5152 106.536C68.9232 106.12 69.1272 105.608 69.1272 105C69.1272 104.392 68.9232 103.884 68.5152 103.476C68.1072 103.06 67.5992 102.852 66.9912 102.852C66.3912 102.852 65.8872 103.06 65.4792 103.476C65.0712 103.884 64.8672 104.392 64.8672 105C64.8672 105.608 65.0712 106.12 65.4792 106.536C65.8872 106.944 66.3912 107.148 66.9912 107.148ZM80.1409 105.756C80.1409 106.412 79.9249 106.952 79.4929 107.376C79.0609 107.8 78.5009 108.052 77.8129 108.132V109.2H77.0569V108.144C76.4009 108.096 75.8409 107.916 75.3769 107.604C74.9209 107.292 74.5889 106.872 74.3809 106.344L75.3409 105.792C75.6129 106.536 76.1849 106.956 77.0569 107.052V104.148C76.6969 104.02 76.4049 103.904 76.1809 103.8C75.9649 103.688 75.7369 103.54 75.4969 103.356C75.2569 103.172 75.0769 102.948 74.9569 102.684C74.8449 102.412 74.7889 102.1 74.7889 101.748C74.7889 101.1 75.0049 100.572 75.4369 100.164C75.8689 99.756 76.4089 99.52 77.0569 99.456V98.4H77.8129V99.468C78.2929 99.532 78.7209 99.7 79.0969 99.972C79.4729 100.244 79.7649 100.612 79.9729 101.076L79.0369 101.604C78.8049 101.02 78.3969 100.672 77.8129 100.56V103.32C78.1809 103.456 78.4729 103.576 78.6889 103.68C78.9049 103.784 79.1409 103.932 79.3969 104.124C79.6529 104.308 79.8409 104.536 79.9609 104.808C80.0809 105.08 80.1409 105.396 80.1409 105.756ZM75.8929 101.748C75.8929 102.052 75.9849 102.3 76.1689 102.492C76.3529 102.684 76.6489 102.864 77.0569 103.032V100.548C76.7049 100.596 76.4209 100.728 76.2049 100.944C75.9969 101.152 75.8929 101.42 75.8929 101.748ZM77.8129 107.028C78.1969 106.972 78.4929 106.832 78.7009 106.608C78.9169 106.376 79.0249 106.096 79.0249 105.768C79.0249 105.44 78.9249 105.18 78.7249 104.988C78.5329 104.788 78.2289 104.6 77.8129 104.424V107.028ZM86.4386 108L84.5546 104.784H82.5746V108H81.4586V99.6H84.8186C85.5386 99.6 86.1546 99.856 86.6666 100.368C87.1786 100.872 87.4346 101.484 87.4346 102.204C87.4346 102.748 87.2706 103.244 86.9426 103.692C86.6226 104.14 86.2066 104.456 85.6946 104.64L87.6746 108H86.4386ZM82.5746 100.644V103.776H84.8186C85.2346 103.776 85.5866 103.624 85.8746 103.32C86.1706 103.008 86.3186 102.636 86.3186 102.204C86.3186 101.772 86.1706 101.404 85.8746 101.1C85.5866 100.796 85.2346 100.644 84.8186 100.644H82.5746ZM89.9105 106.944H93.8105V108H88.7945V99.6H93.7505V100.656H89.9105V103.236H93.4505V104.28H89.9105V106.944ZM103.199 103.836V104.34C103.199 105.436 102.823 106.348 102.071 107.076C101.319 107.796 100.323 108.156 99.0832 108.156C97.8032 108.156 96.7432 107.736 95.9032 106.896C95.0712 106.048 94.6552 105.016 94.6552 103.8C94.6552 102.584 95.0712 101.556 95.9032 100.716C96.7432 99.868 97.7952 99.444 99.0592 99.444C99.8352 99.444 100.547 99.632 101.195 100.008C101.843 100.376 102.343 100.864 102.695 101.472L101.735 102.036C101.495 101.58 101.131 101.216 100.643 100.944C100.163 100.664 99.6312 100.524 99.0472 100.524C98.0872 100.524 97.2992 100.84 96.6832 101.472C96.0672 102.096 95.7592 102.872 95.7592 103.8C95.7592 104.728 96.0672 105.504 96.6832 106.128C97.3072 106.752 98.1112 107.064 99.0952 107.064C99.9352 107.064 100.615 106.86 101.135 106.452C101.655 106.036 101.971 105.5 102.083 104.844H98.9992V103.836H103.199ZM105.672 106.944H109.572V108H104.556V99.6H109.512V100.656H105.672V103.236H109.212V104.28H105.672V106.944ZM116.14 99.6H117.256V108H116.356L112.036 101.724V108H110.92V99.6H111.82L116.14 105.864V99.6ZM125.208 103.008H123.612V106.26C123.612 106.556 123.668 106.768 123.78 106.896C123.9 107.016 124.08 107.08 124.32 107.088C124.56 107.088 124.856 107.08 125.208 107.064V108C124.296 108.12 123.628 108.048 123.204 107.784C122.78 107.512 122.568 107.004 122.568 106.26V103.008H121.38V102H122.568V100.632L123.612 100.32V102H125.208V103.008ZM131.204 107.244C130.588 107.852 129.84 108.156 128.96 108.156C128.08 108.156 127.332 107.852 126.716 107.244C126.108 106.636 125.804 105.888 125.804 105C125.804 104.112 126.108 103.364 126.716 102.756C127.332 102.148 128.08 101.844 128.96 101.844C129.84 101.844 130.588 102.148 131.204 102.756C131.82 103.364 132.128 104.112 132.128 105C132.128 105.888 131.82 106.636 131.204 107.244ZM128.96 107.136C129.56 107.136 130.064 106.932 130.472 106.524C130.88 106.116 131.084 105.608 131.084 105C131.084 104.392 130.88 103.884 130.472 103.476C130.064 103.068 129.56 102.864 128.96 102.864C128.368 102.864 127.868 103.068 127.46 103.476C127.052 103.884 126.848 104.392 126.848 105C126.848 105.608 127.052 106.116 127.46 106.524C127.868 106.932 128.368 107.136 128.96 107.136ZM138.434 108H137.138L134.402 105.156V108H133.358V99.6H134.402V104.652L136.994 102H138.338L135.47 104.904L138.434 108ZM139.587 105.48C139.691 106.016 139.935 106.432 140.319 106.728C140.711 107.024 141.191 107.172 141.759 107.172C142.551 107.172 143.127 106.88 143.487 106.296L144.375 106.8C143.791 107.704 142.911 108.156 141.735 108.156C140.783 108.156 140.007 107.86 139.407 107.268C138.815 106.668 138.519 105.912 138.519 105C138.519 104.096 138.811 103.344 139.395 102.744C139.979 102.144 140.735 101.844 141.663 101.844C142.543 101.844 143.259 102.156 143.811 102.78C144.371 103.396 144.651 104.14 144.651 105.012C144.651 105.164 144.639 105.32 144.615 105.48H139.587ZM141.663 102.828C141.103 102.828 140.639 102.988 140.271 103.308C139.903 103.62 139.675 104.04 139.587 104.568H143.595C143.507 104 143.283 103.568 142.923 103.272C142.563 102.976 142.143 102.828 141.663 102.828ZM148.839 101.844C149.543 101.844 150.107 102.068 150.531 102.516C150.955 102.956 151.167 103.556 151.167 104.316V108H150.123V104.376C150.123 103.888 149.991 103.512 149.727 103.248C149.463 102.976 149.099 102.84 148.635 102.84C148.115 102.84 147.695 103.004 147.375 103.332C147.055 103.652 146.895 104.148 146.895 104.82V108H145.851V102H146.895V102.864C147.319 102.184 147.967 101.844 148.839 101.844ZM153.524 103.62C153.524 103.852 153.64 104.04 153.872 104.184C154.104 104.32 154.384 104.432 154.712 104.52C155.04 104.6 155.368 104.696 155.696 104.808C156.024 104.912 156.304 105.096 156.536 105.36C156.768 105.616 156.884 105.948 156.884 106.356C156.884 106.9 156.672 107.336 156.248 107.664C155.832 107.992 155.296 108.156 154.64 108.156C154.056 108.156 153.556 108.028 153.14 107.772C152.724 107.516 152.428 107.176 152.252 106.752L153.152 106.236C153.248 106.524 153.428 106.752 153.692 106.92C153.956 107.088 154.272 107.172 154.64 107.172C154.984 107.172 155.268 107.108 155.492 106.98C155.716 106.844 155.828 106.636 155.828 106.356C155.828 106.124 155.712 105.94 155.48 105.804C155.248 105.66 154.968 105.548 154.64 105.468C154.312 105.38 153.984 105.28 153.656 105.168C153.328 105.056 153.048 104.872 152.816 104.616C152.584 104.36 152.468 104.032 152.468 103.632C152.468 103.112 152.668 102.684 153.068 102.348C153.476 102.012 153.984 101.844 154.592 101.844C155.08 101.844 155.512 101.956 155.888 102.18C156.272 102.396 156.56 102.7 156.752 103.092L155.876 103.584C155.66 103.072 155.232 102.816 154.592 102.816C154.296 102.816 154.044 102.888 153.836 103.032C153.628 103.168 153.524 103.364 153.524 103.62ZM158.651 108.132C158.435 108.132 158.251 108.056 158.099 107.904C157.947 107.752 157.871 107.568 157.871 107.352C157.871 107.136 157.947 106.952 158.099 106.8C158.251 106.648 158.435 106.572 158.651 106.572C158.875 106.572 159.059 106.648 159.203 106.8C159.355 106.952 159.431 107.136 159.431 107.352C159.431 107.568 159.355 107.752 159.203 107.904C159.059 108.056 158.875 108.132 158.651 108.132Z" fill="#1A1A1A"/>
</svg>
