<svg width="35" height="34" viewBox="0 0 35 34" fill="none" xmlns="http://www.w3.org/2000/svg">
<path d="M25.6441 11.8296C25.0478 12.102 24.4171 12.282 23.7718 12.3642C24.4526 11.9359 24.9629 11.2622 25.2077 10.468C24.568 10.869 23.8676 11.1515 23.1371 11.3033C22.6489 10.7458 21.9986 10.3747 21.2885 10.2482C20.5784 10.1217 19.8484 10.2469 19.2131 10.6043C18.5779 10.9617 18.0732 11.531 17.7783 12.2229C17.4835 12.9148 17.4151 13.6902 17.5838 14.4274C16.2902 14.3586 15.0248 14.0039 13.8699 13.3865C12.715 12.7691 11.6963 11.9028 10.8801 10.8439C10.5938 11.3703 10.4434 11.9664 10.4437 12.573C10.4427 13.1363 10.574 13.6912 10.8259 14.1881C11.0779 14.6851 11.4426 15.1088 11.8876 15.4215C11.3703 15.4066 10.8641 15.2605 10.412 14.9954V15.0373C10.4159 15.8265 10.6786 16.5902 11.1556 17.199C11.6327 17.8079 12.2948 18.2245 13.03 18.3786C12.747 18.4692 12.4532 18.517 12.1574 18.5206C11.9526 18.518 11.7483 18.4984 11.5465 18.4621C11.7559 19.1411 12.161 19.7344 12.7056 20.1596C13.2502 20.5847 13.9071 20.8206 14.585 20.8344C13.4403 21.7827 12.0272 22.3003 10.5707 22.3046C10.3055 22.3055 10.0405 22.2887 9.77734 22.2545C11.2644 23.2653 12.9973 23.8021 14.7674 23.7997C15.989 23.8131 17.2008 23.5701 18.3319 23.0848C19.4632 22.5995 20.4914 21.8818 21.3562 20.9734C22.2211 20.0652 22.9055 18.9845 23.3692 17.7945C23.833 16.6047 24.0669 15.3293 24.0574 14.0431C24.0574 13.9011 24.0574 13.7508 24.0574 13.6005C24.6799 13.1116 25.2168 12.5124 25.6441 11.8296Z" fill="black"/>
<circle cx="17.711" cy="17.0001" r="16.5001" stroke="black"/>
</svg>
