<svg width="34" height="34" viewBox="0 0 34 34" fill="none" xmlns="http://www.w3.org/2000/svg">
<circle cx="17.0001" cy="17.0001" r="16.5001" stroke="black"/>
<path fill-rule="evenodd" clip-rule="evenodd" d="M11.3408 9.03161C10.8751 9.12041 10.377 9.51207 10.1661 9.95529C10.0076 10.2883 9.96077 10.6511 10.0332 10.9851C10.1091 11.3346 10.2363 11.5886 10.4517 11.8203C11.4966 12.9446 13.3393 12.2187 13.3393 10.6827C13.3393 9.61153 12.3942 8.83074 11.3408 9.03161ZM19.7972 13.5003C19.6375 13.5346 19.4299 13.5892 19.336 13.6215C18.7652 13.8182 18.1926 14.2579 17.8824 14.7378L17.7486 14.9448L17.7393 14.3L17.73 13.6553L16.3376 13.6464L14.9453 13.6374V18.3187V23H16.3974H17.8496L17.8499 20.4973C17.8502 18.0022 17.8653 17.595 17.9732 17.1745C18.0989 16.6842 18.401 16.288 18.7806 16.1155C19.1694 15.9387 19.7947 15.9165 20.1884 16.0655C20.5646 16.2078 20.8481 16.5605 20.9722 17.0406C21.0758 17.4411 21.0956 17.9931 21.0956 20.4802L21.0956 22.9658H22.5478H24L23.9997 20.241C23.9993 17.4194 23.9783 16.7983 23.8608 16.1324C23.5805 14.5437 22.7723 13.7043 21.311 13.4841C20.8497 13.4145 20.1626 13.4219 19.7972 13.5003ZM10.23 18.3191V23H11.6821H13.1343V18.3191V13.6382H11.6821H10.23V18.3191Z" fill="black"/>
</svg>
