<svg width="60" height="60" viewBox="0 0 60 60" fill="none" xmlns="http://www.w3.org/2000/svg">
<path d="M30 60C46.5685 60 60 46.5685 60 30C60 13.4315 46.5685 0 30 0C13.4315 0 0 13.4315 0 30C0 46.5685 13.4315 60 30 60Z" fill="#1A1A1A"/>
<path d="M48.0697 16.1786L43.7839 18.2738L42.7363 16.3691L47.1173 14.1786L48.0697 16.1786Z" fill="white"/>
<path d="M47.1173 33.5121L42.7363 31.4169L43.7839 29.4169L48.0697 31.6074L47.1173 33.5121Z" fill="white"/>
<path d="M44.3496 22.75H48.7306V24.9405H44.3496V22.75Z" fill="white"/>
<path d="M13.3074 14.1786L17.5931 16.3691L16.6407 18.2738L12.2598 16.1786L13.3074 14.1786Z" fill="white"/>
<path d="M13.3074 33.5121L12.2598 31.6074L16.6407 29.4169L17.5931 31.4169L13.3074 33.5121Z" fill="white"/>
<path d="M11.5898 22.75H16.066V24.9405H11.5898V22.75Z" fill="white"/>
<path d="M26.9219 46.8452H33.4933V49.0357H26.9219V46.8452Z" fill="white"/>
<path d="M42.1601 23.8928C42.1664 21.7573 41.6027 19.6588 40.5272 17.8139C39.4516 15.969 37.9033 14.4446 36.0419 13.3979C34.1806 12.3512 32.0736 11.8201 29.9385 11.8596C27.8033 11.899 25.7174 12.5076 23.896 13.6223C22.0745 14.7371 20.5836 16.3177 19.577 18.2011C18.5703 20.0844 18.0845 22.2023 18.1697 24.3361C18.2549 26.4699 18.9079 28.5423 20.0614 30.3394C21.2149 32.1366 22.8271 33.5934 24.7315 34.5594V37.988H22.5411V40.1785H24.7315V44.6547H35.5887V40.1785H37.7792V37.988H35.5887V34.5594C37.5535 33.5509 39.2046 32.0236 40.3631 30.1432C41.5215 28.2629 42.143 26.1012 42.1601 23.8928ZM33.4934 42.5594H26.922V40.1785H33.4934V42.5594ZM29.1125 26.0832C29.0992 25.9379 29.1165 25.7913 29.1631 25.653C29.2098 25.5147 29.2849 25.3877 29.3835 25.2801C29.4821 25.1725 29.6022 25.0867 29.7359 25.0282C29.8697 24.9697 30.0141 24.9398 30.1601 24.9404C30.4632 24.9404 30.7539 25.0608 30.9682 25.2751C31.1826 25.4894 31.303 25.7801 31.303 26.0832C31.3036 26.2292 31.2737 26.3737 31.2152 26.5074C31.1567 26.6412 31.0709 26.7612 30.9633 26.8598C30.8556 26.9585 30.7286 27.0335 30.5903 27.0802C30.452 27.1269 30.3055 27.1441 30.1601 27.1309C29.8823 27.1309 29.6158 27.0205 29.4193 26.824C29.2229 26.6276 29.1125 26.3611 29.1125 26.0832ZM31.303 37.988V29.1309C31.9319 28.9016 32.4772 28.4882 32.8679 27.9446C33.2586 27.401 33.4766 26.7524 33.4934 26.0832C33.4934 25.1992 33.1422 24.3513 32.5171 23.7262C31.892 23.1011 31.0442 22.7499 30.1601 22.7499C29.337 22.6609 28.511 22.8906 27.852 23.3918C27.1929 23.893 26.7509 24.6276 26.6168 25.4447C26.4827 26.2617 26.6666 27.099 27.1308 27.7846C27.5949 28.4702 28.3041 28.952 29.1125 29.1309V37.988H26.922V33.1309L26.2553 32.8451C24.2139 31.931 22.5462 30.3467 21.5287 28.3549C20.5111 26.363 20.2048 24.0832 20.6606 21.8935C21.1163 19.7037 22.3067 17.7354 24.0345 16.3149C25.7622 14.8944 27.9235 14.107 30.1601 14.0832C32.3967 14.107 34.558 14.8944 36.2857 16.3149C38.0135 17.7354 39.2039 19.7037 39.6597 21.8935C40.1154 24.0832 39.8091 26.363 38.7915 28.3549C37.774 30.3467 36.1063 31.931 34.0649 32.8451L33.4934 33.1309V37.988H31.303Z" fill="white"/>
</svg>
