<svg width="157" height="195" viewBox="0 0 157 195" fill="none" xmlns="http://www.w3.org/2000/svg">
<path d="M79.957 0.69397V45.0311" stroke="#1A1A1A" stroke-linecap="round" stroke-linejoin="round"/>
<path d="M88.7198 184.034C126.125 178.51 151.969 143.71 146.446 106.305C140.923 68.9007 106.122 43.0558 68.7176 48.5792C31.3128 54.1027 5.46788 88.9029 10.9913 126.308C16.5148 163.712 51.315 189.557 88.7198 184.034Z" fill="#1A1A1A"/>
<path d="M122.121 149.354H117.122V113.275L122.121 118.057V90.02H93.8669L102.56 98.7136L94.0843 107.407L74.9585 93.0628L42.575 116.101V70.0249H37.5762V154.352H122.121V149.354ZM72.3504 113.058V149.354H57.5714V123.708L72.3504 113.058ZM77.3492 113.493L92.3456 124.577V149.354H77.3492V113.493ZM97.3444 125.229L112.123 110.233V149.354H97.3444V125.229ZM74.9585 99.1483L94.519 113.927L109.733 98.7136L105.821 94.8015H117.122V106.103L113.21 102.191L94.9536 120.447L74.7411 105.451L42.575 128.272V122.186L74.9585 99.1483ZM42.575 134.357L52.5725 127.185V149.354H42.575V134.357Z" fill="white"/>
</svg>
