<svg width="60" height="60" viewBox="0 0 60 60" fill="none" xmlns="http://www.w3.org/2000/svg">
<path d="M30 60C46.5685 60 60 46.5685 60 30C60 13.4315 46.5685 0 30 0C13.4315 0 0 13.4315 0 30C0 46.5685 13.4315 60 30 60Z" fill="#1A1A1A"/>
<path d="M40.2869 36.7143C40.3818 34.5197 40.2862 32.321 40.0012 30.1429C39.065 24.4889 36.7418 19.1552 33.2393 14.6191L30.4774 10.9048L27.7155 14.6191C24.213 19.1552 21.8897 24.4889 20.9536 30.1429C20.6686 32.321 20.573 34.5197 20.6679 36.7143C19.409 37.6545 18.3692 38.8568 17.6202 40.2381C16.6732 41.7854 16.1783 43.5669 16.1917 45.381V48.3333L18.4774 46.7143C19.62 45.9329 20.9206 45.4126 22.2869 45.1905C22.6679 46.5238 23.0488 47.1905 23.4298 48.3333C24.1917 47.8572 25.906 45.7619 29.4298 45.2857V48.3333H31.6202V45.2857C33.8649 45.6405 35.9355 46.7092 37.525 48.3333C37.9783 47.3135 38.3602 46.2633 38.6679 45.1905C40.0342 45.4126 41.3348 45.9329 42.4774 46.7143L44.7631 48.3333V45.381C44.7522 43.6859 44.3411 42.0174 43.5633 40.5114C42.7854 39.0053 41.6628 37.7043 40.2869 36.7143ZM18.4774 44.1429C18.7516 42.3248 19.6227 40.6496 20.9536 39.381C21.1158 40.6361 21.3705 41.8776 21.7155 43.0953C20.5945 43.2994 19.5056 43.6517 18.4774 44.1429ZM36.4774 44.8095C35.016 43.8634 33.3517 43.276 31.6202 43.0953V37.381H29.4298V43.0953C27.6714 43.2886 25.9789 43.8744 24.4774 44.8095C21.144 34.8095 22.9536 24.6191 29.4298 15.9524L30.4774 14.5238L31.525 15.9524C38.0012 24.6191 39.8107 34.8095 36.4774 44.8095ZM39.3345 43.0953C39.6488 41.8755 39.8716 40.6339 40.0012 39.381C41.3321 40.6496 42.2032 42.3248 42.4774 44.1429C41.4767 43.6662 40.4211 43.3143 39.3345 43.0953Z" fill="white"/>
<path d="M11.8105 19.7617H18.382V21.9522H11.8105V19.7617Z" fill="white"/>
<path d="M42.5703 19.7617H49.237V21.9522H42.5703V19.7617Z" fill="white"/>
<path d="M14.0969 11.9521L20.0017 14.8093L19.0493 16.7141L13.1445 13.9522L14.0969 11.9521Z" fill="white"/>
<path d="M46.9531 29.7619L40.9531 27L41.9055 25L47.8103 27.7619L46.9531 29.7619Z" fill="white"/>
<path d="M13.1445 27.7619L19.0493 25L20.0017 27L14.0969 29.7619L13.1445 27.7619Z" fill="white"/>
<path d="M46.9531 11.9521L47.8103 13.9522L41.9055 16.7141L40.9531 14.8093L46.9531 11.9521Z" fill="white"/>
<path d="M30.4778 24.1428C29.1497 24.3184 27.9307 24.9705 27.0476 25.978C26.1646 26.9854 25.6777 28.2794 25.6777 29.619C25.6777 30.9587 26.1646 32.2527 27.0476 33.2601C27.9307 34.2675 29.1497 34.9197 30.4778 35.0952C31.2575 35.1983 32.0503 35.1336 32.803 34.9056C33.5558 34.6776 34.2511 34.2914 34.8426 33.773C35.4341 33.2545 35.908 32.6157 36.2327 31.8994C36.5574 31.183 36.7254 30.4055 36.7254 29.619C36.7254 28.8325 36.5574 28.0551 36.2327 27.3387C35.908 26.6223 35.4341 25.9835 34.8426 25.4651C34.2511 24.9466 33.5558 24.5605 32.803 24.3325C32.0503 24.1044 31.2575 24.0398 30.4778 24.1428ZM30.4778 32.9047C29.619 32.9047 28.7954 32.5636 28.1881 31.9563C27.5809 31.3491 27.2397 30.5254 27.2397 29.6666C27.2394 28.7988 27.5774 27.9651 28.1821 27.3427C28.7868 26.7202 29.6104 26.3581 30.4778 26.3333C31.3619 26.3333 32.2097 26.6845 32.8348 27.3096C33.46 27.9347 33.8111 28.7826 33.8111 29.6666C33.7863 30.5341 33.4242 31.3577 32.8018 31.9623C32.1793 32.567 31.3456 32.9051 30.4778 32.9047Z" fill="white"/>
<path d="M30.4789 31.1905L28.9551 29.6667L30.4789 28.0476L32.0027 29.6667L30.4789 31.1905Z" fill="white"/>
</svg>
