<svg width="70" height="69" viewBox="0 0 70 69" fill="none" xmlns="http://www.w3.org/2000/svg">
<path fill-rule="evenodd" clip-rule="evenodd" d="M27.3546 19.956C24.1198 20.4102 21.5162 22.7375 20.7211 25.8856C20.6462 26.182 20.5576 26.6543 20.524 26.9351C20.4399 27.6398 20.4399 41.1501 20.524 41.8549C20.9185 45.1608 23.2703 47.8496 26.4754 48.6593C26.7718 48.7342 27.244 48.8229 27.5248 48.8564C28.2295 48.9405 41.7384 48.9405 42.443 48.8564C45.4224 48.5008 47.9135 46.5564 48.9959 43.7416C49.1712 43.286 49.376 42.4229 49.4438 41.8549C49.5279 41.1501 49.5279 27.6398 49.4438 26.9351C49.0882 23.9554 47.1441 21.464 44.3296 20.3815C43.874 20.2062 43.011 20.0013 42.443 19.9335C41.6667 19.8408 28.0301 19.8612 27.3546 19.956ZM44.1488 23.6537C44.8848 23.9012 45.4745 24.4911 45.7237 25.2291C45.8417 25.5786 45.8459 26.2721 45.7322 26.6467C45.267 28.1806 43.4363 28.839 42.1012 27.9527C41.3183 27.433 40.9031 26.5077 41.0483 25.6061C41.1938 24.7021 41.8131 23.9564 42.6571 23.6687C43.0469 23.5358 43.7765 23.5285 44.1488 23.6537ZM43.0893 25.3465C42.7626 25.524 42.6345 26.0052 42.8332 26.3084C43.2207 26.9 44.1164 26.6426 44.1164 25.9397C44.1164 25.4337 43.5406 25.1011 43.0893 25.3465ZM36.2318 26.5352C37.9187 26.8166 39.4049 27.5786 40.6023 28.7761C42.1242 30.2982 42.9232 32.2325 42.9232 34.395C42.9232 36.5574 42.1242 38.4918 40.6023 40.0139C39.0803 41.536 37.1462 42.3351 34.9839 42.3351C32.8217 42.3351 30.8875 41.536 29.3656 40.0139C27.8437 38.4918 27.0447 36.5574 27.0447 34.395C27.0447 32.2325 27.8437 30.2982 29.3656 28.7761C30.5437 27.5978 32.032 26.8265 33.6793 26.5406C34.2624 26.4393 35.6395 26.4365 36.2318 26.5352ZM33.8858 28.2455C30.9271 28.78 28.7444 31.3907 28.7444 34.395C28.7444 38.2445 32.256 41.2073 36.037 40.5479C40.194 39.8229 42.4556 35.2783 40.5236 31.5322C39.2788 29.1183 36.5455 27.765 33.8858 28.2455Z" fill="black"/>
<circle cx="34.9825" cy="34.3966" r="33.3966" stroke="black" stroke-width="2"/>
</svg>
