<svg width="60" height="60" viewBox="0 0 60 60" fill="none" xmlns="http://www.w3.org/2000/svg">
<path d="M30 60C46.5685 60 60 46.5685 60 30C60 13.4315 46.5685 0 30 0C13.4315 0 0 13.4315 0 30C0 46.5685 13.4315 60 30 60Z" fill="#1A1A1A"/>
<path d="M42.581 18.2783L44.4858 16.3735L46.2 18.0878L47.9143 16.3735L42.7715 11.2307L41.0572 12.945L42.7715 14.6593L40.6762 16.7545C38.5931 15.251 36.2287 14.1821 33.7239 13.6116V10.7545H36.1048V8.37354H24.0096V10.7545H26.3905V13.6116C23.8857 14.1821 21.5212 15.251 19.4382 16.7545L17.3429 14.6593L19.0572 12.945L17.3429 11.2307L12.2001 16.3735L13.9143 18.0878L15.6286 16.3735L17.5334 18.2783C15.7245 19.9754 14.2838 22.0263 13.3008 24.3036C12.3177 26.5809 11.8134 29.036 11.8191 31.5164C11.6379 34.0223 11.975 36.5386 12.8095 38.9084C13.6439 41.2782 14.9578 43.4506 16.6691 45.2901C18.3804 47.1296 20.4524 48.5968 22.7559 49.5999C25.0593 50.6031 27.5448 51.1209 30.0572 51.1209C32.5696 51.1209 35.0551 50.6031 37.3585 49.5999C39.662 48.5968 41.734 47.1296 43.4453 45.2901C45.1566 43.4506 46.4704 41.2782 47.3049 38.9084C48.1393 36.5386 48.4765 34.0223 48.2953 31.5164C48.3067 29.0351 47.805 26.5783 46.8216 24.3002C45.8382 22.0221 44.3945 19.9719 42.581 18.2783ZM28.8667 10.7545H31.2477V13.3259H28.8667V10.7545ZM30.0096 47.4211C26.8599 47.44 23.7756 46.5233 21.1476 44.7871C18.5196 43.051 16.4662 40.5737 15.2478 37.6691C14.0294 34.7646 13.7008 31.5638 14.3036 28.4723C14.9065 25.3808 16.4138 22.538 18.6342 20.3041C20.8547 18.0703 23.6885 16.546 26.7763 15.9246C29.8641 15.3031 33.0669 15.6125 35.9786 16.8134C38.8904 18.0144 41.38 20.0528 43.1319 22.6704C44.8838 25.2879 45.8191 28.3667 45.8191 31.5164C45.8192 35.7181 44.1566 39.7492 41.1944 42.7292C38.2322 45.7092 34.2112 47.396 30.0096 47.4211Z" fill="white"/>
<path d="M31.2485 28.0879V18.1831H28.8676V28.0879C28.0335 28.3701 27.3268 28.9394 26.8736 29.6943C26.4204 30.4492 26.2501 31.3406 26.3931 32.2094C26.5361 33.0783 26.9831 33.868 27.6544 34.4379C28.3257 35.0077 29.1775 35.3205 30.0581 35.3205C30.9386 35.3205 31.7904 35.0077 32.4617 34.4379C33.133 33.868 33.58 33.0783 33.723 32.2094C33.8661 31.3406 33.6957 30.4492 33.2425 29.6943C32.7893 28.9394 32.0826 28.3701 31.2485 28.0879ZM30.0104 32.7545C29.6821 32.7545 29.3672 32.6241 29.135 32.3919C28.9028 32.1597 28.7723 31.8448 28.7723 31.5164C28.7723 31.1881 28.9028 30.8732 29.135 30.641C29.3672 30.4088 29.6821 30.2783 30.0104 30.2783C30.173 30.2783 30.334 30.3104 30.4842 30.3726C30.6344 30.4348 30.7709 30.526 30.8859 30.641C31.0009 30.7559 31.0921 30.8924 31.1543 31.0426C31.2165 31.1929 31.2485 31.3538 31.2485 31.5164C31.2485 31.679 31.2165 31.84 31.1543 31.9902C31.0921 32.1404 31.0009 32.2769 30.8859 32.3919C30.7709 32.5069 30.6344 32.5981 30.4842 32.6603C30.334 32.7225 30.173 32.7545 30.0104 32.7545Z" fill="white"/>
<path d="M28.8672 42.469H31.2481V44.9452H28.8672V42.469Z" fill="white"/>
<path d="M16.6758 30.2783H19.0567V32.7545H16.6758V30.2783Z" fill="white"/>
<path d="M40.9629 30.2783H43.4391V32.7545H40.9629V30.2783Z" fill="white"/>
<path d="M21.4389 41.8021L19.7246 40.0878L21.4389 38.3735L23.1532 40.0878L21.4389 41.8021Z" fill="white"/>
<path d="M38.6753 24.6593L36.9609 22.945L38.6753 21.2307L40.3895 22.945L38.6753 24.6593Z" fill="white"/>
<path d="M38.6753 41.8021L36.9609 40.0878L38.6753 38.3735L40.3895 40.0878L38.6753 41.8021Z" fill="white"/>
<path d="M21.4389 24.6593L19.7246 22.945L21.4389 21.2307L23.1532 22.945L21.4389 24.6593Z" fill="white"/>
</svg>
